<?xml version="1.0" encoding="UTF-8" standalone="no"?>
<!-- Created with Inkscape (http://www.inkscape.org/) -->

<svg
   width="2000"
   height="600"
   viewBox="0 0 2000 600"
   version="1.1"
   id="svg1"
   xml:space="preserve"
   inkscape:version="1.4.2 (f4327f4, 2025-05-13)"
   sodipodi:docname="iconic-banner.svg"
   xmlns:inkscape="http://www.inkscape.org/namespaces/inkscape"
   xmlns:sodipodi="http://sodipodi.sourceforge.net/DTD/sodipodi-0.dtd"
   xmlns="http://www.w3.org/2000/svg"
   xmlns:svg="http://www.w3.org/2000/svg"><sodipodi:namedview
     id="namedview1"
     pagecolor="#ffffff"
     bordercolor="#999999"
     borderopacity="1"
     inkscape:showpageshadow="2"
     inkscape:pageopacity="0"
     inkscape:pagecheckerboard="0"
     inkscape:deskcolor="#d1d1d1"
     inkscape:document-units="px"
     showgrid="false"
     inkscape:zoom="0.35355339"
     inkscape:cx="947.52309"
     inkscape:cy="7.0710678"
     inkscape:window-width="1920"
     inkscape:window-height="1001"
     inkscape:window-x="-9"
     inkscape:window-y="-9"
     inkscape:window-maximized="1"
     inkscape:current-layer="layer1"><inkscape:grid
       id="grid1"
       units="mm"
       originx="0"
       originy="0"
       spacingx="1"
       spacingy="1"
       empcolor="#0099e5"
       empopacity="0.30196078"
       color="#0099e5"
       opacity="0.14901961"
       empspacing="5"
       enabled="true"
       visible="false" /></sodipodi:namedview><defs
     id="defs1"><inkscape:path-effect
       effect="fillet_chamfer"
       id="path-effect1"
       is_visible="true"
       lpeversion="1"
       nodesatellites_param="F,0,0,1,0,2.2572315,0,1 @ F,0,0,1,0,2.608162,0,1 @ F,0,0,1,0,2.5997618,0,1 @ F,0,0,1,0,3.0078049,0,1 @ F,0,0,1,0,2.2522004,0,1 @ F,0,0,1,0,2.8010871,0,1"
       radius="0"
       unit="px"
       method="auto"
       mode="F"
       chamfer_steps="1"
       flexible="false"
       use_knot_distance="true"
       apply_no_radius="true"
       apply_with_radius="true"
       only_selected="false"
       hide_knots="false" /><inkscape:path-effect
       effect="fillet_chamfer"
       id="path-effect1-8"
       is_visible="true"
       lpeversion="1"
       nodesatellites_param="F,0,0,1,0,2.2572315,0,1 @ F,0,0,1,0,2.608162,0,1 @ F,0,0,1,0,2.5997618,0,1 @ F,0,0,1,0,3.0078049,0,1 @ F,0,0,1,0,2.2522004,0,1 @ F,0,0,1,0,2.8010871,0,1"
       radius="0"
       unit="px"
       method="auto"
       mode="F"
       chamfer_steps="1"
       flexible="false"
       use_knot_distance="true"
       apply_no_radius="true"
       apply_with_radius="true"
       only_selected="false"
       hide_knots="false" /></defs><g
     inkscape:label="Layer 1"
     inkscape:groupmode="layer"
     id="layer1"><g
       inkscape:label="Layer 1"
       id="layer1-2"
       transform="translate(147.20185,43.999939)"><circle
         style="fill:#f9f9f9;fill-opacity:1;stroke:#858585;stroke-width:8;stroke-dasharray:none;stroke-opacity:0"
         id="path1"
         inkscape:label="background"
         cx="256.00003"
         cy="256.00006"
         r="241.31339" /><g
         id="g2"
         transform="matrix(1.1597009,0,0,1.1597009,-44.547124,-38.413468)"><circle
           fill="#000000"
           cx="30.200001"
           cy="117.8"
           r="9.1999998"
           id="circle1"
           transform="matrix(2.2996922,0,0,2.2996922,111.99455,106.67419)"
           style="fill:#86c8b8;fill-opacity:1" /><path
           fill="#000000"
           d="m 333.56802,356.98061 c 6.24964,-23.32399 -7.51293,-47.48668 -31.05905,-53.79584 -23.32399,-6.24965 -47.48668,7.51292 -53.79584,31.05904 -6.24964,23.32399 7.51292,47.48668 31.05904,53.79584 23.54612,6.30917 47.48668,-7.51292 53.79585,-31.05904 z m -29.98799,-8.03526 c 1.84513,-6.88613 -2.22018,-13.92747 -9.10631,-15.7726 -3.10987,-0.83329 -5.12074,-3.991 -4.22794,-7.32299 0.83329,-3.10987 3.991,-5.12074 7.323,-4.22794 13.10586,3.51171 20.91127,17.03108 17.39957,30.13694 -0.83329,3.10987 -3.991,5.12074 -7.323,4.22793 -2.94725,-0.55163 -4.8986,-3.93147 -4.06532,-7.04134 z"
           id="path2"
           style="fill:#f6ca60;fill-opacity:1;stroke-width:2.29969" /><path
           fill="#000000"
           d="m 28.5,65.7 c -7.9,0 -14.3,6.4 -14.3,14.3 0,7.9 6.4,14.3 14.3,14.3 7.9,0 14.3,-6.3 14.3,-14.3 0,-7.9 -6.4,-14.3 -14.3,-14.3 z m 1,12.2 c -1.7,0 -3.1,1.4 -3.1,3.1 0,1.4 -1.1,2.6 -2.6,2.6 -1.4,0 -2.6,-1.1 -2.6,-2.6 0,-4.5 3.7,-8.2 8.2,-8.2 1.4,0 2.6,1.1 2.6,2.6 0.1,1.4 -1.1,2.5 -2.5,2.5 z"
           id="path3"
           transform="matrix(2.2996922,0,0,2.2996922,111.99455,106.67419)"
           style="fill:#d0bfe3;fill-opacity:1" /><path
           fill="#000000"
           d="m 331.96011,264.74749 c 39.83184,-22.99692 53.55229,-74.20236 30.55537,-114.03419 -22.99692,-39.83184 -74.20236,-53.552298 -114.0342,-30.55538 -40.03099,23.11191 -53.55229,74.20237 -30.55537,114.0342 22.99692,39.83184 74.0032,53.66728 114.0342,30.55537 z M 316.3222,237.66184 c 24.8949,-14.37307 33.48071,-46.41574 19.10763,-71.31064 -1.60978,-2.78823 -0.79885,-6.44297 2.18854,-8.16774 2.78823,-1.60978 6.44297,-0.79884 8.16774,2.18854 17.39348,30.58634 6.87166,69.85432 -23.59969,87.44696 -2.78823,1.60979 -6.44297,0.79885 -8.16774,-2.18854 -1.72477,-2.98738 -0.68387,-6.24381 2.30352,-7.96858 z"
           id="path1-0"
           style="fill:#6696cc;fill-opacity:1;stroke-width:2.29969" /></g><g
         id="g1"
         transform="matrix(2.2996922,0,0,2.2996922,111.99455,106.67419)" /></g><text
       xml:space="preserve"
       style="font-style:normal;font-variant:normal;font-weight:normal;font-stretch:normal;font-size:320px;font-family:'Material Design Icons';-inkscape-font-specification:'Material Design Icons';text-align:start;writing-mode:lr-tb;direction:ltr;text-anchor:start;fill:#f9f9f9;fill-opacity:1;stroke:#858585;stroke-width:0;stroke-opacity:0"
       x="753.83557"
       y="416.32812"
       id="text1"><tspan
         sodipodi:role="line"
         id="tspan1"
         x="753.83557"
         y="416.32812"
         style="font-style:normal;font-variant:normal;font-weight:normal;font-stretch:normal;font-size:320px;font-family:'Franklin Gothic Heavy';-inkscape-font-specification:'Franklin Gothic Heavy, ';fill:#f9f9f9;fill-opacity:1;stroke:#000000;stroke-opacity:0">ICONIC</tspan></text></g></svg>
