<?xml version="1.0" encoding="UTF-8" standalone="no"?>
<!-- Created with Inkscape (http://www.inkscape.org/) -->

<svg
   width="512"
   height="512"
   viewBox="0 0 512 512"
   version="1.1"
   id="svg1"
   xml:space="preserve"
   inkscape:version="1.4.2 (f4327f4, 2025-05-13)"
   sodipodi:docname="ae.svg"
   xmlns:inkscape="http://www.inkscape.org/namespaces/inkscape"
   xmlns:sodipodi="http://sodipodi.sourceforge.net/DTD/sodipodi-0.dtd"
   xmlns="http://www.w3.org/2000/svg"
   xmlns:svg="http://www.w3.org/2000/svg"><sodipodi:namedview
     id="namedview1"
     pagecolor="#ffffff"
     bordercolor="#999999"
     borderopacity="1"
     inkscape:showpageshadow="2"
     inkscape:pageopacity="0"
     inkscape:pagecheckerboard="0"
     inkscape:deskcolor="#d1d1d1"
     inkscape:document-units="px"
     showgrid="false"
     inkscape:zoom="1"
     inkscape:cx="161"
     inkscape:cy="323.5"
     inkscape:window-width="1920"
     inkscape:window-height="1001"
     inkscape:window-x="-9"
     inkscape:window-y="-9"
     inkscape:window-maximized="1"
     inkscape:current-layer="vlpa"><inkscape:grid
       id="grid1"
       units="mm"
       originx="0"
       originy="0"
       spacingx="1"
       spacingy="1"
       empcolor="#0099e5"
       empopacity="0.30196078"
       color="#0099e5"
       opacity="0.14902"
       empspacing="5"
       enabled="true"
       visible="false" /></sodipodi:namedview><defs
     id="defs1"><inkscape:path-effect
       effect="fillet_chamfer"
       id="path-effect1"
       is_visible="true"
       lpeversion="1"
       nodesatellites_param="F,0,0,1,0,2.2572315,0,1 @ F,0,0,1,0,2.608162,0,1 @ F,0,0,1,0,2.5997618,0,1 @ F,0,0,1,0,3.0078049,0,1 @ F,0,0,1,0,2.2522004,0,1 @ F,0,0,1,0,2.8010871,0,1"
       radius="0"
       unit="px"
       method="auto"
       mode="F"
       chamfer_steps="1"
       flexible="false"
       use_knot_distance="true"
       apply_no_radius="true"
       apply_with_radius="true"
       only_selected="false"
       hide_knots="false" /></defs><g
     inkscape:label="Layer 1"
     inkscape:groupmode="layer"
     id="layer1"><circle
       style="fill:#00005b;fill-opacity:1;stroke:#858585;stroke-width:8;stroke-dasharray:none;stroke-opacity:1"
       id="path1"
       inkscape:label="background"
       cx="256.00003"
       cy="256.00006"
       r="241.31339" /><g
       id="vlpa"
       transform="matrix(1.6666667,0,0,1.6666667,55.999996,60.999996)">
	
	<g
   id="vlpe">
		<g
   id="vlpf">
			<path
   class="st1"
   d="M 96.4,140 H 59.2 l -7.6,23.6 c -0.2,0.9 -1,1.5 -1.9,1.4 H 30.9 c -1.1,0 -1.4,-0.6 -1.1,-1.8 L 62,70.9 c 0.3,-1 0.6,-1.9 1,-3.1 0.4,-2.1 0.6,-4.3 0.6,-6.5 -0.1,-0.5 0.3,-1 0.8,-1.1 h 0.3 25.6 c 0.7,0 1.2,0.3 1.3,0.8 l 36.5,102 c 0.3,1.1 0,1.6 -1,1.6 h -20.9 c -0.7,0.1 -1.4,-0.4 -1.6,-1.1 l -8.2,-24 z M 65,120.1 h 25.4 c -0.6,-2.1 -1.4,-4.6 -2.3,-7.2 -0.9,-2.7 -1.8,-5.6 -2.7,-8.6 -1,-3.1 -1.9,-6.1 -2.9,-9.2 -1,-3.1 -1.9,-6 -2.7,-8.9 -0.8,-2.8 -1.5,-5.4 -2.2,-7.8 h -0.2 c -0.9,4.3 -2,8.6 -3.4,12.9 -1.5,4.8 -3,9.8 -4.6,14.8 -1.3,5.1 -2.9,9.8 -4.4,14 z"
   id="path2" />
			<path
   class="st1"
   d="m 187,131 h -31.7 c 0.4,3.1 1.4,6.2 3.1,8.9 1.8,2.7 4.3,4.8 7.3,6 4,1.7 8.4,2.6 12.8,2.5 3.5,-0.1 7,-0.4 10.4,-1.1 3.1,-0.4 6.1,-1.2 8.9,-2.3 0.5,-0.4 0.8,-0.2 0.8,0.8 v 15.3 c 0,0.4 -0.1,0.8 -0.2,1.2 -0.2,0.3 -0.4,0.5 -0.7,0.7 -3.2,1.4 -6.5,2.4 -10,3 -4.7,0.9 -9.4,1.3 -14.2,1.2 -7.6,0 -14,-1.2 -19.2,-3.5 -4.9,-2.1 -9.2,-5.4 -12.6,-9.5 -3.2,-3.9 -5.5,-8.3 -6.9,-13.1 -1.4,-4.7 -2.1,-9.6 -2.1,-14.6 0,-5.4 0.8,-10.7 2.5,-15.9 1.6,-5 4.1,-9.6 7.5,-13.7 3.3,-4 7.4,-7.2 12.1,-9.5 4.7,-2.3 10.3,-3.1 16.7,-3.1 5.3,-0.1 10.6,0.9 15.5,3.1 4.1,1.8 7.7,4.5 10.5,8 2.6,3.4 4.7,7.2 6,11.4 1.3,4 1.9,8.1 1.9,12.2 0,2.4 -0.1,4.5 -0.2,6.4 -0.2,1.9 -0.3,3.3 -0.4,4.2 -0.1,0.7 -0.7,1.3 -1.4,1.3 -0.6,0 -1.7,0.1 -3.3,0.2 -1.6,0.2 -3.5,0.3 -5.8,0.3 -2.3,0 -4.7,-0.4 -7.3,-0.4 z m -31.7,-14.6 h 21.1 c 2.6,0 4.5,0 5.7,-0.1 0.8,-0.1 1.6,-0.3 2.3,-0.8 v -1 c 0,-1.3 -0.2,-2.5 -0.6,-3.7 -1.8,-5.6 -7.1,-9.4 -13,-9.2 -5.5,-0.3 -10.7,2.6 -13.3,7.6 -1.2,2.3 -1.9,4.7 -2.2,7.2 z"
   id="path3" />
		</g>
	</g>
</g></g><style
     type="text/css"
     id="style1">
	.st0{fill:#00005B;}
	.st1{fill:#9999FF;}
</style></svg>
