<?xml version="1.0" encoding="UTF-8" standalone="no"?>
<!-- Created with Inkscape (http://www.inkscape.org/) -->

<svg
   width="512"
   height="512"
   viewBox="0 0 512 512"
   version="1.1"
   id="svg1"
   xml:space="preserve"
   xmlns="http://www.w3.org/2000/svg"
   xmlns:svg="http://www.w3.org/2000/svg"><defs
     id="defs1"><linearGradient
       id="a"
       x1="5.0197348"
       x2="23.9035"
       y1="20.915562"
       y2="11.95175"
       gradientTransform="scale(0.99989542,1.0001046)"
       gradientUnits="userSpaceOnUse"><stop
         stop-color="#E40035"
         id="stop2" /><stop
         offset=".24"
         stop-color="#F60A48"
         id="stop3" /><stop
         offset=".352"
         stop-color="#F20755"
         id="stop4" /><stop
         offset=".494"
         stop-color="#DC087D"
         id="stop5" /><stop
         offset=".745"
         stop-color="#9717E7"
         id="stop6" /><stop
         offset="1"
         stop-color="#6C00F5"
         id="stop7" /></linearGradient><linearGradient
       id="b"
       x1="3.8245599"
       x2="16.015345"
       y1="2.9879375"
       y2="16.971484"
       gradientTransform="scale(0.99989542,1.0001046)"
       gradientUnits="userSpaceOnUse"><stop
         stop-color="#FF31D9"
         id="stop8" /><stop
         offset="1"
         stop-color="#FF5BE1"
         stop-opacity="0"
         id="stop9" /></linearGradient></defs><g
     id="layer1"><circle
       style="fill:#2e3548;fill-opacity:1;stroke:#858585;stroke-width:8;stroke-dasharray:none;stroke-opacity:1"
       id="path1"
       cx="256.00003"
       cy="256.00006"
       r="241.31339" /><g
       id="g1"
       transform="matrix(14.055049,0,0,14.055049,88.035137,87.999999)"><path
         fill="url(#a)"
         d="M 23.9,3.986 23.038,16.791 14.786,0 23.901,3.986 Z M 18.185,20.544 11.95,23.906 5.715,20.544 6.983,17.64 h 9.934 z M 11.95,6.374 15.218,13.879 H 8.682 L 11.949,6.374 Z M 0.854,16.79 0,3.986 9.115,0 0.855,16.791 Z"
         id="path1-0"
         style="fill:url(#a)" /><path
         fill="url(#b)"
         d="M 23.9,3.986 23.038,16.791 14.786,0 23.901,3.986 Z M 18.185,20.544 11.95,23.906 5.715,20.544 6.983,17.64 h 9.934 z M 11.95,6.374 15.218,13.879 H 8.682 L 11.949,6.374 Z M 0.854,16.79 0,3.986 9.115,0 0.855,16.791 Z"
         id="path2"
         style="fill:url(#b)" /></g></g></svg>
