<?xml version="1.0" encoding="UTF-8" standalone="no"?>
<!-- Created with Inkscape (http://www.inkscape.org/) -->

<svg
   width="512"
   height="512"
   viewBox="0 0 512 512"
   version="1.1"
   id="svg1"
   xml:space="preserve"
   inkscape:version="1.4.2 (f4327f4, 2025-05-13)"
   sodipodi:docname="apple-notes.svg"
   xmlns:inkscape="http://www.inkscape.org/namespaces/inkscape"
   xmlns:sodipodi="http://sodipodi.sourceforge.net/DTD/sodipodi-0.dtd"
   xmlns:xlink="http://www.w3.org/1999/xlink"
   xmlns="http://www.w3.org/2000/svg"
   xmlns:svg="http://www.w3.org/2000/svg"><sodipodi:namedview
     id="namedview1"
     pagecolor="#ffffff"
     bordercolor="#999999"
     borderopacity="1"
     inkscape:showpageshadow="2"
     inkscape:pageopacity="0"
     inkscape:pagecheckerboard="0"
     inkscape:deskcolor="#d1d1d1"
     inkscape:document-units="px"
     showgrid="false"
     inkscape:zoom="1"
     inkscape:cx="161"
     inkscape:cy="323.5"
     inkscape:window-width="1920"
     inkscape:window-height="1001"
     inkscape:window-x="-9"
     inkscape:window-y="-9"
     inkscape:window-maximized="1"
     inkscape:current-layer="layer1"><inkscape:grid
       id="grid1"
       units="mm"
       originx="0"
       originy="0"
       spacingx="1"
       spacingy="1"
       empcolor="#0099e5"
       empopacity="0.30196078"
       color="#0099e5"
       opacity="0.14901961"
       empspacing="5"
       enabled="true"
       visible="false" /></sodipodi:namedview><defs
     id="defs1"><linearGradient
       id="linearGradient2"
       inkscape:collect="always"><stop
         style="stop-color:#ffda49;stop-opacity:1;"
         offset="0"
         id="stop2" /><stop
         style="stop-color:#ffcd04;stop-opacity:1;"
         offset="0.83198708"
         id="stop3" /></linearGradient><inkscape:path-effect
       effect="fillet_chamfer"
       id="path-effect1"
       is_visible="true"
       lpeversion="1"
       nodesatellites_param="F,0,0,1,0,2.2572315,0,1 @ F,0,0,1,0,2.608162,0,1 @ F,0,0,1,0,2.5997618,0,1 @ F,0,0,1,0,3.0078049,0,1 @ F,0,0,1,0,2.2522004,0,1 @ F,0,0,1,0,2.8010871,0,1"
       radius="0"
       unit="px"
       method="auto"
       mode="F"
       chamfer_steps="1"
       flexible="false"
       use_knot_distance="true"
       apply_no_radius="true"
       apply_with_radius="true"
       only_selected="false"
       hide_knots="false" /><linearGradient
       inkscape:collect="always"
       xlink:href="#linearGradient2"
       id="linearGradient3"
       x1="46.077999"
       y1="-25.978769"
       x2="53.92202"
       y2="63.678783"
       gradientUnits="userSpaceOnUse" /></defs><g
     inkscape:label="Layer 1"
     inkscape:groupmode="layer"
     id="layer1"><circle
       style="fill:#2e3548;fill-opacity:1;stroke:#858585;stroke-width:8;stroke-dasharray:none;stroke-opacity:1"
       id="path1"
       inkscape:label="background"
       cx="256.00003"
       cy="256.00006"
       r="241.31339" /><g
       id="g1"
       transform="matrix(3.7333333,0,0,3.7333333,69.333335,69.333335)"><path
         d="M 5,36.4 V 54.5 H 95 V 32.7 H 5 Z M 93.5,38 c 0.4,0 0.7,0.4 0.7,0.8 0,0.4 -0.3,0.7 -0.7,0.7 -0.4,0 -0.7,-0.4 -0.7,-0.8 0,-0.4 0.3,-0.7 0.7,-0.7 z m -3,0 c 0.4,0 0.7,0.4 0.7,0.8 0,0.4 -0.3,0.7 -0.7,0.7 -0.4,0 -0.7,-0.4 -0.7,-0.8 0,-0.4 0.3,-0.7 0.7,-0.7 z m -3,0 c 0.4,0 0.7,0.4 0.7,0.8 0,0.4 -0.3,0.7 -0.7,0.7 -0.4,0 -0.7,-0.4 -0.7,-0.8 0,-0.4 0.3,-0.7 0.7,-0.7 z m -3,0 c 0.4,0 0.7,0.4 0.7,0.8 0,0.4 -0.3,0.7 -0.7,0.7 -0.4,0 -0.7,-0.4 -0.7,-0.8 0,-0.4 0.3,-0.7 0.7,-0.7 z m -3,0 c 0.4,0 0.7,0.4 0.7,0.8 0,0.4 -0.3,0.7 -0.7,0.7 -0.4,0 -0.7,-0.4 -0.7,-0.8 0,-0.4 0.3,-0.7 0.7,-0.7 z m -3,0 c 0.4,0 0.7,0.4 0.7,0.8 0,0.4 -0.3,0.7 -0.7,0.7 -0.4,0 -0.7,-0.4 -0.7,-0.8 0,-0.4 0.3,-0.7 0.7,-0.7 z m -3,0 c 0.4,0 0.7,0.4 0.7,0.8 0,0.4 -0.3,0.7 -0.7,0.7 -0.4,0 -0.7,-0.4 -0.7,-0.8 0,-0.4 0.3,-0.7 0.7,-0.7 z m -3,0 c 0.4,0 0.7,0.4 0.7,0.8 0,0.4 -0.3,0.7 -0.7,0.7 -0.4,0 -0.7,-0.4 -0.7,-0.8 0,-0.4 0.3,-0.7 0.7,-0.7 z m -3,0 c 0.4,0 0.7,0.4 0.7,0.8 0,0.4 -0.3,0.7 -0.7,0.7 -0.4,0 -0.7,-0.4 -0.7,-0.8 0,-0.4 0.3,-0.7 0.7,-0.7 z m -3,0 c 0.4,0 0.7,0.4 0.7,0.8 0,0.4 -0.3,0.7 -0.7,0.7 -0.4,0 -0.7,-0.4 -0.7,-0.8 0,-0.4 0.3,-0.7 0.7,-0.7 z m -3,0 c 0.4,0 0.7,0.4 0.7,0.8 0,0.4 -0.3,0.7 -0.7,0.7 -0.4,0 -0.7,-0.4 -0.7,-0.8 0,-0.4 0.3,-0.7 0.7,-0.7 z m -3,0 c 0.4,0 0.7,0.4 0.7,0.8 0,0.4 -0.3,0.7 -0.7,0.7 -0.4,0 -0.7,-0.4 -0.7,-0.8 0,-0.4 0.3,-0.7 0.7,-0.7 z m -3,0 c 0.4,0 0.7,0.4 0.7,0.8 0,0.4 -0.3,0.7 -0.7,0.7 -0.4,0 -0.7,-0.4 -0.7,-0.8 0,-0.4 0.3,-0.7 0.7,-0.7 z m -3,0 c 0.4,0 0.7,0.4 0.7,0.8 0,0.4 -0.3,0.7 -0.7,0.7 -0.4,0 -0.7,-0.4 -0.7,-0.8 0,-0.4 0.3,-0.7 0.7,-0.7 z m -3,0 c 0.4,0 0.7,0.4 0.7,0.8 0,0.4 -0.3,0.7 -0.7,0.7 -0.4,0 -0.7,-0.4 -0.7,-0.8 0,-0.4 0.3,-0.7 0.7,-0.7 z m -3,0 c 0.4,0 0.7,0.4 0.7,0.8 0,0.4 -0.3,0.7 -0.7,0.7 -0.4,0 -0.7,-0.4 -0.7,-0.8 0,-0.4 0.3,-0.7 0.7,-0.7 z m -3,0 c 0.4,0 0.7,0.4 0.7,0.8 0,0.4 -0.3,0.7 -0.7,0.7 -0.4,0 -0.7,-0.4 -0.7,-0.8 0,-0.4 0.3,-0.7 0.7,-0.7 z m -3,0 c 0.4,0 0.7,0.4 0.7,0.8 0,0.4 -0.3,0.7 -0.7,0.7 -0.4,0 -0.7,-0.4 -0.7,-0.8 0,-0.4 0.3,-0.7 0.7,-0.7 z m -3,0 c 0.4,0 0.7,0.4 0.7,0.8 0,0.4 -0.3,0.7 -0.7,0.7 -0.4,0 -0.7,-0.4 -0.7,-0.8 0,-0.4 0.3,-0.7 0.7,-0.7 z m -3,0 c 0.4,0 0.7,0.4 0.7,0.8 0,0.4 -0.3,0.7 -0.7,0.7 -0.4,0 -0.7,-0.4 -0.7,-0.8 0,-0.4 0.3,-0.7 0.7,-0.7 z m -3,0 c 0.4,0 0.7,0.4 0.7,0.8 0,0.4 -0.3,0.7 -0.7,0.7 -0.4,0 -0.7,-0.4 -0.7,-0.8 0,-0.4 0.3,-0.7 0.7,-0.7 z m -3,0 c 0.4,0 0.7,0.4 0.7,0.8 0,0.4 -0.3,0.7 -0.7,0.7 -0.4,0 -0.7,-0.4 -0.7,-0.8 0,-0.4 0.3,-0.7 0.7,-0.7 z m -3,0 c 0.4,0 0.7,0.4 0.7,0.8 0,0.4 -0.3,0.7 -0.7,0.7 -0.4,0 -0.7,-0.4 -0.7,-0.8 0,-0.4 0.3,-0.7 0.7,-0.7 z m -3,0 c 0.4,0 0.7,0.4 0.7,0.8 0,0.4 -0.3,0.7 -0.7,0.7 -0.4,0 -0.7,-0.4 -0.7,-0.8 0,-0.4 0.3,-0.7 0.7,-0.7 z m -3,0 c 0.4,0 0.7,0.4 0.7,0.8 0,0.4 -0.3,0.7 -0.7,0.7 -0.4,0 -0.7,-0.4 -0.7,-0.8 0,-0.4 0.3,-0.7 0.7,-0.7 z m -3,0 c 0.4,0 0.7,0.4 0.7,0.8 0,0.4 -0.3,0.7 -0.7,0.7 -0.4,0 -0.7,-0.4 -0.7,-0.8 0,-0.4 0.3,-0.7 0.7,-0.7 z m -3,0 c 0.4,0 0.7,0.4 0.7,0.8 0,0.4 -0.3,0.7 -0.7,0.7 -0.4,0 -0.7,-0.4 -0.7,-0.8 0,-0.4 0.3,-0.7 0.7,-0.7 z m -3,0 c 0.4,0 0.7,0.4 0.7,0.8 0,0.4 -0.3,0.7 -0.7,0.7 -0.4,0 -0.7,-0.4 -0.7,-0.8 0,-0.4 0.3,-0.7 0.7,-0.7 z m -3,0 c 0.4,0 0.7,0.4 0.7,0.8 0,0.4 -0.3,0.7 -0.7,0.7 -0.4,0 -0.7,-0.4 -0.7,-0.8 0,-0.4 0.3,-0.7 0.7,-0.7 z m -3,0 c 0.4,0 0.7,0.4 0.7,0.8 0,0.4 -0.3,0.7 -0.7,0.7 -0.4,0 -0.7,-0.4 -0.7,-0.8 0,-0.4 0.3,-0.7 0.7,-0.7 z m 0,44 c 2,5.4 6.1,9.5 11.5,11.5 4.9,1.5 9.4,1.5 18.4,1.5 h 27.2 c 9,0 13.5,0 18.5,-1.6 5.3,-1.9 9.5,-6.1 11.4,-11.4 0.6,-2.1 1,-4.1 1.2,-6.5 H 5.3 c 0.2,2.4 0.5,4.4 1.2,6.5 z M 5,63.6 c 0,4.8 0,8.3 0.2,11.2 H 94.8 C 95,71.8 95,68.3 95,63.6 V 55.2 H 5 Z"
         style="fill:#ffffff"
         id="path1-9" /><path
         d="m 5,74.8 v 0.7 h 0.3 c 0,-0.2 0,-0.5 -0.1,-0.7 z m 90,0.7 v -0.7 h -0.2 c 0,0.2 0,0.5 -0.1,0.7 z M 5,54.5 h 90 v 0.7 H 5 Z"
         style="fill-opacity:0.29"
         id="path2" /><path
         d="m 5.3,75.5 h 89.5 c 0,-0.2 0,-0.5 0.1,-0.7 H 5.2 c 0,0.2 0.1,0.5 0.1,0.7 z"
         style="fill-opacity:0.29"
         id="path3" /><path
         d="m 72.5,39.5 c 0.4,0 0.7,-0.3 0.7,-0.7 0,-0.4 -0.3,-0.8 -0.7,-0.8 -0.4,0 -0.7,0.3 -0.7,0.7 0,0.4 0.3,0.8 0.7,0.8 z m 3,0 c 0.4,0 0.7,-0.3 0.7,-0.7 0,-0.4 -0.3,-0.8 -0.7,-0.8 -0.4,0 -0.7,0.3 -0.7,0.7 0,0.4 0.3,0.8 0.7,0.8 z m -9,0 c 0.4,0 0.7,-0.3 0.7,-0.7 0,-0.4 -0.3,-0.8 -0.7,-0.8 -0.4,0 -0.7,0.3 -0.7,0.7 0,0.4 0.3,0.8 0.7,0.8 z m 12,0 c 0.4,0 0.7,-0.3 0.7,-0.7 0,-0.4 -0.3,-0.8 -0.7,-0.8 -0.4,0 -0.7,0.3 -0.7,0.7 0,0.4 0.3,0.8 0.7,0.8 z m -9,0 c 0.4,0 0.7,-0.3 0.7,-0.7 0,-0.4 -0.3,-0.8 -0.7,-0.8 -0.4,0 -0.7,0.3 -0.7,0.7 0,0.4 0.3,0.8 0.7,0.8 z m -6,0 c 0.4,0 0.7,-0.3 0.7,-0.7 0,-0.4 -0.3,-0.8 -0.7,-0.8 -0.4,0 -0.7,0.3 -0.7,0.7 0,0.4 0.3,0.8 0.7,0.8 z m 18,0 c 0.4,0 0.7,-0.3 0.7,-0.7 0,-0.4 -0.3,-0.8 -0.7,-0.8 -0.4,0 -0.7,0.3 -0.7,0.7 0,0.4 0.3,0.8 0.7,0.8 z m 9,0 c 0.4,0 0.7,-0.3 0.7,-0.7 0,-0.4 -0.3,-0.8 -0.7,-0.8 -0.4,0 -0.7,0.3 -0.7,0.7 0,0.4 0.3,0.8 0.7,0.8 z m -30,0 c 0.4,0 0.7,-0.3 0.7,-0.7 0,-0.4 -0.3,-0.8 -0.7,-0.8 -0.4,0 -0.7,0.3 -0.7,0.7 0,0.4 0.3,0.8 0.7,0.8 z m 33,0 c 0.4,0 0.7,-0.3 0.7,-0.7 0,-0.4 -0.3,-0.8 -0.7,-0.8 -0.4,0 -0.7,0.3 -0.7,0.7 0,0.4 0.3,0.8 0.7,0.8 z m -9,0 c 0.4,0 0.7,-0.3 0.7,-0.7 0,-0.4 -0.3,-0.8 -0.7,-0.8 -0.4,0 -0.7,0.3 -0.7,0.7 0,0.4 0.3,0.8 0.7,0.8 z m 3,0 c 0.4,0 0.7,-0.3 0.7,-0.7 0,-0.4 -0.3,-0.8 -0.7,-0.8 -0.4,0 -0.7,0.3 -0.7,0.7 0,0.4 0.3,0.8 0.7,0.8 z m -33,0 c 0.4,0 0.7,-0.3 0.7,-0.7 0,-0.4 -0.3,-0.8 -0.7,-0.8 -0.4,0 -0.7,0.3 -0.7,0.7 0,0.4 0.3,0.8 0.7,0.8 z m -36,0 c 0.4,0 0.7,-0.3 0.7,-0.7 0,-0.4 -0.3,-0.8 -0.7,-0.8 -0.4,0 -0.7,0.3 -0.7,0.7 0,0.4 0.3,0.8 0.7,0.8 z m 3,0 c 0.4,0 0.7,-0.3 0.7,-0.7 0,-0.4 -0.3,-0.8 -0.7,-0.8 -0.4,0 -0.7,0.3 -0.7,0.7 0,0.4 0.3,0.8 0.7,0.8 z m 36,0 c 0.4,0 0.7,-0.3 0.7,-0.7 0,-0.4 -0.3,-0.8 -0.7,-0.8 -0.4,0 -0.7,0.3 -0.7,0.7 0,0.4 0.3,0.8 0.7,0.8 z m -42,0 c 0.4,0 0.7,-0.3 0.7,-0.7 0,-0.4 -0.3,-0.8 -0.7,-0.8 -0.4,0 -0.7,0.3 -0.7,0.7 0,0.4 0.3,0.8 0.7,0.8 z m -9,0 c 0.4,0 0.7,-0.3 0.7,-0.7 0,-0.4 -0.3,-0.8 -0.7,-0.8 -0.4,0 -0.7,0.3 -0.7,0.7 0,0.4 0.3,0.8 0.7,0.8 z m 21,0 c 0.4,0 0.7,-0.3 0.7,-0.7 0,-0.4 -0.3,-0.8 -0.7,-0.8 -0.4,0 -0.7,0.3 -0.7,0.7 0,0.4 0.3,0.8 0.7,0.8 z m -15,0 c 0.4,0 0.7,-0.3 0.7,-0.7 0,-0.4 -0.3,-0.8 -0.7,-0.8 -0.4,0 -0.7,0.3 -0.7,0.7 0,0.4 0.3,0.8 0.7,0.8 z m -3,0 c 0.4,0 0.7,-0.3 0.7,-0.7 0,-0.4 -0.3,-0.8 -0.7,-0.8 -0.4,0 -0.7,0.3 -0.7,0.7 0,0.4 0.3,0.8 0.7,0.8 z m 15,0 c 0.4,0 0.7,-0.3 0.7,-0.7 0,-0.4 -0.3,-0.8 -0.7,-0.8 -0.4,0 -0.7,0.3 -0.7,0.7 0,0.4 0.3,0.8 0.7,0.8 z m 21,0 c 0.4,0 0.7,-0.3 0.7,-0.7 0,-0.4 -0.3,-0.8 -0.7,-0.8 -0.4,0 -0.7,0.3 -0.7,0.7 0,0.4 0.3,0.8 0.7,0.8 z m 3,0 c 0.4,0 0.7,-0.3 0.7,-0.7 0,-0.4 -0.3,-0.8 -0.7,-0.8 -0.4,0 -0.7,0.3 -0.7,0.7 0,0.4 0.3,0.8 0.7,0.8 z m -18,0 c 0.4,0 0.7,-0.3 0.7,-0.7 0,-0.4 -0.3,-0.8 -0.7,-0.8 -0.4,0 -0.7,0.3 -0.7,0.7 0,0.4 0.3,0.8 0.7,0.8 z m 21,0 c 0.4,0 0.7,-0.3 0.7,-0.7 0,-0.4 -0.3,-0.8 -0.7,-0.8 -0.4,0 -0.7,0.3 -0.7,0.7 0,0.4 0.3,0.8 0.7,0.8 z m -9,0 c 0.4,0 0.7,-0.3 0.7,-0.7 0,-0.4 -0.3,-0.8 -0.7,-0.8 -0.4,0 -0.7,0.3 -0.7,0.7 0,0.4 0.3,0.8 0.7,0.8 z m -9,0 c 0.4,0 0.7,-0.3 0.7,-0.7 0,-0.4 -0.3,-0.8 -0.7,-0.8 -0.4,0 -0.7,0.3 -0.7,0.7 0,0.4 0.3,0.8 0.7,0.8 z m 3,0 c 0.4,0 0.7,-0.3 0.7,-0.7 0,-0.4 -0.3,-0.8 -0.7,-0.8 -0.4,0 -0.7,0.3 -0.7,0.7 0,0.4 0.3,0.8 0.7,0.8 z m 3,0 c 0.4,0 0.7,-0.3 0.7,-0.7 0,-0.4 -0.3,-0.8 -0.7,-0.8 -0.4,0 -0.7,0.3 -0.7,0.7 0,0.4 0.3,0.8 0.7,0.8 z"
         style="fill:#aaaaaa"
         id="path4" /><path
         fill="url(#SVGID_1_)"
         d="M 82,6.5 C 77.1,5 72.6,5 63.6,5 H 36.4 C 27.3,5 22.8,5 18,6.6 12.6,8.5 8.5,12.7 6.5,18 5.2,22.2 5,26.1 5,32.7 H 95 C 95,26 94.8,22.1 93.4,17.9 91.5,12.6 87.3,8.4 82,6.5 Z"
         style="fill:url(#linearGradient3)"
         id="path5" /></g></g></svg>
