<?xml version="1.0" encoding="UTF-8" standalone="no"?>
<!-- Created with Inkscape (http://www.inkscape.org/) -->

<svg
   width="512"
   height="512"
   viewBox="0 0 512 512"
   version="1.1"
   id="svg1"
   xml:space="preserve"
   xmlns:xlink="http://www.w3.org/1999/xlink"
   xmlns="http://www.w3.org/2000/svg"
   xmlns:svg="http://www.w3.org/2000/svg"><defs
     id="defs1"><linearGradient
       id="linearGradient1"><stop
         style="stop-color:#04a070;stop-opacity:1;"
         offset="0.11140236"
         id="stop1" /><stop
         style="stop-color:#abdd94;stop-opacity:1;"
         offset="1"
         id="stop2" /></linearGradient><style
       id="style1">.cls-1{fill:#5fb57d;fill-rule:evenodd;}.cls-2{fill:#fff;}</style><linearGradient
       xlink:href="#linearGradient1"
       id="linearGradient2"
       x1="152.32605"
       y1="478.32935"
       x2="359.67383"
       y2="33.67062"
       gradientUnits="userSpaceOnUse" /></defs><g
     id="layer1"><circle
       style="fill:url(#linearGradient2);fill-opacity:1;stroke:#858585;stroke-width:8;stroke-dasharray:none;stroke-opacity:1"
       id="path1"
       cx="256.00003"
       cy="256.00006"
       r="241.31339" /><g
       id="g1"
       transform="matrix(5.0075342,0,0,5.0075342,-51.638829,-51.712754)"
       style="fill:#f9f9f9"><path
         class="cls-2"
         d="m 72.7,57.75 a 1.54,1.54 0 1 1 2.76,-1.35 c 4.19,8.6 6.72,17 7.4,23.62 0.73,7.09 -0.69,12.39 -4.43,14.29 C 74.69,96.21 69.28,94.1 63.8,89 58.65,84.26 53.19,76.89 48.64,68 L 48.23,67.2 C 47.59,66 47,64.7 46.42,63.43 a 62.65,62.65 0 0 0 -5.34,14 c -1.38,6 -1,10.52 1.35,12.11 a 5.38,5.38 0 0 0 4.22,0.31 21.78,21.78 0 0 0 6.92,-3.55 1.5344706,1.5344706 0 1 1 1.78,2.5 24.54,24.54 0 0 1 -7.94,4 8.28,8.28 0 0 1 -6.65,-0.71 v 0 C 37.2,89.71 36.45,84.01 38.12,76.74 a 69,69 0 0 1 6.79,-17 79.2,79.2 0 0 1 -3,-8.91 46.6,46.6 0 0 0 -4.84,1.25 c -5.7,1.81 -9.29,4.33 -9.43,7.16 v 0.07 a 4.86,4.86 0 0 0 1.36,3.43 17.38,17.38 0 0 0 5.15,3.77 1.5318698,1.5318698 0 1 1 -1.41,2.72 20.23,20.23 0 0 1 -6.06,-4.51 7.79,7.79 0 0 1 -2.1,-5.56 v 0 c 0.21,-4.25 4.61,-7.72 11.56,-9.93 a 51.19,51.19 0 0 1 5.07,-1.3 c -0.34,-1.63 -0.6,-3.18 -0.76,-4.66 -0.8,-7.26 0.61,-12.7 4.43,-14.65 v 0 a 7.49,7.49 0 0 1 5.84,-0.24 22.07,22.07 0 0 1 6.7,3.75 1.54,1.54 0 0 1 -1.88,2.43 19.22,19.22 0 0 0 -5.72,-3.26 4.7,4.7 0 0 0 -3.54,0 v 0 c -2.57,1.31 -3.44,5.63 -2.78,11.6 0.15,1.4 0.4,2.89 0.72,4.44 A 81.18,81.18 0 0 1 53.63,46.46 70.55,70.55 0 0 1 65.93,34 c 5.93,-4.51 11.4,-6.2 15,-4 v 0 A 8.14,8.14 0 0 1 84.3,35.53 22.37,22.37 0 0 1 84,44 a 1.53,1.53 0 0 1 -3,-0.6 19.64,19.64 0 0 0 0.34,-7.26 5.21,5.21 0 0 0 -2,-3.52 c -2.41,-1.5 -6.64,0.07 -11.54,3.79 a 64.32,64.32 0 0 0 -10.14,10 q 1.75,0 3.57,0.09 h 1 C 72.07,47 81,49 87.44,51.75 c 6.87,2.94 11,6.91 10.85,11.23 v 0.09 A 8.32,8.32 0 0 1 95.42,68.25 20.79,20.79 0 0 1 89,72.07 1.5301307,1.5301307 0 0 1 87.86,69.23 17.79,17.79 0 0 0 93.34,66 5.35,5.35 0 0 0 95.23,62.82 c 0.09,-2.9 -3.35,-5.84 -9,-8.25 -6.13,-2.63 -14.69,-4.5 -24.23,-5 l -0.94,-0.05 q -3,-0.12 -5.88,-0.06 c -1.33,1.76 -2.64,3.61 -3.91,5.55 -1.08,1.66 -2.08,3.32 -3,5 0.8,1.92 1.73,3.9 2.73,5.89 l 0.39,0.78 c 4.36,8.52 9.61,15.59 14.48,20.11 4.52,4.16 8.6,6.09 11.18,4.78 2.58,-1.31 3.36,-5.44 2.76,-11.23 C 79.17,74 76.74,66 72.7,57.75 Z m -11,-0.74 A 4.35,4.35 0 1 1 57.35,61.36 4.34,4.34 0 0 1 61.69,57 Z M 45,50.34 c 0.51,1.93 1.14,3.94 1.89,6 0.6,-1 1.22,-2 1.87,-3 0.83,-1.28 1.68,-2.51 2.54,-3.71 -2.2,0.14 -4.31,0.37 -6.3,0.68 z"
         id="path2"
         style="fill:#f9f9f9" /></g></g></svg>
