<?xml version="1.0" encoding="UTF-8" standalone="no"?>
<!-- Created with Inkscape (http://www.inkscape.org/) -->

<svg
   width="512"
   height="512"
   viewBox="0 0 512 512"
   version="1.1"
   id="svg1"
   xml:space="preserve"
   xmlns="http://www.w3.org/2000/svg"
   xmlns:svg="http://www.w3.org/2000/svg"><defs
     id="defs1"><style
       id="style1">.cls-1{fill:#1b1b1f;}</style></defs><g
     id="layer1"><circle
       style="fill:#2e3548;fill-opacity:1;stroke:#858585;stroke-width:8;stroke-dasharray:none;stroke-opacity:1"
       id="path1"
       cx="256.00003"
       cy="256.00006"
       r="241.31339" /><path
       class="cls-1"
       d="M 382.66556,156.56409 276.56108,93.58308 a 39.974419,39.974419 0 0 0 -40.75242,0 l -106.10448,62.98101 a 42.30842,42.30842 0 0 0 -20.63555,36.45489 v 125.96203 a 42.30842,42.30842 0 0 0 20.45031,36.45489 l 106.10448,62.98102 a 39.974419,39.974419 0 0 0 40.75242,0 L 382.48032,355.4359 a 42.30842,42.30842 0 0 0 20.4503,-36.45489 V 193.01898 a 42.30842,42.30842 0 0 0 -20.26506,-36.45489 z m -82.17169,196.686 v 9.03963 a 3.3342889,3.3342889 0 0 1 -1.556,2.77857 l -5.37192,3.07495 c -0.8521,0.44457 -1.556,0 -1.556,-1.18552 v -8.89144 a 17.449445,17.449445 0 0 1 -12.22572,1.18553 1.6300967,1.6300967 0 0 1 -0.59277,-2.00057 l 1.92648,-8.18753 a 3.4083841,3.4083841 0 0 1 1.07438,-1.77829 2.1487639,2.1487639 0 0 1 0.51867,-0.37048 1.074382,1.074382 0 0 1 0.85209,0 14.819062,14.819062 0 0 0 11.11431,-1.40781 14.819062,14.819062 0 0 0 8.29867,-12.70735 c 0,-4.59391 -2.51924,-6.52038 -8.59505,-6.55743 -7.70592,0 -14.81907,-1.48191 -15.00431,-12.85553 a 32.935364,32.935364 0 0 1 12.44801,-25.19241 v -9.15077 a 3.2972412,3.2972412 0 0 1 1.556,-2.81562 l 5.18668,-3.29724 c 0.8521,-0.44457 1.556,0 1.556,1.22257 v 9.15077 a 16.893731,16.893731 0 0 1 10.15106,-1.22257 1.6300967,1.6300967 0 0 1 0.66685,2.11171 l -1.81533,8.11344 a 3.4824794,3.4824794 0 0 1 -0.92619,1.63009 2.1487639,2.1487639 0 0 1 -0.51867,0.40753 1.2225726,1.2225726 0 0 1 -0.778,0 13.448299,13.448299 0 0 0 -9.78059,1.59304 12.299821,12.299821 0 0 0 -7.40953,10.89201 c 0,4.14935 2.18581,5.40897 9.52126,5.55716 9.81762,0 14.04106,4.44572 14.1522,14.30039 a 35.121175,35.121175 0 0 1 -12.89258,26.56317 z m 55.57147,-15.22659 a 2.1117163,2.1117163 0 0 1 -0.81504,2.03762 l -26.82251,16.30097 a 0.77800073,0.77800073 0 0 1 -1.25962,-0.778 v -6.92791 a 1.926478,1.926478 0 0 1 1.22257,-1.70419 l 26.41498,-15.81935 a 0.77800073,0.77800073 0 0 1 1.25962,0.778 z m 18.52384,-154.89624 -100.39915,62.01778 c -12.5221,7.40952 -21.74698,15.52296 -21.74698,30.60136 v 123.66506 c 0,9.03963 3.70477,14.81906 9.26191,16.59736 a 32.490793,32.490793 0 0 1 -5.55714,0.5557 32.861269,32.861269 0 0 1 -16.74554,-4.63095 L 133.2978,348.95256 A 34.898891,34.898891 0 0 1 116.47817,318.98101 V 193.01898 a 34.898891,34.898891 0 0 1 16.81963,-30.00859 l 106.10448,-62.98102 a 32.713079,32.713079 0 0 1 33.34289,0 l 106.10448,62.98102 a 34.676604,34.676604 0 0 1 16.30097,24.26621 c -3.44543,-7.48363 -11.37363,-9.5583 -20.59849,-4.14934 z"
       id="path1-4"
       style="fill:#ececec;stroke-width:3.70476" /></g></svg>
