<?xml version="1.0" encoding="UTF-8" standalone="no"?>
<!-- Created with Inkscape (http://www.inkscape.org/) -->

<svg
   width="512"
   height="512"
   viewBox="0 0 512 512"
   version="1.1"
   id="svg1"
   xml:space="preserve"
   inkscape:version="1.4.2 (f4327f4, 2025-05-13)"
   sodipodi:docname="brave.svg"
   xmlns:inkscape="http://www.inkscape.org/namespaces/inkscape"
   xmlns:sodipodi="http://sodipodi.sourceforge.net/DTD/sodipodi-0.dtd"
   xmlns="http://www.w3.org/2000/svg"
   xmlns:svg="http://www.w3.org/2000/svg"><sodipodi:namedview
     id="namedview1"
     pagecolor="#ffffff"
     bordercolor="#999999"
     borderopacity="1"
     inkscape:showpageshadow="2"
     inkscape:pageopacity="0"
     inkscape:pagecheckerboard="0"
     inkscape:deskcolor="#d1d1d1"
     inkscape:document-units="px"
     showgrid="false"
     inkscape:zoom="0.70710678"
     inkscape:cx="148.49242"
     inkscape:cy="263.75083"
     inkscape:window-width="1920"
     inkscape:window-height="1001"
     inkscape:window-x="-9"
     inkscape:window-y="-9"
     inkscape:window-maximized="1"
     inkscape:current-layer="layer1"><inkscape:grid
       id="grid1"
       units="mm"
       originx="0"
       originy="0"
       spacingx="1"
       spacingy="1"
       empcolor="#0099e5"
       empopacity="0.30196078"
       color="#0099e5"
       opacity="0.14902"
       empspacing="5"
       enabled="true"
       visible="false" /></sodipodi:namedview><defs
     id="defs1"><inkscape:path-effect
       effect="fillet_chamfer"
       id="path-effect1"
       is_visible="true"
       lpeversion="1"
       nodesatellites_param="F,0,0,1,0,2.2572315,0,1 @ F,0,0,1,0,2.608162,0,1 @ F,0,0,1,0,2.5997618,0,1 @ F,0,0,1,0,3.0078049,0,1 @ F,0,0,1,0,2.2522004,0,1 @ F,0,0,1,0,2.8010871,0,1"
       radius="0"
       unit="px"
       method="auto"
       mode="F"
       chamfer_steps="1"
       flexible="false"
       use_knot_distance="true"
       apply_no_radius="true"
       apply_with_radius="true"
       only_selected="false"
       hide_knots="false" /><style
       id="style1">.cls-1{fill:url(#linear-gradient);}.cls-2{fill:#fff;}</style><linearGradient
       id="linear-gradient"
       x1="-18.79"
       y1="359.73"
       x2="194.32"
       y2="359.73"
       gradientTransform="matrix(2.05,0,0,-2.05,38.49,992.77)"
       gradientUnits="userSpaceOnUse"><stop
         offset="0"
         stop-color="#f1562b"
         id="stop1"
         style="stop-color:#fe5400;stop-opacity:1;" /><stop
         offset="1"
         stop-color="#df3c26"
         id="stop8"
         style="stop-color:#fe1f00;stop-opacity:1;" /></linearGradient></defs><g
     inkscape:label="Layer 1"
     inkscape:groupmode="layer"
     id="layer1"><circle
       style="fill:#2e3548;fill-opacity:1;stroke:#858585;stroke-width:8;stroke-dasharray:none;stroke-opacity:1"
       id="path1"
       inkscape:label="background"
       cx="256.00003"
       cy="256.00006"
       r="241.31339" /><g
       id="g1"
       transform="matrix(0.65628057,0,0,0.65628057,112.77005,88.000001)"><path
         class="cls-1"
         d="m 436.49,165.63 -15.79,-42.88 11,-24.6 A 8.47,8.47 0 0 0 430,88.78 L 400.11,58.6 A 48.16,48.16 0 0 0 349.88,46.94 L 341.69,49.83 296.09,0.43 218.25,0 140.4,0.61 94.85,50.41 86.74,47.54 A 48.33,48.33 0 0 0 36.19,59.3 L 5.62,90.05 A 6.73,6.73 0 0 0 4.26,97.52 L 15.73,123.08 0,165.92 56.47,380.64 a 89.7,89.7 0 0 0 34.7,50.23 l 111.68,75.69 a 24.73,24.73 0 0 0 30.89,0 l 111.62,-75.8 A 88.86,88.86 0 0 0 380,380.53 l 46.07,-176.14 z"
         id="path8"
         style="fill:url(#linear-gradient)" /><path
         class="cls-2"
         d="m 231,317.33 a 65.61,65.61 0 0 0 -9.11,-3.3 h -5.49 a 66.08,66.08 0 0 0 -9.11,3.3 l -13.81,5.74 -15.6,7.18 -25.4,13.24 a 4.84,4.84 0 0 0 -0.62,9 l 22.06,15.49 q 7,5 13.55,10.76 l 6.21,5.35 13,11.37 5.89,5.2 a 10.15,10.15 0 0 0 12.95,0 l 25.39,-22.18 13.6,-10.77 22.06,-15.79 a 4.8,4.8 0 0 0 -0.68,-8.93 L 260.53,330.19 244.84,323 Z m 156.4,-142.13 0.8,-2.3 a 61.26,61.26 0 0 0 -0.57,-9.18 73.51,73.51 0 0 0 -8.19,-15.44 l -14.35,-21.06 -10.22,-13.88 -19.23,-24 a 69.65,69.65 0 0 0 -5.7,-6.67 h -0.4 l -8.54,1.58 -42.27,8.14 a 33.49,33.49 0 0 1 -12.59,-1.84 l -23.21,-7.5 -16.61,-4.59 a 70.52,70.52 0 0 0 -14.67,0 L 195,83.1 171.79,90.64 a 33.89,33.89 0 0 1 -12.59,1.84 l -42.22,-8 -8.54,-1.58 h -0.4 a 65.79,65.79 0 0 0 -5.7,6.67 l -19.2,24 Q 77.81,120.32 73,127.45 l -14.39,21.06 -6.78,11.31 a 51,51 0 0 0 -1.94,13.35 l 0.8,2.3 a 34.51,34.51 0 0 0 1.31,4.34 l 11.33,13 50.23,53.39 a 14.31,14.31 0 0 1 2.55,14.34 L 107.68,280 a 25.23,25.23 0 0 0 -0.39,16 l 1.64,4.52 a 43.58,43.58 0 0 0 13.39,18.76 l 7.89,6.43 a 15,15 0 0 0 14.35,1.72 L 172.62,314 A 70.38,70.38 0 0 0 187,304.52 l 22.46,-20.27 a 9,9 0 0 0 3,-6.36 9.08,9.08 0 0 0 -2.5,-6.56 L 159.2,237.18 a 9.83,9.83 0 0 1 -3.09,-12.45 l 19.66,-36.95 a 19.21,19.21 0 0 0 1,-14.67 A 22.37,22.37 0 0 0 165.58,163 l -61.64,-23.2 c -4.44,-1.6 -4.2,-3.6 0.51,-3.88 l 36.2,-3.59 a 55.9,55.9 0 0 1 16.9,1.5 l 31.5,8.8 a 9.64,9.64 0 0 1 6.74,10.76 L 183.42,221 a 34.72,34.72 0 0 0 -0.61,11.41 c 0.5,1.61 4.73,3.6 9.36,4.73 l 19.19,4 a 46.38,46.38 0 0 0 16.86,0 l 17.26,-4 c 4.64,-1 8.82,-3.23 9.35,-4.85 a 34.94,34.94 0 0 0 -0.63,-11.4 L 241.75,153.3 a 9.66,9.66 0 0 1 6.74,-10.76 l 31.5,-8.83 a 55.87,55.87 0 0 1 16.9,-1.5 l 36.2,3.37 c 4.74,0.44 5,2.2 0.54,3.88 L 272,162.79 a 22.08,22.08 0 0 0 -11.16,10.12 19.3,19.3 0 0 0 1,14.67 l 19.69,36.95 A 9.84,9.84 0 0 1 278.45,237 l -50.66,34.23 a 9,9 0 0 0 0.32,12.78 l 0.15,0.14 22.49,20.27 a 71.46,71.46 0 0 0 14.35,9.47 l 28.06,13.35 a 14.89,14.89 0 0 0 14.34,-1.76 l 7.9,-6.45 a 43.53,43.53 0 0 0 13.38,-18.8 l 1.65,-4.52 a 25.27,25.27 0 0 0 -0.39,-16 l -8.26,-19.49 a 14.4,14.4 0 0 1 2.55,-14.35 l 50.23,-53.45 11.3,-13 a 35.8,35.8 0 0 0 1.54,-4.24 z"
         id="path9" /></g></g></svg>
