<?xml version="1.0" encoding="UTF-8" standalone="no"?>
<!-- Created with Inkscape (http://www.inkscape.org/) -->

<svg
   width="512"
   height="512"
   viewBox="0 0 512 512"
   version="1.1"
   id="svg1"
   xml:space="preserve"
   inkscape:version="1.4.2 (f4327f4, 2025-05-13)"
   sodipodi:docname="c.svg"
   xmlns:inkscape="http://www.inkscape.org/namespaces/inkscape"
   xmlns:sodipodi="http://sodipodi.sourceforge.net/DTD/sodipodi-0.dtd"
   xmlns:xlink="http://www.w3.org/1999/xlink"
   xmlns="http://www.w3.org/2000/svg"
   xmlns:svg="http://www.w3.org/2000/svg"><sodipodi:namedview
     id="namedview1"
     pagecolor="#ffffff"
     bordercolor="#999999"
     borderopacity="1"
     inkscape:showpageshadow="2"
     inkscape:pageopacity="0"
     inkscape:pagecheckerboard="0"
     inkscape:deskcolor="#d1d1d1"
     inkscape:document-units="px"
     showgrid="false"
     inkscape:zoom="1"
     inkscape:cx="161"
     inkscape:cy="243.5"
     inkscape:window-width="1920"
     inkscape:window-height="1001"
     inkscape:window-x="-9"
     inkscape:window-y="-9"
     inkscape:window-maximized="1"
     inkscape:current-layer="layer1"><inkscape:grid
       id="grid1"
       units="mm"
       originx="0"
       originy="0"
       spacingx="1"
       spacingy="1"
       empcolor="#0099e5"
       empopacity="0.30196078"
       color="#0099e5"
       opacity="0.14901961"
       empspacing="5"
       enabled="true"
       visible="false" /></sodipodi:namedview><defs
     id="defs1"><linearGradient
       id="linearGradient1"
       inkscape:collect="always"><stop
         style="stop-color:#263392;stop-opacity:1;"
         offset="0"
         id="stop1" /><stop
         style="stop-color:#5b6abf;stop-opacity:1;"
         offset="1"
         id="stop2" /></linearGradient><inkscape:path-effect
       effect="fillet_chamfer"
       id="path-effect1"
       is_visible="true"
       lpeversion="1"
       nodesatellites_param="F,0,0,1,0,2.2572315,0,1 @ F,0,0,1,0,2.608162,0,1 @ F,0,0,1,0,2.5997618,0,1 @ F,0,0,1,0,3.0078049,0,1 @ F,0,0,1,0,2.2522004,0,1 @ F,0,0,1,0,2.8010871,0,1"
       radius="0"
       unit="px"
       method="auto"
       mode="F"
       chamfer_steps="1"
       flexible="false"
       use_knot_distance="true"
       apply_no_radius="true"
       apply_with_radius="true"
       only_selected="false"
       hide_knots="false" /><linearGradient
       inkscape:collect="always"
       xlink:href="#linearGradient1"
       id="linearGradient2"
       x1="10.686646"
       y1="256.00006"
       x2="501.31342"
       y2="256.00006"
       gradientUnits="userSpaceOnUse" /></defs><g
     inkscape:label="Layer 1"
     inkscape:groupmode="layer"
     id="layer1"><circle
       style="fill:url(#linearGradient2);fill-opacity:1;stroke:#858585;stroke-width:8;stroke-dasharray:none;stroke-opacity:1"
       id="path1"
       inkscape:label="background"
       cx="256.00003"
       cy="256.00006"
       r="241.31339" /><path
       fill="#03599c"
       d="m 401.40615,173.01859 0.81487,-0.54325 c -1.62975,-2.98787 -4.07437,-5.70412 -6.519,-7.06224 L 264.5072,89.90137 C 262.3342,88.54325 259.34632,88 256.08683,88 c -3.2595,0 -6.24738,0.81487 -8.42038,1.90137 L 117.2865,165.68472 c -4.61762,2.71625 -7.87712,9.50687 -7.87712,14.66775 v 151.29506 c 0,2.98788 0.54325,6.24738 2.44462,9.23525 l -0.54325,0.27163 c 1.35813,2.173 3.2595,4.07437 5.16088,5.16087 l 130.9232,75.78335 c 2.173,1.35812 5.16087,1.90137 8.42037,1.90137 3.2595,0 6.24737,-0.81487 8.42037,-1.90137 l 130.37995,-75.78335 c 4.61763,-2.71625 7.87713,-9.50687 7.87713,-14.66775 V 180.08084 c 0.27162,-2.173 0,-4.61762 -1.0865,-7.06225 z m -145.31932,149.3937 c 24.71786,0 46.44785,-13.58125 57.8561,-33.68149 l 35.03961,20.64349 c -18.47049,32.05174 -53.23848,53.78173 -92.89571,53.78173 -59.21423,0 -107.29184,-48.0776 -107.29184,-107.29183 0,-59.21423 48.07761,-107.29184 107.29184,-107.29184 39.92886,0 74.69684,22.00162 93.16734,54.32498 l -35.31124,20.37187 c -11.40825,-20.37187 -33.13824,-33.95311 -57.8561,-33.95311 -36.66937,0 -66.5481,29.87874 -66.5481,66.5481 0,36.66936 29.87873,66.5481 66.5481,66.5481 z"
       id="path1-2"
       style="fill:#ffffff;stroke-width:2.71625" /></g></svg>
