<?xml version="1.0" encoding="UTF-8" standalone="no"?>
<!-- Created with Inkscape (http://www.inkscape.org/) -->

<svg
   width="512"
   height="512"
   viewBox="0 0 512 512"
   version="1.1"
   id="svg1"
   xml:space="preserve"
   inkscape:version="1.4.2 (f4327f4, 2025-05-13)"
   sodipodi:docname="chrome.svg"
   xmlns:inkscape="http://www.inkscape.org/namespaces/inkscape"
   xmlns:sodipodi="http://sodipodi.sourceforge.net/DTD/sodipodi-0.dtd"
   xmlns="http://www.w3.org/2000/svg"
   xmlns:svg="http://www.w3.org/2000/svg"><sodipodi:namedview
     id="namedview1"
     pagecolor="#ffffff"
     bordercolor="#999999"
     borderopacity="1"
     inkscape:showpageshadow="2"
     inkscape:pageopacity="0"
     inkscape:pagecheckerboard="0"
     inkscape:deskcolor="#d1d1d1"
     inkscape:document-units="px"
     showgrid="false"
     inkscape:zoom="1"
     inkscape:cx="161"
     inkscape:cy="323.5"
     inkscape:window-width="1920"
     inkscape:window-height="1001"
     inkscape:window-x="-9"
     inkscape:window-y="-9"
     inkscape:window-maximized="1"
     inkscape:current-layer="layer1"><inkscape:grid
       id="grid1"
       units="mm"
       originx="0"
       originy="0"
       spacingx="1"
       spacingy="1"
       empcolor="#0099e5"
       empopacity="0.30196078"
       color="#0099e5"
       opacity="0.14901961"
       empspacing="5"
       enabled="true"
       visible="false" /></sodipodi:namedview><defs
     id="defs1"><inkscape:path-effect
       effect="fillet_chamfer"
       id="path-effect1"
       is_visible="true"
       lpeversion="1"
       nodesatellites_param="F,0,0,1,0,2.2572315,0,1 @ F,0,0,1,0,2.608162,0,1 @ F,0,0,1,0,2.5997618,0,1 @ F,0,0,1,0,3.0078049,0,1 @ F,0,0,1,0,2.2522004,0,1 @ F,0,0,1,0,2.8010871,0,1"
       radius="0"
       unit="px"
       method="auto"
       mode="F"
       chamfer_steps="1"
       flexible="false"
       use_knot_distance="true"
       apply_no_radius="true"
       apply_with_radius="true"
       only_selected="false"
       hide_knots="false" /><linearGradient
       id="a"
       x1="3.2173"
       y1="15"
       x2="44.7812"
       y2="15"
       gradientUnits="userSpaceOnUse"><stop
         offset="0"
         stop-color="#d93025"
         id="stop1" /><stop
         offset="1"
         stop-color="#ea4335"
         id="stop2" /></linearGradient><linearGradient
       id="b"
       x1="20.7219"
       y1="47.6791"
       x2="41.5039"
       y2="11.6837"
       gradientUnits="userSpaceOnUse"><stop
         offset="0"
         stop-color="#fcc934"
         id="stop3" /><stop
         offset="1"
         stop-color="#fbbc04"
         id="stop4" /></linearGradient><linearGradient
       id="c"
       x1="26.5981"
       y1="46.5015"
       x2="5.8161"
       y2="10.506"
       gradientUnits="userSpaceOnUse"><stop
         offset="0"
         stop-color="#1e8e3e"
         id="stop5" /><stop
         offset="1"
         stop-color="#34a853"
         id="stop6" /></linearGradient></defs><g
     inkscape:label="Layer 1"
     inkscape:groupmode="layer"
     id="layer1"><circle
       style="fill:#2e3548;fill-opacity:1;stroke:#858585;stroke-width:8;stroke-dasharray:none;stroke-opacity:1"
       id="path1"
       inkscape:label="background"
       cx="256.00003"
       cy="256.00006"
       r="241.31339" /><g
       id="g1"
       transform="matrix(7.4999926,0,0,7.4999926,76.000092,76.000333)"><circle
         cx="24"
         cy="23.994699"
         r="12"
         style="fill:#ffffff"
         id="circle6" /><path
         d="M 3.2154,36 A 24,24 0 1 0 12,3.2154 24,24 0 0 0 3.2154,36 Z M 34.3923,18 A 12,12 0 1 1 18,13.6077 12,12 0 0 1 34.3923,18 Z"
         style="fill:none"
         id="path6" /><path
         d="M 24,12 H 44.7812 A 23.9939,23.9939 0 0 0 3.2173,12.0029 L 13.6079,30 13.6172,29.9976 A 11.9852,11.9852 0 0 1 24,12 Z"
         style="fill:url(#a)"
         id="path7" /><circle
         cx="24"
         cy="24"
         r="9.5"
         style="fill:#1a73e8"
         id="circle7" /><path
         d="M 34.3913,30.0029 24.0007,48 A 23.994,23.994 0 0 0 44.78,12.0031 H 23.9989 l -0.0025,0.0093 a 11.985,11.985 0 0 1 10.3949,17.9905 z"
         style="fill:url(#b)"
         id="path8" /><path
         d="M 13.6086,30.0031 3.218,12.006 A 23.994,23.994 0 0 0 24.0025,48 L 34.3931,30.0029 34.3864,29.9961 a 11.9852,11.9852 0 0 1 -20.7778,0.007 z"
         style="fill:url(#c)"
         id="path9" /></g></g></svg>
