<?xml version="1.0" encoding="UTF-8" standalone="no"?>
<!-- Created with Inkscape (http://www.inkscape.org/) -->

<svg
   width="512"
   height="512"
   viewBox="0 0 512 512"
   version="1.1"
   id="svg1"
   xml:space="preserve"
   inkscape:version="1.4.2 (f4327f4, 2025-05-13)"
   sodipodi:docname="codewars.svg"
   xmlns:inkscape="http://www.inkscape.org/namespaces/inkscape"
   xmlns:sodipodi="http://sodipodi.sourceforge.net/DTD/sodipodi-0.dtd"
   xmlns="http://www.w3.org/2000/svg"
   xmlns:svg="http://www.w3.org/2000/svg"><sodipodi:namedview
     id="namedview1"
     pagecolor="#ffffff"
     bordercolor="#999999"
     borderopacity="1"
     inkscape:showpageshadow="2"
     inkscape:pageopacity="0"
     inkscape:pagecheckerboard="0"
     inkscape:deskcolor="#d1d1d1"
     inkscape:document-units="px"
     showgrid="false"
     inkscape:zoom="1"
     inkscape:cx="161"
     inkscape:cy="323.5"
     inkscape:window-width="1920"
     inkscape:window-height="1001"
     inkscape:window-x="-9"
     inkscape:window-y="-9"
     inkscape:window-maximized="1"
     inkscape:current-layer="layer1"><inkscape:grid
       id="grid1"
       units="mm"
       originx="0"
       originy="0"
       spacingx="1"
       spacingy="1"
       empcolor="#0099e5"
       empopacity="0.30196078"
       color="#0099e5"
       opacity="0.14901961"
       empspacing="5"
       enabled="true"
       visible="false" /></sodipodi:namedview><defs
     id="defs1"><inkscape:path-effect
       effect="fillet_chamfer"
       id="path-effect1"
       is_visible="true"
       lpeversion="1"
       nodesatellites_param="F,0,0,1,0,2.2572315,0,1 @ F,0,0,1,0,2.608162,0,1 @ F,0,0,1,0,2.5997618,0,1 @ F,0,0,1,0,3.0078049,0,1 @ F,0,0,1,0,2.2522004,0,1 @ F,0,0,1,0,2.8010871,0,1"
       radius="0"
       unit="px"
       method="auto"
       mode="F"
       chamfer_steps="1"
       flexible="false"
       use_knot_distance="true"
       apply_no_radius="true"
       apply_with_radius="true"
       only_selected="false"
       hide_knots="false" /></defs><g
     inkscape:label="Layer 1"
     inkscape:groupmode="layer"
     id="layer1"><circle
       style="fill:#ff4d4d;fill-opacity:1;stroke:#858585;stroke-width:8;stroke-dasharray:none;stroke-opacity:1"
       id="path1"
       inkscape:label="background"
       cx="256.00003"
       cy="256.00006"
       r="241.31339" /><g
       style="fill:#000000"
       id="g1"
       transform="matrix(14.133978,0,0,14.133978,85.965512,86.233257)"><path
         d="M 0.76,12.2 0.68,12.16 C 0.5,12.06 0.36,11.91 0.26,11.72 0.12,11.46 0.06,11.22 0.06,10.97 l 0.02,-0.13 c 0,-0.2 0.05,-0.38 0.14,-0.55 L 0.3,10.14 C 0.34,10.06 0.4,9.99 0.45,9.92 0.51,9.85 0.52,9.76 0.5,9.68 L 0.45,9.52 C 0.39,9.32 0.35,9.12 0.35,8.92 L 0.32,8.8 c 0,-0.22 0.06,-0.44 0.2,-0.6 L 0.62,8.07 C 0.69,7.97 0.8,7.91 0.92,7.87 1.02,7.84 1.09,7.74 1.1,7.62 L 1.12,7.28 c 0,-0.27 0.13,-0.52 0.33,-0.7 L 1.69,6.4 C 1.74,6.35 1.79,6.3 1.83,6.22 1.88,6.16 1.89,6.08 1.88,6.02 1.86,5.92 1.88,5.89 1.93,5.88 2.09,5.94 2.19,5.92 2.26,5.84 L 2.39,5.67 2.75,5.27 C 2.85,5.17 2.89,4.99 2.83,4.85 L 2.71,4.59 c -0.02,-0.06 0,-0.13 0.05,-0.15 0.13,0 0.22,0.05 0.26,0.13 l 0.04,0.07 c 0.06,0.12 0.2,0.18 0.3,0.13 0.22,-0.08 0.4,-0.1 0.57,-0.1 H 4.25 C 4.47,4.67 4.65,4.52 4.69,4.29 4.73,4.01 4.83,3.79 4.97,3.64 5.12,3.47 5.29,3.34 5.49,3.24 5.75,3.1 5.91,2.9 5.96,2.64 6.03,2.32 6.2,2.09 6.43,1.94 L 7.19,1.51 7.41,1.38 C 7.54,1.3 7.66,1.2 7.76,1.08 L 7.96,0.84 C 8.06,0.74 8.16,0.67 8.28,0.64 8.38,0.61 8.52,0.59 8.64,0.6 l 0.4,0.03 c 0.2,0 0.36,0.05 0.52,0.12 l 0.1,0.05 c 0.1,0.04 0.2,0.02 0.25,-0.05 L 10,0.7 10.43,0.25 c 0.1,-0.1 0.22,-0.14 0.35,-0.12 0.13,0.02 0.26,0.07 0.38,0.13 0.18,0.1 0.33,0.14 0.5,0.14 h 0.1 c 0.22,0 0.44,0.03 0.66,0.08 l 0.15,0.04 c 0.15,0.04 0.3,-0.02 0.4,-0.14 0.03,-0.05 0.1,-0.06 0.14,-0.02 0.03,0.02 0.04,0.04 0.05,0.07 0.02,0.2 0.14,0.35 0.3,0.4 l 0.16,0.05 c 0.17,0.05 0.32,0.16 0.42,0.3 0.1,0.15 0.22,0.3 0.36,0.4 l 0.1,0.1 c 0.1,0.1 0.24,0.14 0.38,0.13 h 0.59 c 0.24,0 0.47,0.04 0.7,0.14 0.22,0.1 0.45,0.12 0.66,0.04 0.22,-0.07 0.45,-0.1 0.68,-0.07 l 0.43,0.07 c 0.2,0.02 0.4,0.12 0.52,0.27 l 0.05,0.05 c 0.1,0.1 0.2,0.23 0.3,0.37 0.06,0.13 0.2,0.2 0.34,0.2 h 0.62 c 0.15,0 0.3,0.03 0.42,0.1 0.13,0.1 0.24,0.2 0.34,0.3 l 0.1,0.13 c 0.12,0.14 0.18,0.33 0.17,0.53 0,0.16 0.12,0.3 0.28,0.3 l 0.2,0.02 c 0.14,0 0.26,0.1 0.33,0.23 l 0.1,0.2 0.26,0.58 c 0.04,0.1 0.05,0.2 0.04,0.28 0,0.1 0.03,0.18 0.1,0.22 l 0.1,0.07 c 0.13,0.1 0.2,0.25 0.18,0.42 l -0.07,0.47 -0.02,0.2 c -0.02,0.1 0.03,0.23 0.12,0.3 0.15,0.1 0.22,0.23 0.23,0.38 v 0.2 c 0,0.1 -0.02,0.22 -0.1,0.3 -0.06,0.08 -0.1,0.18 -0.1,0.3 l 0.03,0.23 c 0,0.16 0.1,0.3 0.2,0.4 0.14,0.1 0.22,0.26 0.24,0.42 0.04,0.25 0.05,0.45 0.05,0.65 v 0.23 c 0,0.08 0,0.16 0.03,0.24 0.02,0.07 0.07,0.14 0.13,0.18 l 0.2,0.15 c 0.2,0.13 0.34,0.3 0.42,0.53 0.1,0.22 0.13,0.45 0.13,0.68 v 0.08 c 0,0.18 -0.02,0.37 -0.08,0.54 -0.05,0.18 -0.04,0.35 0.03,0.5 0.08,0.14 0.13,0.3 0.15,0.47 0.04,0.2 0.02,0.4 -0.05,0.56 l -0.02,0.07 c -0.05,0.12 -0.13,0.23 -0.23,0.32 -0.1,0.1 -0.2,0.16 -0.26,0.23 -0.06,0.06 -0.1,0.16 -0.07,0.25 l 0.03,0.14 c 0.05,0.2 0.05,0.4 0,0.58 v 0.08 c -0.04,0.15 -0.1,0.28 -0.16,0.4 -0.07,0.13 -0.17,0.23 -0.3,0.3 l -0.15,0.1 c -0.07,0.04 -0.12,0.13 -0.12,0.22 0,0.1 -0.04,0.2 -0.1,0.26 l -0.15,0.2 c -0.1,0.13 -0.23,0.24 -0.37,0.3 -0.14,0.1 -0.26,0.2 -0.35,0.3 -0.1,0.12 -0.18,0.26 -0.22,0.4 -0.04,0.18 -0.18,0.28 -0.33,0.28 h -0.54 c -0.14,0 -0.27,0.1 -0.33,0.22 -0.07,0.16 -0.14,0.27 -0.23,0.37 -0.1,0.1 -0.16,0.22 -0.2,0.36 -0.02,0.12 -0.12,0.2 -0.22,0.16 -0.13,-0.06 -0.26,0 -0.32,0.1 -0.12,0.2 -0.24,0.35 -0.37,0.48 l -0.07,0.06 c -0.13,0.1 -0.3,0.18 -0.45,0.18 -0.18,0 -0.27,0.08 -0.3,0.2 -0.03,0.1 -0.05,0.23 -0.06,0.34 -0.02,0.12 -0.06,0.23 -0.1,0.33 l -0.05,0.06 c -0.1,0.15 -0.18,0.3 -0.28,0.43 l -0.04,0.06 c -0.13,0.17 -0.3,0.3 -0.5,0.35 -0.24,0.08 -0.45,0.1 -0.66,0.1 h -0.14 c -0.1,0 -0.2,0.06 -0.27,0.16 l -0.06,0.1 -0.06,0.12 -0.13,0.22 c -0.1,0.18 -0.25,0.3 -0.45,0.36 -0.2,0.05 -0.43,0.07 -0.64,0.06 L 14.5,23.5 c -0.14,0 -0.27,-0.04 -0.4,-0.1 -0.1,-0.04 -0.24,0 -0.3,0.1 -0.1,0.14 -0.22,0.22 -0.35,0.26 l -0.3,0.1 c -0.2,0.05 -0.42,0.05 -0.63,0 l -0.16,-0.05 c -0.1,0 -0.2,-0.05 -0.28,-0.1 -0.1,-0.05 -0.2,-0.07 -0.3,-0.06 l -0.13,0.02 c -0.2,0.02 -0.38,0 -0.56,-0.05 l -0.27,-0.06 c -0.12,-0.04 -0.23,-0.12 -0.3,-0.23 -0.05,-0.1 -0.16,-0.18 -0.3,-0.2 H 9.9 C 9.7,23.1 9.52,23.03 9.4,22.88 L 9,22.5 8.86,22.38 8.64,22.22 8.51,22.12 C 8.36,22.02 8.18,21.94 7.99,21.92 l -0.6,-0.1 c -0.06,0 -0.1,-0.02 -0.16,-0.03 L 7,21.74 C 6.9,21.72 6.8,21.64 6.73,21.54 6.67,21.44 6.56,21.4 6.46,21.44 6.26,21.52 6.1,21.54 5.94,21.57 H 5.8 C 5.54,21.59 5.3,21.55 5.06,21.44 4.82,21.34 4.66,21.19 4.51,21 4.39,20.83 4.21,20.7 3.99,20.66 L 3.71,20.6 C 3.51,20.56 3.31,20.48 3.13,20.36 2.93,20.22 2.83,20.09 2.75,19.93 2.67,19.78 2.62,19.61 2.61,19.43 V 19.35 C 2.59,19.15 2.45,18.97 2.26,18.92 2.03,18.85 1.86,18.75 1.71,18.62 1.57,18.49 1.49,18.3 1.49,18.1 L 1.51,17.66 C 1.51,17.49 1.46,17.34 1.34,17.23 1.22,17.11 1.14,16.96 1.14,16.8 L 1.11,16.44 C 1.09,16.18 1.04,15.92 0.98,15.66 0.92,15.43 1.01,15.2 1.2,15.09 l 0.07,-0.05 c 0.1,-0.07 0.14,-0.2 0.08,-0.32 l -0.08,-0.1 c -0.1,-0.1 -0.2,-0.17 -0.3,-0.2 -0.08,-0.02 -0.1,-0.1 -0.1,-0.15 l 0.1,-0.12 c 0.06,-0.07 0.05,-0.18 0,-0.24 C 0.89,13.83 0.85,13.73 0.84,13.63 l -0.02,-0.7 c 0,-0.14 0.02,-0.28 0.06,-0.42 0.04,-0.12 0,-0.26 -0.12,-0.32 z m 9.9,-1.32 c 0.07,-0.07 0.06,-0.2 0,-0.25 -0.1,-0.08 -0.17,-0.17 -0.23,-0.27 L 10.33,10.2 C 10.26,10.07 10.17,9.96 10.07,9.86 L 10.05,9.84 C 9.95,9.76 9.88,9.66 9.82,9.54 9.77,9.44 9.77,9.34 9.82,9.24 L 9.88,9.14 C 9.94,9.04 9.98,8.9 9.98,8.78 V 8.74 C 9.98,8.64 9.94,8.54 9.88,8.44 9.84,8.36 9.8,8.26 9.78,8.16 V 8.1 C 9.75,7.98 9.78,7.85 9.86,7.75 9.94,7.62 10,7.5 10.03,7.35 V 7.33 C 10.07,7.23 10.05,7.1 9.99,7 9.93,6.9 9.91,6.8 9.95,6.68 l 0.07,-0.2 C 10.08,6.3 10.17,6.14 10.29,6 l 0.14,-0.15 0.1,-0.12 0.06,-0.06 c 0.06,-0.06 0.07,-0.16 0.02,-0.24 -0.05,-0.1 -0.08,-0.2 -0.06,-0.3 l 0.02,-0.14 c 0.03,-0.2 0.1,-0.4 0.23,-0.56 l 0.04,-0.04 c 0.15,-0.2 0.34,-0.33 0.56,-0.4 l 0.27,-0.1 c 0.12,-0.04 0.2,-0.17 0.2,-0.3 0,-0.16 0.05,-0.3 0.14,-0.43 l 0.05,-0.05 c 0.1,-0.17 0.22,-0.34 0.3,-0.52 l 0.07,-0.13 c 0.02,-0.03 0.03,-0.07 0.03,-0.1 0,-0.17 -0.1,-0.32 -0.26,-0.33 L 11.76,2 c -0.25,-0.02 -0.5,0 -0.74,0 l -0.85,0.1 c -0.13,0 -0.23,0.1 -0.24,0.24 0,0.14 -0.1,0.26 -0.22,0.3 l -0.36,0.1 -0.1,0.03 -0.3,0.1 C 8.73,2.94 8.55,3.1 8.45,3.32 L 8.37,3.45 C 8.27,3.67 8.1,3.85 7.89,3.98 7.69,4.11 7.59,4.32 7.57,4.56 v 0.1 C 7.55,4.86 7.49,5.06 7.37,5.2 L 7.32,5.28 C 7.24,5.38 7.22,5.51 7.27,5.62 7.32,5.74 7.35,5.87 7.34,6 v 0.53 c 0,0.14 -0.1,0.26 -0.2,0.3 C 7,6.88 6.91,6.99 6.87,7.13 l -0.05,0.2 c -0.04,0.2 0.03,0.4 0.2,0.52 0.16,0.12 0.26,0.3 0.3,0.52 v 0.18 c 0.03,0.2 0.14,0.4 0.32,0.5 0.18,0.12 0.32,0.3 0.4,0.5 l 0.05,0.16 c 0.08,0.22 0.26,0.35 0.46,0.37 h 0.06 c 0.18,0 0.34,0.1 0.44,0.26 0.1,0.16 0.26,0.27 0.44,0.3 l 0.28,0.08 c 0.17,0.05 0.33,0.14 0.46,0.27 l 0.02,0.02 c 0.1,0.08 0.26,0.07 0.35,-0.04 l 0.07,-0.08 z M 11.8,9.96 c 0.1,0.06 0.2,0.03 0.24,-0.06 l 0.03,-0.05 c 0.07,-0.14 0.16,-0.28 0.26,-0.4 l 0.2,-0.3 c 0.03,0 0.04,-0.02 0.05,-0.04 l 0.24,-0.32 c 0.1,-0.1 0.22,-0.17 0.36,-0.17 0.13,0 0.24,-0.07 0.3,-0.2 0.04,-0.14 0.1,-0.27 0.22,-0.38 l 0.05,-0.06 c 0.1,-0.1 0.2,-0.15 0.3,-0.2 0.13,-0.02 0.25,-0.04 0.37,-0.04 h 0.3 c 0.12,0 0.22,-0.05 0.28,-0.15 0.06,-0.1 0.15,-0.17 0.25,-0.22 l 0.1,-0.04 c 0.16,-0.07 0.34,-0.12 0.52,-0.14 l 0.2,-0.02 c 0.12,0 0.25,0 0.37,0.07 0.1,0.07 0.23,0.06 0.33,-0.02 l 0.07,-0.04 c 0.15,-0.1 0.32,-0.18 0.5,-0.2 h 0.02 c 0.2,-0.04 0.38,-0.04 0.58,-0.03 h 0.1 c 0.2,0.03 0.37,0.1 0.5,0.25 l 0.03,0.04 c 0.1,0.1 0.26,0.18 0.4,0.18 h 0.17 c 0.05,0 0.1,-0.02 0.13,-0.07 0.03,-0.03 0.08,-0.06 0.13,-0.06 h 0.1 c 0.14,0 0.27,0.04 0.4,0.08 l 0.17,0.07 c 0.16,0.05 0.33,0.1 0.5,0.12 h 0.12 c 0.08,0 0.13,-0.05 0.13,-0.12 0,-0.1 -0.02,-0.2 -0.07,-0.28 L 20.68,7 C 20.6,6.87 20.54,6.73 20.48,6.6 L 20.46,6.55 c -0.05,-0.1 -0.05,-0.2 0,-0.3 V 6.2 C 20.48,6.12 20.44,6.03 20.36,6 H 20.28 C 20.12,5.95 19.98,5.86 19.88,5.73 l -0.1,-0.1 C 19.68,5.53 19.62,5.38 19.58,5.23 19.53,5.1 19.42,5 19.28,5 H 18.86 C 18.71,4.98 18.58,4.9 18.49,4.78 L 18.45,4.73 C 18.38,4.63 18.32,4.51 18.28,4.39 18.23,4.29 18.12,4.23 18.02,4.26 L 17.9,4.3 C 17.7,4.37 17.5,4.4 17.3,4.38 L 17.14,4.36 c -0.17,0 -0.33,-0.07 -0.46,-0.17 L 16.58,4.12 C 16.5,4.06 16.42,4.02 16.33,3.98 16.23,3.94 16.15,3.96 16.09,4.03 l -0.05,0.06 c -0.1,0.1 -0.24,0.18 -0.38,0.2 l -0.54,0.03 c -0.1,0 -0.2,0.05 -0.27,0.12 -0.08,0.07 -0.17,0.12 -0.27,0.14 h -0.02 c -0.1,0 -0.2,0.07 -0.3,0.14 v 0.02 c -0.1,0.1 -0.23,0.15 -0.36,0.15 l -0.04,0.02 c -0.12,0 -0.24,0 -0.36,0.03 h -0.12 c -0.17,0.03 -0.3,0.17 -0.34,0.35 L 13,5.52 c -0.03,0.16 -0.1,0.3 -0.2,0.43 -0.1,0.12 -0.22,0.2 -0.37,0.2 h -0.15 -0.02 c -0.1,0.02 -0.2,0.13 -0.18,0.25 0.02,0.17 0,0.32 -0.03,0.47 l -0.04,0.17 c -0.04,0.15 -0.14,0.27 -0.27,0.32 l -0.06,0.03 h -0.02 c -0.06,0.04 -0.1,0.13 -0.05,0.2 0.06,0.1 0.08,0.2 0.07,0.3 l -0.03,0.32 c 0,0.12 -0.05,0.23 -0.1,0.33 -0.06,0.1 -0.06,0.2 -0.02,0.3 l 0.1,0.22 c 0.05,0.1 0.06,0.2 0.03,0.32 -0.03,0.1 -0.05,0.2 -0.04,0.3 0,0.1 0.06,0.2 0.14,0.24 l 0.02,0.02 z m 7.9,7.23 c 0.1,0.1 0.25,0.14 0.37,0.06 l 0.2,-0.13 c 0.1,-0.07 0.18,-0.17 0.22,-0.3 V 16.8 l 0.1,-0.3 0.06,-0.1 0.04,-0.1 0.04,-0.07 c 0.04,-0.08 0.1,-0.14 0.2,-0.17 l 0.04,-0.02 c 0.08,-0.02 0.13,-0.1 0.13,-0.18 0,-0.1 0.05,-0.18 0.1,-0.25 l 0.08,-0.07 0.2,-0.26 v -0.02 c 0.06,-0.08 0.1,-0.17 0.12,-0.27 0.02,-0.1 0,-0.2 -0.04,-0.3 l -0.02,-0.04 c -0.04,-0.1 -0.06,-0.17 -0.07,-0.26 l -0.03,-0.28 -0.03,-0.3 c 0,-0.1 0.04,-0.2 0.1,-0.3 0.07,-0.08 0.12,-0.18 0.16,-0.28 v -0.04 l 0.02,-0.02 c 0.02,-0.1 -0.03,-0.2 -0.12,-0.2 -0.1,-0.05 -0.2,-0.13 -0.23,-0.25 L 21.31,12.66 C 21.26,12.48 21.23,12.3 21.23,12.12 l 0.02,-0.5 v -0.03 c 0,-0.17 -0.14,-0.3 -0.3,-0.3 h -0.02 c -0.2,0 -0.36,-0.06 -0.5,-0.2 l -0.08,-0.1 -0.2,-0.23 -0.26,-0.3 c -0.1,-0.14 -0.2,-0.26 -0.33,-0.38 -0.1,-0.1 -0.25,-0.2 -0.4,-0.22 L 18.96,9.83 C 18.86,9.81 18.73,9.76 18.62,9.69 18.54,9.63 18.42,9.65 18.34,9.73 L 18.21,9.87 18.15,9.91 C 18.08,9.93 18.01,9.89 17.98,9.81 17.94,9.69 17.94,9.55 18,9.43 V 9.37 C 18,9.3 17.94,9.25 17.88,9.27 h -0.16 c -0.18,0 -0.36,-0.02 -0.53,-0.1 l -0.1,-0.04 c -0.1,-0.05 -0.22,-0.08 -0.33,-0.08 -0.1,0 -0.2,0.02 -0.3,0.08 l -0.04,0.03 c -0.12,0.08 -0.26,0.12 -0.4,0.13 h -0.33 c -0.15,0 -0.3,0.05 -0.4,0.13 -0.13,0.08 -0.27,0.13 -0.42,0.16 L 14.6,9.62 C 14.48,9.65 14.35,9.7 14.24,9.79 14.14,9.89 14,9.95 13.87,9.99 l -0.05,0.02 c -0.16,0.05 -0.3,0.15 -0.4,0.3 l -0.12,0.12 c -0.07,0.1 -0.07,0.22 0,0.32 0.06,0.1 0.18,0.13 0.3,0.1 l 0.15,-0.06 c 0.08,-0.03 0.17,0 0.24,0.04 0.06,0.05 0.15,0.08 0.24,0.07 l 0.25,-0.03 c 0.14,0 0.28,0 0.42,0.04 0.15,0.05 0.28,0.1 0.4,0.2 0.12,0.1 0.25,0.14 0.4,0.16 0.15,0.02 0.3,0.05 0.44,0.1 l 0.1,0.02 c 0.1,0.03 0.18,0.1 0.24,0.2 0.05,0.08 0.1,0.2 0.1,0.3 v 0.03 c 0,0.12 0.1,0.2 0.2,0.2 h 0.06 c 0.16,0 0.33,0.02 0.5,0.07 l 0.07,0.03 c 0.1,0.04 0.2,0.1 0.27,0.2 0.08,0.1 0.13,0.2 0.16,0.3 l 0.03,0.14 c 0.03,0.15 0.04,0.3 0.04,0.46 v 0.05 c 0,0.1 0.07,0.2 0.18,0.24 0.1,0.02 0.22,0.06 0.33,0.12 l 0.05,0.02 c 0.13,0.08 0.26,0.18 0.36,0.3 l 0.05,0.07 c 0.13,0.15 0.2,0.34 0.2,0.53 v 0.07 c 0,0.15 -0.03,0.3 -0.08,0.44 -0.04,0.12 0,0.26 0.13,0.3 l 0.07,0.05 c 0.15,0.06 0.28,0.17 0.38,0.3 0.1,0.15 0.14,0.32 0.14,0.5 v 0.3 c -0.02,0.1 -0.05,0.18 -0.1,0.25 -0.05,0.07 -0.05,0.17 0,0.24 l 0.06,0.1 z m -6.4,-5.12 h -0.02 c -0.04,0 -0.06,0.05 -0.05,0.1 l 0.04,0.2 c 0.04,0.16 0.06,0.32 0.08,0.48 0.02,0.16 0.1,0.3 0.22,0.4 h 0.04 c 0.15,0.12 0.24,0.3 0.25,0.48 v 0.5 c -0.02,0.1 0,0.2 0.06,0.28 l 0.05,0.05 c 0.1,0.12 0.14,0.26 0.15,0.4 l 0.03,0.55 c 0,0.13 -0.08,0.24 -0.2,0.26 l -0.1,0.02 c -0.07,0 -0.1,0.08 -0.1,0.15 0,0.08 0.03,0.17 0.06,0.25 v 0.02 c 0.03,0.1 0.04,0.2 0.03,0.3 l -0.04,0.27 c -0.04,0.2 -0.1,0.38 -0.2,0.56 l -0.07,0.12 c -0.05,0.1 -0.12,0.16 -0.2,0.2 -0.1,0.04 -0.17,0.12 -0.2,0.22 l -0.08,0.36 c -0.05,0.2 -0.14,0.4 -0.26,0.6 h -0.02 c -0.12,0.16 -0.27,0.3 -0.45,0.4 l -0.12,0.08 -0.3,0.15 c -0.1,0.04 -0.16,0.13 -0.18,0.24 l -0.05,0.33 c -0.03,0.2 -0.1,0.37 -0.24,0.5 L 11.3,20.69 11.15,20.84 11,21 c -0.12,0.14 -0.3,0.2 -0.5,0.17 L 10.14,21.1 9.81,21.06 H 9.72 c -0.04,0.04 -0.05,0.1 -0.02,0.16 0.07,0.12 0.18,0.2 0.3,0.2 l 0.22,0.04 c 0.1,0 0.22,0.05 0.32,0.1 0.1,0.07 0.2,0.12 0.32,0.15 h 0.02 c 0.13,0.05 0.27,0.06 0.4,0.05 l 0.15,-0.02 c 0.17,-0.02 0.33,0 0.47,0.06 l 0.12,0.04 c 0.05,0.02 0.13,0 0.18,-0.05 0.06,-0.06 0.12,-0.1 0.2,-0.13 l 0.08,-0.02 c 0.13,-0.04 0.26,-0.06 0.4,-0.06 h 0.08 c 0.12,0 0.23,0.02 0.33,0.08 l 0.04,0.02 c 0.07,0.03 0.15,0 0.2,-0.06 0.03,-0.07 0.1,-0.14 0.17,-0.2 l 0.25,-0.17 0.16,-0.1 0.08,-0.05 c 0.1,-0.07 0.24,-0.1 0.36,-0.1 l 0.36,-0.03 c 0.14,-0.02 0.26,-0.12 0.3,-0.26 0.04,-0.15 0.1,-0.3 0.2,-0.43 0.1,-0.13 0.2,-0.24 0.3,-0.34 0.13,-0.1 0.26,-0.15 0.4,-0.16 h 0.08 c 0.16,-0.03 0.28,-0.18 0.27,-0.34 v -0.02 -0.65 c 0.02,-0.1 0.06,-0.23 0.12,-0.33 l 0.2,-0.3 0.08,-0.1 c 0.06,-0.05 0.1,-0.12 0.17,-0.2 l 0.1,-0.13 c 0.06,-0.1 0.06,-0.23 -0.02,-0.32 -0.1,-0.1 -0.15,-0.24 -0.17,-0.38 v -0.04 c -0.02,-0.16 -0.02,-0.33 0.03,-0.5 v -0.05 c 0.05,-0.13 0.12,-0.26 0.2,-0.38 0.08,-0.1 0.07,-0.24 -0.03,-0.32 l -0.17,-0.15 c -0.14,-0.12 -0.22,-0.3 -0.24,-0.48 l -0.02,-0.2 c 0,-0.06 0,-0.13 -0.02,-0.2 l -0.02,-0.15 c -0.02,-0.17 -0.12,-0.3 -0.26,-0.4 l -0.07,-0.02 c -0.1,-0.06 -0.2,-0.15 -0.28,-0.27 -0.08,-0.1 -0.12,-0.24 -0.15,-0.38 L 15.88,13.3 c 0,-0.06 -0.04,-0.1 -0.1,-0.13 L 15.62,13.12 15.3,13.02 C 15.2,13 15.1,12.92 15.03,12.85 h -0.02 c -0.06,-0.08 -0.16,-0.08 -0.22,-0.02 l -0.1,0.1 c -0.02,0.03 -0.04,0.04 -0.07,0.03 -0.06,0 -0.1,-0.05 -0.08,-0.1 0.02,-0.16 -0.04,-0.32 -0.17,-0.42 l -0.13,-0.1 -0.3,-0.2 c -0.08,-0.03 -0.2,0 -0.24,0.1 l -0.04,0.06 c 0,0.02 -0.03,0.03 -0.04,0.04 -0.04,0 -0.1,0 -0.1,-0.05 l -0.03,-0.05 c -0.03,-0.06 -0.1,-0.1 -0.16,-0.12 z m -1.2,1 -0.05,-0.05 c -0.05,-0.04 -0.1,-0.03 -0.15,0.02 -0.07,0.12 -0.13,0.25 -0.16,0.38 v 0.02 c -0.03,0.13 -0.15,0.22 -0.27,0.2 h -0.1 -0.02 c -0.14,0 -0.25,0.12 -0.25,0.26 0,0.18 -0.06,0.36 -0.17,0.5 l -0.06,0.06 c -0.1,0.13 -0.25,0.22 -0.4,0.27 l -0.08,0.02 c -0.1,0.03 -0.18,0.1 -0.2,0.22 0,0.1 -0.06,0.2 -0.14,0.28 l -0.1,0.08 c -0.12,0.13 -0.3,0.2 -0.48,0.22 l -0.5,0.05 c -0.16,0 -0.3,0.1 -0.4,0.25 C 8.47,16 8.32,16.1 8.17,16.12 L 7.95,16.14 C 7.79,16.16 7.62,16.16 7.45,16.12 L 7.35,16.1 7.08,16.03 C 6.98,16 6.9,16.03 6.84,16.1 l -0.1,0.13 c -0.13,0.15 -0.32,0.22 -0.5,0.2 L 5.59,16.35 c -0.1,0 -0.18,-0.05 -0.27,-0.1 -0.1,-0.06 -0.17,-0.13 -0.24,-0.2 L 4.83,15.75 C 4.8,15.73 4.75,15.72 4.7,15.73 L 4.56,15.79 4,15.93 c -0.1,0.03 -0.23,0 -0.33,-0.06 -0.1,-0.08 -0.22,-0.1 -0.34,-0.1 H 3.2 C 3.08,15.8 3,15.93 3.04,16.05 l 0.04,0.2 c 0.03,0.1 0.02,0.22 -0.03,0.32 -0.05,0.1 -0.04,0.2 0.03,0.3 l 0.06,0.08 c 0.08,0.12 0.2,0.22 0.3,0.32 0.1,0.1 0.2,0.2 0.28,0.33 l 0.15,0.27 c 0.08,0.14 0.2,0.22 0.36,0.22 0.15,0 0.3,0.05 0.42,0.15 l 0.3,0.28 c 0.08,0.07 0.2,0.08 0.28,0.02 l 0.05,-0.02 c 0.06,0 0.1,0.04 0.1,0.1 v 0.05 c 0,0.13 0.1,0.25 0.23,0.3 l 0.45,0.1 c 0.16,0.05 0.32,0.1 0.47,0.2 h 0.08 c 0.08,0 0.15,-0.07 0.14,-0.16 v -0.35 c 0,-0.1 0.04,-0.2 0.12,-0.24 L 6.92,18.5 c 0.05,0.02 0.1,0.06 0.08,0.1 v 0.17 c 0,0.13 0.04,0.25 0.13,0.34 0.1,0.1 0.23,0.12 0.34,0.08 0.12,-0.05 0.24,-0.06 0.37,-0.05 l 0.37,0.02 c 0.18,0.02 0.35,0 0.5,-0.07 0.18,-0.06 0.33,-0.14 0.47,-0.25 l 0.06,-0.04 0.3,-0.27 c 0.1,-0.1 0.23,-0.15 0.35,-0.15 h 0.4 c 0.2,-0.02 0.38,-0.2 0.4,-0.4 l 0.04,-0.2 c 0,-0.13 0.06,-0.25 0.15,-0.35 0.1,-0.1 0.2,-0.16 0.3,-0.2 l 0.12,-0.05 c 0.17,-0.07 0.3,-0.22 0.36,-0.4 l 0.06,-0.24 c 0.05,-0.2 0.15,-0.4 0.3,-0.53 l 0.02,-0.02 c 0.12,-0.1 0.14,-0.3 0.06,-0.44 L 12.07,15.48 C 12,15.38 11.99,15.23 12.04,15.1 c 0.05,-0.14 0.1,-0.26 0.18,-0.38 l 0.1,-0.14 c 0.04,-0.08 0.04,-0.2 -0.02,-0.27 -0.06,-0.08 -0.1,-0.18 -0.1,-0.28 l -0.02,-0.14 v -0.34 c 0.02,-0.1 0,-0.23 -0.03,-0.33 L 12.11,13.1 Z m -1.43,-0.76 v -0.03 c 0,-0.1 -0.06,-0.16 -0.14,-0.16 h -0.26 c -0.1,0.02 -0.2,0.02 -0.28,0 H 9.54 c -0.23,0 -0.45,-0.04 -0.67,-0.1 L 8.63,11.96 8.43,11.9 7.98,11.75 C 7.74,11.68 7.56,11.52 7.45,11.3 L 7.4,11.2 C 7.33,11.05 7.18,10.97 7.03,11 6.86,11 6.69,11 6.53,10.92 L 6.41,10.87 C 6.18,10.77 6.01,10.57 6.01,10.3 L 5.97,10.03 C 5.94,9.89 5.85,9.76 5.73,9.71 5.59,9.65 5.46,9.57 5.33,9.48 L 5.28,9.45 C 5.13,9.33 5,9.17 4.93,8.98 L 4.91,8.92 C 4.86,8.76 4.85,8.59 4.89,8.42 L 4.91,8.36 C 4.95,8.23 4.96,8.1 4.96,7.96 4.96,7.84 4.91,7.72 4.82,7.63 L 4.68,7.5 C 4.52,7.37 4.42,7.18 4.41,6.97 4.39,6.75 4.39,6.54 4.43,6.33 V 6.3 6.27 c 0,-0.12 -0.1,-0.2 -0.2,-0.2 H 4.2 C 4.07,6.07 3.96,6.15 3.9,6.27 3.85,6.41 3.77,6.52 3.68,6.63 l -0.04,0.05 -0.2,0.2 -0.1,0.1 C 3.24,7.08 3.18,7.23 3.16,7.38 3.14,7.53 3.1,7.68 3.04,7.82 L 3.02,7.87 C 2.97,7.99 2.89,8.1 2.79,8.17 2.69,8.25 2.62,8.37 2.62,8.49 L 2.6,8.95 c 0,0.2 -0.03,0.4 -0.1,0.6 L 2.48,9.63 c -0.05,0.13 0,0.27 0.12,0.33 l 0.42,0.18 0.04,0.02 c 0.03,0 0.04,0.02 0.05,0.05 0.03,0.04 0,0.1 -0.03,0.1 l -0.1,0.05 c -0.06,0.02 -0.1,0.08 -0.12,0.15 l -0.02,0.1 v 0.02 l -0.1,0.56 c -0.02,0.08 -0.02,0.17 -0.02,0.26 0,0.08 0.05,0.15 0.12,0.18 l 0.22,0.1 c 0.1,0.06 0.22,0.13 0.3,0.2 l 0.1,0.08 c 0.03,0.04 0.08,0.08 0.12,0.1 l 0.04,0.04 c 0.07,0.06 0.12,0.14 0.14,0.23 l 0.1,0.45 c 0,0.12 0.1,0.22 0.2,0.25 l 0.16,0.05 c 0,0 0.03,0 0.05,0.02 l 0.2,0.06 c 0.16,0.05 0.3,0.14 0.42,0.26 0.12,0.1 0.24,0.23 0.34,0.37 l 0.04,0.04 c 0.08,0.1 0.2,0.15 0.32,0.12 0.12,-0.03 0.25,-0.04 0.38,-0.04 h 0.15 c 0.1,0 0.23,0.03 0.34,0.1 0.1,0.06 0.23,0.1 0.35,0.15 h 0.03 c 0.12,0.05 0.25,0.03 0.35,-0.04 0.1,-0.08 0.23,-0.12 0.36,-0.12 l 0.47,0.03 c 0.1,0 0.2,-0.02 0.25,-0.1 h 0.02 l 0.17,-0.16 0.05,-0.05 c 0.08,-0.1 0.2,-0.14 0.32,-0.15 h 0.45 c 0.12,0 0.23,-0.1 0.28,-0.2 0.05,-0.1 0.15,-0.18 0.27,-0.2 l 0.2,-0.04 c 0.08,0 0.15,-0.07 0.18,-0.16 0.03,-0.1 0.08,-0.18 0.15,-0.24 l 0.16,-0.16 c 0.1,-0.1 0.15,-0.2 0.17,-0.32 z"
         id="path1-8"
         style="fill:#000000" /></g></g></svg>
