<?xml version="1.0" encoding="UTF-8" standalone="no"?>
<!-- Created with Inkscape (http://www.inkscape.org/) -->

<svg
   width="512"
   height="512"
   viewBox="0 0 512 512"
   version="1.1"
   id="svg1"
   xml:space="preserve"
   inkscape:version="1.4.2 (f4327f4, 2025-05-13)"
   sodipodi:docname="cypress.svg"
   xmlns:inkscape="http://www.inkscape.org/namespaces/inkscape"
   xmlns:sodipodi="http://sodipodi.sourceforge.net/DTD/sodipodi-0.dtd"
   xmlns="http://www.w3.org/2000/svg"
   xmlns:svg="http://www.w3.org/2000/svg"><sodipodi:namedview
     id="namedview1"
     pagecolor="#ffffff"
     bordercolor="#999999"
     borderopacity="1"
     inkscape:showpageshadow="2"
     inkscape:pageopacity="0"
     inkscape:pagecheckerboard="0"
     inkscape:deskcolor="#d1d1d1"
     inkscape:document-units="px"
     showgrid="false"
     inkscape:zoom="1"
     inkscape:cx="161"
     inkscape:cy="323.5"
     inkscape:window-width="1920"
     inkscape:window-height="1001"
     inkscape:window-x="-9"
     inkscape:window-y="-9"
     inkscape:window-maximized="1"
     inkscape:current-layer="layer1"><inkscape:grid
       id="grid1"
       units="mm"
       originx="0"
       originy="0"
       spacingx="1"
       spacingy="1"
       empcolor="#0099e5"
       empopacity="0.30196078"
       color="#0099e5"
       opacity="0.14901961"
       empspacing="5"
       enabled="true"
       visible="false" /></sodipodi:namedview><defs
     id="defs1"><inkscape:path-effect
       effect="fillet_chamfer"
       id="path-effect1"
       is_visible="true"
       lpeversion="1"
       nodesatellites_param="F,0,0,1,0,2.2572315,0,1 @ F,0,0,1,0,2.608162,0,1 @ F,0,0,1,0,2.5997618,0,1 @ F,0,0,1,0,3.0078049,0,1 @ F,0,0,1,0,2.2522004,0,1 @ F,0,0,1,0,2.8010871,0,1"
       radius="0"
       unit="px"
       method="auto"
       mode="F"
       chamfer_steps="1"
       flexible="false"
       use_knot_distance="true"
       apply_no_radius="true"
       apply_with_radius="true"
       only_selected="false"
       hide_knots="false" /><linearGradient
       id="a"
       x1="364.95"
       x2="4852.62"
       y1="1733.09"
       y2="2931.33"
       gradientUnits="userSpaceOnUse"><stop
         stop-color="#315c55"
         id="stop6" /><stop
         offset="1"
         stop-color="#09293f"
         id="stop7" /></linearGradient><linearGradient
       id="b"
       x1="1759.39"
       x2="1341.74"
       y1="1538.94"
       y2="5605.29"
       gradientUnits="userSpaceOnUse"><stop
         stop-color="#4fb38d"
         id="stop8" /><stop
         offset="1"
         stop-color="#315c55"
         id="stop9" /></linearGradient><linearGradient
       id="c"
       x1="860.36"
       x2="4172.52"
       y1="1420.14"
       y2="2027.28"
       gradientUnits="userSpaceOnUse"><stop
         stop-color="#4fb38d"
         id="stop10" /><stop
         offset="1"
         stop-color="#97dec0"
         id="stop11" /></linearGradient><linearGradient
       id="d"
       x1="1589.93"
       x2="-216.115"
       y1="1983.82"
       y2="5365.35"
       gradientUnits="userSpaceOnUse"><stop
         stop-color="#97dec0"
         id="stop12" /><stop
         offset="1"
         stop-color="#fffff0"
         stop-opacity="0"
         id="stop13" /></linearGradient><filter
       style="color-interpolation-filters:sRGB;"
       inkscape:label="Drop Shadow"
       id="filter10"
       x="-0.015319166"
       y="-0.015319166"
       width="1.0306383"
       height="1.0306383"><feFlood
         result="flood"
         in="SourceGraphic"
         flood-opacity="1.000000"
         flood-color="rgb(0,30,15)"
         id="feFlood9" /><feGaussianBlur
         result="blur"
         in="SourceGraphic"
         stdDeviation="0.600000"
         id="feGaussianBlur9" /><feOffset
         result="offset"
         in="blur"
         dx="0.000000"
         dy="0.000000"
         id="feOffset9" /><feComposite
         result="comp1"
         operator="in"
         in="flood"
         in2="offset"
         id="feComposite9" /><feComposite
         result="comp2"
         operator="over"
         in="SourceGraphic"
         in2="comp1"
         id="feComposite10" /></filter></defs><g
     inkscape:label="Layer 1"
     inkscape:groupmode="layer"
     id="layer1"><circle
       style="fill:#2e3548;fill-opacity:1;stroke:#858585;stroke-width:8;stroke-dasharray:none;stroke-opacity:1"
       id="path1"
       inkscape:label="background"
       cx="256.00003"
       cy="256.00006"
       r="241.31339" /><g
       style="fill:none;filter:url(#filter10)"
       id="g1"
       transform="matrix(3.1914928,0,0,3.1914928,102.80851,102.80851)"><path
         fill="url(#a)"
         d="m 53.0123,83.2292 -1.5918,3.8649 c -0.3163,0.765 -1.0394,1.2831 -1.853,1.3184 -0.5373,0.0202 -1.0796,0.0352 -1.627,0.0352 C 29.2051,88.4378 12.6287,75.1875 8.52102,56.9299 l -6.37747,1.4443 c 2.30492,10.2409 8.08985,19.5357 16.29015,26.1786 8.2956,6.7181 18.7456,10.427 29.4365,10.4471 h 0.0955 c 0.6276,0 1.2504,-0.015 1.8729,-0.0401 3.3544,-0.141 6.3524,-2.2496 7.633,-5.3747 l 2.0789,-5.0525 z"
         id="path1-0"
         style="fill:url(#a)" /><path
         fill="url(#b)"
         d="M 2.66721,60.4529 C 1.56245,56.417 1,52.2249 1,48.0028 1,28.7287 13.0669,11.1052 31.0293,4.15552 l 2.3551,6.11438 C 17.9228,16.2534 7.53814,31.4159 7.53814,48.0028 c 0,3.6384 0.48205,7.2415 1.43114,10.7138 z"
         id="path2"
         style="fill:url(#b)" /><path
         fill="url(#c)"
         d="M 83.8715,29.3827 C 76.8813,15.921 63.1222,7.5572 47.9721,7.5572 42.604,7.5572 37.3866,8.59387 32.4753,10.632 L 29.9697,4.57801 C 35.6793,2.20777 41.7353,1 47.9721,1 65.5728,1 81.5515,10.7125 89.6714,26.3532 Z"
         id="path3"
         style="fill:url(#c)" /><path
         fill="#09293f"
         d="m 33.947,38.3049 c 3.7913,0 6.8796,2.0281 8.4664,5.5658 l 0.1255,0.2769 6.3674,-2.169 -0.1357,-0.3271 c -2.4656,-6.0238 -8.1449,-9.768 -14.8236,-9.768 -4.6952,0 -8.5117,1.5099 -11.6653,4.6098 -3.1334,3.0798 -4.7202,6.9548 -4.7202,11.5191 0,4.5241 1.5868,8.3789 4.7202,11.4588 3.1536,3.1 6.9701,4.6097 11.6653,4.6097 6.6787,0 12.358,-3.7441 14.8236,-9.7629 l 0.1357,-0.327 -6.3774,-2.1742 -0.1206,0.2869 c -1.421,3.4774 -4.5847,5.5558 -8.4613,5.5558 -2.6413,0 -4.8709,-0.9259 -6.6386,-2.7477 -1.7876,-1.8469 -2.6915,-4.1668 -2.6915,-6.8943 0,-2.7478 0.8838,-5.0224 2.6915,-6.9549 1.7626,-1.8316 3.9973,-2.7577 6.6386,-2.7577 z"
         id="path4" /><path
         fill="#09293f"
         d="M 73.8285,32.4775 64.7545,55.5107 55.6201,32.4775 H 48.1479 L 60.9581,63.9149 51.8438,86.0875 58.377,87.391 80.8889,32.4775 Z"
         id="path5" /><path
         fill="url(#d)"
         d="m 89.6715,26.353 c 3.3058,6.4399 5.3284,14.0039 5.3284,21.7463 0,18.0656 -10.1605,33.7506 -25.0617,41.6181 l -3.2194,-5.7089 c 12.9216,-6.7387 21.7474,-20.29 21.7474,-35.9092 0,-6.7779 -1.6572,-13.1054 -4.5947,-18.7167 z"
         id="path6"
         style="fill:url(#d)" /></g></g></svg>
