<?xml version="1.0" encoding="UTF-8" standalone="no"?>
<!-- Created with Inkscape (http://www.inkscape.org/) -->

<svg
   width="512"
   height="512"
   viewBox="0 0 512 512"
   version="1.1"
   id="svg1"
   xml:space="preserve"
   inkscape:version="1.4.2 (f4327f4, 2025-05-13)"
   sodipodi:docname="dart.svg"
   xmlns:inkscape="http://www.inkscape.org/namespaces/inkscape"
   xmlns:sodipodi="http://sodipodi.sourceforge.net/DTD/sodipodi-0.dtd"
   xmlns="http://www.w3.org/2000/svg"
   xmlns:svg="http://www.w3.org/2000/svg"><sodipodi:namedview
     id="namedview1"
     pagecolor="#ffffff"
     bordercolor="#999999"
     borderopacity="1"
     inkscape:showpageshadow="2"
     inkscape:pageopacity="0"
     inkscape:pagecheckerboard="0"
     inkscape:deskcolor="#d1d1d1"
     inkscape:document-units="px"
     showgrid="false"
     inkscape:zoom="1"
     inkscape:cx="161"
     inkscape:cy="323.5"
     inkscape:window-width="1920"
     inkscape:window-height="1001"
     inkscape:window-x="-9"
     inkscape:window-y="-9"
     inkscape:window-maximized="1"
     inkscape:current-layer="layer1"><inkscape:grid
       id="grid1"
       units="mm"
       originx="0"
       originy="0"
       spacingx="1"
       spacingy="1"
       empcolor="#0099e5"
       empopacity="0.30196078"
       color="#0099e5"
       opacity="0.14901961"
       empspacing="5"
       enabled="true"
       visible="false" /></sodipodi:namedview><defs
     id="defs1"><inkscape:path-effect
       effect="fillet_chamfer"
       id="path-effect1"
       is_visible="true"
       lpeversion="1"
       nodesatellites_param="F,0,0,1,0,2.2572315,0,1 @ F,0,0,1,0,2.608162,0,1 @ F,0,0,1,0,2.5997618,0,1 @ F,0,0,1,0,3.0078049,0,1 @ F,0,0,1,0,2.2522004,0,1 @ F,0,0,1,0,2.8010871,0,1"
       radius="0"
       unit="px"
       method="auto"
       mode="F"
       chamfer_steps="1"
       flexible="false"
       use_knot_distance="true"
       apply_no_radius="true"
       apply_with_radius="true"
       only_selected="false"
       hide_knots="false" /></defs><g
     inkscape:label="Layer 1"
     inkscape:groupmode="layer"
     id="layer1"><circle
       style="fill:#2e3548;fill-opacity:1;stroke:#858585;stroke-width:8;stroke-dasharray:none;stroke-opacity:1"
       id="path1"
       inkscape:label="background"
       cx="256.00003"
       cy="256.00006"
       r="241.31339" /><g
       id="g1"
       transform="matrix(3.0649169,0,0,3.0649169,-486.8933,-683.96746)"><path
         d="m 217.7,281.7 -7.1,-7.1 v 51.2 l 0.1,2.4 c 0,1.1 0.2,2.4 0.6,3.7 l 56.2,19.8 14,-6.2 v 0 z"
         id="path2"
         style="fill:#00c4b3" /><path
         d="m 211.3,331.9 z m 70.2,13.6 -14,6.2 -56.1,-19.8 c 1.1,4.1 3.4,8.7 6,11.3 l 18.3,18.2 40.8,0.1 z"
         id="path4"
         style="fill:#22d3c5" /><path
         d="m 210.8,274.6 -21.8,33 c -1.8,1.9 -0.9,5.9 2,8.9 l 12.6,12.7 7.9,2.8 c -0.3,-1.3 -0.6,-2.6 -0.6,-3.7 l -0.1,-2.4 z"
         id="path6"
         style="fill:#0075c9" /><path
         d="m 267.9,275.2 c -1.3,-0.3 -2.6,-0.5 -3.7,-0.6 l -2.5,-0.1 h -51.1 l 70.9,70.9 v 0 l 6.2,-14 z"
         id="path8"
         style="fill:#0075c9" /><path
         d="m 267.8,275.2 c 0.1,0 0.1,0 0,0 v 0 c 0.1,0 0.1,0 0,0 z m 11.4,6 c -2.6,-2.6 -7.1,-5 -11.3,-6 l 19.8,56.2 -6.2,14 v 0 l 15.2,-4.9 v -41.7 z"
         id="path10"
         style="fill:#00a8e1" /><path
         d="m 265.1,267.4 -12.7,-12.6 c -2.9,-2.9 -6.9,-3.8 -8.9,-2 l -33,21.8 h 51.1 l 2.5,0.1 c 1.1,0 2.4,0.2 3.7,0.6 z"
         id="path12"
         style="fill:#00c4b3" /></g></g></svg>
