<?xml version="1.0" encoding="UTF-8" standalone="no"?>
<!-- Created with Inkscape (http://www.inkscape.org/) -->

<svg
   width="512"
   height="512"
   viewBox="0 0 512 512"
   version="1.1"
   id="svg1"
   xml:space="preserve"
   inkscape:version="1.4.2 (f4327f4, 2025-05-13)"
   sodipodi:docname="debian.svg"
   xmlns:inkscape="http://www.inkscape.org/namespaces/inkscape"
   xmlns:sodipodi="http://sodipodi.sourceforge.net/DTD/sodipodi-0.dtd"
   xmlns="http://www.w3.org/2000/svg"
   xmlns:svg="http://www.w3.org/2000/svg"><sodipodi:namedview
     id="namedview1"
     pagecolor="#ffffff"
     bordercolor="#999999"
     borderopacity="1"
     inkscape:showpageshadow="2"
     inkscape:pageopacity="0"
     inkscape:pagecheckerboard="0"
     inkscape:deskcolor="#d1d1d1"
     inkscape:document-units="px"
     showgrid="false"
     inkscape:zoom="1"
     inkscape:cx="161"
     inkscape:cy="323.5"
     inkscape:window-width="1920"
     inkscape:window-height="1001"
     inkscape:window-x="-9"
     inkscape:window-y="-9"
     inkscape:window-maximized="1"
     inkscape:current-layer="layer1"><inkscape:grid
       id="grid1"
       units="mm"
       originx="0"
       originy="0"
       spacingx="1"
       spacingy="1"
       empcolor="#0099e5"
       empopacity="0.30196078"
       color="#0099e5"
       opacity="0.14901961"
       empspacing="5"
       enabled="true"
       visible="false" /></sodipodi:namedview><defs
     id="defs1"><inkscape:path-effect
       effect="fillet_chamfer"
       id="path-effect1"
       is_visible="true"
       lpeversion="1"
       nodesatellites_param="F,0,0,1,0,2.2572315,0,1 @ F,0,0,1,0,2.608162,0,1 @ F,0,0,1,0,2.5997618,0,1 @ F,0,0,1,0,3.0078049,0,1 @ F,0,0,1,0,2.2522004,0,1 @ F,0,0,1,0,2.8010871,0,1"
       radius="0"
       unit="px"
       method="auto"
       mode="F"
       chamfer_steps="1"
       flexible="false"
       use_knot_distance="true"
       apply_no_radius="true"
       apply_with_radius="true"
       only_selected="false"
       hide_knots="false" /></defs><g
     inkscape:label="Layer 1"
     inkscape:groupmode="layer"
     id="layer1"><circle
       style="fill:#d60650;fill-opacity:1;stroke:#858585;stroke-width:8;stroke-dasharray:none;stroke-opacity:1"
       id="path1"
       inkscape:label="background"
       cx="256.00003"
       cy="256.00006"
       r="241.31339" /><g
       id="g1"
       transform="matrix(0.84705882,0,0,0.84705882,40.143867,39.915295)"><path
         d="m 388,225 c 0.4,11 -3,17 -6,27 -10,3 -8,14 -9,17 -6,3 -35,34 -25,17 -10,7 -8,10 -24,15 l -0.4,-1 c -39,18 -94,-18 -94,-68 -0.4,3 -1,2 -2,3 -1,-56 64,-88 102,-54 -25,-29 -78,-31 -96,4 -10,6 -12,26 -16,29 -5,88 75,145 150,78 8,-6 16,-16 19,-17 -3,5.7 0.6,2 -2,7 6,-10 1,-31 12,-16.2 0.8,-19 22,-58 11,-23 3,-12 1,-36 6,-14 -3,-12 3,-21 5,-28 -6,-15 -18,-43 -4,-23 -29,-60 1,-35 12,5 -1,-10.81 -4.9,-21.2 -8,-31 2,1 -4,-22 3,-6 -9,-33 -38,-62 -65,-78 18,18 -52,-15 -69,-21 12,7 -61,7 -20.5,0.8 -14,-1 -32,4 -15,-5 -10.8,0.6 -25,6 -21,1 -21,11 -85,54 -67,31 -23,21 -37,36 -49,64 -79,111 -2,278 123,325 11,4 29,4 44,4 -17,-5 -20,-2 -37,-8 -12,-5 -15,-12 -24,-20 -0.7,8 -24,-0.5 -16,-10 -5,-0.4 -14,-9 -17,-14 -9,2 -17,-14 -17,-20 -1,3 -37,-33 -16,-23 -5,-5 -12,-6 -6,-12 -5,-14 -18,-20 -3,-15 -22,-15 -35,-39 -25,-40 -5,-6 -5,-11 -4,-19 -17,-37 1,-83 14,-114 -21,2 38,-50 54,-50 -2,-8 11,-18 27,-23 -1,-1 56,-26 32,-8 67,-22 141,36 145,96 4,1 -0.5,45 -1,48"
         fill="#d70751"
         id="path1-8"
         style="fill:#ffffff" /></g></g></svg>
