<?xml version="1.0" encoding="UTF-8" standalone="no"?>
<!-- Created with Inkscape (http://www.inkscape.org/) -->

<svg
   width="512"
   height="512"
   viewBox="0 0 512 512"
   version="1.1"
   id="svg1"
   xml:space="preserve"
   xmlns="http://www.w3.org/2000/svg"
   xmlns:svg="http://www.w3.org/2000/svg"><defs
     id="defs1"><style
       id="style1">.cls-1{fill:#4d6bfe;}</style></defs><g
     id="layer1"><circle
       style="fill:#4c6afd;fill-opacity:1;stroke:#858585;stroke-width:8;stroke-dasharray:none;stroke-opacity:1"
       id="path1"
       cx="256.00003"
       cy="256.00006"
       r="241.31339" /><path
       id="path"
       class="cls-1"
       d="m 438.82737,139.54561 c -3.9373,-2.00092 -5.68004,1.74274 -8.0037,3.67912 -0.77455,0.58091 -1.42001,1.42001 -2.13001,2.13001 -5.74459,6.3255 -12.52191,10.45644 -21.3647,9.94007 -12.84464,-0.71 -23.88199,3.42094 -33.62842,13.42555 -2.06547,-12.39281 -8.97189,-19.75105 -19.42833,-24.52745 -5.4864,-2.45274 -10.9728,-4.90548 -14.84556,-10.2628 -2.64638,-3.87275 -3.42093,-8.13278 -4.71185,-12.32827 -0.90364,-2.51729 -1.74274,-5.09912 -4.58276,-5.55095 -3.0982,-0.45182 -4.32458,2.19457 -5.55095,4.38913 -4.84094,9.10097 -6.77732,19.10559 -6.58368,29.17475 0.45182,22.78471 9.87552,40.92211 28.59384,53.8313 2.13001,1.42001 2.71093,2.90456 2.00092,5.09913 -1.22637,4.45366 -2.77547,8.71369 -4.13094,13.16736 -0.83909,2.84002 -2.13001,3.48548 -5.09912,2.25911 -10.2628,-4.38912 -19.17014,-10.84371 -27.04474,-18.71832 -13.29646,-13.10282 -25.36655,-27.62565 -40.40575,-38.98573 -3.48548,-2.64638 -7.0355,-5.09913 -10.71462,-7.42278 -15.29738,-15.16829 2.06547,-27.62565 6.06732,-29.11021 4.19548,-1.5491 1.42001,-6.84187 -12.13464,-6.84187 -13.55464,0.0645 -25.94746,4.71185 -41.82575,10.90826 -2.25911,0.90364 -4.71185,1.61365 -7.22915,2.13002 -14.32919,-2.77548 -29.2393,-3.35639 -44.85941,-1.61365 -29.30385,3.35639 -52.73401,17.49194 -69.967783,41.56757 -20.71923,28.98112 -25.56018,61.96408 -19.62195,96.30251 6.26095,36.21026 24.39835,66.15957 52.282193,89.58974 28.91657,24.33381 62.22227,36.21026 100.17527,33.95115 23.10743,-1.35546 48.79671,-4.51821 77.71328,-29.49748 7.35824,3.67911 14.97465,5.16367 27.6902,6.3255 9.81098,0.90364 19.23468,-0.51637 26.59292,-2.06547 11.42463,-2.45275 10.65008,-13.23192 6.45459,-15.23284 -33.49933,-15.8783 -26.1411,-9.42371 -32.85387,-14.65192 17.04012,-20.59015 42.7294,-41.89031 52.79856,-111.01898 0.77455,-5.48641 0.12909,-8.97189 0,-13.42556 -0.0645,-2.71092 0.51637,-3.74366 3.55003,-4.06639 8.45551,-0.96819 16.5883,-3.29184 24.07562,-7.48733 21.68743,-12.13463 30.46568,-31.95022 32.53115,-55.76767 0.32273,-3.67912 0,-7.42278 -3.80821,-9.29461 z m -189.37773,214.2279 c -32.4666,-26.012 -48.2158,-34.59661 -54.73494,-34.20933 -6.06731,0.38727 -5.03458,7.42278 -3.67911,12.07008 1.42001,4.58276 3.22729,7.74551 5.80913,11.74736 1.74274,2.64638 2.96911,6.58368 -1.80729,9.5528 -10.45644,6.58368 -28.65839,-2.25911 -29.49748,-2.64639 C 144.36889,337.57249 126.6833,320.79055 114.1614,297.8122 102.15586,275.7375 95.120347,252.04915 93.958517,226.81169 c -0.25818,-6.13186 1.48456,-8.26188 7.422783,-9.4237 7.87461,-1.42001 15.94285,-1.74274 23.81745,-0.58092 33.1766,4.90549 61.38317,20.00924 85.07152,43.95577 13.55464,13.61919 23.7529,29.94931 34.27388,45.82761 11.23099,16.91103 23.23653,32.98296 38.59846,46.21487 5.42186,4.64731 9.74643,8.13279 13.87737,10.71463 -12.45736,1.42001 -33.30569,1.74274 -47.57034,-9.74644 z m 15.62011,-102.04709 c 0,-2.71093 2.13002,-4.90549 4.7764,-4.90549 0.64546,0 1.16183,0.12909 1.6782,0.32273 0.64545,0.25818 1.29091,0.64545 1.74274,1.16182 0.83909,0.90364 1.35546,2.13002 1.35546,3.42094 0,2.71092 -2.13002,4.84094 -4.84094,4.84094 -2.71093,0 -4.71186,-2.13002 -4.71186,-4.84094 z m 48.3449,25.23745 c -3.09821,1.35546 -6.19641,2.45274 -9.16552,2.58184 -4.64731,0.19363 -9.68189,-1.6782 -12.39282,-4.00185 -4.26003,-3.67912 -7.29369,-5.68004 -8.58461,-12.07009 -0.58091,-2.71093 -0.25818,-6.90641 0.25819,-9.29461 1.09728,-5.16367 -0.1291,-8.52006 -3.74367,-11.55372 -2.90456,-2.45274 -6.64823,-3.16275 -10.71462,-3.16275 -1.48456,0 -2.90457,-0.64546 -3.9373,-1.22637 -1.74274,-0.8391 -3.0982,-2.96911 -1.80729,-5.68004 0.45183,-0.8391 2.51729,-2.90457 3.03366,-3.29184 5.48641,-3.2273 11.87645,-2.19457 17.81468,0.25818 5.4864,2.25911 9.61734,6.45459 15.55556,12.39282 6.13186,7.16459 7.22915,9.10097 10.65008,14.45828 2.77547,4.19549 5.22822,8.52006 6.97096,13.4901 1.03273,3.03366 -0.32273,5.61549 -3.9373,7.10005 z"
       style="stroke-width:6.45459;fill:#ffffff" /></g></svg>
