<?xml version="1.0" encoding="UTF-8" standalone="no"?>
<!-- Created with Inkscape (http://www.inkscape.org/) -->

<svg
   width="512"
   height="512"
   viewBox="0 0 512 512"
   version="1.1"
   id="svg1"
   xml:space="preserve"
   xmlns="http://www.w3.org/2000/svg"
   xmlns:svg="http://www.w3.org/2000/svg"><defs
     id="defs1" /><g
     id="layer1"><circle
       style="fill:#000000;fill-opacity:1;stroke:#858585;stroke-width:8;stroke-dasharray:none;stroke-opacity:1"
       id="path1"
       cx="256.00003"
       cy="256.00006"
       r="241.31339" /><g
       id="g1"><rect
         width="512"
         height="512"
         rx="15.000001%"
         id="rect1"
         x="0"
         y="0"
         style="fill:none" /><path
         fill="#ffffff"
         d="m 140.47,203.94 h -17.44 v 104.47 h 17.45 c 10.155,-0.545 17.358,-8.669 17.47,-17.41 v -69.65 c -0.696,-10.364 -7.796,-17.272 -17.48,-17.41 z m 45.73,87.25 c 0,18.81 -11.61,47.31 -48.36,47.25 H 91.44 V 172.98 h 47.38 c 35.44,0 47.36,28.46 47.37,47.28 z M 286.88,202.53 H 233.6 v 38.42 h 32.57 v 29.57 H 233.6 v 38.41 h 53.29 v 29.57 h -62.18 c -11.16,0.29 -20.44,-8.53 -20.72,-19.69 V 193.7 c -0.27,-11.15 8.56,-20.41 19.71,-20.69 h 63.19 z m 103.64,115.29 c -13.2,30.75 -36.85,24.63 -47.44,0 l -38.53,-144.8 h 32.57 l 29.71,113.72 29.57,-113.72 h 32.58 z"
         id="path1-8" /></g></g></svg>
