<?xml version="1.0" encoding="UTF-8" standalone="no"?>
<!-- Created with Inkscape (http://www.inkscape.org/) -->

<svg
   width="512"
   height="512"
   viewBox="0 0 512 512"
   version="1.1"
   id="svg1"
   xml:space="preserve"
   inkscape:version="1.4.2 (f4327f4, 2025-05-13)"
   sodipodi:docname="discord.svg"
   xmlns:inkscape="http://www.inkscape.org/namespaces/inkscape"
   xmlns:sodipodi="http://sodipodi.sourceforge.net/DTD/sodipodi-0.dtd"
   xmlns="http://www.w3.org/2000/svg"
   xmlns:svg="http://www.w3.org/2000/svg"><sodipodi:namedview
     id="namedview1"
     pagecolor="#ffffff"
     bordercolor="#999999"
     borderopacity="1"
     inkscape:showpageshadow="2"
     inkscape:pageopacity="0"
     inkscape:pagecheckerboard="0"
     inkscape:deskcolor="#d1d1d1"
     inkscape:document-units="px"
     showgrid="false"
     inkscape:zoom="1"
     inkscape:cx="161"
     inkscape:cy="323.5"
     inkscape:window-width="1920"
     inkscape:window-height="1001"
     inkscape:window-x="-9"
     inkscape:window-y="-9"
     inkscape:window-maximized="1"
     inkscape:current-layer="layer1"><inkscape:grid
       id="grid1"
       units="mm"
       originx="0"
       originy="0"
       spacingx="1"
       spacingy="1"
       empcolor="#0099e5"
       empopacity="0.30196078"
       color="#0099e5"
       opacity="0.14901961"
       empspacing="5"
       enabled="true"
       visible="false" /></sodipodi:namedview><defs
     id="defs1"><inkscape:path-effect
       effect="fillet_chamfer"
       id="path-effect1"
       is_visible="true"
       lpeversion="1"
       nodesatellites_param="F,0,0,1,0,2.2572315,0,1 @ F,0,0,1,0,2.608162,0,1 @ F,0,0,1,0,2.5997618,0,1 @ F,0,0,1,0,3.0078049,0,1 @ F,0,0,1,0,2.2522004,0,1 @ F,0,0,1,0,2.8010871,0,1"
       radius="0"
       unit="px"
       method="auto"
       mode="F"
       chamfer_steps="1"
       flexible="false"
       use_knot_distance="true"
       apply_no_radius="true"
       apply_with_radius="true"
       only_selected="false"
       hide_knots="false" /></defs><g
     inkscape:label="Layer 1"
     inkscape:groupmode="layer"
     id="layer1"><circle
       style="fill:#2e3548;fill-opacity:1;stroke:#858585;stroke-width:8;stroke-dasharray:none;stroke-opacity:1"
       id="path1"
       inkscape:label="background"
       cx="256.00003"
       cy="256.00006"
       r="241.31339" /><path
       d="m 380.95423,140.00144 c -23.30345,-10.9031 -48.2206,-18.82702 -74.27079,-23.33897 -3.19927,5.78416 -6.93694,13.56398 -9.51393,19.75281 -27.69202,-4.16454 -55.1294,-4.16454 -82.31214,0 -2.5765,-6.18883 -6.39905,-13.96865 -9.62695,-19.75281 -26.07832,4.51195 -51.02408,12.46499 -74.32753,23.39671 -47.00325,71.02808 -59.74506,140.29194 -53.37414,208.57227 31.17503,23.28074 61.38738,37.4231 91.08988,46.67746 7.3337,-10.09328 13.87438,-20.82269 19.50901,-32.13044 -10.73136,-4.07769 -21.00971,-9.10977 -30.72153,-14.95168 2.57649,-1.9088 5.09673,-3.90446 7.53159,-5.95786 59.23522,27.70584 123.5958,27.70584 182.12334,0 2.4635,2.0534 4.98323,4.04906 7.53161,5.95786 -9.74045,5.87053 -20.04692,10.90262 -30.7783,14.98079 5.63463,11.27864 12.14719,22.03715 19.50902,32.12995 29.73112,-9.25436 59.9715,-23.39621 91.14656,-46.70608 7.47534,-79.15432 -12.76996,-147.78208 -53.5157,-208.63001 z M 196.19764,306.63966 c -17.78182,0 -32.36436,-16.6004 -32.36436,-36.81561 0,-20.2152 14.27115,-36.84423 32.36436,-36.84423 18.09369,0 32.67574,16.59992 32.36436,36.84423 0.0281,20.21521 -14.27067,36.81561 -32.36436,36.81561 z m 119.60348,0 c -17.78182,0 -32.36437,-16.6004 -32.36437,-36.81561 0,-20.2152 14.27067,-36.84423 32.36437,-36.84423 18.0932,0 32.67574,16.59992 32.36435,36.84423 0,20.21521 -14.27115,36.81561 -32.36435,36.81561 z"
       fill="#5865f2"
       fill-rule="nonzero"
       id="path1-8"
       style="stroke-width:1.40625" /></g></svg>
