<?xml version="1.0" encoding="UTF-8" standalone="no"?>
<!-- Created with Inkscape (http://www.inkscape.org/) -->

<svg
   width="512"
   height="512"
   viewBox="0 0 512 512"
   version="1.1"
   id="svg1"
   xml:space="preserve"
   inkscape:version="1.4.2 (f4327f4, 2025-05-13)"
   sodipodi:docname="electron.svg"
   xmlns:inkscape="http://www.inkscape.org/namespaces/inkscape"
   xmlns:sodipodi="http://sodipodi.sourceforge.net/DTD/sodipodi-0.dtd"
   xmlns="http://www.w3.org/2000/svg"
   xmlns:svg="http://www.w3.org/2000/svg"><sodipodi:namedview
     id="namedview1"
     pagecolor="#ffffff"
     bordercolor="#999999"
     borderopacity="1"
     inkscape:showpageshadow="2"
     inkscape:pageopacity="0"
     inkscape:pagecheckerboard="0"
     inkscape:deskcolor="#d1d1d1"
     inkscape:document-units="px"
     showgrid="false"
     inkscape:zoom="1"
     inkscape:cx="161"
     inkscape:cy="323.5"
     inkscape:window-width="1920"
     inkscape:window-height="1001"
     inkscape:window-x="-9"
     inkscape:window-y="-9"
     inkscape:window-maximized="1"
     inkscape:current-layer="layer1"><inkscape:grid
       id="grid1"
       units="mm"
       originx="0"
       originy="0"
       spacingx="1"
       spacingy="1"
       empcolor="#0099e5"
       empopacity="0.30196078"
       color="#0099e5"
       opacity="0.14902"
       empspacing="5"
       enabled="true"
       visible="false" /></sodipodi:namedview><defs
     id="defs1"><inkscape:path-effect
       effect="fillet_chamfer"
       id="path-effect1"
       is_visible="true"
       lpeversion="1"
       nodesatellites_param="F,0,0,1,0,2.2572315,0,1 @ F,0,0,1,0,2.608162,0,1 @ F,0,0,1,0,2.5997618,0,1 @ F,0,0,1,0,3.0078049,0,1 @ F,0,0,1,0,2.2522004,0,1 @ F,0,0,1,0,2.8010871,0,1"
       radius="0"
       unit="px"
       method="auto"
       mode="F"
       chamfer_steps="1"
       flexible="false"
       use_knot_distance="true"
       apply_no_radius="true"
       apply_with_radius="true"
       only_selected="false"
       hide_knots="false" /><style
       id="style1">.cls-1{fill:#2b2e3a;fill-rule:evenodd;}.cls-2{fill:#9feaf9;}</style></defs><g
     inkscape:label="Layer 1"
     inkscape:groupmode="layer"
     id="layer1"><circle
       style="fill:#2e3548;fill-opacity:1;stroke:#858585;stroke-width:8;stroke-dasharray:none;stroke-opacity:1"
       id="path1"
       inkscape:label="background"
       cx="256.00003"
       cy="256.00006"
       r="241.31339" /><g
       id="g1"
       transform="matrix(3.8655599,0,0,3.8655599,18.5,18.5)"><path
         class="cls-1"
         d="M 122.88,61.44 A 61.44,61.44 0 1 0 61.44,122.88 61.44,61.44 0 0 0 122.88,61.44 Z"
         id="path1-9" /><path
         class="cls-2"
         d="m 48.24,34.41 c -12.48,-2.27 -22.35,0.11 -26.28,6.92 -2.94,5.09 -2.1,11.83 2,19 a 1.28,1.28 0 1 0 2.22,-1.27 C 22.46,52.57 21.74,46.75 24.18,42.58 27.45,36.92 36.25,34.8 47.79,36.9 L 48,37 a 1.28,1.28 0 0 0 0.25,-2.54 z M 30,71.64 A 80.13,80.13 0 0 0 49.11,86.7 C 67.21,97.16 86.49,100 96,93.47 a 1.26,1.26 0 0 0 0.58,-1.07 1.28,1.28 0 0 0 -2,-1 C 86,97.16 67.73,94.5 50.39,84.49 a 77.33,77.33 0 0 1 -18.47,-14.58 1.33,1.33 0 0 0 -1,-0.42 1.28,1.28 0 0 0 -1.28,1.28 1.33,1.33 0 0 0 0.33,0.87 z"
         id="path2" /><path
         class="cls-2"
         d="m 93.42,67.56 c 8.17,-9.65 11,-19.37 7.1,-26.16 -2.89,-5 -9,-7.65 -17.11,-7.75 a 1.28,1.28 0 0 0 0,2.56 c 7.3,0.09 12.56,2.37 14.92,6.47 3.26,5.64 0.72,14.3 -6.84,23.23 a 1.2963892,1.2963892 0 1 0 2,1.65 z m -23,-34.38 a 80.12,80.12 0 0 0 -22.81,9 C 29,53 16.76,68.93 18.46,80.47 A 1.2834037,1.2834037 0 0 0 21,80.1 C 19.48,69.85 31,54.77 48.93,44.44 A 77.24,77.24 0 0 1 71,35.69 a 1.28,1.28 0 0 0 -0.24,-2.54 1.36,1.36 0 0 0 -0.29,0 z"
         id="path3" /><path
         class="cls-2"
         d="m 42.13,90.12 c 4.27,11.93 11.26,19.28 19.13,19.28 5.73,0 11,-3.91 15.17,-10.79 a 1.21,1.21 0 0 0 0.19,-0.67 1.28,1.28 0 0 0 -2.38,-0.65 c -3.72,6.19 -8.29,9.55 -13,9.55 -6.53,0 -12.77,-6.55 -16.72,-17.58 a 1.28,1.28 0 0 0 -2.49,0.41 1.16,1.16 0 0 0 0.08,0.45 z M 83.57,86.93 A 80.15,80.15 0 0 0 87,63.2 C 87,42 79.55,23.72 69,19 a 1.34,1.34 0 0 0 -0.49,-0.1 1.28,1.28 0 0 0 -0.55,2.44 c 9.41,4.21 16.46,21.56 16.46,41.86 a 77.92,77.92 0 0 1 -3.29,23 1.34,1.34 0 0 0 -0.06,0.4 1.28,1.28 0 0 0 1.28,1.28 1.29,1.29 0 0 0 1.23,-0.92 z m 21.67,-2 a 6.13,6.13 0 1 0 -6.13,6.07 6.12,6.12 0 0 0 6.13,-6.12 z m -2.56,0 a 3.57,3.57 0 1 1 -3.57,-3.57 3.56,3.56 0 0 1 3.57,3.57 z m -79.4,7.75 a 6.13,6.13 0 1 0 -6.13,-6.13 6.13,6.13 0 0 0 6.13,6.13 z m 0,-2.56 a 3.57,3.57 0 1 1 3.57,-3.57 3.57,3.57 0 0 1 -3.57,3.57 z"
         id="path4" /><path
         class="cls-2"
         d="M 61.26,26.13 A 6.13,6.13 0 1 0 55.13,20 a 6.12,6.12 0 0 0 6.13,6.12 z m 0,-2.56 A 3.57,3.57 0 1 1 64.82,20 3.56,3.56 0 0 1 61.26,23.56 Z m 0.93,37.69 a 4.43,4.43 0 0 1 -5.27,-3.39 4.92,4.92 0 0 1 -0.1,-0.94 4.43,4.43 0 1 1 5.37,4.33 z"
         id="path5" /></g></g></svg>
