<?xml version="1.0" encoding="UTF-8" standalone="no"?>
<!-- Created with Inkscape (http://www.inkscape.org/) -->

<svg
   width="512"
   height="512"
   viewBox="0 0 512 512"
   version="1.1"
   id="svg1"
   xml:space="preserve"
   xmlns:xlink="http://www.w3.org/1999/xlink"
   xmlns="http://www.w3.org/2000/svg"
   xmlns:svg="http://www.w3.org/2000/svg"><defs
     id="defs1"><linearGradient
       id="linearGradient1"><stop
         style="stop-color:#aa6ece;stop-opacity:1;"
         offset="0"
         id="stop1" /><stop
         style="stop-color:#5d297e;stop-opacity:1;"
         offset="1"
         id="stop2" /></linearGradient><linearGradient
       xlink:href="#linearGradient1"
       id="linearGradient2"
       x1="10.686646"
       y1="256.00006"
       x2="501.31342"
       y2="256.00006"
       gradientUnits="userSpaceOnUse" /></defs><g
     id="layer1"><circle
       style="fill:url(#linearGradient2);fill-opacity:1;stroke:#858585;stroke-width:8;stroke-dasharray:none;stroke-opacity:1"
       id="path1"
       cx="256.00003"
       cy="256.00006"
       r="241.31339" /><g
       id="g1"
       transform="matrix(2.506525,0,0,2.506525,94.843252,95.24804)"
       style="fill:#ffffff"><path
         d="m 90.1,80 c 0.8,-0.5 1.7,-1 2.5,-1.5 5.6,-4.8 3.6,-13.5 -5.9,-25.7 0.2,6.1 1.2,12.4 2.2,19.1 0.4,2.6 0.8,5.3 1.2,8.1 z M 36,103.2 c 3.2,13.7 11.3,21.1 20.5,24.2 5.1,0.9 10.2,0.7 15.3,-0.4 0.8,-0.4 1.5,-0.9 2.2,-1.4 2,-1.3 3.7,-2.8 5.3,-4.3 -6.5,-2.8 -13.1,-8.2 -19.3,-14.6 -4.8,-0.3 -9.5,-0.8 -13.6,-1.4 -4,-0.4 -7.4,-1.1 -10.4,-2.1 z M 34.6,38.7 34.4,40.1 C 33,48 32.9,55.1 34,61.3 c 1.1,-7.4 2.6,-15 4.7,-22.3 0.3,-1.1 0.6,-2.3 1,-3.5 h 0.1 c 1.6,-5 3.4,-9.8 5.5,-14.3 -4,5.3 -7.5,11.2 -10.7,17.5 z"
         id="path1-0"
         style="fill:#ffffff" /><path
         d="m 33.9,114 c 3.5,4.4 7.5,7.6 11.9,9.9 -5.6,-4.6 -10,-11.5 -12,-21.4 -3.8,-1.4 -6.8,-3.3 -9.1,-5.7 1.6,6.4 4.6,12.3 9.2,17.2 z M 33.3,67 c -1.8,-5.9 -2.4,-12.7 -1.8,-20.4 -1.1,2.3 -2.1,4.8 -3.2,7.3 -4.5,13.1 -6.5,26.7 -4.6,38.7 2.1,3.2 5.2,5.8 9.6,7.6 -1.4,-7.7 -1.5,-19.9 0,-33.2 z m 2.2,33.8 c 0,0.1 0,0.1 0,0 3.2,1.2 6.8,2 11.1,2.5 3.5,0.6 7.3,1 11.3,1.3 C 49.6,95.5 42.3,84.8 37.6,76 36.5,74.4 35.6,72.7 34.8,71 33.7,83.2 34,94.1 35.5,100.8 Z M 86.9,72.1 C 85.8,64.6 84.6,57 84.6,49.8 71.9,38 59.6,25.4 60.1,5.1 59.7,5.4 59.3,5.7 59,6 56.8,7.9 54.6,10 52.5,12.3 48,18.7 44.4,26.9 41.6,35.8 40,47.4 51.2,70.1 66.1,87.5 73.3,87.2 80.9,85 88.2,81 87.8,78.1 87.4,75.1 86.9,72.1 Z m 10,39.7 c -2.6,-0.5 -5.2,-1.4 -7.8,-2.6 -1.3,4.1 -3.4,7.9 -6.4,11.4 1.1,0.3 2.1,0.6 3.1,0.7 4.2,-2.5 8,-5.8 11.1,-9.5 z"
         id="path2"
         style="fill:#ffffff" /><path
         d="M 62.1,3.6 C 61,23.1 72.2,35.5 84.4,46.8 73.7,32.6 67.5,24.1 67.5,0.3 65.8,1.2 64,2.3 62.1,3.6 Z m 21.1,102.2 c -5.3,0.8 -10.8,1.1 -16.2,1.1 -1.4,0 -2.9,0 -4.3,-0.1 5.8,5.8 12,10.6 18,13 3.2,-3.5 5.3,-7.4 6.6,-11.6 -1.4,-0.7 -2.8,-1.5 -4.1,-2.4 z m -2.4,-1.6 C 78.8,102.8 77,101.3 75.3,99.8 71.8,96.7 68.4,93.3 65.2,89.6 58.1,89.7 51.5,88 46.1,84.5 45.3,84 44.5,83.4 43.8,82.8 c 4.6,7.3 10.5,15.3 16.9,22 6.5,0.3 13.5,0.2 20.1,-0.6 z m 9.6,0.2 c -0.2,1 -0.4,1.9 -0.7,2.9 2.8,1.4 5.7,2.4 8.6,2.7 2.5,-3.4 4.5,-7.2 5.7,-11.3 -3.7,2.5 -8.4,4.4 -13.6,5.7 z"
         id="path3"
         style="fill:#ffffff" /><path
         d="m 47.2,82.8 c 4.7,3 10.3,4.6 16.3,4.8 C 51.2,73 41.7,55.2 39.8,42.6 37.5,51.5 36.7,57 35.4,66.2 v 0.2 c 0.9,2.3 2.1,5.1 3.7,8.1 2.1,3.4 4.8,6.2 8.1,8.3 z m 41.3,0.4 c -6.8,3.7 -13.9,5.8 -20.7,6.3 2.9,3.2 5.8,6.2 8.8,8.8 2.1,1.9 4.5,3.8 7.1,5.5 1.7,-0.3 3.3,-0.6 4.9,-0.9 1,-6.3 0.7,-12.9 -0.1,-19.7 z m 2.2,19.1 c 5.6,-1.5 10.5,-3.6 14.1,-6.6 1.5,-6.9 1,-14.4 -2.3,-22.4 -2.9,-4.9 -5.7,-9.2 -8.3,-13 4.8,8.8 4.7,15.2 -0.4,19.6 L 93.7,80 c -1.1,0.7 -2.2,1.4 -3.4,2.1 0.9,6.9 1.3,13.8 0.4,20.2 z"
         id="path4"
         style="fill:#ffffff" /></g></g></svg>
