<svg width="512" height="512" version="1.1" viewBox="0 0 512 512" xml:space="preserve" xmlns="http://www.w3.org/2000/svg"><defs><linearGradient id="linearGradient6" x1="47.395" x2="82.751" y1="82.735" y2="118.09" gradientTransform="matrix(9.8523 0 0 9.8523 -385.12 -733.3)" gradientUnits="userSpaceOnUse"><stop style="stop-color:#6d327c" offset="0"/><stop style="stop-color:#6d327c" offset=".058584"/><stop style="stop-color:#485da6" offset=".28638"/><stop style="stop-color:#00a1ba" offset=".53169"/><stop style="stop-color:#01b18e" offset=".83268"/><stop style="stop-color:#32b37b" offset="1"/></linearGradient></defs><path d="m501.31 256.01c0 135.48-109.83 245.31-245.31 245.31-135.49 0-245.32-109.83-245.32-245.31 0-135.49 109.83-245.32 245.32-245.32 135.48 0 245.31 109.83 245.31 245.32z" style="fill:url(#linearGradient6)"/><path d="m338.55 272.69c127.62-85.566 24.014-258.57-140.12-198.84-49.167 17.904-94.345 50.911-115.79 101.6-59.998 136.97 61.729 326.71 239.82 261.89 63.799-23.218 105.65-63.283 121.95-130.18l-82.108-8.4916c-17.09 37.823-51.102 62.259-87.166 68.614-50.07 9.1804-97.454-30.006-114.27-80.336-20.421-60.286 9.2739-119.27 58.821-140.3 69.625-29.857 141.67 35.725 59.957 73.752-32.035 15.415-71.166 31.927-106.88 18.579-2.6344 75.455 78.795 92.479 165.8 33.724" style="fill:#1a1a1a"/><circle cx="256" cy="256" r="241.31" style="fill:none;stroke-width:8;stroke:#afafaf"/></svg>
