<?xml version="1.0" encoding="UTF-8" standalone="no"?>
<svg
   width="512"
   height="512"
   version="1.1"
   viewBox="0 0 512 512"
   xml:space="preserve"
   id="svg6"
   xmlns="http://www.w3.org/2000/svg"
   xmlns:svg="http://www.w3.org/2000/svg"><defs
     id="defs6"><linearGradient
       id="linearGradient6"
       x1="47.395"
       x2="82.751"
       y1="82.735"
       y2="118.09"
       gradientTransform="matrix(7.2291 0 0 7.2291 -214.42 -469.9)"
       gradientUnits="userSpaceOnUse"><stop
         style="stop-color:#6d327c"
         offset="0"
         id="stop1" /><stop
         style="stop-color:#6d327c"
         offset=".058584"
         id="stop2" /><stop
         style="stop-color:#485da6"
         offset=".28638"
         id="stop3" /><stop
         style="stop-color:#00a1ba"
         offset=".53169"
         id="stop4" /><stop
         style="stop-color:#01b18e"
         offset=".83268"
         id="stop5" /><stop
         style="stop-color:#32b37b"
         offset="1"
         id="stop6" /></linearGradient></defs><circle
     cx="256"
     cy="256"
     r="241.31"
     style="fill:#2e3548;stroke-width:8;stroke:#858585"
     id="circle6" /><path
     d="m256 76c-99.416 0-180 80.588-180 180 0 99.409 80.588 180 180 180 99.409 0 180-80.588 180-180 0-99.416-80.588-180-180-180zm5.7344 37.332c90.634-0.38155 135.46 100.96 54.988 154.91l0.01172 0.00976c-63.84 43.112-123.59 30.619-121.66-24.746 26.205 9.7941 54.916-2.322 78.422-13.633 59.957-27.902 7.0952-76.023-43.992-54.115-36.355 15.431-58.144 58.71-43.16 102.95 12.339 36.93 47.107 65.683 83.846 58.947 26.462-4.663 51.417-22.593 63.957-50.346l60.248 6.2305c-11.96 49.086-42.668 78.483-89.48 95.52-130.67 47.562-219.99-91.66-175.97-192.16 15.735-37.193 48.885-61.412 84.961-74.549 16.936-6.1632 32.993-8.9493 47.824-9.0117z"
     style="fill:url(#linearGradient6);stroke-width:.73375"
     id="path6" /></svg>
