<?xml version="1.0" encoding="UTF-8" standalone="no"?>
<!-- Created with Inkscape (http://www.inkscape.org/) -->

<svg
   width="512"
   height="512"
   viewBox="0 0 512 512"
   version="1.1"
   id="svg1"
   xml:space="preserve"
   xmlns="http://www.w3.org/2000/svg"
   xmlns:svg="http://www.w3.org/2000/svg"><defs
     id="defs1" /><g
     id="layer1"><circle
       style="fill:#2e3548;fill-opacity:1;stroke:#858585;stroke-width:8;stroke-dasharray:none;stroke-opacity:1"
       id="path1"
       cx="256.00003"
       cy="256.00006"
       r="241.31339" /><path
       d="m 324.55057,246.92955 c -4.51801,-0.154 -8.86872,0.126 -12.92654,0.777 1.13995,-9.25049 4.94682,-20.61079 18.42762,-20.13829 14.92413,0.525 17.0158,14.67829 17.06809,24.27528 -6.29594,-2.8245 -14.08742,-4.60949 -22.56917,-4.91399 m 63.81699,-100.47302 c -2.49956,-13.40849 -10.43749,-20.01299 -17.62236,-22.60648 -7.73926,-2.814 -23.44766,-5.7225 -43.18261,-8.064 -15.87585,-1.869 -34.53356,-1.722 -45.80768,-1.3755 -1.34911,-9.30299 -7.84378,-17.797481 -15.12279,-20.737479 -19.36891,-7.832993 -49.31118,-5.942995 -56.98765,-3.779997 -6.10771,1.711499 -12.87425,5.228997 -16.63927,10.636496 -2.52049,3.61199 -4.15198,8.25299 -4.1624,14.72098 0,3.6645 0.10429,12.28499 0.18829,19.94999 0.0945,7.68599 0.19881,14.56349 0.19881,14.61599 0,6.83549 -5.53252,12.41029 -12.38271,12.42079 h -31.40653 c -6.70382,0 -11.82837,1.134 -15.72933,2.9085 -3.92189,1.79549 -6.6934,4.19999 -8.80599,7.04549 -4.19377,5.65949 -4.9259,12.63149 -4.90497,19.75048 0,0 0.063,5.8275 1.46419,17.08349 1.16088,8.71499 10.57342,69.60374 19.51528,88.11523 3.46171,7.20299 5.77304,10.20599 12.58144,13.37699 15.17508,6.5303 49.84458,13.78579 66.08645,15.86479 16.22088,2.079 26.39692,6.45749 32.46276,-6.3105 0.021,0 1.21317,-3.1815 2.85516,-7.79029 5.27099,-16.02299 6.00305,-30.23998 6.00305,-40.51947 0,-1.05 1.52691,-1.092 1.52691,0 0,7.25549 -1.38047,32.95947 17.95709,39.85727 7.63454,2.7195 23.46853,5.13449 39.55353,7.03499 14.5476,1.68 25.11052,7.4235 25.11052,44.89797 0,22.79548 -4.76902,25.92447 -29.70175,25.92447 -20.21605,0 -27.92388,0.52501 -27.92388,-15.59248 0,-13.03049 12.84289,-11.66549 22.34958,-11.66549 4.25655,0 1.17131,-3.171 1.17131,-11.21399 0,-8.001 4.97818,-12.62099 0.2723,-12.73649 -32.90208,-0.9135 -52.26049,-0.07 -52.26049,41.26496 0,37.50527 14.29658,44.46676 60.98276,44.46676 36.61473,0 49.52034,-1.20749 64.6327,-48.28875 2.99109,-9.30299 10.22832,-37.66347 14.59989,-85.30123 2.77144,-30.11398 -2.60414,-121.01171 -6.87112,-143.95349 m -244.40165,6.62549 h 0.021 31.40645 c 1.79886,0 3.25255,-1.48049 3.25255,-3.26549 0,0 -0.3766,-27.03748 -0.3766,-34.55548 v -0.091 c 0,-6.17399 1.28639,-11.54999 3.53493,-16.064983 l 1.07723,-2.015998 c -0.1253,0 -0.2408,0.07 -0.3661,0.188999 L 121.4913,158.04152 c -0.1148,0.098 -0.1988,0.231 -0.2303,0.357 1.26546,-0.63 2.9911,-1.4805 3.23162,-1.5855 5.31286,-2.415 11.75523,-3.7275 19.4735,-3.7275"
       id="Evernote"
       style="fill:#20c05c;fill-rule:evenodd;stroke:none;stroke-width:7" /></g></svg>
