<?xml version="1.0" encoding="UTF-8" standalone="no"?>
<!-- Created with Inkscape (http://www.inkscape.org/) -->

<svg
   width="512"
   height="512"
   viewBox="0 0 512 512"
   version="1.1"
   id="svg1"
   xml:space="preserve"
   xmlns="http://www.w3.org/2000/svg"
   xmlns:svg="http://www.w3.org/2000/svg"><defs
     id="defs1" /><g
     id="layer1"><circle
       style="fill:#2e3548;fill-opacity:1;stroke:#858585;stroke-width:8;stroke-dasharray:none;stroke-opacity:1"
       id="path1"
       cx="256.00003"
       cy="256.00006"
       r="241.31339" /><path
       d="m 434.30678,151.5205 h -6.12441 c -7.57265,0 -14.70579,3.53055 -19.3099,9.53967 l -62.68514,81.97342 -62.68513,-81.97342 c -4.5897,-6.00912 -11.73004,-9.53967 -19.29549,-9.53967 h -6.12441 l 79.04811,103.36563 -80.74133,105.58482 h 6.12441 c 7.57265,0 14.70579,-3.53054 19.3027,-9.53967 l 64.37835,-84.18541 64.37835,84.18541 c 4.59691,6.00913 11.73005,9.53967 19.3027,9.53967 H 436 L 355.25867,254.88613 Z M 229.39124,318.98348 c -18.40205,27.96333 -54.62973,42.29445 -89.26507,29.65655 -30.47074,-11.1176 -49.71579,-41.40821 -49.71579,-73.84597 v -7.99055 h 86.46225 v 0 h 79.25706 v -29.78625 c 0,-46.86974 -34.71459,-87.90329 -81.38259,-92.29125 C 121.19814,139.68959 76,181.85435 76,234.38016 v 40.15451 c 0,38.69907 23.16468,74.67457 59.5797,87.78081 47.57585,17.11952 97.61588,-8.43007 114.53366,-52.28085 0,0 0,0 0,0 h -4.59691 c -6.56392,0 -12.52261,3.4657 -16.12521,8.94885 z M 90.41038,234.38016 c 0,-41.71803 33.93643,-75.65447 75.65447,-75.65447 41.71803,0 75.65447,33.93644 75.65447,75.65447 v 18.01297 H 90.41038 Z"
       id="path1-8"
       style="stroke-width:7.20519;fill:#f2f2f2" /></g></svg>
