<?xml version="1.0" encoding="UTF-8" standalone="no"?>
<!-- Created with Inkscape (http://www.inkscape.org/) -->

<svg
   width="512"
   height="512"
   viewBox="0 0 512 512"
   version="1.1"
   id="svg1"
   xml:space="preserve"
   inkscape:version="1.4.2 (f4327f4, 2025-05-13)"
   sodipodi:docname="express.svg"
   xmlns:inkscape="http://www.inkscape.org/namespaces/inkscape"
   xmlns:sodipodi="http://sodipodi.sourceforge.net/DTD/sodipodi-0.dtd"
   xmlns="http://www.w3.org/2000/svg"
   xmlns:svg="http://www.w3.org/2000/svg"><sodipodi:namedview
     id="namedview1"
     pagecolor="#ffffff"
     bordercolor="#999999"
     borderopacity="1"
     inkscape:showpageshadow="2"
     inkscape:pageopacity="0"
     inkscape:pagecheckerboard="0"
     inkscape:deskcolor="#d1d1d1"
     inkscape:document-units="px"
     showgrid="false"
     inkscape:zoom="1"
     inkscape:cx="161"
     inkscape:cy="323.5"
     inkscape:window-width="1920"
     inkscape:window-height="1001"
     inkscape:window-x="-9"
     inkscape:window-y="-9"
     inkscape:window-maximized="1"
     inkscape:current-layer="layer1"
     showguides="true"><inkscape:grid
       id="grid1"
       units="mm"
       originx="0"
       originy="0"
       spacingx="1"
       spacingy="1"
       empcolor="#0099e5"
       empopacity="0.30196078"
       color="#0099e5"
       opacity="0.14901961"
       empspacing="5"
       enabled="true"
       visible="false" /></sodipodi:namedview><defs
     id="defs1"><inkscape:path-effect
       effect="fillet_chamfer"
       id="path-effect1"
       is_visible="true"
       lpeversion="1"
       nodesatellites_param="F,0,0,1,0,2.2572315,0,1 @ F,0,0,1,0,2.608162,0,1 @ F,0,0,1,0,2.5997618,0,1 @ F,0,0,1,0,3.0078049,0,1 @ F,0,0,1,0,2.2522004,0,1 @ F,0,0,1,0,2.8010871,0,1"
       radius="0"
       unit="px"
       method="auto"
       mode="F"
       chamfer_steps="1"
       flexible="false"
       use_knot_distance="true"
       apply_no_radius="true"
       apply_with_radius="true"
       only_selected="false"
       hide_knots="false" /></defs><g
     inkscape:label="Layer 1"
     inkscape:groupmode="layer"
     id="layer1"><circle
       style="fill:#2e3548;fill-opacity:1;stroke:#858585;stroke-width:8;stroke-dasharray:none;stroke-opacity:1"
       id="path1"
       inkscape:label="background"
       cx="256.00003"
       cy="256.00006"
       r="241.31339" /><path
       d="m 434.30678,151.5205 h -6.12441 c -7.57265,0 -14.70579,3.53055 -19.3099,9.53967 l -62.68514,81.97342 -62.68513,-81.97342 c -4.5897,-6.00912 -11.73004,-9.53967 -19.29549,-9.53967 h -6.12441 l 79.04811,103.36563 -80.74133,105.58482 h 6.12441 c 7.57265,0 14.70579,-3.53054 19.3027,-9.53967 l 64.37835,-84.18541 64.37835,84.18541 c 4.59691,6.00913 11.73005,9.53967 19.3027,9.53967 H 436 L 355.25867,254.88613 Z M 229.39124,318.98348 c -18.40205,27.96333 -54.62973,42.29445 -89.26507,29.65655 -30.47074,-11.1176 -49.71579,-41.40821 -49.71579,-73.84597 v -7.99055 h 86.46225 v 0 h 79.25706 v -29.78625 c 0,-46.86974 -34.71459,-87.90329 -81.38259,-92.29125 C 121.19814,139.68959 76,181.85435 76,234.38016 v 40.15451 c 0,38.69907 23.16468,74.67457 59.5797,87.78081 47.57585,17.11952 97.61588,-8.43007 114.53366,-52.28085 0,0 0,0 0,0 h -4.59691 c -6.56392,0 -12.52261,3.4657 -16.12521,8.94885 z M 90.41038,234.38016 c 0,-41.71803 33.93643,-75.65447 75.65447,-75.65447 41.71803,0 75.65447,33.93644 75.65447,75.65447 v 18.01297 H 90.41038 Z"
       id="path1-8"
       style="stroke-width:7.20519;fill:#f2f2f2" /></g></svg>
