<?xml version="1.0" encoding="UTF-8" standalone="no"?>
<!-- Created with Inkscape (http://www.inkscape.org/) -->

<svg
   width="512"
   height="512"
   viewBox="0 0 512 512"
   version="1.1"
   id="svg1"
   xml:space="preserve"
   inkscape:version="1.4.2 (f4327f4, 2025-05-13)"
   sodipodi:docname="gcp.svg"
   xmlns:inkscape="http://www.inkscape.org/namespaces/inkscape"
   xmlns:sodipodi="http://sodipodi.sourceforge.net/DTD/sodipodi-0.dtd"
   xmlns="http://www.w3.org/2000/svg"
   xmlns:svg="http://www.w3.org/2000/svg"><sodipodi:namedview
     id="namedview1"
     pagecolor="#ffffff"
     bordercolor="#999999"
     borderopacity="1"
     inkscape:showpageshadow="2"
     inkscape:pageopacity="0"
     inkscape:pagecheckerboard="0"
     inkscape:deskcolor="#d1d1d1"
     inkscape:document-units="px"
     showgrid="false"
     inkscape:zoom="1"
     inkscape:cx="161"
     inkscape:cy="323.5"
     inkscape:window-width="1920"
     inkscape:window-height="1001"
     inkscape:window-x="-9"
     inkscape:window-y="-9"
     inkscape:window-maximized="1"
     inkscape:current-layer="layer1"><inkscape:grid
       id="grid1"
       units="mm"
       originx="0"
       originy="0"
       spacingx="1"
       spacingy="1"
       empcolor="#0099e5"
       empopacity="0.30196078"
       color="#0099e5"
       opacity="0.14901961"
       empspacing="5"
       enabled="true"
       visible="false" /></sodipodi:namedview><defs
     id="defs1"><inkscape:path-effect
       effect="fillet_chamfer"
       id="path-effect1"
       is_visible="true"
       lpeversion="1"
       nodesatellites_param="F,0,0,1,0,2.2572315,0,1 @ F,0,0,1,0,2.608162,0,1 @ F,0,0,1,0,2.5997618,0,1 @ F,0,0,1,0,3.0078049,0,1 @ F,0,0,1,0,2.2522004,0,1 @ F,0,0,1,0,2.8010871,0,1"
       radius="0"
       unit="px"
       method="auto"
       mode="F"
       chamfer_steps="1"
       flexible="false"
       use_knot_distance="true"
       apply_no_radius="true"
       apply_with_radius="true"
       only_selected="false"
       hide_knots="false" /></defs><g
     inkscape:label="Layer 1"
     inkscape:groupmode="layer"
     id="layer1"><circle
       style="fill:#2e3548;fill-opacity:1;stroke:#858585;stroke-width:8;stroke-dasharray:none;stroke-opacity:1"
       id="path1"
       inkscape:label="background"
       cx="256.00003"
       cy="256.00006"
       r="241.31339" /><g
       style="fill:none"
       id="g1"
       transform="matrix(24.000613,0,0,24.000613,63.994849,59.986091)"><path
         fill="#ea4335"
         d="M 10.313,5.376 12.2,3.876 11.868,3.462 A 5.935,5.935 0 0 0 6.282,2.245 5.89,5.89 0 0 0 2.304,6.329 C 2.274,6.442 2.616,6.231 2.767,6.273 L 5.375,5.845 c 0,0 0.127,-0.124 0.201,-0.205 1.16,-1.266 3.126,-1.432 4.465,-0.354 z"
         id="path1-0" /><path
         fill="#4285f4"
         d="m 13.637,6.3 a 5.835,5.835 0 0 0 -1.77,-2.838 l -1.83,1.82 a 3.226,3.226 0 0 1 1.193,2.564 v 0.323 c 0.9,0 1.63,0.725 1.63,1.62 0,0.893 -0.73,1.619 -1.63,1.619 L 7.973,11.405 7.648,11.44 v 2.507 L 7.973,14 H 11.23 A 4.234,4.234 0 0 0 15.31,11.038 4.199,4.199 0 0 0 13.636,6.3 Z"
         id="path2" /><path
         fill="#34a853"
         d="M 4.711,13.999 H 7.97 V 11.405 H 4.71 c -0.232,0 -0.461,-0.066 -0.672,-0.161 l -0.458,0.14 -1.313,1.297 -0.114,0.447 a 4.254,4.254 0 0 0 2.557,0.87 z"
         id="path3" /><path
         fill="#fbbc05"
         d="m 4.711,5.572 a 4.234,4.234 0 0 0 -3.99,2.868 4.206,4.206 0 0 0 1.433,4.688 l 1.89,-1.884 A 1.617,1.617 0 0 1 4.484,8.165 1.63,1.63 0 0 1 6.198,9.101 L 8.088,7.223 A 4.24,4.24 0 0 0 4.71,5.572 Z"
         id="path4" /></g></g></svg>
