<?xml version="1.0" encoding="UTF-8" standalone="no"?>
<!-- Created with Inkscape (http://www.inkscape.org/) -->

<svg
   width="512"
   height="512"
   viewBox="0 0 512 512"
   version="1.1"
   id="svg1"
   xml:space="preserve"
   inkscape:version="1.4.2 (f4327f4, 2025-05-13)"
   sodipodi:docname="geeksforgeeks.svg"
   xmlns:inkscape="http://www.inkscape.org/namespaces/inkscape"
   xmlns:sodipodi="http://sodipodi.sourceforge.net/DTD/sodipodi-0.dtd"
   xmlns="http://www.w3.org/2000/svg"
   xmlns:svg="http://www.w3.org/2000/svg"><sodipodi:namedview
     id="namedview1"
     pagecolor="#ffffff"
     bordercolor="#999999"
     borderopacity="1"
     inkscape:showpageshadow="2"
     inkscape:pageopacity="0"
     inkscape:pagecheckerboard="0"
     inkscape:deskcolor="#d1d1d1"
     inkscape:document-units="px"
     showgrid="false"
     inkscape:zoom="1"
     inkscape:cx="161"
     inkscape:cy="323.5"
     inkscape:window-width="1920"
     inkscape:window-height="1001"
     inkscape:window-x="-9"
     inkscape:window-y="-9"
     inkscape:window-maximized="1"
     inkscape:current-layer="layer1"><inkscape:grid
       id="grid1"
       units="mm"
       originx="0"
       originy="0"
       spacingx="1"
       spacingy="1"
       empcolor="#0099e5"
       empopacity="0.30196078"
       color="#0099e5"
       opacity="0.14901961"
       empspacing="5"
       enabled="true"
       visible="false" /></sodipodi:namedview><defs
     id="defs1"><inkscape:path-effect
       effect="fillet_chamfer"
       id="path-effect1"
       is_visible="true"
       lpeversion="1"
       nodesatellites_param="F,0,0,1,0,2.2572315,0,1 @ F,0,0,1,0,2.608162,0,1 @ F,0,0,1,0,2.5997618,0,1 @ F,0,0,1,0,3.0078049,0,1 @ F,0,0,1,0,2.2522004,0,1 @ F,0,0,1,0,2.8010871,0,1"
       radius="0"
       unit="px"
       method="auto"
       mode="F"
       chamfer_steps="1"
       flexible="false"
       use_knot_distance="true"
       apply_no_radius="true"
       apply_with_radius="true"
       only_selected="false"
       hide_knots="false" /></defs><g
     inkscape:label="Layer 1"
     inkscape:groupmode="layer"
     id="layer1"><circle
       style="fill:#2e3548;fill-opacity:1;stroke:#858585;stroke-width:8;stroke-dasharray:none;stroke-opacity:1"
       id="path1"
       inkscape:label="background"
       cx="256.00003"
       cy="256.00006"
       r="241.31339" /><path
       d="m 435.41517,254.5419 a 57.625057,57.625057 0 0 0 -1.22757,-7.11612 l -144.51416,-0.12699 a 59.003129,59.003129 0 0 1 4.27061,-16.19353 58.024839,58.024839 0 0 1 12.88239,-19.02022 57.150022,57.150022 0 0 1 18.89794,-12.13926 59.421725,59.421725 0 0 1 67.25745,14.34982 l 22.8205,-22.33135 a 85.487515,85.487515 0 0 0 -28.83605,-20.37008 94.240391,94.240391 0 0 0 -38.15331,-7.35599 95.242198,95.242198 0 0 0 -36.07916,6.86215 90.106174,90.106174 0 0 0 -29.44748,19.1425 92.109788,92.109788 0 0 0 -19.87622,29.08532 87.952054,87.952054 0 0 0 -6.99383,27.97064 h -0.94067 a 87.829768,87.829768 0 0 0 -7.00324,-27.97064 91.921655,91.921655 0 0 0 -19.87622,-29.08532 89.988591,89.988591 0 0 0 -29.44748,-19.1425 100.43466,100.43466 0 0 0 -74.23247,0.47033 85.600395,85.600395 0 0 0 -28.836051,20.37007 l 22.825211,22.33136 a 62.384815,62.384815 0 0 1 67.25745,-14.34983 57.055956,57.055956 0 0 1 18.89323,12.13927 57.958993,57.958993 0 0 1 12.88709,19.02022 58.91847,58.91847 0 0 1 4.27061,16.19352 l -144.514161,0.12699 a 57.64387,57.64387 0 0 0 -1.22756,7.11612 70.549776,70.549776 0 0 0 -0.47034,8.33898 97.419834,97.419834 0 0 0 5.17365,31.90261 73.884429,73.884429 0 0 0 16.19353,26.74307 81.409738,81.409738 0 0 0 28.219911,19.39178 96.827216,96.827216 0 0 0 37.54659,6.86685 95.129318,95.129318 0 0 0 36.06975,-6.86685 89.767535,89.767535 0 0 0 29.44748,-19.1425 91.742929,91.742929 0 0 0 19.87622,-29.08532 85.426372,85.426372 0 0 0 5.42293,-17.06835 h 4.09659 a 85.929627,85.929627 0 0 0 5.41352,17.06835 91.926358,91.926358 0 0 0 19.87622,29.08532 89.885118,89.885118 0 0 0 29.44748,19.1425 95.199868,95.199868 0 0 0 36.07915,6.86685 96.756666,96.756666 0 0 0 37.53719,-6.86685 81.282749,81.282749 0 0 0 28.21991,-19.39178 73.922055,73.922055 0 0 0 16.20293,-26.74307 97.480977,97.480977 0 0 0 5.17365,-31.90261 71.767936,71.767936 0 0 0 -0.58321,-8.31546 z m -217.50496,26.37621 a 56.910153,56.910153 0 0 1 -13.00938,19.01551 58.636271,58.636271 0 0 1 -19.01552,12.14868 67.624312,67.624312 0 0 1 -46.74628,0.24457 55.386278,55.386278 0 0 1 -16.56509,-10.43196 39.78537,39.78537 0 0 1 -8.46597,-11.16568 63.381919,63.381919 0 0 1 -5.51699,-15.08825 h 111.2711 a 54.027019,54.027019 0 0 1 -1.94247,5.28183 z m 179.83608,9.81112 a 39.818294,39.818294 0 0 1 -8.46597,11.16568 55.362761,55.362761 0 0 1 -16.56509,10.43196 67.624312,67.624312 0 0 1 -46.74628,-0.24457 58.74915,58.74915 0 0 1 -19.02022,-12.14868 56.853713,56.853713 0 0 1 -13.00468,-19.01551 53.744819,53.744819 0 0 1 -1.95187,-5.29594 h 56.06355 v 0 h 55.21226 a 63.537128,63.537128 0 0 1 -5.517,15.11176 z"
       fill="#2f8d46"
       id="path1-8"
       style="stroke-width:4.70332" /></g></svg>
