<?xml version="1.0" encoding="UTF-8" standalone="no"?>
<!-- Created with Inkscape (http://www.inkscape.org/) -->

<svg
   width="512"
   height="512"
   viewBox="0 0 512 512"
   version="1.1"
   id="svg1"
   xml:space="preserve"
   xmlns="http://www.w3.org/2000/svg"
   xmlns:svg="http://www.w3.org/2000/svg"><defs
     id="defs1" /><g
     id="layer1"><circle
       style="fill:#2e3548;fill-opacity:1;stroke:#858585;stroke-width:8;stroke-dasharray:none;stroke-opacity:1"
       id="path1"
       cx="256.00003"
       cy="256.00006"
       r="241.31339" /><g
       id="g5"
       transform="matrix(11.796659,0,0,11.796659,71.537557,61.020508)"
       style="fill:#cccccc">

<path
   class="st0"
   d="m 17.3,24.5 c -4.7,0 -7.7,-1.1 -9.6,-2.6 0.4,-0.1 0.8,-0.3 1.2,-0.6 0.8,-0.8 1,-1.9 0.9,-2.9 0,-0.2 -0.1,-0.4 -0.1,-0.6 0.2,0 0.4,0.1 0.6,0.1 0.9,0 1.7,-0.4 2.3,-1 0.6,1.1 1.8,1.9 3.2,1.9 1.7,0 3.2,-1.2 3.5,-2.9 0,-0.2 0.1,-0.5 0.1,-0.7 0,-0.4 -0.1,-0.8 -0.2,-1.2 -0.5,-1.4 -1.8,-2.4 -3.4,-2.4 -0.9,0 -1.8,0.3 -2.4,0.9 -0.2,0.2 -0.4,0.4 -0.6,0.7 C 12.6,13 12.4,12.7 12.2,12.6 11.7,12.2 11,11.9 10.3,11.9 8.8,11.9 7.5,13 7.3,14.5 7,14.3 6.8,14.1 6.5,14 6.7,13.2 7.2,12.4 7.8,11.9 V 8.1 C 7.8,7.8 8.1,7.7 8.2,8 v 0.1 c 0.4,0.9 0.9,2.1 2,3 0.9,0 1.8,0.3 2.4,0.9 0.8,-0.7 1.9,-1.2 3,-1.2 1.2,0 2.3,0.5 3.1,1.2 3.8,-1.1 5.8,-3.6 6.8,-5.6 0.1,-0.3 0.7,-0.2 0.7,0.1 0.6,5.9 0.3,12 -2.5,15.4 -1,-0.7 -2,-1.2 -2.7,-1.6 -0.1,0 -0.1,-0.1 -0.2,-0.1 0,-0.1 0,-0.2 0,-0.2 v 0 c -0.2,-0.6 -0.7,-1.2 -1.4,-1.4 v 0 c -0.2,-0.1 -0.5,0 -0.5,0.3 -0.1,0.2 0,0.5 0.3,0.5 v 0 c 0,0 0.1,0 0.1,0 -1.7,1.1 -3.7,1.6 -5.8,1.5 H 13 c -0.2,0 -0.4,0.2 -0.5,0.4 0,0.2 0.2,0.4 0.4,0.5 h 0.5 c 1.8,0.1 3.7,-0.2 5.3,-1 0,0 0,0 0,0 0.1,0.1 0.2,0.3 0.3,0.4 0.2,0.2 0.5,0.5 0.9,0.8 0.5,0.5 1.2,1 2,1.6 -1.2,0.5 -2.7,0.9 -4.6,0.9 z"
   id="path1-0"
   style="fill:#cccccc" />

<path
   class="st0"
   d="m 22.5,23 c -1.2,-0.9 -2.2,-1.7 -2.8,-2.2 -0.1,-0.1 -0.1,-0.1 -0.2,-0.2 -0.1,-0.2 -0.2,-0.3 -0.3,-0.4 0,-0.1 0,-0.1 0,-0.1 0,0 0.1,-0.1 0.2,0 0.1,0 0.2,0.1 0.3,0.1 0.1,0 0.1,0.1 0.2,0.1 0.7,0.3 2,1 3.3,1.9 0.2,0.1 0.4,0.3 0.6,0.4 1.1,0.7 2,1.5 2.7,2 1.2,-1.3 2.7,2.2 2.7,2.2 0,0 -3.8,0.4 -3.1,-1.4 C 25.3,25 24.3,24.3 23.2,23.6 23,23.4 22.7,23.2 22.5,23 Z"
   id="path2"
   style="fill:#cccccc" />

<path
   class="st1"
   d="M 8.5,20.4 C 8.4,20.5 8.3,20.6 8.2,20.7 7.1,21.7 5,21.2 3.5,19.5 2,17.8 1.6,15.7 2.7,14.7 3.6,14 5,14.1 6.3,14.9 c 0.3,0.2 0.7,0.5 1,0.8 0.1,0.1 0.2,0.2 0.3,0.3 0.4,0.5 0.8,1 1,1.5 0.3,0.7 0.4,1.4 0.4,2 -0.1,0.3 -0.2,0.6 -0.5,0.9 z M 5.2,16.2 C 5.2,17 4.7,17.6 4,17.6 3.3,17.6 2.8,17 2.8,16.2 c 0,-0.8 0.5,-1.4 1.2,-1.4 0.7,0 1.2,0.6 1.2,1.4 z"
   id="path3"
   style="fill:#cccccc" />

<path
   class="st0"
   d="m 10.9,16.8 c 1,0 1.7,-0.8 1.7,-1.7 0,-1 -0.8,-1.7 -1.7,-1.7 -0.1,0 -0.3,0 -0.4,0 0.4,0.1 0.7,0.5 0.7,1 0,0.6 -0.5,1 -1,1 -0.4,0 -0.8,-0.3 -1,-0.7 0,0.1 0,0.3 0,0.4 0,0.9 0.8,1.7 1.7,1.7 z"
   id="path4"
   style="fill:#cccccc" />

<path
   class="st0"
   d="m 16.4,17.6 c 1.1,0 2,-0.9 2,-2 0,-1.1 -0.9,-2 -2,-2 -0.1,0 -0.2,0 -0.3,0 0.5,0.1 0.9,0.6 0.9,1.1 0,0.6 -0.5,1.2 -1.2,1.2 -0.6,0 -1.2,-0.5 -1.2,-1.2 0,-0.1 0,-0.1 0,-0.2 -0.2,0.3 -0.3,0.7 -0.3,1.1 0.1,1.1 1,2 2.1,2 z"
   id="path5"
   style="fill:#cccccc" />

</g></g><style
     type="text/css"
     id="style1">
	.st0{fill:#030708;}
	.st1{fill-rule:evenodd;clip-rule:evenodd;fill:#030708;}
</style></svg>
