<?xml version="1.0" encoding="UTF-8" standalone="no"?>
<!-- Created with Inkscape (http://www.inkscape.org/) -->

<svg
   width="512"
   height="512"
   viewBox="0 0 512 512"
   version="1.1"
   id="svg1"
   xml:space="preserve"
   inkscape:version="1.4.2 (f4327f4, 2025-05-13)"
   sodipodi:docname="gitlab.svg"
   xmlns:inkscape="http://www.inkscape.org/namespaces/inkscape"
   xmlns:sodipodi="http://sodipodi.sourceforge.net/DTD/sodipodi-0.dtd"
   xmlns="http://www.w3.org/2000/svg"
   xmlns:svg="http://www.w3.org/2000/svg"><sodipodi:namedview
     id="namedview1"
     pagecolor="#ffffff"
     bordercolor="#999999"
     borderopacity="1"
     inkscape:showpageshadow="2"
     inkscape:pageopacity="0"
     inkscape:pagecheckerboard="0"
     inkscape:deskcolor="#d1d1d1"
     inkscape:document-units="px"
     showgrid="false"
     inkscape:zoom="1"
     inkscape:cx="161"
     inkscape:cy="323.5"
     inkscape:window-width="1920"
     inkscape:window-height="1001"
     inkscape:window-x="-9"
     inkscape:window-y="-9"
     inkscape:window-maximized="1"
     inkscape:current-layer="layer1"><inkscape:grid
       id="grid1"
       units="mm"
       originx="0"
       originy="0"
       spacingx="1"
       spacingy="1"
       empcolor="#0099e5"
       empopacity="0.30196078"
       color="#0099e5"
       opacity="0.14901961"
       empspacing="5"
       enabled="true"
       visible="false" /></sodipodi:namedview><defs
     id="defs1"><inkscape:path-effect
       effect="fillet_chamfer"
       id="path-effect1"
       is_visible="true"
       lpeversion="1"
       nodesatellites_param="F,0,0,1,0,2.2572315,0,1 @ F,0,0,1,0,2.608162,0,1 @ F,0,0,1,0,2.5997618,0,1 @ F,0,0,1,0,3.0078049,0,1 @ F,0,0,1,0,2.2522004,0,1 @ F,0,0,1,0,2.8010871,0,1"
       radius="0"
       unit="px"
       method="auto"
       mode="F"
       chamfer_steps="1"
       flexible="false"
       use_knot_distance="true"
       apply_no_radius="true"
       apply_with_radius="true"
       only_selected="false"
       hide_knots="false" /></defs><g
     inkscape:label="Layer 1"
     inkscape:groupmode="layer"
     id="layer1"><circle
       style="fill:#2e3548;fill-opacity:1;stroke:#858585;stroke-width:8;stroke-dasharray:none;stroke-opacity:1"
       id="path1"
       inkscape:label="background"
       cx="256.00003"
       cy="256.00006"
       r="241.31339" /><g
       id="g1"
       transform="matrix(2.6730684,0,0,2.6730684,84.922964,84.924236)"><path
         fill="#e24329"
         d="M 124.755,51.382 124.578,50.93 107.47,6.282 a 4.459,4.459 0 0 0 -1.761,-2.121 4.581,4.581 0 0 0 -5.236,0.281 4.578,4.578 0 0 0 -1.518,2.304 L 87.404,42.088 H 40.629 L 29.077,6.746 A 4.492,4.492 0 0 0 27.559,4.436 4.581,4.581 0 0 0 22.323,4.155 4.502,4.502 0 0 0 20.562,6.276 L 3.422,50.904 3.252,51.356 C -1.807,64.575 2.489,79.548 13.789,88.072 l 0.059,0.046 0.157,0.111 26.061,19.516 12.893,9.758 7.854,5.93 a 5.283,5.283 0 0 0 6.388,0 l 7.854,-5.93 12.893,-9.758 26.218,-19.634 0.065,-0.052 c 11.273,-8.526 15.562,-23.472 10.524,-36.677 z"
         id="path1-0" /><path
         fill="#fc6d26"
         d="M 124.755,51.382 124.578,50.93 A 57.79,57.79 0 0 0 101.573,61.271 L 64,89.682 c 12.795,9.68 23.934,18.09 23.934,18.09 l 26.218,-19.634 0.065,-0.052 c 11.291,-8.527 15.586,-23.488 10.538,-36.704 z"
         id="path2" /><path
         fill="#fca326"
         d="m 40.066,107.771 12.893,9.758 7.854,5.93 a 5.283,5.283 0 0 0 6.388,0 l 7.854,-5.93 12.893,-9.758 c 0,0 -11.152,-8.436 -23.947,-18.09 a 18379.202,18379.202 0 0 0 -23.935,18.09 z"
         id="path3" /><path
         fill="#fc6d26"
         d="M 26.42,61.271 A 57.73,57.73 0 0 0 3.422,50.904 l -0.17,0.452 C -1.807,64.575 2.489,79.548 13.789,88.072 l 0.059,0.046 0.157,0.111 26.061,19.516 L 64,89.655 Z"
         id="path4" /></g></g></svg>
