<?xml version="1.0" encoding="UTF-8" standalone="no"?>
<!-- Created with Inkscape (http://www.inkscape.org/) -->

<svg
   width="512"
   height="512"
   viewBox="0 0 512 512"
   version="1.1"
   id="svg1"
   xml:space="preserve"
   xmlns="http://www.w3.org/2000/svg"
   xmlns:svg="http://www.w3.org/2000/svg"><defs
     id="defs1"><filter
       style="color-interpolation-filters:sRGB;"
       id="filter2"
       x="-0.097499996"
       y="-0.070909088"
       width="1.195"
       height="1.1418182"><feFlood
         result="flood"
         in="SourceGraphic"
         flood-opacity="0.262745"
         flood-color="rgb(54,54,54)"
         id="feFlood1" /><feGaussianBlur
         result="blur"
         in="SourceGraphic"
         stdDeviation="2.600000"
         id="feGaussianBlur1" /><feOffset
         result="offset"
         in="blur"
         dx="0.000000"
         dy="0.000000"
         id="feOffset1" /><feComposite
         result="comp1"
         operator="in"
         in="flood"
         in2="offset"
         id="feComposite1" /><feComposite
         result="comp2"
         operator="over"
         in="SourceGraphic"
         in2="comp1"
         id="feComposite2" /></filter></defs><g
     id="layer1"><circle
       style="fill:#2e3548;fill-opacity:1;stroke:#858585;stroke-width:8;stroke-dasharray:none;stroke-opacity:1"
       id="path1"
       cx="256.00003"
       cy="256.00006"
       r="241.31339" /><g
       id="g1"
       transform="matrix(3.8181818,0,0,3.8181818,133.81818,88.000001)"
       style="filter:url(#filter2)"><path
         d="M 42,22 54.065,24.28 64,22 42,0 38.965,10.43 Z"
         fill="#f29900"
         id="path1-0" /><path
         d="M 42,22 V 0 H 6 C 2.685,0 0,2.685 0,6 v 76 c 0,3.315 2.685,6 6,6 h 52 c 3.315,0 6,-2.685 6,-6 V 22 Z"
         fill="#fbbc04"
         id="path2" /><path
         d="M 39,64 H 25 V 59 H 39 Z M 38.92501,54 H 25.075 C 21.425,51.7 19,47.635 19,43 c 0,-7.18 5.82,-13 13,-13 7.18,0 13,5.82 13,13 0,4.635 -2.425,8.7 -6.075,11 z"
         fill="#ffffff"
         id="path3" /></g></g></svg>
