<?xml version="1.0" encoding="UTF-8" standalone="no"?>
<!-- Created with Inkscape (http://www.inkscape.org/) -->

<svg
   width="512"
   height="512"
   viewBox="0 0 512 512"
   version="1.1"
   id="svg1"
   xml:space="preserve"
   xmlns:xlink="http://www.w3.org/1999/xlink"
   xmlns="http://www.w3.org/2000/svg"
   xmlns:svg="http://www.w3.org/2000/svg"><defs
     id="defs1"><linearGradient
       id="linearGradient1"><stop
         style="stop-color:#e87102;stop-opacity:1;"
         offset="0"
         id="stop1" /><stop
         style="stop-color:#f8ac00;stop-opacity:1;"
         offset="1"
         id="stop2" /></linearGradient><linearGradient
       xlink:href="#linearGradient1"
       id="linearGradient2"
       x1="10.686646"
       y1="256.00006"
       x2="501.31342"
       y2="256.00006"
       gradientUnits="userSpaceOnUse" /></defs><g
     id="layer1"><circle
       style="fill:url(#linearGradient2);fill-opacity:1;stroke:#858585;stroke-width:8;stroke-dasharray:none;stroke-opacity:1"
       id="path1"
       cx="256.00003"
       cy="256.00006"
       r="241.31339" /><path
       d="m 330.12074,150.6306 a 105.4945,105.4945 0 0 0 -73.96164,30.96885 105.4945,105.4945 0 0 0 -1.84809,147.10128 l 35.92485,-35.92484 a 54.682243,54.682243 0 0 1 77.24517,-77.21653 L 403.43588,179.576 a 105.4945,105.4945 0 0 0 -73.31514,-28.9454 z m -148.07042,0.15 a 105.4945,105.4945 0 0 0 -73.31664,28.9739 l 35.86635,35.86635 a 54.650742,54.650742 0 0 1 75.34024,1.90645 l 26.01134,-44.60525 -1.49545,-1.20296 a 105.4945,105.4945 0 0 0 -62.40584,-20.93833 z m 225.13844,32.58129 -35.8377,35.86636 a 54.682243,54.682243 0 0 1 -77.24516,77.24517 l -36.10034,36.10185 a 105.5425,105.5425 0 0 0 149.1832,-149.21338 z m -302.20797,0.15 a 105.4945,105.4945 0 0 0 -0.0299,145.22333 l 35.95484,-35.95483 a 54.650742,54.650742 0 0 1 -0.0601,-73.37365 z m 114.95948,111.35209 c -20.69999,20.72384 -53.79427,21.16483 -75.25174,1.70094 l -35.95485,35.92485 c 37.03931,34.99188 93.94465,38.62926 135.1075,8.18241 l 2.05193,-1.67246 z"
       fill="#000000"
       stroke-width="15"
       id="path1-4"
       style="fill:#ffffff" /><path
       style="fill:#f2f2f2;stroke:#858585;stroke-width:0"
       d="M 100.93558,323.54745 C 92.281929,313.14624 85.960118,301.66029 81.653443,288.5142 75.521889,269.79767 74.929341,248.50014 79.990634,228.74904 83.553117,214.84687 92.50851,198.17728 102.40346,187.02974 l 2.51061,-2.82842 17.67209,17.62117 17.67209,17.62118 -2.33818,2.88492 c -10.0116,12.3526 -13.72254,30.05968 -9.86654,47.07909 1.29792,5.72867 6.42526,16.37829 9.73493,20.2197 l 2.49477,2.89558 -17.56154,17.78729 c -9.65884,9.78302 -17.67591,17.76853 -17.81571,17.7456 -0.1398,-0.0229 -1.92648,-2.05172 -3.9704,-4.5084 z"
       id="path3" /><path
       style="fill:#f2f2f2;stroke:#858585;stroke-width:0"
       d="m 320.88909,360.58351 c -20.77155,-1.93537 -41.77534,-10.70971 -57.86605,-24.17355 l -4.44128,-3.71622 17.70856,-17.78084 17.70856,-17.78083 4.32141,3.18286 c 28.78612,21.20192 70.21046,9.38149 83.63998,-23.86666 2.99126,-7.4056 3.9404,-13.53108 3.55617,-22.95049 -0.4955,-12.14716 -3.187,-20.03626 -10.21951,-29.95451 l -3.18976,-4.49866 17.55418,-17.56472 17.55419,-17.56473 2.51386,2.89576 c 8.37085,9.64255 17.00041,24.95403 20.84666,36.98838 11.72873,36.69745 2.47404,76.61855 -24.20603,104.41539 -13.4522,14.01528 -28.72986,23.36498 -46.67767,28.56606 -11.81827,3.4248 -26.94717,4.90744 -38.80327,3.80276 z"
       id="path4" /></g></svg>
