<?xml version="1.0" encoding="UTF-8" standalone="no"?>
<!-- Created with Inkscape (http://www.inkscape.org/) -->

<svg
   width="512"
   height="512"
   viewBox="0 0 512 512"
   version="1.1"
   id="svg1"
   xml:space="preserve"
   xmlns="http://www.w3.org/2000/svg"
   xmlns:svg="http://www.w3.org/2000/svg"><defs
     id="defs1" /><g
     id="layer1"><circle
       style="fill:#2e3548;fill-opacity:1;stroke:#858585;stroke-width:8;stroke-dasharray:none;stroke-opacity:1"
       id="path1"
       cx="256.00003"
       cy="256.00006"
       r="241.31339" /><g
       id="g3"
       transform="matrix(1.9744606,0,0,1.9744606,-262.97196,-249.51878)"><path
         style="fill:#00e963;fill-opacity:1;stroke:#9ec8b9;stroke-width:2.556;stroke-opacity:0"
         d="m 270.93641,256.02527 v -56.07975 l 25.69883,0.5634 c 14.13435,0.30986 32.53758,0.56339 40.89606,0.56339 h 15.19724 v 54.95408 54.95408 h -20.31007 c -11.17054,0 -29.57376,0.25303 -40.89606,0.56228 l -20.586,0.56227 z"
         id="path2" /><path
         style="fill:#fefefe;fill-opacity:1;stroke:#9ec8b9;stroke-width:2.556;stroke-opacity:0"
         d="m 172.95626,255.98796 v -55.93003 l 12.99302,0.61041 c 7.14616,0.33572 13.15307,0.75596 13.34869,0.93386 0.19562,0.17789 0.53469,9.33306 0.75348,20.34481 l 0.3978,20.02136 h 13.94355 13.94355 V 221.09434 200.2203 h 13.63202 13.63202 v 55.80609 55.80608 H 241.96837 228.33635 V 290.95844 270.08441 H 214.3928 200.44925 l -0.3978,20.02136 c -0.21879,11.01175 -0.55786,20.16184 -0.75348,20.33355 -0.19562,0.1717 -6.20253,0.57464 -13.34869,0.89543 l -12.99302,0.58324 z"
         id="path3" /></g></g></svg>
