<?xml version="1.0" encoding="UTF-8" standalone="no"?>
<!-- Created with Inkscape (http://www.inkscape.org/) -->

<svg
   width="512"
   height="512"
   viewBox="0 0 512 512"
   version="1.1"
   id="svg1"
   xml:space="preserve"
   inkscape:version="1.4.2 (f4327f4, 2025-05-13)"
   sodipodi:docname="heroku.svg"
   xmlns:inkscape="http://www.inkscape.org/namespaces/inkscape"
   xmlns:sodipodi="http://sodipodi.sourceforge.net/DTD/sodipodi-0.dtd"
   xmlns="http://www.w3.org/2000/svg"
   xmlns:svg="http://www.w3.org/2000/svg"><sodipodi:namedview
     id="namedview1"
     pagecolor="#ffffff"
     bordercolor="#999999"
     borderopacity="1"
     inkscape:showpageshadow="2"
     inkscape:pageopacity="0"
     inkscape:pagecheckerboard="0"
     inkscape:deskcolor="#d1d1d1"
     inkscape:document-units="px"
     showgrid="false"
     inkscape:zoom="1"
     inkscape:cx="161"
     inkscape:cy="323.5"
     inkscape:window-width="1920"
     inkscape:window-height="1001"
     inkscape:window-x="-9"
     inkscape:window-y="-9"
     inkscape:window-maximized="1"
     inkscape:current-layer="layer1"><inkscape:grid
       id="grid1"
       units="mm"
       originx="0"
       originy="0"
       spacingx="1"
       spacingy="1"
       empcolor="#0099e5"
       empopacity="0.30196078"
       color="#0099e5"
       opacity="0.14901961"
       empspacing="5"
       enabled="true"
       visible="false" /></sodipodi:namedview><defs
     id="defs1"><inkscape:path-effect
       effect="fillet_chamfer"
       id="path-effect1"
       is_visible="true"
       lpeversion="1"
       nodesatellites_param="F,0,0,1,0,2.2572315,0,1 @ F,0,0,1,0,2.608162,0,1 @ F,0,0,1,0,2.5997618,0,1 @ F,0,0,1,0,3.0078049,0,1 @ F,0,0,1,0,2.2522004,0,1 @ F,0,0,1,0,2.8010871,0,1"
       radius="0"
       unit="px"
       method="auto"
       mode="F"
       chamfer_steps="1"
       flexible="false"
       use_knot_distance="true"
       apply_no_radius="true"
       apply_with_radius="true"
       only_selected="false"
       hide_knots="false" /></defs><g
     inkscape:label="Layer 1"
     inkscape:groupmode="layer"
     id="layer1"><circle
       style="fill:#430098;fill-opacity:1;stroke:#858585;stroke-width:8;stroke-dasharray:none;stroke-opacity:1"
       id="path1"
       inkscape:label="background"
       cx="256.00003"
       cy="256.00006"
       r="241.31339" /><path
       d="m 356.8001,116.00006 c 13.77686,0 24.97407,11.05602 25.19664,24.78323 l 0.004,0.41679 v 229.60021 c 0,13.77685 -11.05947,24.97409 -24.78333,25.19665 l -0.41669,0.003 H 155.1999 c -13.77685,0 -24.97407,-11.05946 -25.19664,-24.78333 l -0.004,-0.41627 V 141.20008 c 0,-13.78032 11.05946,-24.97415 24.78334,-25.19665 l 0.41667,-0.003 z m 0,14.00001 H 155.1999 c -6.07753,0 -11.04266,4.87017 -11.19634,10.91145 l -0.004,0.28856 v 229.60021 c 0,6.07753 4.87017,11.04267 10.91146,11.19635 l 0.28855,0.004 h 201.6004 c 6.08099,0 11.04278,-4.87017 11.19635,-10.91145 l 0.004,-0.28856 V 141.20008 c 0,-6.17401 -5.0225,-11.20001 -11.20001,-11.20001 z m -163.80015,168.00016 31.50002,28.00002 -31.50002,28.00003 z m 28.00002,-140.00014 v 79.48858 c 13.97901,-4.55001 33.51953,-9.48851 52.50005,-9.48851 17.30751,0 27.66752,6.80401 33.30953,12.51251 11.91961,12.05822 12.20346,27.38555 12.18757,29.42967 l -7e-4,0.0579 0.004,84.00008 h -27.99998 v -83.61505 c -0.1365,-6.53452 -3.2865,-14.38503 -17.50001,-14.38503 -28.18434,0 -59.76473,14.03358 -60.70257,14.45349 l -0.019,0.009 -19.77895,8.95965 V 158.00009 Z m 98.00009,0 c -1.89,15.90401 -8.337,31.15003 -21.00001,45.50004 v 0 h -28.00004 c 11.00402,-14.43751 17.91303,-29.63102 21.00003,-45.50004 v 0 z"
       fill="#430098"
       id="path1-8"
       style="fill:#ffffff;fill-opacity:1;stroke-width:0.984378" /></g></svg>
