<?xml version="1.0" encoding="UTF-8" standalone="no"?>
<!-- Created with Inkscape (http://www.inkscape.org/) -->

<svg
   width="512"
   height="512"
   viewBox="0 0 512 512"
   version="1.1"
   id="svg1"
   xml:space="preserve"
   inkscape:version="1.4.2 (f4327f4, 2025-05-13)"
   sodipodi:docname="homebrew.svg"
   xmlns:inkscape="http://www.inkscape.org/namespaces/inkscape"
   xmlns:sodipodi="http://sodipodi.sourceforge.net/DTD/sodipodi-0.dtd"
   xmlns="http://www.w3.org/2000/svg"
   xmlns:svg="http://www.w3.org/2000/svg"><sodipodi:namedview
     id="namedview1"
     pagecolor="#ffffff"
     bordercolor="#999999"
     borderopacity="1"
     inkscape:showpageshadow="2"
     inkscape:pageopacity="0"
     inkscape:pagecheckerboard="0"
     inkscape:deskcolor="#d1d1d1"
     inkscape:document-units="px"
     showgrid="false"
     inkscape:zoom="1"
     inkscape:cx="161"
     inkscape:cy="323.5"
     inkscape:window-width="1920"
     inkscape:window-height="1001"
     inkscape:window-x="-9"
     inkscape:window-y="-9"
     inkscape:window-maximized="1"
     inkscape:current-layer="layer1"><inkscape:grid
       id="grid1"
       units="mm"
       originx="0"
       originy="0"
       spacingx="1"
       spacingy="1"
       empcolor="#0099e5"
       empopacity="0.30196078"
       color="#0099e5"
       opacity="0.14901961"
       empspacing="5"
       enabled="true"
       visible="false" /></sodipodi:namedview><defs
     id="defs1"><inkscape:path-effect
       effect="fillet_chamfer"
       id="path-effect1"
       is_visible="true"
       lpeversion="1"
       nodesatellites_param="F,0,0,1,0,2.2572315,0,1 @ F,0,0,1,0,2.608162,0,1 @ F,0,0,1,0,2.5997618,0,1 @ F,0,0,1,0,3.0078049,0,1 @ F,0,0,1,0,2.2522004,0,1 @ F,0,0,1,0,2.8010871,0,1"
       radius="0"
       unit="px"
       method="auto"
       mode="F"
       chamfer_steps="1"
       flexible="false"
       use_knot_distance="true"
       apply_no_radius="true"
       apply_with_radius="true"
       only_selected="false"
       hide_knots="false" /></defs><g
     inkscape:label="Layer 1"
     inkscape:groupmode="layer"
     id="layer1"><circle
       style="fill:#2e3548;fill-opacity:1;stroke:#858585;stroke-width:8;stroke-dasharray:none;stroke-opacity:1"
       id="path1"
       inkscape:label="background"
       cx="256.00003"
       cy="256.00006"
       r="241.31339" /><g
       id="g1"
       transform="matrix(2.624987,0,0,2.624987,88.000832,87.999042)"><path
         d="m 39.676,32.972 c -4.6,0 -8.45,3.142 -9.603,7.39 -4.063,0.571 -7.218,4.031 -7.218,8.246 0,4.1 2.954,7.523 6.84,8.293 a 1.144,1.144 0 0 0 0.018,0.002 46.59,46.59 0 0 1 4.273,0.993 A 1.144,1.144 0 0 0 34,57.9 c 5.603,1.511 16.502,3.582 28.568,3.279 0.77,1.573 1.95,2.907 3.441,3.809 l -0.014,-0.01 c 0.523,0.325 0.946,1.19 0.946,1.696 a 5.444,5.444 0 0 0 5.425,5.427 c 1.417,0 2.756,-0.427 3.77,-1.285 1.015,-0.858 1.66,-2.173 1.66,-3.664 l -0.003,-0.808 a 1.144,1.144 0 0 0 -0.004,-0.092 8.749,8.749 0 0 1 1.004,-4.75 V 61.5 c 0.434,-0.804 0.707,-1.697 0.884,-2.621 1.963,-0.514 3.917,-1.088 5.83,-1.809 a 1.144,1.144 0 0 0 0.005,-0.002 9.541,9.541 0 0 1 2.08,-0.54 l 0.004,-10e-4 a 8.39,8.39 0 0 0 7.23,-8.3 c 0,-4.612 -3.765,-8.378 -8.378,-8.378 -1.33,0 -2.567,0.355 -3.683,0.907 -1.606,-3.64 -5.225,-6.192 -9.447,-6.192 -4.792,0 -8.802,3.298 -9.973,7.73 -1.763,-2.057 -4.318,-3.42 -7.232,-3.42 -2.579,0 -4.847,1.098 -6.577,2.76 -0.66,-4.875 -4.811,-8.663 -9.862,-8.663 z m 0,2.288 a 7.692,7.692 0 0 1 7.267,10.265 1.144,1.144 0 0 0 0.894,1.506 l 0.028,0.005 A 1.144,1.144 0 0 0 49.1,46.279 l 10e-4,0.003 0.002,-0.005 a 1.144,1.144 0 0 0 0.037,-0.023 7.321,7.321 0 0 1 6.977,-5.095 7.319,7.319 0 0 1 6.958,5.042 1.144,1.144 0 0 0 2.224,-0.476 8.046,8.046 0 0 1 8.023,-8.876 8.06,8.06 0 0 1 7.688,5.629 1.144,1.144 0 0 0 1.38,0.762 l 0.801,-0.21 a 1.144,1.144 0 0 0 0.274,-0.111 6.044,6.044 0 0 1 2.986,-0.784 6.073,6.073 0 0 1 6.09,6.09 6.081,6.081 0 0 1 -5.255,6.034 1.144,1.144 0 0 0 -0.005,0 11.812,11.812 0 0 0 -2.585,0.672 56.773,56.773 0 0 1 -6.272,1.944 1.144,1.144 0 0 0 -0.862,0.995 6.805,6.805 0 0 1 -0.78,2.548 1.144,1.144 0 0 0 -10e-4,0.004 11.039,11.039 0 0 0 -1.27,5.996 l -0.002,-0.094 0.004,0.826 c 0,0.875 -0.313,1.465 -0.85,1.918 -0.535,0.454 -1.34,0.746 -2.293,0.746 a 3.123,3.123 0 0 1 -3.14,-3.14 4.281,4.281 0 0 0 -2.024,-3.639 1.144,1.144 0 0 0 -0.01,-0.01 6.852,6.852 0 0 1 -2.839,-3.394 1.144,1.144 0 0 0 -1.105,-0.732 C 51.198,59.305 40.13,57.179 34.614,55.692 L 34.6,55.688 A 48.032,48.032 0 0 0 30.128,54.65 l 0.02,0.003 c -2.84,-0.563 -4.999,-3.046 -4.999,-6.049 a 6.071,6.071 0 0 1 5.873,-6.08 1.144,1.144 0 0 0 1.085,-0.938 7.695,7.695 0 0 1 7.578,-6.331 z M 42.134,0.018 a 1.144,1.144 0 0 0 -0.9,0.811 c -1.682,5.888 0.956,11.472 4.474,15.656 a 32.248,32.248 0 0 0 2.54,2.679 10.852,10.852 0 0 0 -3.55,0.1 c -6.317,1.244 -11.696,5.254 -14.618,13.505 -1.198,3.384 -1.251,6.903 -0.865,10.1 a 6.127,6.127 0 0 1 1.8,-0.339 1.144,1.144 0 0 0 0.437,-0.172 c -0.32,-2.887 -0.225,-5.978 0.784,-8.827 2.713,-7.662 7.224,-10.906 12.902,-12.024 1.956,-0.384 3.544,-0.057 5.28,0.508 0.868,0.284 1.763,0.633 2.724,0.966 l 0.178,0.055 c 0.91,0.31 1.875,0.604 2.934,0.807 a 1.144,1.144 0 0 0 1.344,-1.311 12.959,12.959 0 0 1 -0.003,-4.198 c 0.047,-0.28 0.088,-0.563 0.148,-0.837 0.35,-1.56 0.947,-2.992 1.65,-4.268 a 19.764,19.764 0 0 1 3.535,-4.598 c 0.376,0.285 0.753,0.54 1.128,0.96 0.183,0.205 0.172,0.215 0.312,0.388 -1.77,1.643 -5.705,6.102 -5.078,13.084 a 1.144,1.144 0 0 0 1.181,1.039 c 2.503,-0.09 4.174,-0.92 5.634,-1.593 1.46,-0.673 2.712,-1.216 4.968,-1.146 4.667,0.147 8.737,3.814 10.339,6.051 1.73,2.634 3.858,5.908 3.513,14.883 v 0.038 a 6.05,6.05 0 0 1 1.524,-0.197 c 0.259,0 0.513,0.02 0.764,0.054 0.316,-9.267 -2.162,-13.403 -3.908,-16.06 a 1.144,1.144 0 0 0 -0.023,-0.038 c -1.945,-2.722 -6.366,-6.837 -12.137,-7.017 -2.681,-0.083 -4.49,0.66 -5.996,1.354 -1.161,0.535 -2.246,0.944 -3.571,1.175 0.009,-6.858 5.037,-10.568 5.037,-10.568 a 1.144,1.144 0 0 0 0.261,-1.584 c 0,0 -0.461,-0.654 -1.112,-1.385 -0.65,-0.73 -1.438,-1.575 -2.507,-2.021 a 1.144,1.144 0 0 0 -1.201,0.2 22.99,22.99 0 0 0 -4.665,5.877 c -0.256,0.464 -0.48,0.971 -0.705,1.48 -0.493,-1.63 -1.16,-3.144 -2.035,-4.54 C 52.236,5.215 48.334,2.323 42.761,0.083 A 1.144,1.144 0 0 0 42.134,0.018 Z m 1.036,2.775 c 4.533,2.018 7.624,4.428 9.541,7.486 1.4,2.23 2.21,4.867 2.548,7.989 0.014,0.151 0.024,0.311 0.038,0.466 v 10e-4 c 0.085,0.902 0.137,1.834 0.148,2.818 -0.33,-0.175 -0.724,-0.428 -1.097,-0.655 -0.243,-0.148 -0.457,-0.254 -0.712,-0.423 -1.952,-1.284 -4.252,-3.17 -6.178,-5.46 C 44.514,11.511 42.468,7.231 43.17,2.792 Z m 44.049,51.484 a 11.797,11.797 0 0 0 -2.527,0.66 52.968,52.968 0 0 1 -1.928,0.681 c -0.061,0.115 -0.088,0.172 -0.153,0.298 -0.033,0.064 -0.148,0.236 -0.191,0.313 h 2.847 v 3.36 a 3.07,3.07 0 0 0 3.055,3.052 h 7.085 a 7.452,7.452 0 0 1 7.45,7.45 v 30.956 a 7.456,7.456 0 0 1 -2.192,5.277 7.455,7.455 0 0 1 -3.822,2.034 7.448,7.448 0 0 1 -1.464,0.14 1.144,1.144 0 0 0 -0.005,0 c -2.39,0.005 -4.898,0 -6.988,-0.028 a 3.055,3.055 0 0 0 -3.116,3.05 c 0,2.5 0,6.735 -0.01,8.553 a 1.144,1.144 0 0 0 0,0.005 0.76,0.76 0 0 1 -0.265,0.571 c -1.157,0.863 -4.513,2.628 -10.991,3.83 a 64.93,64.93 0 0 1 -4.268,0.64 c -3.104,0.367 -6.737,0.597 -10.957,0.597 -16.572,0 -24.463,-2.779 -26.608,-4.01 a 0.762,0.762 0 0 1 -0.35,-0.633 L 31.683,56.23 h 4.063 C 35.689,56.125 35.66,56.054 35.604,55.95 35.278,55.867 34.905,55.78 34.608,55.7 l -0.014,-0.003 a 48.032,48.032 0 0 0 -4.472,-1.038 l 0.018,0.004 a 6.212,6.212 0 0 1 -0.517,-0.128 1.144,1.144 0 0 0 -0.228,0.554 c 0,0 0.123,57.552 0.14,65.988 a 3.057,3.057 0 0 0 1.412,2.569 1.144,1.144 0 0 0 0.042,0.023 c 2.862,1.657 10.915,4.332 27.789,4.332 17.268,0 25.067,-3.613 27.63,-5.55 a 1.144,1.144 0 0 0 0.037,-0.032 3.047,3.047 0 0 0 1.101,-2.342 c 0.01,-1.837 0.01,-6.06 0.01,-8.558 a 0.764,0.764 0 0 1 0.228,-0.546 1.144,1.144 0 0 0 0,-0.001 0.764,0.764 0 0 1 0.553,-0.218 1.144,1.144 0 0 0 0.01,0 c 2.11,0.028 4.628,0.032 7.025,0.028 a 9.739,9.739 0 0 0 9.772,-9.737 l 10e-4,-30.955 a 9.74,9.74 0 0 0 -9.739,-9.739 h -7.084 a 0.748,0.748 0 0 1 -0.765,-0.764 v -4.503 a 1.144,1.144 0 0 0 -0.336,-0.81 z m 1.58,13.728 a 3.53,3.53 0 0 0 -1.351,0.269 3.53,3.53 0 0 0 -1.147,0.764 1.144,1.144 0 0 0 0,0.001 3.53,3.53 0 0 0 -0.764,1.145 3.538,3.538 0 0 0 -0.269,1.352 v 27.78 a 3.53,3.53 0 0 0 0.27,1.352 3.53,3.53 0 0 0 0.763,1.146 3.53,3.53 0 0 0 1.147,0.764 3.538,3.538 0 0 0 1.351,0.27 h 6.082 a 3.53,3.53 0 0 0 1.352,-0.27 3.53,3.53 0 0 0 1.145,-0.764 3.53,3.53 0 0 0 0.764,-1.146 3.538,3.538 0 0 0 0.27,-1.351 v -27.78 a 3.53,3.53 0 0 0 -0.27,-1.352 3.53,3.53 0 0 0 -0.763,-1.145 1.144,1.144 0 0 0 -0.001,0 3.53,3.53 0 0 0 -1.147,-0.765 3.538,3.538 0 0 0 -1.35,-0.27 z m 0,2.288 h 6.082 a 1.244,1.244 0 0 1 1.243,1.242 v 27.782 a 1.243,1.243 0 0 1 -1.243,1.243 H 88.8 a 1.243,1.243 0 0 1 -0.879,-0.363 H 87.92 a 1.241,1.241 0 0 1 -0.363,-0.88 v -27.78 a 1.244,1.244 0 0 1 0.767,-1.15 c 0.15,-0.06 0.31,-0.093 0.476,-0.093 z"
         id="path1-0" /><path
         fill="#d1d3d4"
         d="m 43.171,2.793 c -0.701,4.438 1.344,8.719 4.289,12.222 2.567,3.053 5.799,5.387 7.988,6.538 -0.052,-4.604 -0.87,-8.3 -2.734,-11.272 -1.92,-3.058 -5.01,-5.47 -9.543,-7.486 z m 19.76,5.838 a 19.783,19.783 0 0 0 -3.535,4.598 c -1.408,2.552 -2.392,5.73 -1.797,9.303 a 1.144,1.144 0 0 1 -1.343,1.311 c -2.253,-0.431 -4.1,-1.262 -5.836,-1.828 -1.735,-0.567 -3.323,-0.892 -5.28,-0.507 -5.68,1.117 -10.19,4.36 -12.902,12.023 -0.449,1.27 -0.708,2.59 -0.84,3.916 1.78,-2.693 4.817,-4.474 8.28,-4.474 5.051,0 9.2,3.79 9.863,8.663 1.728,-1.66 3.998,-2.76 6.577,-2.76 2.913,0 5.467,1.363 7.231,3.42 1.171,-4.431 5.18,-7.729 9.973,-7.729 4.222,0 7.84,2.552 9.448,6.19 a 8.866,8.866 0 0 1 2.172,-0.739 c -0.076,-7.241 -1.956,-10.21 -3.527,-12.602 -1.603,-2.237 -5.672,-5.905 -10.339,-6.053 -2.256,-0.069 -3.51,0.475 -4.968,1.147 -1.46,0.673 -3.131,1.504 -5.634,1.593 a 1.144,1.144 0 0 1 -1.18,-1.04 C 58.664,16.081 62.601,11.623 64.37,9.979 64.23,9.807 64.242,9.797 64.06,9.592 63.684,9.172 63.307,8.917 62.931,8.631 Z"
         id="path2" /><path
         fill="#fbb040"
         d="m 36.042,58.416 v 55.313 a 1.91,1.91 0 0 0 0.955,1.656 c 2.417,1.151 9.427,3.9 21.716,3.9 12.372,0 19.173,-3.34 21.451,-4.718 a 1.903,1.903 0 0 0 0.873,-1.599 c 0.005,-7.316 0.005,-48.47 0.005,-54.473 -0.456,0.128 -0.91,0.267 -1.369,0.386 a 10.814,10.814 0 0 1 -0.345,1.356 c -0.143,0.44 -0.32,0.863 -0.536,1.265 l -0.003,0.004 a 8.758,8.758 0 0 0 -1.002,4.75 1.144,1.144 0 0 1 0.004,0.093 l 0.002,0.806 a 4.824,4.824 0 0 1 -0.45,2.07 4.693,4.693 0 0 1 -0.522,0.87 4.577,4.577 0 0 1 -0.688,0.724 5.067,5.067 0 0 1 -0.817,0.563 5.498,5.498 0 0 1 -0.918,0.402 6.043,6.043 0 0 1 -0.99,0.24 c -0.34,0.054 -0.69,0.081 -1.044,0.081 a 5.387,5.387 0 0 1 -3.027,-0.93 5.498,5.498 0 0 1 -1.972,-2.39 5.375,5.375 0 0 1 -0.427,-2.108 c 0,-0.126 -0.028,-0.275 -0.074,-0.431 a 2.623,2.623 0 0 0 -0.204,-0.483 2.613,2.613 0 0 0 -0.3,-0.45 1.585,1.585 0 0 0 -0.368,-0.33 l 0.014,0.008 a 8.686,8.686 0 0 1 -1.058,-0.754 8.942,8.942 0 0 1 -0.933,-0.899 9.265,9.265 0 0 1 -0.798,-1.023 9.59,9.59 0 0 1 -0.653,-1.132 c -1.508,0.038 -2.998,0.038 -4.461,0.01 a 104.01,104.01 0 0 1 -4.304,-0.18 109.19,109.19 0 0 1 -4.099,-0.334 111.58,111.58 0 0 1 -7.384,-0.991 104.06,104.06 0 0 1 -3.19,-0.59 90.492,90.492 0 0 1 -2.788,-0.604 l -0.296,-0.075 z m 6.615,3.51 a 2.63,2.63 0 0 1 1.007,0.202 2.63,2.63 0 0 1 0.853,0.57 2.63,2.63 0 0 1 0.57,0.852 2.63,2.63 0 0 1 0.202,1.007 v 45.748 a 2.63,2.63 0 0 1 -0.033,0.412 2.63,2.63 0 0 1 -0.096,0.402 2.63,2.63 0 0 1 -0.156,0.382 2.63,2.63 0 0 1 -0.218,0.352 2.63,2.63 0 0 1 -0.267,0.314 2.63,2.63 0 0 1 -0.314,0.268 2.63,2.63 0 0 1 -0.353,0.217 2.63,2.63 0 0 1 -0.382,0.156 2.63,2.63 0 0 1 -0.402,0.098 2.63,2.63 0 0 1 -0.41,0.032 2.63,2.63 0 0 1 -1.01,-0.2 2.63,2.63 0 0 1 -0.852,-0.57 2.63,2.63 0 0 1 -0.57,-0.854 2.63,2.63 0 0 1 -0.2,-1.007 V 64.56 a 2.63,2.63 0 0 1 0.2,-1.008 2.63,2.63 0 0 1 0.57,-0.853 2.63,2.63 0 0 1 0.854,-0.57 2.63,2.63 0 0 1 1.007,-0.2 z"
         id="path3" /><path
         fill="#ffdb96"
         d="m 42.66,61.924 a 2.63,2.63 0 0 0 -2.632,2.63 v 45.749 a 2.63,2.63 0 0 0 2.632,2.632 2.63,2.63 0 0 0 2.632,-2.632 V 64.555 A 2.63,2.63 0 0 0 42.66,61.924 Z"
         id="path4" /><path
         fill="#ffffff"
         d="m 39.676,35.259 a 7.695,7.695 0 0 0 -7.578,6.331 1.144,1.144 0 0 1 -1.084,0.939 6.071,6.071 0 0 0 -5.872,6.08 c 0,3.001 2.157,5.485 4.998,6.049 l -0.02,-0.004 a 47.942,47.942 0 0 1 4.473,1.038 l 0.014,0.005 c 5.517,1.485 16.585,3.612 28.638,3.205 a 1.144,1.144 0 0 1 1.106,0.733 6.852,6.852 0 0 0 2.84,3.394 1.144,1.144 0 0 1 0.01,0.01 4.281,4.281 0 0 1 2.025,3.638 3.123,3.123 0 0 0 3.14,3.142 c 0.952,0 1.757,-0.294 2.293,-0.747 0.536,-0.454 0.85,-1.043 0.85,-1.917 L 75.505,66.35 a 11.038,11.038 0 0 1 1.27,-5.924 1.144,1.144 0 0 1 0.003,-0.004 6.805,6.805 0 0 0 0.78,-2.548 1.144,1.144 0 0 1 0.861,-0.994 56.572,56.572 0 0 0 6.272,-1.945 11.811,11.811 0 0 1 2.585,-0.67 1.144,1.144 0 0 1 0.005,0 6.081,6.081 0 0 0 5.255,-6.036 6.073,6.073 0 0 0 -6.09,-6.09 c -1.088,0 -2.1,0.285 -2.986,0.784 a 1.144,1.144 0 0 1 -0.274,0.111 l -0.801,0.21 a 1.144,1.144 0 0 1 -1.381,-0.762 8.06,8.06 0 0 0 -7.687,-5.629 8.046,8.046 0 0 0 -8.022,8.876 1.144,1.144 0 0 1 -2.225,0.476 7.319,7.319 0 0 0 -6.957,-5.042 7.32,7.32 0 0 0 -6.977,5.094 1.144,1.144 0 0 1 -0.037,0.023 v 0.005 l -0.003,-0.004 a 1.144,1.144 0 0 1 -1.235,0.758 L 47.833,47.035 A 1.144,1.144 0 0 1 46.939,45.528 7.692,7.692 0 0 0 39.672,35.262 Z m 45.592,21.897 a 44.801,44.801 0 0 1 -2.658,0.896 c -0.519,0.16 -1.043,0.296 -1.565,0.441 0,6 0,47.153 -0.005,54.473 a 1.9,1.9 0 0 1 -0.873,1.6 c -0.284,0.172 -0.64,0.374 -1.067,0.597 -0.428,0.223 -0.93,0.467 -1.504,0.72 a 31.073,31.073 0 0 1 -1.954,0.78 36.694,36.694 0 0 1 -2.414,0.777 43.998,43.998 0 0 1 -4.512,1.025 50.839,50.839 0 0 1 -3.62,0.5 c -0.645,0.067 -1.312,0.124 -2,0.171 a 62.603,62.603 0 0 1 -4.379,0.146 75.427,75.427 0 0 1 -4.364,-0.12 68.541,68.541 0 0 1 -1.997,-0.142 66.093,66.093 0 0 1 -3.635,-0.41 59.098,59.098 0 0 1 -1.64,-0.26 52.592,52.592 0 0 1 -2.925,-0.586 45.103,45.103 0 0 1 -2.464,-0.642 38.114,38.114 0 0 1 -2.007,-0.645 31.027,31.027 0 0 1 -1.562,-0.599 A 23.899,23.899 0 0 1 37,115.38 1.91,1.91 0 0 1 36.043,113.724 V 58.414 A 73.719,73.719 0 0 1 33.997,57.901 1.144,1.144 0 0 1 33.983,57.897 45.855,45.855 0 0 0 31.86,57.35 c -0.059,-0.014 -0.118,-0.024 -0.177,-0.038 l 0.137,63.761 a 0.778,0.778 0 0 0 0.349,0.634 c 0.268,0.154 0.626,0.333 1.08,0.525 0.453,0.195 1.002,0.405 1.651,0.621 0.651,0.216 1.402,0.44 2.26,0.664 0.86,0.221 1.825,0.443 2.902,0.655 1.079,0.212 2.268,0.416 3.579,0.6 1.309,0.186 2.736,0.35 4.288,0.49 a 104.81,104.81 0 0 0 5.034,0.332 132.876,132.876 0 0 0 5.813,0.122 108.28,108.28 0 0 0 5.898,-0.16 89.703,89.703 0 0 0 2.632,-0.189 78.519,78.519 0 0 0 2.428,-0.247 69.756,69.756 0 0 0 2.232,-0.3 61.916,61.916 0 0 0 2.036,-0.343 53.574,53.574 0 0 0 2.285,-0.473 45.209,45.209 0 0 0 2.003,-0.51 37.695,37.695 0 0 0 1.732,-0.528 30.744,30.744 0 0 0 1.472,-0.53 c 0.448,-0.174 0.854,-0.345 1.22,-0.512 0.366,-0.166 0.695,-0.328 0.985,-0.48 a 12.676,12.676 0 0 0 0.756,-0.432 7.779,7.779 0 0 0 0.537,-0.364 0.78,0.78 0 0 0 0.196,-0.256 0.73,0.73 0 0 0 0.07,-0.313 1.144,1.144 0 0 1 0,-0.005 c 0.01,-1.818 0.01,-6.053 0.01,-8.553 a 3.049,3.049 0 0 1 1.93,-2.836 3.054,3.054 0 0 1 1.186,-0.216 c 2.089,0.028 4.599,0.032 6.986,0.028 a 1.144,1.144 0 0 1 0.01,0 7.448,7.448 0 0 0 1.464,-0.14 7.462,7.462 0 0 0 5.442,-4.452 7.45,7.45 0 0 0 0.571,-2.858 V 70.093 a 7.453,7.453 0 0 0 -1.686,-4.721 7.457,7.457 0 0 0 -5.765,-2.73 h -7.084 a 3.014,3.014 0 0 1 -1.701,-0.525 3.11,3.11 0 0 1 -0.826,-0.826 3.01,3.01 0 0 1 -0.526,-1.7 z m 3.53,10.846 h 6.082 a 3.53,3.53 0 0 1 1.35,0.269 3.532,3.532 0 0 1 1.147,0.764 3.53,3.53 0 0 1 0.765,1.147 3.538,3.538 0 0 1 0.269,1.35 v 27.782 a 3.53,3.53 0 0 1 -0.268,1.35 3.53,3.53 0 0 1 -0.764,1.146 1.144,1.144 0 0 0 -0.002,0 3.53,3.53 0 0 1 -1.144,0.764 3.538,3.538 0 0 1 -1.351,0.27 h -6.084 a 3.53,3.53 0 0 1 -1.351,-0.268 3.53,3.53 0 0 1 -1.145,-0.765 3.53,3.53 0 0 1 -0.765,-1.147 3.538,3.538 0 0 1 -0.268,-1.35 V 71.532 a 3.53,3.53 0 0 1 0.267,-1.351 3.53,3.53 0 0 1 0.764,-1.146 1.144,1.144 0 0 0 0.002,0 3.53,3.53 0 0 1 1.146,-0.765 3.538,3.538 0 0 1 1.35,-0.269 z"
         id="path5" /></g></g></svg>
