<?xml version="1.0" encoding="UTF-8" standalone="no"?>
<!-- Created with Inkscape (http://www.inkscape.org/) -->

<svg
   width="512"
   height="512"
   viewBox="0 0 512 512"
   version="1.1"
   id="svg1"
   xml:space="preserve"
   inkscape:version="1.4.2 (f4327f4, 2025-05-13)"
   sodipodi:docname="id.svg"
   xmlns:inkscape="http://www.inkscape.org/namespaces/inkscape"
   xmlns:sodipodi="http://sodipodi.sourceforge.net/DTD/sodipodi-0.dtd"
   xmlns="http://www.w3.org/2000/svg"
   xmlns:svg="http://www.w3.org/2000/svg"><sodipodi:namedview
     id="namedview1"
     pagecolor="#ffffff"
     bordercolor="#999999"
     borderopacity="1"
     inkscape:showpageshadow="2"
     inkscape:pageopacity="0"
     inkscape:pagecheckerboard="0"
     inkscape:deskcolor="#d1d1d1"
     inkscape:document-units="px"
     showgrid="false"
     inkscape:zoom="1"
     inkscape:cx="161"
     inkscape:cy="323.5"
     inkscape:window-width="1920"
     inkscape:window-height="1001"
     inkscape:window-x="-9"
     inkscape:window-y="-9"
     inkscape:window-maximized="1"
     inkscape:current-layer="g1"><inkscape:grid
       id="grid1"
       units="mm"
       originx="0"
       originy="0"
       spacingx="1"
       spacingy="1"
       empcolor="#0099e5"
       empopacity="0.30196078"
       color="#0099e5"
       opacity="0.14902"
       empspacing="5"
       enabled="true"
       visible="false" /></sodipodi:namedview><defs
     id="defs1"><inkscape:path-effect
       effect="fillet_chamfer"
       id="path-effect1"
       is_visible="true"
       lpeversion="1"
       nodesatellites_param="F,0,0,1,0,2.2572315,0,1 @ F,0,0,1,0,2.608162,0,1 @ F,0,0,1,0,2.5997618,0,1 @ F,0,0,1,0,3.0078049,0,1 @ F,0,0,1,0,2.2522004,0,1 @ F,0,0,1,0,2.8010871,0,1"
       radius="0"
       unit="px"
       method="auto"
       mode="F"
       chamfer_steps="1"
       flexible="false"
       use_knot_distance="true"
       apply_no_radius="true"
       apply_with_radius="true"
       only_selected="false"
       hide_knots="false" /></defs><g
     inkscape:label="Layer 1"
     inkscape:groupmode="layer"
     id="layer1"><circle
       style="fill:#49021f;fill-opacity:1;stroke:#858585;stroke-width:8;stroke-dasharray:none;stroke-opacity:1"
       id="path1"
       inkscape:label="background"
       cx="256.00003"
       cy="256.00006"
       r="241.31339" /><g
       id="g1"
       transform="matrix(1.6666667,0,0,1.6666667,55.999996,60.999996)"><g
         id="vlpa">
		<g
   id="vlpb">
			<path
   class="st1"
   d="m 87.2,61.2 v 103 c 0,1.1 -0.5,1.6 -1.4,1.6 H 66.2 c -0.9,0 -1.3,-0.5 -1.3,-1.6 v -103 c 0,-0.9 0.5,-1.3 1.4,-1.3 h 19.5 c 0.6,-0.1 1.2,0.3 1.3,1 0.1,0.1 0.1,0.2 0.1,0.3 z"
   id="path2" />
			<path
   class="st1"
   d="m 145,167 c -7.4,0.1 -14.8,-1.4 -21.5,-4.5 -6.3,-2.9 -11.5,-7.7 -15.1,-13.6 -3.7,-6.1 -5.5,-13.7 -5.5,-22.8 -0.1,-7.4 1.8,-14.7 5.5,-21.1 3.8,-6.5 9.3,-11.9 15.9,-15.5 7,-3.9 15.4,-5.8 25.3,-5.8 0.5,0 1.2,0 2.1,0.1 0.9,0.1 1.9,0.1 3.1,0.2 V 52.4 c 0,-0.7 0.3,-1.1 1,-1.1 h 20.3 c 0.5,-0.1 0.9,0.3 1,0.7 v 0.2 95.2 c 0,1.8 0.1,3.8 0.2,6 0.2,2.1 0.3,4.1 0.4,5.8 0,0.7 -0.3,1.3 -1,1.6 -5.2,2.2 -10.7,3.8 -16.3,4.8 -5,0.9 -10.2,1.4 -15.4,1.4 z m 9.8,-20 v -44 c -0.9,-0.2 -1.8,-0.4 -2.7,-0.5 -1.1,-0.1 -2.2,-0.2 -3.3,-0.2 -3.9,0 -7.8,0.8 -11.3,2.6 -3.4,1.7 -6.3,4.2 -8.5,7.4 -2.2,3.2 -3.3,7.5 -3.3,12.7 -0.1,3.5 0.5,7 1.7,10.3 1,2.7 2.5,5.1 4.5,7.1 1.9,1.8 4.2,3.2 6.8,4 2.7,0.9 5.5,1.3 8.3,1.3 1.5,0 2.9,-0.1 4.2,-0.2 1.3,0.1 2.5,-0.1 3.6,-0.5 z"
   id="path3" />
		</g>
	</g></g></g><style
     type="text/css"
     id="style1">
	.st0{fill:#49021F;}
	.st1{fill:#FF3366;}
</style></svg>
