<?xml version="1.0" encoding="UTF-8" standalone="no"?>
<!-- Created with Inkscape (http://www.inkscape.org/) -->

<svg
   width="512"
   height="512"
   viewBox="0 0 512 512"
   version="1.1"
   id="svg1"
   xml:space="preserve"
   inkscape:version="1.4.2 (f4327f4, 2025-05-13)"
   sodipodi:docname="jira.svg"
   xmlns:inkscape="http://www.inkscape.org/namespaces/inkscape"
   xmlns:sodipodi="http://sodipodi.sourceforge.net/DTD/sodipodi-0.dtd"
   xmlns="http://www.w3.org/2000/svg"
   xmlns:svg="http://www.w3.org/2000/svg"><sodipodi:namedview
     id="namedview1"
     pagecolor="#ffffff"
     bordercolor="#999999"
     borderopacity="1"
     inkscape:showpageshadow="2"
     inkscape:pageopacity="0"
     inkscape:pagecheckerboard="0"
     inkscape:deskcolor="#d1d1d1"
     inkscape:document-units="px"
     showgrid="false"
     inkscape:zoom="1"
     inkscape:cx="161"
     inkscape:cy="323.5"
     inkscape:window-width="1920"
     inkscape:window-height="1001"
     inkscape:window-x="-9"
     inkscape:window-y="-9"
     inkscape:window-maximized="1"
     inkscape:current-layer="layer1"><inkscape:grid
       id="grid1"
       units="mm"
       originx="0"
       originy="0"
       spacingx="1"
       spacingy="1"
       empcolor="#0099e5"
       empopacity="0.30196078"
       color="#0099e5"
       opacity="0.14901961"
       empspacing="5"
       enabled="true"
       visible="false" /></sodipodi:namedview><defs
     id="defs1"><inkscape:path-effect
       effect="fillet_chamfer"
       id="path-effect1"
       is_visible="true"
       lpeversion="1"
       nodesatellites_param="F,0,0,1,0,2.2572315,0,1 @ F,0,0,1,0,2.608162,0,1 @ F,0,0,1,0,2.5997618,0,1 @ F,0,0,1,0,3.0078049,0,1 @ F,0,0,1,0,2.2522004,0,1 @ F,0,0,1,0,2.8010871,0,1"
       radius="0"
       unit="px"
       method="auto"
       mode="F"
       chamfer_steps="1"
       flexible="false"
       use_knot_distance="true"
       apply_no_radius="true"
       apply_with_radius="true"
       only_selected="false"
       hide_knots="false" /><linearGradient
       id="jira-original-a"
       gradientUnits="userSpaceOnUse"
       x1="22.034"
       y1="9.773"
       x2="17.118"
       y2="14.842"
       gradientTransform="scale(4)"><stop
         offset=".176"
         stop-color="#0052cc"
         id="stop1" /><stop
         offset="1"
         stop-color="#2684ff"
         id="stop2" /></linearGradient><linearGradient
       id="jira-original-b"
       gradientUnits="userSpaceOnUse"
       x1="16.641"
       y1="15.564"
       x2="10.957"
       y2="21.094"
       gradientTransform="scale(4)"><stop
         offset=".176"
         stop-color="#0052cc"
         id="stop3" /><stop
         offset="1"
         stop-color="#2684ff"
         id="stop4" /></linearGradient></defs><g
     inkscape:label="Layer 1"
     inkscape:groupmode="layer"
     id="layer1"><circle
       style="fill:#2e3548;fill-opacity:1;stroke:#858585;stroke-width:8;stroke-dasharray:none;stroke-opacity:1"
       id="path1"
       inkscape:label="background"
       cx="256.00003"
       cy="256.00006"
       r="241.31339" /><g
       id="g1"
       transform="matrix(3.5,0,0,3.5,24,40)"><path
         d="M 108.023,16 H 61.805 c 0,11.52 9.324,20.848 20.847,20.848 h 8.5 v 8.226 c 0,11.52 9.328,20.848 20.848,20.848 V 19.977 A 3.98,3.98 0 0 0 108.023,16 Z m 0,0"
         fill="#2684ff"
         id="path4" /><path
         d="M 85.121,39.04 H 38.902 c 0,11.519 9.325,20.847 20.844,20.847 h 8.504 v 8.226 c 0,11.52 9.328,20.848 20.848,20.848 V 43.016 a 3.983,3.983 0 0 0 -3.977,-3.977 z m 0,0"
         fill="url(#jira-original-a)"
         id="path5"
         style="fill:url(#jira-original-a)" /><path
         d="M 62.219,62.078 H 16 c 0,11.524 9.324,20.848 20.848,20.848 h 8.5 v 8.23 c 0,11.52 9.328,20.844 20.847,20.844 V 66.059 a 3.984,3.984 0 0 0 -3.976,-3.98 z m 0,0"
         fill="url(#jira-original-b)"
         id="path6"
         style="fill:url(#jira-original-b)" /></g></g></svg>
