<?xml version="1.0" encoding="UTF-8" standalone="no"?>
<!-- Created with Inkscape (http://www.inkscape.org/) -->

<svg
   width="512"
   height="512"
   viewBox="0 0 512 512"
   version="1.1"
   id="svg1"
   xml:space="preserve"
   inkscape:version="1.4.2 (f4327f4, 2025-05-13)"
   sodipodi:docname="larvel.svg"
   xmlns:inkscape="http://www.inkscape.org/namespaces/inkscape"
   xmlns:sodipodi="http://sodipodi.sourceforge.net/DTD/sodipodi-0.dtd"
   xmlns="http://www.w3.org/2000/svg"
   xmlns:svg="http://www.w3.org/2000/svg"><sodipodi:namedview
     id="namedview1"
     pagecolor="#ffffff"
     bordercolor="#999999"
     borderopacity="1"
     inkscape:showpageshadow="2"
     inkscape:pageopacity="0"
     inkscape:pagecheckerboard="0"
     inkscape:deskcolor="#d1d1d1"
     inkscape:document-units="px"
     showgrid="false"
     inkscape:zoom="1"
     inkscape:cx="161"
     inkscape:cy="323.5"
     inkscape:window-width="1920"
     inkscape:window-height="1001"
     inkscape:window-x="-9"
     inkscape:window-y="-9"
     inkscape:window-maximized="1"
     inkscape:current-layer="layer1"><inkscape:grid
       id="grid1"
       units="mm"
       originx="0"
       originy="0"
       spacingx="1"
       spacingy="1"
       empcolor="#0099e5"
       empopacity="0.30196078"
       color="#0099e5"
       opacity="0.14901961"
       empspacing="5"
       enabled="true"
       visible="false" /></sodipodi:namedview><defs
     id="defs1"><inkscape:path-effect
       effect="fillet_chamfer"
       id="path-effect1"
       is_visible="true"
       lpeversion="1"
       nodesatellites_param="F,0,0,1,0,2.2572315,0,1 @ F,0,0,1,0,2.608162,0,1 @ F,0,0,1,0,2.5997618,0,1 @ F,0,0,1,0,3.0078049,0,1 @ F,0,0,1,0,2.2522004,0,1 @ F,0,0,1,0,2.8010871,0,1"
       radius="0"
       unit="px"
       method="auto"
       mode="F"
       chamfer_steps="1"
       flexible="false"
       use_knot_distance="true"
       apply_no_radius="true"
       apply_with_radius="true"
       only_selected="false"
       hide_knots="false" /></defs><g
     inkscape:label="Layer 1"
     inkscape:groupmode="layer"
     id="layer1"><circle
       style="fill:#2e3548;fill-opacity:1;stroke:#858585;stroke-width:8;stroke-dasharray:none;stroke-opacity:1"
       id="path1"
       inkscape:label="background"
       cx="256.00003"
       cy="256.00006"
       r="241.31339" /><path
       d="m 419.00956,164.012 a 5.3177442,5.3177442 0 0 1 0.18405,1.37381 v 72.12149 a 5.2585851,5.2585851 0 0 1 -2.64244,4.56182 l -60.53288,34.85128 v 69.07809 c 0,1.87994 -0.99914,3.61527 -2.6293,4.56182 l -126.35722,72.73938 c -0.28923,0.16433 -0.60474,0.2695 -0.92026,0.38124 -0.11832,0.0394 -0.23006,0.11175 -0.35495,0.14462 a 5.2914513,5.2914513 0 0 1 -2.69503,0 c -0.14461,-0.0394 -0.27607,-0.11832 -0.41411,-0.17091 -0.28922,-0.10517 -0.59159,-0.1972 -0.86767,-0.35495 L 95.448825,350.56031 a 5.2651584,5.2651584 0 0 1 -2.64244,-4.56182 V 129.634 c 0,-0.47327 0.0657,-0.9334 0.18405,-1.38038 0.0394,-0.15118 0.13147,-0.28922 0.18405,-0.4404 0.0986,-0.27608 0.19062,-0.55873 0.33524,-0.81509 0.0986,-0.1709 0.24321,-0.30894 0.36152,-0.4667 0.15119,-0.21034 0.28923,-0.42726 0.4667,-0.61131 0.15119,-0.15118 0.34838,-0.26292 0.51929,-0.39439 0.19062,-0.15776 0.36153,-0.32866 0.57844,-0.45355 h 0.007 L 158.61142,88.702487 a 5.2717316,5.2717316 0 0 1 5.25858,0 l 63.16876,36.369693 h 0.0131 c 0.21034,0.13146 0.38782,0.29579 0.57844,0.44698 0.1709,0.13146 0.36153,0.24978 0.51271,0.39439 0.18405,0.19062 0.31552,0.40754 0.47327,0.61788 0.11175,0.15776 0.26293,0.2958 0.35496,0.4667 0.15118,0.26293 0.23664,0.53901 0.34181,0.81509 0.0526,0.15118 0.14461,0.28922 0.18405,0.44697 a 5.3177442,5.3177442 0 0 1 0.18405,1.37381 v 135.13906 l 52.63843,-30.30917 v -69.08466 c 0,-0.46012 0.0657,-0.92682 0.18406,-1.36723 0.046,-0.15776 0.13146,-0.29579 0.18405,-0.44698 0.10517,-0.27608 0.19719,-0.55872 0.3418,-0.81508 0.0986,-0.1709 0.24321,-0.30894 0.35496,-0.4667 0.15776,-0.21034 0.28922,-0.42726 0.47327,-0.61131 0.15119,-0.15118 0.34181,-0.26293 0.51271,-0.39439 0.1972,-0.15776 0.3681,-0.32867 0.57845,-0.45356 h 0.007 l 63.17533,-36.36969 a 5.2651584,5.2651584 0 0 1 5.25858,0 l 63.16876,36.36969 c 0.22349,0.13147 0.39439,0.2958 0.59159,0.44698 0.16433,0.13147 0.35495,0.24979 0.50614,0.3944 0.18405,0.19062 0.31551,0.40754 0.47327,0.61788 0.11832,0.15776 0.26293,0.2958 0.35495,0.4667 0.15119,0.25636 0.23664,0.539 0.34181,0.81508 0.0592,0.15119 0.14461,0.28922 0.18405,0.44698 z m -10.34626,70.45189 v -59.97416 l -22.10578,12.72578 -30.53923,17.58339 v 59.97416 l 52.65158,-30.30917 z m -63.16876,108.49119 v -60.0136 l -30.03967,17.15613 -85.78067,48.95743 v 60.5789 z M 103.3367,138.73793 v 204.21715 l 115.80719,66.67229 v -60.56576 l -60.50002,-34.23996 -0.0197,-0.0131 -0.0263,-0.0131 c -0.20377,-0.11832 -0.37467,-0.28923 -0.56529,-0.43384 -0.16434,-0.13146 -0.35496,-0.23663 -0.49957,-0.38124 l -0.0131,-0.0197 c -0.1709,-0.16434 -0.28922,-0.36811 -0.43383,-0.55216 -0.13146,-0.17747 -0.28922,-0.32866 -0.39439,-0.51271 l -0.007,-0.0197 c -0.11832,-0.19719 -0.19062,-0.43383 -0.27607,-0.65732 -0.0854,-0.1972 -0.1972,-0.38125 -0.24979,-0.59159 v -0.007 c -0.0657,-0.24979 -0.0789,-0.51272 -0.10517,-0.76907 -0.0263,-0.1972 -0.0789,-0.3944 -0.0789,-0.59159 V 310.24668 169.0471 L 125.44247,151.45713 103.3367,138.7445 Z M 161.24687,99.337977 108.615,129.634 161.23372,159.93002 213.85901,129.62743 161.23372,99.337977 Z M 188.6178,288.4104 219.15046,270.83358 V 138.73793 l -22.10578,12.72577 -30.53923,17.5834 v 132.09565 z m 162.1419,-153.32062 -52.62529,30.29603 52.62529,30.29602 52.61872,-30.3026 z m -5.26516,69.70912 -30.53923,-17.58339 -22.10578,-12.72578 v 59.97416 l 30.53266,17.57683 22.11235,12.73234 z m -121.09207,135.15221 77.18946,-44.06694 38.58487,-22.02033 -52.58585,-30.2763 -60.54604,34.85785 -55.18228,31.76842 z"
       fill="#ff2d20"
       fill-rule="evenodd"
       id="path1-8"
       style="stroke-width:6.57323" /></g></svg>
