<?xml version="1.0" encoding="UTF-8" standalone="no"?>
<!-- Created with Inkscape (http://www.inkscape.org/) -->

<svg
   width="512"
   height="512"
   viewBox="0 0 512 512"
   version="1.1"
   id="svg1"
   xml:space="preserve"
   inkscape:version="1.4.2 (f4327f4, 2025-05-13)"
   sodipodi:docname="leetcode.svg"
   xmlns:inkscape="http://www.inkscape.org/namespaces/inkscape"
   xmlns:sodipodi="http://sodipodi.sourceforge.net/DTD/sodipodi-0.dtd"
   xmlns="http://www.w3.org/2000/svg"
   xmlns:svg="http://www.w3.org/2000/svg"><sodipodi:namedview
     id="namedview1"
     pagecolor="#ffffff"
     bordercolor="#999999"
     borderopacity="1"
     inkscape:showpageshadow="2"
     inkscape:pageopacity="0"
     inkscape:pagecheckerboard="0"
     inkscape:deskcolor="#d1d1d1"
     inkscape:document-units="px"
     showgrid="false"
     inkscape:zoom="1.4142136"
     inkscape:cx="70.710678"
     inkscape:cy="201.87899"
     inkscape:window-width="1920"
     inkscape:window-height="1001"
     inkscape:window-x="-9"
     inkscape:window-y="-9"
     inkscape:window-maximized="1"
     inkscape:current-layer="layer1"><inkscape:grid
       id="grid1"
       units="mm"
       originx="0"
       originy="0"
       spacingx="1"
       spacingy="1"
       empcolor="#0099e5"
       empopacity="0.30196078"
       color="#0099e5"
       opacity="0.14901961"
       empspacing="5"
       enabled="true"
       visible="false" /></sodipodi:namedview><defs
     id="defs1"><inkscape:path-effect
       effect="fillet_chamfer"
       id="path-effect1"
       is_visible="true"
       lpeversion="1"
       nodesatellites_param="F,0,0,1,0,2.2572315,0,1 @ F,0,0,1,0,2.608162,0,1 @ F,0,0,1,0,2.5997618,0,1 @ F,0,0,1,0,3.0078049,0,1 @ F,0,0,1,0,2.2522004,0,1 @ F,0,0,1,0,2.8010871,0,1"
       radius="0"
       unit="px"
       method="auto"
       mode="F"
       chamfer_steps="1"
       flexible="false"
       use_knot_distance="true"
       apply_no_radius="true"
       apply_with_radius="true"
       only_selected="false"
       hide_knots="false" /></defs><g
     inkscape:label="Layer 1"
     inkscape:groupmode="layer"
     id="layer1"><circle
       style="fill:#2e3548;fill-opacity:1;stroke:#858585;stroke-width:8;stroke-dasharray:none;stroke-opacity:1"
       id="path1"
       inkscape:label="background"
       cx="256.00003"
       cy="256.00006"
       r="241.31339" /><g
       id="g1"
       transform="matrix(14.000412,0,0,14.000412,88.573324,87.990117)"><path
         fill="#b3b1b0"
         d="m 22,14.355 c 0,-0.742 -0.564,-1.346 -1.26,-1.346 H 10.676 c -0.696,0 -1.26,0.604 -1.26,1.346 0,0.742 0.563,1.346 1.26,1.346 H 20.74 C 21.436,15.702 22,15.098 22,14.355 Z"
         id="path1-0" /><path
         fill="#e7a41f"
         d="m 3.482,18.187 4.313,4.361 C 8.768,23.527 10.113,24 11.598,24 c 1.485,0 2.83,-0.512 3.805,-1.494 l 2.588,-2.637 c 0.51,-0.514 0.492,-1.365 -0.039,-1.9 -0.531,-0.535 -1.375,-0.553 -1.884,-0.039 l -2.676,2.607 c -0.462,0.467 -1.102,0.662 -1.809,0.662 -0.707,0 -1.346,-0.195 -1.81,-0.662 L 5.475,16.174 c -0.463,-0.467 -0.696,-1.15 -0.696,-1.863 0,-0.713 0.233,-1.357 0.696,-1.824 L 9.76,8.107 c 0.463,-0.467 1.116,-0.645 1.822,-0.645 0.706,0 1.346,0.195 1.809,0.662 l 2.676,2.606 c 0.51,0.515 1.354,0.497 1.885,-0.038 0.531,-0.536 0.549,-1.387 0.039,-1.901 L 15.403,6.155 A 4.994,4.994 0 0 0 13.011,4.825 L 12.977,4.818 15.424,2.315 C 15.936,1.801 15.918,0.949 15.387,0.414 14.856,-0.121 14.011,-0.138 13.5,0.376 L 3.482,10.476 C 2.509,11.458 2,12.813 2,14.311 c 0,1.498 0.509,2.896 1.482,3.876 z"
         id="path2" /><path
         fill="#070706"
         d="M 8.115,22.814 C 7.9407127,22.716704 7.7811205,22.595158 7.641,22.453 6.314,21.12 4.981,19.793 3.657,18.456 1.668,16.448 1.355,13.519 2.871,11.136 3.1132313,10.77175 3.3945703,10.435082 3.71,10.132 l 9.623,-9.643 c 0.625,-0.626 1.498,-0.652 2.079,-0.067 0.56,0.563 0.527,1.455 -0.078,2.066 -0.769,0.776 -1.539,1.55 -2.309,2.325 C 12.984,4.935 12.885,5.013 12.8,5.1 11.937,5.976 11.05,6.829 10.199,7.718 10.088,7.834 9.937,7.904 9.827,8.023 8.404,9.446 6.878,11.045 5.475,12.487 4.34,13.654 4.7045791,15.385546 5.8695791,16.574546 7.1775791,17.910546 8.268,19.072 9.59,20.396 c 0.067,0.067 0.136,0.132 0.204,0.198 0.468,0.303 0.474,1.25 0.183,1.671 -0.321,0.465 -0.74,0.75 -1.333,0.728 C 8.445,22.987 8.281,22.907 8.115,22.814 Z"
         id="path3"
         sodipodi:nodetypes="ccccccccccccccccccc" /></g></g></svg>
