<?xml version="1.0" encoding="UTF-8" standalone="no"?>
<!-- Created with Inkscape (http://www.inkscape.org/) -->

<svg
   width="512"
   height="512"
   viewBox="0 0 512 512"
   version="1.1"
   id="svg1"
   xml:space="preserve"
   inkscape:version="1.4.2 (f4327f4, 2025-05-13)"
   sodipodi:docname="linux.svg"
   xmlns:inkscape="http://www.inkscape.org/namespaces/inkscape"
   xmlns:sodipodi="http://sodipodi.sourceforge.net/DTD/sodipodi-0.dtd"
   xmlns="http://www.w3.org/2000/svg"
   xmlns:svg="http://www.w3.org/2000/svg"><sodipodi:namedview
     id="namedview1"
     pagecolor="#ffffff"
     bordercolor="#999999"
     borderopacity="1"
     inkscape:showpageshadow="2"
     inkscape:pageopacity="0"
     inkscape:pagecheckerboard="0"
     inkscape:deskcolor="#d1d1d1"
     inkscape:document-units="px"
     showgrid="false"
     inkscape:zoom="1"
     inkscape:cx="161"
     inkscape:cy="323.5"
     inkscape:window-width="1920"
     inkscape:window-height="1001"
     inkscape:window-x="-9"
     inkscape:window-y="-9"
     inkscape:window-maximized="1"
     inkscape:current-layer="layer1"><inkscape:grid
       id="grid1"
       units="mm"
       originx="0"
       originy="0"
       spacingx="1"
       spacingy="1"
       empcolor="#0099e5"
       empopacity="0.30196078"
       color="#0099e5"
       opacity="0.14901961"
       empspacing="5"
       enabled="true"
       visible="false" /></sodipodi:namedview><defs
     id="defs1"><inkscape:path-effect
       effect="fillet_chamfer"
       id="path-effect1"
       is_visible="true"
       lpeversion="1"
       nodesatellites_param="F,0,0,1,0,2.2572315,0,1 @ F,0,0,1,0,2.608162,0,1 @ F,0,0,1,0,2.5997618,0,1 @ F,0,0,1,0,3.0078049,0,1 @ F,0,0,1,0,2.2522004,0,1 @ F,0,0,1,0,2.8010871,0,1"
       radius="0"
       unit="px"
       method="auto"
       mode="F"
       chamfer_steps="1"
       flexible="false"
       use_knot_distance="true"
       apply_no_radius="true"
       apply_with_radius="true"
       only_selected="false"
       hide_knots="false" /><filter
       style="color-interpolation-filters:sRGB;"
       inkscape:label="Drop Shadow"
       id="filter13"
       x="-0.046279232"
       y="-0.03965994"
       width="1.0925585"
       height="1.0793199"><feFlood
         result="flood"
         in="SourceGraphic"
         flood-opacity="1.000000"
         flood-color="rgb(204,104,254)"
         id="feFlood12" /><feGaussianBlur
         result="blur"
         in="SourceGraphic"
         stdDeviation="0.600000"
         id="feGaussianBlur12" /><feOffset
         result="offset"
         in="blur"
         dx="0.000000"
         dy="0.000000"
         id="feOffset12" /><feComposite
         result="comp1"
         operator="in"
         in="flood"
         in2="offset"
         id="feComposite12" /><feComposite
         result="comp2"
         operator="over"
         in="SourceGraphic"
         in2="comp1"
         id="feComposite13" /></filter></defs><g
     inkscape:label="Layer 1"
     inkscape:groupmode="layer"
     id="layer1"><circle
       style="fill:#2e3548;fill-opacity:1;stroke:#858585;stroke-width:8;stroke-dasharray:none;stroke-opacity:1"
       id="path1"
       inkscape:label="background"
       cx="256.00003"
       cy="256.00006"
       r="241.31339" /><g
       id="g1"
       transform="matrix(9.2539857,0,0,9.2539857,29.811629,14.754814)"
       style="filter:url(#filter13)"><polygon
         fill="#eceff1"
         points="17.4,38.3 21.5,40.6 27.7,40.6 33.5,36.2 36.1,29.3 30.1,22 28.4,17.9 20.1,18.2 20.2,20.5 18.6,23.5 16.1,28.4 15.6,32.5 "
         id="polygon1" /><path
         fill="#263238"
         d="M 34.3,23.9 C 32.7,21.6 31.4,20.2 30.7,17.3 30,14.4 30.9,15.2 30.3,12.7 30,11.4 29.5,10.5 29,9.8 28.4,9.1 27.7,8.7 27.3,8.6 c -0.9,-0.5 -3,-1.3 -5.6,0.1 -2.7,1.4 -2.4,4.4 -1.9,10.5 0,0.4 -0.1,0.9 -0.3,1.3 -0.4,0.9 -1.1,1.7 -1.7,2.4 -0.7,1 -1.4,2 -1.9,3.1 -1.2,2.3 -2.3,5.2 -2,6.3 0.5,-0.1 6.8,9.5 6.8,9.7 0.4,-0.1 2.1,-0.1 3.6,-0.1 2.1,-0.1 3.3,-0.2 5,0.2 0,-0.3 -0.1,-0.6 -0.1,-0.9 0,-0.6 0.1,-1.1 0.2,-1.8 0.1,-0.5 0.2,-1 0.3,-1.6 -1,0.9 -2.8,1.9 -4.5,2.2 -1.5,0.3 -4,-0.2 -5.2,-1.7 0.1,0 0.3,0 0.4,-0.1 0.3,-0.1 0.6,-0.2 0.7,-0.4 0.3,-0.5 0.1,-1 -0.1,-1.3 -0.2,-0.3 -1.7,-1.4 -2.4,-2 -0.7,-0.6 -1.1,-0.9 -1.5,-1.3 0,0 -0.6,-0.6 -0.8,-0.8 C 16.1,32.2 16,32 15.9,31.9 15.7,31.4 15.6,30.8 15.7,30 c 0.1,-1.1 0.5,-2 1,-3 0.2,-0.4 0.7,-1.2 0.7,-1.2 0,0 -1.7,4.2 -0.8,5.5 0,0 0.1,-1.3 0.5,-2.6 0.3,-0.9 0.8,-2.2 1.4,-2.9 0.6,-0.7 2.1,-3.3 2.2,-4.9 0,-0.7 0.1,-1.4 0.1,-1.9 -0.4,-0.4 6.6,-1.4 7,-0.3 0.1,0.4 1.5,4 2.3,5.9 0.4,0.9 0.9,1.7 1.2,2.7 0.3,1.1 0.5,2.6 0.5,4.1 0,0.3 0,0.8 -0.1,1.3 0.2,0 4.1,-4.2 -0.5,-7.7 0,0 2.8,1.3 2.9,3.9 0.1,2.1 -0.8,3.8 -1,4.1 0.1,0 2.1,0.9 2.2,0.9 0.4,0 1.2,-0.3 1.2,-0.3 0.1,-0.3 0.4,-1.1 0.4,-1.4 0.7,-2.3 -1,-6 -2.6,-8.3 z"
         id="path1-0" /><g
         id="g2">
	<ellipse
   fill="#eceff1"
   cx="21.6"
   cy="15.3"
   rx="1.3"
   ry="2"
   id="ellipse1" />
	<ellipse
   fill="#eceff1"
   cx="26.1"
   cy="15.2"
   rx="1.7"
   ry="2.3"
   id="ellipse2" />
</g><g
         id="g4">
	
		<ellipse
   transform="matrix(-0.1254,-0.9921,0.9921,-0.1254,8.9754,38.9969)"
   fill="#212121"
   cx="21.700001"
   cy="15.5"
   rx="1.2"
   ry="0.69999999"
   id="ellipse3" />
	<ellipse
   fill="#212121"
   cx="26"
   cy="15.6"
   rx="1"
   ry="1.3"
   id="ellipse4" />
</g><g
         id="g6">
	<path
   fill="#ffc107"
   d="m 39.3,37.6 c -0.4,-0.2 -1.1,-0.5 -1.7,-1.4 -0.3,-0.5 -0.2,-1.9 -0.7,-2.5 -0.3,-0.4 -0.7,-0.2 -0.8,-0.2 -0.9,0.2 -3,1.6 -4.4,0 -0.2,-0.2 -0.5,-0.5 -1,-0.5 -0.5,0 -0.7,0.2 -0.9,0.6 -0.2,0.4 -0.2,0.7 -0.2,1.7 0,0.8 0,1.7 -0.1,2.4 -0.2,1.7 -0.5,2.7 -0.5,3.7 0,1.1 0.3,1.8 0.7,2.1 0.3,0.3 0.8,0.5 1.9,0.5 1.1,0 1.8,-0.4 2.5,-1.1 0.5,-0.5 0.9,-0.7 2.3,-1.7 1.1,-0.7 2.8,-1.6 3.1,-1.9 0.2,-0.2 0.5,-0.3 0.5,-0.9 0,-0.5 -0.4,-0.7 -0.7,-0.8 z"
   id="path4" />
	<path
   fill="#ffc107"
   d="m 19.2,37.9 c -1,-1.6 -1.1,-1.9 -1.8,-2.9 -0.6,-1 -1.9,-2.9 -2.7,-2.9 -0.6,0 -0.9,0.3 -1.3,0.7 -0.4,0.4 -0.8,1.3 -1.5,1.8 -0.6,0.5 -2.3,0.4 -2.7,1 -0.4,0.6 0.4,1.5 0.4,3 0,0.6 -0.5,1 -0.6,1.4 -0.1,0.5 -0.2,0.8 0,1.2 0.4,0.6 0.9,0.8 4.3,1.5 1.8,0.4 3.5,1.4 4.6,1.5 1.1,0.1 3,0 3,-2.7 0.1,-1.6 -0.8,-2 -1.7,-3.6 z"
   id="path5" />
	<path
   fill="#ffc107"
   d="M 21.1,19.8 C 20.5,19.4 20,19 20,18.4 c 0,-0.6 0.4,-0.8 1,-1.3 0.1,-0.1 1.2,-1.1 2.3,-1.1 1.1,0 2.4,0.7 2.9,0.9 0.9,0.2 1.8,0.4 1.7,1.1 -0.1,1 -0.2,1.2 -1.2,1.7 -0.7,0.2 -2,1.3 -2.9,1.3 -0.4,0 -1,0 -1.4,-0.1 -0.3,-0.1 -0.8,-0.6 -1.3,-1.1 z"
   id="path6" />
</g><g
         id="g9">
	<path
   fill="#634703"
   d="m 20.9,19 c 0.2,0.2 0.5,0.4 0.8,0.5 0.2,0.1 0.5,0.2 0.5,0.2 0.4,0 0.7,0 0.9,0 0.5,0 1.2,-0.2 1.9,-0.6 0.7,-0.3 0.8,-0.5 1.3,-0.7 0.5,-0.3 1,-0.6 0.8,-0.7 -0.2,-0.1 -0.4,0 -1.1,0.4 -0.6,0.4 -1.1,0.6 -1.7,0.9 -0.3,0.1 -0.7,0.3 -1,0.3 -0.3,0 -0.6,0 -0.9,0 -0.3,0 -0.5,-0.1 -0.8,-0.2 -0.2,-0.1 -0.3,-0.2 -0.4,-0.2 -0.2,-0.1 -0.6,-0.5 -0.8,-0.6 0,0 -0.2,0 -0.1,0.1 0.3,0.3 0.4,0.4 0.6,0.6 z"
   id="path7" />
	<path
   fill="#634703"
   d="m 23.9,16.8 c 0.1,0.2 0.3,0.2 0.4,0.3 0.1,0.1 0.2,0.1 0.2,0.1 0.1,-0.1 0,-0.3 -0.1,-0.3 0,-0.2 -0.5,-0.2 -0.5,-0.1 z"
   id="path8" />
	<path
   fill="#634703"
   d="m 22.3,17 c 0,0.1 0.2,0.2 0.2,0.1 0.1,-0.1 0.2,-0.2 0.3,-0.2 0.2,-0.1 0.1,-0.2 -0.2,-0.2 -0.2,0.1 -0.2,0.2 -0.3,0.3 z"
   id="path9" />
</g><path
         fill="#455a64"
         d="m 32,34.7 c 0,0.1 0,0.2 0,0.3 0.2,0.4 0.7,0.5 1.1,0.5 0.6,0 1.2,-0.4 1.5,-0.8 0,-0.1 0.1,-0.2 0.2,-0.3 0.2,-0.3 0.3,-0.5 0.4,-0.6 0,0 -0.1,-0.1 -0.1,-0.2 -0.1,-0.2 -0.4,-0.4 -0.8,-0.5 -0.3,-0.1 -0.8,-0.2 -1,-0.2 -0.9,-0.1 -1.4,0.2 -1.7,0.5 0,0 0.1,0 0.1,0.1 0.2,0.2 0.3,0.4 0.3,0.7 0.1,0.2 0,0.3 0,0.5 z"
         id="path10" /></g></g></svg>
