<?xml version="1.0" encoding="UTF-8" standalone="no"?>
<!-- Created with Inkscape (http://www.inkscape.org/) -->

<svg
   width="512"
   height="512"
   viewBox="0 0 512 512"
   version="1.1"
   id="svg1"
   xml:space="preserve"
   inkscape:version="1.4.2 (f4327f4, 2025-05-13)"
   sodipodi:docname="lr.svg"
   xmlns:inkscape="http://www.inkscape.org/namespaces/inkscape"
   xmlns:sodipodi="http://sodipodi.sourceforge.net/DTD/sodipodi-0.dtd"
   xmlns="http://www.w3.org/2000/svg"
   xmlns:svg="http://www.w3.org/2000/svg"><sodipodi:namedview
     id="namedview1"
     pagecolor="#ffffff"
     bordercolor="#999999"
     borderopacity="1"
     inkscape:showpageshadow="2"
     inkscape:pageopacity="0"
     inkscape:pagecheckerboard="0"
     inkscape:deskcolor="#d1d1d1"
     inkscape:document-units="px"
     showgrid="false"
     inkscape:zoom="1"
     inkscape:cx="161"
     inkscape:cy="323.5"
     inkscape:window-width="1920"
     inkscape:window-height="1001"
     inkscape:window-x="-9"
     inkscape:window-y="-9"
     inkscape:window-maximized="1"
     inkscape:current-layer="Layer_2_1_"><inkscape:grid
       id="grid1"
       units="mm"
       originx="0"
       originy="0"
       spacingx="1"
       spacingy="1"
       empcolor="#0099e5"
       empopacity="0.30196078"
       color="#0099e5"
       opacity="0.14901961"
       empspacing="5"
       enabled="true"
       visible="false" /></sodipodi:namedview><defs
     id="defs1"><inkscape:path-effect
       effect="fillet_chamfer"
       id="path-effect1"
       is_visible="true"
       lpeversion="1"
       nodesatellites_param="F,0,0,1,0,2.2572315,0,1 @ F,0,0,1,0,2.608162,0,1 @ F,0,0,1,0,2.5997618,0,1 @ F,0,0,1,0,3.0078049,0,1 @ F,0,0,1,0,2.2522004,0,1 @ F,0,0,1,0,2.8010871,0,1"
       radius="0"
       unit="px"
       method="auto"
       mode="F"
       chamfer_steps="1"
       flexible="false"
       use_knot_distance="true"
       apply_no_radius="true"
       apply_with_radius="true"
       only_selected="false"
       hide_knots="false" /></defs><g
     inkscape:label="Layer 1"
     inkscape:groupmode="layer"
     id="layer1"><circle
       style="fill:#001e36;fill-opacity:1;stroke:#858585;stroke-width:8;stroke-dasharray:none;stroke-opacity:1"
       id="path1"
       inkscape:label="background"
       cx="256.00003"
       cy="256.00006"
       r="241.31339" /><g
       id="Layer_2_1_"
       transform="matrix(1.5600624,0,0,1.5600624,56,60.9922)">
	
	<g
   id="Lr">
		<path
   fill="#31a8ff"
   d="M 134.6,176.7 H 66.9 c -1.2,0 -1.7,-0.6 -1.7,-1.9 V 65.6 c -0.1,-0.7 0.4,-1.4 1.2,-1.5 0.1,0 0.2,0 0.4,0 h 20.9 c 0.5,-0.1 1.2,0.3 1.2,0.9 0,0.1 0,0.2 0,0.3 V 155 h 49.4 c 1.1,0 1.4,0.5 1.2,1.5 l -3.1,18.6 c 0,0.5 -0.3,1 -0.6,1.3 -0.4,0.2 -0.8,0.3 -1.2,0.3 z"
   id="path2" />
		<path
   fill="#31a8ff"
   d="m 151.7,91.2 h 18.7 c 1.1,0 1.9,0.7 2.2,1.7 0.4,0.7 0.7,1.6 0.9,2.5 0.2,1.1 0.4,2.2 0.5,3.3 0.1,1.2 0.2,2.5 0.2,3.8 3.2,-3.7 7.1,-6.8 11.4,-9.2 4.9,-2.7 10.4,-4 15.9,-3.8 0.7,-0.1 1.4,0.4 1.5,1.2 0,0.1 0,0.2 0,0.4 V 112 c 0,0.9 -0.5,1.2 -1.7,1.2 -6.9,-0.4 -13.9,0.9 -20.2,3.6 -2.1,1 -4.2,2.2 -5.8,4 v 54.5 c 0,1.1 -0.4,1.5 -1.4,1.5 h -20.8 c -0.9,0.1 -1.6,-0.4 -1.7,-1.3 0,-0.1 0,-0.3 0,-0.4 v -59.2 c 0,-2.6 0,-5.2 -0.1,-8 -0.1,-2.8 -0.1,-5.6 -0.2,-8.3 -0.1,-2.4 -0.3,-4.7 -0.6,-7.1 -0.1,-0.5 0.2,-1.1 0.7,-1.2 0.2,-0.2 0.3,-0.2 0.5,-0.1 z"
   id="path3" />
	</g>
</g></g></svg>
