<?xml version="1.0" encoding="UTF-8" standalone="no"?>
<!-- Created with Inkscape (http://www.inkscape.org/) -->

<svg
   width="512"
   height="512"
   viewBox="0 0 512 512"
   version="1.1"
   id="svg1"
   xml:space="preserve"
   xmlns="http://www.w3.org/2000/svg"
   xmlns:svg="http://www.w3.org/2000/svg"><defs
     id="defs1" /><g
     id="layer1"><circle
       style="fill:#2e3548;fill-opacity:1;stroke:#858585;stroke-width:8;stroke-dasharray:none;stroke-opacity:1"
       id="path1"
       cx="256.00003"
       cy="256.00006"
       r="241.31339" /><g
       id="g1"
       transform="matrix(3.8306452,0,0,3.8306452,10.838707,10.838707)"><path
         fill="#ffffff"
         d="m 63.975,125.09 c -16.317,0 -31.658,-6.355 -43.197,-17.893 C 9.239,95.659 2.885,80.318 2.885,64 2.885,47.682 9.24,32.341 20.778,20.803 32.316,9.265 47.657,2.91 63.975,2.91 c 16.318,0 31.659,6.355 43.198,17.893 11.539,11.538 17.892,26.879 17.892,43.197 0,16.318 -6.355,31.659 -17.893,43.198 -11.538,11.539 -26.879,17.892 -43.197,17.892 z"
         id="path1-0" /><path
         fill="none"
         stroke="#858585"
         stroke-dasharray="0.407, 0.8139"
         stroke-linecap="round"
         stroke-linejoin="round"
         stroke-miterlimit="7.976"
         stroke-width="0.856"
         d="m 63.974,63.784 h 61.09 m -61.09,0 43.197,-43.196 M 63.974,63.784 V 2.694 m 0,61.09 L 20.778,20.588 M 63.974,63.784 H 2.884 m 61.09,0 -43.196,43.197 M 63.974,63.784 v 61.09 m 0,-61.09 43.197,43.197"
         opacity="0.9"
         id="path2" /><g
         fill="none"
         stroke="#818181"
         stroke-dasharray="0.407, 0.8139"
         stroke-linecap="square"
         stroke-linejoin="round"
         stroke-miterlimit="199.409"
         stroke-width="0.856"
         id="g6"><path
           d="m 70.764,63.784 -0.202,-1.643 -0.593,-1.543 -0.949,-1.355 -1.25,-1.085 -1.474,-0.751 -1.61,-0.373 -1.654,0.03 -1.599,0.429 -1.447,0.801 -1.209,1.128 -0.9,1.388 -0.539,1.565 -0.145,1.649 0.259,1.634 0.646,1.523 0.994,1.321 1.286,1.041 1.5,0.698 1.623,0.316 1.653,-0.086 1.582,-0.484 1.418,-0.852 1.17,-1.17 0.851,-1.417 0.484,-1.582 0.105,-1.182 v 0"
           opacity="0.9"
           id="path3" /><path
           d="m 84.339,63.784 -0.198,-2.833 -0.59,-2.779 -0.973,-2.669 -1.333,-2.509 -1.67,-2.299 -1.973,-2.044 -2.238,-1.75 -2.461,-1.42 -2.633,-1.064 -2.758,-0.688 -2.825,-0.297 -2.84,0.099 -2.797,0.494 -2.702,0.877 -2.554,1.246 -2.356,1.588 -2.111,1.901 -1.826,2.177 -1.506,2.408 -1.155,2.596 -0.782,2.73 -0.396,2.814 v 2.842 l 0.396,2.814 0.782,2.73 1.155,2.596 1.506,2.408 1.826,2.177 2.111,1.902 2.356,1.588 2.554,1.245 2.702,0.877 2.798,0.494 2.84,0.1 2.824,-0.298 2.758,-0.687 2.633,-1.065 2.461,-1.42 2.238,-1.75 1.973,-2.044 1.67,-2.299 1.333,-2.51 0.972,-2.668 0.591,-2.779 0.198,-2.83 v 0"
           opacity="0.9"
           id="path4" /><path
           d="m 97.914,63.784 -0.185,-3.548 -0.555,-3.509 -0.92,-3.43 -1.272,-3.317 -1.613,-3.166 -1.935,-2.978 -2.236,-2.762 -2.512,-2.511 -2.761,-2.236 -2.979,-1.935 -3.165,-1.613 -3.317,-1.273 -3.43,-0.919 -3.51,-0.555 -3.548,-0.185 -3.548,0.185 -3.508,0.555 -3.43,0.92 -3.318,1.272 -3.165,1.613 -2.979,1.935 -2.761,2.236 -2.512,2.511 -2.236,2.762 -1.935,2.978 -1.613,3.166 -1.273,3.317 -0.919,3.43 -0.555,3.509 -0.185,3.548 0.185,3.548 0.555,3.509 0.92,3.43 1.272,3.317 1.613,3.166 1.935,2.978 2.236,2.762 2.512,2.511 2.761,2.236 2.979,1.935 3.165,1.614 3.317,1.272 3.43,0.92 3.51,0.555 3.547,0.185 3.549,-0.185 3.508,-0.556 3.43,-0.919 3.318,-1.272 3.165,-1.614 2.979,-1.935 2.761,-2.236 2.512,-2.511 2.236,-2.762 1.935,-2.978 1.613,-3.166 1.272,-3.317 0.92,-3.43 0.555,-3.509 0.185,-3.548 v 0"
           opacity="0.9"
           id="path5" /><path
           d="m 111.489,63.784 -0.26,-4.966 -0.78,-4.911 -1.286,-4.804 -1.782,-4.642 -2.257,-4.432 -2.709,-4.171 -3.13,-3.866 -3.516,-3.517 -3.866,-3.13 -4.171,-2.709 -4.432,-2.256 -4.642,-1.781 -4.804,-1.287 -4.912,-0.779 -4.966,-0.26 -4.966,0.26 -4.91,0.779 -4.805,1.287 -4.642,1.781 -4.432,2.257 -4.17,2.71 -3.867,3.13 -3.517,3.516 -3.13,3.866 -2.708,4.17 -2.257,4.433 -1.782,4.642 -1.287,4.804 -0.778,4.911 -0.261,4.966 0.26,4.966 0.779,4.911 1.287,4.805 1.782,4.642 2.257,4.431 2.709,4.171 3.13,3.866 3.516,3.517 3.866,3.13 4.171,2.709 4.432,2.257 4.642,1.781 4.804,1.288 4.911,0.778 4.966,0.26 4.966,-0.26 4.912,-0.778 4.804,-1.288 4.642,-1.781 4.432,-2.257 4.17,-2.71 3.867,-3.129 3.516,-3.517 3.13,-3.866 2.71,-4.17 2.256,-4.432 1.782,-4.642 1.287,-4.805 0.778,-4.91 0.261,-4.967 v 0"
           opacity="0.9"
           id="path6" /></g><path
         fill="#11557c"
         d="M 64,126 C 47.44,126 31.87,119.551 20.16,107.841 8.45,96.131 2,80.561 2,64 2,47.439 8.449,31.87 20.159,20.159 31.869,8.448 47.439,2 64,2 80.561,2 96.131,8.449 107.841,20.159 119.551,31.869 126,47.439 126,64 126,80.561 119.551,96.131 107.841,107.841 96.131,119.551 80.561,126 64,126 Z M 64,3.82 C 47.926,3.82 32.813,10.08 21.447,21.446 10.08,32.813 3.82,47.925 3.82,64 c 0,16.075 6.26,31.188 17.626,42.554 11.366,11.366 26.479,17.626 42.554,17.626 16.075,0 31.188,-6.26 42.554,-17.626 C 117.92,95.188 124.18,80.075 124.18,64 124.18,47.925 117.92,32.813 106.554,21.446 95.187,10.08 80.075,3.82 64,3.82 Z"
         id="path7" /><path
         fill="#004cff"
         d="m 63.975,63.784 0.129,-0.042 0.129,-0.042 0.129,-0.042 0.129,-0.042 0.129,-0.042 0.129,-0.042 0.129,-0.042 0.129,-0.042 0.129,-0.042 0.129,-0.042 0.129,-0.042 0.129,-0.042 0.129,-0.042 0.129,-0.042 0.129,-0.042 0.129,-0.042 0.129,-0.042 0.129,-0.042 0.129,-0.042 0.129,-0.042 0.129,-0.042 0.129,-0.042 0.129,-0.042 0.129,-0.042 0.129,-0.042 0.129,-0.042 0.129,-0.042 0.129,-0.042 0.129,-0.042 0.129,-0.042 0.129,-0.042 0.129,-0.042 0.129,-0.042 0.129,-0.042 0.129,-0.042 0.129,-0.042 0.129,-0.042 0.129,-0.042 0.129,-0.042 0.129,-0.042 0.129,-0.042 0.129,-0.042 0.129,-0.042 0.129,-0.042 0.129,-0.042 0.129,-0.042 0.129,-0.042 0.129,-0.042 0.129,-0.042 0.129,-0.042 0.129,-0.042 0.129,-0.042 0.129,-0.042 0.129,-0.042 0.129,-0.042 0.129,-0.042 0.129,-0.042 0.129,-0.042 0.129,-0.042 0.129,-0.042 0.129,-0.042 0.129,-0.042 0.129,-0.042 0.129,-0.042 0.129,-0.042 0.129,-0.042 0.129,-0.042 0.129,-0.042 0.129,-0.042 0.129,-0.042 0.129,-0.042 0.129,-0.042 0.129,-0.042 0.129,-0.042 0.129,-0.042 0.129,-0.042 0.129,-0.042 0.129,-0.042 0.129,-0.042 0.129,-0.042 0.129,-0.042 0.129,-0.042 0.129,-0.042 0.129,-0.042 0.129,-0.042 0.129,-0.042 0.129,-0.042 0.129,-0.042 0.129,-0.042 0.129,-0.042 0.129,-0.042 0.129,-0.042 0.129,-0.042 0.129,-0.042 0.129,-0.042 0.129,-0.042 0.129,-0.042 0.129,-0.042 0.129,-0.042 0.129,-0.042 0.025,0.046 0.013,0.041 0.013,0.041 0.013,0.041 0.013,0.041 0.013,0.041 0.012,0.041 0.012,0.041 0.011,0.039 0.012,0.041 0.012,0.041 0.012,0.041 0.012,0.041 0.011,0.041 0.011,0.041 0.011,0.041 0.011,0.041 0.011,0.041 0.011,0.041 0.011,0.041 0.011,0.041 0.01,0.041 0.01,0.041 0.01,0.041 0.01,0.041 0.01,0.041 0.01,0.042 0.01,0.042 0.009,0.042 0.009,0.042 0.009,0.042 0.009,0.042 0.009,0.042 0.009,0.042 0.009,0.042 0.009,0.042 0.009,0.042 0.008,0.042 0.008,0.042 0.008,0.042 0.008,0.042 0.008,0.042 0.008,0.042 0.007,0.042 0.007,0.042 0.007,0.042 0.007,0.042 0.007,0.042 0.007,0.042 0.007,0.042 0.007,0.042 0.007,0.042 0.006,0.042 0.006,0.042 0.006,0.042 0.006,0.042 0.006,0.042 0.006,0.042 0.006,0.042 0.005,0.042 0.005,0.042 0.005,0.042 0.005,0.042 0.005,0.042 0.005,0.042 0.005,0.042 0.005,0.042 0.004,0.042 0.004,0.042 0.004,0.042 0.004,0.042 0.004,0.042 0.004,0.042 0.004,0.043 0.003,0.043 0.003,0.043 0.003,0.043 0.003,0.043 0.003,0.043 0.003,0.043 0.003,0.043 0.003,0.043 0.002,0.043 0.002,0.043 0.002,0.043 0.002,0.043 0.002,0.043 0.002,0.043 0.002,0.043 10e-4,0.043 0.001,0.043 0.001,0.043 10e-4,0.043 0.001,0.043 0.001,0.043 10e-4,0.043 v 0.172 H 64.11 Z"
         opacity="0.6"
         id="path8" /><path
         fill="#ceff29"
         d="m 63.975,63.784 0.143,-0.381 0.143,-0.381 0.143,-0.381 0.143,-0.381 0.143,-0.381 0.143,-0.381 0.143,-0.381 0.143,-0.381 0.143,-0.381 0.143,-0.381 0.143,-0.381 0.143,-0.381 0.143,-0.381 0.143,-0.381 0.143,-0.381 0.143,-0.381 0.143,-0.381 0.143,-0.381 0.143,-0.381 0.143,-0.381 0.143,-0.381 0.143,-0.381 0.143,-0.381 0.143,-0.381 0.143,-0.381 0.143,-0.381 0.143,-0.381 0.143,-0.381 0.143,-0.381 0.143,-0.381 0.143,-0.381 0.143,-0.381 0.143,-0.381 0.143,-0.381 0.143,-0.381 0.143,-0.381 0.143,-0.381 0.143,-0.381 0.143,-0.381 0.143,-0.381 0.143,-0.381 0.143,-0.381 0.143,-0.381 0.143,-0.381 0.143,-0.381 0.143,-0.381 0.143,-0.381 0.143,-0.381 0.143,-0.381 0.143,-0.381 0.143,-0.381 0.143,-0.381 0.143,-0.381 0.143,-0.381 0.143,-0.381 0.143,-0.381 0.143,-0.381 0.143,-0.381 0.143,-0.381 0.143,-0.381 0.143,-0.381 0.143,-0.381 0.143,-0.381 0.143,-0.381 0.143,-0.381 0.143,-0.381 0.143,-0.381 0.143,-0.381 0.143,-0.381 0.143,-0.381 0.143,-0.381 0.143,-0.381 0.143,-0.381 0.143,-0.381 0.143,-0.381 0.143,-0.381 0.143,-0.381 0.143,-0.381 0.143,-0.381 0.143,-0.381 0.143,-0.381 0.143,-0.381 0.143,-0.381 0.143,-0.381 0.143,-0.381 0.143,-0.381 0.143,-0.381 0.143,-0.381 0.143,-0.381 0.143,-0.381 0.143,-0.381 0.143,-0.381 0.143,-0.381 0.143,-0.381 0.143,-0.381 0.143,-0.381 0.143,-0.381 0.154,-0.411 0.143,-0.381 0.143,-0.381 0.12,0.045 0.12,0.046 0.119,0.046 0.119,0.046 0.119,0.047 0.119,0.047 0.119,0.047 0.119,0.048 0.119,0.048 0.118,0.049 0.118,0.049 0.118,0.049 0.118,0.05 0.118,0.05 0.118,0.05 0.117,0.051 0.117,0.051 0.117,0.051 0.117,0.052 0.117,0.052 0.117,0.053 0.116,0.053 0.116,0.053 0.116,0.054 0.116,0.054 0.116,0.054 0.116,0.055 0.115,0.055 0.115,0.055 0.115,0.056 0.115,0.056 0.115,0.057 0.115,0.057 0.114,0.057 0.114,0.058 0.114,0.058 0.114,0.058 0.114,0.059 0.113,0.059 0.113,0.059 0.113,0.06 0.113,0.06 0.113,0.061 0.113,0.061 0.112,0.061 0.112,0.062 0.112,0.062 0.112,0.062 0.112,0.063 0.111,0.063 0.111,0.063 0.111,0.064 0.111,0.064 0.111,0.064 0.11,0.065 0.11,0.065 0.11,0.065 0.11,0.066 0.11,0.066 0.109,0.066 0.109,0.067 0.109,0.067 0.109,0.067 0.108,0.068 0.108,0.068 0.108,0.068 0.108,0.069 0.108,0.069 0.107,0.069 0.107,0.07 0.107,0.07 0.107,0.071 0.107,0.071 0.106,0.071 0.106,0.072 0.106,0.072 0.106,0.072 0.105,0.073 0.105,0.073 0.105,0.073 0.105,0.074 0.104,0.074 0.104,0.074 0.104,0.074 0.104,0.075 0.104,0.075 0.103,0.075 0.103,0.076 0.103,0.076 0.103,0.076 0.102,0.077 0.102,0.077 0.102,0.077 0.102,0.078 0.101,0.078 0.101,0.078 0.101,0.079 0.101,0.079 0.1,0.079 0.1,0.08 -0.254,0.318 -0.254,0.318 -0.254,0.318 -0.254,0.318 -0.254,0.318 -0.254,0.318 -0.254,0.318 -0.254,0.318 -0.254,0.318 -0.254,0.318 -0.254,0.318 -0.254,0.318 -0.254,0.318 -0.252,0.324 -0.254,0.318 -0.254,0.318 -0.254,0.318 -0.254,0.318 -0.254,0.318 -0.253,0.32 -0.254,0.318 -0.254,0.318 -0.254,0.318 -0.254,0.318 -0.254,0.318 -0.254,0.318 -0.254,0.318 -0.254,0.318 -0.254,0.318 -0.254,0.318 -0.254,0.318 -0.254,0.318 -0.254,0.318 -0.254,0.318 -0.254,0.318 -0.254,0.318 -0.254,0.318 -0.254,0.318 -0.254,0.318 -0.254,0.318 -0.254,0.318 -0.254,0.318 -0.254,0.318 -0.254,0.318 -0.254,0.318 -0.254,0.318 -0.254,0.318 -0.254,0.318 -0.254,0.318 -0.254,0.318 -0.254,0.318 -0.252,0.332 -0.254,0.318 -0.254,0.318 -0.254,0.318 -0.254,0.318 -0.254,0.318 -0.254,0.32 -0.254,0.318 -0.254,0.318 -0.254,0.318 -0.254,0.318 -0.254,0.318 -0.254,0.318 -0.254,0.318 -0.254,0.318 -0.254,0.318 -0.254,0.318 -0.254,0.318 -0.254,0.318 -0.254,0.318 -0.254,0.318 -0.254,0.318 -0.254,0.318 -0.254,0.318 -0.254,0.318 -0.254,0.318 -0.254,0.318 -0.254,0.318 -0.254,0.318 -0.252,0.328 -0.254,0.318 -0.254,0.318 -0.254,0.318 -0.254,0.318 -0.254,0.318 -0.254,0.318 -0.254,0.318 -0.254,0.318 -0.254,0.318 -0.254,0.318 -0.254,0.318 -0.254,0.318 -0.254,0.318 -0.254,0.318 -0.254,0.318 -0.254,0.318 -0.254,0.318 -0.254,0.318 z"
         opacity="0.6"
         id="path9" /><path
         fill="#ff6800"
         d="M 63.975,63.784 63.627,63.367 63.279,62.95 62.931,62.533 62.583,62.116 62.235,61.699 61.887,61.282 61.539,60.865 61.191,60.448 60.843,60.031 60.495,59.614 60.147,59.197 59.799,58.78 59.451,58.363 59.103,57.946 58.755,57.529 58.407,57.112 58.059,56.695 57.711,56.278 57.363,55.861 57.015,55.444 56.667,55.027 56.319,54.61 55.971,54.193 55.623,53.776 55.275,53.359 54.927,52.942 54.579,52.525 54.231,52.108 53.883,51.691 53.535,51.274 53.187,50.857 52.839,50.44 52.491,50.023 52.143,49.606 51.795,49.189 51.447,48.772 51.099,48.355 50.751,47.938 50.403,47.521 50.055,47.104 49.707,46.687 49.359,46.27 49.011,45.853 48.663,45.436 48.315,45.019 47.967,44.602 47.619,44.185 47.271,43.768 46.923,43.351 46.575,42.934 46.227,42.517 45.879,42.1 45.531,41.683 45.183,41.266 44.835,40.849 44.487,40.432 44.139,40.015 43.791,39.598 43.443,39.181 43.095,38.764 42.747,38.347 42.399,37.93 42.051,37.513 41.703,37.096 41.355,36.679 41.007,36.262 40.659,35.845 40.311,35.428 39.963,35.011 39.615,34.594 39.267,34.177 38.919,33.76 38.571,33.343 38.223,32.926 37.875,32.509 37.527,32.092 37.179,31.675 36.831,31.258 36.483,30.841 36.135,30.424 35.787,30.007 35.439,29.59 35.091,29.173 34.743,28.756 34.395,28.339 34.047,27.922 33.699,27.505 33.351,27.088 33.003,26.671 32.655,26.254 32.307,25.837 31.959,25.42 31.611,25.003 31.262,24.6 30.914,24.183 30.566,23.766 30.218,23.349 29.87,22.932 l -0.348,-0.417 -0.348,-0.417 0.197,-0.164 0.198,-0.163 0.198,-0.162 0.199,-0.161 0.2,-0.16 0.201,-0.159 0.201,-0.158 0.202,-0.157 0.203,-0.156 0.204,-0.155 0.204,-0.154 0.205,-0.153 0.206,-0.152 0.206,-0.151 0.207,-0.15 0.208,-0.149 0.209,-0.148 0.209,-0.147 0.21,-0.146 0.211,-0.145 0.211,-0.144 0.212,-0.143 0.213,-0.142 0.213,-0.141 0.214,-0.14 0.215,-0.139 0.215,-0.138 0.216,-0.137 0.217,-0.136 0.217,-0.135 0.218,-0.134 0.219,-0.133 0.219,-0.132 0.22,-0.131 0.22,-0.13 0.221,-0.129 0.222,-0.128 0.222,-0.127 0.223,-0.126 0.223,-0.125 0.224,-0.124 0.225,-0.123 0.225,-0.122 0.226,-0.121 0.226,-0.12 0.227,-0.118 0.227,-0.117 0.228,-0.116 0.228,-0.115 0.229,-0.114 0.23,-0.113 0.23,-0.112 0.231,-0.111 0.231,-0.11 0.232,-0.109 0.232,-0.108 0.233,-0.107 0.233,-0.105 0.234,-0.104 0.234,-0.103 0.235,-0.102 0.235,-0.101 0.236,-0.1 0.236,-0.099 0.237,-0.098 0.237,-0.097 0.237,-0.095 0.238,-0.094 0.238,-0.093 0.239,-0.092 0.239,-0.091 0.24,-0.09 0.24,-0.089 0.24,-0.088 0.241,-0.086 0.241,-0.085 0.242,-0.084 0.242,-0.083 0.242,-0.082 0.243,-0.081 0.243,-0.08 0.244,-0.078 0.244,-0.077 0.244,-0.076 0.245,-0.075 0.245,-0.074 0.245,-0.073 0.246,-0.072 0.246,-0.07 0.246,-0.069 0.247,-0.068 0.247,-0.067 0.247,-0.066 0.248,-0.065 0.248,-0.063 0.248,-0.062 0.249,-0.061 0.249,-0.06 0.249,-0.059 0.249,-0.058 0.121,0.529 0.121,0.529 0.121,0.529 0.121,0.529 0.121,0.529 0.121,0.529 0.121,0.529 0.121,0.529 0.121,0.529 0.121,0.529 0.121,0.529 0.121,0.529 0.121,0.529 0.121,0.529 0.121,0.529 0.121,0.529 0.121,0.529 0.121,0.529 0.121,0.529 0.121,0.529 0.121,0.529 0.121,0.529 0.121,0.529 0.121,0.529 0.121,0.529 0.121,0.529 0.121,0.529 0.121,0.529 0.121,0.529 0.121,0.529 0.121,0.529 0.121,0.529 0.121,0.529 0.113,0.543 0.121,0.529 0.121,0.529 0.121,0.529 0.121,0.529 0.121,0.529 0.121,0.529 0.121,0.529 0.121,0.529 0.121,0.529 0.121,0.529 0.121,0.529 0.121,0.529 0.121,0.529 0.121,0.529 0.121,0.529 0.121,0.529 0.121,0.529 0.121,0.529 0.121,0.529 0.121,0.529 0.121,0.529 0.121,0.529 0.121,0.529 0.121,0.529 0.121,0.529 0.121,0.529 0.121,0.529 0.121,0.529 0.121,0.529 0.121,0.529 0.121,0.529 0.121,0.529 0.121,0.529 0.121,0.529 0.121,0.529 0.121,0.529 0.121,0.529 0.121,0.529 0.121,0.529 0.121,0.529 0.121,0.529 0.121,0.529 0.121,0.529 0.121,0.529 0.121,0.529 0.121,0.529 0.121,0.529 0.121,0.529 0.121,0.529 0.121,0.529 0.121,0.529 0.121,0.529 0.121,0.529 0.121,0.529 0.121,0.529 0.121,0.529 0.121,0.529 0.121,0.529 0.121,0.529 0.121,0.529 0.121,0.529 0.121,0.529 0.121,0.529 0.121,0.529 0.121,0.529 z"
         opacity="0.6"
         id="path10" /><path
         fill="#ffc400"
         d="m 63.975,63.784 -0.468,0.085 -0.468,0.085 -0.468,0.085 -0.468,0.085 -0.468,0.085 -0.468,0.085 -0.468,0.085 -0.468,0.085 -0.468,0.085 -0.463,0.083 -0.468,0.085 -0.468,0.085 -0.468,0.085 -0.468,0.085 -0.468,0.085 -0.468,0.085 -0.468,0.085 -0.468,0.085 -0.468,0.085 -0.468,0.085 -0.468,0.085 -0.462,0.083 -0.468,0.085 -0.468,0.085 -0.468,0.085 -0.466,0.085 -0.468,0.085 -0.468,0.085 -0.468,0.085 -0.468,0.085 -0.468,0.085 -0.468,0.085 -0.468,0.085 -0.468,0.085 -0.468,0.085 -0.468,0.085 -0.468,0.085 -0.468,0.085 -0.468,0.085 -0.468,0.085 -0.468,0.085 -0.468,0.085 -0.468,0.085 -0.468,0.085 -0.468,0.085 -0.468,0.085 -0.468,0.085 -0.468,0.085 -0.468,0.085 -0.456,0.081 -0.468,0.085 -0.468,0.085 -0.468,0.085 -0.468,0.085 -0.468,0.085 -0.468,0.085 -0.468,0.085 -0.468,0.085 -0.468,0.085 -0.468,0.085 -0.468,0.085 -0.468,0.085 -0.468,0.085 -0.468,0.085 -0.468,0.085 -0.468,0.085 -0.468,0.085 -0.468,0.085 -0.468,0.085 -0.468,0.085 -0.468,0.085 -0.468,0.085 -0.468,0.085 -0.468,0.085 -0.468,0.085 -0.468,0.085 -0.468,0.085 -0.468,0.085 -0.468,0.085 -0.468,0.085 -0.468,0.085 -0.468,0.085 -0.468,0.085 -0.468,0.085 -0.468,0.085 -0.45,0.079 -0.468,0.085 -0.468,0.085 -0.468,0.085 -0.466,0.085 -0.468,0.085 -0.468,0.085 -0.468,0.085 -0.468,0.085 -0.468,0.085 -0.468,0.085 -0.468,0.085 L 18.156,72.1 17.688,72.185 17.22,72.27 17.168,71.976 17.117,71.682 17.068,71.387 17.021,71.092 16.976,70.797 16.938,70.5 16.897,70.204 16.858,69.908 16.82,69.612 16.784,69.316 16.75,69.019 16.718,68.722 16.688,68.425 16.66,68.128 16.634,67.831 16.61,67.533 16.587,67.235 16.566,66.937 16.547,66.639 16.53,66.341 16.515,66.043 16.502,65.745 16.491,65.447 16.482,65.149 16.474,64.851 16.468,64.553 16.464,64.254 16.462,63.955 v -0.299 l 0.002,-0.299 0.004,-0.299 0.005,-0.298 0.007,-0.298 0.009,-0.298 0.011,-0.298 0.013,-0.298 0.015,-0.298 0.017,-0.298 0.019,-0.298 0.02,-0.298 0.022,-0.298 0.024,-0.298 0.026,-0.297 0.028,-0.297 0.03,-0.297 0.032,-0.297 0.034,-0.297 0.035,-0.296 0.037,-0.296 0.039,-0.296 0.041,-0.296 0.043,-0.295 0.045,-0.295 0.047,-0.295 0.048,-0.295 0.05,-0.294 0.052,-0.294 0.054,-0.294 0.056,-0.293 0.058,-0.293 0.059,-0.293 0.061,-0.292 0.063,-0.292 0.065,-0.291 0.067,-0.291 0.069,-0.291 0.07,-0.29 0.072,-0.29 0.074,-0.289 0.076,-0.289 0.078,-0.288 0.08,-0.288 0.081,-0.287 0.083,-0.287 0.085,-0.286 0.087,-0.286 0.089,-0.285 0.09,-0.285 0.092,-0.284 0.094,-0.283 0.096,-0.283 0.097,-0.282 0.099,-0.282 0.101,-0.281 0.103,-0.28 0.105,-0.28 0.106,-0.279 0.108,-0.278 0.11,-0.278 0.112,-0.277 0.113,-0.276 0.115,-0.276 0.117,-0.275 0.118,-0.274 0.12,-0.273 0.122,-0.273 0.124,-0.272 0.125,-0.271 0.127,-0.27 0.129,-0.269 0.428,0.206 0.428,0.206 0.428,0.206 0.428,0.206 0.428,0.206 0.428,0.206 0.428,0.206 0.428,0.206 0.428,0.206 0.428,0.206 0.428,0.206 0.428,0.206 0.428,0.206 0.428,0.206 0.428,0.206 0.428,0.206 0.428,0.206 0.428,0.206 0.428,0.206 0.428,0.206 0.428,0.206 0.428,0.206 0.428,0.206 0.428,0.206 0.428,0.206 0.428,0.206 0.428,0.206 0.428,0.206 0.428,0.206 0.428,0.206 0.428,0.206 0.428,0.206 0.428,0.206 0.428,0.206 0.428,0.206 0.428,0.206 0.428,0.206 0.428,0.206 0.428,0.206 0.428,0.206 0.428,0.206 0.428,0.206 0.428,0.206 0.428,0.206 0.428,0.206 0.428,0.206 0.428,0.206 0.428,0.206 0.428,0.206 0.428,0.206 0.428,0.206 0.428,0.206 0.428,0.206 0.428,0.206 0.428,0.206 0.428,0.206 0.428,0.206 0.428,0.206 0.428,0.206 0.428,0.206 0.428,0.206 0.428,0.206 0.428,0.206 0.428,0.206 0.428,0.206 0.428,0.206 0.428,0.206 0.428,0.206 0.428,0.206 0.428,0.206 0.428,0.206 0.428,0.206 0.428,0.206 0.428,0.206 0.428,0.206 0.428,0.206 0.428,0.206 0.428,0.206 0.428,0.206 0.428,0.206 0.428,0.206 0.428,0.206 0.428,0.206 0.428,0.206 0.428,0.206 0.428,0.206 0.428,0.206 0.428,0.206 0.428,0.206 0.428,0.206 0.428,0.206 0.428,0.206 0.428,0.206 0.428,0.206 0.428,0.206 0.428,0.206 0.428,0.206 0.428,0.206 0.428,0.206 z"
         opacity="0.6"
         id="path11" /><path
         fill="#29ffce"
         d="m 63.975,63.784 -0.223,0.155 -0.223,0.155 -0.223,0.155 -0.223,0.155 -0.223,0.155 -0.223,0.155 -0.223,0.155 -0.224,0.151 -0.223,0.155 -0.223,0.155 -0.223,0.155 -0.223,0.155 -0.223,0.155 -0.223,0.155 -0.223,0.155 -0.223,0.155 -0.223,0.155 -0.223,0.155 -0.223,0.155 -0.223,0.155 -0.223,0.155 -0.223,0.155 -0.223,0.155 -0.223,0.155 -0.223,0.155 -0.223,0.155 -0.223,0.155 -0.223,0.155 -0.223,0.155 -0.223,0.155 -0.223,0.155 -0.223,0.155 -0.223,0.155 -0.223,0.155 -0.223,0.155 -0.223,0.155 -0.223,0.155 -0.223,0.155 -0.223,0.155 -0.223,0.155 -0.223,0.155 -0.223,0.155 -0.223,0.155 -0.223,0.155 -0.223,0.155 -0.223,0.155 -0.223,0.155 -0.223,0.155 -0.223,0.155 -0.223,0.155 -0.223,0.155 -0.223,0.155 -0.223,0.155 -0.223,0.155 -0.232,0.137 -0.223,0.155 -0.223,0.155 -0.223,0.155 -0.223,0.155 -0.223,0.155 -0.223,0.155 -0.223,0.155 -0.223,0.155 -0.223,0.155 -0.223,0.155 -0.223,0.155 -0.223,0.155 -0.223,0.155 -0.223,0.155 -0.223,0.155 -0.223,0.155 -0.223,0.155 -0.223,0.155 -0.223,0.155 -0.223,0.155 -0.223,0.155 -0.223,0.155 -0.223,0.155 -0.223,0.155 -0.223,0.155 -0.223,0.155 -0.223,0.155 -0.223,0.155 -0.223,0.155 -0.223,0.155 -0.223,0.155 -0.223,0.155 -0.223,0.155 -0.223,0.155 -0.223,0.155 -0.223,0.155 -0.223,0.155 -0.223,0.155 -0.223,0.155 -0.223,0.155 -0.223,0.155 -0.223,0.155 -0.223,0.155 L 41.88,79.09 41.657,79.245 41.633,79.21 41.609,79.175 41.585,79.14 41.561,79.105 41.537,79.07 41.513,79.035 41.489,79 41.465,78.965 41.441,78.93 41.417,78.895 41.393,78.86 41.369,78.825 41.345,78.789 41.321,78.753 41.298,78.717 41.275,78.681 41.252,78.645 41.229,78.609 41.206,78.573 41.183,78.537 41.16,78.501 41.137,78.465 41.114,78.429 41.091,78.393 41.068,78.357 41.045,78.321 41.022,78.285 40.999,78.249 40.976,78.213 40.953,78.177 40.93,78.141 40.907,78.105 40.885,78.069 40.863,78.033 40.841,77.997 40.819,77.961 40.797,77.925 40.775,77.889 40.753,77.853 40.731,77.817 40.709,77.78 40.687,77.743 40.665,77.706 40.643,77.669 40.621,77.632 40.599,77.595 40.577,77.558 40.555,77.521 40.533,77.484 40.512,77.447 40.491,77.41 40.47,77.373 40.449,77.336 40.428,77.299 40.407,77.262 40.386,77.225 40.365,77.188 40.344,77.151 40.323,77.114 40.302,77.077 40.281,77.04 40.26,77.003 l -0.021,-0.037 -0.021,-0.037 -0.021,-0.037 -0.021,-0.037 -0.021,-0.037 -0.02,-0.037 -0.02,-0.037 -0.02,-0.037 -0.02,-0.038 -0.02,-0.038 -0.02,-0.038 -0.02,-0.038 -0.02,-0.038 -0.02,-0.038 -0.02,-0.038 -0.02,-0.038 -0.02,-0.038 -0.02,-0.038 -0.02,-0.038 -0.02,-0.038 -0.02,-0.038 -0.019,-0.038 -0.019,-0.038 -0.019,-0.038 -0.019,-0.038 -0.019,-0.038 -0.019,-0.038 -0.019,-0.038 -0.019,-0.038 -0.019,-0.038 -0.019,-0.038 -0.019,-0.038 -0.019,-0.038 -0.019,-0.038 -0.019,-0.038 -0.019,-0.041 -0.019,-0.038 -0.019,-0.038 0.245,-0.118 0.245,-0.118 0.245,-0.118 0.245,-0.118 0.245,-0.118 0.245,-0.118 0.245,-0.118 0.245,-0.118 0.245,-0.118 0.245,-0.118 0.245,-0.118 0.245,-0.118 0.245,-0.118 0.245,-0.118 0.245,-0.118 0.245,-0.118 0.245,-0.118 0.245,-0.118 0.245,-0.118 0.245,-0.118 0.245,-0.118 0.245,-0.118 0.245,-0.118 0.245,-0.118 0.245,-0.118 0.245,-0.118 0.245,-0.118 0.245,-0.118 0.245,-0.118 0.245,-0.118 0.245,-0.118 0.245,-0.118 0.245,-0.118 0.245,-0.118 0.245,-0.118 0.245,-0.118 0.245,-0.118 0.245,-0.118 0.245,-0.118 0.245,-0.118 0.245,-0.118 0.245,-0.118 0.245,-0.118 0.245,-0.118 0.245,-0.118 0.245,-0.118 0.245,-0.118 0.245,-0.118 0.245,-0.118 0.245,-0.118 0.245,-0.118 0.245,-0.118 0.245,-0.118 0.245,-0.118 0.245,-0.118 0.245,-0.118 0.245,-0.118 0.245,-0.118 0.245,-0.118 0.245,-0.118 0.245,-0.118 0.245,-0.118 0.245,-0.118 0.245,-0.118 0.245,-0.118 0.245,-0.118 0.245,-0.118 0.245,-0.118 0.245,-0.118 0.245,-0.118 0.245,-0.118 0.245,-0.118 0.245,-0.118 0.245,-0.118 0.245,-0.118 0.245,-0.118 0.245,-0.118 0.245,-0.118 0.245,-0.118 0.245,-0.118 0.245,-0.118 0.245,-0.118 0.245,-0.118 0.245,-0.118 0.245,-0.118 0.245,-0.118 0.245,-0.118 0.245,-0.118 0.245,-0.118 0.245,-0.118 0.245,-0.118 0.245,-0.118 0.245,-0.118 0.245,-0.118 0.245,-0.118 0.245,-0.118 0.245,-0.118 0.245,-0.118 0.245,-0.118 z"
         opacity="0.6"
         id="path12" /><path
         fill="#7dff7a"
         d="m 63.975,63.784 0.057,0.335 0.057,0.335 0.057,0.335 0.057,0.335 0.057,0.335 0.057,0.335 0.057,0.335 0.057,0.335 0.057,0.335 0.057,0.335 0.057,0.335 0.057,0.335 0.057,0.335 0.057,0.335 0.057,0.335 0.057,0.335 0.057,0.335 0.057,0.335 0.057,0.335 0.057,0.335 0.057,0.335 0.057,0.335 0.057,0.335 0.057,0.335 0.057,0.335 0.057,0.335 0.057,0.335 0.057,0.335 0.057,0.335 0.057,0.335 0.057,0.335 0.057,0.335 0.057,0.335 0.057,0.335 0.057,0.335 0.057,0.335 0.057,0.335 0.057,0.335 0.057,0.335 0.057,0.335 0.057,0.335 0.057,0.335 0.057,0.335 0.057,0.335 0.057,0.335 0.057,0.335 0.057,0.335 0.057,0.335 0.057,0.335 0.057,0.335 0.057,0.335 0.057,0.335 0.057,0.335 0.057,0.335 0.057,0.335 0.057,0.335 0.057,0.335 0.057,0.335 0.057,0.335 0.057,0.335 0.057,0.335 0.057,0.335 0.057,0.335 0.057,0.335 0.057,0.335 0.057,0.335 0.057,0.335 0.057,0.335 0.057,0.335 0.057,0.335 0.057,0.335 0.057,0.335 0.057,0.335 0.057,0.335 0.057,0.335 0.057,0.335 0.057,0.335 0.057,0.335 0.057,0.335 0.057,0.335 0.057,0.335 0.057,0.335 0.057,0.335 0.057,0.335 0.057,0.335 0.057,0.335 0.057,0.335 0.057,0.335 0.057,0.335 0.057,0.335 0.057,0.335 0.057,0.335 0.057,0.335 0.057,0.335 0.057,0.335 0.057,0.335 0.057,0.335 0.057,0.335 0.057,0.335 0.057,0.335 -0.131,0.022 -0.132,0.022 -0.132,0.021 -0.132,0.021 -0.132,0.02 -0.132,0.019 -0.132,0.019 -0.132,0.018 -0.132,0.018 -0.132,0.017 -0.132,0.017 -0.132,0.016 -0.132,0.016 -0.132,0.015 -0.132,0.015 -0.132,0.014 -0.133,0.014 -0.133,0.013 -0.133,0.013 -0.133,0.012 -0.133,0.012 -0.133,0.011 -0.133,0.011 -0.133,0.01 -0.133,0.01 -0.133,0.009 -0.133,0.009 -0.133,0.008 -0.133,0.007 -0.133,0.007 -0.133,0.007 -0.133,0.006 -0.133,0.005 -0.133,0.005 -0.133,0.004 -0.133,0.004 -0.133,0.003 -0.133,0.003 -0.133,0.002 -0.133,0.002 -0.133,0.001 -0.133,0.001 H 63.84 L 63.707,97.762 63.574,97.761 63.441,97.759 63.308,97.757 63.175,97.754 63.042,97.751 62.909,97.747 62.756,97.7 62.623,97.695 62.49,97.69 62.357,97.684 62.224,97.677 62.09,97.67 61.957,97.662 61.824,97.654 61.691,97.645 61.558,97.636 61.425,97.626 61.292,97.616 61.159,97.605 61.026,97.594 60.893,97.582 60.76,97.57 60.627,97.557 60.494,97.544 60.361,97.53 60.229,97.515 60.099,97.5 59.967,97.485 59.835,97.469 59.703,97.452 59.571,97.435 59.439,97.417 59.307,97.399 59.175,97.38 59.043,97.361 58.911,97.341 58.779,97.321 58.647,97.3 58.515,97.279 58.384,97.257 58.253,97.235 58.122,97.212 57.991,97.189 57.86,97.165 l -0.131,-0.024 -0.131,-0.025 -0.131,-0.025 -0.131,-0.026 -0.131,-0.026 -0.131,-0.027 -0.13,-0.027 -0.13,-0.028 -0.13,-0.028 -0.13,-0.029 -0.13,-0.029 0.076,-0.331 0.076,-0.331 0.076,-0.331 0.076,-0.331 0.076,-0.331 0.076,-0.331 0.076,-0.331 0.076,-0.331 0.076,-0.331 0.076,-0.331 0.076,-0.331 0.076,-0.331 0.076,-0.331 0.076,-0.331 0.076,-0.331 0.076,-0.331 0.076,-0.331 0.076,-0.331 0.076,-0.331 0.076,-0.331 0.076,-0.331 0.076,-0.331 0.076,-0.331 0.076,-0.331 0.076,-0.331 0.076,-0.331 0.076,-0.331 0.076,-0.331 0.076,-0.331 0.076,-0.331 0.076,-0.331 0.076,-0.331 0.076,-0.331 0.076,-0.331 0.076,-0.331 0.076,-0.331 0.076,-0.331 0.076,-0.331 0.076,-0.331 0.076,-0.331 0.076,-0.331 0.076,-0.331 0.076,-0.331 0.076,-0.331 0.076,-0.331 0.076,-0.331 0.076,-0.331 0.076,-0.331 0.076,-0.331 0.076,-0.331 0.076,-0.331 0.076,-0.331 0.076,-0.331 0.076,-0.331 0.076,-0.331 0.076,-0.331 0.076,-0.331 0.076,-0.331 0.076,-0.331 0.076,-0.331 0.076,-0.331 0.076,-0.331 0.076,-0.331 0.076,-0.331 0.076,-0.331 0.076,-0.331 0.076,-0.331 0.076,-0.331 0.076,-0.331 0.076,-0.331 0.076,-0.331 0.076,-0.331 0.076,-0.331 0.076,-0.331 0.076,-0.331 0.076,-0.331 0.076,-0.331 0.076,-0.331 0.076,-0.331 0.076,-0.331 0.076,-0.331 0.076,-0.331 0.076,-0.331 0.076,-0.331 0.076,-0.331 0.076,-0.331 0.076,-0.331 0.076,-0.331 0.076,-0.331 0.076,-0.331 0.076,-0.331 0.076,-0.331 0.076,-0.331 0.076,-0.331 0.076,-0.331 0.076,-0.331 0.076,-0.331 0.076,-0.331 0.076,-0.331 z"
         opacity="0.6"
         id="path13" /><path
         fill="#ff6800"
         d="m 63.975,63.784 0.428,0.334 0.428,0.334 0.428,0.334 0.428,0.334 0.428,0.334 0.428,0.334 0.428,0.334 0.428,0.334 0.428,0.334 0.428,0.334 0.428,0.334 0.428,0.334 0.428,0.334 0.428,0.334 0.433,0.33 0.428,0.334 0.428,0.334 0.428,0.334 0.428,0.334 0.428,0.334 0.428,0.334 0.428,0.334 0.428,0.334 0.428,0.334 0.428,0.334 0.428,0.334 0.428,0.334 0.428,0.334 0.428,0.334 0.428,0.334 0.428,0.334 0.428,0.334 0.428,0.334 0.428,0.334 0.428,0.334 0.428,0.334 0.428,0.334 0.428,0.334 0.428,0.334 0.428,0.334 0.428,0.334 0.428,0.334 0.428,0.334 0.428,0.334 0.428,0.334 0.428,0.334 0.428,0.334 0.428,0.334 0.428,0.334 0.428,0.334 0.428,0.334 0.428,0.334 0.428,0.334 0.428,0.334 0.428,0.334 0.428,0.334 0.428,0.334 0.428,0.334 0.428,0.334 0.428,0.334 0.428,0.334 0.428,0.334 0.428,0.334 0.428,0.334 0.428,0.334 0.428,0.334 0.428,0.334 0.428,0.334 0.428,0.334 0.428,0.334 0.428,0.334 0.428,0.334 0.428,0.334 0.428,0.334 0.428,0.334 0.428,0.334 0.428,0.334 0.428,0.334 0.428,0.334 0.428,0.334 0.428,0.334 0.428,0.334 0.428,0.334 0.428,0.334 0.428,0.334 0.428,0.334 0.428,0.334 0.428,0.334 0.428,0.334 0.428,0.334 0.428,0.334 0.428,0.334 0.428,0.334 0.428,0.334 0.428,0.334 0.428,0.334 0.428,0.334 0.428,0.334 0.428,0.334 0.428,0.334 -0.079,0.101 -0.079,0.101 -0.079,0.1 -0.079,0.1 -0.08,0.1 -0.08,0.1 -0.08,0.1 -0.08,0.1 -0.081,0.099 -0.081,0.099 -0.081,0.099 -0.081,0.099 -0.082,0.099 -0.082,0.098 -0.082,0.098 -0.082,0.098 -0.083,0.098 -0.083,0.098 -0.083,0.097 -0.083,0.097 -0.083,0.097 -0.084,0.097 -0.084,0.097 -0.084,0.096 -0.084,0.096 -0.085,0.096 -0.085,0.096 -0.085,0.096 -0.085,0.095 -0.085,0.095 -0.086,0.095 -0.086,0.095 -0.086,0.095 -0.086,0.094 -0.087,0.094 -0.087,0.094 -0.087,0.094 -0.087,0.094 -0.087,0.093 -0.088,0.093 -0.088,0.093 -0.088,0.093 -0.088,0.093 -0.089,0.092 -0.089,0.092 -0.089,0.092 -0.089,0.092 -0.089,0.092 -0.09,0.091 -0.09,0.091 -0.09,0.091 -0.09,0.091 -0.09,0.09 -0.091,0.09 -0.091,0.09 -0.091,0.09 -0.091,0.09 -0.092,0.089 -0.092,0.089 -0.092,0.089 -0.092,0.089 -0.092,0.089 -0.093,0.088 -0.093,0.088 -0.093,0.088 -0.093,0.088 -0.093,0.087 -0.094,0.087 -0.094,0.087 -0.094,0.087 -0.094,0.087 -0.094,0.086 -0.068,0.066 -0.095,0.086 -0.095,0.086 -0.095,0.085 -0.095,0.085 -0.096,0.085 -0.096,0.085 -0.096,0.084 -0.096,0.084 -0.096,0.084 -0.097,0.084 -0.097,0.084 -0.097,0.083 -0.097,0.083 -0.097,0.083 -0.098,0.083 -0.098,0.082 -0.098,0.082 -0.098,0.082 -0.098,0.082 -0.099,0.082 -0.099,0.081 -0.099,0.081 -0.099,0.081 -0.099,0.081 -0.1,0.08 -0.1,0.08 -0.1,0.08 -0.339,-0.425 -0.338,-0.424 -0.339,-0.425 -0.339,-0.425 -0.339,-0.425 -0.339,-0.425 -0.339,-0.425 -0.339,-0.425 -0.339,-0.425 -0.339,-0.425 -0.339,-0.425 -0.339,-0.425 -0.339,-0.425 -0.339,-0.425 L 92.749,99.864 92.41,99.439 92.071,99.014 91.732,98.589 91.393,98.164 91.054,97.739 90.715,97.314 90.376,96.889 90.037,96.464 89.698,96.039 89.359,95.614 89.029,95.2 88.69,94.775 88.351,94.35 88.012,93.925 87.673,93.5 87.334,93.075 86.995,92.65 86.656,92.225 86.317,91.8 85.978,91.375 85.639,90.95 85.3,90.525 84.961,90.1 84.622,89.675 84.283,89.25 83.944,88.825 83.605,88.4 83.266,87.975 82.927,87.55 82.588,87.125 82.249,86.7 81.91,86.275 81.571,85.85 81.232,85.425 80.893,85 80.554,84.575 80.215,84.15 79.876,83.725 79.537,83.3 79.198,82.875 78.859,82.45 78.52,82.025 78.181,81.6 77.842,81.175 77.503,80.75 77.164,80.325 76.825,79.9 76.486,79.475 76.147,79.05 75.808,78.625 75.469,78.2 75.13,77.775 74.791,77.35 74.452,76.925 74.113,76.5 73.774,76.075 73.435,75.65 73.096,75.225 72.757,74.8 72.418,74.375 72.079,73.95 71.74,73.525 71.401,73.1 71.062,72.675 70.723,72.25 70.384,71.825 70.045,71.4 69.706,70.975 69.367,70.55 69.028,70.125 68.689,69.7 68.35,69.275 68.011,68.85 67.672,68.425 67.333,68 66.994,67.575 66.655,67.15 66.316,66.725 65.977,66.3 65.638,65.875 65.299,65.45 64.96,65.025 64.621,64.6 64.282,64.175 Z"
         opacity="0.6"
         id="path14" /><path
         fill="#2c2c2c"
         d="M 77.551,64.198 63.975,64.197 a 0.414,0.414 0 0 1 -0.128,-0.806 l 12.912,-4.194 a 0.413,0.413 0 0 1 0.521,0.265 c 0.455,1.398 0.685,2.853 0.684,4.323 a 0.413,0.413 0 0 1 -0.413,0.413 z M 66.586,63.37 h 10.545 a 13.114,13.114 0 0 0 -0.516,-3.258 z"
         id="path15" /><path
         fill="#2c2c2c"
         d="M 63.975,64.197 A 0.414,0.414 0 0 1 63.588,63.639 L 77.899,25.51 a 0.412,0.412 0 0 1 0.532,-0.242 41,41 0 0 1 11.196,6.351 0.414,0.414 0 0 1 0.066,0.581 L 64.298,64.041 a 0.415,0.415 0 0 1 -0.323,0.156 z M 78.527,26.189 65.28,61.484 88.787,32.009 a 40.163,40.163 0 0 0 -10.26,-5.82 z"
         id="path16" /><path
         fill="#2c2c2c"
         d="M 63.975,64.197 A 0.415,0.415 0 0 1 63.658,64.049 L 28.857,22.364 a 0.412,0.412 0 0 1 0.052,-0.582 54.784,54.784 0 0 1 22.892,-11.342 0.414,0.414 0 0 1 0.495,0.312 l 12.083,52.941 a 0.415,0.415 0 0 1 -0.22,0.463 0.444,0.444 0 0 1 -0.184,0.041 z M 29.757,22.152 63.188,62.196 51.581,11.339 A 53.967,53.967 0 0 0 29.757,22.152 Z"
         id="path17" /><path
         fill="#2c2c2c"
         d="M 17.224,72.681 A 0.413,0.413 0 0 1 16.818,72.342 C 15.005,62.458 16.417,52.033 20.795,42.987 a 0.414,0.414 0 0 1 0.552,-0.193 l 42.808,20.615 a 0.413,0.413 0 0 1 -0.106,0.78 l -46.75,8.485 a 0.318,0.318 0 0 1 -0.075,0.007 z m 4.136,-28.96 c -4.103,8.678 -5.448,18.61 -3.801,28.067 l 45.09,-8.183 z"
         id="path18" /><path
         fill="#2c2c2c"
         d="m 41.657,79.659 a 0.42,0.42 0 0 1 -0.341,-0.178 27.673,27.673 0 0 1 -2.177,-3.738 0.413,0.413 0 0 1 0.193,-0.552 l 24.462,-11.78 a 0.413,0.413 0 0 1 0.415,0.713 L 41.893,79.586 a 0.414,0.414 0 0 1 -0.236,0.073 z m -1.59,-3.904 a 27.058,27.058 0 0 0 1.697,2.913 L 59.42,66.436 Z"
         id="path19" /><path
         fill="#2c2c2c"
         d="m 63.99,98.132 c -2.58,0 -5.165,-0.287 -7.66,-0.857 a 0.415,0.415 0 0 1 -0.311,-0.496 l 7.552,-33.088 c 0.044,-0.192 0.223,-0.354 0.415,-0.321 a 0.412,0.412 0 0 1 0.396,0.344 l 5.685,33.46 a 0.414,0.414 0 0 1 -0.339,0.477 34.201,34.201 0 0 1 -5.738,0.481 z m -7.072,-1.574 c 4,0.86 8.22,0.98 12.264,0.344 L 63.915,65.903 Z"
         id="path20" /><path
         fill="#2c2c2c"
         d="m 97.832,106.652 a 0.413,0.413 0 0 1 -0.324,-0.156 L 63.651,64.041 a 0.413,0.413 0 0 1 0.577,-0.584 l 42.833,33.379 a 0.414,0.414 0 0 1 0.072,0.581 54.697,54.697 0 0 1 -9.045,9.146 0.409,0.409 0 0 1 -0.256,0.089 z m -31.355,-40.394 31.42,39.399 a 53.985,53.985 0 0 0 8.329,-8.423 z"
         id="path21" /></g></g></svg>
