<?xml version="1.0" encoding="UTF-8" standalone="no"?>
<!-- Created with Inkscape (http://www.inkscape.org/) -->

<svg
   width="512"
   height="512"
   viewBox="0 0 512 512"
   version="1.1"
   id="svg1"
   xml:space="preserve"
   xmlns="http://www.w3.org/2000/svg"
   xmlns:svg="http://www.w3.org/2000/svg"><defs
     id="defs1" /><g
     id="layer1"><circle
       style="fill:#2e3548;fill-opacity:1;stroke:#858585;stroke-width:8;stroke-dasharray:none;stroke-opacity:1"
       id="path1"
       cx="256.00003"
       cy="256.00006"
       r="241.31339" /><path
       d="m 177.53254,153.77239 c 56.07504,0 101.52907,45.77139 101.52907,102.22933 0,56.45794 -45.45747,102.22589 -101.52907,102.22589 C 121.46094,358.22761 76,312.45966 76,256.00172 76,199.54378 121.45749,153.77239 177.53254,153.77239 Z m 162.14022,5.98833 c 28.03752,0 50.76626,43.08423 50.76626,96.241 h 0.003 c 0,53.14297 -22.72876,96.24101 -50.76628,96.24101 -28.03752,0 -50.76627,-43.09804 -50.76627,-96.24101 0,-53.14297 22.7253,-96.241 50.76283,-96.241 z m 78.47263,10.02424 c 9.85867,0 17.85461,38.59989 17.85461,86.21676 0,47.60308 -7.99249,86.21676 -17.85461,86.21676 -9.86211,0 -17.85115,-38.60333 -17.85115,-86.21676 0,-47.61342 7.9925,-86.21676 17.85115,-86.21676 z"
       fill="#000000"
       id="path1-8"
       style="stroke-width:1.40625;fill:#ffffff" /></g></svg>
