<?xml version="1.0" encoding="UTF-8" standalone="no"?>
<!-- Created with Inkscape (http://www.inkscape.org/) -->

<svg
   width="512"
   height="512"
   viewBox="0 0 512 512"
   version="1.1"
   id="svg1"
   xml:space="preserve"
   inkscape:version="1.4.2 (f4327f4, 2025-05-13)"
   sodipodi:docname="midjourney.svg"
   xmlns:inkscape="http://www.inkscape.org/namespaces/inkscape"
   xmlns:sodipodi="http://sodipodi.sourceforge.net/DTD/sodipodi-0.dtd"
   xmlns="http://www.w3.org/2000/svg"
   xmlns:svg="http://www.w3.org/2000/svg"><sodipodi:namedview
     id="namedview1"
     pagecolor="#ffffff"
     bordercolor="#999999"
     borderopacity="1"
     inkscape:showpageshadow="2"
     inkscape:pageopacity="0"
     inkscape:pagecheckerboard="0"
     inkscape:deskcolor="#d1d1d1"
     inkscape:document-units="px"
     showgrid="false"
     inkscape:zoom="1"
     inkscape:cx="161"
     inkscape:cy="323.5"
     inkscape:window-width="1920"
     inkscape:window-height="1001"
     inkscape:window-x="-9"
     inkscape:window-y="-9"
     inkscape:window-maximized="1"
     inkscape:current-layer="layer1"><inkscape:grid
       id="grid1"
       units="mm"
       originx="0"
       originy="0"
       spacingx="1"
       spacingy="1"
       empcolor="#0099e5"
       empopacity="0.30196078"
       color="#0099e5"
       opacity="0.14901961"
       empspacing="5"
       enabled="true"
       visible="false" /></sodipodi:namedview><defs
     id="defs1"><inkscape:path-effect
       effect="fillet_chamfer"
       id="path-effect1"
       is_visible="true"
       lpeversion="1"
       nodesatellites_param="F,0,0,1,0,2.2572315,0,1 @ F,0,0,1,0,2.608162,0,1 @ F,0,0,1,0,2.5997618,0,1 @ F,0,0,1,0,3.0078049,0,1 @ F,0,0,1,0,2.2522004,0,1 @ F,0,0,1,0,2.8010871,0,1"
       radius="0"
       unit="px"
       method="auto"
       mode="F"
       chamfer_steps="1"
       flexible="false"
       use_knot_distance="true"
       apply_no_radius="true"
       apply_with_radius="true"
       only_selected="false"
       hide_knots="false" /></defs><g
     inkscape:label="Layer 1"
     inkscape:groupmode="layer"
     id="layer1"><circle
       style="fill:#2e3548;fill-opacity:1;stroke:#858585;stroke-width:8;stroke-dasharray:none;stroke-opacity:1"
       id="path1"
       inkscape:label="background"
       cx="256.00003"
       cy="256.00006"
       r="241.31339" /><g
       style="fill:none;stroke:#e7e7e7;stroke-width:18px;stroke-linecap:round;stroke-linejoin:round;stroke-opacity:1"
       id="g1"
       transform="matrix(0.48068753,0,0,0.48068753,8.9266096,10.007913)"><path
         id="waves"
         d="m 174,794 c 20,0 50,-42 85,-48 20,0 35,42 85,48 35,0 50,-42 85,-42 35,0 50,42 85,42 35,0 50,-42 85,-42 35,0 50,42 85,42 35,0 50,-42 85,-42 35,0 50,42 85,42"
         style="stroke:#e7e7e7;stroke-opacity:1" /><path
         id="hull"
         d="m 242.4,752.2 -22.9,-43.8 590,-38 c -46.4,42.2 -106,76.4 -166.3,104.4"
         style="stroke:#e7e7e7;stroke-opacity:1" /><path
         id="front_sail"
         d="M 454.4,300.4 C 554.8,331.1 695.2,479.4 743,638.8 716.8,628.5 697.2,618 660.4,627.4 624.8,497.9 561.1,374.2 454.4,300.4 Z"
         style="stroke:#e7e7e7;stroke-opacity:1" /><path
         id="rear_sail"
         d="m 267.7,229.5 c 128.6,55 305,208.1 337.4,412 -148.3,-59.8 -261.2,-27.9 -339.8,20.6 119.9,-152.4 66.1,-325.7 2.4,-432.6 z"
         style="stroke:#e7e7e7;stroke-opacity:1" /></g></g></svg>
