<?xml version="1.0" encoding="UTF-8" standalone="no"?>
<!-- Created with Inkscape (http://www.inkscape.org/) -->

<svg
   width="512"
   height="512"
   viewBox="0 0 512 512"
   version="1.1"
   id="svg1"
   xml:space="preserve"
   xmlns="http://www.w3.org/2000/svg"
   xmlns:svg="http://www.w3.org/2000/svg"><defs
     id="defs1" /><g
     id="layer1"><circle
       style="fill:#2e3548;fill-opacity:1;stroke:#858585;stroke-width:8;stroke-dasharray:none;stroke-opacity:1"
       id="path1"
       cx="256.00003"
       cy="256.00006"
       r="241.31339" /><g
       style="fill:none;stroke:#e7e7e7;stroke-width:18px;stroke-linecap:round;stroke-linejoin:round;stroke-opacity:1"
       id="g1"
       transform="matrix(0.48068753,0,0,0.48068753,8.9266096,10.007913)"><path
         id="waves"
         d="m 174,794 c 20,0 50,-42 85,-48 20,0 35,42 85,48 35,0 50,-42 85,-42 35,0 50,42 85,42 35,0 50,-42 85,-42 35,0 50,42 85,42 35,0 50,-42 85,-42 35,0 50,42 85,42"
         style="stroke:#e7e7e7;stroke-opacity:1" /><path
         id="hull"
         d="m 242.4,752.2 -22.9,-43.8 590,-38 c -46.4,42.2 -106,76.4 -166.3,104.4"
         style="stroke:#e7e7e7;stroke-opacity:1" /><path
         id="front_sail"
         d="M 454.4,300.4 C 554.8,331.1 695.2,479.4 743,638.8 716.8,628.5 697.2,618 660.4,627.4 624.8,497.9 561.1,374.2 454.4,300.4 Z"
         style="stroke:#e7e7e7;stroke-opacity:1" /><path
         id="rear_sail"
         d="m 267.7,229.5 c 128.6,55 305,208.1 337.4,412 -148.3,-59.8 -261.2,-27.9 -339.8,20.6 119.9,-152.4 66.1,-325.7 2.4,-432.6 z"
         style="stroke:#e7e7e7;stroke-opacity:1" /></g></g></svg>
