<?xml version="1.0" encoding="UTF-8" standalone="no"?>
<!-- Created with Inkscape (http://www.inkscape.org/) -->

<svg
   width="512"
   height="512"
   viewBox="0 0 512 512"
   version="1.1"
   id="svg1"
   xml:space="preserve"
   xmlns="http://www.w3.org/2000/svg"
   xmlns:svg="http://www.w3.org/2000/svg"><defs
     id="defs1" /><g
     id="layer1"><circle
       style="fill:#2e3548;fill-opacity:1;stroke:#858585;stroke-width:8;stroke-dasharray:none;stroke-opacity:1"
       id="path1"
       cx="256.00003"
       cy="256.00006"
       r="241.31339" /><path
       d="m 371.19985,329.09916 c 2.88917,-1.65917 4.67487,-4.73256 4.68547,-8.06422 l 0.168,-54.0135 c 0.0105,-3.33167 1.7963,-6.40506 4.68547,-8.06423 l 29.27947,-16.81913 c 2.88808,-1.65855 6.44108,-1.65257 9.32353,0.0157 2.88246,1.66828 4.65821,4.74607 4.65821,8.0765 v 98.19871 c 0,3.34169 -1.78766,6.42808 -4.68549,8.09223 l -110.50038,63.46842 c -2.87191,1.64871 -6.40239,1.65227 -9.27759,0.009 l -86.71839,-49.59872 c -2.90791,-1.66103 -4.70306,-4.75267 -4.70414,-8.10155 v -49.5147 c 0,-0.0561 0.0654,-0.0933 0.12128,-0.0654 0.0467,0.028 0.11196,0 0.11196,-0.0654 v -0.056 c 0,-0.0373 0.0186,-0.0747 0.056,-0.0933 l 71.42063,-41.03047 c 0.0654,-0.0373 0.0373,-0.14 -0.0373,-0.14 -0.0412,0 -0.0747,-0.0335 -0.0747,-0.0747 l 0.14001,-48.54401 c 0.0132,-3.3412 -1.76043,-6.43464 -4.65069,-8.11099 -2.89027,-1.67635 -6.45613,-1.67987 -9.3497,-0.009 l -53.08019,30.58638 c -2.88307,1.66012 -6.43185,1.66012 -9.31491,0 l -53.24799,-30.66079 c -2.88721,-1.6625 -6.44166,-1.65996 -9.32649,0.007 -2.88483,1.66661 -4.66256,4.74457 -4.66456,8.07622 v 87.73576 c 0.002,3.32801 -1.7677,6.40545 -4.64543,8.07708 -2.87773,1.67162 -6.42784,1.68451 -9.31762,0.0339 L 92.704154,301.55573 c -2.913709,-1.66435 -4.709756,-4.76468 -4.704143,-8.12023 l 0.261354,-153.35092 c 0.0072,-3.32708 1.785004,-6.39878 4.66625,-8.06251 2.881247,-1.66374 6.430289,-1.66794 9.315465,-0.0105 l 101.22281,58.13894 c 2.87831,1.65295 6.41793,1.65295 9.29625,0 l 101.1948,-58.13894 c 2.88951,-1.65939 6.44451,-1.65251 9.32757,0.0181 2.88306,1.67056 4.65689,4.7514 4.65415,8.0835 v 153.38825 c 10e-4,3.33975 -1.7819,6.42569 -4.67614,8.09222 l -52.99613,30.52085 c -2.89746,1.67032 -4.67979,4.76326 -4.67207,8.1077 0.008,3.34444 1.80427,6.42913 4.70941,8.08608 l 29.23281,16.64179 c 2.87448,1.63648 6.40038,1.62938 9.26826,-0.0186 z m 6.13217,-137.59582 c 0.003,3.36036 1.81145,6.45988 4.73581,8.1152 2.92435,1.65534 6.51278,1.61091 9.39525,-0.11628 l 28.00077,-16.80046 c 2.8117,-1.68482 4.53355,-4.72105 4.53613,-7.99889 v -34.23562 c -0.007,-3.35868 -1.81612,-6.45513 -4.73986,-8.10817 -2.92372,-1.65306 -6.51015,-1.60775 -9.3912,0.11865 l -28.00078,16.80045 c -2.81169,1.68482 -4.53353,4.72105 -4.53612,7.99889 v 34.23562 z"
       fill="#007fff"
       id="path1-8"
       style="stroke-width:1.3125" /></g></svg>
