<?xml version="1.0" encoding="UTF-8" standalone="no"?>
<!-- Created with Inkscape (http://www.inkscape.org/) -->

<svg
   width="512"
   height="512"
   viewBox="0 0 512 512"
   version="1.1"
   id="svg1"
   xml:space="preserve"
   inkscape:version="1.4.2 (f4327f4, 2025-05-13)"
   sodipodi:docname="netlify.svg"
   xmlns:inkscape="http://www.inkscape.org/namespaces/inkscape"
   xmlns:sodipodi="http://sodipodi.sourceforge.net/DTD/sodipodi-0.dtd"
   xmlns="http://www.w3.org/2000/svg"
   xmlns:svg="http://www.w3.org/2000/svg"><sodipodi:namedview
     id="namedview1"
     pagecolor="#ffffff"
     bordercolor="#999999"
     borderopacity="1"
     inkscape:showpageshadow="2"
     inkscape:pageopacity="0"
     inkscape:pagecheckerboard="0"
     inkscape:deskcolor="#d1d1d1"
     inkscape:document-units="px"
     showgrid="false"
     inkscape:zoom="1"
     inkscape:cx="161"
     inkscape:cy="323.5"
     inkscape:window-width="1920"
     inkscape:window-height="1001"
     inkscape:window-x="-9"
     inkscape:window-y="-9"
     inkscape:window-maximized="1"
     inkscape:current-layer="layer1"><inkscape:grid
       id="grid1"
       units="mm"
       originx="0"
       originy="0"
       spacingx="1"
       spacingy="1"
       empcolor="#0099e5"
       empopacity="0.30196078"
       color="#0099e5"
       opacity="0.14901961"
       empspacing="5"
       enabled="true"
       visible="false" /></sodipodi:namedview><defs
     id="defs1"><inkscape:path-effect
       effect="fillet_chamfer"
       id="path-effect1"
       is_visible="true"
       lpeversion="1"
       nodesatellites_param="F,0,0,1,0,2.2572315,0,1 @ F,0,0,1,0,2.608162,0,1 @ F,0,0,1,0,2.5997618,0,1 @ F,0,0,1,0,3.0078049,0,1 @ F,0,0,1,0,2.2522004,0,1 @ F,0,0,1,0,2.8010871,0,1"
       radius="0"
       unit="px"
       method="auto"
       mode="F"
       chamfer_steps="1"
       flexible="false"
       use_knot_distance="true"
       apply_no_radius="true"
       apply_with_radius="true"
       only_selected="false"
       hide_knots="false" /><radialGradient
       id="a"
       cy="0.82847677"
       r="38.364219"
       fx="19.992488"
       fy="0.82847677"
       gradientTransform="matrix(8.7581606,0,0,8.7677955,80.902545,80.73611)"
       cx="19.992488"
       gradientUnits="userSpaceOnUse"><stop
         offset="0%"
         stop-color="#20C6B7"
         id="stop1" /><stop
         offset="100%"
         stop-color="#4D9ABF"
         id="stop2" /></radialGradient></defs><g
     inkscape:label="Layer 1"
     inkscape:groupmode="layer"
     id="layer1"><circle
       style="fill:#2e3548;fill-opacity:1;stroke:#858585;stroke-width:8;stroke-dasharray:none;stroke-opacity:1"
       id="path1"
       inkscape:label="background"
       cx="256.00003"
       cy="256.00006"
       r="241.31339" /><path
       fill="url(#a)"
       d="m 331.42732,204.60076 -0.12268,-0.0526 c -0.0701,-0.0263 -0.1402,-0.0526 -0.20155,-0.11391 a 0.96392743,0.96392743 0 0 1 -0.24536,-0.81496 l 6.77377,-41.41383 31.76579,31.77455 -33.03642,14.05582 a 0.72732706,0.72732706 0 0 1 -0.28918,0.0526 h -0.13144 a 0.91134957,0.91134957 0 0 1 -0.17526,-0.14897 15.037268,15.037268 0 0 0 -4.33767,-3.3387 z m 46.07574,-2.52373 33.9653,33.96529 c 7.05419,7.06296 10.58567,10.58568 11.87383,14.66923 0.19278,0.60464 0.35052,1.20929 0.4732,1.83146 l -81.17145,-34.37716 a 6.379447,6.379447 0 0 0 -0.13145,-0.0526 c -0.32423,-0.13144 -0.70104,-0.28041 -0.70104,-0.61341 0,-0.33299 0.38557,-0.49072 0.7098,-0.62217 l 0.10516,-0.0438 z m 44.92777,61.36712 c -1.75259,3.29488 -5.17016,6.71244 -10.95371,12.50477 l -38.29422,38.28544 -49.52834,-10.31402 -0.26289,-0.0526 c -0.43815,-0.0701 -0.90259,-0.14897 -0.90259,-0.5433 a 14.949638,14.949638 0 0 0 -5.73975,-10.45423 c -0.20155,-0.20155 -0.14897,-0.51702 -0.0876,-0.8062 0,-0.0438 0,-0.0876 0.0175,-0.12268 l 9.31504,-57.18718 0.0351,-0.19279 c 0.0526,-0.43815 0.13145,-0.9464 0.52578,-0.9464 a 15.15995,15.15995 0 0 0 10.16505,-5.82738 c 0.0789,-0.0876 0.13145,-0.18402 0.2366,-0.2366 0.28042,-0.13145 0.61341,0 0.90259,0.12268 l 84.56273,35.77047 z m -58.05471,59.59701 -62.97075,62.97075 10.77846,-66.24811 0.0175,-0.0876 a 1.1917648,1.1917648 0 0 1 0.0526,-0.25412 c 0.0876,-0.21032 0.31547,-0.29795 0.53455,-0.38557 l 0.10515,-0.0438 a 16.211507,16.211507 0 0 0 6.09027,-4.53046 c 0.21031,-0.24536 0.46444,-0.48196 0.78867,-0.52578 a 0.7886679,0.7886679 0 0 1 0.25412,0 l 44.34067,9.1135 z m -76.29924,76.29923 -7.09801,7.09801 -78.47246,-113.41044 a 3.7155021,3.7155021 0 0 0 -0.0876,-0.12268 c -0.12268,-0.1665 -0.25412,-0.33299 -0.22784,-0.52578 0.009,-0.14021 0.0964,-0.26289 0.19278,-0.36805 l 0.0876,-0.11391 c 0.2366,-0.35052 0.43815,-0.70104 0.65721,-1.07785 l 0.17526,-0.3067 0.0263,-0.0263 c 0.12269,-0.21031 0.2366,-0.41186 0.44692,-0.52578 0.18402,-0.0876 0.43814,-0.0526 0.63969,-0.009 l 86.93749,17.92905 a 1.4371282,1.4371282 0 0 1 0.66599,0.28917 c 0.11392,0.11392 0.14021,0.2366 0.1665,0.37681 a 15.39655,15.39655 0 0 0 9.00834,10.2965 c 0.24536,0.12268 0.1402,0.39433 0.0263,0.68351 a 2.0855884,2.0855884 0 0 0 -0.13145,0.39434 c -1.09537,6.65986 -10.48928,63.9522 -13.01302,79.41885 z m -14.82696,14.8182 c -5.23149,5.17892 -8.31606,7.92173 -11.80373,9.02586 a 17.525953,17.525953 0 0 1 -10.56815,0 c -4.08354,-1.29692 -7.61502,-4.81963 -14.66922,-11.88259 l -78.80545,-78.80545 20.58423,-31.92353 a 1.3144465,1.3144465 0 0 1 0.35052,-0.41186 c 0.21908,-0.15773 0.53455,-0.0876 0.79743,0 a 21.329085,21.329085 0 0 0 14.35376,-0.72732 c 0.2366,-0.0876 0.4732,-0.14897 0.65722,0.0175 a 1.6649656,1.6649656 0 0 1 0.24537,0.28042 l 78.85801,114.43573 z m -123.44406,-89.25968 -18.07802,-18.07802 35.70037,-15.23006 a 0.73609004,0.73609004 0 0 1 0.28918,-0.0613 c 0.29794,0 0.4732,0.29794 0.63093,0.56959 a 25.500262,25.500262 0 0 0 1.13919,1.61239 l 0.11392,0.14021 c 0.10515,0.14897 0.035,0.29794 -0.0701,0.43815 l -19.7167,30.60908 z m -26.07862,-26.07862 -22.87137,-22.87137 c -3.890755,-3.89076 -6.712435,-6.71244 -8.675335,-9.13979 l 69.542975,14.42386 a 7.3609004,7.3609004 0 0 0 0.26289,0.0438 c 0.42939,0.0701 0.90259,0.14897 0.90259,0.55207 0,0.43814 -0.51702,0.63969 -0.95517,0.80619 l -0.20155,0.0876 z M 88.184615,255.04922 a 17.525953,17.525953 0 0 1 0.78867,-4.33767 c 1.29692,-4.08355 4.81964,-7.60627 11.882585,-14.66923 l 29.26835,-29.26834 a 19064.075,19064.075 0 0 0 40.53753,58.59803 c 0.2366,0.31546 0.49949,0.66598 0.22783,0.92887 a 24.326023,24.326023 0 0 0 -3.46137,4.62685 1.4020763,1.4020763 0 0 1 -0.43815,0.54331 c -0.11392,0.0701 -0.2366,0.0438 -0.36805,0.0175 h -0.0175 l -78.419875,-16.4481 z m 49.773705,-56.10934 39.35453,-39.35453 c 3.69797,1.62115 17.1579,7.30832 29.19823,12.39085 9.1135,3.85571 17.4208,7.3609 20.03217,8.50009 0.2629,0.10515 0.49949,0.21031 0.61341,0.4732 0.0701,0.15773 0.0351,0.35928 0,0.52578 a 17.552242,17.552242 0 0 0 4.58303,16.01872 c 0.26289,0.26289 0,0.6397 -0.22783,0.96393 l -0.12268,0.18402 -39.95917,61.8929 a 1.2092908,1.2092908 0 0 1 -0.37681,0.43815 c -0.21031,0.13145 -0.50825,0.0701 -0.75362,0.009 a 19.927009,19.927009 0 0 0 -4.75829,-0.64846 c -1.43713,0 -2.99694,0.26289 -4.57428,0.55207 h -0.009 c -0.17527,0.0263 -0.33299,0.0613 -0.4732,-0.0438 a 1.8402251,1.8402251 0 0 1 -0.39433,-0.44691 z m 47.30255,-47.30255 50.94794,-50.94794 c 7.0542,-7.0542 10.58568,-10.58568 14.66922,-11.87384 a 17.525953,17.525953 0 0 1 10.56815,0 c 4.08355,1.28816 7.61503,4.81964 14.66923,11.87384 l 11.04135,11.04135 -36.23491,56.1181 a 1.3582614,1.3582614 0 0 1 -0.35928,0.42062 c -0.21908,0.14897 -0.52578,0.0876 -0.78867,0 a 18.375962,18.375962 0 0 0 -16.82492,3.2423 c -0.2366,0.24537 -0.58711,0.10516 -0.88506,-0.0263 -4.732,-2.0593 -41.53651,-17.61358 -46.80305,-19.84814 z m 109.58978,-32.2127 33.45705,33.45704 -8.06194,49.93145 v 0.13144 a 1.1830019,1.1830019 0 0 1 -0.0701,0.33299 c -0.0876,0.17526 -0.26288,0.21031 -0.43814,0.26289 a 16.036247,16.036247 0 0 0 -4.80212,2.3923 1.3494984,1.3494984 0 0 0 -0.17526,0.14897 c -0.0964,0.10515 -0.19278,0.20154 -0.35051,0.21907 a 0.99897934,0.99897934 0 0 1 -0.37681,-0.0613 l -50.983,-21.66208 -0.0964,-0.0438 c -0.32423,-0.13145 -0.7098,-0.28918 -0.7098,-0.62218 a 19.261023,19.261023 0 0 0 -2.71652,-8.01812 c -0.24536,-0.4031 -0.51702,-0.82372 -0.3067,-1.23558 z m -34.45602,75.41418 47.79327,20.24247 c 0.26289,0.12268 0.55207,0.2366 0.66599,0.50826 a 0.92887553,0.92887553 0 0 1 0,0.49949 c -0.14021,0.70103 -0.26289,1.49846 -0.26289,2.30466 v 1.34073 c 0,0.333 -0.34176,0.4732 -0.65722,0.60465 l -0.0964,0.035 c -7.57121,3.23354 -106.2949,45.33088 -106.44387,45.33088 -0.14898,0 -0.30671,0 -0.45568,-0.14897 -0.26289,-0.26289 0,-0.63094 0.2366,-0.96393 a 6.6598623,6.6598623 0 0 0 0.12268,-0.17526 l 39.27566,-60.81506 0.0701,-0.10515 c 0.22784,-0.36805 0.49072,-0.77991 0.91135,-0.77991 l 0.39433,0.0613 c 0.89383,0.12269 1.68249,0.2366 2.47992,0.2366 5.95883,0 11.4795,-2.90054 14.80943,-7.86039 a 1.4020763,1.4020763 0 0 1 0.29796,-0.35052 c 0.2366,-0.17525 0.58712,-0.0876 0.85877,0.0351 z m -54.73355,80.48794 107.60935,-45.89171 c 0,0 0.15773,0 0.3067,0.14897 0.58712,0.58712 1.08661,0.98145 1.56858,1.3495 l 0.2366,0.14897 c 0.21907,0.12268 0.43814,0.26289 0.45567,0.49072 0,0.0876 0,0.14021 -0.0175,0.21908 l -9.21865,56.62635 -0.035,0.22784 c -0.0613,0.43815 -0.12268,0.93764 -0.53454,0.93764 a 15.151187,15.151187 0 0 0 -12.03157,7.42224 l -0.0438,0.0701 c -0.12268,0.20154 -0.2366,0.39433 -0.43815,0.49949 -0.18402,0.0876 -0.42062,0.0526 -0.61341,0.009 l -85.81583,-17.70121 c -0.0876,-0.0175 -1.33197,-4.54799 -1.42836,-4.55675 z"
       id="path2"
       style="fill:url(#a);stroke-width:8.76298" /></g></svg>
