<?xml version="1.0" encoding="UTF-8" standalone="no"?>
<!-- Created with Inkscape (http://www.inkscape.org/) -->

<svg
   width="512"
   height="512"
   viewBox="0 0 512 512"
   version="1.1"
   id="svg1"
   xml:space="preserve"
   xmlns="http://www.w3.org/2000/svg"
   xmlns:svg="http://www.w3.org/2000/svg"><defs
     id="defs1" /><g
     id="layer1"><circle
       style="fill:#2e3548;fill-opacity:1;stroke:#858585;stroke-width:8;stroke-dasharray:none;stroke-opacity:1"
       id="path1"
       cx="256.00003"
       cy="256.00006"
       r="241.31339" /><g
       id="g1"
       transform="matrix(7.8434119,0,0,7.8434119,67.758114,67.760075)"><path
         fill="#21a366"
         d="m 24.007,45.419 c -0.574,0 -1.143,-0.15 -1.646,-0.44 l -5.24,-3.103 c -0.783,-0.438 -0.401,-0.593 -0.143,-0.682 1.044,-0.365 1.255,-0.448 2.369,-1.081 0.117,-0.067 0.27,-0.043 0.39,0.028 l 4.026,2.389 c 0.145,0.079 0.352,0.079 0.486,0 l 15.697,-9.061 c 0.145,-0.083 0.24,-0.251 0.24,-0.424 V 14.932 c 0,-0.181 -0.094,-0.342 -0.243,-0.432 L 24.253,5.446 C 24.108,5.36 23.915,5.36 23.77,5.446 L 8.082,14.499 C 7.93,14.585 7.833,14.754 7.833,14.927 v 18.114 c 0,0.173 0.094,0.338 0.244,0.42 l 4.299,2.483 c 2.334,1.167 3.76,-0.208 3.76,-1.591 V 16.476 c 0,-0.255 0.2,-0.452 0.456,-0.452 h 1.988 c 0.248,0 0.452,0.196 0.452,0.452 v 17.886 c 0,3.112 -1.697,4.9 -4.648,4.9 -0.908,0 -1.623,0 -3.619,-0.982 L 6.647,35.907 C 5.629,35.317 5,34.216 5,33.042 V 14.928 C 5,13.749 5.629,12.649 6.646,12.067 L 22.36,3.002 c 0.994,-0.562 2.314,-0.562 3.301,0 l 15.694,9.069 C 42.367,12.656 43,13.753 43,14.932 v 18.114 c 0,1.175 -0.633,2.271 -1.646,2.861 L 25.66,44.971 c -0.503,0.291 -1.073,0.44 -1.654,0.44"
         id="path1-0" /><path
         fill="#21a366"
         d="m 28.856,32.937 c -6.868,0 -8.308,-3.153 -8.308,-5.797 0,-0.251 0.203,-0.452 0.455,-0.452 h 2.028 c 0.224,0 0.413,0.163 0.448,0.384 0.306,2.066 1.218,3.108 5.371,3.108 3.308,0 4.715,-0.747 4.715,-2.502 0,-1.01 -0.401,-1.76 -5.54,-2.263 -4.299,-0.424 -6.955,-1.371 -6.955,-4.809 0,-3.167 2.672,-5.053 7.147,-5.053 5.026,0 7.517,1.745 7.831,5.493 0.012,0.13 -0.035,0.255 -0.122,0.35 -0.086,0.09 -0.208,0.145 -0.334,0.145 h -2.039 c -0.212,0 -0.397,-0.149 -0.44,-0.354 -0.491,-2.173 -1.678,-2.868 -4.904,-2.868 -3.611,0 -4.031,1.257 -4.031,2.2 0,1.143 0.495,1.477 5.367,2.122 4.825,0.64 7.116,1.544 7.116,4.935 0,3.418 -2.853,5.379 -7.827,5.379"
         id="path2" /></g></g></svg>
