<?xml version="1.0" encoding="UTF-8" standalone="no"?>
<!-- Created with Inkscape (http://www.inkscape.org/) -->

<svg
   width="512"
   height="512"
   viewBox="0 0 512 512"
   version="1.1"
   id="svg1"
   xml:space="preserve"
   inkscape:version="1.4.2 (f4327f4, 2025-05-13)"
   sodipodi:docname="opencv.svg"
   xmlns:inkscape="http://www.inkscape.org/namespaces/inkscape"
   xmlns:sodipodi="http://sodipodi.sourceforge.net/DTD/sodipodi-0.dtd"
   xmlns="http://www.w3.org/2000/svg"
   xmlns:svg="http://www.w3.org/2000/svg"><sodipodi:namedview
     id="namedview1"
     pagecolor="#ffffff"
     bordercolor="#999999"
     borderopacity="1"
     inkscape:showpageshadow="2"
     inkscape:pageopacity="0"
     inkscape:pagecheckerboard="0"
     inkscape:deskcolor="#d1d1d1"
     inkscape:document-units="px"
     showgrid="false"
     inkscape:zoom="1"
     inkscape:cx="161"
     inkscape:cy="323.5"
     inkscape:window-width="1920"
     inkscape:window-height="1001"
     inkscape:window-x="-9"
     inkscape:window-y="-9"
     inkscape:window-maximized="1"
     inkscape:current-layer="layer1"><inkscape:grid
       id="grid1"
       units="mm"
       originx="0"
       originy="0"
       spacingx="1"
       spacingy="1"
       empcolor="#0099e5"
       empopacity="0.30196078"
       color="#0099e5"
       opacity="0.14901961"
       empspacing="5"
       enabled="true"
       visible="false" /></sodipodi:namedview><defs
     id="defs1"><inkscape:path-effect
       effect="fillet_chamfer"
       id="path-effect1"
       is_visible="true"
       lpeversion="1"
       nodesatellites_param="F,0,0,1,0,2.2572315,0,1 @ F,0,0,1,0,2.608162,0,1 @ F,0,0,1,0,2.5997618,0,1 @ F,0,0,1,0,3.0078049,0,1 @ F,0,0,1,0,2.2522004,0,1 @ F,0,0,1,0,2.8010871,0,1"
       radius="0"
       unit="px"
       method="auto"
       mode="F"
       chamfer_steps="1"
       flexible="false"
       use_knot_distance="true"
       apply_no_radius="true"
       apply_with_radius="true"
       only_selected="false"
       hide_knots="false" /></defs><g
     inkscape:label="Layer 1"
     inkscape:groupmode="layer"
     id="layer1"><circle
       style="fill:#2e3548;fill-opacity:1;stroke:#858585;stroke-width:8;stroke-dasharray:none;stroke-opacity:1"
       id="path1"
       inkscape:label="background"
       cx="256.00003"
       cy="256.00006"
       r="241.31339" /><g
       id="g1"
       transform="matrix(2.6268458,0,0,2.6268458,87.908064,87.336798)"><path
         d="m 112.871,66.602 c 9.004,5.277 15.055,15.027 15.074,26.191 0.032,16.805 -13.617,30.453 -30.48,30.48 -16.863,0.032 -30.559,-13.57 -30.59,-30.375 -0.02,-11.164 5.996,-20.933 14.984,-26.246 l 8.774,14.778 c 0.219,0.37 0.094,0.847 -0.262,1.09 -3.32,2.25 -5.496,6.046 -5.488,10.347 0.012,6.895 5.633,12.477 12.55,12.461 6.919,-0.012 12.516,-5.61 12.504,-12.504 -0.007,-4.3 -2.195,-8.09 -5.523,-10.328 -0.355,-0.242 -0.484,-0.719 -0.266,-1.09 z m 0,0"
         fill="#128dff"
         id="path1-0" /><path
         d="M 45.477,66.422 A 30.495,30.495 0 0 0 30.57,62.555 c -16.867,0 -30.535,13.625 -30.535,30.43 0,16.804 13.668,30.43 30.535,30.43 16.946,0 30.95,-14.337 30.524,-31.212 H 43.906 c -0.453,0 -0.808,0.383 -0.812,0.832 -0.043,6.723 -5.672,12.434 -12.524,12.434 -6.922,0 -12.527,-5.59 -12.527,-12.485 0,-6.894 5.605,-12.484 12.527,-12.484 1.809,0 3.532,0.383 5.086,1.074 0.383,0.168 0.836,0.04 1.047,-0.316 z m 0,0"
         fill="#8bda67"
         id="path2" /><path
         d="M 47.945,61.648 C 38.953,56.355 32.918,46.594 32.918,35.43 32.918,18.625 46.59,5 63.453,5 c 16.863,0 30.535,13.625 30.535,30.43 0,11.164 -6.035,20.925 -15.027,26.218 L 70.21,46.86 c -0.219,-0.37 -0.094,-0.847 0.266,-1.09 3.32,-2.246 5.503,-6.039 5.503,-10.34 0,-6.894 -5.609,-12.484 -12.527,-12.484 -6.918,0 -12.527,5.59 -12.527,12.485 0,4.3 2.183,8.093 5.504,10.34 0.36,0.242 0.484,0.718 0.265,1.09 z m 0,0"
         fill="#ff2a44"
         id="path3" /></g></g></svg>
