<?xml version="1.0" encoding="UTF-8" standalone="no"?>
<!-- Created with Inkscape (http://www.inkscape.org/) -->

<svg
   width="512"
   height="512"
   viewBox="0 0 512 512"
   version="1.1"
   id="svg1"
   xml:space="preserve"
   xmlns="http://www.w3.org/2000/svg"
   xmlns:svg="http://www.w3.org/2000/svg"><defs
     id="defs1" /><g
     id="layer1"><circle
       style="fill:#1f7f8c;fill-opacity:1;stroke:#858585;stroke-width:8;stroke-dasharray:none;stroke-opacity:1"
       id="path1"
       cx="256.00003"
       cy="256.00006"
       r="241.31339" /><g
       style="fill:#ffffff"
       id="g1"
       transform="matrix(1.0126582,0,0,1.0126582,53.46836,53.46836)"><path
         fill-rule="evenodd"
         clip-rule="evenodd"
         d="m 101.008,42 89.982,82.905 v -0.019 -82.6947 h 17.516 V 125.276 L 298.891,42 v 94.524 H 336 v 136.342 h -36.995 v 84.169 l -90.499,-79.51 v 80.423 H 190.99 V 278.836 L 101.11,358 V 272.866 H 64 V 136.524 h 37.008 z m 76.777,111.826 H 81.5159 v 101.738 h 19.5721 v -32.092 z m -59.16,77.323 v 88.243 l 72.365,-63.737 v -90.234 z m 90.385,23.663 v -89.476 l 72.386,65.732 v 41.798 h 0.093 v 45.625 z m 89.995,0.752 h 19.479 V 153.826 h -95.552 l 76.073,68.925 z m -17.63,-119.04 V 81.7983 l -59.398,54.7257 z m -103.454,0 H 118.524 V 81.7983 Z"
         fill="#000000"
         id="path1-7"
         style="fill:#ffffff" /></g></g></svg>
