<?xml version="1.0" encoding="UTF-8" standalone="no"?>
<!-- Created with Inkscape (http://www.inkscape.org/) -->

<svg
   width="512"
   height="512"
   viewBox="0 0 512 512"
   version="1.1"
   id="svg1"
   xml:space="preserve"
   inkscape:version="1.4.2 (f4327f4, 2025-05-13)"
   sodipodi:docname="pr.svg"
   xmlns:inkscape="http://www.inkscape.org/namespaces/inkscape"
   xmlns:sodipodi="http://sodipodi.sourceforge.net/DTD/sodipodi-0.dtd"
   xmlns="http://www.w3.org/2000/svg"
   xmlns:svg="http://www.w3.org/2000/svg"><sodipodi:namedview
     id="namedview1"
     pagecolor="#ffffff"
     bordercolor="#999999"
     borderopacity="1"
     inkscape:showpageshadow="2"
     inkscape:pageopacity="0"
     inkscape:pagecheckerboard="0"
     inkscape:deskcolor="#d1d1d1"
     inkscape:document-units="px"
     showgrid="false"
     inkscape:zoom="1"
     inkscape:cx="161"
     inkscape:cy="323.5"
     inkscape:window-width="1920"
     inkscape:window-height="1001"
     inkscape:window-x="-9"
     inkscape:window-y="-9"
     inkscape:window-maximized="1"
     inkscape:current-layer="vlpb"><inkscape:grid
       id="grid1"
       units="mm"
       originx="0"
       originy="0"
       spacingx="1"
       spacingy="1"
       empcolor="#0099e5"
       empopacity="0.30196078"
       color="#0099e5"
       opacity="0.14902"
       empspacing="5"
       enabled="true"
       visible="false" /></sodipodi:namedview><defs
     id="defs1"><inkscape:path-effect
       effect="fillet_chamfer"
       id="path-effect1"
       is_visible="true"
       lpeversion="1"
       nodesatellites_param="F,0,0,1,0,2.2572315,0,1 @ F,0,0,1,0,2.608162,0,1 @ F,0,0,1,0,2.5997618,0,1 @ F,0,0,1,0,3.0078049,0,1 @ F,0,0,1,0,2.2522004,0,1 @ F,0,0,1,0,2.8010871,0,1"
       radius="0"
       unit="px"
       method="auto"
       mode="F"
       chamfer_steps="1"
       flexible="false"
       use_knot_distance="true"
       apply_no_radius="true"
       apply_with_radius="true"
       only_selected="false"
       hide_knots="false" /></defs><g
     inkscape:label="Layer 1"
     inkscape:groupmode="layer"
     id="layer1"><circle
       style="fill:#00005b;fill-opacity:1;stroke:#858585;stroke-width:8;stroke-dasharray:none;stroke-opacity:1"
       id="path1"
       inkscape:label="background"
       cx="256.00003"
       cy="256.00006"
       r="241.31339" /><g
       id="vlpa"
       transform="matrix(1.6666667,0,0,1.6666667,55.999996,60.999996)">
	<g
   id="vlpb"
   transform="translate(-302.99999,33.599999)">
		
	</g>
	<g
   id="vlpe">
		<g
   id="vlpf">
			<path
   class="st1"
   d="M 57,164 V 61 c 0,-0.7 0.3,-1.1 1,-1.1 1.7,0 3.3,0 5.6,-0.1 2.4,-0.1 4.9,-0.1 7.6,-0.2 2.7,-0.1 5.6,-0.1 8.7,-0.2 3.1,-0.1 6.1,-0.1 9.1,-0.1 8.2,0 15,1 20.6,3.1 5,1.7 9.6,4.5 13.4,8.2 3.2,3.2 5.7,7.1 7.3,11.4 1.5,4.2 2.3,8.5 2.3,13 0,8.6 -2,15.7 -6,21.3 -4,5.6 -9.6,9.8 -16.1,12.2 -6.8,2.5 -14.3,3.4 -22.5,3.4 -2.4,0 -4,0 -5,-0.1 -1,-0.1 -2.4,-0.1 -4.3,-0.1 v 32.1 c 0.1,0.7 -0.4,1.3 -1.1,1.4 h -0.4 -19 c -0.8,0 -1.2,-0.4 -1.2,-1.3 z M 78.8,79.3 v 33.6 c 1.4,0.1 2.7,0.2 3.9,0.2 H 88 c 3.9,0 7.8,-0.6 11.5,-1.8 3.2,-0.9 6,-2.8 8.2,-5.3 2.1,-2.5 3.1,-5.9 3.1,-10.3 0.1,-3.1 -0.7,-6.2 -2.3,-8.9 -1.7,-2.6 -4.1,-4.6 -7,-5.7 -3.7,-1.5 -7.7,-2.1 -11.8,-2 -2.6,0 -4.9,0 -6.8,0.1 -2,-0.1 -3.4,0 -4.1,0.1 z"
   id="path2" />
			<path
   class="st1"
   d="m 147,85.2 h 17.5 c 1,0 1.8,0.7 2.1,1.6 0.3,0.8 0.5,1.6 0.6,2.5 0.2,1 0.4,2.1 0.5,3.1 0.1,1.1 0.2,2.3 0.2,3.6 3,-3.5 6.6,-6.4 10.7,-8.6 4.6,-2.6 9.9,-3.9 15.2,-3.9 0.7,-0.1 1.3,0.4 1.4,1.1 v 0.4 19.5 c 0,0.8 -0.5,1.1 -1.6,1.1 -3.6,-0.1 -7.3,0.2 -10.8,1 -2.9,0.6 -5.7,1.5 -8.4,2.7 -1.9,0.9 -3.7,2.1 -5.1,3.7 v 51 c 0,1 -0.4,1.4 -1.3,1.4 h -19.7 c -0.8,0.1 -1.5,-0.4 -1.6,-1.2 v -0.4 -55.4 c 0,-2.4 0,-4.9 -0.1,-7.5 -0.1,-2.6 -0.1,-5.2 -0.2,-7.8 0,-2.3 -0.2,-4.5 -0.4,-6.8 -0.1,-0.5 0.2,-1 0.7,-1.1 0,-0.1 0.2,-0.1 0.3,0 z"
   id="path3" />
		</g>
	</g>
</g></g><style
     type="text/css"
     id="style1">
	.st0{fill:#00005B;}
	.st1{fill:#9999FF;}
</style></svg>
