<?xml version="1.0" encoding="UTF-8" standalone="no"?>
<!-- Created with Inkscape (http://www.inkscape.org/) -->

<svg
   width="512"
   height="512"
   viewBox="0 0 512 512"
   version="1.1"
   id="svg1"
   xml:space="preserve"
   xmlns="http://www.w3.org/2000/svg"
   xmlns:svg="http://www.w3.org/2000/svg"><defs
     id="defs1"><linearGradient
       x1="93.693671"
       y1="96.402416"
       x2="249.84295"
       y2="96.402416"
       id="linearGradient-1"
       gradientTransform="scale(0.97573295,1.0248706)"
       gradientUnits="userSpaceOnUse"><stop
         stop-color="#21D789"
         offset="0%"
         id="stop1" /><stop
         stop-color="#07C3F2"
         offset="100%"
         id="stop2" /></linearGradient><linearGradient
       x1="-99.363401"
       y1="195.22146"
       x2="247.82193"
       y2="-14.023127"
       id="linearGradient-2"
       gradientTransform="scale(0.90355202,1.1067431)"
       gradientUnits="userSpaceOnUse"><stop
         stop-color="#FCF84A"
         offset="1%"
         id="stop3" /><stop
         stop-color="#A7EB62"
         offset="11%"
         id="stop4" /><stop
         stop-color="#5FE077"
         offset="21%"
         id="stop5" /><stop
         stop-color="#32DA84"
         offset="27%"
         id="stop6" /><stop
         stop-color="#21D789"
         offset="31%"
         id="stop7" /><stop
         stop-color="#21D789"
         offset="58%"
         id="stop8" /><stop
         stop-color="#21D789"
         offset="60%"
         id="stop9" /><stop
         stop-color="#20D68C"
         offset="69%"
         id="stop10" /><stop
         stop-color="#1ED497"
         offset="76%"
         id="stop11" /><stop
         stop-color="#19D1A9"
         offset="83%"
         id="stop12" /><stop
         stop-color="#13CCC2"
         offset="90%"
         id="stop13" /><stop
         stop-color="#0BC6E1"
         offset="97%"
         id="stop14" /><stop
         stop-color="#07C3F2"
         offset="100%"
         id="stop15" /></linearGradient><linearGradient
       x1="42.852697"
       y1="226.226"
       x2="108.52503"
       y2="95.426644"
       id="linearGradient-3"
       gradientTransform="scale(0.79668262,1.255205)"
       gradientUnits="userSpaceOnUse"><stop
         stop-color="#21D789"
         offset="0%"
         id="stop16" /><stop
         stop-color="#24D788"
         offset="16%"
         id="stop17" /><stop
         stop-color="#2FD886"
         offset="30%"
         id="stop18" /><stop
         stop-color="#41DA82"
         offset="44%"
         id="stop19" /><stop
         stop-color="#5ADC7D"
         offset="56%"
         id="stop20" /><stop
         stop-color="#7AE077"
         offset="69%"
         id="stop21" /><stop
         stop-color="#A1E36E"
         offset="81%"
         id="stop22" /><stop
         stop-color="#CFE865"
         offset="93%"
         id="stop23" /><stop
         stop-color="#F1EB5E"
         offset="100%"
         id="stop24" /></linearGradient><linearGradient
       x1="91.822069"
       y1="159.05733"
       x2="192.91335"
       y2="-13.358022"
       id="linearGradient-4"
       gradientTransform="scale(1.1263088,0.88785601)"
       gradientUnits="userSpaceOnUse"><stop
         stop-color="#21D789"
         offset="0%"
         id="stop25" /><stop
         stop-color="#24D788"
         offset="6%"
         id="stop26" /><stop
         stop-color="#2FD886"
         offset="11%"
         id="stop27" /><stop
         stop-color="#41DA82"
         offset="16%"
         id="stop28" /><stop
         stop-color="#5ADD7D"
         offset="21%"
         id="stop29" /><stop
         stop-color="#79E077"
         offset="25%"
         id="stop30" /><stop
         stop-color="#7CE076"
         offset="26%"
         id="stop31" /><stop
         stop-color="#8CE173"
         offset="50%"
         id="stop32" /><stop
         stop-color="#B2E56B"
         offset="92%"
         id="stop33" /></linearGradient><linearGradient
       x1="284.76569"
       y1="156.64188"
       x2="49.372791"
       y2="154.55618"
       id="linearGradient-5"
       gradientTransform="scale(0.97462589,1.0260347)"
       gradientUnits="userSpaceOnUse"><stop
         stop-color="#FCF84A"
         offset="39%"
         id="stop34" /><stop
         stop-color="#ECF451"
         offset="54%"
         id="stop35" /><stop
         stop-color="#C2E964"
         offset="83%"
         id="stop36" /><stop
         stop-color="#B2E56B"
         offset="92%"
         id="stop37" /></linearGradient></defs><g
     id="layer1"><circle
       style="fill:#2e3548;fill-opacity:1;stroke:#858585;stroke-width:8;stroke-dasharray:none;stroke-opacity:1"
       id="path1"
       cx="256.00003"
       cy="256.00006"
       r="241.31339" /><g
       id="g41"
       transform="matrix(1.3125,0,0,1.3125,88,88)"><polygon
         fill="url(#linearGradient-1)"
         points="254.4,102.4 227.2,157.2 182.4,144.8 143.2,144.8 179.6,40.4 "
         id="polygon37"
         style="fill:url(#linearGradient-1)" /><polygon
         fill="url(#linearGradient-2)"
         points="109.6,0 167.2,38 104,80.8 89.6,157.2 88.4,183.6 51.6,199.2 0,204.8 15.6,39.2 "
         id="polygon38"
         style="fill:url(#linearGradient-2)" /><polygon
         fill="url(#linearGradient-3)"
         points="111.2,228.4 87.6,256 0,204.8 72,97.2 104,80.8 "
         id="polygon39"
         style="fill:url(#linearGradient-3)" /><polygon
         fill="url(#linearGradient-4)"
         points="200.8,70 112,70 190.4,0 "
         id="polygon40"
         style="fill:url(#linearGradient-4)" /><polygon
         fill="url(#linearGradient-5)"
         points="173.6,127.6 224,108 256,228.8 178,255.6 74,226.4 104,80.8 116,70 179.6,64 "
         id="polygon41"
         style="fill:url(#linearGradient-5)" /><rect
         fill="#000000"
         x="48"
         y="48"
         width="160"
         height="160"
         id="rect41" /><path
         d="m 63.2,178 h 60 v 10 h -60 z M 62.8,68.8 H 90 c 16,0 25.2,9.2 25.2,22.8 0,15.2 -12,23.2 -26.8,23.2 H 77.2 v 20 H 62.8 Z m 37.6,23.6 c 0,-6.4 -4.4,-10 -12,-10 H 77.2 v 20.4 h 11.6 c 7.86,0 11.6,-4.8 11.6,-10.4 z m 20.4,10 c -0.20424,-9.184537 3.35441,-18.05348 9.85047,-24.549534 C 137.14652,71.354413 146.01546,67.795762 155.2,68 c 12.4,0 20,4 26,10.4 L 172,89.2 c -5.2,-4.8 -10.4,-7.6 -16.8,-7.6 -11.2,0 -19.2,9.2 -19.2,20.8 0,11.2 8,20.8 19.2,20.8 7.6,0 12.4,-3.2 17.6,-7.6 l 9.2,9.2 c -6.8,7.2 -14.4,12 -27.2,12 -9.0871,6.3e-4 -17.7963,-3.63636 -24.18416,-10.09937 C 124.22798,120.23762 120.69309,111.48647 120.8,102.4 Z"
         fill="#ffffff"
         id="path41" /></g></g></svg>
