<?xml version="1.0" encoding="UTF-8" standalone="no"?>
<!-- Created with Inkscape (http://www.inkscape.org/) -->

<svg
   width="512"
   height="512"
   viewBox="0 0 512 512"
   version="1.1"
   id="svg1"
   xml:space="preserve"
   inkscape:version="1.4.2 (f4327f4, 2025-05-13)"
   sodipodi:docname="pythonanywhere.svg"
   xmlns:inkscape="http://www.inkscape.org/namespaces/inkscape"
   xmlns:sodipodi="http://sodipodi.sourceforge.net/DTD/sodipodi-0.dtd"
   xmlns="http://www.w3.org/2000/svg"
   xmlns:svg="http://www.w3.org/2000/svg"><sodipodi:namedview
     id="namedview1"
     pagecolor="#ffffff"
     bordercolor="#999999"
     borderopacity="1"
     inkscape:showpageshadow="2"
     inkscape:pageopacity="0"
     inkscape:pagecheckerboard="0"
     inkscape:deskcolor="#d1d1d1"
     inkscape:document-units="px"
     showgrid="false"
     inkscape:zoom="1"
     inkscape:cx="161"
     inkscape:cy="323.5"
     inkscape:window-width="1920"
     inkscape:window-height="1001"
     inkscape:window-x="-9"
     inkscape:window-y="-9"
     inkscape:window-maximized="1"
     inkscape:current-layer="layer1"><inkscape:grid
       id="grid1"
       units="mm"
       originx="0"
       originy="0"
       spacingx="1"
       spacingy="1"
       empcolor="#0099e5"
       empopacity="0.30196078"
       color="#0099e5"
       opacity="0.14901961"
       empspacing="5"
       enabled="true"
       visible="false" /></sodipodi:namedview><defs
     id="defs1"><inkscape:path-effect
       effect="fillet_chamfer"
       id="path-effect1"
       is_visible="true"
       lpeversion="1"
       nodesatellites_param="F,0,0,1,0,2.2572315,0,1 @ F,0,0,1,0,2.608162,0,1 @ F,0,0,1,0,2.5997618,0,1 @ F,0,0,1,0,3.0078049,0,1 @ F,0,0,1,0,2.2522004,0,1 @ F,0,0,1,0,2.8010871,0,1"
       radius="0"
       unit="px"
       method="auto"
       mode="F"
       chamfer_steps="1"
       flexible="false"
       use_knot_distance="true"
       apply_no_radius="true"
       apply_with_radius="true"
       only_selected="false"
       hide_knots="false" /></defs><g
     inkscape:label="Layer 1"
     inkscape:groupmode="layer"
     id="layer1"><circle
       style="fill:#169fd7;fill-opacity:1;stroke:#858585;stroke-width:8;stroke-dasharray:none;stroke-opacity:1"
       id="path1"
       inkscape:label="background"
       cx="256.00003"
       cy="256.00006"
       r="241.31339" /><path
       d="m 247.52416,386.35364 c -1.35001,-1.65001 -3.28502,-2.73001 -4.92003,-3.82502 -1.38,-0.825 -1.92,-1.65 -1.65,-3.57001 2.74501,-16.15508 5.20502,-32.31015 7.66503,-48.75022 1.65001,-10.95005 3.30002,-21.9001 5.20502,-33.40515 2.47502,1.65001 4.93503,3.30001 7.12504,4.93502 0.54,0.54 0.27,1.36501 0.27,1.92001 -0.54001,3.82502 -1.09501,7.95004 -1.92001,11.77505 l -4.09502,26.55012 -4.11002,26.29512 c -0.285,2.19001 -0.555,4.65002 -1.095,6.85503 1.095,0.27 1.65,-0.555 2.46001,-0.825 20.80509,-10.95005 41.62518,-21.6301 62.44528,-32.59515 l 1.65,-0.81 c 0.54001,-0.285 1.08001,-0.55501 1.63501,0 2.19001,1.35 4.38002,3.00001 6.84003,4.65002 -1.095,0.54 -1.65001,1.095 -2.46001,1.365 -24.10511,12.60006 -47.92521,25.20012 -72.03032,37.80017 -0.825,0.27 -1.65001,0.54 -1.92001,1.36501 z M 174.41383,238.48298 c -0.555,4.38002 -1.36501,8.20504 -1.92001,12.04505 -1.92001,12.60006 -4.11002,24.91511 -6.03003,37.51517 -1.095,7.39503 -2.46001,14.79007 -3.55501,22.1851 -0.27,1.36501 -0.82501,1.92001 -1.92001,2.19001 -2.19001,0.54 -4.65002,1.36501 -6.84003,2.19001 -0.27,-0.555 0,-1.09501 0,-1.65001 2.19001,-13.68006 4.38002,-27.10512 6.57003,-40.80018 2.19001,-13.14006 4.11002,-26.55012 6.30003,-39.70518 0.27,-1.095 0.54,-1.92001 1.92001,-2.19001 1.905,-0.555 3.55501,-1.095 5.47502,-1.65 1.095,-0.54001 1.92001,-0.27001 3.00001,0.555 l 13.98007,13.95006 c 14.79006,14.80507 29.85013,29.59513 44.64019,44.1002 0.27001,0.285 0.54001,0.825 1.09501,1.095 -2.74501,1.09501 -5.49002,1.65001 -7.95004,2.74501 -0.825,0.27001 -1.365,-0.555 -1.65,-0.825 -3.55502,-3.55502 -7.11004,-7.12503 -10.95005,-10.68005 a 5636.4252,5636.4252 0 0 1 -40.53018,-40.26018 c -0.54001,0 -0.81001,-0.27 -1.65001,-0.81 m 71.22032,42.45019 a 124.29055,124.29055 0 0 1 -6.03003,-5.76003 c -0.555,-0.555 -0.27,-1.365 0,-1.92001 1.65001,-4.92002 3.28502,-9.85504 5.20502,-14.79006 l 18.07508,-51.75023 a 5.0700226,5.0700226 0 0 0 0.54001,-1.92001 c -1.09501,-0.27 -1.92001,0.27 -2.73002,0.54 -22.4551,7.12503 -44.64019,13.98006 -67.09529,21.0901 -3.57002,1.095 -2.47502,1.38 -4.93503,-1.09501 l -4.11002,-4.11002 c 0.55501,-0.81 1.65001,-0.81 2.47502,-1.095 26.01011,-8.20504 52.02023,-16.42508 77.77534,-24.64511 1.90501,-0.54 3.00002,-0.27 4.38002,1.095 0.81001,1.09501 2.19001,2.19001 3.28502,3.30002 1.095,0.81 1.095,1.90501 0.81,3.00001 -3.00001,8.22004 -5.74502,16.44007 -8.76004,24.64511 -6.01503,17.25008 -12.04505,34.50015 -18.07508,51.49523 a 4.7700213,4.7700213 0 0 1 -0.81,1.90501 m -4.65002,17.25008 a 79.020353,79.020353 0 0 0 -1.11001,7.95003 c 0,1.09501 -0.825,1.09501 -1.65001,1.36501 -6.01502,1.92001 -11.76005,3.84001 -17.52007,5.47502 -16.98008,5.49003 -34.23016,10.68005 -51.21023,16.17007 -0.54,0.27001 -1.36501,0.54001 -2.19001,0.81001 a 4.260019,4.260019 0 0 0 2.19001,1.65001 c 19.17008,13.14005 38.34017,26.55011 57.51025,39.70517 1.65001,1.09501 2.74502,2.19001 1.92001,4.38002 -0.555,1.92001 -0.555,3.84002 -1.095,5.76003 -0.82501,0 -1.36501,-0.555 -1.92001,-0.82501 -22.4551,-15.34506 -44.8952,-30.94513 -67.3653,-46.3052 -1.36501,-1.09501 -1.92001,-1.90501 -1.65001,-3.82502 0.285,-1.65001 0.82501,-3.01501 0.82501,-4.65002 0,-1.38001 0.825,-1.92001 1.92,-2.20501 26.55012,-8.49004 53.40024,-16.69507 79.95036,-25.20011 0.3,0 0.84,0 1.38001,-0.255 M 180.15886,130.3025 c -0.27001,2.74501 -0.82501,5.47502 -1.09501,7.95003 0,1.09501 -1.095,1.09501 -1.92001,1.09501 -4.92002,1.65 -10.12504,3.00001 -15.06007,4.65002 -18.07508,5.47502 -35.86516,10.95005 -53.94024,16.42507 -0.555,0.285 -1.38,0.285 -1.92,1.09501 0.825,0.555 1.365,1.095 2.19001,1.65 19.17008,13.42506 38.07016,27.10512 57.24025,40.53018 1.35001,1.09501 1.90501,1.92001 1.65001,3.84002 a 50.550226,50.550226 0 0 0 -1.11001,6.30003 c -0.825,-0.285 -1.365,-0.825 -2.19001,-1.11001 l -66.540288,-46.8152 c -1.65001,-1.11001 -2.19001,-2.20501 -1.65001,-3.84002 0.27,-1.65001 0.555,-3.00001 0.825,-4.65002 0,-1.09501 0.54,-1.65001 1.92001,-2.20501 l 18.900088,-5.74503 c 20.25009,-6.03002 40.24518,-12.31505 60.51027,-18.34508 0.555,-0.555 1.365,-0.555 2.19001,-0.825 m 82.15536,55.87525 c -2.19001,0.81 -4.38002,1.35 -6.57003,2.19001 -1.365,0.54 -2.46001,0.27 -3.55501,-0.82501 -7.39504,-7.66503 -15.06007,-15.06006 -22.7401,-22.7401 a 2758.8423,2758.8423 0 0 0 -27.37513,-27.10512 c -0.555,-0.54 -0.825,-1.36501 -1.92001,-1.65001 a 91.215407,91.215407 0 0 0 -1.365,8.49004 c -2.19001,12.88506 -4.11002,25.75512 -6.30003,38.34017 -1.38001,8.22004 -2.74501,16.17007 -3.84002,24.37511 -0.27,1.38001 -0.54,1.92001 -1.92001,2.19001 -2.19001,0.555 -4.65002,1.38001 -6.84003,2.19001 -0.27,-1.65001 0.27001,-3.00001 0.54001,-4.09502 l 8.22003,-50.94023 c 1.36501,-9.04504 3.01502,-18.07508 4.38002,-27.12012 0.285,-1.095 0.55501,-1.65 1.65001,-1.90501 1.92001,-0.555 3.55502,-1.095 5.47502,-1.65 1.36501,-0.55501 2.19001,-0.27 3.28502,0.825 l 21.9001,21.9001 c 11.79005,11.77505 23.8351,23.5501 35.61016,35.32516 0.27,0.555 1.095,1.095 1.365,2.20501 m 10.08005,116.32552 a 55.92025,55.92025 0 0 1 -1.95001,-11.40006 c -1.72501,-14.38506 -0.21,-28.27512 5.40002,-41.61018 8.58004,-20.82009 23.40011,-36.25516 43.5602,-46.09521 a 121.80054,121.80054 0 0 1 31.74014,-10.14004 c 0.75,0.885 0.405,1.95001 0.345,2.77501 l 0.48,4.98002 c 0.195,1.11001 -0.39,1.62001 -1.5,1.80001 -7.26004,1.69501 -14.55007,3.93002 -21.3451,7.03503 -18.42008,8.04004 -32.46014,20.50509 -41.40018,38.55017 a 74.310332,74.310332 0 0 0 -7.89004,38.16017 c 0.3,3.60002 0.6,7.17004 1.17001,10.78505 0.195,1.11001 0.135,1.93501 -1.27501,2.38501 a 53.550239,53.550239 0 0 0 -7.33503,2.77502 m 37.95017,26.55011 c 0.195,-2.74501 0.09,-5.22002 0.3,-7.95003 0.06,-1.09501 0.375,-1.62001 1.75501,-1.80001 7.21503,-1.14 14.20506,-2.85001 20.73009,-5.95503 24.09011,-10.68004 39.90018,-28.80012 46.3502,-54.42024 2.65502,-10.24504 3.10502,-20.64009 2.19001,-31.14014 0.03,-0.54 -0.18,-1.38 -0.15,-1.93501 0.09,-1.08 -0.9,-2.53501 -0.03,-3.30001 0.60001,-0.78 1.96501,-0.675 3.07502,-0.87001 1.95001,-0.42 3.63001,-0.855 5.59502,-1.53 0.85501,3.63001 1.12501,7.50003 1.15501,11.05505 a 109.80049,109.80049 0 0 1 -0.81001,23.2801 84.780378,84.780378 0 0 1 -22.17009,46.21521 c -13.05006,13.92006 -29.29514,22.3801 -47.68522,26.31011 a 42.64519,42.64519 0 0 1 -10.30504,2.02501 m 80.14535,-156.6307 c 0.81001,0.06 1.12501,-0.48 1.69501,-0.705 a 816.61864,816.61864 0 0 1 33.97515,-18.76508 c 0.58501,-0.51 1.42501,-0.72001 2.20501,-0.12 2.35501,1.53 4.99503,3.09001 7.63504,4.65002 a 8.3250372,8.3250372 0 0 1 -2.01001,1.23 c -14.25007,7.51504 -28.75513,14.74507 -43.00519,22.2451 a 12.975058,12.975058 0 0 0 -2.92502,2.55001 c -5.23502,8.14504 -10.77004,16.54508 -16.00507,24.69011 -0.93,1.57501 -0.93,1.57501 -2.50501,0.64501 -1.59001,-0.94501 -2.89501,-1.86001 -4.48502,-2.79002 -1.57501,-0.93 -1.57501,-0.93 -0.66,-2.25001 l 10.15504,-15.75007 c 2.14501,-3.15001 4.02002,-6.30002 6.15003,-9.45004 a 5.5200246,5.5200246 0 0 0 1.05001,-2.95501 2732.1422,2732.1422 0 0 1 3.16501,-49.45522 c 2.13001,0.96 3.94502,2.46001 6.07503,3.45001 2.40001,1.24501 2.85001,2.65502 2.64001,5.40003 a 1145.3451,1145.3451 0 0 0 -2.40001,30.57013 c -0.15,2.17501 -0.58501,4.35002 -0.75001,6.81003 m -58.23026,67.0203 c -0.27,3.82502 -4.74002,9.00004 -8.62503,9.55505 a 6.8700307,6.8700307 0 0 1 -6.97504,-2.40001 6.4500288,6.4500288 0 0 1 -1.155,-6.94504 13.050058,13.050058 0 0 1 6.54003,-7.23003 6.6750298,6.6750298 0 0 1 7.11003,0.495 c 2.34001,1.80001 3.57002,3.82502 3.10501,6.52503 m 27.84013,18.15008 c -0.27,3.82502 -4.75502,9.00005 -8.65504,9.82505 -2.79001,0.63 -4.92002,-0.345 -6.96003,-2.40001 a 6.0000268,6.0000268 0 0 1 -1.20001,-6.67503 c 1.35001,-3.48002 3.45002,-6.07503 6.85503,-7.50004 4.83003,-2.40001 10.32005,1.56001 9.96005,6.75003 M 89.243452,172.48269 c 2.46001,1.365 4.38002,3.00001 6.84003,4.65002 0.825,0.555 0.555,1.365 0.285,2.19001 l -2.47501,15.60007 c -3.00001,18.63008 -6.01503,36.97516 -9.03004,55.60524 0,0.54001 -0.555,1.36501 0,2.19001 0.825,-0.555 1.65001,-0.825 2.46001,-1.365 l 61.620278,-33.69015 c 1.65,-0.82501 2.73001,-0.82501 4.11001,0.27 1.65001,1.38 3.28502,2.47501 5.20503,3.84002 -0.555,0.825 -1.38001,1.095 -1.92001,1.365 -23.83511,13.15506 -47.65521,26.02512 -71.205318,39.15018 -1.65001,0.84 -2.74501,1.11 -4.11002,-0.25501 -1.095,-1.095 -2.46001,-1.92 -3.82501,-2.74501 -1.09501,-0.54 -1.38001,-1.365 -1.09501,-2.46001 1.09501,-6.57003 2.19001,-12.87006 3.00001,-19.44009 3.30002,-20.82009 6.85503,-41.64018 10.14005,-62.44527 a 3.7950169,3.7950169 0 0 1 0,-2.46001"
       fill="#000000"
       stroke-width="15.0001"
       id="path1-4"
       style="fill:#ffffff" /></g></svg>
