<?xml version="1.0" encoding="UTF-8" standalone="no"?>
<!-- Created with Inkscape (http://www.inkscape.org/) -->

<svg
   width="512"
   height="512"
   viewBox="0 0 512 512"
   version="1.1"
   id="svg1"
   xml:space="preserve"
   xmlns="http://www.w3.org/2000/svg"
   xmlns:svg="http://www.w3.org/2000/svg"><defs
     id="defs1" /><g
     id="layer1"><circle
       style="fill:#2e3548;fill-opacity:1;stroke:#858585;stroke-width:8;stroke-dasharray:none;stroke-opacity:1"
       id="path1"
       cx="256.00003"
       cy="256.00006"
       r="241.31339" /><path
       d="m 361.03387,180.8307 c 58.51015,58.51015 58.51015,152.37019 0,211.28667 -57.29121,58.51017 -151.55757,58.51017 -210.06773,0 -58.510161,-58.51016 -58.510161,-152.77652 0,-211.28667 L 255.79684,75.999998 v 52.415352 l -9.75169,9.75169 -69.48082,69.48081 c -43.88261,43.06997 -43.88261,113.76974 0,157.65237 43.06998,43.88261 113.76976,43.88261 157.65238,0 43.88261,-43.06999 43.88261,-113.76976 0,-157.65237 z m -52.41536,-6.50113 c -10.77142,0 -19.50338,-8.73197 -19.50338,-19.50339 0,-10.77142 8.73196,-19.50338 19.50338,-19.50338 10.77142,0 19.50338,8.73196 19.50338,19.50338 0,10.77142 -8.73196,19.50339 -19.50338,19.50339 z"
       fill="#ee4c2c"
       id="path1-8"
       style="stroke-width:1.16341" /></g></svg>
