<?xml version="1.0" encoding="UTF-8" standalone="no"?>
<!-- Created with Inkscape (http://www.inkscape.org/) -->

<svg
   width="512"
   height="512"
   viewBox="0 0 512 512"
   version="1.1"
   id="svg1"
   xml:space="preserve"
   xmlns="http://www.w3.org/2000/svg"
   xmlns:svg="http://www.w3.org/2000/svg"><defs
     id="defs1" /><g
     id="layer1"><circle
       style="fill:#2e3548;fill-opacity:1;stroke:#858585;stroke-width:8;stroke-dasharray:none;stroke-opacity:1"
       id="path1"
       cx="256.00003"
       cy="256.00006"
       r="241.31339" /><g
       id="g1"
       transform="matrix(3.4553993,0,0,3.4553993,45.218969,35.065161)"><path
         style="fill:#17b5f5;fill-opacity:1;fill-rule:nonzero;stroke:none"
         d="M 95.671875,112.55469 78.242188,95.214844 77.996094,95.257812 V 95.074219 L 40.929688,58.417969 50.082031,49.597656 44.699219,18.757812 19.230469,50.355469 c -4.324219,4.367187 -5.15625,11.507812 -2.023438,16.75 L 33.125,93.527344 c 2.433594,4.050781 6.257812,6.656246 11.597656,6.464844 11.304688,-0.402344 16.273438,-0.402344 16.273438,-0.402344 l 34.667968,12.957036 0.0078,0.0117 z m 0,0"
         id="path1-0" /><path
         style="fill:#ab7df3;fill-opacity:1;fill-rule:nonzero;stroke:none"
         d="m 104.28516,63.960938 c 2.50781,-5.175782 3.40625,-9.703126 0.92968,-14.253907 l -3.52343,-6.484375 -1.828129,-3.328125 -0.710937,-1.296875 -0.06641,0.07422 L 89.5,22.042969 C 87.082031,17.835938 82.582031,15.265625 77.734375,15.320312 l -8.40625,0.238282 -25.09375,0.06641 C 39.496094,15.65625 35.125,18.175781 32.722656,22.257812 l -15.246094,30.28125 27.285157,-33.945312 35.792969,39.359375 -6.40625,6.492187 3.824218,30.792969 0.05469,-0.07031 v 0.08984 h -0.05469 l 0.07422,0.07422 2.984375,2.90625 14.4375,14.101559 c 0.605469,0.58594 1.589844,-0.11718 1.1875,-0.83984 L 87.730469,93.9375"
         id="path2" /><path
         style="fill:#ffffff;fill-opacity:1;fill-rule:nonzero;stroke:none"
         d="M 80.640625,57.855469 44.753906,18.695312 49.851562,49.359375 40.71875,58.222656 77.90625,95.179688 74.554688,64.5 80.640625,57.867188 Z m 0,0"
         id="path3" /></g></g></svg>
