<?xml version="1.0" encoding="UTF-8" standalone="no"?>
<!-- Created with Inkscape (http://www.inkscape.org/) -->

<svg
   width="512"
   height="512"
   viewBox="0 0 512 512"
   version="1.1"
   id="svg1"
   xml:space="preserve"
   inkscape:version="1.4.2 (f4327f4, 2025-05-13)"
   sodipodi:docname="redux.svg"
   xmlns:inkscape="http://www.inkscape.org/namespaces/inkscape"
   xmlns:sodipodi="http://sodipodi.sourceforge.net/DTD/sodipodi-0.dtd"
   xmlns="http://www.w3.org/2000/svg"
   xmlns:svg="http://www.w3.org/2000/svg"><sodipodi:namedview
     id="namedview1"
     pagecolor="#ffffff"
     bordercolor="#999999"
     borderopacity="1"
     inkscape:showpageshadow="2"
     inkscape:pageopacity="0"
     inkscape:pagecheckerboard="0"
     inkscape:deskcolor="#d1d1d1"
     inkscape:document-units="px"
     showgrid="false"
     inkscape:zoom="1"
     inkscape:cx="161"
     inkscape:cy="323.5"
     inkscape:window-width="1920"
     inkscape:window-height="1001"
     inkscape:window-x="-9"
     inkscape:window-y="-9"
     inkscape:window-maximized="1"
     inkscape:current-layer="layer1"><inkscape:grid
       id="grid1"
       units="mm"
       originx="0"
       originy="0"
       spacingx="1"
       spacingy="1"
       empcolor="#0099e5"
       empopacity="0.30196078"
       color="#0099e5"
       opacity="0.14901961"
       empspacing="5"
       enabled="true"
       visible="false" /></sodipodi:namedview><defs
     id="defs1"><inkscape:path-effect
       effect="fillet_chamfer"
       id="path-effect1"
       is_visible="true"
       lpeversion="1"
       nodesatellites_param="F,0,0,1,0,2.2572315,0,1 @ F,0,0,1,0,2.608162,0,1 @ F,0,0,1,0,2.5997618,0,1 @ F,0,0,1,0,3.0078049,0,1 @ F,0,0,1,0,2.2522004,0,1 @ F,0,0,1,0,2.8010871,0,1"
       radius="0"
       unit="px"
       method="auto"
       mode="F"
       chamfer_steps="1"
       flexible="false"
       use_knot_distance="true"
       apply_no_radius="true"
       apply_with_radius="true"
       only_selected="false"
       hide_knots="false" /></defs><g
     inkscape:label="Layer 1"
     inkscape:groupmode="layer"
     id="layer1"><circle
       style="fill:#2e3548;fill-opacity:1;stroke:#858585;stroke-width:8;stroke-dasharray:none;stroke-opacity:1"
       id="path1"
       inkscape:label="background"
       cx="256.00003"
       cy="256.00006"
       r="241.31339" /><path
       d="m 324.27032,322.65972 c 13.06069,-1.35211 22.96923,-12.61138 22.51853,-26.12415 -0.44932,-13.51139 -11.70997,-24.32134 -25.22136,-24.32134 h -0.90003 c -13.96348,0.4507 -24.77203,12.16067 -24.32134,26.12276 0.45071,6.75639 3.15216,12.61138 7.20571,16.66493 -15.31282,30.17771 -38.73275,52.24691 -73.86265,70.71327 -23.87063,12.61137 -48.64129,17.11563 -73.41195,13.96348 -20.26778,-2.70283 -36.0313,-11.70997 -45.94122,-26.57485 -14.411418,-22.0692 -15.762143,-45.94122 -3.60147,-69.81186 8.55781,-17.11563 22.06782,-29.727 30.62564,-36.03269 -1.80143,-5.85498 -4.50426,-15.76352 -5.85499,-22.96923 -65.306217,47.29195 -58.549829,111.24883 -38.73275,141.42515 14.86212,22.52129 45.03844,36.48339 78.36691,36.48339 9.00713,0 18.01427,-0.9014 27.02278,-3.15216 57.64982,-11.26064 101.33753,-45.4919 126.10819,-96.3867 z m 79.26831,-55.84977 C 369.30876,226.72371 318.86604,204.65449 261.21622,204.65449 h -7.2057 c -4.05356,-8.1071 -12.61137,-13.51277 -22.06921,-13.51277 h -0.9014 c -13.96072,0.4507 -24.76928,12.16067 -24.31996,26.12415 0.4507,13.51139 11.70997,24.32134 25.22136,24.32134 h 0.90002 c 9.90854,-0.4507 18.46636,-6.75639 22.06921,-15.31421 h 8.10711 c 34.22988,0 66.65695,9.90855 95.93325,29.2763 22.51853,14.86351 38.73275,34.23126 47.73989,57.6512 7.65641,18.91706 7.20571,37.38341 -0.90141,53.14832 -12.60999,23.87063 -33.77779,36.9327 -61.70198,36.9327 -18.01566,0 -35.1299,-5.40566 -44.13842,-9.45921 -4.95358,4.50425 -13.9621,11.70996 -20.26778,16.2156 C 299.04896,419.04504 318.86604,424 337.78171,424 c 43.23701,0 75.21476,-23.87201 87.37543,-47.74265 13.06069,-26.12415 12.15929,-71.16397 -21.61851,-109.4474 z m -228.79643,63.5048 c 0.4507,13.51277 11.70997,24.32133 25.22136,24.32133 h 0.90141 c 13.96209,-0.44931 24.77065,-12.16066 24.31995,-26.12276 -0.44932,-13.51278 -11.70996,-24.32134 -25.22136,-24.32134 h -0.90002 c -0.90141,0 -2.25351,0 -3.15215,0.44932 -18.46635,-30.62702 -26.12276,-63.95549 -23.41994,-99.98819 1.80005,-27.02416 10.80857,-50.44548 26.57209,-69.81324 13.06069,-16.66493 38.28205,-24.77204 55.39768,-25.22136 47.73989,-0.90141 68.00629,58.55122 69.35839,82.42323 5.85499,1.35073 15.76353,4.50426 22.51992,6.75639 -5.40567,-72.96401 -50.4441,-110.798127 -93.67974,-110.798127 -40.53556,0 -77.91759,29.276297 -92.78109,72.514697 -20.71709,57.65119 -7.2057,113.05026 18.01566,156.73935 -2.25075,3.15215 -3.60286,8.10712 -3.15215,13.06208 z"
       fill="#764abc"
       id="path1-8"
       style="stroke-width:1.38252" /></g></svg>
