<?xml version="1.0" encoding="UTF-8" standalone="no"?>
<!-- Created with Inkscape (http://www.inkscape.org/) -->

<svg
   width="512"
   height="512"
   viewBox="0 0 512 512"
   version="1.1"
   id="svg1"
   xml:space="preserve"
   inkscape:version="1.4.2 (f4327f4, 2025-05-13)"
   sodipodi:docname="ruby.svg"
   xmlns:inkscape="http://www.inkscape.org/namespaces/inkscape"
   xmlns:sodipodi="http://sodipodi.sourceforge.net/DTD/sodipodi-0.dtd"
   xmlns="http://www.w3.org/2000/svg"
   xmlns:svg="http://www.w3.org/2000/svg"><sodipodi:namedview
     id="namedview1"
     pagecolor="#ffffff"
     bordercolor="#999999"
     borderopacity="1"
     inkscape:showpageshadow="2"
     inkscape:pageopacity="0"
     inkscape:pagecheckerboard="0"
     inkscape:deskcolor="#d1d1d1"
     inkscape:document-units="px"
     showgrid="false"
     inkscape:zoom="1"
     inkscape:cx="161"
     inkscape:cy="323.5"
     inkscape:window-width="1920"
     inkscape:window-height="1001"
     inkscape:window-x="-9"
     inkscape:window-y="-9"
     inkscape:window-maximized="1"
     inkscape:current-layer="layer1"><inkscape:grid
       id="grid1"
       units="mm"
       originx="0"
       originy="0"
       spacingx="1"
       spacingy="1"
       empcolor="#0099e5"
       empopacity="0.30196078"
       color="#0099e5"
       opacity="0.14901961"
       empspacing="5"
       enabled="true"
       visible="false" /></sodipodi:namedview><defs
     id="defs1"><inkscape:path-effect
       effect="fillet_chamfer"
       id="path-effect1"
       is_visible="true"
       lpeversion="1"
       nodesatellites_param="F,0,0,1,0,2.2572315,0,1 @ F,0,0,1,0,2.608162,0,1 @ F,0,0,1,0,2.5997618,0,1 @ F,0,0,1,0,3.0078049,0,1 @ F,0,0,1,0,2.2522004,0,1 @ F,0,0,1,0,2.8010871,0,1"
       radius="0"
       unit="px"
       method="auto"
       mode="F"
       chamfer_steps="1"
       flexible="false"
       use_knot_distance="true"
       apply_no_radius="true"
       apply_with_radius="true"
       only_selected="false"
       hide_knots="false" /></defs><g
     inkscape:label="Layer 1"
     inkscape:groupmode="layer"
     id="layer1"><circle
       style="fill:#2e3548;fill-opacity:1;stroke:#858585;stroke-width:8;stroke-dasharray:none;stroke-opacity:1"
       id="path1"
       inkscape:label="background"
       cx="256.00003"
       cy="256.00006"
       r="241.31339" /><path
       fill="#d91404"
       fill-rule="evenodd"
       d="m 185.30724,375.37324 c 69.27404,9.45815 137.31725,18.74732 206.71235,28.21808 -23.64286,-39.36104 -46.67788,-77.71575 -69.89701,-116.38319 z M 411.57149,157.50028 c -6.1062,9.17062 -12.22498,18.33368 -18.3236,27.50935 -20.94413,31.50952 -41.88574,63.01904 -62.80971,94.54369 -1.16524,1.75544 -2.67602,3.14768 -1.03409,5.85397 20.21776,33.38601 40.2766,66.8704 60.38589,100.32452 3.17289,5.28396 6.38111,10.54773 10.48468,15.6173 4.06575,-81.19635 8.12897,-162.39523 12.19219,-243.59157 z M 135.5725,261.59796 c 0.94581,0.89538 3.30657,1.41747 4.40623,0.8752 19.393,-9.53129 38.90958,-18.85073 57.87886,-29.16642 6.18689,-3.36206 10.94371,-9.39005 16.27306,-14.27803 17.64765,-16.18479 35.26755,-32.40237 52.87989,-48.62247 1.07698,-0.99626 2.3532,-1.95973 2.99635,-3.21578 6.32561,-12.36369 12.54278,-24.79044 18.97937,-37.57534 -7.67499,-2.88537 -14.95145,-5.70768 -22.31872,-8.27525 -0.99879,-0.34807 -2.57263,0.343 -3.65463,0.94581 -17.05242,9.52625 -34.42515,18.54554 -50.93531,28.93438 -8.26012,5.1982 -14.98928,12.85805 -22.30358,19.52919 -11.78865,10.7596 -23.56216,21.54441 -35.17929,32.49065 -3.0821,2.90555 -5.89179,6.22472 -8.2929,9.72046 -7.94485,11.56921 -15.65262,23.30489 -23.71348,35.37349 4.50459,4.65845 8.6006,9.11261 12.98415,13.26411 z m 70.87813,-15.81655 c -9.64731,40.75581 -19.23662,81.28211 -29.14624,123.14011 46.46601,-29.94073 91.8601,-59.19039 136.95405,-88.24331 -35.8855,-11.61461 -71.65496,-23.19391 -107.80781,-34.8968 z m 193.27672,-87.88768 c -39.26016,6.56018 -77.58208,12.96146 -116.39833,19.44597 13.22124,32.16024 26.17765,63.6748 39.50229,96.08474 25.77914,-38.73807 51.0488,-76.69931 76.89604,-115.53071 z m -191.65749,79.55189 c 35.35333,11.4759 70.00294,22.72479 105.65892,34.30158 -13.24141,-32.25861 -26.02883,-63.38981 -39.08109,-95.17929 -22.23296,20.3262 -44.133,40.35226 -66.57783,60.87771 z m -71.03702,47.91879 c -12.53774,29.971 -24.64922,58.92304 -36.98012,88.39716 23.69835,-0.70117 46.6703,-1.37963 70.4317,-2.08079 -11.15557,-28.78306 -22.09173,-57.00114 -33.45158,-86.31637 z m 34.2839,65.81866 0.87267,-0.19169 c 8.45685,-35.16163 17.03477,-70.08113 25.66817,-106.61734 -19.25932,10.0105 -37.63084,19.55693 -56.50427,29.36819 9.63218,25.0351 19.90247,51.44479 29.96343,77.44084 z M 385.51743,152.1911 c -11.24638,-2.97869 -22.49276,-5.96747 -33.74417,-8.92597 -16.17218,-4.25239 -32.35697,-8.45181 -48.51907,-12.74203 -2.02025,-0.53722 -3.48059,-0.88781 -4.66854,1.54609 -5.71272,11.70289 -11.602,23.3175 -17.40552,34.97752 -0.17908,0.36067 -0.14124,0.82726 -0.27996,1.73273 35.02291,-5.30665 69.81126,-10.58052 104.59456,-15.85187 z m -65.24612,-26.61903 91.66336,25.35794 c -5.25621,-14.97919 -10.13157,-28.8688 -15.14565,-43.1544 l -76.38404,16.9364 z M 179.08757,382.1251 c -11.35231,-1.30901 -23.00728,-0.10593 -34.52101,0.0933 -9.45814,0.1589 -18.91629,0.51957 -28.37445,0.81466 -0.97356,0.0303 -1.9446,0.227 -2.91563,1.27622 78.19496,7.22858 156.38739,14.45712 234.57984,21.69072 l 0.15889,-1.04418 c -25.06536,-3.42259 -50.13326,-6.84518 -75.19862,-10.26525 -31.2346,-4.265 -62.41624,-8.95624 -93.72902,-12.56547 z m -77.48876,-35.34322 c 10.07609,-23.38056 20.10929,-46.77625 30.22573,-70.13915 1.0114,-2.3431 0.93321,-3.93459 -1.04669,-5.82118 -4.23222,-4.02791 -8.16428,-8.36857 -12.78995,-13.18087 -6.25248,30.87141 -12.35109,60.9786 -18.454753,91.08327 l 0.683513,0.32032 c 0.46659,-0.74909 1.03661,-1.45782 1.38215,-2.26239 z M 300.19479,119.40031 c 16.99189,-4.38353 34.23095,-7.81118 51.36912,-11.63479 1.10976,-0.24969 2.19429,-0.61541 3.2864,-0.92815 L 354.68133,106 c -24.13973,3.24604 -48.27694,6.4946 -73.63235,9.9071 6.91328,3.01904 12.2401,5.27386 19.14581,3.49321 z"
       clip-rule="evenodd"
       id="path1-4"
       style="stroke-width:2.52218" /></g></svg>
