<?xml version="1.0" encoding="UTF-8" standalone="no"?>
<!-- Created with Inkscape (http://www.inkscape.org/) -->

<svg
   width="512"
   height="512"
   viewBox="0 0 512 512"
   version="1.1"
   id="svg1"
   xml:space="preserve"
   xmlns:xlink="http://www.w3.org/1999/xlink"
   xmlns="http://www.w3.org/2000/svg"
   xmlns:svg="http://www.w3.org/2000/svg"><defs
     id="defs1"><linearGradient
       x1="0%"
       y1="50%"
       x2="100%"
       y2="50%"
       id="linearGradient-1"><stop
         stop-color="#4F4F4F"
         offset="0%"
         id="stop1" /><stop
         stop-color="#000000"
         offset="100%"
         id="stop2" /></linearGradient><linearGradient
       x1="0%"
       y1="50%"
       x2="100%"
       y2="50%"
       id="linearGradient-2"><stop
         stop-color="#C40000"
         offset="0%"
         id="stop3" /><stop
         stop-color="#FF0000"
         offset="100%"
         id="stop4" /></linearGradient><linearGradient
       xlink:href="#linearGradient-1"
       id="linearGradient1"
       x1="0"
       y1="444.17414"
       x2="156.76734"
       y2="444.17414"
       gradientTransform="scale(1.6329932,0.61237244)"
       gradientUnits="userSpaceOnUse" /><linearGradient
       xlink:href="#linearGradient-1"
       id="linearGradient2"
       x1="0"
       y1="235.15102"
       x2="156.76734"
       y2="235.15102"
       gradientTransform="scale(1.6329932,0.61237244)"
       gradientUnits="userSpaceOnUse" /><linearGradient
       xlink:href="#linearGradient-2"
       id="linearGradient3"
       x1="0"
       y1="263.1015"
       x2="202.38577"
       y2="263.1015"
       gradientTransform="scale(1.2649111,0.79056942)"
       gradientUnits="userSpaceOnUse" /><linearGradient
       xlink:href="#linearGradient-2"
       id="linearGradient4"
       x1="0"
       y1="101.19289"
       x2="202.38577"
       y2="101.19289"
       gradientTransform="scale(1.2649111,0.79056942)"
       gradientUnits="userSpaceOnUse" /><linearGradient
       xlink:href="#linearGradient-2"
       id="linearGradient5"
       x1="0"
       y1="425.01012"
       x2="202.38577"
       y2="425.01012"
       gradientTransform="scale(1.2649111,0.79056942)"
       gradientUnits="userSpaceOnUse" /></defs><g
     id="layer1"><circle
       style="fill:#2e3548;fill-opacity:1;stroke:#858585;stroke-width:8;stroke-dasharray:none;stroke-opacity:1"
       id="path1"
       cx="256.00003"
       cy="256.00006"
       r="241.31339" /><g
       id="g8"
       transform="matrix(0.76923077,0,0,0.76923077,157.53846,96)"><path
         d="m 0,288 v -32 c 0,-5.39378 116.37689,-14.42844 192.19911,-32 v 0 C 228.82844,232.49067 256,242.96889 256,256 v 0 32 c 0,13.024 -27.17156,23.50933 -63.80089,32 v 0 C 116.37689,302.42489 0,293.39022 0,288"
         fill="url(#linearGradient-1)"
         transform="matrix(1,0,0,-1,0,544)"
         id="path4"
         style="fill:url(#linearGradient1)" /><path
         d="m 0,160 v -32 c 0,-5.39378 116.37689,-14.42844 192.19911,-32 v 0 C 228.82844,104.49067 256,114.96889 256,128 v 0 32 c 0,13.024 -27.17156,23.50933 -63.80089,32 v 0 C 116.37689,174.42489 0,165.39022 0,160"
         fill="url(#linearGradient-1)"
         transform="matrix(1,0,0,-1,0,288)"
         id="path5"
         style="fill:url(#linearGradient2)" /><path
         d="m 0,224 v -96 c 0,8 256,24 256,64 v 0 96 C 256,248 0,232 0,224"
         fill="url(#linearGradient-2)"
         transform="matrix(1,0,0,-1,0,416)"
         id="path6"
         style="fill:url(#linearGradient3)" /><path
         d="M 0,96 V 0 c 0,8 256,24 256,64 v 0 96 C 256,120 0,104 0,96"
         fill="url(#linearGradient-2)"
         transform="matrix(1,0,0,-1,0,160)"
         id="path7"
         style="fill:url(#linearGradient4)" /><path
         d="m 0,352 v -96 c 0,8 256,24 256,64 v 0 96 C 256,376 0,360 0,352"
         fill="url(#linearGradient-2)"
         transform="matrix(1,0,0,-1,0,672)"
         id="path8"
         style="fill:url(#linearGradient5)" /></g></g></svg>
