<?xml version="1.0" encoding="UTF-8" standalone="no"?>
<!-- Created with Inkscape (http://www.inkscape.org/) -->

<svg
   width="512"
   height="512"
   viewBox="0 0 512 512"
   version="1.1"
   id="svg1"
   xml:space="preserve"
   xmlns="http://www.w3.org/2000/svg"
   xmlns:svg="http://www.w3.org/2000/svg"><defs
     id="defs1"><linearGradient
       id="a"
       x1="27.5"
       x2="152"
       y1="3"
       y2="63.5"
       gradientTransform="matrix(0.80503,0,0,0.80503,-3.22,1.507)"
       gradientUnits="userSpaceOnUse"><stop
         offset=".1"
         stop-color="#76b3e1"
         id="stop1" /><stop
         offset=".3"
         stop-color="#dcf2fd"
         id="stop2" /><stop
         offset="1"
         stop-color="#76b3e1"
         id="stop3" /></linearGradient><linearGradient
       id="b"
       x1="95.8"
       x2="74"
       y1="32.6"
       y2="105.2"
       gradientTransform="matrix(0.80503,0,0,0.80503,-3.22,1.507)"
       gradientUnits="userSpaceOnUse"><stop
         offset="0"
         stop-color="#76b3e1"
         id="stop4" /><stop
         offset=".5"
         stop-color="#4377bb"
         id="stop5" /><stop
         offset="1"
         stop-color="#1f3b77"
         id="stop6" /></linearGradient><linearGradient
       id="c"
       x1="18.4"
       x2="144.3"
       y1="64.2"
       y2="149.8"
       gradientTransform="matrix(0.80503,0,0,0.80503,-3.22,1.507)"
       gradientUnits="userSpaceOnUse"><stop
         offset="0"
         stop-color="#315aa9"
         id="stop7" /><stop
         offset=".5"
         stop-color="#518ac8"
         id="stop8" /><stop
         offset="1"
         stop-color="#315aa9"
         id="stop9" /></linearGradient><linearGradient
       id="d"
       x1="75.2"
       x2="24.4"
       y1="74.5"
       y2="260.8"
       gradientTransform="matrix(0.80503,0,0,0.80503,-3.22,1.507)"
       gradientUnits="userSpaceOnUse"><stop
         offset="0"
         stop-color="#4377bb"
         id="stop10" /><stop
         offset=".5"
         stop-color="#1a336b"
         id="stop11" /><stop
         offset="1"
         stop-color="#1a336b"
         id="stop12" /></linearGradient></defs><g
     id="layer1"><circle
       style="fill:#2e3548;fill-opacity:1;stroke:#858585;stroke-width:8;stroke-dasharray:none;stroke-opacity:1"
       id="path1"
       cx="256.00003"
       cy="256.00006"
       r="241.31339" /><g
       id="g1"
       transform="matrix(2.820985,0,0,2.820985,75.45696,75.456285)"><path
         fill="#76b3e1"
         d="m 128,29.683 c 0,0 -42.667,-31.396 -75.673,-24.151 l -2.415,0.805 c -4.83,1.61 -8.855,4.025 -11.27,7.245 l -1.61,2.415 -12.076,20.931 20.93,4.025 c 8.856,5.636 20.127,8.05 30.592,5.636 l 37.031,7.245 z"
         id="path12" /><path
         fill="url(#a)"
         d="m 128,29.683 c 0,0 -42.667,-31.396 -75.673,-24.151 l -2.415,0.805 c -4.83,1.61 -8.855,4.025 -11.27,7.245 l -1.61,2.415 -12.076,20.931 20.93,4.025 c 8.856,5.636 20.127,8.05 30.592,5.636 l 37.031,7.245 z"
         opacity="0.3"
         id="path13"
         style="fill:url(#a)" /><path
         fill="#518ac8"
         d="m 38.642,29.683 -3.22,0.805 C 21.735,34.513 17.71,47.394 24.955,58.664 c 8.05,10.465 24.956,16.1 38.641,12.076 l 49.912,-16.906 c 0,0 -42.665,-31.396 -74.866,-24.151 z"
         id="path14" /><path
         fill="url(#b)"
         d="m 38.642,29.683 -3.22,0.805 C 21.735,34.513 17.71,47.394 24.955,58.664 c 8.05,10.465 24.956,16.1 38.641,12.076 l 49.912,-16.906 c 0,0 -42.665,-31.396 -74.866,-24.151 z"
         opacity="0.3"
         id="path15"
         style="fill:url(#b)" /><path
         fill="url(#c)"
         d="M 104.654,65.91 A 36.226,36.226 0 0 0 66.013,53.834 L 16.1,69.934 0,98.111 l 90.164,15.295 16.1,-28.981 c 3.22,-5.635 2.415,-12.075 -1.61,-18.516 z"
         id="path16"
         style="fill:url(#c)" /><path
         fill="url(#d)"
         d="M 88.553,94.085 A 36.226,36.226 0 0 0 49.912,82.01 L 0,98.11 c 0,0 42.667,32.202 75.673,24.152 l 2.415,-0.806 c 13.686,-4.025 18.516,-16.905 10.465,-27.37 z"
         id="path17"
         style="fill:url(#d)" /></g></g></svg>
