<?xml version="1.0" encoding="UTF-8" standalone="no"?>
<!-- Created with Inkscape (http://www.inkscape.org/) -->

<svg
   width="512"
   height="512"
   viewBox="0 0 512 512"
   version="1.1"
   id="svg1"
   xml:space="preserve"
   xmlns:xlink="http://www.w3.org/1999/xlink"
   xmlns="http://www.w3.org/2000/svg"
   xmlns:svg="http://www.w3.org/2000/svg"><defs
     id="defs1"><linearGradient
       id="linearGradient1"><stop
         style="stop-color:#f48023;stop-opacity:1;"
         offset="0"
         id="stop1" /><stop
         style="stop-color:#f4b423;stop-opacity:1;"
         offset="1"
         id="stop2" /></linearGradient><linearGradient
       xlink:href="#linearGradient1"
       id="linearGradient2"
       x1="38"
       y1="50.45"
       x2="95.7"
       y2="50.45"
       gradientUnits="userSpaceOnUse" /></defs><g
     id="layer1"><circle
       style="fill:#2e3548;fill-opacity:1;stroke:#858585;stroke-width:8;stroke-dasharray:none;stroke-opacity:1"
       id="path1"
       cx="256.00003"
       cy="256.00006"
       r="241.31339" /><g
       id="g1"
       transform="matrix(3.8799076,0,0,3.8799076,26.503465,30.189378)"><path
         class="st0"
         d="M 84.4,93.8 V 70.6 h 7.7 v 30.9 H 22.6 V 70.6 h 7.7 v 23.2 z"
         id="path1-0" /><path
         class="st1"
         d="m 38.8,68.4 37.8,7.9 1.6,-7.6 -37.8,-7.9 z m 5,-18 35,16.3 3.2,-7 L 47,43.3 Z M 53.5,33.2 83.2,57.9 88.1,52 58.4,27.3 Z m 19.2,-18.3 -6.2,4.6 23,31 6.2,-4.6 z M 38,86 H 76.6 V 78.3 H 38 Z"
         id="path2"
         style="fill:url(#linearGradient2)" /></g></g><style
     id="style1">.st0{fill:#bcbbbb}.st1{fill:#f48023}</style></svg>
