<?xml version="1.0" encoding="UTF-8" standalone="no"?>
<!-- Created with Inkscape (http://www.inkscape.org/) -->

<svg
   width="512"
   height="512"
   viewBox="0 0 512 512"
   version="1.1"
   id="svg1"
   xml:space="preserve"
   xmlns:xlink="http://www.w3.org/1999/xlink"
   xmlns="http://www.w3.org/2000/svg"
   xmlns:svg="http://www.w3.org/2000/svg"><defs
     id="defs1"><style
       id="style1">.cls-1{fill:none;}.cls-2{clip-path:url(#clip-path);}.cls-3{fill:url(#linear-gradient);}.cls-4{clip-path:url(#clip-path-2);}.cls-5{fill:url(#linear-gradient-2);}</style><clipPath
       id="clip-path"
       transform="translate(23.09 1.92)"><polygon
         class="cls-1"
         points="452.23 123.16 235.73 0 235.73 506.11 322.33 456.07 322.33 313.67 387.76 351.2 386.8 254.02 322.33 216.49 322.33 159.72 452.23 235.73 452.23 123.16"
         id="polygon1" /></clipPath><linearGradient
       id="linear-gradient"
       x1="-20.21"
       y1="-48.36"
       x2="510.92"
       y2="-48.36"
       gradientTransform="matrix(1, 0, 0, -1, 0, 204.21)"
       gradientUnits="userSpaceOnUse"><stop
         offset="0"
         stop-color="#ff6f00"
         id="stop1" /><stop
         offset="1"
         stop-color="#ffa800"
         id="stop2" /></linearGradient><clipPath
       id="clip-path-2"
       transform="translate(23.09 1.92)"><polygon
         class="cls-1"
         points="0 123.16 216.49 0 216.49 506.11 129.89 456.07 129.89 159.72 0 235.73 0 123.16"
         id="polygon2" /></clipPath><linearGradient
       id="linear-gradient-2"
       x1="-23.09"
       y1="-48.36"
       x2="508.03"
       y2="-48.36"
       xlink:href="#linear-gradient" /><linearGradient
       xlink:href="#linear-gradient"
       id="linearGradient1"
       gradientUnits="userSpaceOnUse"
       gradientTransform="matrix(1,0,0,-1,0,204.21)"
       x1="-20.21"
       y1="-48.36"
       x2="510.92"
       y2="-48.36" /></defs><g
     id="layer1"><circle
       style="fill:#2e3548;fill-opacity:1;stroke:#858585;stroke-width:8;stroke-dasharray:none;stroke-opacity:1"
       id="path1"
       cx="256.00003"
       cy="256.00006"
       r="241.31339" /><g
       id="g1"
       transform="matrix(0.71130782,0,0,0.71130782,95.162632,76)"><g
         class="cls-2"
         clip-path="url(#clip-path)"
         id="g2"><path
           class="cls-3"
           d="m -20.21,-1.92 h 531.13 v 509 H -20.21 Z"
           transform="translate(23.09,1.92)"
           id="path2"
           style="fill:url(#linearGradient1)" /></g><g
         class="cls-4"
         clip-path="url(#clip-path-2)"
         id="g3"><path
           class="cls-5"
           d="M -23.09,-1.92 H 508 v 509 H -23.09 Z"
           transform="translate(23.09,1.92)"
           id="path3"
           style="fill:url(#linear-gradient-2)" /></g></g></g></svg>
