<?xml version="1.0" encoding="UTF-8" standalone="no"?>
<!-- Created with Inkscape (http://www.inkscape.org/) -->

<svg
   width="512"
   height="512"
   viewBox="0 0 512 512"
   version="1.1"
   id="svg1"
   xml:space="preserve"
   xmlns="http://www.w3.org/2000/svg"
   xmlns:svg="http://www.w3.org/2000/svg"><defs
     id="defs1"><linearGradient
       id="id0"
       gradientUnits="userSpaceOnUse"
       x1="6667"
       y1="13333"
       x2="6667"
       y2="0"><stop
         offset="0"
         stop-opacity="1"
         stop-color="#420C5D"
         id="stop1" /><stop
         offset="1"
         stop-opacity="1"
         stop-color="#951AD1"
         id="stop2" /></linearGradient><linearGradient
       id="id1"
       gradientUnits="userSpaceOnUse"
       x1="3659"
       y1="12734"
       x2="3659"
       y2="755"><stop
         offset="0"
         stop-opacity="1"
         stop-color="#420C5D"
         id="stop3" /><stop
         offset="1"
         stop-opacity="1"
         stop-color="#951AD1"
         id="stop4" /></linearGradient></defs><g
     id="layer1"><circle
       style="fill:#2e3548;fill-opacity:1;stroke:#858585;stroke-width:8;stroke-dasharray:none;stroke-opacity:1"
       id="path1"
       cx="256.00003"
       cy="256.00006"
       r="241.31339" /><g
       style="clip-rule:evenodd;fill-rule:evenodd;image-rendering:optimizeQuality;shape-rendering:geometricPrecision;text-rendering:geometricPrecision"
       id="g1"
       transform="matrix(0.03562589,0,0,0.03562589,18.482191,18.500004)"><g
         id="Layer_x0020_1"><metadata
           id="CorelCorpID_0Corel-Layer" /><g
           id="Tor_Browser_icon.svg"><g
             id="tor-browser-icon"><g
               id="icon_512x512"><g
                 id="Group"><g
                   id="tb_icon_x002f_Stable"><g
                     id="Stable"><circle
                       id="background"
                       fill="#f2e4ff"
                       fill-rule="nonzero"
                       cx="6667"
                       cy="6667"
                       r="6406" /><path
                       id="center"
                       fill="url(#id0)"
                       d="m 6680,12121 v -808 c 2560,-7 4633,-2084 4633,-4646 0,-2562 -2073,-4639 -4633,-4646 v -808 c 3006,8 5441,2446 5441,5454 0,3008 -2434,5447 -5441,5454 z m 0,-2829 C 8124,9284 9293,8112 9293,6666 9293,5220 8124,4048 6680,4040 v -808 c 1890,7 3421,1541 3421,3434 0,1892 -1530,3426 -3421,3434 z m 0,-4039 c 775,7 1400,637 1400,1413 0,777 -626,1406 -1400,1414 z M 0,6666 c 0,3682 2985,6667 6667,6667 3682,0 6667,-2985 6667,-6667 C 13334,2984 10349,0 6667,0 2985,0 0,2985 0,6666 Z"
                       style="fill:url(#id0)" /><g
                       id="half"><g
                         filter="url(#filter-3)"
                         id="g4"><path
                           fill="#000000"
                           d="M 6667,755 C 3345,755 651,3437 651,6745 c 0,3308 2693,5990 6016,5990 V 756 Z"
                           id="path4" /></g><g
                         id="g5"><path
                           fill="url(#id1)"
                           d="M 6667,755 C 3345,755 651,3437 651,6745 c 0,3308 2693,5990 6016,5990 V 756 Z"
                           id="path5"
                           style="fill:url(#id1)" /></g></g></g></g></g></g></g></g></g></g></g></svg>
