<?xml version="1.0" encoding="UTF-8" standalone="no"?>
<!-- Created with Inkscape (http://www.inkscape.org/) -->

<svg
   width="512"
   height="512"
   viewBox="0 0 512 512"
   version="1.1"
   id="svg1"
   xml:space="preserve"
   xmlns="http://www.w3.org/2000/svg"
   xmlns:svg="http://www.w3.org/2000/svg"><defs
     id="defs1" /><g
     id="layer1"><circle
       style="fill:#3178c6;fill-opacity:1;stroke:#858585;stroke-width:8;stroke-dasharray:none;stroke-opacity:1"
       id="path1"
       cx="256.00003"
       cy="256.00006"
       r="241.31339" /><g
       style="fill:none"
       id="g1"
       transform="matrix(0.65625,0,0,0.65625,88,88)"><rect
         fill="#3178c6"
         height="512"
         rx="50"
         width="512"
         id="rect1"
         x="0"
         y="0"
         style="fill:none" /><rect
         fill="#3178c6"
         height="512"
         rx="50"
         width="512"
         id="rect2"
         x="0"
         y="0"
         style="fill:none" /><path
         clip-rule="evenodd"
         d="m 316.939,407.424 v 50.061 c 8.138,4.172 17.763,7.3 28.875,9.386 11.112,2.086 22.823,3.129 35.135,3.129 11.999,0 23.397,-1.147 34.196,-3.442 10.799,-2.294 20.268,-6.075 28.406,-11.342 8.138,-5.266 14.581,-12.15 19.328,-20.65 4.747,-8.5 7.121,-19.007 7.121,-31.522 0,-9.074 -1.356,-17.026 -4.069,-23.857 -2.713,-6.831 -6.625,-12.906 -11.738,-18.225 -5.112,-5.319 -11.242,-10.091 -18.389,-14.315 -7.147,-4.224 -15.207,-8.213 -24.18,-11.967 -6.573,-2.712 -12.468,-5.345 -17.685,-7.9 -5.217,-2.556 -9.651,-5.163 -13.303,-7.822 -3.652,-2.66 -6.469,-5.476 -8.451,-8.448 -1.982,-2.973 -2.974,-6.336 -2.974,-10.091 0,-3.441 0.887,-6.544 2.661,-9.308 1.774,-2.764 4.278,-5.136 7.512,-7.118 3.235,-1.981 7.199,-3.52 11.894,-4.615 4.696,-1.095 9.912,-1.642 15.651,-1.642 4.173,0 8.581,0.313 13.224,0.938 4.643,0.626 9.312,1.591 14.008,2.894 4.695,1.304 9.259,2.947 13.694,4.928 4.434,1.982 8.529,4.276 12.285,6.884 v -46.776 c -7.616,-2.92 -15.937,-5.084 -24.962,-6.492 -9.025,-1.408 -19.381,-2.112 -31.066,-2.112 -11.895,0 -23.163,1.278 -33.805,3.833 -10.642,2.555 -20.006,6.544 -28.093,11.967 -8.086,5.424 -14.476,12.333 -19.171,20.729 -4.695,8.395 -7.043,18.433 -7.043,30.114 0,14.914 4.304,27.638 12.912,38.172 8.607,10.533 21.675,19.45 39.204,26.751 6.886,2.816 13.303,5.579 19.25,8.291 5.947,2.712 11.086,5.528 15.415,8.448 4.33,2.92 7.747,6.101 10.252,9.543 2.504,3.441 3.756,7.352 3.756,11.733 0,3.233 -0.783,6.231 -2.348,8.995 -1.565,2.764 -3.939,5.162 -7.121,7.196 -3.182,2.034 -7.147,3.624 -11.894,4.771 -4.748,1.148 -10.303,1.721 -16.668,1.721 -10.851,0 -21.597,-1.903 -32.24,-5.71 -10.642,-3.806 -20.502,-9.516 -29.579,-17.13 z M 232.78,284.082 H 297 V 243 H 118 v 41.082 h 63.906 V 467 h 50.874 z"
         fill="#ffffff"
         fill-rule="evenodd"
         id="path2" /></g></g></svg>
