<?xml version="1.0" encoding="UTF-8" standalone="no"?>
<!-- Created with Inkscape (http://www.inkscape.org/) -->

<svg
   width="512"
   height="512"
   viewBox="0 0 512 512"
   version="1.1"
   id="svg1"
   xml:space="preserve"
   xmlns="http://www.w3.org/2000/svg"
   xmlns:svg="http://www.w3.org/2000/svg"><defs
     id="defs1"><style
       id="style1">.a{fill:#fff;}.a,.h{fill-rule:evenodd;}.b{mask:url(#a);}.c{fill:#52218a;}.d{fill:#6c33af;}.e{fill:#854cc7;}.f{fill:#b179f1;}.g{opacity:0.25;}.h{fill:url(#b);}</style><mask
       id="a"
       x="0"
       y="0"
       width="96"
       height="95.51"
       maskUnits="userSpaceOnUse"><g
         transform="translate(0 -0.25)"
         id="g1"><path
           class="a"
           d="M68.89,95.6a6,6,0,0,0,3.93-.44L92.6,85.65A6,6,0,0,0,96,80.24V15.76a6,6,0,0,0-3.4-5.41L72.82.84A6,6,0,0,0,68.34.55,6,6,0,0,0,66,2L34.12,37.26,15.5,22l-1.63-1.4a4,4,0,0,0-3.61-.83,2.55,2.55,0,0,0-.53.18L2.46,23A4,4,0,0,0,0,26.37c0,.1,0,.2,0,.3V69.33c0,.1,0,.2,0,.3A4,4,0,0,0,2.46,73l7.27,3a2.55,2.55,0,0,0,.53.18,4,4,0,0,0,3.61-.83L15.5,74,34.12,58.74,66,94A6,6,0,0,0,68.89,95.6ZM72,27.68,47.21,48,72,68.32ZM12,34.27,24.41,48,12,61.73Z"
           id="path1-0" /></g></mask><linearGradient
       id="b"
       x1="48"
       y1="97.75"
       x2="48"
       y2="2.25"
       gradientTransform="matrix(1,0,0,-1,0,98)"
       gradientUnits="userSpaceOnUse"><stop
         offset="0"
         stop-color="#fff"
         id="stop1" /><stop
         offset="1"
         stop-color="#fff"
         stop-opacity="0"
         id="stop2" /></linearGradient></defs><g
     id="layer1"><circle
       style="fill:#2e3548;fill-opacity:1;stroke:#858585;stroke-width:8;stroke-dasharray:none;stroke-opacity:1"
       id="path1"
       cx="256.00003"
       cy="256.00006"
       r="241.31339" /><g
       class="b"
       mask="url(#a)"
       id="g7"
       transform="matrix(3.5182265,0,0,3.5182265,87.125127,88.008185)"><path
         class="c"
         d="M 13.87,75.4 A 4,4 0 0 1 9.73,76.05 L 2.46,73 A 4,4 0 0 1 0,69.33 V 26.67 A 4,4 0 0 1 2.46,23 l 7.27,-3 a 4,4 0 0 1 4.14,0.65 L 15.5,22 A 2.21,2.21 0 0 0 12,23.8 v 48.4 a 2.21,2.21 0 0 0 3.5,1.8 z"
         transform="translate(0,-0.25)"
         id="path2" /><path
         class="d"
         d="M 2.46,73 A 4,4 0 0 1 0,69.33 V 69 a 2.31,2.31 0 0 0 4,1.55 L 66,2 A 6,6 0 0 1 72.82,0.84 L 92.6,10.36 A 6,6 0 0 1 96,15.77 V 16 A 3.79,3.79 0 0 0 89.81,13.07 L 15.5,74 13.87,75.4 a 4,4 0 0 1 -4.14,0.65 z"
         transform="translate(0,-0.25)"
         id="path3" /><path
         class="e"
         d="M 2.46,23 A 4,4 0 0 0 0,26.67 V 27 A 2.31,2.31 0 0 1 4,25.45 L 66,94 a 6,6 0 0 0 6.82,1.16 L 92.6,85.64 A 6,6 0 0 0 96,80.23 V 80 a 3.79,3.79 0 0 1 -6.19,2.93 L 15.5,22 13.87,20.6 A 4,4 0 0 0 9.73,20 Z"
         transform="translate(0,-0.25)"
         id="path4" /><path
         class="f"
         d="M 72.82,95.16 A 6,6 0 0 1 66,94 3.52,3.52 0 0 0 72,91.51 v -87 A 3.52,3.52 0 0 0 66,2 6,6 0 0 1 72.82,0.84 l 19.78,9.51 a 6,6 0 0 1 3.4,5.41 v 64.48 a 6,6 0 0 1 -3.4,5.41 z"
         transform="translate(0,-0.25)"
         id="path5" /><g
         class="g"
         id="g6"><path
           class="h"
           d="m 68.89,95.6 a 6,6 0 0 0 3.93,-0.44 L 92.6,85.65 A 6,6 0 0 0 96,80.24 V 15.76 A 6,6 0 0 0 92.6,10.35 L 72.82,0.84 A 6,6 0 0 0 68.34,0.55 6,6 0 0 0 66,2 L 34.12,37.26 15.5,22 13.87,20.6 A 4,4 0 0 0 10.26,19.77 2.55,2.55 0 0 0 9.73,19.95 L 2.46,23 A 4,4 0 0 0 0,26.37 c 0,0.1 0,0.2 0,0.3 v 42.66 c 0,0.1 0,0.2 0,0.3 A 4,4 0 0 0 2.46,73 l 7.27,3 a 2.55,2.55 0 0 0 0.53,0.18 4,4 0 0 0 3.61,-0.83 L 15.5,74 34.12,58.74 66,94 a 6,6 0 0 0 2.89,1.6 z M 72,27.68 47.21,48 72,68.32 Z M 12,34.27 24.41,48 12,61.73 Z"
           transform="translate(0,-0.25)"
           id="path6"
           style="fill:url(#b)" /></g></g></g></svg>
