<?xml version="1.0" encoding="UTF-8" standalone="no"?>
<!-- Created with Inkscape (http://www.inkscape.org/) -->

<svg
   width="512"
   height="512"
   viewBox="0 0 512 512"
   version="1.1"
   id="svg1"
   xml:space="preserve"
   xmlns="http://www.w3.org/2000/svg"
   xmlns:svg="http://www.w3.org/2000/svg"><defs
     id="defs1"><linearGradient
       id="a"
       x1="6"
       x2="235"
       y1="33"
       y2="344"
       gradientTransform="matrix(0.3122,0,0,0.3122,0,0.937)"
       gradientUnits="userSpaceOnUse"><stop
         offset="0"
         stop-color="#41d1ff"
         id="stop1" /><stop
         offset="1"
         stop-color="#bd34fe"
         id="stop2" /></linearGradient><linearGradient
       id="b"
       x1="194.651"
       x2="236.076"
       y1="8.818"
       y2="292.989"
       gradientTransform="matrix(0.3122,0,0,0.3122,0,0.937)"
       gradientUnits="userSpaceOnUse"><stop
         offset="0"
         stop-color="#ffea83"
         id="stop3" /><stop
         offset=".083"
         stop-color="#ffdd35"
         id="stop4" /><stop
         offset="1"
         stop-color="#ffa800"
         id="stop5" /></linearGradient></defs><g
     id="layer1"><circle
       style="fill:#2e3548;fill-opacity:1;stroke:#858585;stroke-width:8;stroke-dasharray:none;stroke-opacity:1"
       id="path1"
       cx="256.00003"
       cy="256.00006"
       r="241.31339" /><g
       id="g1"
       transform="matrix(2.7442827,0,0,2.7442827,80.287516,98.15824)"><path
         fill="url(#a)"
         d="M 124.766,19.52 67.324,122.238 c -1.187,2.121 -4.234,2.133 -5.437,0.024 L 3.305,19.532 C 1.992,17.23 3.957,14.445 6.566,14.91 L 64.07,25.187 a 3.09,3.09 0 0 0 1.11,0 l 56.3,-10.261 c 2.598,-0.473 4.575,2.289 3.286,4.594 z m 0,0"
         id="path5"
         style="fill:url(#a)" /><path
         fill="url(#b)"
         d="M 91.46,1.43 48.954,9.758 a 1.56,1.56 0 0 0 -1.258,1.437 l -2.617,44.168 a 1.563,1.563 0 0 0 1.91,1.614 l 11.836,-2.735 a 1.562,1.562 0 0 1 1.88,1.836 l -3.517,17.219 a 1.562,1.562 0 0 0 1.985,1.805 l 7.308,-2.223 c 1.133,-0.344 2.223,0.652 1.985,1.812 l -5.59,27.047 c -0.348,1.692 1.902,2.614 2.84,1.164 l 0.625,-0.968 34.64,-69.13 c 0.582,-1.16 -0.421,-2.48 -1.69,-2.234 L 87.106,32.922 A 1.558,1.558 0 0 1 85.313,30.957 L 93.263,3.395 A 1.56,1.56 0 0 0 91.46,1.43 Z m 0,0"
         id="path6"
         style="fill:url(#b)" /></g></g></svg>
