<?xml version="1.0" encoding="UTF-8" standalone="no"?>
<!-- Created with Inkscape (http://www.inkscape.org/) -->

<svg
   width="512"
   height="512"
   viewBox="0 0 512 512"
   version="1.1"
   id="svg1"
   xml:space="preserve"
   xmlns="http://www.w3.org/2000/svg"
   xmlns:svg="http://www.w3.org/2000/svg"><defs
     id="defs1"><style
       id="style1">.a{fill:#8ed6fb;}.b{fill:#1c78c0;}</style></defs><g
     id="layer1"><circle
       style="fill:#2e3548;fill-opacity:1;stroke:#858585;stroke-width:8;stroke-dasharray:none;stroke-opacity:1"
       id="path1"
       cx="256.00003"
       cy="256.00006"
       r="241.31339" /><g
       id="g1"
       transform="matrix(2.734375,0,0,2.734375,104.51562,88)"><path
         class="a"
         d="m 107.39,94.71 -49.8,28.17 v -21.94 l 31,-17.07 18.8,10.83 z m 3.41,-3.09 V 32.71 L 92.58,43.24 v 37.87 z m -107.39,3.09 49.8,28.17 v -21.94 l -31,-17.07 z M 0,91.62 V 32.71 L 18.22,43.24 V 81.11 Z M 2.14,28.89 53.21,0 v 21.2 l -32.73,18 -0.26,0.14 z m 106.52,0 L 57.59,0 v 21.2 l 32.73,18 0.26,0.15 18.08,-10.45 z"
         id="path1-9" /><path
         class="b"
         d="M 53.21,96 22.59,79.1 V 45.75 l 30.62,17.68 z m 4.38,0 30.62,-16.88 V 45.75 L 57.59,63.43 Z M 24.66,42 55.4,25 86.14,41.9 55.4,59.64 24.66,41.9 Z"
         id="path2" /></g></g></svg>
