<?xml version="1.0" encoding="UTF-8" standalone="no"?>
<!-- Created with Inkscape (http://www.inkscape.org/) -->

<svg
   width="512"
   height="512"
   viewBox="0 0 512 512"
   version="1.1"
   id="svg1"
   xml:space="preserve"
   xmlns="http://www.w3.org/2000/svg"
   xmlns:svg="http://www.w3.org/2000/svg"><defs
     id="defs1" /><g
     id="layer1"><circle
       style="fill:#2e3548;fill-opacity:1;stroke:#858585;stroke-width:8;stroke-dasharray:none;stroke-opacity:1"
       id="path1"
       cx="256.00003"
       cy="256.00006"
       r="241.31339" /><g
       id="g1"
       transform="matrix(7.7777778,0,0,7.7777778,69.333333,69.333333)"><path
         fill="#0077d4"
         d="m 7,6 h 15 c 0.552,0 1,0.448 1,1 v 15 c 0,0.552 -0.448,1 -1,1 H 7 C 6.448,23 6,22.552 6,22 V 7 C 6,6.448 6.448,6 7,6 Z"
         id="path1-0" /><path
         fill="#0077d4"
         d="M 25.042,21.958 V 7 c 0,-0.552 0.448,-1 1,-1 H 41 c 0.552,0 1,0.448 1,1 v 14.958 c 0,0.552 -0.448,1 -1,1 H 26.042 c -0.553,0 -1,-0.447 -1,-1 z"
         id="path2" /><path
         fill="#0077d4"
         d="m 7,25 h 15 c 0.552,0 1,0.448 1,1 v 15 c 0,0.552 -0.448,1 -1,1 H 7 C 6.448,42 6,41.552 6,41 V 26 c 0,-0.552 0.448,-1 1,-1 z"
         id="path3" /><path
         fill="#0077d4"
         d="M 25,41 V 26 c 0,-0.552 0.448,-1 1,-1 h 15 c 0.552,0 1,0.448 1,1 v 15 c 0,0.552 -0.448,1 -1,1 H 26 c -0.552,0 -1,-0.448 -1,-1 z"
         id="path4"
         style="fill:#0085ee;fill-opacity:1" /></g></g></svg>
