<?xml version="1.0" encoding="UTF-8" standalone="no"?>
<!-- Created with Inkscape (http://www.inkscape.org/) -->

<svg
   width="512"
   height="512"
   viewBox="0 0 512 512"
   version="1.1"
   id="svg1"
   xml:space="preserve"
   xmlns="http://www.w3.org/2000/svg"
   xmlns:svg="http://www.w3.org/2000/svg"><defs
     id="defs1" /><g
     id="layer1"><circle
       style="fill:#2e3548;fill-opacity:1;stroke:#858585;stroke-width:8;stroke-dasharray:none;stroke-opacity:1"
       id="path1"
       cx="256.00003"
       cy="256.00006"
       r="241.31339" /><g
       id="g3"
       transform="matrix(12.960463,0,0,12.960463,87.999998,87.999998)"
       style="fill:#f2f2f2">
	<path
   style="fill:#f2f2f2"
   d="m 1.843,12.962 c 0,4.401 2.557,8.205 6.267,10.008 L 2.805,8.437 C 2.189,9.819 1.843,11.35 1.843,12.962 Z M 20.469,12.4 c 0,-1.374 -0.493,-2.326 -0.917,-3.066 C 18.989,8.417 18.46,7.643 18.46,6.726 c 0,-1.021 0.775,-1.973 1.867,-1.973 0.049,0 0.096,0.006 0.145,0.008 -1.979,-1.813 -4.615,-2.919 -7.509,-2.919 -3.885,0 -7.303,1.993 -9.291,5.013 0.261,0.008 0.507,0.013 0.716,0.013 1.163,0 2.963,-0.142 2.963,-0.142 0.599,-0.035 0.67,0.846 0.071,0.917 0,0 -0.603,0.07 -1.272,0.105 l 4.049,12.045 2.434,-7.298 -1.732,-4.747 C 10.302,7.713 9.734,7.643 9.734,7.643 9.134,7.607 9.205,6.69 9.804,6.726 c 0,0 1.836,0.142 2.928,0.142 1.163,0 2.964,-0.142 2.964,-0.142 0.6,-0.035 0.67,0.846 0.071,0.917 0,0 -0.604,0.07 -1.272,0.105 l 4.018,11.953 1.11,-3.706 c 0.564,-1.445 0.846,-2.642 0.846,-3.595 z m -7.311,1.535 -3.337,9.694 c 0.997,0.293 2.05,0.453 3.142,0.453 1.294,0 2.537,-0.224 3.693,-0.63 -0.029,-0.048 -0.057,-0.099 -0.08,-0.153 z M 22.72,7.627 c 0.049,0.354 0.075,0.734 0.075,1.144 0,1.128 -0.212,2.396 -0.846,3.982 l -3.396,9.82 c 3.306,-1.928 5.529,-5.509 5.529,-9.611 0,-1.934 -0.494,-3.752 -1.362,-5.335 z"
   id="path1-0" />
	<g
   id="g2"
   style="fill:#f2f2f2">
		<path
   style="fill:#f2f2f2"
   d="m 0,12.962 c 0,7.147 5.815,12.963 12.962,12.963 7.149,0 12.963,-5.816 12.963,-12.963 C 25.925,5.815 20.111,0 12.963,0 5.815,0 0,5.814 0,12.962 Z m 0.594,0 c 0,-6.819 5.548,-12.368 12.368,-12.368 6.82,0 12.369,5.549 12.369,12.368 0,6.819 -5.549,12.368 -12.368,12.368 -6.819,0 -12.369,-5.549 -12.369,-12.368 z"
   id="path2" />
	</g>
</g></g></svg>
