<?xml version="1.0" encoding="UTF-8" standalone="no"?>
<!-- Created with Inkscape (http://www.inkscape.org/) -->

<svg
   width="512"
   height="512"
   viewBox="0 0 512 512"
   version="1.1"
   id="svg1"
   xml:space="preserve"
   inkscape:version="1.4.2 (f4327f4, 2025-05-13)"
   sodipodi:docname="yarn.svg"
   xmlns:inkscape="http://www.inkscape.org/namespaces/inkscape"
   xmlns:sodipodi="http://sodipodi.sourceforge.net/DTD/sodipodi-0.dtd"
   xmlns="http://www.w3.org/2000/svg"
   xmlns:svg="http://www.w3.org/2000/svg"><sodipodi:namedview
     id="namedview1"
     pagecolor="#ffffff"
     bordercolor="#999999"
     borderopacity="1"
     inkscape:showpageshadow="2"
     inkscape:pageopacity="0"
     inkscape:pagecheckerboard="0"
     inkscape:deskcolor="#d1d1d1"
     inkscape:document-units="px"
     showgrid="false"
     inkscape:zoom="1"
     inkscape:cx="161"
     inkscape:cy="323.5"
     inkscape:window-width="1920"
     inkscape:window-height="1001"
     inkscape:window-x="-9"
     inkscape:window-y="-9"
     inkscape:window-maximized="1"
     inkscape:current-layer="g1"><inkscape:grid
       id="grid1"
       units="mm"
       originx="0"
       originy="0"
       spacingx="1"
       spacingy="1"
       empcolor="#0099e5"
       empopacity="0.30196078"
       color="#0099e5"
       opacity="0.14901961"
       empspacing="5"
       enabled="true"
       visible="false" /></sodipodi:namedview><defs
     id="defs1"><inkscape:path-effect
       effect="fillet_chamfer"
       id="path-effect1"
       is_visible="true"
       lpeversion="1"
       nodesatellites_param="F,0,0,1,0,2.2572315,0,1 @ F,0,0,1,0,2.608162,0,1 @ F,0,0,1,0,2.5997618,0,1 @ F,0,0,1,0,3.0078049,0,1 @ F,0,0,1,0,2.2522004,0,1 @ F,0,0,1,0,2.8010871,0,1"
       radius="0"
       unit="px"
       method="auto"
       mode="F"
       chamfer_steps="1"
       flexible="false"
       use_knot_distance="true"
       apply_no_radius="true"
       apply_with_radius="true"
       only_selected="false"
       hide_knots="false" /></defs><g
     inkscape:label="Layer 1"
     inkscape:groupmode="layer"
     id="layer1"><circle
       style="fill:#2e3548;fill-opacity:1;stroke:#858585;stroke-width:8;stroke-dasharray:none;stroke-opacity:1"
       id="path1"
       inkscape:label="background"
       cx="256.00003"
       cy="256.00006"
       r="241.31339" /><g
       style="fill:#117cad"
       id="g1"
       transform="translate(171,48)"><path
         stroke="#ffffff"
         stroke-width="13.8491"
         d="m 206.35598,266.52198 c -19.90809,-3.46229 -60.58984,29.42935 -70.97668,29.42935 0,0 9.52126,-45.87517 -28.56379,-88.28806 37.21948,-52.79974 27.69822,-103.86833 20.77367,-118.583004 -8.6557,-16.445819 -20.77367,-6.058987 -20.77367,-6.058987 0,0 -20.773662,-64.917701 -48.471886,1.731139 -33.757197,-1.731139 -40.681759,21.639232 -62.3209903,30.294932 -23.3703667,26.83264 0.865571,58.85871 0.865571,58.85871 -32.0260627,25.96708 -39.8161877,67.5144 -38.0850447,82.22908 -23.370375,16.44582 -20.77367,68.37998 -2.596714,74.43897 -7.790125,18.17695 18.176955,32.89163 45.8751777,18.17695 0,0 6.9245533,11.2524 17.3113843,12.11797 26.832652,1.73114 87.422502,-1.73114 95.212622,-12.98354 24.23595,-1.73113 80.49795,-45.0096 96.0782,-44.14404 18.17696,1.73115 29.42936,-34.62276 -4.32785,-37.21947"
         id="path1-0" /><path
         fill="#ffffff"
         d="m 172,399 c 8,-7 12,-32 12,-32 l 11,10 c 0,0 -20,10 -10,28 l -13,-6"
         id="path2" /></g></g></svg>
