<?xml version="1.0" encoding="UTF-8" standalone="no"?>
<!-- Created with Inkscape (http://www.inkscape.org/) -->

<svg
   width="512"
   height="512"
   viewBox="0 0 512 512"
   version="1.1"
   id="svg1"
   xml:space="preserve"
   inkscape:version="1.4.2 (f4327f4, 2025-05-13)"
   sodipodi:docname="youtube1.svg"
   xmlns:inkscape="http://www.inkscape.org/namespaces/inkscape"
   xmlns:sodipodi="http://sodipodi.sourceforge.net/DTD/sodipodi-0.dtd"
   xmlns="http://www.w3.org/2000/svg"
   xmlns:svg="http://www.w3.org/2000/svg"><sodipodi:namedview
     id="namedview1"
     pagecolor="#ffffff"
     bordercolor="#999999"
     borderopacity="1"
     inkscape:showpageshadow="2"
     inkscape:pageopacity="0"
     inkscape:pagecheckerboard="0"
     inkscape:deskcolor="#d1d1d1"
     inkscape:document-units="px"
     showgrid="false"
     inkscape:zoom="1"
     inkscape:cx="-5"
     inkscape:cy="312.5"
     inkscape:window-width="1920"
     inkscape:window-height="1001"
     inkscape:window-x="-9"
     inkscape:window-y="-9"
     inkscape:window-maximized="1"
     inkscape:current-layer="layer1"><inkscape:grid
       id="grid1"
       units="mm"
       originx="0"
       originy="0"
       spacingx="1"
       spacingy="1"
       empcolor="#0099e5"
       empopacity="0.30196078"
       color="#0099e5"
       opacity="0.14901961"
       empspacing="5"
       enabled="true"
       visible="false" /></sodipodi:namedview><defs
     id="defs1"><inkscape:path-effect
       effect="fillet_chamfer"
       id="path-effect1"
       is_visible="true"
       lpeversion="1"
       nodesatellites_param="F,0,0,1,0,2.2572315,0,1 @ F,0,0,1,0,2.608162,0,1 @ F,0,0,1,0,2.5997618,0,1 @ F,0,0,1,0,3.0078049,0,1 @ F,0,0,1,0,2.2522004,0,1 @ F,0,0,1,0,2.8010871,0,1"
       radius="0"
       unit="px"
       method="auto"
       mode="F"
       chamfer_steps="1"
       flexible="false"
       use_knot_distance="true"
       apply_no_radius="true"
       apply_with_radius="true"
       only_selected="false"
       hide_knots="false" /></defs><g
     inkscape:label="Layer 1"
     inkscape:groupmode="layer"
     id="layer1"><circle
       style="fill:#2e3548;fill-opacity:1;stroke:#858585;stroke-width:8;stroke-dasharray:none;stroke-opacity:1"
       id="path1"
       inkscape:label="background"
       cx="256.00003"
       cy="256.00006"
       r="241.31339" /><g
       id="g1"
       transform="matrix(1.5833333,0,0,1.5833333,18.500005,18.500005)"><rect
         width="300"
         height="300"
         fill="#ffffff"
         ry="150"
         id="rect2"
         x="0"
         y="0"
         style="fill:none" /><path
         fill="red"
         d="m 149.93751,79.222674 c 0,0 -63.218854,5.9e-5 -79.085943,4.123047 -8.495788,2.373802 -15.491409,9.3695 -17.865235,17.990239 -4.122953,15.8671 -4.123047,48.72656 -4.123047,48.72656 0,0 9.4e-5,32.9842 4.123047,48.60156 2.373826,8.62062 9.244506,15.49138 17.865235,17.86524 15.99203,4.24788 79.085943,4.24804 79.085943,4.24804 0,0 63.34418,-5e-5 79.21094,-4.12304 8.62079,-2.37381 15.49133,-9.11966 17.74023,-17.86524 4.24793,-15.74232 4.24805,-48.60156 4.24805,-48.60156 0,0 0.12484,-32.98446 -4.24805,-48.85156 -2.2489,-8.620739 -9.11944,-15.491336 -17.74023,-17.740239 -15.86676,-4.372847 -79.21094,-4.373047 -79.21094,-4.373047 z m -20.11523,40.480466 52.59961,30.35938 -52.59961,30.23438 z"
         id="path4"
         style="fill:#ff0033;fill-opacity:1" /></g><path
       sodipodi:type="star"
       style="fill:#ffffff;stroke:#000000;stroke-width:0;stroke-opacity:0"
       id="path26"
       inkscape:flatsided="true"
       sodipodi:sides="3"
       sodipodi:cx="224.05194"
       sodipodi:cy="208.02997"
       sodipodi:r1="61.264744"
       sodipodi:r2="30.632372"
       sodipodi:arg1="0.16346377"
       sodipodi:arg2="1.2106613"
       inkscape:rounded="-3.469447e-18"
       inkscape:randomized="0"
       d="M 284.5,217.99999 185.19362,255.39451 202.46221,150.6954 Z"
       inkscape:transform-center-x="-14.737008"
       inkscape:transform-center-y="0.031239633"
       transform="matrix(0.94941828,-0.15018792,0.15656053,0.90432056,8.2393543,101.49292)" /></g></svg>
