<?xml version="1.0" encoding="UTF-8" standalone="no"?>
<!-- Created with Inkscape (http://www.inkscape.org/) -->

<svg
   width="512"
   height="512"
   viewBox="0 0 512 512"
   version="1.1"
   id="svg1"
   xml:space="preserve"
   inkscape:version="1.4.2 (f4327f4, 2025-05-13)"
   sodipodi:docname="zen.svg"
   xmlns:inkscape="http://www.inkscape.org/namespaces/inkscape"
   xmlns:sodipodi="http://sodipodi.sourceforge.net/DTD/sodipodi-0.dtd"
   xmlns="http://www.w3.org/2000/svg"
   xmlns:svg="http://www.w3.org/2000/svg"><sodipodi:namedview
     id="namedview1"
     pagecolor="#ffffff"
     bordercolor="#999999"
     borderopacity="1"
     inkscape:showpageshadow="2"
     inkscape:pageopacity="0"
     inkscape:pagecheckerboard="0"
     inkscape:deskcolor="#d1d1d1"
     inkscape:document-units="px"
     showgrid="false"
     inkscape:zoom="1"
     inkscape:cx="161"
     inkscape:cy="323.5"
     inkscape:window-width="1920"
     inkscape:window-height="1001"
     inkscape:window-x="-9"
     inkscape:window-y="-9"
     inkscape:window-maximized="1"
     inkscape:current-layer="layer1"><inkscape:grid
       id="grid1"
       units="mm"
       originx="0"
       originy="0"
       spacingx="1"
       spacingy="1"
       empcolor="#0099e5"
       empopacity="0.30196078"
       color="#0099e5"
       opacity="0.14901961"
       empspacing="5"
       enabled="true"
       visible="false" /></sodipodi:namedview><defs
     id="defs1"><inkscape:path-effect
       effect="fillet_chamfer"
       id="path-effect1"
       is_visible="true"
       lpeversion="1"
       nodesatellites_param="F,0,0,1,0,2.2572315,0,1 @ F,0,0,1,0,2.608162,0,1 @ F,0,0,1,0,2.5997618,0,1 @ F,0,0,1,0,3.0078049,0,1 @ F,0,0,1,0,2.2522004,0,1 @ F,0,0,1,0,2.8010871,0,1"
       radius="0"
       unit="px"
       method="auto"
       mode="F"
       chamfer_steps="1"
       flexible="false"
       use_knot_distance="true"
       apply_no_radius="true"
       apply_with_radius="true"
       only_selected="false"
       hide_knots="false" /></defs><g
     inkscape:label="Layer 1"
     inkscape:groupmode="layer"
     id="layer1"><circle
       style="fill:#2e3548;fill-opacity:1;stroke:#858585;stroke-width:8;stroke-dasharray:none;stroke-opacity:1"
       id="path1"
       inkscape:label="background"
       cx="256.00003"
       cy="256.00006"
       r="241.31339" /><g
       style="fill:none"
       id="g1"
       transform="matrix(5.25,0,0,5.25,88,88)"><path
         fill-rule="evenodd"
         clip-rule="evenodd"
         d="m 32,44.3077 c 6.7974,0 12.3077,-5.5103 12.3077,-12.3077 0,-6.7973 -5.5103,-12.3077 -12.3077,-12.3077 -6.7973,0 -12.3077,5.5104 -12.3077,12.3077 0,6.7974 5.5104,12.3077 12.3077,12.3077 z M 41.8462,32 c 0,5.4379 -4.4083,9.8462 -9.8462,9.8462 -5.4379,0 -9.8462,-4.4083 -9.8462,-9.8462 0,-5.4379 4.4083,-9.8462 9.8462,-9.8462 5.4379,0 9.8462,4.4083 9.8462,9.8462 z"
         fill="#F2F0E3"
         id="path1-0"
         style="fill:#f47152;fill-opacity:1" /><path
         fill-rule="evenodd"
         clip-rule="evenodd"
         d="M 53.3333,32 C 53.3333,43.7821 43.7821,53.3333 32,53.3333 20.2179,53.3333 10.6667,43.7821 10.6667,32 10.6667,20.2179 20.2179,10.6667 32,10.6667 43.7821,10.6667 53.3333,20.2179 53.3333,32 Z M 32,49.2308 c 9.5163,0 17.2308,-7.7145 17.2308,-17.2308 0,-9.5163 -7.7145,-17.2308 -17.2308,-17.2308 -9.5163,0 -17.2308,7.7145 -17.2308,17.2308 0,9.5163 7.7145,17.2308 17.2308,17.2308 z"
         fill="#F2F0E3"
         id="path2"
         style="fill:#f47152;fill-opacity:1" /><path
         fill-rule="evenodd"
         clip-rule="evenodd"
         d="M 64,32 C 64,49.6731 49.6731,64 32,64 14.3269,64 0,49.6731 0,32 0,14.3269 14.3269,0 32,0 49.6731,0 64,14.3269 64,32 Z M 32,58.2564 C 46.501,58.2564 58.2564,46.501 58.2564,32 58.2564,17.499 46.501,5.74359 32,5.74359 17.499,5.74359 5.74359,17.499 5.74359,32 5.74359,46.501 17.499,58.2564 32,58.2564 Z"
         fill="#F2F0E3"
         id="path3"
         style="fill:#f47152;fill-opacity:1" /></g></g></svg>
