<?xml version="1.0" encoding="UTF-8" standalone="no"?>
<!-- Created with Inkscape (http://www.inkscape.org/) -->

<svg
   width="512"
   height="512"
   viewBox="0 0 512 512"
   version="1.1"
   id="svg1"
   xml:space="preserve"
   inkscape:version="1.4.2 (f4327f4, 2025-05-13)"
   sodipodi:docname="zig.svg"
   xmlns:inkscape="http://www.inkscape.org/namespaces/inkscape"
   xmlns:sodipodi="http://sodipodi.sourceforge.net/DTD/sodipodi-0.dtd"
   xmlns="http://www.w3.org/2000/svg"
   xmlns:svg="http://www.w3.org/2000/svg"><sodipodi:namedview
     id="namedview1"
     pagecolor="#ffffff"
     bordercolor="#999999"
     borderopacity="1"
     inkscape:showpageshadow="2"
     inkscape:pageopacity="0"
     inkscape:pagecheckerboard="0"
     inkscape:deskcolor="#d1d1d1"
     inkscape:document-units="px"
     showgrid="false"
     inkscape:zoom="1"
     inkscape:cx="161"
     inkscape:cy="323.5"
     inkscape:window-width="1920"
     inkscape:window-height="1001"
     inkscape:window-x="-9"
     inkscape:window-y="-9"
     inkscape:window-maximized="1"
     inkscape:current-layer="layer1"><inkscape:grid
       id="grid1"
       units="mm"
       originx="0"
       originy="0"
       spacingx="1"
       spacingy="1"
       empcolor="#0099e5"
       empopacity="0.30196078"
       color="#0099e5"
       opacity="0.14901961"
       empspacing="5"
       enabled="true"
       visible="false" /></sodipodi:namedview><defs
     id="defs1"><inkscape:path-effect
       effect="fillet_chamfer"
       id="path-effect1"
       is_visible="true"
       lpeversion="1"
       nodesatellites_param="F,0,0,1,0,2.2572315,0,1 @ F,0,0,1,0,2.608162,0,1 @ F,0,0,1,0,2.5997618,0,1 @ F,0,0,1,0,3.0078049,0,1 @ F,0,0,1,0,2.2522004,0,1 @ F,0,0,1,0,2.8010871,0,1"
       radius="0"
       unit="px"
       method="auto"
       mode="F"
       chamfer_steps="1"
       flexible="false"
       use_knot_distance="true"
       apply_no_radius="true"
       apply_with_radius="true"
       only_selected="false"
       hide_knots="false" /></defs><g
     inkscape:label="Layer 1"
     inkscape:groupmode="layer"
     id="layer1"><circle
       style="fill:#2e3548;fill-opacity:1;stroke:#858585;stroke-width:8;stroke-dasharray:none;stroke-opacity:1"
       id="path1"
       inkscape:label="background"
       cx="256.00003"
       cy="256.00006"
       r="241.31339" /><g
       fill="#f7a41d"
       id="g9"
       transform="matrix(2.34375,0,0,2.34375,106,106)"><path
         d="M 38.484,23.843 23.424,42.248 15.895,30.536 Z"
         id="path1-0" /><path
         shape-rendering="crispEdges"
         d="m 38.484,23.843 -10.876,9.203 -4.183,9.202 h -5.02 v 42.667 h 7.53 l -9.203,4.183 -6.693,14.222 H 0 V 23.843 Z"
         id="path2" /><path
         d="M 25.935,84.915 10.039,103.32 3.346,94.118 Z M 46.85,23.843 51.87,35.556 30.954,42.248 Z"
         id="path3" /><path
         shape-rendering="crispEdges"
         d="M 46.85,23.843 H 92.863 V 42.248 H 30.954 L 46.85,32.21 Z"
         id="path4" /><path
         d="M 97.046,84.915 81.15,103.32 75.294,92.445 Z"
         id="path5" /><path
         shape-rendering="crispEdges"
         d="M 97.046,84.915 83.66,92.445 81.15,103.32 H 35.137 V 84.915 Z"
         id="path6" /><path
         d="M 125.49,5.438 43.503,103.32 2.51,122.562 84.497,23.843 Z m -7.53,18.405 -0.836,15.06 -15.059,4.182 z"
         id="path7" /><path
         shape-rendering="crispEdges"
         d="M 128,23.843 V 103.32 H 88.68 l 11.712,-10.039 4.183,-8.366 h 5.02 v -41.83 h -7.53 l 8.366,-7.53 7.53,-11.712 z"
         id="path8" /><path
         d="m 104.575,84.915 4.183,12.55 -20.078,5.855 z"
         id="path9" /></g></g></svg>
