<?xml version="1.0" encoding="UTF-8" standalone="no"?>
<!-- Created with Inkscape (http://www.inkscape.org/) -->

<svg
   width="512"
   height="512"
   viewBox="0 0 512 512"
   version="1.1"
   id="svg1"
   xml:space="preserve"
   inkscape:version="1.4.2 (f4327f4, 2025-05-13)"
   sodipodi:docname="adobe-firefly.svg"
   xmlns:inkscape="http://www.inkscape.org/namespaces/inkscape"
   xmlns:sodipodi="http://sodipodi.sourceforge.net/DTD/sodipodi-0.dtd"
   xmlns="http://www.w3.org/2000/svg"
   xmlns:svg="http://www.w3.org/2000/svg"><sodipodi:namedview
     id="namedview1"
     pagecolor="#ffffff"
     bordercolor="#999999"
     borderopacity="1"
     inkscape:showpageshadow="2"
     inkscape:pageopacity="0"
     inkscape:pagecheckerboard="0"
     inkscape:deskcolor="#d1d1d1"
     inkscape:document-units="px"
     showgrid="false"
     inkscape:zoom="1"
     inkscape:cx="-81"
     inkscape:cy="323.5"
     inkscape:window-width="1920"
     inkscape:window-height="1001"
     inkscape:window-x="-9"
     inkscape:window-y="-9"
     inkscape:window-maximized="1"
     inkscape:current-layer="g1"><inkscape:grid
       id="grid1"
       units="mm"
       originx="0"
       originy="0"
       spacingx="1"
       spacingy="1"
       empcolor="#0099e5"
       empopacity="0.30196078"
       color="#0099e5"
       opacity="0.14902"
       empspacing="5"
       enabled="true"
       visible="false" /></sodipodi:namedview><defs
     id="defs1"><inkscape:path-effect
       effect="fillet_chamfer"
       id="path-effect1"
       is_visible="true"
       lpeversion="1"
       nodesatellites_param="F,0,0,1,0,2.2572315,0,1 @ F,0,0,1,0,2.608162,0,1 @ F,0,0,1,0,2.5997618,0,1 @ F,0,0,1,0,3.0078049,0,1 @ F,0,0,1,0,2.2522004,0,1 @ F,0,0,1,0,2.8010871,0,1"
       radius="0"
       unit="px"
       method="auto"
       mode="F"
       chamfer_steps="1"
       flexible="false"
       use_knot_distance="true"
       apply_no_radius="true"
       apply_with_radius="true"
       only_selected="false"
       hide_knots="false" /><style
       id="style1">
      .cls-1 {
        fill: #eb1000;
      }

      .cls-2 {
        fill: #fff;
      }
    </style></defs><g
     inkscape:label="Layer 1"
     inkscape:groupmode="layer"
     id="layer1"><circle
       style="fill:#eb1000;fill-opacity:1;stroke:#858585;stroke-width:8;stroke-dasharray:none;stroke-opacity:1"
       id="path1"
       inkscape:label="background"
       cx="256.00003"
       cy="256.00006"
       r="241.31339" /><g
       id="g1"
       transform="matrix(7.1428571,0,0,7.1428571,56.000001,63.142858)"><g
         id="Outlined_Mnemonics_Logos"
         data-name="Outlined Mnemonics &amp;amp; Logos"><g
           id="Firefly_Mnemonic_One_Sparkle"
           data-name="Firefly Mnemonic One Sparkle"><g
             id="g2"><path
               class="cls-2"
               d="m 21.57,37.57 c 0,0.22 -0.1,0.32 -0.32,0.32 h -4.57 c -0.18,0 -0.25,-0.13 -0.25,-0.32 V 13.94 c 0,-0.21 0.07,-0.29 0.28,-0.29 h 14.65 c 0.25,0 0.31,0.07 0.35,0.31 l 0.41,3.99 c 0.04,0.22 -0.07,0.32 -0.31,0.32 H 21.57 v 5.62 h 9.23 c 0.21,0 0.31,0.07 0.31,0.29 v 4.04 c 0,0.22 -0.11,0.29 -0.29,0.29 h -9.25 z"
               id="path1-9" /><path
               class="cls-2"
               d="m 34.86,19.81 c 0,-0.21 0.1,-0.31 0.31,-0.31 h 4.55 c 0.24,0 0.31,0.06 0.31,0.3 v 17.74 c 0,0.24 -0.07,0.34 -0.34,0.34 h -4.46 c -0.25,0 -0.37,-0.11 -0.37,-0.35 V 19.8 Z"
               id="path2" /></g><path
             class="cls-2"
             d="m 38.56,15.5 2.26,0.51 c 0.89,0.2 1.51,-0.86 0.89,-1.53 l -1.57,-1.7 C 39.93,12.56 39.85,12.25 39.92,11.95 L 40.43,9.69 C 40.63,8.8 39.56,8.19 38.89,8.81 l -1.7,1.57 c -0.22,0.21 -0.54,0.29 -0.83,0.22 L 34.1,10.09 c -0.89,-0.2 -1.51,0.86 -0.89,1.53 l 1.57,1.7 c 0.21,0.22 0.29,0.53 0.22,0.83 l -0.51,2.26 c -0.2,0.89 0.87,1.5 1.54,0.88 l 1.7,-1.57 c 0.22,-0.21 0.54,-0.29 0.83,-0.22 z"
             id="path3" /></g></g></g></g></svg>
