<?xml version="1.0" encoding="UTF-8" standalone="no"?>
<!-- Created with Inkscape (http://www.inkscape.org/) -->

<svg
   width="512"
   height="512"
   viewBox="0 0 512 512"
   version="1.1"
   id="svg1"
   xml:space="preserve"
   inkscape:version="1.4.2 (f4327f4, 2025-05-13)"
   sodipodi:docname="ai.svg"
   xmlns:inkscape="http://www.inkscape.org/namespaces/inkscape"
   xmlns:sodipodi="http://sodipodi.sourceforge.net/DTD/sodipodi-0.dtd"
   xmlns="http://www.w3.org/2000/svg"
   xmlns:svg="http://www.w3.org/2000/svg"><sodipodi:namedview
     id="namedview1"
     pagecolor="#ffffff"
     bordercolor="#999999"
     borderopacity="1"
     inkscape:showpageshadow="2"
     inkscape:pageopacity="0"
     inkscape:pagecheckerboard="0"
     inkscape:deskcolor="#d1d1d1"
     inkscape:document-units="px"
     showgrid="false"
     inkscape:zoom="1.4142136"
     inkscape:cx="183.14066"
     inkscape:cy="251.37646"
     inkscape:window-width="1920"
     inkscape:window-height="1001"
     inkscape:window-x="-9"
     inkscape:window-y="-9"
     inkscape:window-maximized="1"
     inkscape:current-layer="g1"><inkscape:grid
       id="grid1"
       units="mm"
       originx="0"
       originy="0"
       spacingx="1"
       spacingy="1"
       empcolor="#0099e5"
       empopacity="0.30196078"
       color="#0099e5"
       opacity="0.14901961"
       empspacing="5"
       enabled="true"
       visible="false" /></sodipodi:namedview><defs
     id="defs1"><inkscape:path-effect
       effect="fillet_chamfer"
       id="path-effect1"
       is_visible="true"
       lpeversion="1"
       nodesatellites_param="F,0,0,1,0,2.2572315,0,1 @ F,0,0,1,0,2.608162,0,1 @ F,0,0,1,0,2.5997618,0,1 @ F,0,0,1,0,3.0078049,0,1 @ F,0,0,1,0,2.2522004,0,1 @ F,0,0,1,0,2.8010871,0,1"
       radius="0"
       unit="px"
       method="auto"
       mode="F"
       chamfer_steps="1"
       flexible="false"
       use_knot_distance="true"
       apply_no_radius="true"
       apply_with_radius="true"
       only_selected="false"
       hide_knots="false" /></defs><g
     inkscape:label="Layer 1"
     inkscape:groupmode="layer"
     id="layer1"><circle
       style="fill:#330000;fill-opacity:1;stroke:#858585;stroke-width:8;stroke-dasharray:none;stroke-opacity:1"
       id="path1"
       inkscape:label="background"
       cx="256.00003"
       cy="256.00006"
       r="241.31339" /><g
       id="g1"
       transform="matrix(1.6666667,0,0,1.6666667,55.999996,60.999996)"><path
         fill="#ff9a00"
         d="M 116,140 H 78.8 l -7.6,23.5 c -0.2,0.9 -1,1.5 -1.9,1.4 H 50.5 c -1.1,0 -1.4,-0.6 -1.1,-1.8 L 81.6,70.4 c 0.3,-1 0.6,-2.1 1,-3.3 0.4,-2.1 0.6,-4.3 0.6,-6.5 -0.1,-0.5 0.3,-1 0.8,-1.1 h 25.9 c 0.8,0 1.2,0.3 1.3,0.8 l 36.5,103 c 0.3,1.1 0,1.6 -1,1.6 h -20.9 c -0.7,0.1 -1.4,-0.4 -1.6,-1.1 z M 84.6,119.7 H 110 c -0.6,-2.1 -1.4,-4.6 -2.3,-7.2 -0.9,-2.7 -1.8,-5.6 -2.7,-8.6 -1,-3.1 -1.9,-6.1 -2.9,-9.2 -1,-3.1 -1.9,-6 -2.7,-8.9 C 98.6,83 97.9,80.4 97.2,78 H 97 c -0.9,4.3 -2,8.6 -3.4,12.9 -1.5,4.8 -3,9.8 -4.6,14.8 -1.4,5.1 -2.9,9.8 -4.4,14 z M 170,77 c -3.3,0.1 -6.5,-1.2 -8.9,-3.5 -2.3,-2.5 -3.5,-5.8 -3.4,-9.2 -0.1,-3.4 1.2,-6.6 3.6,-8.9 2.4,-2.3 5.6,-3.5 8.9,-3.5 3.9,0 6.9,1.2 9.1,3.5 2.2,2.4 3.4,5.6 3.3,8.9 0.1,3.4 -1.1,6.7 -3.5,9.2 -2.3,2.4 -5.7,3.7 -9.1,3.5 z m -11.2,86.8 v -77 c 0,-1 0.4,-1.4 1.3,-1.4 h 19.8 c 0.9,0 1.3,0.5 1.3,1.4 v 77 c 0,1.1 -0.4,1.6 -1.3,1.6 h -19.6 c -1,0 -1.5,-0.6 -1.5,-1.6 z"
         id="path2" /></g></g></svg>
