<?xml version="1.0" encoding="UTF-8" standalone="no"?>
<!-- Created with Inkscape (http://www.inkscape.org/) -->

<svg
   width="512"
   height="512"
   viewBox="0 0 512 512"
   version="1.1"
   id="svg1"
   xml:space="preserve"
   xmlns="http://www.w3.org/2000/svg"
   xmlns:svg="http://www.w3.org/2000/svg"><defs
     id="defs1" /><g
     id="layer1"><circle
       style="fill:#f2f2f2;fill-opacity:1;stroke:#afafaf;stroke-width:8;stroke-dasharray:none;stroke-opacity:1"
       id="path1"
       cx="256.00003"
       cy="256.00006"
       r="241.31339" /><g
       id="g1"
       transform="matrix(1.3431189,0,0,1.3431189,-57.649155,0)"><path
         d="m 293.91,212.775 c -6.025,0 -10.926,-4.905 -10.926,-10.93 0,-6.025 4.901,-10.926 10.926,-10.926 6.026,0 10.927,4.9 10.927,10.926 0,6.025 -4.901,10.93 -10.927,10.93 m -120.774,0 c -6.025,0 -10.926,-4.905 -10.926,-10.93 0,-6.025 4.9,-10.926 10.926,-10.926 6.025,0 10.926,4.9 10.926,10.926 0,6.025 -4.9,10.93 -10.926,10.93 m 124.693,-65.82 21.838,-37.822 a 4.548,4.548 0 0 0 -1.663,-6.206 4.549,4.549 0 0 0 -6.206,1.663 l -22.111,38.3 c -16.91,-7.716 -35.9,-12.015 -56.164,-12.015 -20.264,0 -39.254,4.299 -56.163,12.015 l -22.112,-38.3 a 4.549,4.549 0 0 0 -6.206,-1.663 4.545,4.545 0 0 0 -1.663,6.206 l 21.838,37.822 c -37.499,20.395 -63.146,58.358 -66.898,103.209 h 262.408 c -3.755,-44.85 -29.402,-82.814 -66.898,-103.21"
         fill="#3ddb85"
         id="path1-0" /><path
         fill="none"
         d="M 0,0 H 467.046 V 250.164 H 0 Z"
         id="path2" /></g></g></svg>
