<?xml version="1.0" encoding="UTF-8" standalone="no"?>
<!-- Created with Inkscape (http://www.inkscape.org/) -->

<svg
   width="512"
   height="512"
   viewBox="0 0 512 512"
   version="1.1"
   id="svg1"
   xml:space="preserve"
   xmlns="http://www.w3.org/2000/svg"
   xmlns:svg="http://www.w3.org/2000/svg"><defs
     id="defs1" /><g
     id="layer1"><circle
       style="fill:#f2f2f2;fill-opacity:1;stroke:#afafaf;stroke-width:8;stroke-dasharray:none;stroke-opacity:1"
       id="path1"
       cx="256.00003"
       cy="256.00006"
       r="241.31339" /><g
       style="clip-rule:evenodd;fill-rule:evenodd;stroke-linejoin:round;stroke-miterlimit:2"
       id="g1"
       transform="matrix(0.63308294,0,0,0.63308294,93.675928,91.107812)"><path
         d="M 348.708,140.086 323.524,88.241 c -14.53,-29.879 -44.983,-48.922 -78.21,-48.922 -33.754,0 -64.585,19.65 -78.835,50.236 l -34.722,74.533 C 105.851,148.902 73.854,148.18 47.291,162.167 5.756,183.854 -8.805,235.239 8.547,275.132 c 9.916,22.951 24.38,44.26 42.11,63.157 l -9.128,19.634 c -11.951,25.594 -10.671,55.473 3.398,79.967 a 85.722,85.722 0 0 0 31.636,31.85 86.895,86.895 0 0 0 53.716,11.294 l 0.263,-0.032 0.23,-0.033 c 30.224,-3.858 56.376,-23.148 68.984,-50.877 l 4.564,-9.817 a 249.136,249.136 0 0 0 40.32,3.169 h 0.378 a 253.266,253.266 0 0 0 45.738,-4.729 l 5.713,11.755 0.033,0.05 c 14.676,30.026 45.376,49.086 78.801,48.906 h 0.197 c 40.402,-0.427 75.453,-28.894 84.137,-68.36 l 0.066,-0.33 0.066,-0.311 a 88.03,88.03 0 0 0 -7.536,-56.918 l -10.26,-21.227 c 33.589,-36.676 58.23,-82.495 67.9,-133.24 4.384,-22.705 -0.542,-46.247 -13.626,-65.324 C 479.912,109.796 452.66,95.53 423.7,95.744 h -0.18 c -31.045,0.377 -59.61,17.303 -74.829,44.359 z m -95.482,108.714 -1.97,-4.038 z m -14.168,0.591 2.282,-4.859 -2.282,4.86 z m -124.588,-48.2 c -14.217,-10.03 -32.95,-11.229 -48.315,-3.086 15.366,-8.127 34.098,-6.945 48.315,3.086 z M 82.178,366.756 78.32,375.063 Z M 391.769,149.887 a 46.445,46.445 0 0 1 32.243,-13.56 c 15.482,-0.115 30.027,7.519 38.744,20.307 a 45.885,45.885 0 0 1 7.98,29.223 l -78.967,-35.986 z"
         fill="#ffffff"
         fill-rule="nonzero"
         id="path1-0" /><path
         d="m 141.377,239.737 -20.308,43.67 -21.21,45.573 a 244.52,244.52 0 0 0 25.134,18.256 241.365,241.365 0 0 0 56.507,26.054 l 20.489,-43.998 19.24,-41.37 c -30.978,-6.486 -61.99,-25.168 -79.852,-48.201 z"
         fill="#210784"
         fill-rule="nonzero"
         id="path2" /><path
         d="m 392.656,323.792 -42.947,-88.454 a 156.386,156.386 0 0 1 -32.768,30.272 139.997,139.997 0 0 1 -45.426,20.9 l 41.042,84.317 a 237.566,237.566 0 0 0 56.639,-28.795 246.52,246.52 0 0 0 23.46,-18.24 z"
         fill="#26069c"
         fill-rule="nonzero"
         id="path3" /><path
         d="M 124.927,347.187 A 236.51,236.51 0 0 1 99.777,328.931 L 78.32,375.063 a 46.278,46.278 0 0 0 1.838,42.684 c 3.99,7.026 9.785,12.87 16.795,16.877 8.652,5.072 18.715,7.223 28.697,6.057 16.318,-2.085 30.453,-12.526 37.217,-27.53 l 18.551,-39.894 a 240.336,240.336 0 0 1 -56.49,-26.07 z"
         fill="#2404aa"
         fill-rule="nonzero"
         id="path4" /><path
         d="m 462.756,156.634 c -8.717,-12.788 -23.262,-20.422 -38.744,-20.307 -22.015,0.262 -40.976,16.154 -45.08,37.792 a 139.762,139.762 0 0 1 -29.157,61.219 l 42.947,88.454 c 38.875,-34.18 67.424,-80.64 77.29,-132.386 a 46,46 0 0 0 -7.256,-34.772 z"
         fill="#ff9999"
         fill-rule="nonzero"
         id="path5" /><path
         d="m 415.837,371.467 -23.099,-47.74 -42.947,-88.455 -62.779,-129.284 c -7.732,-15.94 -23.968,-26.103 -41.699,-26.103 -18.01,0 -34.443,10.474 -42.044,26.809 l -61.941,132.978 c 17.845,23.033 48.94,41.814 79.836,48.15 l 20.16,-43.307 a 5.43,5.43 0 0 1 4.909,-3.136 5.422,5.422 0 0 1 4.86,3.054 l 20.52,42.076 41.043,84.318 20.308,41.88 c 7.847,16.04 24.248,26.218 42.11,26.136 21.571,-0.23 40.287,-15.432 44.916,-36.495 a 47.484,47.484 0 0 0 -4.153,-30.88 z"
         fill="#ff5060"
         fill-rule="nonzero"
         id="path6" /><path
         d="m 271.564,286.493 a 118.23,118.23 0 0 1 -27.876,3.628 107.97,107.97 0 0 1 -22.491,-2.331 C 190.3,281.37 159.272,262.672 141.443,239.655 A 81.708,81.708 0 0 1 130.854,222.089 C 123.91,204.424 106.77,192.735 87.792,192.735 a 46.205,46.205 0 0 0 -21.637,5.369 c -21.228,11.032 -29.945,38.908 -20.358,60.874 11.082,25.676 29.83,49.81 54.11,69.986 a 234.232,234.232 0 0 0 25.152,18.255 240.336,240.336 0 0 0 56.49,26.07 208.515,208.515 0 0 0 62.976,9.555 212.428,212.428 0 0 0 68,-12.033 l -40.96,-84.318 z"
         fill="#0034fe"
         fill-rule="nonzero"
         id="path7" /></g></g></svg>
