<?xml version="1.0" encoding="UTF-8" standalone="no"?>
<!-- Created with Inkscape (http://www.inkscape.org/) -->

<svg
   width="512"
   height="512"
   viewBox="0 0 512 512"
   version="1.1"
   id="svg1"
   xml:space="preserve"
   xmlns="http://www.w3.org/2000/svg"
   xmlns:svg="http://www.w3.org/2000/svg"><defs
     id="defs1" /><g
     id="layer1"><circle
       style="fill:#f2f2f2;fill-opacity:1;stroke:#afafaf;stroke-width:8;stroke-dasharray:none;stroke-opacity:1"
       id="path1"
       cx="256.00003"
       cy="256.00006"
       r="241.31339" /><g
       style="fill:none"
       id="g1"
       transform="matrix(22.500386,0,0,22.500386,75.998431,53.507776)"><path
         fill="#252f3e"
         d="m 4.51,7.687 c 0,0.197 0.02,0.357 0.058,0.475 0.042,0.117 0.096,0.245 0.17,0.384 a 0.233,0.233 0 0 1 0.037,0.123 c 0,0.053 -0.032,0.107 -0.1,0.16 L 4.339,9.053 A 0.255,0.255 0 0 1 4.201,9.101 C 4.147,9.101 4.094,9.075 4.041,9.027 A 1.652,1.652 0 0 1 3.849,8.776 4.137,4.137 0 0 1 3.684,8.461 C 3.269,8.952 2.748,9.198 2.12,9.198 1.673,9.198 1.316,9.069 1.056,8.813 0.795,8.557 0.662,8.215 0.662,7.788 0.662,7.334 0.822,6.966 1.146,6.688 1.471,6.41 1.902,6.272 2.45,6.272 c 0.18,0 0.367,0.016 0.564,0.042 0.197,0.027 0.4,0.07 0.612,0.118 V 6.042 C 3.626,5.636 3.541,5.353 3.376,5.188 3.206,5.022 2.918,4.942 2.508,4.942 2.322,4.942 2.131,4.964 1.934,5.012 A 4.23,4.23 0 0 0 1.359,5.193 1.525,1.525 0 0 1 1.173,5.263 0.326,0.326 0 0 1 1.088,5.279 C 1.013,5.279 0.976,5.225 0.976,5.113 V 4.851 c 0,-0.085 0.01,-0.15 0.037,-0.186 a 0.399,0.399 0 0 1 0.15,-0.113 c 0.185,-0.096 0.409,-0.176 0.67,-0.24 0.26,-0.07 0.537,-0.101 0.83,-0.101 0.633,0 1.096,0.144 1.394,0.432 0.293,0.288 0.442,0.726 0.442,1.314 v 1.73 h 0.01 z M 2.349,8.498 C 2.524,8.498 2.705,8.466 2.897,8.402 3.088,8.338 3.259,8.22 3.402,8.06 A 0.848,0.848 0 0 0 3.583,7.719 C 3.615,7.59 3.637,7.436 3.637,7.254 V 7.03 A 4.43,4.43 0 0 0 3.147,6.94 3.996,3.996 0 0 0 2.647,6.907 c -0.357,0 -0.618,0.07 -0.793,0.214 -0.176,0.144 -0.26,0.347 -0.26,0.614 0,0.25 0.063,0.437 0.196,0.566 0.128,0.133 0.314,0.197 0.559,0.197 z M 6.622,9.075 C 6.526,9.075 6.462,9.059 6.42,9.021 6.377,8.989 6.34,8.915 6.308,8.813 L 5.058,4.686 A 0.938,0.938 0 0 1 5.009,4.472 c 0,-0.085 0.043,-0.133 0.128,-0.133 h 0.522 c 0.1,0 0.17,0.016 0.207,0.053 C 5.909,4.424 5.941,4.499 5.973,4.6 L 6.867,8.135 7.697,4.6 C 7.723,4.494 7.755,4.424 7.797,4.392 A 0.365,0.365 0 0 1 8.011,4.339 h 0.425 c 0.102,0 0.17,0.016 0.213,0.053 C 8.692,4.424 8.729,4.499 8.75,4.6 L 9.591,8.178 10.511,4.6 a 0.458,0.458 0 0 1 0.107,-0.208 0.346,0.346 0 0 1 0.208,-0.053 h 0.495 c 0.085,0 0.133,0.043 0.133,0.133 0,0.027 -0.006,0.054 -0.01,0.086 A 0.76,0.76 0 0 1 11.406,4.691 L 10.123,8.818 C 10.091,8.925 10.054,8.995 10.012,9.027 A 0.34,0.34 0 0 1 9.809,9.08 H 9.352 C 9.251,9.08 9.182,9.064 9.139,9.027 9.096,8.989 9.059,8.92 9.038,8.813 L 8.213,5.37 7.393,8.809 C 7.367,8.916 7.335,8.985 7.293,9.022 7.25,9.06 7.175,9.076 7.08,9.076 H 6.622 Z M 13.46,9.219 A 3.51,3.51 0 0 1 12.64,9.123 C 12.374,9.059 12.167,8.989 12.028,8.909 11.943,8.861 11.885,8.808 11.863,8.759 A 0.378,0.378 0 0 1 11.832,8.61 V 8.338 c 0,-0.112 0.042,-0.166 0.122,-0.166 a 0.3,0.3 0 0 1 0.096,0.016 c 0.032,0.011 0.08,0.032 0.133,0.054 0.18,0.08 0.378,0.144 0.585,0.187 0.213,0.042 0.42,0.064 0.633,0.064 0.336,0 0.596,-0.059 0.777,-0.176 A 0.575,0.575 0 0 0 14.455,7.809 0.52,0.52 0 0 0 14.311,7.436 C 14.216,7.334 14.035,7.243 13.774,7.158 L 13.002,6.918 C 12.614,6.795 12.326,6.613 12.151,6.373 A 1.275,1.275 0 0 1 11.885,5.599 c 0,-0.224 0.048,-0.422 0.143,-0.593 0.096,-0.17 0.224,-0.32 0.384,-0.438 0.16,-0.122 0.34,-0.213 0.553,-0.277 0.213,-0.064 0.436,-0.091 0.67,-0.091 0.118,0 0.24,0.005 0.357,0.021 0.122,0.016 0.234,0.038 0.346,0.06 0.106,0.026 0.208,0.052 0.303,0.085 0.096,0.032 0.17,0.064 0.224,0.096 a 0.46,0.46 0 0 1 0.16,0.133 0.289,0.289 0 0 1 0.047,0.176 v 0.251 c 0,0.112 -0.042,0.171 -0.122,0.171 A 0.552,0.552 0 0 1 14.748,5.129 2.427,2.427 0 0 0 13.726,4.921 c -0.303,0 -0.543,0.048 -0.708,0.15 -0.165,0.1 -0.25,0.256 -0.25,0.475 0,0.149 0.053,0.277 0.16,0.379 0.106,0.101 0.303,0.202 0.585,0.293 l 0.756,0.24 c 0.383,0.123 0.66,0.294 0.825,0.513 0.165,0.219 0.244,0.47 0.244,0.748 0,0.23 -0.047,0.437 -0.138,0.619 a 1.436,1.436 0 0 1 -0.388,0.47 c -0.165,0.133 -0.362,0.23 -0.591,0.299 -0.24,0.075 -0.49,0.112 -0.761,0.112 z"
         id="path1-0" /><g
         fill="#ff9900"
         fill-rule="evenodd"
         clip-rule="evenodd"
         id="g3"><path
           d="m 14.465,11.813 c -1.75,1.297 -4.294,1.986 -6.481,1.986 -3.065,0 -5.827,-1.137 -7.913,-3.027 -0.165,-0.15 -0.016,-0.353 0.18,-0.235 2.257,1.313 5.04,2.109 7.92,2.109 1.941,0 4.075,-0.406 6.039,-1.239 0.293,-0.133 0.543,0.192 0.255,0.406 z"
           id="path2" /><path
           d="m 15.194,10.98 c -0.223,-0.287 -1.479,-0.138 -2.048,-0.069 -0.17,0.022 -0.197,-0.128 -0.043,-0.24 1,-0.705 2.645,-0.502 2.836,-0.267 0.192,0.24 -0.053,1.89 -0.99,2.68 -0.143,0.123 -0.281,0.06 -0.218,-0.1 0.213,-0.53 0.687,-1.72 0.463,-2.003 z"
           id="path3" /></g></g></g></svg>
