<?xml version="1.0" encoding="UTF-8" standalone="no"?>
<!-- Created with Inkscape (http://www.inkscape.org/) -->

<svg
   width="512"
   height="512"
   viewBox="0 0 512 512"
   version="1.1"
   id="svg1"
   xml:space="preserve"
   inkscape:version="1.4.2 (f4327f4, 2025-05-13)"
   sodipodi:docname="azure.svg"
   xmlns:inkscape="http://www.inkscape.org/namespaces/inkscape"
   xmlns:sodipodi="http://sodipodi.sourceforge.net/DTD/sodipodi-0.dtd"
   xmlns="http://www.w3.org/2000/svg"
   xmlns:svg="http://www.w3.org/2000/svg"><sodipodi:namedview
     id="namedview1"
     pagecolor="#ffffff"
     bordercolor="#999999"
     borderopacity="1"
     inkscape:showpageshadow="2"
     inkscape:pageopacity="0"
     inkscape:pagecheckerboard="0"
     inkscape:deskcolor="#d1d1d1"
     inkscape:document-units="px"
     showgrid="false"
     inkscape:zoom="1"
     inkscape:cx="313"
     inkscape:cy="277.5"
     inkscape:window-width="1920"
     inkscape:window-height="1001"
     inkscape:window-x="-9"
     inkscape:window-y="-9"
     inkscape:window-maximized="1"
     inkscape:current-layer="layer1"><inkscape:grid
       id="grid1"
       units="mm"
       originx="0"
       originy="0"
       spacingx="1"
       spacingy="1"
       empcolor="#0099e5"
       empopacity="0.30196078"
       color="#0099e5"
       opacity="0.14901961"
       empspacing="5"
       enabled="true"
       visible="false" /></sodipodi:namedview><defs
     id="defs1"><inkscape:path-effect
       effect="fillet_chamfer"
       id="path-effect1"
       is_visible="true"
       lpeversion="1"
       nodesatellites_param="F,0,0,1,0,2.2572315,0,1 @ F,0,0,1,0,2.608162,0,1 @ F,0,0,1,0,2.5997618,0,1 @ F,0,0,1,0,3.0078049,0,1 @ F,0,0,1,0,2.2522004,0,1 @ F,0,0,1,0,2.8010871,0,1"
       radius="0"
       unit="px"
       method="auto"
       mode="F"
       chamfer_steps="1"
       flexible="false"
       use_knot_distance="true"
       apply_no_radius="true"
       apply_with_radius="true"
       only_selected="false"
       hide_knots="false" /><linearGradient
       id="prefix___Linear1"
       x1="0"
       y1="0"
       x2="1"
       y2="0"
       gradientUnits="userSpaceOnUse"
       gradientTransform="matrix(-42.25227,124.82178,-124.82178,-42.25227,66.919246,19.825024)"><stop
         offset="0"
         stop-color="#114a8b"
         id="stop4" /><stop
         offset="1"
         stop-color="#0669bc"
         id="stop5" /></linearGradient><linearGradient
       id="prefix___Linear2"
       x1="0"
       y1="0"
       x2="1"
       y2="0"
       gradientUnits="userSpaceOnUse"
       gradientTransform="matrix(-9.7734355,3.3047036,-3.3047036,-9.7734355,80.117548,77.995373)"><stop
         offset="0"
         stop-opacity=".3"
         id="stop6" /><stop
         offset=".07"
         stop-opacity=".2"
         id="stop7" /><stop
         offset=".32"
         stop-opacity=".1"
         id="stop8" /><stop
         offset=".62"
         stop-opacity=".05"
         id="stop9" /><stop
         offset="1"
         stop-opacity="0"
         id="stop10" /></linearGradient><linearGradient
       id="prefix___Linear3"
       x1="0"
       y1="0"
       x2="1"
       y2="0"
       gradientUnits="userSpaceOnUse"
       gradientTransform="matrix(46.380557,123.56369,-123.56369,46.380557,74.741389,16.184036)"><stop
         offset="0"
         stop-color="#3ccbf4"
         id="stop11" /><stop
         offset="1"
         stop-color="#2892df"
         id="stop12" /></linearGradient></defs><g
     inkscape:label="Layer 1"
     inkscape:groupmode="layer"
     id="layer1"><circle
       style="fill:#f2f2f2;fill-opacity:1;stroke:#afafaf;stroke-width:8;stroke-dasharray:none;stroke-opacity:1"
       id="path1"
       inkscape:label="background"
       cx="256.00003"
       cy="256.00006"
       r="241.31339" /><g
       style="clip-rule:evenodd;fill-rule:evenodd;stroke-linejoin:round;stroke-miterlimit:2"
       id="g1"
       transform="matrix(0.64045561,0,0,0.64045561,92.573341,92.863707)"><g
         fill-rule="nonzero"
         id="g4"><path
           d="M 52.091,10.225 H 92.775 L 50.541,135.361 a 6.5,6.5 0 0 1 -6.146,4.412 H 12.732 c -3.553,0 -6.477,-2.923 -6.477,-6.476 0,-0.704 0.115,-1.403 0.34,-2.07 L 45.944,14.638 a 6.501,6.501 0 0 1 6.147,-4.415 z"
           fill="url(#prefix___Linear1)"
           transform="matrix(3.37462,0,0,3.37462,2.076,1.626)"
           id="path1-0"
           style="fill:url(#prefix___Linear1)" /><path
           d="M 377.371,319.374 H 159.644 c -5.527,0 -10.076,4.549 -10.076,10.077 0,2.794 1.164,5.466 3.206,7.37 l 139.901,130.577 a 21.986,21.986 0 0 0 15.004,5.91 H 430.96 Z"
           fill="#0078d4"
           id="path2" /><path
           d="M 52.091,10.225 A 6.447,6.447 0 0 0 45.93,14.723 L 6.644,131.12 a 6.457,6.457 0 0 0 -0.38,2.185 c 0,3.548 2.92,6.468 6.469,6.468 H 45.23 a 6.95,6.95 0 0 0 5.328,-4.531 l 7.834,-23.089 27.985,26.102 a 6.622,6.622 0 0 0 4.165,1.518 h 36.395 L 110.975,94.158 64.442,94.169 92.922,10.225 Z"
           fill="url(#prefix___Linear2)"
           transform="matrix(3.37462,0,0,3.37462,2.076,1.626)"
           id="path3"
           style="fill:url(#prefix___Linear2)" /><path
           d="M 104.055,14.631 A 6.492,6.492 0 0 0 97.917,10.225 H 52.575 a 6.493,6.493 0 0 1 6.138,4.406 l 39.35,116.594 c 0.225,0.668 0.34,1.367 0.34,2.072 0,3.554 -2.924,6.478 -6.478,6.478 h 45.344 c 3.553,-0.001 6.476,-2.925 6.476,-6.478 0,-0.705 -0.115,-1.404 -0.34,-2.072 z"
           fill="url(#prefix___Linear3)"
           transform="matrix(3.37462,0,0,3.37462,2.076,1.626)"
           id="path4"
           style="fill:url(#prefix___Linear3)" /></g></g></g></svg>
