<?xml version="1.0" encoding="UTF-8" standalone="no"?>
<!-- Created with Inkscape (http://www.inkscape.org/) -->

<svg
   width="512"
   height="512"
   viewBox="0 0 512 512"
   version="1.1"
   id="svg1"
   xml:space="preserve"
   xmlns="http://www.w3.org/2000/svg"
   xmlns:svg="http://www.w3.org/2000/svg"><defs
     id="defs1"><style
       id="style1">.cls-1{fill:#1b1b1f;}</style></defs><g
     id="layer1"><circle
       style="fill:#f2f2f2;fill-opacity:1;stroke:#afafaf;stroke-width:8;stroke-dasharray:none;stroke-opacity:1"
       id="path1"
       cx="256.00003"
       cy="256.00006"
       r="241.31339" /><path
       class="cls-1"
       d="M 382.66555,156.56409 276.56107,93.583081 a 39.97442,39.97442 0 0 0 -40.75243,0 L 129.70416,156.56409 a 42.308422,42.308422 0 0 0 -20.63554,36.4549 v 125.96202 a 42.308422,42.308422 0 0 0 20.4503,36.4549 l 106.10449,62.98101 a 39.97442,39.97442 0 0 0 40.75242,0 l 106.10448,-62.98101 a 42.308422,42.308422 0 0 0 20.45031,-36.4549 V 193.01899 a 42.308422,42.308422 0 0 0 -20.26507,-36.4549 z m -82.1717,196.68601 v 9.03962 a 3.334289,3.334289 0 0 1 -1.556,2.77858 l -5.37191,3.07495 c -0.8521,0.44457 -1.556,0 -1.556,-1.18552 v -8.89144 a 17.449446,17.449446 0 0 1 -12.22573,1.18553 1.6300968,1.6300968 0 0 1 -0.59276,-2.00058 l 1.92648,-8.18753 a 3.4083843,3.4083843 0 0 1 1.07438,-1.77829 2.148764,2.148764 0 0 1 0.51867,-0.37047 1.074382,1.074382 0 0 1 0.85209,0 14.819062,14.819062 0 0 0 11.1143,-1.40781 14.819062,14.819062 0 0 0 8.29867,-12.70735 c 0,-4.59391 -2.51924,-6.52039 -8.59505,-6.55744 -7.70591,0 -14.81906,-1.4819 -15.0043,-12.85553 a 32.935366,32.935366 0 0 1 12.44801,-25.19241 v -9.15077 a 3.2972413,3.2972413 0 0 1 1.556,-2.81562 l 5.18667,-3.29724 c 0.8521,-0.44457 1.556,0 1.556,1.22257 v 9.15077 a 16.893731,16.893731 0 0 1 10.15106,-1.22257 1.6300968,1.6300968 0 0 1 0.66686,2.11172 l -1.81534,8.11343 a 3.4824796,3.4824796 0 0 1 -0.92619,1.6301 2.148764,2.148764 0 0 1 -0.51866,0.40752 1.2225726,1.2225726 0 0 1 -0.77801,0 13.448299,13.448299 0 0 0 -9.78058,1.59305 12.299822,12.299822 0 0 0 -7.40953,10.89201 c 0,4.14934 2.18581,5.40896 9.52125,5.55715 9.81763,0 14.04106,4.44572 14.1522,14.3004 a 35.121177,35.121177 0 0 1 -12.89258,26.56317 z m 55.57148,-15.22659 a 2.1117163,2.1117163 0 0 1 -0.81505,2.03762 l -26.8225,16.30097 a 0.77800076,0.77800076 0 0 1 -1.25962,-0.778 v -6.92791 a 1.9264781,1.9264781 0 0 1 1.22257,-1.7042 l 26.41498,-15.81934 a 0.77800076,0.77800076 0 0 1 1.25962,0.778 z m 18.52383,-154.89625 -100.39914,62.01778 c -12.52211,7.40953 -21.74698,15.52297 -21.74698,30.60136 v 123.66507 c 0,9.03963 3.70477,14.81907 9.26192,16.59735 a 32.490794,32.490794 0 0 1 -5.55715,0.55572 32.86127,32.86127 0 0 1 -16.74554,-4.63096 L 133.29778,348.95257 A 34.898891,34.898891 0 0 1 116.47815,318.98101 V 193.01899 a 34.898891,34.898891 0 0 1 16.81963,-30.0086 l 106.10449,-62.98102 a 32.71308,32.71308 0 0 1 33.34289,0 l 106.10448,62.98102 a 34.676605,34.676605 0 0 1 16.30097,24.26621 c -3.44543,-7.48363 -11.37363,-9.55829 -20.5985,-4.14934 z"
       id="path1-4"
       style="stroke-width:3.70477;fill:#4d4d4d" /></g></svg>
