<?xml version="1.0" encoding="UTF-8" standalone="no"?>
<!-- Created with Inkscape (http://www.inkscape.org/) -->

<svg
   width="512"
   height="512"
   viewBox="0 0 512 512"
   version="1.1"
   id="svg1"
   xml:space="preserve"
   xmlns="http://www.w3.org/2000/svg"
   xmlns:svg="http://www.w3.org/2000/svg"><defs
     id="defs1" /><g
     id="layer1"><circle
       style="fill:#f06a35;fill-opacity:1;stroke:#858585;stroke-width:8;stroke-dasharray:none;stroke-opacity:1"
       id="path1"
       cx="256.00003"
       cy="256.00006"
       r="241.31339" /><g
       id="g1"
       transform="matrix(1.0666667,0,0,1.0666667,-294.47178,230.30648)"><path
         fill="#f06a35"
         d="m 20.512413,178.49886 c -3.359449,-0.8837 -6.258272,-2.1837 -8.931866,-4.0056 -2.256922,-1.5379 -5.555601,-4.7174 -6.810077,-6.5637 -1.532132,-2.255 -3.293254,-6.1168 -4.010994,-8.795 C 0.027414,156.40266 0.015549,155.31476 0.002413,89.73955 -0.010647,24.49544 0.004213,23.06078 0.721748,20.25691 3.259268,10.34132 11.117019,2.7971 21.251347,0.54646 24.165189,-0.10065 154.33114,-0.21383 157.47424,0.42803 c 8.509,1.73759 15.19772,6.84619 19.06824,14.56362 3.07712,6.13545 2.80203,-0.61622 2.94296,72.23085 0.0897,46.34991 0.007,65.80856 -0.28883,68.23286 -1.38576,11.3442 -9.21068,20.1431 -20.47015,23.0183 -2.8802,0.7354 -3.88213,0.7459 -69.275124,0.7259 -63.227195,-0.019 -66.474476,-0.052 -68.938923,-0.7007 z"
         id="path1-0"
         style="fill:none" /><path
         fill="none"
         d="M -82.99522,87.83767 V -84.06232 h 1020 v 343.79998 h -1020 V 87.83767 Z"
         id="path2" /><g
         id="g2"
         transform="matrix(2.3617078,0,0,2.3617078,304.43082,-187.65708)"><path
           fill="#ffffff"
           d="m 115.16168,144.83466 c 8.06475,-1.1001 14.38453,-4.3325 20.31333,-10.3896 4.289,-4.38181 6.97381,-9.12472 8.72838,-15.41921 0.7289,-2.6149 0.79001,-3.88807 0.92358,-19.24149 0.10081,-11.58796 0.0167,-17.01514 -0.28507,-18.38528 -0.43735,-1.98593 -1.67711,-3.83016 -3.09169,-4.59911 -0.4353,-0.23661 -3.22433,-0.53819 -6.19786,-0.67015 -4.98268,-0.22115 -5.54015,-0.31832 -7.11287,-1.24 -2.49468,-1.46198 -3.18172,-3.04069 -3.18854,-7.32677 -0.013,-8.1894 -3.42109,-15.79237 -10.15489,-22.65435 C 110.29878,40.0201 104.94716,36.71111 98.839485,34.85698 97.377318,34.4131 94.10338,34.26205 83.137124,34.13246 65.930148,33.92914 62.110721,34.28185 56.252846,36.61511 45.453113,40.91679 37.693283,49.98253 34.862694,61.60503 c -0.531646,2.18295 -0.634845,5.6815 -0.760427,25.77865 -0.157327,25.17748 0.01622,28.87467 1.589422,33.86414 1.299798,4.12233 2.611223,6.64844 5.312916,10.23388 5.146805,6.83036 12.860236,11.76336 20.572006,13.15646 3.669923,0.6631 48.947929,0.829 53.585069,0.1965 z"
           id="path3" /><path
           fill="#f06a35"
           d="m 67.575009,75.71747 c -4.122941,-1.13646 -5.663468,-7.05179 -2.633227,-10.11109 1.936756,-1.95536 2.47218,-2.02981 14.595249,-2.02981 10.883358,0 11.24919,0.0238 12.847876,0.83129 2.310253,1.16711 3.314106,2.81263 3.314106,5.43252 0,2.36619 -0.942769,4.0244 -3.045645,5.35691 -1.129143,0.71549 -1.803912,0.76002 -12.467242,0.82265 -6.58448,0.0387 -11.829856,-0.0872 -12.611117,-0.30247 z m -0.516582,39.80858 c -1.769748,-0.77113 -3.417824,-2.91327 -3.702653,-4.81263 -0.271319,-1.80929 0.637963,-4.29669 2.031786,-5.55809 1.756975,-1.59003 2.528072,-1.64307 24.134743,-1.66008 22.226357,-0.0174 22.110677,-0.0268 24.218307,1.94113 2.97683,2.77944 2.34894,7.7279 -1.23836,9.75964 l -3.68633,0.59948 -19.213117,0.22489 c -16.883062,0.19762 -21.665642,-0.1114 -22.544376,-0.49433 z"
           id="path4" /></g></g></g></svg>
