<?xml version="1.0" encoding="UTF-8" standalone="no"?>
<!-- Created with Inkscape (http://www.inkscape.org/) -->

<svg
   width="512"
   height="512"
   viewBox="0 0 512 512"
   version="1.1"
   id="svg1"
   xml:space="preserve"
   xmlns="http://www.w3.org/2000/svg"
   xmlns:svg="http://www.w3.org/2000/svg"><defs
     id="defs1" /><g
     id="layer1"><circle
       style="fill:#f2f2f2;fill-opacity:1;stroke:#afafaf;stroke-width:8;stroke-dasharray:none;stroke-opacity:1"
       id="path1"
       cx="256.00003"
       cy="256.00006"
       r="241.31339" /><g
       id="g1"
       transform="matrix(2.8481013,0,0,2.8481013,73.721517,73.173257)"><path
         d="m 113.744,41.999 a 18.558,18.558 0 0 0 -0.8,-0.772 c -0.272,-0.246 -0.528,-0.524 -0.8,-0.771 -0.272,-0.247 -0.528,-0.525 -0.8,-0.771 -0.272,-0.247 -0.528,-0.525 -0.8,-0.772 -0.272,-0.247 -0.528,-0.524 -0.8,-0.771 -0.272,-0.247 -0.528,-0.525 -0.8,-0.772 -0.272,-0.247 -0.528,-0.524 -0.8,-0.771 7.936,7.52 12.483,17.752 12.656,28.481 0,25.565 -26.912,46.363 -60,46.363 -18.528,0 -35.104,-6.526 -46.128,-16.756 l 0.8,0.772 0.8,0.771 0.8,0.772 0.8,0.771 0.8,0.772 0.8,0.771 0.8,0.771 c 11.008,10.662 27.952,17.527 46.928,17.527 33.088,0 60,-20.797 60,-46.285 0,-10.893 -4.864,-21.215 -13.456,-29.33 z"
         id="path1-0" /><path
         fill="#fbf0df"
         d="m 116.8,65.08 c 0,23.467 -25.072,42.49 -56,42.49 -30.928,0 -56,-19.023 -56,-42.49 C 4.8,50.53 14.4,37.679 29.152,30.057 43.904,22.435 53.088,14.628 60.8,14.628 68.512,14.628 75.104,21 92.448,30.058 107.2,37.677 116.8,50.53 116.8,65.08 Z"
         id="path2" /><path
         fill="#f6dece"
         d="m 116.8,65.08 a 32.314,32.314 0 0 0 -1.28,-8.918 c -4.368,51.377 -69.36,53.846 -94.912,38.48 11.486,8.584 25.66,13.144 40.192,12.928 30.88,0 56,-19.054 56,-42.49 z"
         id="path3" /><path
         fill="#fffefc"
         d="m 39.248,27.234 c 7.152,-4.135 16.656,-11.896 26,-11.911 A 15.372,15.372 0 0 0 60.8,14.628 c -3.872,0 -8,1.93 -13.2,4.83 -1.808,1.018 -3.68,2.144 -5.664,3.317 -3.728,2.222 -8,4.736 -12.8,7.251 C 13.904,37.972 4.8,51.071 4.8,65.08 v 1.836 C 14.496,33.883 32.112,31.369 39.248,27.234 Z"
         id="path4" /><path
         fill="#ccbea7"
         d="M 56.192,18.532 A 24.553,24.553 0 0 1 53.867,29.1 25.407,25.407 0 0 1 47.184,37.771 c -0.448,0.386 -0.096,1.127 0.48,0.91 5.392,-2.02 12.672,-8.068 9.6,-20.272 -0.128,-0.695 -1.072,-0.51 -1.072,0.123 z m 3.632,0 a 24.474,24.474 0 0 1 3.646,10.12 c 0.445,3.587 0.08,7.224 -1.07,10.662 -0.192,0.54 0.496,1.003 0.88,0.556 3.504,-4.32 6.56,-12.899 -2.592,-22.156 -0.464,-0.4 -1.184,0.216 -0.864,0.756 z M 64.24,18.27 a 25.702,25.702 0 0 1 7.521,7.925 24.71,24.71 0 0 1 3.439,10.219 c -0.016,0.13 0.02,0.26 0.101,0.365 a 0.543,0.543 0 0 0 0.718,0.117 0.509,0.509 0 0 0 0.221,-0.313 c 1.472,-5.384 0.64,-14.564 -11.472,-19.332 -0.64,-0.246 -1.056,0.587 -0.528,0.957 z M 34.704,34.315 a 27.418,27.418 0 0 0 9.91,-5.222 26.262,26.262 0 0 0 6.842,-8.663 c 0.288,-0.556 1.2,-0.34 1.056,0.277 -2.768,12.343 -12.032,14.92 -17.792,14.58 -0.608,0.016 -0.592,-0.802 -0.016,-0.972 z"
         id="path5" /><path
         d="m 60.8,111.443 c -33.088,0 -60,-20.798 -60,-46.363 0,-15.429 9.888,-29.823 26.448,-38.448 4.8,-2.469 8.912,-4.953 12.576,-7.128 2.016,-1.203 3.92,-2.33 5.76,-3.379 C 51.2,12.916 56,10.771 60.8,10.771 c 4.8,0 8.992,1.852 14.24,4.845 1.6,0.88 3.2,1.836 4.912,2.885 3.984,2.376 8.48,5.06 14.4,8.131 16.56,8.625 26.448,23.004 26.448,38.448 0,25.565 -26.912,46.363 -60,46.363 z m 0,-96.814 c -3.872,0 -8,1.928 -13.2,4.829 -1.808,1.018 -3.68,2.144 -5.664,3.317 -3.728,2.222 -8,4.736 -12.8,7.251 C 13.904,37.972 4.8,51.071 4.8,65.08 c 0,23.436 25.12,42.506 56,42.506 30.88,0 56,-19.07 56,-42.506 0,-14.01 -9.104,-27.108 -24.352,-35.023 -6.048,-3.086 -10.768,-5.986 -14.592,-8.27 -1.744,-1.033 -3.344,-1.99 -4.8,-2.838 -4.848,-2.778 -8.384,-4.32 -12.256,-4.32 z"
         id="path6" /><path
         fill="#b71422"
         d="m 72.08,76.343 c -0.719,2.839 -2.355,5.383 -4.672,7.267 a 11.07,11.07 0 0 1 -6.4,2.9 11.13,11.13 0 0 1 -6.608,-2.9 c -2.293,-1.892 -3.906,-4.436 -4.608,-7.267 a 1.073,1.073 0 0 1 0.05,-0.5 1.11,1.11 0 0 1 0.272,-0.428 1.19,1.19 0 0 1 0.958,-0.322 h 19.744 a 1.185,1.185 0 0 1 0.947,0.33 1.073,1.073 0 0 1 0.317,0.92 z"
         id="path7" /><path
         fill="#ff6164"
         d="m 54.4,83.733 a 11.24,11.24 0 0 0 6.592,2.932 11.239,11.239 0 0 0 6.576,-2.932 16.652,16.652 0 0 0 1.6,-1.65 10.904,10.904 0 0 0 -3.538,-2.564 11.26,11.26 0 0 0 -4.302,-1 10.121,10.121 0 0 0 -4.549,1.192 9.71,9.71 0 0 0 -3.451,3.097 c 0.368,0.323 0.688,0.632 1.072,0.925 z"
         id="path8" /><path
         d="m 54.656,82.514 a 8.518,8.518 0 0 1 2.97,-2.347 8.836,8.836 0 0 1 3.734,-0.862 9.78,9.78 0 0 1 6.4,2.608 c 0.368,-0.386 0.72,-0.787 1.056,-1.188 -2.035,-1.87 -4.726,-2.933 -7.536,-2.978 a 10.487,10.487 0 0 0 -4.335,0.975 10.125,10.125 0 0 0 -3.489,2.666 c 0.378,0.396 0.779,0.772 1.2,1.126 z"
         id="path9" /><path
         d="m 60.944,87.436 a 12.078,12.078 0 0 1 -7.12,-3.086 c -2.477,-2.02 -4.22,-4.75 -4.976,-7.791 -0.054,-0.27 -0.045,-0.55 0.027,-0.817 a 1.83,1.83 0 0 1 0.389,-0.726 2.25,2.25 0 0 1 0.81,-0.595 2.32,2.32 0 0 1 0.998,-0.192 h 19.744 c 0.343,-0.007 0.683,0.06 0.996,0.196 a 2.3,2.3 0 0 1 0.812,0.591 c 0.182,0.212 0.313,0.46 0.382,0.728 0.07,0.267 0.076,0.545 0.018,0.815 -0.756,3.042 -2.5,5.771 -4.976,7.791 a 12.078,12.078 0 0 1 -7.104,3.086 z M 51.072,76.019 c -0.256,0 -0.32,0.108 -0.336,0.139 0.676,2.638 2.206,4.999 4.368,6.742 a 10.122,10.122 0 0 0 5.84,2.7 10.207,10.207 0 0 0 5.84,-2.67 c 2.155,-1.745 3.679,-4.106 4.352,-6.741 a 0.333,0.333 0 0 0 -0.14,-0.113 0.348,0.348 0 0 0 -0.18,-0.026 z"
         id="path10" /><path
         fill="#febbd0"
         d="m 85.152,77.3 c 5.17,0 9.36,-2.377 9.36,-5.308 0,-2.931 -4.19,-5.307 -9.36,-5.307 -5.17,0 -9.36,2.376 -9.36,5.307 0,2.931 4.19,5.307 9.36,5.307 z m -48.432,0 c 5.17,0 9.36,-2.377 9.36,-5.308 0,-2.931 -4.19,-5.307 -9.36,-5.307 -5.17,0 -9.36,2.376 -9.36,5.307 0,2.931 4.19,5.307 9.36,5.307 z"
         id="path11" /><path
         d="m 41.12,69.863 a 9.052,9.052 0 0 0 4.902,-1.425 8.578,8.578 0 0 0 3.254,-3.812 8.22,8.22 0 0 0 0.508,-4.913 8.41,8.41 0 0 0 -2.408,-4.357 8.92,8.92 0 0 0 -4.514,-2.33 9.12,9.12 0 0 0 -5.096,0.48 8.755,8.755 0 0 0 -3.96,3.131 8.287,8.287 0 0 0 -1.486,4.725 c 0,2.252 0.927,4.412 2.577,6.005 1.65,1.594 3.888,2.492 6.223,2.496 z m 39.632,0 a 9.054,9.054 0 0 0 4.915,-1.403 8.582,8.582 0 0 0 3.275,-3.802 8.22,8.22 0 0 0 0.528,-4.917 8.408,8.408 0 0 0 -2.398,-4.368 8.92,8.92 0 0 0 -4.512,-2.344 9.12,9.12 0 0 0 -5.103,0.473 8.756,8.756 0 0 0 -3.967,3.13 8.287,8.287 0 0 0 -1.49,4.73 c -0.004,2.245 0.914,4.4 2.555,5.994 1.64,1.593 3.869,2.495 6.197,2.507 z"
         id="path12" /><path
         fill="#ffffff"
         d="m 38.4,61.902 a 3.4,3.4 0 0 0 1.844,-0.531 c 0.547,-0.35 0.974,-0.847 1.227,-1.43 a 3.088,3.088 0 0 0 0.195,-1.847 3.16,3.16 0 0 0 -0.902,-1.639 3.351,3.351 0 0 0 -1.696,-0.878 3.426,3.426 0 0 0 -1.916,0.179 3.29,3.29 0 0 0 -1.489,1.176 3.113,3.113 0 0 0 -0.559,1.776 c 0,0.844 0.347,1.654 0.964,2.253 a 3.374,3.374 0 0 0 2.332,0.94 z m 39.632,0 a 3.4,3.4 0 0 0 1.844,-0.531 c 0.547,-0.35 0.974,-0.847 1.227,-1.43 a 3.088,3.088 0 0 0 0.195,-1.847 3.16,3.16 0 0 0 -0.902,-1.639 3.351,3.351 0 0 0 -1.696,-0.878 3.426,3.426 0 0 0 -1.916,0.179 3.29,3.29 0 0 0 -1.489,1.176 3.113,3.113 0 0 0 -0.559,1.776 c 0,0.84 0.342,1.644 0.953,2.242 0.61,0.598 1.44,0.94 2.311,0.952 z"
         id="path13" /></g></g></svg>
