<?xml version="1.0" encoding="UTF-8" standalone="no"?>
<!-- Created with Inkscape (http://www.inkscape.org/) -->

<svg
   width="512"
   height="512"
   viewBox="0 0 512 512"
   version="1.1"
   id="svg1"
   xml:space="preserve"
   inkscape:version="1.4.2 (f4327f4, 2025-05-13)"
   sodipodi:docname="chocolatey.svg"
   xmlns:inkscape="http://www.inkscape.org/namespaces/inkscape"
   xmlns:sodipodi="http://sodipodi.sourceforge.net/DTD/sodipodi-0.dtd"
   xmlns="http://www.w3.org/2000/svg"
   xmlns:svg="http://www.w3.org/2000/svg"><sodipodi:namedview
     id="namedview1"
     pagecolor="#ffffff"
     bordercolor="#999999"
     borderopacity="1"
     inkscape:showpageshadow="2"
     inkscape:pageopacity="0"
     inkscape:pagecheckerboard="0"
     inkscape:deskcolor="#d1d1d1"
     inkscape:document-units="px"
     showgrid="false"
     inkscape:zoom="1"
     inkscape:cx="313"
     inkscape:cy="277.5"
     inkscape:window-width="1920"
     inkscape:window-height="1001"
     inkscape:window-x="-9"
     inkscape:window-y="-9"
     inkscape:window-maximized="1"
     inkscape:current-layer="layer1"><inkscape:grid
       id="grid1"
       units="mm"
       originx="0"
       originy="0"
       spacingx="1"
       spacingy="1"
       empcolor="#0099e5"
       empopacity="0.30196078"
       color="#0099e5"
       opacity="0.14901961"
       empspacing="5"
       enabled="true"
       visible="false" /></sodipodi:namedview><defs
     id="defs1"><inkscape:path-effect
       effect="fillet_chamfer"
       id="path-effect1"
       is_visible="true"
       lpeversion="1"
       nodesatellites_param="F,0,0,1,0,2.2572315,0,1 @ F,0,0,1,0,2.608162,0,1 @ F,0,0,1,0,2.5997618,0,1 @ F,0,0,1,0,3.0078049,0,1 @ F,0,0,1,0,2.2522004,0,1 @ F,0,0,1,0,2.8010871,0,1"
       radius="0"
       unit="px"
       method="auto"
       mode="F"
       chamfer_steps="1"
       flexible="false"
       use_knot_distance="true"
       apply_no_radius="true"
       apply_with_radius="true"
       only_selected="false"
       hide_knots="false" /></defs><g
     inkscape:label="Layer 1"
     inkscape:groupmode="layer"
     id="layer1"><circle
       style="fill:#f2f2f2;fill-opacity:1;stroke:#afafaf;stroke-width:8;stroke-dasharray:none;stroke-opacity:1"
       id="path1"
       inkscape:label="background"
       cx="256.00003"
       cy="256.00006"
       r="241.31339" /><g
       id="g10"
       transform="matrix(9.4637224,0,0,9.4637224,106,121.61514)">
	<polygon
   fill="#924716"
   points="27.6,27.2 5.7,27.2 5.7,1 27.6,1 27.6,6.9 "
   id="polygon1" />
	<polygon
   fill="#793812"
   points="27.6,27.2 25.7,27.2 25.7,2.6 27.6,1 "
   id="polygon2" />
	<polygon
   fill="#9f5326"
   points="3.5,2.6 3.5,1 27.3,1 25.4,2.6 "
   id="polygon3" />
	<g
   id="g5">
		<polygon
   fill="#80b5e3"
   points="16.6,2.6 19.1,5.7 23.8,4.9 25.7,10.7 27.6,18.1 30.5,21.1 29,23.6 31.7,28.4 27.6,27.2 3.7,27.2 3.7,1 8.5,1 12.6,4.2 "
   id="polygon4" />
		<polygon
   fill="#80b5e3"
   points="1.9,10.8 0,14.1 1.9,17.3 0,20.6 1.9,23.9 0,28.4 3.7,27.2 3.7,1 0,0 1.9,4.2 0,7.5 "
   id="polygon5" />
	</g>
	<polygon
   opacity="0.2"
   fill="#ffffff"
   points="5.4,2.6 3.5,1 8.3,1 10.4,2.6 "
   id="polygon6" />
	<g
   id="g7">
		<path
   fill="#924716"
   d="m 18.3,13.7 c -0.7,0.6 -2.5,1.9 -4.4,2.3 -2.3,0.5 -3.6,-1.4 -3.1,-3.2 0.5,-2.1 2.8,-3.7 4.8,-3 0.9,0.3 0.6,1.5 0.3,2.1 -0.8,1.5 0.3,1.7 0.8,1.2 1.5,-1.6 2.4,-4.3 -0.2,-5.3 -4,-1.5 -7.3,2.2 -8.4,5.2 -1.7,4.8 2.4,9 7.1,5.8 1.2,-0.8 2.6,-2.2 3.5,-3.4 0.8,-1.2 0.3,-2.3 -0.4,-1.7 z"
   id="path6" />
		<ellipse
   transform="matrix(0.707,-0.7072,0.7072,0.707,-1.547,19.2306)"
   fill="#924716"
   cx="22.4"
   cy="11.5"
   rx="1.6"
   ry="1.1"
   id="ellipse6" />
		<ellipse
   transform="matrix(0.707,-0.7072,0.7072,0.707,-4.7882,20.1076)"
   fill="#924716"
   cx="21.9"
   cy="15.8"
   rx="1.6"
   ry="1.1"
   id="ellipse7" />
	</g>
	<polygon
   opacity="0.2"
   fill="#ffffff"
   points="3.7,27.2 3.7,1 5.7,2.6 5.7,25.5 "
   id="polygon7" />
	<g
   opacity="0.2"
   id="g9">
		<polygon
   fill="#342565"
   points="3.7,27.2 5.7,25.5 25.7,25.5 27.6,27.2 "
   id="polygon8" />
		<polygon
   fill="#342565"
   points="25.7,25.5 25.7,10.7 27.6,18.1 27.6,27.2 "
   id="polygon9" />
	</g>
</g></g></svg>
