<?xml version="1.0" encoding="UTF-8" standalone="no"?>
<!-- Created with Inkscape (http://www.inkscape.org/) -->

<svg
   width="512"
   height="512"
   viewBox="0 0 512 512"
   version="1.1"
   id="svg1"
   xml:space="preserve"
   inkscape:version="1.4.2 (f4327f4, 2025-05-13)"
   sodipodi:docname="circleci.svg"
   xmlns:inkscape="http://www.inkscape.org/namespaces/inkscape"
   xmlns:sodipodi="http://sodipodi.sourceforge.net/DTD/sodipodi-0.dtd"
   xmlns="http://www.w3.org/2000/svg"
   xmlns:svg="http://www.w3.org/2000/svg"><sodipodi:namedview
     id="namedview1"
     pagecolor="#ffffff"
     bordercolor="#999999"
     borderopacity="1"
     inkscape:showpageshadow="2"
     inkscape:pageopacity="0"
     inkscape:pagecheckerboard="0"
     inkscape:deskcolor="#d1d1d1"
     inkscape:document-units="px"
     showgrid="false"
     inkscape:zoom="1"
     inkscape:cx="313"
     inkscape:cy="277.5"
     inkscape:window-width="1920"
     inkscape:window-height="1001"
     inkscape:window-x="-9"
     inkscape:window-y="-9"
     inkscape:window-maximized="1"
     inkscape:current-layer="layer1"><inkscape:grid
       id="grid1"
       units="mm"
       originx="0"
       originy="0"
       spacingx="1"
       spacingy="1"
       empcolor="#0099e5"
       empopacity="0.30196078"
       color="#0099e5"
       opacity="0.14901961"
       empspacing="5"
       enabled="true"
       visible="false" /></sodipodi:namedview><defs
     id="defs1"><inkscape:path-effect
       effect="fillet_chamfer"
       id="path-effect1"
       is_visible="true"
       lpeversion="1"
       nodesatellites_param="F,0,0,1,0,2.2572315,0,1 @ F,0,0,1,0,2.608162,0,1 @ F,0,0,1,0,2.5997618,0,1 @ F,0,0,1,0,3.0078049,0,1 @ F,0,0,1,0,2.2522004,0,1 @ F,0,0,1,0,2.8010871,0,1"
       radius="0"
       unit="px"
       method="auto"
       mode="F"
       chamfer_steps="1"
       flexible="false"
       use_knot_distance="true"
       apply_no_radius="true"
       apply_with_radius="true"
       only_selected="false"
       hide_knots="false" /></defs><g
     inkscape:label="Layer 1"
     inkscape:groupmode="layer"
     id="layer1"><circle
       style="fill:#f2f2f2;fill-opacity:1;stroke:#afafaf;stroke-width:8;stroke-dasharray:none;stroke-opacity:1"
       id="path1"
       inkscape:label="background"
       cx="256.00003"
       cy="256.00006"
       r="241.31339" /><g
       style="fill:#303030;fill-opacity:1"
       id="g1"
       transform="matrix(14,0,0,14,88.014,88)"><path
         d="m 8.963,12 c 0,-1.584 1.284,-2.855 2.855,-2.855 1.572,0 2.856,1.284 2.856,2.855 0,1.572 -1.284,2.856 -2.856,2.856 -1.57,0 -2.855,-1.284 -2.855,-2.856 z M 11.818,0 C 6.215,0 1.522,3.84 0.19,9.025 0.18,9.061 0.18,9.095 0.18,9.145 c 0,0.313 0.252,0.576 0.575,0.576 H 5.59 c 0.23,0 0.433,-0.13 0.517,-0.333 0.997,-2.16 3.18,-3.672 5.712,-3.672 3.466,0 6.286,2.82 6.286,6.287 0,3.47 -2.82,6.29 -6.29,6.29 -2.53,0 -4.714,-1.5 -5.71,-3.673 C 6.008,14.43 5.815,14.284 5.588,14.284 H 0.755 c -0.312,0 -0.575,0.253 -0.575,0.576 0,0.037 0.014,0.072 0.014,0.12 1.32,5.18 6.02,9.02 11.624,9.02 6.624,0 12,-5.375 12,-12 0,-6.623 -5.376,-12 -12,-12 z"
         id="path1-8"
         style="fill:#303030;fill-opacity:1" /></g></g></svg>
