<?xml version="1.0" encoding="UTF-8" standalone="no"?>
<!-- Created with Inkscape (http://www.inkscape.org/) -->

<svg
   width="512"
   height="512"
   viewBox="0 0 512 512"
   version="1.1"
   id="svg1"
   xml:space="preserve"
   xmlns="http://www.w3.org/2000/svg"
   xmlns:svg="http://www.w3.org/2000/svg"><defs
     id="defs1" /><g
     id="layer1"><circle
       style="fill:#f2f2f2;fill-opacity:1;stroke:#afafaf;stroke-width:8;stroke-dasharray:none;stroke-opacity:1"
       id="path1"
       cx="256.00003"
       cy="256.00006"
       r="241.31339" /><g
       style="fill:#303030;fill-opacity:1"
       id="g1"
       transform="matrix(14,0,0,14,88.014,88)"><path
         d="m 8.963,12 c 0,-1.584 1.284,-2.855 2.855,-2.855 1.572,0 2.856,1.284 2.856,2.855 0,1.572 -1.284,2.856 -2.856,2.856 -1.57,0 -2.855,-1.284 -2.855,-2.856 z M 11.818,0 C 6.215,0 1.522,3.84 0.19,9.025 0.18,9.061 0.18,9.095 0.18,9.145 c 0,0.313 0.252,0.576 0.575,0.576 H 5.59 c 0.23,0 0.433,-0.13 0.517,-0.333 0.997,-2.16 3.18,-3.672 5.712,-3.672 3.466,0 6.286,2.82 6.286,6.287 0,3.47 -2.82,6.29 -6.29,6.29 -2.53,0 -4.714,-1.5 -5.71,-3.673 C 6.008,14.43 5.815,14.284 5.588,14.284 H 0.755 c -0.312,0 -0.575,0.253 -0.575,0.576 0,0.037 0.014,0.072 0.014,0.12 1.32,5.18 6.02,9.02 11.624,9.02 6.624,0 12,-5.375 12,-12 0,-6.623 -5.376,-12 -12,-12 z"
         id="path1-8"
         style="fill:#303030;fill-opacity:1" /></g></g></svg>
