<?xml version="1.0" encoding="UTF-8" standalone="no"?>
<!-- Created with Inkscape (http://www.inkscape.org/) -->

<svg
   width="512"
   height="512"
   viewBox="0 0 512 512"
   version="1.1"
   id="svg1"
   xml:space="preserve"
   xmlns="http://www.w3.org/2000/svg"
   xmlns:svg="http://www.w3.org/2000/svg"><defs
     id="defs1"><linearGradient
       x1="99.311856"
       y1="45.396916"
       x2="203.74917"
       y2="45.396916"
       id="linearGradient-1"
       gradientTransform="scale(0.81943892,1.2203472)"
       gradientUnits="userSpaceOnUse"><stop
         stop-color="#ED358C"
         offset="0%"
         id="stop1" /><stop
         stop-color="#E9388C"
         offset="16%"
         id="stop2" /><stop
         stop-color="#DE418C"
         offset="30%"
         id="stop3" /><stop
         stop-color="#CC508C"
         offset="43%"
         id="stop4" /><stop
         stop-color="#B2658D"
         offset="57%"
         id="stop5" /><stop
         stop-color="#90808D"
         offset="70%"
         id="stop6" /><stop
         stop-color="#67A18E"
         offset="83%"
         id="stop7" /><stop
         stop-color="#37C78F"
         offset="95%"
         id="stop8" /><stop
         stop-color="#22D88F"
         offset="100%"
         id="stop9" /></linearGradient><linearGradient
       x1="90.434702"
       y1="23.647463"
       x2="38.194643"
       y2="205.67961"
       id="linearGradient-2"
       gradientTransform="scale(0.72051991,1.3878867)"
       gradientUnits="userSpaceOnUse"><stop
         stop-color="#22D88F"
         offset="9%"
         id="stop10" /><stop
         stop-color="#029DE0"
         offset="90%"
         id="stop11" /></linearGradient><linearGradient
       x1="26007.159"
       y1="-161806.5"
       x2="-2682.5636"
       y2="-195117.16"
       id="linearGradient-3"
       gradientTransform="scale(1.0239604,0.97660023)"
       gradientUnits="userSpaceOnUse"><stop
         stop-color="#22D88F"
         offset="9%"
         id="stop12" /><stop
         stop-color="#029DE0"
         offset="90%"
         id="stop13" /></linearGradient><linearGradient
       x1="9323.0071"
       y1="-114144.79"
       x2="15474.741"
       y2="-115220.76"
       id="linearGradient-4"
       gradientTransform="scale(1.0530868,0.94958933)"
       gradientUnits="userSpaceOnUse"><stop
         stop-color="#22D88F"
         offset="9%"
         id="stop14" /><stop
         stop-color="#029DE0"
         offset="90%"
         id="stop15" /></linearGradient></defs><g
     id="layer1"><circle
       style="fill:#f2f2f2;fill-opacity:1;stroke:#afafaf;stroke-width:8;stroke-dasharray:none;stroke-opacity:1"
       id="path1"
       cx="256.00003"
       cy="256.00006"
       r="241.31339" /><g
       id="g18"
       transform="matrix(1.3125,0,0,1.3125,88,88)"><polygon
         fill="url(#linearGradient-1)"
         points="81.2,110.8 96.8,0 155.6,32.4 98.4,103.6 "
         id="polygon15"
         style="fill:url(#linearGradient-1)" /><polygon
         fill="url(#linearGradient-2)"
         points="97.6,0 23.6,46.4 0,188 89.2,153.6 "
         id="polygon16"
         style="fill:url(#linearGradient-2)" /><polygon
         fill="url(#linearGradient-3)"
         points="83.2,248.8 187.2,154.4 250.8,76.8 218,9.6 155.6,32.4 110,82.8 0,188 "
         id="polygon17"
         style="fill:url(#linearGradient-3)" /><polygon
         fill="url(#linearGradient-4)"
         points="107.6,109.2 93.2,196.8 151.6,242 215.6,256 256,164.8 "
         id="polygon18"
         style="fill:url(#linearGradient-4)" /><rect
         fill="#000000"
         x="48"
         y="48"
         width="160"
         height="160"
         id="rect18" /><path
         d="m 63.2,178 h 60 v 10 h -60 z M 62,102.4 C 61.795762,93.215463 65.354413,84.34652 71.850466,77.850466 78.34652,71.354413 87.215463,67.795762 96.4,68 c 12.4,0 20,4 26,10.4 l -9.2,10.8 c -5.2,-4.8 -10.4,-7.6 -16.8,-7.6 -11.2,0 -19.2,9.2 -19.2,20.8 0,11.2 8,20.8 19.2,20.8 7.6,0 12.4,-3.2 17.6,-7.6 l 9.2,9.2 c -6.8,7.2 -14.4,12 -27.2,12 -9.087095,6.3e-4 -17.796303,-3.63636 -24.184164,-10.09937 C 65.427975,120.23762 61.893093,111.48647 62,102.4 Z M 133.2,68.8 H 148 v 54 h 28.8 v 12.4 h -43.6 z"
         fill="#ffffff"
         id="path18" /></g></g></svg>
