<?xml version="1.0" encoding="UTF-8" standalone="no"?>
<!-- Created with Inkscape (http://www.inkscape.org/) -->

<svg
   width="512"
   height="512"
   viewBox="0 0 512 512"
   version="1.1"
   id="svg1"
   xml:space="preserve"
   xmlns="http://www.w3.org/2000/svg"
   xmlns:svg="http://www.w3.org/2000/svg"><defs
     id="defs1" /><g
     id="layer1"><circle
       style="fill:#2e3548;fill-opacity:1;stroke:#858585;stroke-width:8;stroke-dasharray:none;stroke-opacity:1"
       id="path1"
       cx="256.00003"
       cy="256.00006"
       r="241.31339" /><g
       id="g1"
       transform="matrix(0.46386719,0,0,0.46386719,18.499999,18.499999)"><circle
         cx="512"
         cy="512"
         r="512"
         style="fill:#f38020"
         id="circle1" /><path
         d="m 608.2,592.4 c 3.1,-10.8 1.9,-20.7 -3.3,-28.1 -4.8,-6.7 -12.9,-10.6 -22.6,-11.1 l -184.7,-2.4 c -1.1,0 -2.2,-0.6 -2.8,-1.5 -0.6,-0.9 -0.7,-2.1 -0.4,-3.3 0.6,-1.8 2.4,-3.2 4.3,-3.3 l 186.4,-2.4 c 22.1,-1 46.1,-18.9 54.5,-40.8 l 10.6,-27.8 c 0.5,-1.2 0.6,-2.4 0.3,-3.6 -12,-54.3 -60.5,-94.8 -118.4,-94.8 -53.4,0 -98.7,34.5 -114.9,82.4 -10.5,-7.8 -23.9,-12 -38.3,-10.6 -25.7,2.5 -46.2,23.1 -48.8,48.8 -0.6,6.6 -0.1,13.1 1.4,19.1 -41.9,1.2 -75.3,35.4 -75.3,77.6 0,3.7 0.3,7.5 0.8,11.2 0.3,1.8 1.8,3.1 3.6,3.1 h 340.9 c 1.9,0 3.8,-1.4 4.3,-3.3 z M 667,473.7 c -1.6,0 -3.4,0 -5.1,0.2 -1.2,0 -2.2,0.9 -2.7,2.1 l -7.2,25 c -3.1,10.8 -2,20.7 3.3,28.1 4.8,6.7 12.9,10.6 22.7,11.1 l 39.3,2.4 c 1.2,0 2.3,0.6 2.8,1.5 0.6,0.9 0.7,2.3 0.5,3.3 -0.6,1.8 -2.4,3.2 -4.4,3.3 l -41,2.4 c -22.2,1 -46,18.9 -54.5,40.8 l -3,7.6 c -0.6,1.5 0.5,3 2.1,3 h 140.8 c 1.6,0 3.1,-1 3.6,-2.7 2.4,-8.7 3.7,-17.9 3.7,-27.3 0,-55.5 -45.3,-100.8 -101,-100.8"
         style="fill:#ffffff"
         id="path1-8" /></g></g></svg>
