<?xml version="1.0" encoding="UTF-8" standalone="no"?>
<!-- Created with Inkscape (http://www.inkscape.org/) -->

<svg
   width="512"
   height="512"
   viewBox="0 0 512 512"
   version="1.1"
   id="svg1"
   xml:space="preserve"
   xmlns:xlink="http://www.w3.org/1999/xlink"
   xmlns="http://www.w3.org/2000/svg"
   xmlns:svg="http://www.w3.org/2000/svg"><defs
     id="defs1"><linearGradient
       id="linearGradient1"><stop
         style="stop-color:#3c2111;stop-opacity:1;"
         offset="0"
         id="stop1" /><stop
         style="stop-color:#703816;stop-opacity:1;"
         offset="1"
         id="stop2" /></linearGradient><linearGradient
       xlink:href="#linearGradient1"
       id="linearGradient2"
       x1="3.1074711"
       y1="11.999765"
       x2="20.894017"
       y2="11.999765"
       gradientUnits="userSpaceOnUse" /></defs><g
     id="layer1"><circle
       style="fill:#f2f2f2;fill-opacity:1;stroke:#afafaf;stroke-width:8;stroke-dasharray:none;stroke-opacity:1"
       id="path1"
       cx="256.00003"
       cy="256.00006"
       r="241.31339" /><g
       style="fill:url(#linearGradient2)"
       id="g1"
       transform="matrix(14.999261,0,0,14.999261,75.997711,76.012398)"><path
         d="M 11.007,0 C 10.22,0.031 9.492,0.37 8.785,0.685 A 12.27,12.27 0 0 1 6.921,1.388 C 6.286,1.564 5.621,1.742 5.107,2.176 4.885,2.356 4.751,2.615 4.578,2.838 4.269,3.324 4.13,3.905 4.121,4.476 c 0.036,0.61 0.216,1.2 0.376,1.786 0.368,1.262 0.807,2.503 1.197,3.759 0.366,1.161 0.703,2.344 1.294,3.416 0.197,0.394 0.35,0.808 0.535,1.206 0.027,0.067 0.052,0.158 0.142,0.149 0.136,-0.012 0.243,-0.115 0.368,-0.164 0.828,-0.414 1.74,-0.642 2.655,-0.749 0.708,-0.074 1.43,-0.078 2.131,0.054 0.72,0.163 1.417,0.426 2.092,0.724 0.36,0.172 0.719,0.348 1.088,0.498 0.048,0.04 0.135,0.058 0.16,-0.016 0.219,-0.327 0.469,-0.635 0.667,-0.976 0.495,-1.061 0.522,-2.279 1.038,-3.331 0.358,-0.721 0.892,-1.337 1.266,-2.048 0.175,-0.266 0.431,-0.467 0.588,-0.747 0.437,-0.669 0.78,-1.398 1.05,-2.15 C 20.87,5.594 20.94,5.275 20.858,4.968 20.798,4.669 20.656,4.398 20.54,4.12 A 2.481,2.481 0 0 0 20.262,3.46 C 19.855,2.784 19.192,2.311 18.519,1.924 17.474,1.334 16.323,0.955 15.168,0.644 A 20.733,20.733 0 0 0 11.426,0.01 5.005,5.005 0 0 0 11.006,0 Z M 10.118,0.606 C 9.857,0.829 9.755,1.175 9.65,1.489 9.482,2.057 9.387,2.652 9.443,3.245 c 0.064,1.062 0.197,2.12 0.33,3.175 0.18,1.352 0.387,2.7 0.677,4.034 0.026,0.165 0.064,0.347 0.05,0.51 -0.115,-0.175 -0.182,-0.383 -0.258,-0.58 C 9.992,9.619 9.81,8.835 9.638,8.05 A 26.008,26.008 0 0 1 9.076,3.733 C 9.051,2.89 9.072,2.007 9.446,1.232 9.564,1.006 9.705,0.772 9.926,0.635 A 0.411,0.411 0 0 1 10.144,0.586 Z M 6.516,1.77 c 0.128,0 0.139,0.159 0.168,0.252 C 6.95,2.82 7.106,3.65 7.363,4.45 7.537,5.099 7.601,5.773 7.671,6.441 7.768,7.48 7.779,8.526 7.917,9.561 7.943,9.76 7.999,9.954 8.036,10.151 8.046,10.218 7.977,10.2 7.953,10.165 7.805,10.004 7.77,9.774 7.707,9.573 7.547,8.928 7.465,8.268 7.373,7.611 7.199,6.295 7.086,4.971 6.844,3.666 6.686,3.054 6.488,2.451 6.384,1.828 6.39,1.777 6.477,1.78 6.516,1.77 Z M 4.589,3.607 c 0.229,0.056 0.365,0.268 0.512,0.434 0.4,0.535 0.54,1.204 0.695,1.843 0.283,1.265 0.446,2.553 0.725,3.82 0.131,0.666 0.293,1.326 0.507,1.971 0.014,0.051 0.035,0.133 0.038,0.17 C 6.833,11.415 6.673,10.949 6.501,10.492 5.903,8.794 5.678,6.996 5.201,5.264 5.068,4.786 4.893,4.314 4.605,3.906 4.558,3.818 4.525,3.702 4.568,3.609 4.574,3.605 4.582,3.606 4.588,3.607 Z m 12.646,13.196 c -0.136,0.007 -0.31,0.11 -0.276,0.267 0.094,0.218 0.334,0.308 0.526,0.416 0.441,0.216 0.938,0.29 1.358,0.546 0.092,0.06 0.149,0.197 0.064,0.287 -0.18,0.266 -0.47,0.44 -0.723,0.634 -0.372,0.266 -0.777,0.51 -1.057,0.879 -0.066,0.107 -0.041,0.267 0.082,0.32 0.109,0.079 0.243,0.018 0.338,-0.051 0.518,-0.294 0.995,-0.654 1.478,-1.002 0.32,-0.239 0.644,-0.477 0.926,-0.76 0.085,-0.135 -0.03,-0.274 -0.118,-0.371 -0.273,-0.285 -0.62,-0.487 -0.965,-0.67 a 4.959,4.959 0 0 0 -1.458,-0.495 1.251,1.251 0 0 0 -0.175,0 z M 5.96,16.83 c -0.527,0.134 -0.997,0.42 -1.474,0.673 -0.425,0.243 -0.854,0.496 -1.205,0.841 a 0.699,0.699 0 0 0 -0.172,0.488 c 0.065,0.108 0.2,0.14 0.301,0.206 0.852,0.442 1.735,0.822 2.63,1.168 0.132,0.042 0.265,0.113 0.406,0.107 0.158,-0.02 0.309,-0.204 0.213,-0.356 C 6.513,19.714 6.239,19.596 6.009,19.451 5.462,19.148 4.855,18.939 4.373,18.533 4.327,18.442 4.467,18.405 4.515,18.353 5.064,17.958 5.744,17.76 6.228,17.276 6.317,17.186 6.392,17.017 6.276,16.918 6.19,16.845 6.07,16.831 5.96,16.83 Z m 8.115,0.793 c -0.43,0.027 -0.835,0.431 -0.774,0.876 0.032,0.259 0.089,0.525 0.228,0.749 0.12,0.18 0.33,0.286 0.546,0.287 0.273,0.031 0.59,-0.059 0.726,-0.318 0.137,-0.237 0.212,-0.514 0.205,-0.787 -0.038,-0.46 -0.466,-0.845 -0.93,-0.807 z m -4.49,0.01 c -0.464,0.028 -0.807,0.505 -0.77,0.953 0.011,0.444 0.315,0.902 0.765,0.994 0.352,0.06 0.71,-0.19 0.803,-0.53 0.125,-0.35 0.132,-0.761 -0.044,-1.095 -0.157,-0.25 -0.478,-0.327 -0.754,-0.322 z m 0.112,0.653 c 0.241,0.064 0.294,0.47 0.045,0.558 C 9.601,18.878 9.503,18.724 9.508,18.6 9.5,18.473 9.558,18.313 9.697,18.286 Z m 4.437,0.143 c 0.097,0 0.226,0.071 0.19,0.187 -0.013,0.171 -0.215,0.333 -0.377,0.226 -0.132,-0.07 -0.172,-0.296 -0.02,-0.368 a 0.418,0.418 0 0 1 0.207,-0.045 z m -3.518,2.977 c -0.553,0.051 -1.044,0.335 -1.542,0.559 -0.304,0.156 -0.662,0.312 -1.005,0.187 -0.377,-0.12 -0.707,-0.35 -1.059,-0.52 -0.075,-0.013 -0.061,0.077 -0.047,0.122 0.081,0.53 0.129,1.102 0.454,1.55 0.338,0.437 0.902,0.618 1.433,0.667 0.797,0.072 1.642,-0.118 2.271,-0.629 0.309,-0.262 0.571,-0.631 0.585,-1.049 -0.006,-0.324 -0.244,-0.596 -0.524,-0.734 a 1.085,1.085 0 0 0 -0.566,-0.153 z m 2.58,0.008 c -0.396,0.052 -0.815,0.262 -0.972,0.65 -0.129,0.358 0.034,0.748 0.272,1.02 0.426,0.509 1.07,0.793 1.718,0.884 0.577,0.078 1.186,0.014 1.714,-0.24 0.438,-0.225 0.767,-0.655 0.85,-1.142 0.064,-0.291 0.081,-0.59 0.124,-0.884 -0.066,-0.078 -0.148,0.038 -0.218,0.052 -0.337,0.142 -0.647,0.367 -1.01,0.435 -0.363,0.024 -0.687,-0.172 -1.015,-0.293 -0.43,-0.178 -0.851,-0.403 -1.315,-0.478 a 1.21,1.21 0 0 0 -0.147,-0.004 z m -2.881,-5.091 c -0.07,0 -0.143,0.014 -0.216,0.03 a 2.93,2.93 0 0 0 -0.454,0.152 c -0.15,0.061 -0.292,0.127 -0.407,0.18 A 4.07,4.07 0 0 1 9.02,16.777 0.277,0.277 0 0 1 8.838,16.743 C 8.776,16.706 8.718,16.642 8.697,16.488 l -0.27,0.038 c 0.031,0.218 0.14,0.37 0.27,0.45 0.13,0.079 0.268,0.09 0.378,0.067 0.085,-0.018 0.16,-0.058 0.276,-0.111 0.116,-0.053 0.255,-0.118 0.397,-0.176 0.143,-0.058 0.288,-0.11 0.41,-0.138 a 0.52,0.52 0 0 1 0.252,-0.009 c 0.14,0.06 0.19,0.13 0.215,0.179 0.025,0.05 0.03,0.067 0.03,0.067 l 0.263,-0.06 c 0,0 0.002,-0.024 -0.05,-0.128 a 0.678,0.678 0 0 0 -0.35,-0.307 0.482,0.482 0 0 0 -0.204,-0.037 z m 2.744,3.937 a 0.136,0.136 0 0 0 -0.102,0.05 c 0,0 -0.122,0.148 -0.286,0.295 -0.165,0.148 -0.38,0.28 -0.493,0.283 -0.112,0.003 -0.314,-0.118 -0.47,-0.26 -0.155,-0.14 -0.267,-0.284 -0.267,-0.284 a 0.136,0.136 0 1 0 -0.214,0.167 c 0,0 0.124,0.16 0.299,0.319 0.175,0.16 0.397,0.337 0.66,0.33 0.259,-0.008 0.484,-0.19 0.666,-0.352 0.182,-0.163 0.315,-0.325 0.315,-0.325 A 0.136,0.136 0 0 0 13.059,20.26 Z M 11.007,0.001 C 10.22,0.031 9.492,0.369 8.785,0.685 A 12.27,12.27 0 0 1 6.921,1.388 C 6.286,1.564 5.621,1.742 5.107,2.176 4.885,2.356 4.751,2.616 4.578,2.839 4.269,3.324 4.13,3.905 4.121,4.476 c 0.036,0.61 0.216,1.2 0.376,1.786 0.368,1.263 0.807,2.503 1.197,3.759 0.366,1.161 0.703,2.344 1.294,3.417 0.197,0.393 0.35,0.807 0.535,1.205 0.027,0.067 0.052,0.158 0.142,0.15 0.136,-0.013 0.243,-0.116 0.368,-0.165 0.828,-0.414 1.74,-0.641 2.655,-0.749 0.708,-0.074 1.43,-0.078 2.131,0.055 0.72,0.163 1.417,0.425 2.092,0.723 0.36,0.172 0.719,0.348 1.088,0.498 0.048,0.04 0.135,0.058 0.16,-0.016 0.219,-0.327 0.469,-0.635 0.667,-0.975 0.495,-1.062 0.522,-2.28 1.038,-3.332 0.358,-0.721 0.892,-1.336 1.266,-2.047 0.175,-0.266 0.431,-0.468 0.588,-0.747 0.437,-0.67 0.78,-1.4 1.05,-2.151 C 20.87,5.594 20.94,5.275 20.858,4.968 20.798,4.67 20.656,4.398 20.54,4.12 A 2.481,2.481 0 0 0 20.262,3.461 C 19.855,2.785 19.192,2.311 18.519,1.925 17.474,1.334 16.323,0.955 15.168,0.644 A 20.733,20.733 0 0 0 11.426,0.01 5.005,5.005 0 0 0 11.006,0 Z M 10.118,0.607 C 9.857,0.829 9.755,1.175 9.65,1.49 9.482,2.057 9.387,2.653 9.443,3.245 c 0.064,1.062 0.197,2.12 0.33,3.175 0.18,1.352 0.387,2.701 0.677,4.034 0.026,0.165 0.064,0.347 0.05,0.51 -0.115,-0.175 -0.182,-0.383 -0.258,-0.58 C 9.992,9.619 9.81,8.835 9.638,8.05 A 26.008,26.008 0 0 1 9.076,3.734 C 9.051,2.89 9.072,2.007 9.446,1.232 9.564,1.007 9.705,0.772 9.926,0.635 a 0.411,0.411 0 0 1 0.218,-0.049 l -0.026,0.02 z M 6.516,1.77 c 0.128,0 0.139,0.16 0.168,0.252 0.266,0.798 0.422,1.628 0.679,2.429 0.174,0.648 0.238,1.322 0.308,1.99 0.097,1.04 0.108,2.086 0.246,3.12 0.026,0.199 0.082,0.394 0.119,0.59 0.01,0.068 -0.059,0.05 -0.083,0.014 C 7.805,10.005 7.77,9.775 7.707,9.573 7.547,8.928 7.465,8.269 7.373,7.611 7.199,6.296 7.086,4.971 6.844,3.666 6.686,3.054 6.488,2.451 6.384,1.828 6.39,1.777 6.477,1.78 6.516,1.77 Z M 4.589,3.608 c 0.229,0.055 0.365,0.267 0.512,0.433 0.4,0.535 0.54,1.204 0.695,1.843 0.283,1.265 0.446,2.554 0.725,3.82 0.131,0.666 0.293,1.327 0.507,1.971 0.014,0.051 0.035,0.133 0.038,0.17 C 6.833,11.415 6.673,10.949 6.501,10.493 5.903,8.793 5.678,6.996 5.201,5.263 5.068,4.786 4.893,4.313 4.605,3.906 4.558,3.819 4.525,3.702 4.568,3.61 4.574,3.606 4.582,3.607 4.588,3.608 Z m 12.646,13.195 c -0.136,0.007 -0.31,0.11 -0.276,0.268 0.094,0.217 0.334,0.307 0.526,0.416 0.441,0.215 0.938,0.289 1.358,0.545 0.092,0.06 0.149,0.197 0.064,0.287 -0.18,0.267 -0.47,0.44 -0.723,0.634 -0.372,0.266 -0.777,0.51 -1.057,0.879 -0.066,0.107 -0.041,0.267 0.082,0.32 0.109,0.079 0.243,0.019 0.338,-0.05 0.518,-0.295 0.995,-0.655 1.478,-1.002 0.32,-0.24 0.644,-0.478 0.926,-0.761 0.085,-0.135 -0.03,-0.274 -0.118,-0.37 -0.273,-0.286 -0.62,-0.488 -0.965,-0.672 A 4.959,4.959 0 0 0 17.41,16.804 1.251,1.251 0 0 0 17.235,16.803 Z M 5.959,16.832 C 5.432,16.965 4.962,17.252 4.485,17.504 4.06,17.747 3.631,18.001 3.28,18.346 a 0.699,0.699 0 0 0 -0.172,0.487 c 0.065,0.109 0.2,0.14 0.301,0.206 0.852,0.442 1.735,0.823 2.63,1.168 0.132,0.042 0.265,0.113 0.406,0.108 C 6.603,20.295 6.754,20.11 6.658,19.958 6.512,19.715 6.238,19.597 6.008,19.452 5.461,19.149 4.854,18.94 4.372,18.534 4.326,18.444 4.466,18.406 4.514,18.354 5.063,17.96 5.743,17.762 6.227,17.277 6.316,17.187 6.391,17.019 6.275,16.92 6.189,16.846 6.069,16.832 5.959,16.832 Z m 8.115,0.792 c -0.43,0.028 -0.835,0.432 -0.774,0.876 0.032,0.26 0.089,0.526 0.228,0.75 0.12,0.179 0.33,0.285 0.546,0.287 0.273,0.03 0.59,-0.06 0.726,-0.319 0.137,-0.236 0.212,-0.514 0.205,-0.787 -0.038,-0.46 -0.466,-0.844 -0.93,-0.807 z m -4.49,0.01 c -0.464,0.028 -0.807,0.505 -0.77,0.953 0.011,0.444 0.315,0.902 0.765,0.995 0.352,0.059 0.71,-0.19 0.803,-0.53 0.125,-0.35 0.132,-0.762 -0.044,-1.096 C 10.181,17.707 9.86,17.629 9.584,17.634 Z m 0.112,0.654 c 0.241,0.063 0.294,0.47 0.045,0.557 C 9.6,18.879 9.502,18.725 9.507,18.601 9.499,18.474 9.557,18.314 9.696,18.288 Z m 4.437,0.142 c 0.097,0 0.226,0.072 0.19,0.187 -0.013,0.172 -0.215,0.333 -0.377,0.227 -0.132,-0.071 -0.172,-0.297 -0.02,-0.369 a 0.418,0.418 0 0 1 0.207,-0.045 z m -3.518,2.977 c -0.553,0.052 -1.044,0.336 -1.542,0.56 -0.304,0.155 -0.662,0.311 -1.005,0.186 -0.377,-0.119 -0.707,-0.35 -1.059,-0.52 -0.075,-0.012 -0.061,0.078 -0.047,0.122 0.081,0.53 0.129,1.102 0.454,1.55 0.338,0.438 0.902,0.619 1.433,0.667 0.797,0.072 1.642,-0.118 2.271,-0.629 0.309,-0.262 0.571,-0.63 0.585,-1.049 -0.006,-0.324 -0.244,-0.596 -0.524,-0.734 a 1.085,1.085 0 0 0 -0.566,-0.153 z m 2.58,0.008 c -0.396,0.052 -0.815,0.262 -0.972,0.65 -0.129,0.359 0.034,0.748 0.272,1.021 0.426,0.508 1.07,0.792 1.718,0.883 0.577,0.078 1.186,0.015 1.714,-0.24 0.438,-0.225 0.767,-0.655 0.85,-1.142 0.064,-0.29 0.081,-0.59 0.124,-0.884 -0.066,-0.077 -0.148,0.039 -0.218,0.052 -0.337,0.143 -0.647,0.367 -1.01,0.436 -0.363,0.024 -0.687,-0.172 -1.015,-0.294 -0.43,-0.178 -0.851,-0.402 -1.315,-0.477 a 1.21,1.21 0 0 0 -0.147,-0.004 z"
         id="path1-8"
         style="fill:url(#linearGradient2)" /></g></g></svg>
