<?xml version="1.0" encoding="UTF-8" standalone="no"?>
<!-- Created with Inkscape (http://www.inkscape.org/) -->

<svg
   width="512"
   height="512"
   viewBox="0 0 512 512"
   version="1.1"
   id="svg1"
   xml:space="preserve"
   xmlns="http://www.w3.org/2000/svg"
   xmlns:svg="http://www.w3.org/2000/svg"><defs
     id="defs1" /><g
     id="layer1"><circle
       style="fill:#f2f2f2;fill-opacity:1;stroke:#afafaf;stroke-width:8;stroke-dasharray:none;stroke-opacity:1"
       id="path1"
       cx="256.00003"
       cy="256.00006"
       r="241.31339" /><g
       id="g1"
       transform="matrix(11.666667,0,0,11.666667,116,116)"><path
         fill="#f44336"
         d="M 24,19.5 V 12 a 1.5,1.5 0 0 0 -1.5,-1.5 h -3 A 1.5,1.5 0 0 0 18,12 v 7.5 a 1.5,1.5 0 0 0 1.5,1.5 h 3 A 1.5,1.5 0 0 0 24,19.5 Z"
         id="path1-0" /><path
         fill="#2196f3"
         d="M 13.5,21 A 1.5,1.5 0 0 0 15,19.5 V 4.5 A 1.5,1.5 0 0 0 13.5,3 h -3 C 9.673,3 9,3.672 9,4.5 v 15 c 0,0.828 0.673,1.5 1.5,1.5 z"
         id="path2" /><path
         fill="#ffc107"
         d="M 0,19.5 C 0,20.328 0.673,21 1.5,21 h 3 A 1.5,1.5 0 0 0 6,19.5 V 9 A 1.5,1.5 0 0 0 4.5,7.5 h -3 C 0.673,7.5 0,8.172 0,9 Z"
         id="path3" /></g></g></svg>
