<?xml version="1.0" encoding="UTF-8" standalone="no"?>
<!-- Created with Inkscape (http://www.inkscape.org/) -->

<svg
   width="512"
   height="512"
   viewBox="0 0 512 512"
   version="1.1"
   id="svg1"
   xml:space="preserve"
   xmlns:xlink="http://www.w3.org/1999/xlink"
   xmlns="http://www.w3.org/2000/svg"
   xmlns:svg="http://www.w3.org/2000/svg"><defs
     id="defs1"><linearGradient
       id="linearGradient1"><stop
         style="stop-color:#005da6;stop-opacity:1;"
         offset="0"
         id="stop1" /><stop
         style="stop-color:#004182;stop-opacity:1;"
         offset="1"
         id="stop2" /></linearGradient><linearGradient
       xlink:href="#linearGradient1"
       id="linearGradient2"
       x1="10.686646"
       y1="256.00006"
       x2="501.31342"
       y2="256.00006"
       gradientUnits="userSpaceOnUse" /></defs><g
     id="layer1"><circle
       style="fill:url(#linearGradient2);fill-opacity:1;stroke:#858585;stroke-width:8;stroke-dasharray:none;stroke-opacity:1"
       id="path1"
       cx="256.00003"
       cy="256.00006"
       r="241.31339" /><path
       d="M 394.13516,161.05526 271.12325,91.91635 c -9.33075,-5.2218 -20.91575,-5.2218 -30.2465,0 l -123.01191,69.13891 c -9.41637,5.27888 -15.26592,15.18033 -15.26592,25.79512 v 138.27783 c 0,10.61484 5.84955,20.51627 15.26592,25.79512 l 123.01191,69.13894 C 245.5564,422.68742 250.7782,424 256,424 c 5.2218,0 10.44359,-1.31258 15.12325,-3.93773 l 123.01191,-69.13894 c 9.41637,-5.27885 15.26592,-15.18028 15.26592,-25.79512 V 186.85038 c 0,-10.61479 -5.84955,-20.51624 -15.26592,-25.79512 z M 256,343.64706 c -48.33731,0 -87.65776,-39.32042 -87.65776,-87.65776 0,-48.33731 39.32045,-87.65776 87.65776,-87.65776 27.62132,0 53.13109,12.81196 69.70961,34.64081 L 293.69398,221.4912 C 284.07787,210.96199 270.40989,204.85561 256,204.85561 c -28.19203,0 -51.13369,22.94169 -51.13369,51.13369 0,28.19202 22.94166,51.13369 51.13369,51.13369 14.40989,0 28.07787,-6.10636 37.69398,-16.63557 l 32.01563,18.51885 C 309.13109,330.8351 283.62132,343.64706 256,343.64706 Z m 87.65776,-80.35295 h -14.60963 v 14.60963 H 314.4385 v -14.60963 h -14.60962 v -14.60963 h 14.60962 v -14.60962 h 14.60963 v 14.60962 h 14.60963 z m 51.13369,0 h -14.60963 v 14.60963 H 365.5722 v -14.60963 h -14.60963 v -14.60963 h 14.60963 v -14.60962 h 14.60962 v 14.60962 h 14.60963 z"
       id="path1-4"
       style="fill:#fefefe;fill-opacity:1;stroke-width:7.30481" /></g></svg>
