<?xml version="1.0" encoding="UTF-8" standalone="no"?>
<!-- Created with Inkscape (http://www.inkscape.org/) -->

<svg
   width="512"
   height="512"
   viewBox="0 0 512 512"
   version="1.1"
   id="svg1"
   xml:space="preserve"
   inkscape:version="1.4.2 (f4327f4, 2025-05-13)"
   sodipodi:docname="csharp.svg"
   xmlns:inkscape="http://www.inkscape.org/namespaces/inkscape"
   xmlns:sodipodi="http://sodipodi.sourceforge.net/DTD/sodipodi-0.dtd"
   xmlns:xlink="http://www.w3.org/1999/xlink"
   xmlns="http://www.w3.org/2000/svg"
   xmlns:svg="http://www.w3.org/2000/svg"><sodipodi:namedview
     id="namedview1"
     pagecolor="#ffffff"
     bordercolor="#999999"
     borderopacity="1"
     inkscape:showpageshadow="2"
     inkscape:pageopacity="0"
     inkscape:pagecheckerboard="0"
     inkscape:deskcolor="#d1d1d1"
     inkscape:document-units="px"
     showgrid="false"
     inkscape:zoom="1"
     inkscape:cx="161"
     inkscape:cy="323.5"
     inkscape:window-width="1920"
     inkscape:window-height="1001"
     inkscape:window-x="-9"
     inkscape:window-y="-9"
     inkscape:window-maximized="1"
     inkscape:current-layer="layer1"><inkscape:grid
       id="grid1"
       units="mm"
       originx="0"
       originy="0"
       spacingx="1"
       spacingy="1"
       empcolor="#0099e5"
       empopacity="0.30196078"
       color="#0099e5"
       opacity="0.14901961"
       empspacing="5"
       enabled="true"
       visible="false" /></sodipodi:namedview><defs
     id="defs1"><linearGradient
       id="linearGradient1"
       inkscape:collect="always"><stop
         style="stop-color:#994892;stop-opacity:1;"
         offset="0"
         id="stop1" /><stop
         style="stop-color:#691476;stop-opacity:1;"
         offset="1"
         id="stop2" /></linearGradient><inkscape:path-effect
       effect="fillet_chamfer"
       id="path-effect1"
       is_visible="true"
       lpeversion="1"
       nodesatellites_param="F,0,0,1,0,2.2572315,0,1 @ F,0,0,1,0,2.608162,0,1 @ F,0,0,1,0,2.5997618,0,1 @ F,0,0,1,0,3.0078049,0,1 @ F,0,0,1,0,2.2522004,0,1 @ F,0,0,1,0,2.8010871,0,1"
       radius="0"
       unit="px"
       method="auto"
       mode="F"
       chamfer_steps="1"
       flexible="false"
       use_knot_distance="true"
       apply_no_radius="true"
       apply_with_radius="true"
       only_selected="false"
       hide_knots="false" /><linearGradient
       inkscape:collect="always"
       xlink:href="#linearGradient1"
       id="linearGradient2"
       x1="501.31342"
       y1="256.00006"
       x2="10.686646"
       y2="256.00006"
       gradientUnits="userSpaceOnUse" /></defs><g
     inkscape:label="Layer 1"
     inkscape:groupmode="layer"
     id="layer1"><circle
       style="fill:url(#linearGradient2);fill-opacity:1;stroke:#858585;stroke-width:8;stroke-dasharray:none;stroke-opacity:1"
       id="path1"
       inkscape:label="background"
       cx="256.00003"
       cy="256.00006"
       r="241.31339" /><path
       d="m 256,88 c -5.22147,0 -10.44293,1.31249 -15.09375,3.93751 l -123.03261,69.1345 c -9.41576,5.27854 -15.26494,15.17934 -15.26494,25.79348 v 138.26902 c 0,10.61414 5.84918,20.51494 15.26494,25.79348 l 123.03261,69.1345 C 245.55708,422.68751 250.77853,424 256,424 c 5.22147,0 10.44292,-1.31249 15.09375,-3.93751 l 123.03261,-69.10597 c 9.41576,-5.30707 15.26494,-15.20787 15.26494,-25.82201 V 186.86549 c 0,-10.61414 -5.84918,-20.51494 -15.26494,-25.79348 L 271.09375,91.93751 C 266.44292,89.31249 261.22147,88 256,88 Z m 0,80.34783 c 27.61957,0 53.15625,12.81114 69.70517,34.61004 l -32.0136,18.5462 c -9.61549,-10.52853 -23.2826,-16.6345 -37.69157,-16.6345 -28.19023,0 -51.13043,22.9402 -51.13043,51.13043 0,28.19021 22.9402,51.13043 51.13043,51.13043 14.40897,0 28.07609,-6.10597 37.69157,-16.6345 l 32.0136,18.5462 c -16.54892,21.7989 -42.08561,34.61004 -69.70517,34.61004 -48.33423,0 -87.65218,-39.31794 -87.65218,-87.65217 0,-48.33423 39.31794,-87.65217 87.65218,-87.65217 z m 73.04347,51.13043 h 14.6087 v 14.6087 h 14.6087 v -14.6087 h 14.6087 v 14.6087 h 14.6087 v 14.60869 h -14.6087 v 14.6087 h 14.6087 v 14.60869 h -14.6087 v 14.6087 h -14.6087 v -14.6087 h -14.6087 v 14.6087 h -14.6087 v -14.6087 h -14.60869 v -14.60869 h 14.60869 v -14.6087 h -14.60869 v -14.60869 h 14.60869 z m 14.6087,29.21739 v 14.6087 h 14.6087 v -14.6087 z"
       id="path1-4"
       style="fill:#f9f9f9;stroke-width:7.30435" /></g></svg>
