<?xml version="1.0" encoding="UTF-8" standalone="no"?>
<!-- Created with Inkscape (http://www.inkscape.org/) -->

<svg
   width="512"
   height="512"
   viewBox="0 0 512 512"
   version="1.1"
   id="svg1"
   xml:space="preserve"
   xmlns:xlink="http://www.w3.org/1999/xlink"
   xmlns="http://www.w3.org/2000/svg"
   xmlns:svg="http://www.w3.org/2000/svg"><defs
     id="defs1"><linearGradient
       id="linearGradient1"><stop
         style="stop-color:#fd8900;stop-opacity:1;"
         offset="0"
         id="stop1" /><stop
         style="stop-color:#dc1760;stop-opacity:1;"
         offset="1"
         id="stop2" /></linearGradient><linearGradient
       xlink:href="#linearGradient1"
       id="linearGradient2"
       x1="62.690453"
       y1="104.97005"
       x2="449.3096"
       y2="407.03003"
       gradientUnits="userSpaceOnUse" /></defs><g
     id="layer1"><circle
       style="fill:url(#linearGradient2);fill-opacity:1;stroke:#858585;stroke-width:8;stroke-dasharray:none;stroke-opacity:1"
       id="path1"
       cx="256.00003"
       cy="256.00006"
       r="241.31339" /><path
       fill="#444444"
       d="m 247.01716,89.070713 c -12.20006,3.972443 -20.22977,13.345147 -22.26547,25.884497 -0.70684,4.24104 0.0848,13.16137 4.42482,52.39101 2.91218,25.98346 5.13166,47.79655 5.0327,48.41857 -0.16964,0.62202 -18.56162,-12.3697 -41.35016,-29.06528 -22.53408,-16.52593 -43.03245,-31.10097 -45.50639,-32.42983 -6.00814,-3.09597 -16.69557,-3.70385 -23.86293,-1.41369 -10.5178,3.26561 -19.43813,12.20007 -22.70373,22.6189 -2.912175,9.62716 -1.682275,18.19407 4.05727,26.85994 5.5699,8.31244 9.27375,10.334 59.19082,32.51466 25.63004,11.30944 46.56665,20.93661 46.4677,21.37485 0,0.43824 -20.06014,9.45753 -44.44613,19.97531 -24.386,10.51779 -46.38287,20.32874 -48.85682,21.82724 -5.92332,3.5342 -12.28489,10.51778 -15.19707,16.69557 -2.035695,4.24104 -2.389115,6.19192 -2.389115,12.53935 0,6.54534 0.35342,8.21349 2.827355,13.42997 3.5342,7.42182 8.56691,12.99173 15.02743,16.42697 10.33401,5.47095 19.96118,5.38612 31.18581,-0.2686 3.18078,-1.59746 23.67915,-15.98873 45.50638,-32.07642 28.79668,-21.12039 39.85167,-28.81082 40.02131,-27.75056 0.0848,0.79167 -2.12052,22.80268 -5.0327,48.772 -5.65473,51.24593 -5.73955,53.01303 -1.68229,61.6789 2.65773,5.5699 8.56691,11.30944 14.65988,14.1368 4.42482,2.12053 6.19192,2.38913 13.86821,2.38913 7.86006,0 9.3727,-0.2686 13.86821,-2.47395 9.45752,-4.67928 15.63531,-12.9069 17.58619,-23.67915 0.89062,-5.13166 0.43824,-10.43297 -4.42482,-53.71988 -2.99701,-26.42169 -5.30131,-48.14997 -5.13167,-48.33375 0.16965,-0.18378 16.52593,11.66287 36.48711,26.33688 48.50339,35.69544 50.62391,37.0243 59.54424,38.70658 17.93961,3.36456 37.27876,-12.10111 38.70658,-30.93134 0.5372,-7.86006 -0.97544,-13.78339 -5.21648,-20.32873 -5.83851,-9.00515 -9.18893,-10.87121 -59.55838,-32.59948 -25.26248,-10.87121 -46.29805,-20.06013 -46.65147,-20.41355 -0.43824,-0.35342 19.26847,-9.54235 43.73929,-20.32874 53.53609,-23.67915 51.95277,-22.97231 57.87609,-28.44326 6.27675,-6.00814 9.27375,-12.28488 9.81095,-20.49837 0.97544,-15.73427 -9.00515,-30.39414 -23.59434,-34.63518 -7.15322,-2.12052 -17.84065,-1.32886 -24.11739,1.68228 -2.55876,1.32886 -23.24092,15.90391 -45.67603,32.42984 -22.53407,16.52593 -41.16639,29.9559 -41.35017,29.77212 -0.18377,-0.18378 2.12053,-22.18066 5.13167,-48.85681 5.8385,-52.82926 5.92332,-53.98847 1.4985,-62.9088 -2.65772,-5.569905 -8.66587,-11.309449 -14.49023,-14.05199 -6.09297,-2.742541 -17.31759,-3.619024 -23.05714,-1.682281 z"
       id="path1-8"
       style="stroke-width:14.1368;fill:#ffffff" /></g></svg>
