<?xml version="1.0" encoding="UTF-8" standalone="no"?>
<!-- Created with Inkscape (http://www.inkscape.org/) -->

<svg
   width="512"
   height="512"
   viewBox="0 0 512 512"
   version="1.1"
   id="svg1"
   xml:space="preserve"
   xmlns="http://www.w3.org/2000/svg"
   xmlns:svg="http://www.w3.org/2000/svg"><defs
     id="defs1"><clipPath
       clipPathUnits="userSpaceOnUse"
       id="clipPath838"><path
         d="M 0,792 H 612 V 0 H 0 Z"
         id="path836" /></clipPath><clipPath
       clipPathUnits="userSpaceOnUse"
       id="clipPath858"><path
         d="M 0,792 H 612 V 0 H 0 Z"
         id="path856" /></clipPath><clipPath
       clipPathUnits="userSpaceOnUse"
       id="clipPath255"><path
         d="M 425.197,24.946 H 559.275 V 161.574 H 425.197 Z"
         id="path253" /></clipPath><clipPath
       clipPathUnits="userSpaceOnUse"
       id="clipPath2816"><path
         d="M 0,0 H 396 V 612 H 0 Z"
         id="path2814" /></clipPath><clipPath
       clipPathUnits="userSpaceOnUse"
       id="clipPath2794"><path
         d="M 0,0 H 396 V 612 H 0 Z"
         id="path2792" /></clipPath><clipPath
       clipPathUnits="userSpaceOnUse"
       id="clipPath2778"><path
         d="M 0,0 H 396 V 612 H 0 Z"
         id="path2776" /></clipPath><clipPath
       clipPathUnits="userSpaceOnUse"
       id="clipPath2748"><path
         d="M 0,0 H 396 V 612 H 0 Z"
         id="path2746" /></clipPath><clipPath
       clipPathUnits="userSpaceOnUse"
       id="clipPath2710"><path
         d="M 0,0 H 396 V 612 H 0 Z"
         id="path2708" /></clipPath><clipPath
       clipPathUnits="userSpaceOnUse"
       id="clipPath2664"><path
         d="M 0,0 H 396 V 612 H 0 Z"
         id="path2662" /></clipPath><clipPath
       clipPathUnits="userSpaceOnUse"
       id="clipPath6055"><path
         d="m 170.008,153.156 v 18.559 h -5.93 v -18.559 h 5.93"
         id="path6053" /></clipPath><clipPath
       clipPathUnits="userSpaceOnUse"
       id="clipPath6035"><path
         d="M 30,0 V 292 H 177 V 0 Z"
         id="path6033" /></clipPath><clipPath
       clipPathUnits="userSpaceOnUse"
       id="clipPath6025"><path
         d="m 170.008,153.156 v 18.559 h -5.93 v -18.559 h 5.93"
         id="path6023" /></clipPath><clipPath
       clipPathUnits="userSpaceOnUse"
       id="clipPath81"><path
         d="M 45.36,756.5 H 90.60001 V 806 H 45.36 Z"
         id="path79" /></clipPath><clipPath
       clipPathUnits="userSpaceOnUse"
       id="clipPath71"><path
         d="M 45,755.12 H 90.84 V 806 H 45 Z"
         id="path69" /></clipPath><clipPath
       clipPathUnits="userSpaceOnUse"
       id="clipPath7101"><path
         d="M 0,0 H 612 V 828 H 0 Z"
         id="path7099" /></clipPath><clipPath
       clipPathUnits="userSpaceOnUse"
       id="clipPath9113"><path
         d="M 0,531 H 719.972 V 0 H 0 Z"
         id="path9111" /></clipPath><clipPath
       clipPathUnits="userSpaceOnUse"
       id="clipPath11764"><path
         d="M 0,792 H 612 V 0 H 0 Z"
         id="path11762" /></clipPath></defs><g
     id="layer1"><circle
       style="fill:#f2f2f2;fill-opacity:1;stroke:#afafaf;stroke-width:8;stroke-dasharray:none;stroke-opacity:1"
       id="path1"
       cx="256.00003"
       cy="256.00006"
       r="241.31339" /><g
       id="g11760"
       clip-path="url(#clipPath11764)"
       transform="matrix(7.6300185,0,0,-7.6300185,-829.63854,5498.1157)"
       style="fill:none"><g
         id="g11766"
         transform="matrix(1.5371265,0,0,1.5371265,142.2855,665.02011)"><path
           d="m 0,0 v 5.547 c 5.888,0 10.439,5.828 8.192,12.017 -0.833,2.292 -2.661,4.121 -4.954,4.953 -6.189,2.246 -12.014,-2.305 -12.015,-8.191 0,0 0,-0.002 -0.001,-0.002 h -5.547 c 0,9.38 9.062,16.683 18.89,13.614 4.295,-1.34 7.708,-4.753 9.049,-9.048 C 16.683,9.061 9.379,0 0,0"
           style="fill:#0069ff;fill-opacity:1;fill-rule:nonzero;stroke:none"
           id="path11768" /></g><g
         id="g11770"
         transform="matrix(1.5371265,0,0,1.5371265,142.30502,673.52534)"><path
           d="m 0,0 h -5.531 v 5.53 c 0,0 0,10e-4 10e-4,10e-4 h 5.529 L 0,5.53 Z"
           style="fill:#0069ff;fill-opacity:1;fill-rule:evenodd;stroke:none"
           id="path11772" /></g><g
         id="g11774"
         transform="matrix(1.5371265,0,0,1.5371265,133.80133,666.99332)"><path
           d="M 0,0 H -4.249 L -4.25,0.001 V 4.25 H 0.001 V 0.001 Z"
           style="fill:#0069ff;fill-opacity:1;fill-rule:evenodd;stroke:none"
           id="path11776" /></g><g
         id="g11778"
         transform="matrix(1.5371265,0,0,1.5371265,127.27377,673.52534)"><path
           d="m 0,0 h -3.562 c -0.001,0 -0.002,0.001 -0.002,0.001 v 3.56 c 0,0 10e-4,0.003 0.002,0.003 h 3.56 C -0.001,3.564 0,3.563 0,3.563 Z"
           style="fill:#0069ff;fill-opacity:1;fill-rule:evenodd;stroke:none"
           id="path11780" /></g></g></g></svg>
