<?xml version="1.0" encoding="UTF-8" standalone="no"?>
<!-- Created with Inkscape (http://www.inkscape.org/) -->

<svg
   width="512"
   height="512"
   viewBox="0 0 512 512"
   version="1.1"
   id="svg1"
   xml:space="preserve"
   xmlns="http://www.w3.org/2000/svg"
   xmlns:svg="http://www.w3.org/2000/svg"><defs
     id="defs1" /><g
     id="layer1"><circle
       style="fill:#f2f2f2;fill-opacity:1;stroke:#afafaf;stroke-width:8;stroke-dasharray:none;stroke-opacity:1"
       id="path1"
       cx="256.00003"
       cy="256.00006"
       r="241.31339" /><path
       d="m 380.95422,140.00144 c -23.30344,-10.9031 -48.22059,-18.82702 -74.27078,-23.33897 -3.19927,5.78416 -6.93694,13.56398 -9.51393,19.75281 -27.69203,-4.16454 -55.1294,-4.16454 -82.31214,0 -2.5765,-6.18883 -6.39905,-13.96865 -9.62695,-19.75281 -26.07832,4.51195 -51.02408,12.46499 -74.32753,23.39671 -47.00325,71.02808 -59.745059,140.29193 -53.374142,208.57228 31.175032,23.28073 61.387382,37.42309 91.089882,46.67745 7.3337,-10.09328 13.87438,-20.82269 19.50901,-32.13044 -10.73136,-4.07769 -21.00971,-9.10977 -30.72153,-14.95168 2.57649,-1.9088 5.09673,-3.90447 7.53159,-5.95786 59.23522,27.70584 123.5958,27.70584 182.12334,0 2.4635,2.05339 4.98323,4.04906 7.53161,5.95786 -9.74045,5.87053 -20.04693,10.90262 -30.7783,14.98079 5.63463,11.27864 12.14719,22.03715 19.50902,32.12995 29.73112,-9.25436 59.9715,-23.39621 91.14656,-46.70608 7.47534,-79.15432 -12.76996,-147.78208 -53.51571,-208.63001 z M 196.19764,306.63966 c -17.78182,0 -32.36436,-16.6004 -32.36436,-36.81561 0,-20.2152 14.27115,-36.84423 32.36436,-36.84423 18.09369,0 32.67574,16.59992 32.36436,36.84423 0.0281,20.21521 -14.27067,36.81561 -32.36436,36.81561 z m 119.60348,0 c -17.78182,0 -32.36437,-16.6004 -32.36437,-36.81561 0,-20.2152 14.27067,-36.84423 32.36437,-36.84423 18.0932,0 32.67574,16.59992 32.36435,36.84423 0,20.21521 -14.27115,36.81561 -32.36435,36.81561 z"
       fill="#5865f2"
       fill-rule="nonzero"
       id="path1-8"
       style="stroke-width:1.40625" /></g></svg>
