<?xml version="1.0" encoding="UTF-8" standalone="no"?>
<!-- Created with Inkscape (http://www.inkscape.org/) -->

<svg
   width="512"
   height="512"
   viewBox="0 0 512 512"
   version="1.1"
   id="svg1"
   xml:space="preserve"
   xmlns="http://www.w3.org/2000/svg"
   xmlns:svg="http://www.w3.org/2000/svg"><defs
     id="defs1" /><g
     id="layer1"><circle
       style="fill:#2e3548;fill-opacity:1;stroke:#858585;stroke-width:8;stroke-dasharray:none;stroke-opacity:1"
       id="path1"
       cx="256.00003"
       cy="256.00006"
       r="241.31339" /><g
       id="g1"
       transform="matrix(0.46386719,0,0,0.46386719,18.499999,18.499999)"><circle
         cx="512"
         cy="512"
         r="512"
         style="fill:#0091e2"
         id="circle1" /><path
         d="m 827.3,461.5 c -1.6,-1.3 -16.1,-12.2 -46.7,-12.2 -8.1,0 -16.2,0.6 -24.2,2.1 -5.9,-40.7 -39.5,-60.5 -41,-61.4 l -8.2,-4.8 -5.4,7.8 c -6.8,10.5 -11.7,22 -14.6,34.2 -5.5,23.2 -2.2,45 9.6,63.6 -14.2,7.9 -37.1,9.9 -41.7,10 H 277 c -9.9,0 -17.9,8 -17.9,17.9 -0.4,33.1 5.2,66 16.5,97.1 13,34.2 32.4,59.3 57.6,74.7 28.2,17.3 74.1,27.2 126.2,27.2 23.5,0.1 47,-2.1 70.1,-6.4 32.1,-5.9 63,-17.1 91.4,-33.2 23.4,-13.6 44.5,-30.8 62.4,-51.1 29.9,-33.9 47.8,-71.7 61.1,-105.2 h 5.3 c 32.8,0 53,-13.1 64.1,-24.1 7.4,-7 13.2,-15.5 16.9,-25 l 2.3,-6.9 z M 312,489.9 h 50.7 c 2.4,0 4.4,-2 4.4,-4.4 v -45.1 c 0,-2.4 -2,-4.4 -4.4,-4.5 H 312 c -2.4,0 -4.4,2 -4.4,4.4 v 45.2 c 0,2.5 2,4.4 4.4,4.4 m 69.9,0 h 50.7 c 2.4,0 4.4,-2 4.4,-4.4 v -45.1 c 0,-2.4 -2,-4.4 -4.4,-4.5 h -50.7 c -2.5,0 -4.5,2 -4.5,4.5 v 45.1 c 0,2.5 2,4.4 4.5,4.4 m 70.8,0.1 h 50.7 c 2.4,0 4.4,-2 4.4,-4.4 v -45.1 c 0,-2.4 -2,-4.4 -4.4,-4.5 h -50.7 c -2.4,0 -4.4,2 -4.4,4.4 v 45.2 c 0,2.4 2,4.3 4.4,4.4 m 70.1,0 h 50.7 c 2.4,0 4.4,-2 4.5,-4.4 v -45.1 c 0,-2.5 -2,-4.5 -4.5,-4.5 h -50.7 c -2.4,0 -4.4,2 -4.4,4.4 v 45.2 c 0,2.4 1.9,4.4 4.4,4.4 m -141,-65 h 50.7 c 2.4,0 4.4,-2 4.4,-4.5 v -45.1 c 0,-2.4 -2,-4.4 -4.4,-4.4 h -50.7 c -2.5,0 -4.4,2 -4.5,4.4 v 45.1 c 0.1,2.5 2.1,4.5 4.5,4.5 m 70.9,0 h 50.7 c 2.4,0 4.4,-2 4.4,-4.5 v -45.1 c 0,-2.4 -2,-4.4 -4.4,-4.4 h -50.7 c -2.4,0 -4.4,2 -4.4,4.4 v 45.1 c 0,2.5 2,4.5 4.4,4.5 m 70.1,0 h 50.7 c 2.5,0 4.4,-2 4.5,-4.5 v -45.1 c 0,-2.5 -2,-4.4 -4.5,-4.4 h -50.7 c -2.4,0 -4.4,2 -4.4,4.4 v 45.1 c 0,2.5 1.9,4.5 4.4,4.5 m 0,-64.9 h 50.7 c 2.5,0 4.5,-2 4.5,-4.5 v -45.2 c 0,-2.4 -2,-4.4 -4.5,-4.4 h -50.7 c -2.4,0 -4.4,2 -4.4,4.4 v 45.2 c 0,2.5 1.9,4.5 4.4,4.5 M 593.4,490 h 50.7 c 2.4,0 4.4,-2 4.4,-4.4 v -45.1 c 0,-2.5 -2,-4.4 -4.4,-4.5 h -50.7 c -2.4,0 -4.4,2 -4.4,4.4 v 45.2 c 0,2.4 2,4.4 4.4,4.4"
         style="fill:#ffffff"
         id="path1-8" /></g></g></svg>
