<?xml version="1.0" encoding="UTF-8" standalone="no"?>
<!-- Created with Inkscape (http://www.inkscape.org/) -->

<svg
   width="512"
   height="512"
   viewBox="0 0 512 512"
   version="1.1"
   id="svg1"
   xml:space="preserve"
   inkscape:version="1.4.2 (f4327f4, 2025-05-13)"
   sodipodi:docname="duckduckgo.svg"
   xmlns:inkscape="http://www.inkscape.org/namespaces/inkscape"
   xmlns:sodipodi="http://sodipodi.sourceforge.net/DTD/sodipodi-0.dtd"
   xmlns="http://www.w3.org/2000/svg"
   xmlns:svg="http://www.w3.org/2000/svg"><sodipodi:namedview
     id="namedview1"
     pagecolor="#ffffff"
     bordercolor="#999999"
     borderopacity="1"
     inkscape:showpageshadow="2"
     inkscape:pageopacity="0"
     inkscape:pagecheckerboard="0"
     inkscape:deskcolor="#d1d1d1"
     inkscape:document-units="px"
     showgrid="false"
     inkscape:zoom="1"
     inkscape:cx="161"
     inkscape:cy="323.5"
     inkscape:window-width="1920"
     inkscape:window-height="1001"
     inkscape:window-x="-9"
     inkscape:window-y="-9"
     inkscape:window-maximized="1"
     inkscape:current-layer="layer1"><inkscape:grid
       id="grid1"
       units="mm"
       originx="0"
       originy="0"
       spacingx="1"
       spacingy="1"
       empcolor="#0099e5"
       empopacity="0.30196078"
       color="#0099e5"
       opacity="0.14902"
       empspacing="5"
       enabled="true"
       visible="false" /></sodipodi:namedview><defs
     id="defs1"><inkscape:path-effect
       effect="fillet_chamfer"
       id="path-effect1"
       is_visible="true"
       lpeversion="1"
       nodesatellites_param="F,0,0,1,0,2.2572315,0,1 @ F,0,0,1,0,2.608162,0,1 @ F,0,0,1,0,2.5997618,0,1 @ F,0,0,1,0,3.0078049,0,1 @ F,0,0,1,0,2.2522004,0,1 @ F,0,0,1,0,2.8010871,0,1"
       radius="0"
       unit="px"
       method="auto"
       mode="F"
       chamfer_steps="1"
       flexible="false"
       use_knot_distance="true"
       apply_no_radius="true"
       apply_with_radius="true"
       only_selected="false"
       hide_knots="false" /><style
       id="style1">.a{fill:#d53;}.b{fill:#fff;}.c{fill:#ddd;}.d{fill:#fc0;}.e{fill:#6b5;}.f{fill:#4a4;}.g{fill:#148;}</style></defs><g
     inkscape:label="Layer 1"
     inkscape:groupmode="layer"
     id="layer1"><circle
       style="fill:#2e3548;fill-opacity:1;stroke:#858585;stroke-width:8;stroke-dasharray:none;stroke-opacity:1"
       id="path1"
       inkscape:label="background"
       cx="256"
       cy="256"
       r="241.31339" /><g
       id="g1"
       transform="matrix(3.8655599,0,0,3.8655599,18.5,18.5)"><path
         class="a"
         d="M 122.88,61.44 A 61.44,61.44 0 1 0 61.44,122.88 61.44,61.44 0 0 0 122.88,61.44 Z"
         id="path1-9" /><path
         class="b"
         d="m 114.37,61.44 a 52.92,52.92 0 1 0 -15.5,37.43 52.76,52.76 0 0 0 15.5,-37.43 z M 101.25,21.64 A 56.29,56.29 0 1 1 61.44,5.15 56.12,56.12 0 0 1 101.25,21.64 Z"
         id="path2" /><path
         class="c"
         d="M 43.24,30.15 C 26.17,34.13 32.43,58 32.43,58 l 10.81,52.9 4,1.71 -4,-82.49 z m -4,-10.24 H 34.7 l 6.3,2.28 c 0,0 -6.26,0 -6.26,4 C 48.36,25.6 54.61,29 54.61,29 L 39.25,19.9 Z m 0,0 z"
         id="path3" /><path
         class="b"
         d="m 75.66,115.48 c 0,0 -13.66,-21.61 -13.66,-35.84 0,-26.73 17.63,-4 17.63,-25 C 79.63,33.64 62,28.44 62,28.44 53.47,17.64 37,19.91 37,19.91 l 4,2.28 c 0,0 -4,1.13 -5.12,2.27 -1.12,1.14 10.81,-1.7 15.93,2.85 C 30.72,29 34.13,46.08 34.13,46.08 l 11.95,68.27 z m 0,0 z"
         id="path4" /><path
         class="d"
         d="m 75.66,60.87 21.62,-5.69 c 19.34,2.82 -16.5,13.66 -18.77,13.09 -17.07,-2.85 -12,11.37 8.53,6.82 20.53,-4.55 5.12,11.38 -13.65,5.12 C 46.65,72.82 60.87,59.73 75.66,60.87 Z"
         id="path5" /><path
         class="e"
         d="m 70,105.81 1.14,-1.7 c 12.52,4.55 13.09,6.25 12.52,-5.12 -0.57,-11.37 0,-11.38 -13.09,-1.71 0,-2.84 -7.39,-1.71 -8.53,0 -11.95,-5.12 -13.09,-6.83 -12.52,1.14 1.14,16.5 0.57,13.65 11.95,8 L 70,105.85 Z m 0,0 z"
         id="path6" /><path
         class="f"
         d="m 60.87,99.56 v 6.82 c 0.57,1.14 9.67,1.14 9.67,-1.14 0,-2.28 -4.55,1.71 -7.39,0.57 C 60.31,104.67 62,98.42 62,98.42 l -1.14,1.14 z m 0,0 z"
         id="path7" /><path
         class="g"
         d="m 48.36,43.24 c -2.85,-3.42 -10.24,-0.57 -8.54,4 0.57,-2.28 4.55,-5.69 8.54,-4 z m 18.2,0 c 0.57,-3.42 6.26,-4 8,-0.57 a 8,8 0 0 0 -8,0.57 z m -18.77,9.1 a 1.14,1.14 0 1 1 0,0.57 z m -4.55,2.27 a 4,4 0 1 0 0,-0.57 z m 29.58,-4 a 1.14,1.14 0 1 1 0,0.57 z m -3.42,2.3 a 3.42,3.42 0 1 0 0,-0.57 z m 0,0 z"
         id="path8" /></g></g></svg>
