<?xml version="1.0" encoding="UTF-8" standalone="no"?>
<!-- Created with Inkscape (http://www.inkscape.org/) -->

<svg
   width="512"
   height="512"
   viewBox="0 0 512 512"
   version="1.1"
   id="svg1"
   xml:space="preserve"
   xmlns="http://www.w3.org/2000/svg"
   xmlns:svg="http://www.w3.org/2000/svg"><defs
     id="defs1" /><g
     id="layer1"><circle
       style="fill:#e04e39;fill-opacity:1;stroke:#858585;stroke-width:8;stroke-dasharray:none;stroke-opacity:1"
       id="path1"
       cx="256.00003"
       cy="256.00006"
       r="241.31339" /><g
       id="g1"
       transform="matrix(3.8857741,0,0,3.8857741,16.517496,18.896444)"><path
         fill="#ffffff"
         fill-rule="evenodd"
         d="m 65.265,24.128 c 8.246,-0.163 14.073,2.073 19.087,9.19 10.934,27.109 -28.147,41.1 -29.714,41.65 l -0.049,0.016 c 0,0 -1.18,7.363 10.028,7.08 13.793,0 28.294,-10.691 33.81,-15.21 a 3.293,3.293 0 0 1 4.468,0.265 l 4.13,4.29 a 3.291,3.291 0 0 1 0.085,4.491 c -3.59,3.997 -12.014,12.203 -24.696,17.504 0,0 -21.16,9.798 -35.42,0.52 -8.503,-5.53 -10.842,-12.151 -11.793,-19.038 0.005,0 -10.324,-0.524 -16.957,-3.114 -6.635,-2.592 0.049,-10.411 0.049,-10.411 0,0 2.04,-3.233 5.92,0 3.883,3.228 11.13,1.772 11.13,1.772 0.646,-5.099 1.72,-11.828 4.884,-18.93 6.632,-14.885 16.789,-19.915 25.038,-20.075 z m 4.853,14.915 c -4.369,-4.21 -16.984,4.202 -17.471,23.45 0,0 3.724,1.134 11.97,-4.53 8.25,-5.661 9.87,-14.718 5.501,-18.92 z"
         id="path2" /></g></g></svg>
