<svg width="512" height="512" version="1.1" viewBox="0 0 512 512" xml:space="preserve" xmlns="http://www.w3.org/2000/svg"><defs><linearGradient id="linearGradient6" x1="47.395" x2="82.751" y1="82.735" y2="118.09" gradientTransform="matrix(7.2291 0 0 7.2291 -214.42 -469.9)" gradientUnits="userSpaceOnUse"><stop style="stop-color:#6d327c" offset="0"/><stop style="stop-color:#6d327c" offset=".058584"/><stop style="stop-color:#485da6" offset=".28638"/><stop style="stop-color:#00a1ba" offset=".53169"/><stop style="stop-color:#01b18e" offset=".83268"/><stop style="stop-color:#32b37b" offset="1"/></linearGradient></defs><circle cx="256" cy="256" r="241.31" style="fill:#2e3548;stroke-width:8;stroke:#858585"/><path d="m436 256c0 99.409-80.588 180-180 180-99.416 0-180-80.588-180-180 0-99.416 80.588-180 180-180 99.409 0 180 80.588 180 180z" style="fill:url(#linearGradient6);stroke-width:.73375"/><path d="m316.73 268.24c93.641-62.784 17.62-189.73-102.81-145.9-36.076 13.137-69.226 37.356-84.961 74.549-44.024 100.5 45.294 239.72 175.97 192.16 46.813-17.036 77.521-46.434 89.481-95.52l-60.247-6.2307c-12.54 27.753-37.496 45.683-63.958 50.346-36.739 6.7361-71.507-22.017-83.846-58.947-14.984-44.235 6.8047-87.514 43.16-102.95 51.087-21.908 103.95 26.213 43.993 54.116-23.506 11.311-52.218 23.426-78.423 13.632-1.933 55.365 57.816 67.857 121.66 24.745" style="fill:#fff;stroke-width:.73375"/></svg>
