<?xml version="1.0" encoding="UTF-8" standalone="no"?>
<!-- Created with Inkscape (http://www.inkscape.org/) -->

<svg
   width="512"
   height="512"
   viewBox="0 0 512 512"
   version="1.1"
   id="svg1"
   xml:space="preserve"
   xmlns="http://www.w3.org/2000/svg"
   xmlns:svg="http://www.w3.org/2000/svg"><defs
     id="defs1" /><g
     id="layer1"><circle
       style="fill:#f2f2f2;fill-opacity:1;stroke:#afafaf;stroke-width:8;stroke-dasharray:none;stroke-opacity:1"
       id="path1"
       cx="256.00003"
       cy="256.00006"
       r="241.31339" /><path
       d="m 324.55056,246.92954 c -4.518,-0.15399 -8.86871,0.126 -12.92653,0.777 1.13995,-9.25049 4.94682,-20.61078 18.42762,-20.13828 14.92413,0.525 17.0158,14.67829 17.06809,24.27528 -6.29594,-2.8245 -14.08742,-4.6095 -22.56918,-4.914 m 63.81699,-100.47301 c -2.49955,-13.40849 -10.43748,-20.01299 -17.62234,-22.60648 -7.73926,-2.814 -23.44767,-5.7225 -43.18262,-8.064 -15.87584,-1.869 -34.53356,-1.722 -45.80768,-1.3755 -1.34911,-9.30299 -7.84378,-17.797482 -15.12279,-20.737482 -19.36891,-7.83299 -49.31117,-5.94299 -56.98765,-3.78 -6.1077,1.7115 -12.87425,5.229 -16.63927,10.636502 -2.52049,3.61199 -4.15198,8.25299 -4.16241,14.72098 0,3.6645 0.1043,12.28499 0.18831,19.94999 0.0945,7.68599 0.1988,14.56349 0.1988,14.61599 0,6.83549 -5.53252,12.41028 -12.38271,12.42078 h -31.40653 c -6.70382,0 -11.82838,1.134 -15.72934,2.9085 -3.92188,1.7955 -6.69339,4.2 -8.80599,7.0455 -4.19376,5.65949 -4.92589,12.63149 -4.90496,19.75048 0,0 0.063,5.8275 1.46418,17.08349 1.16088,8.71499 10.57343,69.60374 19.51529,88.11522 3.4617,7.203 5.77303,10.206 12.58144,13.37699 15.17508,6.5303 49.84458,13.7858 66.08645,15.8648 16.22088,2.07899 26.39692,6.45749 32.46276,-6.3105 0.021,0 1.21317,-3.1815 2.85516,-7.7903 5.271,-16.02299 6.00305,-30.23997 6.00305,-40.51946 0,-1.05 1.52691,-1.092 1.52691,0 0,7.25549 -1.38047,32.95947 17.95709,39.85726 7.63454,2.71951 23.46853,5.1345 39.55353,7.035 14.5476,1.68 25.11052,7.4235 25.11052,44.89796 0,22.79549 -4.76903,25.92448 -29.70174,25.92448 -20.21606,0 -27.92389,0.525 -27.92389,-15.59248 0,-13.03049 12.84289,-11.66549 22.34958,-11.66549 4.25656,0 1.17131,-3.171 1.17131,-11.214 0,-8.00099 4.97819,-12.62098 0.2723,-12.73649 -32.90207,-0.91349 -52.26049,-0.07 -52.26049,41.26497 0,37.50527 14.29658,44.46676 60.98277,44.46676 36.61473,0 49.52033,-1.2075 64.63269,-48.28876 2.9911,-9.30299 10.22832,-37.66346 14.59989,-85.30123 2.77144,-30.11397 -2.60414,-121.0117 -6.87112,-143.95348 m -244.40166,6.62549 h 0.021 31.40646 c 1.79886,0 3.25254,-1.4805 3.25254,-3.26549 0,0 -0.37659,-27.03748 -0.37659,-34.55548 v -0.091 c 0,-6.17399 1.28638,-11.54999 3.53492,-16.064982 l 1.07723,-2.016 c -0.1253,0 -0.2408,0.07 -0.3661,0.189 L 121.4913,158.04152 c -0.1148,0.098 -0.1988,0.231 -0.2303,0.357 1.26546,-0.63 2.9911,-1.4805 3.23162,-1.5855 5.31285,-2.415 11.75523,-3.7275 19.47349,-3.7275"
       id="Evernote"
       style="fill:#20c05c;fill-rule:evenodd;stroke:none;stroke-width:7" /></g></svg>
