<?xml version="1.0" encoding="UTF-8" standalone="no"?>
<!-- Created with Inkscape (http://www.inkscape.org/) -->

<svg
   width="512"
   height="512"
   viewBox="0 0 512 512"
   version="1.1"
   id="svg1"
   xml:space="preserve"
   xmlns="http://www.w3.org/2000/svg"
   xmlns:svg="http://www.w3.org/2000/svg"><defs
     id="defs1" /><g
     id="layer1"><circle
       style="fill:#f2f2f2;fill-opacity:1;stroke:#afafaf;stroke-width:8;stroke-dasharray:none;stroke-opacity:1"
       id="path1"
       cx="256.00003"
       cy="256.00006"
       r="241.31339" /><path
       fill="url(#Xfeb2ANkiLrn2PxL5jJHLa)"
       d="M 974.12497,430.99962 856.25115,275.91949 h 15.24954 c 10.85561,0 21.07798,5.06595 27.64304,13.71167 l 91.22588,120.0191 91.22589,-120.0191 c 6.5521,-8.64572 16.7745,-13.71167 27.6301,-13.71167 h 15.2496 l -117.8739,155.08013 123.3792,162.31721 h -15.2495 c -10.8557,0 -21.078,-5.06595 -27.6431,-13.71167 L 990.35669,452.34899 893.62546,579.60516 c -6.56506,8.63279 -16.78743,13.71167 -27.64304,13.71167 h -15.24954 z m -377.93028,12.92335 v 10.11898 c 0,54.26512 35.8752,103.8003 88.75753,115.94824 57.36672,13.18181 109.71919,-16.11541 132.17996,-62.57483 3.48931,-7.21123 10.75223,-11.79901 18.75178,-11.79901 h 13.28519 C 832.12326,555.77451 776.59165,599.76558 710.79891,598.99018 632.08282,598.0597 570.348,530.43184 570.348,445.75808 v -1.83511 -25.84669 -9.25311 c 0,-70.13499 49.26379,-132.76152 118.51999,-143.91437 88.9643,-14.33199 165.79358,53.98081 165.79358,140.24414 v 38.77003 z m 0,-25.84669 h 232.6202 v -12.92334 c 0,-72.99105 -67.22724,-130.26731 -143.13897,-113.31189 -53.24417,11.9024 -89.48123,61.64436 -89.48123,122.48746 z"
       id="path2"
       style="stroke-width:12.9233" /><path
       d="m 434.30678,151.5205 h -6.12441 c -7.57265,0 -14.70579,3.53055 -19.3099,9.53967 l -62.68514,81.97342 -62.68513,-81.97342 c -4.5897,-6.00912 -11.73,-9.53967 -19.2955,-9.53967 h -6.1244 l 79.04811,103.36563 -80.74131,105.58482 h 6.1244 c 7.5726,0 14.7058,-3.53054 19.3027,-9.53967 l 64.37834,-84.18541 64.37835,84.18541 c 4.59691,6.00913 11.73005,9.53967 19.3027,9.53967 H 436 L 355.25867,254.88613 Z M 229.3912,318.98348 c -18.402,27.96333 -54.6297,42.29445 -89.265,29.65655 -30.4708,-11.1176 -49.7158,-41.40821 -49.7158,-73.84597 v -7.99055 h 86.4622 v 0 h 79.2571 v -29.78625 c 0,-46.86974 -34.7146,-87.90329 -81.3826,-92.29125 C 121.1981,139.68959 76,181.85435 76,234.38016 v 40.15451 c 0,38.69907 23.1647,74.67457 59.5797,87.78081 47.5759,17.11952 97.6159,-8.43007 114.5337,-52.28085 0,0 0,0 0,0 h -4.5969 c -6.564,0 -12.5227,3.4657 -16.1253,8.94885 z M 90.4104,234.38016 c 0,-41.71803 33.9364,-75.65447 75.6544,-75.65447 41.7181,0 75.6545,33.93644 75.6545,75.65447 v 18.01297 H 90.4104 Z"
       id="path1-8"
       style="stroke-width:7.20519" /></g></svg>
