<?xml version="1.0" encoding="UTF-8" standalone="no"?>
<!-- Created with Inkscape (http://www.inkscape.org/) -->

<svg
   width="512"
   height="512"
   viewBox="0 0 512 512"
   version="1.1"
   id="svg1"
   xml:space="preserve"
   xmlns="http://www.w3.org/2000/svg"
   xmlns:svg="http://www.w3.org/2000/svg"><defs
     id="defs1" /><g
     id="layer1"><circle
       style="fill:#ffffff;fill-opacity:1;stroke:#858585;stroke-width:8;stroke-dasharray:none;stroke-opacity:1"
       id="path1"
       cx="256.00003"
       cy="256.00006"
       r="241.31339" /><path
       d="m 229.33337,491.91104 c -7.05386,-0.84142 -14.45244,-1.92748 -16.43553,-2.41677 a 178.21094,178.21094 0 0 0 -8.80342,-1.85335 133.59705,133.59705 0 0 1 -10.01922,-2.34634 c -15.36429,-4.40357 -16.46518,-4.76312 -28.04864,-9.50029 -10.65677,-4.34425 -30.29119,-14.49321 -37.00774,-19.11177 -1.83852,-1.2751 -3.55843,-2.30186 -3.82161,-2.30186 -0.25947,0 -4.55924,-3.02467 -9.55588,-6.72025 -31.76646,-23.51163 -55.6154,-52.05326 -72.84787,-87.20764 -2.96536,-6.03823 -5.38584,-11.39441 -5.38584,-11.89853 0,-0.49669 -0.53377,-1.87188 -1.18615,-3.02837 -1.34553,-2.40565 -3.2619,-7.58763 -4.80759,-12.94382 a 74.308307,74.308307 0 0 0 -2.3167,-6.72025 c -0.7228,-1.70509 -1.30476,-3.78084 -1.30476,-4.61856 0,-0.84142 -0.7228,-3.57696 -1.605,-6.09752 -0.88219,-2.50203 -1.59388,-5.45627 -1.59388,-6.56087 0,-1.09719 -0.69315,-4.89285 -1.5494,-8.43646 -2.083172,-8.74782 -4.299781,-31.40691 -4.299781,-44.10608 0,-12.68434 2.216609,-35.34343 4.299781,-44.08754 0.85254,-3.54732 1.5494,-7.41341 1.5494,-8.59956 0,-1.18985 0.53747,-3.52137 1.18614,-5.18938 0.66721,-1.66061 1.51975,-4.64451 1.91266,-6.62759 0.40774,-1.98309 1.33442,-5.40067 2.08688,-7.61728 l 2.18696,-6.39777 c 1.605,-4.79277 3.0951,-8.84791 3.80678,-10.42696 0.40774,-0.8822 1.99792,-4.48512 3.54732,-8.00648 2.50573,-5.6898 7.87675,-16.42071 11.01633,-22.03636 1.14537,-2.05722 1.57905,-2.73926 7.77666,-12.42488 9.81906,-15.37541 26.59931,-34.505708 42.21937,-48.142678 5.50445,-4.80759 23.89342,-18.76704 24.72001,-18.76704 0.22982,0 1.96455,-1.04159 3.86609,-2.31669 4.99293,-3.34345 9.88949,-6.18279 16.27244,-9.38167 a 196.67775,196.67775 0 0 0 6.80551,-3.53249 c 1.05641,-0.6079 3.03949,-1.51975 13.22181,-6.079 2.24256,-1.00081 4.65933,-1.91266 11.62423,-4.34796 1.53457,-0.53377 4.61855,-1.66431 6.82033,-2.49091 2.21661,-0.82289 4.82243,-1.50492 5.79358,-1.50492 0.95633,0 3.47319,-0.66721 5.58971,-1.49009 2.11283,-0.8266 5.94926,-1.7681 8.54025,-2.08688 2.57987,-0.30395 6.00857,-1.02676 7.61728,-1.59388 1.59388,-0.54859 5.96779,-1.26028 9.71527,-1.57535 a 269.00297,269.00297 0 0 0 14.60812,-1.72362 c 9.96363,-1.46044 31.62561,-1.46044 41.48544,0 a 278.07698,278.07698 0 0 0 14.01505,1.64948 c 3.53249,0.29283 8.03614,1.03047 10.01923,1.63837 1.98308,0.59307 5.41549,1.33441 7.61727,1.605 2.20179,0.29283 5.90849,1.20468 8.2363,2.0424 2.33522,0.85254 4.98181,1.53457 5.89366,1.53457 0.91185,0 2.79486,0.50782 4.17004,1.14537 1.39002,0.62273 4.32943,1.66431 6.54604,2.31669 2.20179,0.66721 5.97892,1.98309 8.41422,2.95425 2.41677,0.96745 5.66014,2.24255 7.20954,2.8208 2.85417,1.07494 23.94532,11.62793 26.81431,13.42568 23.28181,14.51917 35.25817,24.00462 51.36009,40.64031 19.41572,20.068098 32.30393,39.179868 45.42196,67.313758 0.92668,1.98679 2.34264,4.92621 3.15441,6.51638 0.79694,1.60871 1.46415,3.49172 1.46415,4.18858 0,0.70427 0.6672,2.8171 1.49009,4.70381 2.23144,5.12637 4.14039,10.96072 5.04112,15.41989 0.4448,2.18696 1.2714,4.89285 1.83482,6.00857 0.56712,1.11201 1.23062,3.94023 1.4938,6.25692 0.25947,2.31298 1.02676,6.10864 1.67914,8.41051 3.78084,13.08837 5.66014,51.64922 3.3731,68.70377 -0.67833,5.06706 -1.44562,11.19425 -1.70509,13.61102 -0.43739,4.14039 -2.62434,14.84164 -4.49252,22.03636 l -1.92749,7.61727 c -3.63257,14.66743 -12.61021,35.56213 -23.57093,54.89259 -4.34426,7.67288 -18.9079,28.42301 -21.65828,30.85461 -0.24835,0.21499 -1.47897,1.66802 -2.72443,3.19889 -1.24545,1.5494 -5.24128,5.87883 -8.85902,9.61519 -15.94254,16.46147 -28.80109,26.64009 -51.37492,40.65884 -2.67625,1.66431 -25.37981,12.75477 -29.62399,14.47839 -2.20178,0.8822 -5.87883,2.37229 -8.16587,3.29897 -2.27221,0.91555 -4.80759,1.68284 -5.60454,1.69767 -0.79694,0.0111 -2.89493,0.72281 -4.66303,1.57535 -1.76439,0.85254 -4.01065,1.56423 -5.00776,1.57905 -0.98598,0.0148 -3.86609,0.71169 -6.40148,1.54941 -2.53168,0.85254 -6.05305,1.76809 -7.82114,2.03868 -1.76439,0.27801 -5.54153,1.03047 -8.41052,1.66802 -2.86528,0.63755 -11.52785,1.88301 -19.22667,2.7652 a 218.91797,218.91797 0 0 1 -51.69,-0.11491 z m 17.43263,-46.3338 c 1.11201,-0.86737 2.25739,-2.5947 2.56134,-3.80679 0.6672,-2.67995 108.3618,-218.58437 110.38937,-221.29026 1.70879,-2.28704 1.86817,-5.94926 0.30395,-7.2392 -0.82289,-0.69315 -11.13495,-0.91185 -38.66093,-0.86737 -20.64635,0.0445 -38.00485,0.0593 -38.57197,0.0445 -0.83772,-0.0297 -1.01193,-13.826 -0.92668,-72.91829 0.0593,-40.095418 -0.12973,-73.266718 -0.41886,-73.726348 -0.28912,-0.46705 -1.41966,-0.84142 -2.52055,-0.84142 -1.54941,0 -2.27221,0.6672 -3.22484,2.99501 -1.79775,4.32943 -6.76473,14.15961 -30.94357,61.105028 a 13175.737,13175.737 0 0 0 -15.03068,29.2459 c -4.28496,8.38456 -11.04598,21.54707 -15.00104,29.2459 a 32438.291,32438.291 0 0 0 -31.87024,62.12066 c -18.28518,35.7178 -20.49808,39.97681 -21.2839,40.91831 -1.51975,1.83853 -2.34635,6.079 -1.4901,7.67288 0.77841,1.46044 2.33152,1.51975 40.93314,1.46044 22.06601,-0.0259 40.26593,0.089 40.45498,0.25947 0.50781,0.52265 0.31877,138.29715 -0.20387,141.58129 -0.34473,2.1573 -0.11491,3.29897 0.87107,4.28495 1.70509,1.70879 2.17213,1.69396 4.63338,-0.24464 z m 0,0"
       fill="#049688"
       id="path1-8"
       style="stroke-width:3.7067" /></g></svg>
