<?xml version="1.0" encoding="UTF-8" standalone="no"?>
<!-- Created with Inkscape (http://www.inkscape.org/) -->

<svg
   width="512"
   height="512"
   viewBox="0 0 512 512"
   version="1.1"
   id="svg1"
   xml:space="preserve"
   inkscape:version="1.4.2 (f4327f4, 2025-05-13)"
   sodipodi:docname="firebase.svg"
   xmlns:inkscape="http://www.inkscape.org/namespaces/inkscape"
   xmlns:sodipodi="http://sodipodi.sourceforge.net/DTD/sodipodi-0.dtd"
   xmlns="http://www.w3.org/2000/svg"
   xmlns:svg="http://www.w3.org/2000/svg"><sodipodi:namedview
     id="namedview1"
     pagecolor="#ffffff"
     bordercolor="#999999"
     borderopacity="1"
     inkscape:showpageshadow="2"
     inkscape:pageopacity="0"
     inkscape:pagecheckerboard="0"
     inkscape:deskcolor="#d1d1d1"
     inkscape:document-units="px"
     showgrid="false"
     inkscape:zoom="1"
     inkscape:cx="313"
     inkscape:cy="277.5"
     inkscape:window-width="1920"
     inkscape:window-height="1001"
     inkscape:window-x="-9"
     inkscape:window-y="-9"
     inkscape:window-maximized="1"
     inkscape:current-layer="layer1"><inkscape:grid
       id="grid1"
       units="mm"
       originx="0"
       originy="0"
       spacingx="1"
       spacingy="1"
       empcolor="#0099e5"
       empopacity="0.30196078"
       color="#0099e5"
       opacity="0.14902"
       empspacing="5"
       enabled="true"
       visible="false" /></sodipodi:namedview><defs
     id="defs1"><inkscape:path-effect
       effect="fillet_chamfer"
       id="path-effect1"
       is_visible="true"
       lpeversion="1"
       nodesatellites_param="F,0,0,1,0,2.2572315,0,1 @ F,0,0,1,0,2.608162,0,1 @ F,0,0,1,0,2.5997618,0,1 @ F,0,0,1,0,3.0078049,0,1 @ F,0,0,1,0,2.2522004,0,1 @ F,0,0,1,0,2.8010871,0,1"
       radius="0"
       unit="px"
       method="auto"
       mode="F"
       chamfer_steps="1"
       flexible="false"
       use_knot_distance="true"
       apply_no_radius="true"
       apply_with_radius="true"
       only_selected="false"
       hide_knots="false" /><style
       id="style1">.cls-1{fill:#ff9100;}.cls-2{fill:#ffc400;}.cls-3{fill:#dd2c00;}</style></defs><g
     inkscape:label="Layer 1"
     inkscape:groupmode="layer"
     id="layer1"><circle
       style="fill:#f2f2f2;fill-opacity:1;stroke:#afafaf;stroke-width:8;stroke-dasharray:none;stroke-opacity:1"
       id="path1"
       inkscape:label="background"
       cx="256.00003"
       cy="256.00006"
       r="241.31339" /><g
       id="g1"
       transform="matrix(3.4309734,0,0,3.4309734,112.70969,75.999998)"><path
         class="cls-1"
         d="m 26.16,101.91 c 4.39,1.77 9.15,2.82 14.15,2.99 6.77,0.24 13.2,-1.16 18.96,-3.82 -6.9,-2.71 -13.15,-6.67 -18.48,-11.6 -3.46,5.54 -8.57,9.91 -14.63,12.43 z"
         id="path1-9" /><path
         class="cls-2"
         d="M 40.79,89.47 C 28.62,78.21 21.23,61.92 21.86,44.04 21.88,43.46 21.91,42.88 21.95,42.3 19.77,41.74 17.49,41.39 15.15,41.31 11.8,41.19 8.55,41.61 5.48,42.47 2.23,48.17 0.27,54.7 0.03,61.7 -0.6,79.76 10.33,95.53 26.17,101.91 32.23,99.38 37.34,95.02 40.8,89.48 Z"
         id="path2" /><path
         class="cls-1"
         d="m 40.79,89.47 c 2.83,-4.53 4.55,-9.84 4.75,-15.56 0.53,-15.05 -9.59,-28 -23.59,-31.61 -0.04,0.58 -0.07,1.16 -0.09,1.74 -0.62,17.87 6.76,34.17 18.93,45.43 z"
         id="path3" /><path
         class="cls-3"
         d="M 43.97,0 C 36,6.39 29.7,14.81 25.89,24.52 c -2.18,5.56 -3.55,11.53 -3.95,17.79 14,3.61 24.12,16.56 23.59,31.61 -0.2,5.72 -1.92,11.03 -4.75,15.56 5.33,4.93 11.58,8.89 18.48,11.6 C 73.11,94.68 82.93,80.9 83.5,64.61 83.87,54.05 79.81,44.65 74.08,36.7 68.04,28.3 43.97,0 43.97,0 Z"
         id="path4" /></g></g></svg>
