<?xml version="1.0" encoding="UTF-8" standalone="no"?>
<!-- Created with Inkscape (http://www.inkscape.org/) -->

<svg
   width="512"
   height="512"
   viewBox="0 0 512 512"
   version="1.1"
   id="svg1"
   xml:space="preserve"
   xmlns="http://www.w3.org/2000/svg"
   xmlns:svg="http://www.w3.org/2000/svg"><defs
     id="defs1"><radialGradient
       gradientUnits="userSpaceOnUse"
       gradientTransform="translate(7978.7,8523.996)"
       r="80.797"
       cy="-8515.121"
       cx="-7907.187"
       id="b"><stop
         stop-color="#ffbd4f"
         offset=".129"
         id="stop1" /><stop
         stop-color="#ffac31"
         offset=".186"
         id="stop2" /><stop
         stop-color="#ff9d17"
         offset=".247"
         id="stop3" /><stop
         stop-color="#ff980e"
         offset=".283"
         id="stop4" /><stop
         stop-color="#ff563b"
         offset=".403"
         id="stop5" /><stop
         stop-color="#ff3750"
         offset=".467"
         id="stop6" /><stop
         stop-color="#f5156c"
         offset=".71"
         id="stop7" /><stop
         stop-color="#eb0878"
         offset=".782"
         id="stop8" /><stop
         stop-color="#e50080"
         offset=".86"
         id="stop9" /></radialGradient><radialGradient
       gradientUnits="userSpaceOnUse"
       gradientTransform="translate(7978.7,8523.996)"
       r="80.797"
       cy="-8482.089"
       cx="-7936.711"
       id="c"><stop
         stop-color="#960e18"
         offset=".3"
         id="stop10" /><stop
         stop-opacity=".74"
         stop-color="#b11927"
         offset=".351"
         id="stop11" /><stop
         stop-opacity=".343"
         stop-color="#db293d"
         offset=".435"
         id="stop12" /><stop
         stop-opacity=".094"
         stop-color="#f5334b"
         offset=".497"
         id="stop13" /><stop
         stop-opacity="0"
         stop-color="#ff3750"
         offset=".53"
         id="stop14" /></radialGradient><radialGradient
       gradientUnits="userSpaceOnUse"
       gradientTransform="translate(7978.7,8523.996)"
       r="58.534"
       cy="-8533.457"
       cx="-7926.97"
       id="d"><stop
         stop-color="#fff44f"
         offset=".132"
         id="stop15" /><stop
         stop-color="#ffdc3e"
         offset=".252"
         id="stop16" /><stop
         stop-color="#ff9d12"
         offset=".506"
         id="stop17" /><stop
         stop-color="#ff980e"
         offset=".526"
         id="stop18" /></radialGradient><radialGradient
       gradientUnits="userSpaceOnUse"
       gradientTransform="translate(7978.7,8523.996)"
       r="38.471"
       cy="-8460.984"
       cx="-7945.648"
       id="e"><stop
         stop-color="#3a8ee6"
         offset=".353"
         id="stop19" /><stop
         stop-color="#5c79f0"
         offset=".472"
         id="stop20" /><stop
         stop-color="#9059ff"
         offset=".669"
         id="stop21" /><stop
         stop-color="#c139e6"
         offset="1"
         id="stop22" /></radialGradient><radialGradient
       gradientUnits="userSpaceOnUse"
       gradientTransform="matrix(0.972,-0.235,0.275,1.138,10095.002,7833.794)"
       r="20.397"
       cy="-8491.546"
       cx="-7935.62"
       id="f"><stop
         stop-opacity="0"
         stop-color="#9059ff"
         offset=".206"
         id="stop23" /><stop
         stop-opacity=".064"
         stop-color="#8c4ff3"
         offset=".278"
         id="stop24" /><stop
         stop-opacity=".45"
         stop-color="#7716a8"
         offset=".747"
         id="stop25" /><stop
         stop-opacity=".6"
         stop-color="#6e008b"
         offset=".975"
         id="stop26" /></radialGradient><radialGradient
       gradientUnits="userSpaceOnUse"
       gradientTransform="translate(7978.7,8523.996)"
       r="27.676"
       cy="-8518.427"
       cx="-7937.731"
       id="g"><stop
         stop-color="#ffe226"
         offset="0"
         id="stop27" /><stop
         stop-color="#ffdb27"
         offset=".121"
         id="stop28" /><stop
         stop-color="#ffc82a"
         offset=".295"
         id="stop29" /><stop
         stop-color="#ffa930"
         offset=".502"
         id="stop30" /><stop
         stop-color="#ff7e37"
         offset=".732"
         id="stop31" /><stop
         stop-color="#ff7139"
         offset=".792"
         id="stop32" /></radialGradient><radialGradient
       gradientUnits="userSpaceOnUse"
       gradientTransform="translate(7978.7,8523.996)"
       r="118.081"
       cy="-8535.981"
       cx="-7915.977"
       id="h"><stop
         stop-color="#fff44f"
         offset=".113"
         id="stop33" /><stop
         stop-color="#ff980e"
         offset=".456"
         id="stop34" /><stop
         stop-color="#ff5634"
         offset=".622"
         id="stop35" /><stop
         stop-color="#ff3647"
         offset=".716"
         id="stop36" /><stop
         stop-color="#e31587"
         offset=".904"
         id="stop37" /></radialGradient><radialGradient
       gradientUnits="userSpaceOnUse"
       gradientTransform="matrix(0.105,0.995,-0.653,0.069,-4680.304,8470.187)"
       r="86.499"
       cy="-8522.859"
       cx="-7927.165"
       id="i"><stop
         stop-color="#fff44f"
         offset="0"
         id="stop38" /><stop
         stop-color="#ffe847"
         offset=".06"
         id="stop39" /><stop
         stop-color="#ffc830"
         offset=".168"
         id="stop40" /><stop
         stop-color="#ff980e"
         offset=".304"
         id="stop41" /><stop
         stop-color="#ff8b16"
         offset=".356"
         id="stop42" /><stop
         stop-color="#ff672a"
         offset=".455"
         id="stop43" /><stop
         stop-color="#ff3647"
         offset=".57"
         id="stop44" /><stop
         stop-color="#e31587"
         offset=".737"
         id="stop45" /></radialGradient><radialGradient
       gradientUnits="userSpaceOnUse"
       gradientTransform="translate(7978.7,8523.996)"
       r="73.72"
       cy="-8508.176"
       cx="-7938.383"
       id="j"><stop
         stop-color="#fff44f"
         offset=".137"
         id="stop46" /><stop
         stop-color="#ff980e"
         offset=".48"
         id="stop47" /><stop
         stop-color="#ff5634"
         offset=".592"
         id="stop48" /><stop
         stop-color="#ff3647"
         offset=".655"
         id="stop49" /><stop
         stop-color="#e31587"
         offset=".904"
         id="stop50" /></radialGradient><radialGradient
       gradientUnits="userSpaceOnUse"
       gradientTransform="translate(7978.7,8523.996)"
       r="80.686"
       cy="-8503.861"
       cx="-7918.923"
       id="k"><stop
         stop-color="#fff44f"
         offset=".094"
         id="stop51" /><stop
         stop-color="#ffe141"
         offset=".231"
         id="stop52" /><stop
         stop-color="#ffaf1e"
         offset=".509"
         id="stop53" /><stop
         stop-color="#ff980e"
         offset=".626"
         id="stop54" /></radialGradient><linearGradient
       gradientTransform="translate(3.7,-0.004)"
       gradientUnits="userSpaceOnUse"
       y2="74.468"
       x2="6.447"
       y1="12.393"
       x1="70.786"
       id="a"><stop
         stop-color="#fff44f"
         offset=".048"
         id="stop55" /><stop
         stop-color="#ffe847"
         offset=".111"
         id="stop56" /><stop
         stop-color="#ffc830"
         offset=".225"
         id="stop57" /><stop
         stop-color="#ff980e"
         offset=".368"
         id="stop58" /><stop
         stop-color="#ff8b16"
         offset=".401"
         id="stop59" /><stop
         stop-color="#ff672a"
         offset=".462"
         id="stop60" /><stop
         stop-color="#ff3647"
         offset=".534"
         id="stop61" /><stop
         stop-color="#e31587"
         offset=".705"
         id="stop62" /></linearGradient><linearGradient
       gradientTransform="translate(3.7,-0.004)"
       gradientUnits="userSpaceOnUse"
       y2="66.806"
       x2="15.267"
       y1="12.061"
       x1="70.013"
       id="l"><stop
         stop-opacity=".8"
         stop-color="#fff44f"
         offset=".167"
         id="stop63" /><stop
         stop-opacity=".634"
         stop-color="#fff44f"
         offset=".266"
         id="stop64" /><stop
         stop-opacity=".217"
         stop-color="#fff44f"
         offset=".489"
         id="stop65" /><stop
         stop-opacity="0"
         stop-color="#fff44f"
         offset=".6"
         id="stop66" /></linearGradient></defs><g
     id="layer1"><circle
       style="fill:#f2f2f2;fill-opacity:1;stroke:#afafaf;stroke-width:8;stroke-dasharray:none;stroke-opacity:1"
       id="path1"
       cx="256.00003"
       cy="256.00006"
       r="241.31339" /><g
       id="g1"
       transform="matrix(4.5018583,0,0,4.5018583,59.226799,75.999616)"><path
         d="m 79.616,26.827 c -1.684,-4.052 -5.1,-8.427 -7.775,-9.81 a 40.266,40.266 0 0 1 3.925,11.764 l 0.007,0.065 C 71.391,17.92 63.96,13.516 57.891,3.924 A 47.099,47.099 0 0 1 56.978,2.44 12.24,12.24 0 0 1 56.551,1.64 7.053,7.053 0 0 1 55.973,0.105 a 0.1,0.1 0 0 0 -0.088,-0.1 0.138,0.138 0 0 0 -0.073,0 c -0.005,0 -0.013,0.009 -0.019,0.01 L 55.765,0.031 55.78,0.005 c -9.735,5.7 -13.038,16.252 -13.342,21.53 a 19.387,19.387 0 0 0 -10.666,4.11 11.587,11.587 0 0 0 -1,-0.757 17.968,17.968 0 0 1 -0.109,-9.473 28.705,28.705 0 0 0 -9.329,7.21 h -0.018 c -1.536,-1.947 -1.428,-8.367 -1.34,-9.708 a 6.928,6.928 0 0 0 -1.294,0.687 28.225,28.225 0 0 0 -3.788,3.245 33.845,33.845 0 0 0 -3.623,4.347 v 0.006 -0.007 a 32.733,32.733 0 0 0 -5.2,11.743 l -0.052,0.256 a 61.89,61.89 0 0 0 -0.381,2.42 c 0,0.029 -0.006,0.056 -0.009,0.085 A 36.937,36.937 0 0 0 5,41.042 v 0.2 a 38.759,38.759 0 0 0 76.954,6.554 c 0.065,-0.5 0.118,-0.995 0.176,-1.5 a 39.857,39.857 0 0 0 -2.514,-19.47 z m -44.67,30.338 c 0.181,0.087 0.351,0.18 0.537,0.264 l 0.027,0.017 q -0.282,-0.135 -0.564,-0.281 z m 8.878,-23.376 z m 31.952,-4.934 v -0.037 l 0.007,0.04 z"
         fill="url(#a)"
         id="path66"
         style="fill:url(#a)" /><path
         d="m 79.616,26.827 c -1.684,-4.052 -5.1,-8.427 -7.775,-9.81 a 40.266,40.266 0 0 1 3.925,11.764 v 0.037 l 0.007,0.04 a 35.1,35.1 0 0 1 -1.206,26.159 c -4.442,9.53 -15.194,19.3 -32.024,18.825 -18.185,-0.515 -34.2,-14.01 -37.194,-31.683 -0.545,-2.787 0,-4.2 0.274,-6.465 A 28.876,28.876 0 0 0 5,41.042 v 0.2 a 38.759,38.759 0 0 0 76.954,6.554 c 0.065,-0.5 0.118,-0.995 0.176,-1.5 a 39.857,39.857 0 0 0 -2.514,-19.47 z"
         fill="url(#b)"
         id="path67"
         style="fill:url(#b)" /><path
         d="m 79.616,26.827 c -1.684,-4.052 -5.1,-8.427 -7.775,-9.81 a 40.266,40.266 0 0 1 3.925,11.764 v 0.037 l 0.007,0.04 a 35.1,35.1 0 0 1 -1.206,26.159 c -4.442,9.53 -15.194,19.3 -32.024,18.825 -18.185,-0.515 -34.2,-14.01 -37.194,-31.683 -0.545,-2.787 0,-4.2 0.274,-6.465 A 28.876,28.876 0 0 0 5,41.042 v 0.2 a 38.759,38.759 0 0 0 76.954,6.554 c 0.065,-0.5 0.118,-0.995 0.176,-1.5 a 39.857,39.857 0 0 0 -2.514,-19.47 z"
         fill="url(#c)"
         id="path68"
         style="fill:url(#c)" /><path
         d="m 60.782,31.383 c 0.084,0.059 0.162,0.118 0.241,0.177 a 21.1,21.1 0 0 0 -3.6,-4.695 C 45.377,14.817 54.266,0.742 55.765,0.027 L 55.78,0.005 c -9.735,5.7 -13.038,16.252 -13.342,21.53 0.452,-0.031 0.9,-0.07 1.362,-0.07 a 19.56,19.56 0 0 1 16.982,9.918 z"
         fill="url(#d)"
         id="path69"
         style="fill:url(#d)" /><path
         d="m 43.825,33.789 c -0.064,0.964 -3.47,4.289 -4.661,4.289 -11.021,0 -12.81,6.667 -12.81,6.667 0.488,5.614 4.4,10.238 9.129,12.684 0.216,0.112 0.435,0.213 0.654,0.312 q 0.569,0.252 1.138,0.466 a 17.235,17.235 0 0 0 5.043,0.973 c 19.317,0.906 23.059,-23.1 9.119,-30.066 A 13.38,13.38 0 0 1 60.782,31.383 19.56,19.56 0 0 0 43.8,21.466 c -0.46,0 -0.91,0.038 -1.362,0.069 a 19.387,19.387 0 0 0 -10.666,4.11 c 0.591,0.5 1.258,1.169 2.663,2.554 2.63,2.59 9.375,5.275 9.39,5.59 z"
         fill="url(#e)"
         id="path70"
         style="fill:url(#e)" /><path
         d="m 43.825,33.789 c -0.064,0.964 -3.47,4.289 -4.661,4.289 -11.021,0 -12.81,6.667 -12.81,6.667 0.488,5.614 4.4,10.238 9.129,12.684 0.216,0.112 0.435,0.213 0.654,0.312 q 0.569,0.252 1.138,0.466 a 17.235,17.235 0 0 0 5.043,0.973 c 19.317,0.906 23.059,-23.1 9.119,-30.066 A 13.38,13.38 0 0 1 60.782,31.383 19.56,19.56 0 0 0 43.8,21.466 c -0.46,0 -0.91,0.038 -1.362,0.069 a 19.387,19.387 0 0 0 -10.666,4.11 c 0.591,0.5 1.258,1.169 2.663,2.554 2.63,2.59 9.375,5.275 9.39,5.59 z"
         fill="url(#f)"
         id="path71"
         style="fill:url(#f)" /><path
         d="m 29.965,24.357 c 0.314,0.2 0.573,0.374 0.8,0.53 a 17.968,17.968 0 0 1 -0.109,-9.472 28.705,28.705 0 0 0 -9.329,7.21 c 0.189,-0.005 5.811,-0.106 8.638,1.732 z"
         fill="url(#g)"
         id="path72"
         style="fill:url(#g)" /><path
         d="m 5.354,42.159 c 2.991,17.674 19.009,31.168 37.194,31.683 16.83,0.476 27.582,-9.294 32.024,-18.825 a 35.1,35.1 0 0 0 1.206,-26.158 v -0.037 c 0,-0.03 -0.006,-0.046 0,-0.037 l 0.007,0.065 c 1.375,8.977 -3.191,17.674 -10.329,23.555 l -0.022,0.05 c -13.908,11.327 -27.218,6.834 -29.912,5 Q 35.24,57.32 34.958,57.174 C 26.849,53.298 23.499,45.91 24.217,39.574 a 9.953,9.953 0 0 1 -9.181,-5.775 14.618,14.618 0 0 1 14.249,-0.572 19.3,19.3 0 0 0 14.552,0.572 c -0.015,-0.315 -6.76,-3 -9.39,-5.59 -1.405,-1.385 -2.072,-2.052 -2.663,-2.553 a 11.587,11.587 0 0 0 -1,-0.758 c -0.23,-0.157 -0.489,-0.327 -0.8,-0.531 -2.827,-1.838 -8.449,-1.737 -8.635,-1.732 h -0.018 c -1.536,-1.947 -1.428,-8.367 -1.34,-9.708 a 6.928,6.928 0 0 0 -1.294,0.687 28.225,28.225 0 0 0 -3.788,3.245 33.845,33.845 0 0 0 -3.638,4.337 v 0.006 -0.007 a 32.733,32.733 0 0 0 -5.2,11.743 c -0.019,0.079 -1.396,6.099 -0.717,9.22 z"
         fill="url(#h)"
         id="path73"
         style="fill:url(#h)" /><path
         d="m 57.425,26.865 a 21.1,21.1 0 0 1 3.6,4.7 c 0.213,0.16 0.412,0.32 0.581,0.476 8.787,8.1 4.183,19.55 3.84,20.365 7.138,-5.881 11.7,-14.578 10.329,-23.555 C 71.391,17.92 63.96,13.516 57.891,3.924 A 47.099,47.099 0 0 1 56.978,2.44 12.24,12.24 0 0 1 56.551,1.64 7.053,7.053 0 0 1 55.973,0.105 a 0.1,0.1 0 0 0 -0.088,-0.1 0.138,0.138 0 0 0 -0.073,0 c -0.005,0 -0.013,0.009 -0.019,0.01 l -0.028,0.016 c -1.499,0.71 -10.388,14.786 1.66,26.834 z"
         fill="url(#i)"
         id="path74"
         style="fill:url(#i)" /><path
         d="M 61.6,32.036 A 8.083,8.083 0 0 0 61.019,31.56 C 60.94,31.5 60.862,31.442 60.778,31.383 a 13.38,13.38 0 0 0 -9.345,-2.27 c 13.94,6.97 10.2,30.973 -9.119,30.067 a 17.235,17.235 0 0 1 -5.043,-0.973 q -0.569,-0.213 -1.138,-0.466 c -0.219,-0.1 -0.438,-0.2 -0.654,-0.312 l 0.027,0.017 c 2.694,1.839 16,6.332 29.912,-5 l 0.022,-0.05 c 0.347,-0.81 4.951,-12.263 -3.84,-20.36 z"
         fill="url(#j)"
         id="path75"
         style="fill:url(#j)" /><path
         d="m 26.354,44.745 c 0,0 1.789,-6.667 12.81,-6.667 1.191,0 4.6,-3.325 4.661,-4.29 a 19.3,19.3 0 0 1 -14.552,-0.571 14.618,14.618 0 0 0 -14.249,0.572 9.953,9.953 0 0 0 9.181,5.775 c -0.718,6.337 2.632,13.725 10.741,17.6 0.181,0.087 0.351,0.18 0.537,0.264 -4.733,-2.445 -8.641,-7.07 -9.129,-12.683 z"
         fill="url(#k)"
         id="path76"
         style="fill:url(#k)" /><path
         d="m 79.616,26.827 c -1.684,-4.052 -5.1,-8.427 -7.775,-9.81 a 40.266,40.266 0 0 1 3.925,11.764 l 0.007,0.065 C 71.391,17.92 63.96,13.516 57.891,3.924 A 47.099,47.099 0 0 1 56.978,2.44 12.24,12.24 0 0 1 56.551,1.64 7.053,7.053 0 0 1 55.973,0.105 a 0.1,0.1 0 0 0 -0.088,-0.1 0.138,0.138 0 0 0 -0.073,0 c -0.005,0 -0.013,0.009 -0.019,0.01 L 55.765,0.031 55.78,0.005 c -9.735,5.7 -13.038,16.252 -13.342,21.53 0.452,-0.031 0.9,-0.07 1.362,-0.07 a 19.56,19.56 0 0 1 16.982,9.918 13.38,13.38 0 0 0 -9.345,-2.27 c 13.94,6.97 10.2,30.973 -9.119,30.067 a 17.235,17.235 0 0 1 -5.043,-0.973 q -0.569,-0.213 -1.138,-0.466 c -0.219,-0.1 -0.438,-0.2 -0.654,-0.312 l 0.027,0.017 q -0.282,-0.135 -0.564,-0.281 c 0.181,0.087 0.351,0.18 0.537,0.264 -4.733,-2.446 -8.641,-7.07 -9.129,-12.684 0,0 1.789,-6.667 12.81,-6.667 1.191,0 4.6,-3.325 4.661,-4.29 -0.015,-0.314 -6.76,-3 -9.39,-5.59 -1.405,-1.384 -2.072,-2.051 -2.663,-2.552 a 11.587,11.587 0 0 0 -1,-0.758 17.968,17.968 0 0 1 -0.109,-9.473 28.705,28.705 0 0 0 -9.329,7.21 h -0.018 c -1.536,-1.947 -1.428,-8.367 -1.34,-9.708 a 6.928,6.928 0 0 0 -1.294,0.687 28.225,28.225 0 0 0 -3.788,3.245 33.845,33.845 0 0 0 -3.623,4.347 v 0.006 -0.007 a 32.733,32.733 0 0 0 -5.2,11.743 l -0.052,0.256 c -0.073,0.34 -0.4,2.073 -0.447,2.445 0,0.028 0,-0.03 0,0 A 45.094,45.094 0 0 0 5,41.042 v 0.2 a 38.759,38.759 0 0 0 76.954,6.554 c 0.065,-0.5 0.118,-0.995 0.176,-1.5 a 39.857,39.857 0 0 0 -2.514,-19.47 z m -3.845,1.99 0.007,0.042 z"
         fill="url(#l)"
         id="path77"
         style="fill:url(#l)" /></g></g></svg>
