<?xml version="1.0" encoding="UTF-8" standalone="no"?>
<!-- Created with Inkscape (http://www.inkscape.org/) -->

<svg
   width="512"
   height="512"
   viewBox="0 0 512 512"
   version="1.1"
   id="svg1"
   xml:space="preserve"
   xmlns="http://www.w3.org/2000/svg"
   xmlns:svg="http://www.w3.org/2000/svg"><defs
     id="defs1" /><g
     id="layer1"><circle
       style="fill:#f2f2f2;fill-opacity:1;stroke:#afafaf;stroke-width:8;stroke-dasharray:none;stroke-opacity:1"
       id="path1"
       cx="256.00003"
       cy="256.00006"
       r="241.31339" /><path
       fill="#010101"
       d="m 188.4176,373.05756 c -12.79678,-10.07406 -26.44062,-19.72458 -35.78862,-33.30792 -19.63383,-23.95993 -34.76005,-51.73166 -45.07612,-80.895 -6.26226,-18.96828 -8.379925,-39.29791 -16.457325,-57.54012 -8.41017,-13.25057 1.45212,-27.71123 15.943025,-31.91632 6.44377,-1.24035 17.81869,-7.35134 4.11433,-2.96474 -12.282475,9.01523 -13.462325,-8.1984 -0.87732,-9.28749 8.59169,-1.14959 11.7682,-8.16816 8.83371,-14.52117 -9.22699,-6.02023 22.3868,-12.64551 6.47402,-21.63049 -16.57833,-17.87918 23.17336,-21.327957 13.37158,-0.99833 -2.32944,15.61026 27.77173,-2.87398 20.78342,15.15647 7.10932,8.6522 26.62214,1.96641 26.10784,14.12789 10.34634,0.72605 13.91612,9.4085 23.5969,10.07406 10.07406,4.53786 28.31627,8.1379 31.7348,19.48256 -9.9833,7.89588 -33.12641,-16.33631 -34.2155,5.56645 3.02524,32.33985 2.23868,65.64777 14.06738,96.44474 5.5967,18.6355 19.14979,33.30793 31.40202,47.8291 11.73795,14.21864 27.59022,24.23219 43.80552,32.67262 14.18839,6.68579 29.49612,11.1329 44.98536,13.91612 6.26226,-4.81014 17.3649,-22.62882 27.13643,-15.12622 0.48404,8.47068 -19.42206,17.66742 -0.93782,16.75985 10.86062,-3.26726 18.39348,8.37992 27.3482,-2.14792 8.22866,9.77153 34.24575,-6.232 28.37678,13.70435 -7.92614,5.11266 -19.48257,2.02691 -27.43896,9.07573 -13.0993,-6.53453 -23.50614,5.83872 -37.99705,4.29584 -16.09429,2.87398 -32.46086,4.05383 -48.79717,4.05383 -26.7734,-2.11767 -54.1216,-2.99499 -79.56389,-12.31274 -14.33965,-4.17484 -28.34653,-12.34299 -40.93154,-20.51115 z m 22.59857,9.80179 c 14.00687,6.05049 27.71122,12.43375 43.0492,14.3699 24.35321,3.38828 49.52323,8.59169 73.9672,3.84206 -11.07239,-4.99165 -22.50781,1.93616 -33.5197,-3.56978 -13.22031,2.84372 -27.4087,-0.72606 -40.84078,-2.4807 -15.27747,-6.8068 -31.76505,-11.49593 -46.07445,-20.32964 -17.87918,-6.53452 9.25724,8.37993 14.06738,9.59002 11.16315,6.35301 -12.28249,-3.26726 -15.61025,-5.89922 -9.348,-5.26392 -10.5581,-4.14458 -0.93783,1.17984 1.93616,1.11934 3.87231,2.32944 5.89923,3.29752 z m -26.65239,-18.84726 c 13.58334,5.0219 -0.0605,-9.55977 -6.26226,-8.7127 -2.75297,-4.77989 -10.52784,-7.80513 -5.05215,-10.37659 -9.8623,3.41853 -10.34633,-13.00854 -14.97496,-10.67911 -10.43709,-3.29751 -4.05382,-14.97495 -16.48757,-22.14477 -1.11934,-7.56311 -12.34299,-14.09764 -15.91278,-25.5028 -1.57313,-5.83872 -12.67577,-22.56832 -5.86897,-6.98831 5.80847,15.0052 16.00353,27.86248 24.50447,40.68951 6.59503,12.22199 14.40015,24.98851 26.38012,32.61212 4.05382,3.93282 7.95639,9.89255 13.6741,11.10265 z m -39.1164,-42.9282 c 0.48404,-2.05717 2.4807,4.41685 0,0 z m 55.36195,48.94843 c 3.02524,-1.33111 -4.3261,-1.69414 0,0 z m 7.38159,2.69246 c -0.75631,-3.72104 -3.35802,2.08742 0,0 z m 9.22699,3.84206 c 4.38661,-4.17483 -6.77654,-2.63196 0,0 z m 15.79177,8.80346 c 2.69247,-3.93282 -8.53118,-1.48237 0,0 z M 202.6665,364.22385 c 6.80679,-4.41685 -8.80346,-0.0605 0,0 z m 6.9278,3.44878 c -0.21177,-2.32944 -2.4807,1.02858 0,0 z m 34.57853,21.56998 c 5.56645,3.50928 32.46086,7.68412 15.61025,1.45212 -2.81347,0.60505 -31.25076,-8.04715 -15.61025,-1.45212 z m -54.90816,-42.74668 c -0.54455,-2.32944 -8.62194,-2.57146 0,0 z m 16.09429,9.37825 c 4.20509,-2.90423 -8.68245,-2.23868 0,0 z m 13.55309,8.31942 c 5.98998,-2.26893 -9.77153,-2.26893 0,0 z m -36.21216,-24.83725 c 6.53453,4.99166 26.31962,0.63531 9.9833,-2.99499 -7.41184,-3.96306 -24.17169,-6.65553 -12.76652,2.38995 z m 45.37865,27.71123 c 2.72272,-4.62862 -11.40517,-2.66221 0,0 z m -13.79511,-10.98163 c 15.94303,4.50761 -13.40183,-10.10431 -3.93282,-1.66389 l 2.11767,0.96808 z m 27.65072,15.97328 c 15.09596,0.15126 -13.64385,-2.05716 0,0 z M 176.89142,330.6134 c -0.57479,-2.81347 -3.72104,0.24202 0,0 z m 90.57578,55.78548 c 0.42353,-5.0824 -4.90089,3.78156 0,0 z m -64.8007,-39.99371 c -0.90758,-2.66221 -4.71938,-0.12101 0,0 z m -24.32296,-17.54641 c 8.6522,-0.51429 -11.8892,-3.8118 0,0 z m -28.86082,-18.6355 c -1.08908,-4.17483 -9.43875,-7.47235 0,0 z m 75.72184,48.04086 c -1.57313,-1.81514 -0.75632,0.39328 0,0 z m 47.13328,28.92133 c -0.15126,-2.75297 -2.57145,1.05883 0,0 z m -51.30812,-33.21717 c 0.84707,-3.56979 -7.38159,-1.08909 0,0 z M 185.9369,331.70249 c 6.44377,-0.69581 -10.34633,-4.35635 0,0 z m 59.38552,36.90796 c 10.04381,-3.99332 -9.80179,-1.93615 0,0 z m -30.88773,-20.96493 c 11.58668,1.48237 -13.79511,-7.89588 -2.5412,-0.84707 z m 40.26598,24.77674 c 10.83037,-6.47402 7.26059,15.15647 18.36323,1.81515 10.95138,-7.98665 -9.46901,9.89254 4.02357,1.42186 9.77154,-6.53452 24.17169,3.08575 33.27768,6.232 6.53452,-0.33278 12.91778,5.65721 19.63382,2.02691 12.91779,-3.47903 -25.29103,-5.17316 -15.27747,-11.34466 -11.8287,3.44878 -20.57166,-4.11433 -26.38012,-11.67744 -13.28082,-3.05549 -28.6188,-9.83203 -35.24408,-21.60023 -2.69247,-4.41686 3.90256,0.6353 -2.32944,-6.59503 -7.98664,-7.10932 -11.97996,-15.18672 -17.33464,-23.83891 -6.41352,-3.41853 -7.16983,-13.49259 -7.80513,-0.33278 0.0605,-8.28917 -7.74462,-13.88587 -9.65053,-11.55643 -0.0303,-7.98664 8.34968,-3.99332 2.4807,-9.89254 -1.2706,-8.28917 -5.41518,-16.91111 -6.65553,-26.25911 -1.93616,-4.50762 -0.27227,-14.15814 -6.62528,-3.96307 -2.29919,10.80012 -0.75631,-13.25057 2.84373,-5.32443 4.71937,-8.0774 -1.69414,-7.13957 -1.96641,-6.02023 3.08575,-6.83705 1.93615,-16.51783 -0.81682,-12.82703 1.63363,-7.23033 2.60171,-26.62214 -2.45045,-23.17337 3.0555,-7.5631 5.80847,-34.60878 -7.47235,-24.2927 -5.38493,0.0908 -14.67242,1.93616 -19.08928,4.14459 13.79511,7.59336 -1.39161,2.75297 -7.01856,1.54287 -0.72606,7.04882 -6.29251,3.99332 -13.25057,4.05383 11.10265,1.36136 -5.41518,11.34466 -11.76819,7.47235 -8.28917,3.96306 7.13957,13.82536 0.15126,16.88085 0.84707,4.59837 -12.67577,-1.66388 -11.61693,8.95472 -8.0169,-3.38827 -1.08909,12.58501 2.90423,7.20008 13.64385,3.6908 9.62027,12.13122 9.95305,20.11787 -2.23868,4.65887 -10.98163,-10.95138 -1.93616,-10.22533 -7.13957,-11.58668 -7.89588,-4.17483 -13.7951,1.17985 -1.36136,0.39328 15.09596,7.65386 4.74963,11.2539 9.10598,1.42187 9.37825,9.37826 11.22365,14.40016 5.47569,5.68746 4.35635,-6.29251 10.89087,0.54454 -4.14458,-6.11099 -21.93301,-17.18338 -7.62361,-13.64384 -0.0908,-6.14125 -2.60171,-11.10264 1.81515,-10.98163 4.35635,-7.86564 -4.56812,19.42206 5.23367,9.4085 2.72272,-1.17984 3.38827,-7.86563 8.25891,0.6353 7.07907,6.95806 2.57146,12.01022 -7.4421,5.62695 1.7849,6.08074 13.37158,8.22867 11.1934,17.72793 2.29919,8.34967 5.5362,5.26392 8.34967,4.77988 2.20843,8.10765 3.44878,2.14792 3.56979,-1.72439 10.10431,2.17818 7.74462,8.13791 10.89087,12.31274 6.95806,3.14626 -9.95304,-21.29771 1.99667,-7.35134 12.58501,11.34466 4.71937,16.0943 -6.56478,14.27915 7.13957,-0.5748 9.43876,9.65052 18.36322,9.2875 8.13791,3.87231 13.6741,18.7565 -0.36303,12.55475 -4.87064,-4.3866 -22.11452,-9.80178 -8.01689,-1.45211 13.00854,6.02023 23.32462,9.62027 35.87938,17.18338 8.95472,6.41351 12.85728,13.7346 16.24556,15.18672 -7.53286,3.60004 -22.71958,-2.87398 -11.43542,-4.87064 -7.04882,-1.27061 -14.9447,-4.84039 -8.19841,3.93281 5.71771,4.77989 20.29938,4.29585 22.93134,4.81014 -2.20843,4.87064 -6.02023,5.26392 0.0908,5.62695 -6.8068,3.6908 2.17817,4.26559 2.81347,6.35301 z M 240.78456,333.0941 c -4.14459,-4.3261 -5.20342,-12.43375 -0.72606,-5.38493 2.26893,0.90757 7.35134,13.25056 0.72606,5.38493 z m 45.34839,28.80031 c 2.57146,-0.18151 0.0605,1.96641 0,0 z M 234.25003,322.4755 c -0.18151,-6.56478 1.48237,5.05215 0,0 z m -4.50761,-6.08074 c -5.23367,-10.04381 6.56478,2.87398 0,0 z m -54.63589,-37.69453 c 3.0555,-0.81681 1.51262,5.23367 0,0 z m 43.47274,23.56665 c 1.87565,-7.04882 2.20843,5.92947 0,0 z m -30.70621,-21.35822 c -2.14793,-3.90256 4.53786,3.66054 0,0 z m 26.34986,8.44043 c -4.93114,-11.04214 3.50929,-6.05049 1.08909,1.81514 z m -45.43915,-30.28268 c -2.20842,-3.6303 -5.83872,-14.27915 -4.68912,-17.51616 1.05883,5.29417 11.2539,22.78008 4.99165,7.23033 -6.89756,-13.00855 8.25891,4.23534 9.83204,7.47235 0.72606,3.23701 -4.2656,-0.87732 -0.87732,6.68579 -6.1715,-8.62195 -3.63029,4.77988 -9.25725,-3.87231 z m -14.03712,-9.68078 c 0.57479,-8.44043 3.20675,5.77821 0,0 z m 6.2925,2.17817 c 3.02524,-6.38326 5.11266,8.86396 0,0 z m -15.18672,-11.76819 c -5.23367,-5.20342 -9.01522,-9.9833 0.24202,-3.23701 3.56979,0.15126 -7.92614,-10.89088 0.84707,-3.50928 9.25724,1.69413 4.56812,15.15646 -1.08909,6.74629 z m 7.98664,-0.21177 c 3.02525,-2.99499 1.60338,2.96474 0,0 z m 4.9009,1.57313 c -4.59837,-8.62195 5.5967,3.63029 0,0 z m -9.74129,-9.31775 c -15.18672,-13.52284 19.08929,7.07907 2.4807,2.51095 z m 43.53325,25.29103 c -6.59503,-3.93282 -1.75464,-27.77173 0.48404,-11.46567 6.38326,-2.05717 -0.36303,8.41017 4.41685,8.31942 -0.72605,6.59503 -2.87398,8.98497 -4.90089,3.14625 z m 16.12455,9.52952 c 0.6353,-7.20008 1.36136,4.90089 0,0 z m -2.81348,-2.78323 c 0.72606,-3.05549 0.0908,3.63029 0,0 z m -53.87958,-36.48443 c -9.77153,-13.46233 28.37678,13.64385 6.26226,3.41853 -2.32944,-0.63531 -5.11267,-0.84707 -6.26226,-3.41853 z m 31.039,16.42707 c -0.93783,-11.34466 2.05716,1.87565 0,0 z m 23.53639,15.12622 c 1.81514,-6.47402 0.15126,4.26559 0,0 z m -53.06277,-36.6962 c 5.80847,-1.24035 24.05069,10.19507 7.29084,3.26726 -1.87565,-2.08742 -5.83872,-1.14959 -7.29084,-3.26726 z m 49.82576,24.83724 c 0.60504,-11.61693 3.47903,-6.9278 0.0303,1.66389 z m -45.52991,-28.89107 c 2.35969,-3.47903 -6.29251,-15.67076 1.24035,-4.3866 3.26726,2.57146 9.4085,4.3261 3.96307,5.41518 8.59169,7.56311 -2.05717,2.05717 -5.20342,-1.02858 z m 43.07946,25.26078 c 1.63363,-13.22031 1.42186,7.74462 0,0 z m -48.01061,-37.45251 c 1.81515,-0.78656 0.96808,2.38994 0,0 z m 11.22365,6.68579 c 2.90424,-6.08074 5.35468,6.74629 0,0 z m 31.6743,17.60691 c 0,-2.32943 0.60505,3.38828 0,0 z m -1.81515,-4.05382 c -4.3866,-10.86062 4.08408,5.74796 0,0 z m -2.69246,-7.10932 c -0.75631,-4.47736 2.51095,5.62695 0,0 z m 4.3866,-7.13958 c -3.02524,-5.32442 3.81181,-23.44563 4.56812,-12.19173 -3.17651,8.74296 -0.90758,13.64385 1.30085,1.90591 4.11433,-9.25725 -0.87732,18.21196 -5.86897,10.28582 z m 4.50761,-26.95491 c 1.33111,-1.60338 0.30253,1.96641 0,0 z m -7.53285,148.59994 c -1.7849,-1.57313 0.21176,0.99833 0,0 z m 15.51949,7.86563 c 8.6522,2.23868 8.59169,-1.33111 0.78657,-2.38994 -4.20509,-3.90257 -17.45566,-8.04715 -5.5967,-0.48404 0.81681,1.9664 3.29751,1.9059 4.81013,2.87398 z m -30.67596,-20.39014 c 4.74963,3.56979 17.93969,10.04381 6.77654,1.36136 3.7513,-4.35635 -7.20008,-6.68579 -3.56978,-9.62027 -9.25725,-5.65721 -7.29084,-5.14292 -0.81682,-4.9614 -11.10264,-4.9614 1.60338,-4.59837 0.99833,-7.13958 -4.29584,-0.84706 -21.26746,-7.5631 -11.28416,0.54455 -10.16481,-5.17317 -2.42019,1.93615 -5.50594,1.17984 -10.40683,-2.84373 9.25725,7.92614 -1.63363,5.23367 5.95973,4.71938 16.03379,12.10097 2.51095,4.99165 -1.72439,2.57146 9.71103,6.47402 12.52451,8.41018 z m 16.24555,9.348 c 19.75484,6.35301 -9.68077,-7.80513 0,0 z m 83.19419,50.3703 c 0.24202,-3.93282 -2.72272,3.35802 0,0 z m 8.53118,3.60004 c 4.56812,-4.41686 0.18152,7.04881 7.56311,-1.08909 0.0908,-5.80847 -0.21177,-9.25725 -8.47068,-2.17818 -2.26893,1.2706 -3.29752,6.62529 0.90757,3.26727 z m -135.68215,-85.2211 c -1.42186,-5.50594 -9.83204,-5.47569 0,0 z m 9.10598,5.98998 c -3.38827,-5.62695 -12.10097,-5.08241 0,0 z m 51.94343,31.31127 c 5.0824,4.50761 23.29437,3.29751 6.14124,0.54454 -2.51095,-3.7513 -16.09429,-2.84373 -6.14124,-0.54454 z m 71.39573,44.07779 c 7.77488,-6.53453 -7.56311,2.93448 0,0 z m 16.2153,11.16314 c 0.0605,-2.08741 -3.35802,0.90758 0,0 z m 0.0303,-2.93448 c 8.65219,-9.16649 -8.37993,0.54454 0,0 z M 127.24719,280.42462 c -7.35134,-10.49759 -4.56812,-15.21697 -11.67744,-23.80866 -1.36136,-6.56478 -12.19173,-21.44897 -5.5967,-5.68746 6.02023,9.22699 7.80513,23.50614 17.27414,29.49612 z m 168.44553,105.49022 c 15.91278,-10.28582 -6.50427,-4.47736 0,0 z m 12.13122,4.74964 c 7.98664,-6.83705 -5.0219,-1.42187 0,0 z M 147.00202,287.59445 c 2.29919,-3.38828 -5.86897,-0.42354 0,0 z m 158.31097,99.80276 c 7.71437,-4.9614 -1.78489,-4.20508 -1.39161,0.45379 z m -104.6129,-65.92004 c -0.27227,-3.35802 -4.08408,0.27227 0,0 z m 6.47402,3.72105 c -2.08742,-4.17484 -3.17651,0.6353 0,0 z m 110.51212,65.55701 c 9.89255,-7.13957 -5.98998,-1.36136 -2.05716,1.36136 z m -3.8118,-1.81514 c 8.0774,-6.74629 -8.47068,2.99499 0,0 z m 19.3313,12.85728 c 5.41519,-3.60004 -6.56478,-1.14959 0,0 z M 151.96342,285.144 c 7.23033,1.63363 28.92133,17.81868 16.12455,1.11934 -6.56478,-1.93616 -2.63196,-17.96994 -9.31775,-15.12622 4.47736,7.50261 3.6908,10.67911 -5.74796,5.95973 -11.8287,-5.77821 -6.65554,2.84373 -4.3261,5.23367 -3.14625,0.75631 4.20509,2.75298 3.26726,2.81348 z m -32.97515,-26.04734 c 1.30086,-5.35468 -11.94971,-29.49612 -6.26225,-12.10097 2.05717,3.66054 1.8454,10.55809 6.26225,12.10097 z m 60.53512,37.3315 c -3.72105,-3.116 -0.18152,-0.45379 0,0 z m 9.16648,2.14792 c 0,-5.68746 -10.13456,-2.32944 0,0 z m 79.56389,50.12828 c -1.51262,-3.87232 -5.98998,-0.0605 0,0 z m 3.81181,2.81347 c -0.54454,-2.17817 -2.17818,0.42354 0,0 z m 31.55328,19.8456 c 3.02525,-2.23868 -3.78155,-0.27228 0,0 z M 135.4456,263.30175 c 8.68244,-3.35802 -9.2875,-2.38995 0,0 z m 125.81985,79.26136 c -0.12101,-5.62695 -5.53619,1.39161 0,0 z M 132.02707,255.3151 c 5.56645,-1.87565 -5.17316,-1.24035 0,0 z m 16.1548,7.83538 c -0.0908,-1.84539 -1.69414,0.69581 0,0 z m 197.30635,120.97947 c 7.16982,-1.45212 23.50614,3.66055 26.1381,-1.9059 -8.7127,-0.21177 -30.10117,-6.14125 -31.0995,1.39161 l 1.9059,0.30252 z M 153.32478,264.45134 c 0.15126,-5.68746 -4.41685,-0.21177 0,0 z m -42.50466,-29.49612 c -1.93616,-10.83037 -7.35134,-1.63363 0,0 z m 10.13456,2.5412 c 0.12101,-3.47903 -9.28749,-3.116 0,0 z m 5.77822,2.84373 c -1.66389,-1.33111 -1.30086,1.72439 0,0 z m 36.48443,23.38513 c 1.72438,-1.57313 -4.08408,-1.14959 0,0 z m -40.32649,-29.79864 c -0.99833,-8.19841 -11.73795,-1.2101 0,0 z m -20.78342,-13.49259 c -0.30253,-3.78155 -2.02692,1.42187 0,0 z m 3.08575,-2.32944 c -0.5143,-4.47735 -2.66222,0.5748 0,0 z m 17.09262,10.19507 c 7.23033,-2.84372 -13.15981,-5.86897 -1.48237,-0.54454 z m 228.67812,141.2486 c 4.62862,-4.23534 -5.86897,-1.30085 0,0 z m 27.62047,14.33965 c 1.84539,-5.47569 -4.65888,0.69581 0,0 z M 124.01018,219.34496 c 0.78656,-5.29417 -5.71771,1.05884 0,0 z m -24.292695,-16.2758 c -1.30086,-7.47235 -1.11934,-20.63216 11.374905,-16.18505 -16.669085,3.32776 11.55643,20.72291 7.98664,6.98831 7.01856,0.33278 13.70435,-4.14458 10.04381,2.66221 13.82536,-1.51262 23.38513,-13.49258 36.72645,-11.8287 10.40683,-1.39161 21.7515,-2.42019 32.94489,-6.59503 9.19674,-0.66555 18.0607,-10.58835 13.0388,-16.45732 -12.55476,-1.05883 -25.71456,0.51429 -39.57018,3.26726 -15.36823,3.20676 -29.34485,9.25725 -44.86435,11.88921 -15.12622,2.02691 3.02524,5.5967 -1.30086,6.38326 -7.89588,2.72272 9.40851,4.59837 -1.02858,7.47235 -6.44377,-1.24035 -13.1598,-3.44878 -10.40683,-10.22532 -14.49092,1.87565 -27.227185,7.89588 -15.761515,22.62882 z m 34.911295,-17.78843 c 3.38827,-12.52451 18.18171,10.28582 5.56645,1.66388 -1.51262,-1.14959 -3.99332,-2.05716 -5.56645,-1.66388 z m 0.66555,-6.08074 c 4.9009,-3.63029 2.60171,2.05717 0,0 z m 6.232,0.12101 c 0.45379,-5.74796 14.2489,3.0555 2.26894,2.05716 z m 8.50094,-3.44878 c 3.116,-3.63029 0.90757,3.23701 0,0 z m 2.17817,-1.45211 c 5.17317,-6.232 29.31461,-3.96307 11.64719,-0.60505 -4.71938,-3.56979 -8.34967,2.11767 -11.64719,0.60505 z m 31.52303,-4.84039 c -0.78656,-17.00187 15.67076,6.02023 0,0 z m 8.95472,-0.0605 c 3.26727,-8.56144 12.70602,-3.44877 1.51262,-1.72439 0.24202,0.90758 -0.33277,4.41686 -1.51262,1.72439 z m -72.18229,45.43915 c 9.77153,-5.98998 -10.37659,-5.20342 0,0 z m 7.23033,1.99666 c 3.41852,-3.63029 -7.4421,-1.48237 0,0 z m -21.29771,-15.09597 c 5.59669,-4.29585 -6.595025,-1.63363 0,0 z m 288.45692,180.45575 c 0.15126,-4.99166 -4.2656,2.23868 0,0 z m -29.31461,-19.99686 c 0.84707,-5.74796 -3.7513,0.48404 0,0 z m 37.392,21.93301 c 7.80513,0.0303 23.6574,-2.42019 6.65554,-2.42019 -2.66221,0.39328 -15.5195,0.33277 -6.65554,2.42019 z M 134.08424,213.44574 c 6.32275,-0.42353 9.89254,-6.95806 -1.24035,-6.59503 -17.21364,-1.78489 15.18672,5.89922 -2.20843,3.6908 -2.32944,1.54287 3.29751,3.32776 3.44878,2.90423 z m 5.56644,2.81348 c -0.66555,-4.05383 -1.9664,2.14792 0,0 z m 6.59503,-17.60692 c 2.72272,-3.38827 -3.8118,-0.90757 0,0 z m -21.02544,-35.09282 c 11.28416,-3.84206 26.68265,-8.1379 32.00708,1.87565 -5.41519,-6.50427 -2.17818,-12.94804 2.93448,-3.38827 7.23033,9.65053 10.86062,-4.3866 6.14124,-7.62361 5.35468,6.65553 11.46568,9.80179 3.60004,0.42353 8.56144,-10.28582 -17.12287,1.36136 -22.96159,1.24035 -2.78322,1.24035 -28.98183,6.65554 -21.72125,7.47235 z m 6.62529,-12.64551 c 6.44376,-4.84039 22.23553,2.90423 12.10097,-4.81014 -0.99833,-0.90757 -22.23554,5.83872 -12.10097,4.81014 z m 23.44563,0.96808 c 7.53285,0.18151 -3.23701,-10.10432 5.71771,-5.44544 -1.48237,-4.81014 -10.43709,-5.71771 -14.82369,-7.62361 -2.4807,4.3866 5.0219,13.12955 9.10598,13.06905 z m -19.3313,-21.29772 c 2.60171,-3.50928 -4.56812,1.81515 0,0 z m 9.55976,2.29919 c 12.13123,-1.60338 -3.08574,-5.20342 -2.45044,-0.12101 z M 127.64047,118.9069 c -8.53119,-11.16315 16.06404,1.87565 7.38159,-9.80179 -7.29083,-5.80847 -14.3094,6.53452 -7.38159,9.80179 z m 109.54405,58.99224 c 3.90256,-6.92781 -16.1548,-9.34801 -2.63196,-2.45045 1.2706,0.42353 0.96807,2.93448 2.63196,2.45045 z"
       id="path1-8"
       style="stroke-width:3.02524" /></g></svg>
