<?xml version="1.0" encoding="UTF-8" standalone="no"?>
<!-- Created with Inkscape (http://www.inkscape.org/) -->

<svg
   width="512"
   height="512"
   viewBox="0 0 512 512"
   version="1.1"
   id="svg1"
   xml:space="preserve"
   xmlns="http://www.w3.org/2000/svg"
   xmlns:svg="http://www.w3.org/2000/svg"><defs
     id="defs1" /><g
     id="layer1"><circle
       style="fill:#f2f2f2;fill-opacity:1;stroke:#afafaf;stroke-width:8;stroke-dasharray:none;stroke-opacity:1"
       id="path1"
       cx="256.00003"
       cy="256.00006"
       r="241.31339" /><path
       d="m 121.12227,395.59038 c -7.03749,-1.68504 -17.2468,-10.53972 -28.546442,-24.7799 -22.9627,-28.87684 -35.41873,-61.28894 -39.08615,-101.66365 -0.69384,-7.76437 -0.69384,-27.42309 0,-34.59274 3.37006,-33.89889 15.23137,-63.07309 37.00464,-91.02481 6.67405,-8.55733 17.709372,-19.75784 22.995752,-23.32615 7.50004,-5.0551 12.1917,-5.45157 16.71817,-1.45375 1.85023,1.65199 2.27975,2.41191 2.51103,4.49342 0.42951,3.96478 -1.58592,7.03749 -11.00228,16.78425 -13.14986,13.57938 -19.2292,21.17855 -25.969332,32.34602 -15.26442,25.40766 -21.80631,52.13691 -20.88119,85.37501 0.4956,17.70936 2.37887,30.72707 6.57493,45.23157 3.76654,13.05074 8.25997,23.59046 15.03314,35.08833 6.773172,11.53091 12.489062,18.83272 23.887822,30.56187 10.01107,10.30844 12.48906,13.87674 12.48906,17.97368 0,4.09695 -2.87446,7.76437 -6.93837,8.88773 -2.24671,0.66079 -2.41191,0.66079 -4.79078,0.0991 z m 264.12065,0.1652 c -2.11455,-0.46256 -5.94717,-4.5595 -6.37669,-6.83925 -0.69384,-3.70047 1.51983,-7.00446 11.79523,-17.64329 5.0551,-5.2203 11.29963,-12.12563 13.8437,-15.29746 18.63449,-23.26006 29.009,-49.13027 31.78435,-79.3287 0.85904,-9.31724 0.42952,-33.30418 -0.75992,-42.32407 -2.47799,-18.86576 -7.07053,-34.26233 -15.03313,-50.4849 -7.59917,-15.52874 -15.4957,-26.53101 -28.77772,-40.24255 -8.92077,-9.21813 -11.56395,-12.55515 -12.45603,-15.92522 -0.89208,-3.27094 -0.23128,-5.71589 2.21367,-8.49124 3.37007,-3.83263 7.23573,-4.16302 13.24898,-1.18944 7.30181,3.63439 16.75121,13.08379 27.72045,27.78653 22.07063,29.53763 33.46938,62.01582 36.21169,103.2826 2.31279,35.0553 -6.17846,70.54011 -23.9539,99.94558 -12.25779,20.28648 -30.99139,41.06855 -40.93639,45.49589 -2.70927,1.12336 -6.44277,1.68503 -8.52429,1.25552 z M 164.80097,374.37879 c -5.98021,-1.8172 -9.41636,-7.76437 -7.99565,-13.77763 0.89208,-3.70046 4.62558,-7.53308 8.22693,-8.42516 3.63438,-0.92512 192.39111,-0.92512 196.0255,0 3.7335,0.95816 7.40093,4.75774 8.22692,8.55732 1.05728,4.98902 -1.15639,10.07716 -5.51766,12.58819 l -2.31279,1.3216 -97.59975,0.0991 c -53.65673,0.033 -98.2275,-0.13215 -99.0535,-0.36343 z m 74.33969,-45.89237 c -18.13889,-6.60797 -33.20506,-19.42744 -40.93639,-34.85705 -4.29518,-8.59037 -6.77317,-18.96489 -6.77317,-28.28213 0,-12.58818 4.92294,-24.58165 19.92303,-48.53555 11.16748,-17.84153 13.08379,-21.11247 16.35474,-27.95172 4.36126,-9.11901 5.81501,-14.53754 5.91413,-22.20279 0.0991,-7.30181 -1.02423,-11.66307 -4.36126,-17.31289 -2.41191,-4.03086 -7.79741,-10.07716 -9.97804,-11.23355 -3.5683,-1.85023 -4.29518,-4.32822 -1.78415,-6.01326 3.99782,-2.61015 14.93402,-0.95815 24.97813,3.79959 11.36572,5.3855 19.7248,13.11682 25.17638,23.22702 4.19606,7.79741 5.88109,13.81066 8.75556,30.89227 3.17183,18.96488 6.31062,25.01118 12.62123,24.2843 3.37006,-0.39648 5.45158,-1.65199 6.87229,-4.16302 2.24671,-3.99783 1.28855,-9.48244 -3.27095,-18.56841 -3.7335,-7.43396 -3.50222,-9.64764 0.85904,-8.49124 2.24671,0.59472 9.6146,6.60797 14.6697,11.99347 12.72034,13.5133 19.03096,25.77109 22.07063,42.8527 1.58591,8.9538 1.71807,23.7887 0.26431,31.52003 -1.81719,9.7798 -5.51765,18.99792 -10.77099,26.89444 -5.84806,8.78861 -18.0728,19.95608 -26.99357,24.58166 -3.99782,2.08151 -5.41853,2.21367 -7.36789,0.6608 -2.44495,-1.91631 -1.91631,-3.27095 3.46919,-9.01988 8.12781,-8.62341 12.29083,-14.76882 14.70274,-21.70719 3.70046,-10.73796 1.85023,-25.67198 -4.36126,-35.18746 -2.57711,-3.93174 -6.34366,-7.43396 -8.06173,-7.43396 -0.92512,0 -0.79296,1.22247 0.95816,7.56612 0.59471,2.21367 1.09031,4.92294 1.09031,6.0463 0,5.81501 -8.19388,10.01108 -15.39657,7.89653 -5.8811,-1.71808 -8.45821,-7.03749 -7.66525,-15.79306 0.23128,-2.70927 0.46256,-7.63221 0.46256,-10.93619 0.033,-5.81502 0,-6.11238 -1.85024,-9.7798 -3.60134,-7.10357 -11.92739,-14.40538 -16.38777,-14.40538 -1.91631,0 -2.08151,0.13216 -2.08151,1.55287 0,0.95816 0.52864,2.04847 1.42072,2.84143 4.62558,4.32822 5.51765,13.21595 2.08151,21.04639 -2.11455,4.85686 -4.52646,7.59917 -12.72035,14.53754 -10.77099,9.15204 -14.24018,13.5133 -16.42081,20.58384 -0.9912,3.27094 -1.09032,4.59254 -0.826,10.60579 0.46256,10.07716 2.51103,16.75121 7.30181,23.82174 3.66743,5.41854 7.99565,8.85468 13.8437,11.03531 2.80839,1.05728 3.13879,1.3216 3.13879,2.74231 0,1.652 -1.25551,2.70927 -3.10575,2.67623 -0.46255,0 -3.10574,-0.79296 -5.81501,-1.78415 z"
       id="path1-4"
       style="stroke-width:3.30399;fill:#1a1a1a" /></g></svg>
