<?xml version="1.0" encoding="UTF-8" standalone="no"?>
<!-- Created with Inkscape (http://www.inkscape.org/) -->

<svg
   width="512"
   height="512"
   viewBox="0 0 512 512"
   version="1.1"
   id="svg1"
   xml:space="preserve"
   inkscape:version="1.4.2 (f4327f4, 2025-05-13)"
   sodipodi:docname="git.svg"
   xmlns:inkscape="http://www.inkscape.org/namespaces/inkscape"
   xmlns:sodipodi="http://sodipodi.sourceforge.net/DTD/sodipodi-0.dtd"
   xmlns:xlink="http://www.w3.org/1999/xlink"
   xmlns="http://www.w3.org/2000/svg"
   xmlns:svg="http://www.w3.org/2000/svg"><sodipodi:namedview
     id="namedview1"
     pagecolor="#ffffff"
     bordercolor="#999999"
     borderopacity="1"
     inkscape:showpageshadow="2"
     inkscape:pageopacity="0"
     inkscape:pagecheckerboard="0"
     inkscape:deskcolor="#d1d1d1"
     inkscape:document-units="px"
     showgrid="false"
     inkscape:zoom="1"
     inkscape:cx="161"
     inkscape:cy="323.5"
     inkscape:window-width="1920"
     inkscape:window-height="1001"
     inkscape:window-x="-9"
     inkscape:window-y="-9"
     inkscape:window-maximized="1"
     inkscape:current-layer="layer1"><inkscape:grid
       id="grid1"
       units="mm"
       originx="0"
       originy="0"
       spacingx="1"
       spacingy="1"
       empcolor="#0099e5"
       empopacity="0.30196078"
       color="#0099e5"
       opacity="0.14901961"
       empspacing="5"
       enabled="true"
       visible="false" /></sodipodi:namedview><defs
     id="defs1"><linearGradient
       id="linearGradient1"
       inkscape:collect="always"><stop
         style="stop-color:#dd4b35;stop-opacity:1;"
         offset="0"
         id="stop1" /><stop
         style="stop-color:#f24e28;stop-opacity:1;"
         offset="1"
         id="stop2" /></linearGradient><inkscape:path-effect
       effect="fillet_chamfer"
       id="path-effect1"
       is_visible="true"
       lpeversion="1"
       nodesatellites_param="F,0,0,1,0,2.2572315,0,1 @ F,0,0,1,0,2.608162,0,1 @ F,0,0,1,0,2.5997618,0,1 @ F,0,0,1,0,3.0078049,0,1 @ F,0,0,1,0,2.2522004,0,1 @ F,0,0,1,0,2.8010871,0,1"
       radius="0"
       unit="px"
       method="auto"
       mode="F"
       chamfer_steps="1"
       flexible="false"
       use_knot_distance="true"
       apply_no_radius="true"
       apply_with_radius="true"
       only_selected="false"
       hide_knots="false" /><linearGradient
       inkscape:collect="always"
       xlink:href="#linearGradient1"
       id="linearGradient2"
       x1="10.686646"
       y1="256.00006"
       x2="501.31342"
       y2="256.00006"
       gradientUnits="userSpaceOnUse" /></defs><g
     inkscape:label="Layer 1"
     inkscape:groupmode="layer"
     id="layer1"><circle
       style="fill:url(#linearGradient2);fill-opacity:1;stroke:#858585;stroke-width:8;stroke-dasharray:none;stroke-opacity:1"
       id="path1"
       inkscape:label="background"
       cx="256.00003"
       cy="256.00006"
       r="241.31339" /><path
       d="M 415.18343,234.7432 277.2568,96.81657 C 271.40762,90.93886 263.7038,88 256,88 c -7.7038,0 -15.4076,2.93886 -21.2568,8.81657 l -27.27716,27.27718 33.75408,33.75408 c 11.21331,-6.59103 25.82201,-5.1644 35.4375,4.45107 9.61547,9.61549 11.01357,24.22419 4.42254,35.40897 l 33.18343,33.18343 c 11.21332,-6.59103 25.82202,-5.16439 35.43751,4.45108 11.41304,11.41304 11.41304,29.90217 0,41.31522 -11.41304,11.41304 -29.90217,11.41304 -41.31522,0 -9.61549,-9.61547 -11.04213,-24.22417 -4.4511,-35.43749 l -33.18343,-33.18343 c -2.36819,1.3981 -4.85052,2.42526 -7.447,3.08154 v 89.73503 c 12.58288,3.25272 21.91304,14.58018 21.91304,28.19023 0,16.14945 -13.06794,29.21739 -29.21739,29.21739 -16.14945,0 -29.21739,-13.06794 -29.21739,-29.21739 0,-13.61005 9.33016,-24.93751 21.91304,-28.19023 v -89.73503 c -4.87908,-1.25545 -9.52988,-3.68071 -13.35325,-7.5041 -9.61549,-9.61547 -11.01359,-24.22417 -4.42256,-35.40895 L 197.13723,134.42256 96.816578,234.7432 c -11.755439,11.72691 -11.755439,30.78669 0,42.5136 L 234.7432,415.18343 C 240.5924,421.06114 248.2962,424 256,424 c 7.7038,0 15.40762,-2.93886 21.2568,-8.81657 L 415.18343,277.2568 c 11.75543,-11.72691 11.75543,-30.78669 0,-42.5136 z"
       id="path1-8"
       style="stroke-width:7.30435;fill:#ffffff" /></g></svg>
