<?xml version="1.0" encoding="UTF-8" standalone="no"?>
<!-- Created with Inkscape (http://www.inkscape.org/) -->

<svg
   width="512"
   height="512"
   viewBox="0 0 512 512"
   version="1.1"
   id="svg1"
   xml:space="preserve"
   xmlns="http://www.w3.org/2000/svg"
   xmlns:svg="http://www.w3.org/2000/svg"><defs
     id="defs1" /><g
     id="layer1"><circle
       style="fill:#f2f2f2;fill-opacity:1;stroke:#afafaf;stroke-width:8;stroke-dasharray:none;stroke-opacity:1"
       id="path1"
       cx="256.00003"
       cy="256.00006"
       r="241.31339" /><g
       id="g1"
       transform="matrix(3.8181818,0,0,3.8181818,-110.54545,-30.331141)"><path
         fill="#4285f4"
         d="M 58,108 H 72 V 74 L 52,59 v 43 c 0,3.32 2.69,6 6,6"
         id="path1-0" /><path
         fill="#34a853"
         d="m 120,108 h 14 c 3.32,0 6,-2.69 6,-6 V 59 l -20,15"
         id="path2" /><path
         fill="#fbbc04"
         d="m 120,48 v 26 l 20,-15 v -8 c 0,-7.42 -8.47,-11.65 -14.4,-7.2"
         id="path3" /><path
         fill="#ea4335"
         d="M 72,74 V 48 L 96,66 120,48 V 74 L 96,92"
         id="path4" /><path
         fill="#c5221f"
         d="m 52,51 v 8 L 72,74 V 48 L 66.4,43.8 C 60.46,39.35 52,43.58 52,51"
         id="path5" /></g></g></svg>
