<?xml version="1.0" encoding="UTF-8" standalone="no"?>
<!-- Created with Inkscape (http://www.inkscape.org/) -->

<svg
   width="512"
   height="512"
   viewBox="0 0 512 512"
   version="1.1"
   id="svg1"
   xml:space="preserve"
   xmlns="http://www.w3.org/2000/svg"
   xmlns:svg="http://www.w3.org/2000/svg"><defs
     id="defs1"><linearGradient
       id="a"
       x1="99.03"
       x2="61.54"
       y1="59.18"
       y2="90.91"
       gradientTransform="matrix(1.219048,0.00221275,-0.00221275,1.219048,0,0)"
       gradientUnits="userSpaceOnUse"><stop
         offset="0"
         stop-color="#087cfa"
         id="stop1" /><stop
         offset=".02"
         stop-color="#0d7bfa"
         id="stop2" /><stop
         offset=".37"
         stop-color="#5566f9"
         id="stop3" /><stop
         offset=".66"
         stop-color="#8a57f8"
         id="stop4" /><stop
         offset=".88"
         stop-color="#ab4ef7"
         id="stop5" /><stop
         offset="1"
         stop-color="#b74af7"
         id="stop6" /></linearGradient><linearGradient
       id="b"
       x1="37.54"
       x2="60.33"
       y1="34.26"
       y2="8.33"
       gradientTransform="matrix(1.219048,0.00221275,-0.00221275,1.219048,0,0)"
       gradientUnits="userSpaceOnUse"><stop
         offset="0"
         stop-color="#087cfa"
         id="stop7" /><stop
         offset=".02"
         stop-color="#0d7bfa"
         id="stop8" /><stop
         offset=".37"
         stop-color="#5566f9"
         id="stop9" /><stop
         offset=".66"
         stop-color="#8a57f8"
         id="stop10" /><stop
         offset=".88"
         stop-color="#ab4ef7"
         id="stop11" /><stop
         offset="1"
         stop-color="#b74af7"
         id="stop12" /></linearGradient><linearGradient
       id="c"
       x1="17.84"
       x2="87.09"
       y1="88.36"
       y2="43.86"
       gradientTransform="matrix(1.219048,0.00221275,-0.00221275,1.219048,0,0)"
       gradientUnits="userSpaceOnUse"><stop
         offset="0"
         stop-color="#087cfa"
         id="stop13" /><stop
         offset=".1"
         stop-color="#1598d3"
         id="stop14" /><stop
         offset=".22"
         stop-color="#23b6aa"
         id="stop15" /><stop
         offset=".35"
         stop-color="#2dcc8b"
         id="stop16" /><stop
         offset=".46"
         stop-color="#35dd74"
         id="stop17" /><stop
         offset=".57"
         stop-color="#39e767"
         id="stop18" /><stop
         offset=".67"
         stop-color="#3bea62"
         id="stop19" /></linearGradient></defs><g
     id="layer1"><circle
       style="fill:#f2f2f2;fill-opacity:1;stroke:#afafaf;stroke-width:8;stroke-dasharray:none;stroke-opacity:1"
       id="path1"
       cx="256.00003"
       cy="256.00006"
       r="241.31339" /><g
       id="g1"
       transform="matrix(2.8710342,0,0,2.8710342,72.253811,72.252376)"><path
         fill="url(#a)"
         d="m 108.57,50.75 13.946,30.926 -23.871,40.84 -14.7,-35.696 z m 0,0"
         id="path19"
         style="fill:url(#a)" /><path
         fill="#b74af7"
         d="m 83.945,86.82 14.7,35.696 L 61.66,109.8 Z m 0,0"
         id="path20" /><path
         fill="url(#b)"
         d="M 87.93,38.535 80.348,5.485 H 38.3 L 5.484,55.687 14.98,78.75 5.484,99.805 73.449,41.985 Z m 0,0"
         id="path21"
         style="fill:url(#b)" /><path
         fill="url(#c)"
         d="M 122.516,30.328 73.449,41.984 5.484,99.804 49.324,122.516 83.945,86.82 Z m 0,0"
         id="path22"
         style="fill:url(#c)" /><path
         d="m 27.43,27.43 h 73.14 v 73.14 H 27.43 Z m 0,0"
         id="path23" /><path
         fill="#ffffff"
         d="M 34.293,86.855 H 61.719 V 91.43 H 34.293 Z M 32.23,52.187 v -0.085 a 15.496,15.496 0 0 1 4.633,-11.098 15.503,15.503 0 0 1 11.18,-4.434 16.615,16.615 0 0 1 11.86,4.133 l -4.18,5.047 a 11.13,11.13 0 0 0 -7.887,-3.082 c -4.875,0 -8.668,4.266 -8.668,9.387 v 0.082 c 0,5.523 3.793,9.57 9.145,9.57 2.218,0.066 4.402,-0.57 6.238,-1.816 v -4.34 h -6.68 v -5.727 h 13.082 v 13.09 a 19.589,19.589 0 0 1 -12.887,4.793 c -9.375,0 -15.836,-6.598 -15.836,-15.52 z m 31.528,0 v -0.085 a 15.581,15.581 0 0 1 4.758,-11.16 15.604,15.604 0 0 1 11.32,-4.372 c 9.3,0 15.98,6.938 15.98,15.508 v 0.086 A 15.584,15.584 0 0 1 79.75,67.766 C 70.437,67.707 63.758,60.77 63.758,52.187 Z m 25.12,0 v -0.085 a 9.142,9.142 0 0 0 -2.57,-6.645 9.148,9.148 0 0 0 -6.558,-2.789 9.038,9.038 0 0 0 -6.516,2.746 9.022,9.022 0 0 0 -2.53,6.602 v 0.086 a 9.175,9.175 0 0 0 2.562,6.68 9.155,9.155 0 0 0 6.582,2.804 9.027,9.027 0 0 0 6.523,-2.77 9.001,9.001 0 0 0 2.508,-6.629 z m 0,0"
         id="path24" /></g></g></svg>
