<?xml version="1.0" encoding="UTF-8" standalone="no"?>
<!-- Created with Inkscape (http://www.inkscape.org/) -->

<svg
   width="512"
   height="512"
   viewBox="0 0 512 512"
   version="1.1"
   id="svg1"
   xml:space="preserve"
   xmlns="http://www.w3.org/2000/svg"
   xmlns:svg="http://www.w3.org/2000/svg"><defs
     id="defs1" /><g
     id="layer1"><circle
       style="fill:#2861fe;fill-opacity:1;stroke:#858585;stroke-width:8;stroke-dasharray:none;stroke-opacity:1"
       id="path1"
       cx="256.00003"
       cy="256.00006"
       r="241.31339" /><g
       style="fill:#ffffff"
       id="g1"
       transform="matrix(14.000026,0,0,14.000026,87.999688,87.999688)"><path
         d="m 22.351,8.019 -6.37,-6.37 a 5.63,5.63 0 0 0 -7.962,0 l -6.37,6.37 a 5.63,5.63 0 0 0 0,7.962 l 6.37,6.37 a 5.63,5.63 0 0 0 7.962,0 l 6.37,-6.37 a 5.63,5.63 0 0 0 0,-7.962 z M 12,15.953 a 3.953,3.953 0 1 1 0,-7.906 3.953,3.953 0 0 1 0,7.906 z"
         id="path1-4"
         style="fill:#ffffff" /></g></g></svg>
