<?xml version="1.0" encoding="UTF-8" standalone="no"?>
<!-- Created with Inkscape (http://www.inkscape.org/) -->

<svg
   width="512"
   height="512"
   viewBox="0 0 512 512"
   version="1.1"
   id="svg1"
   xml:space="preserve"
   inkscape:version="1.4.2 (f4327f4, 2025-05-13)"
   sodipodi:docname="hugo.svg"
   xmlns:inkscape="http://www.inkscape.org/namespaces/inkscape"
   xmlns:sodipodi="http://sodipodi.sourceforge.net/DTD/sodipodi-0.dtd"
   xmlns="http://www.w3.org/2000/svg"
   xmlns:svg="http://www.w3.org/2000/svg"><sodipodi:namedview
     id="namedview1"
     pagecolor="#ffffff"
     bordercolor="#999999"
     borderopacity="1"
     inkscape:showpageshadow="2"
     inkscape:pageopacity="0"
     inkscape:pagecheckerboard="0"
     inkscape:deskcolor="#d1d1d1"
     inkscape:document-units="px"
     showgrid="false"
     inkscape:zoom="1"
     inkscape:cx="313"
     inkscape:cy="277.5"
     inkscape:window-width="1920"
     inkscape:window-height="1001"
     inkscape:window-x="-9"
     inkscape:window-y="-9"
     inkscape:window-maximized="1"
     inkscape:current-layer="layer1"><inkscape:grid
       id="grid1"
       units="mm"
       originx="0"
       originy="0"
       spacingx="1"
       spacingy="1"
       empcolor="#0099e5"
       empopacity="0.30196078"
       color="#0099e5"
       opacity="0.14901961"
       empspacing="5"
       enabled="true"
       visible="false" /></sodipodi:namedview><defs
     id="defs1"><inkscape:path-effect
       effect="fillet_chamfer"
       id="path-effect1"
       is_visible="true"
       lpeversion="1"
       nodesatellites_param="F,0,0,1,0,2.2572315,0,1 @ F,0,0,1,0,2.608162,0,1 @ F,0,0,1,0,2.5997618,0,1 @ F,0,0,1,0,3.0078049,0,1 @ F,0,0,1,0,2.2522004,0,1 @ F,0,0,1,0,2.8010871,0,1"
       radius="0"
       unit="px"
       method="auto"
       mode="F"
       chamfer_steps="1"
       flexible="false"
       use_knot_distance="true"
       apply_no_radius="true"
       apply_with_radius="true"
       only_selected="false"
       hide_knots="false" /></defs><g
     inkscape:label="Layer 1"
     inkscape:groupmode="layer"
     id="layer1"><circle
       style="fill:#f2f2f2;fill-opacity:1;stroke:#afafaf;stroke-width:8;stroke-dasharray:none;stroke-opacity:1"
       id="path1"
       inkscape:label="background"
       cx="256.00003"
       cy="256.00006"
       r="241.31339" /><g
       id="g1"
       transform="matrix(2.7101818,0,0,2.7101818,82.548365,82.517093)"><path
         fill="#ff4088"
         d="m 71.2,8.5 36.7,21.3 c 4.3,2.5 7,7.2 7,12.2 v 43.7 c 0,5.6 -3,10.7 -7.8,13.4 l -36.4,20.5 c -4.8,2.7 -10.7,2.7 -15.5,-0.1 L 21.7,100.2 c -5.3,-3 -8.5,-8.6 -8.5,-14.7 V 44.1 c 0,-6.1 3.2,-11.8 8.4,-15 L 54.4,8.8 C 59.5,5.6 66,5.5 71.2,8.5 Z"
         id="path1-0" /><path
         fill="#c9177e"
         d="m 63,126 c -3.5,0 -6.9,-0.9 -10,-2.7 L 19.5,104 C 12.9,100.2 8.8,93.1 8.8,85.5 V 44.1 c 0,-7.7 3.9,-14.6 10.4,-18.7 L 52.1,5.1 C 58.6,1.1 66.7,1 73.3,4.8 L 110,26.1 c 5.7,3.3 9.2,9.4 9.2,15.9 v 43.7 c 0,7.1 -3.8,13.7 -10,17.2 l -36.4,20.5 c -3,1.7 -6.4,2.6 -9.8,2.6 z M 63,10.7 c -2.2,0 -4.4,0.6 -6.3,1.8 l -33,20.3 c -4,2.4 -6.3,6.7 -6.3,11.3 v 41.5 c 0,4.5 2.4,8.7 6.3,11 l 33.5,19.3 c 3.5,2 7.8,2 11.3,0.1 l 36.4,-20.5 c 3.5,-2 5.6,-5.6 5.6,-9.6 V 42.1 c 0,-3.5 -1.9,-6.7 -4.9,-8.5 L 69,12.3 c -1.8,-1.1 -3.9,-1.6 -6,-1.6 z"
         id="path2" /><path
         fill="#ffffff"
         d="M 38.6,96.9 V 30.5 h 13.9 v 24.2 h 23 V 30.5 H 89.4 V 96.9 H 75.5 v -29 h -23 v 29 z"
         id="path3" /></g></g></svg>
