<?xml version="1.0" encoding="UTF-8" standalone="no"?>
<!-- Created with Inkscape (http://www.inkscape.org/) -->

<svg
   width="512"
   height="512"
   viewBox="0 0 512 512"
   version="1.1"
   id="svg1"
   xml:space="preserve"
   xmlns="http://www.w3.org/2000/svg"
   xmlns:svg="http://www.w3.org/2000/svg"><defs
     id="defs1"><linearGradient
       x1="2.6404189"
       y1="155.46018"
       x2="114.82051"
       y2="155.46018"
       id="linearGradient-1"
       gradientTransform="scale(1.0604378,0.94300676)"
       gradientUnits="userSpaceOnUse"><stop
         stop-color="#F97A12"
         offset="26%"
         id="stop1" /><stop
         stop-color="#B07B58"
         offset="46%"
         id="stop2" /><stop
         stop-color="#577BAE"
         offset="72%"
         id="stop3" /><stop
         stop-color="#1E7CE5"
         offset="91%"
         id="stop4" /><stop
         stop-color="#087CFA"
         offset="100%"
         id="stop5" /></linearGradient><linearGradient
       x1="117.29344"
       y1="73.084456"
       x2="361.7461"
       y2="160.23349"
       id="linearGradient-2"
       gradientTransform="scale(0.80277297,1.2456822)"
       gradientUnits="userSpaceOnUse"><stop
         stop-color="#F97A12"
         offset="0%"
         id="stop6" /><stop
         stop-color="#CB7A3E"
         offset="7%"
         id="stop7" /><stop
         stop-color="#9E7B6A"
         offset="15%"
         id="stop8" /><stop
         stop-color="#757B91"
         offset="24%"
         id="stop9" /><stop
         stop-color="#537BB1"
         offset="33%"
         id="stop10" /><stop
         stop-color="#387CCC"
         offset="43%"
         id="stop11" /><stop
         stop-color="#237CE0"
         offset="54%"
         id="stop12" /><stop
         stop-color="#147CEF"
         offset="66%"
         id="stop13" /><stop
         stop-color="#0B7CF7"
         offset="79%"
         id="stop14" /><stop
         stop-color="#087CFA"
         offset="100%"
         id="stop15" /></linearGradient><linearGradient
       x1="271.27954"
       y1="133.70214"
       x2="207.21439"
       y2="-5.420357"
       id="linearGradient-3"
       gradientTransform="scale(0.85225742,1.1733544)"
       gradientUnits="userSpaceOnUse"><stop
         stop-color="#FE315D"
         offset="0%"
         id="stop16" /><stop
         stop-color="#CB417E"
         offset="8%"
         id="stop17" /><stop
         stop-color="#9E4E9B"
         offset="16%"
         id="stop18" /><stop
         stop-color="#755BB4"
         offset="25%"
         id="stop19" /><stop
         stop-color="#5365CA"
         offset="34%"
         id="stop20" /><stop
         stop-color="#386DDB"
         offset="44%"
         id="stop21" /><stop
         stop-color="#2374E9"
         offset="54%"
         id="stop22" /><stop
         stop-color="#1478F3"
         offset="66%"
         id="stop23" /><stop
         stop-color="#0B7BF8"
         offset="79%"
         id="stop24" /><stop
         stop-color="#087CFA"
         offset="100%"
         id="stop25" /></linearGradient><linearGradient
       x1="44.281572"
       y1="53.329488"
       x2="228.98353"
       y2="293.75571"
       id="linearGradient-4"
       gradientTransform="scale(0.88705072,1.1273313)"
       gradientUnits="userSpaceOnUse"><stop
         stop-color="#FE315D"
         offset="0%"
         id="stop26" /><stop
         stop-color="#F63462"
         offset="4%"
         id="stop27" /><stop
         stop-color="#DF3A71"
         offset="10%"
         id="stop28" /><stop
         stop-color="#C24383"
         offset="17%"
         id="stop29" /><stop
         stop-color="#AD4A91"
         offset="29%"
         id="stop30" /><stop
         stop-color="#755BB4"
         offset="55%"
         id="stop31" /><stop
         stop-color="#1D76ED"
         offset="92%"
         id="stop32" /><stop
         stop-color="#087CFA"
         offset="100%"
         id="stop33" /></linearGradient></defs><g
     id="layer1"><circle
       style="fill:#f2f2f2;fill-opacity:1;stroke:#afafaf;stroke-width:8;stroke-dasharray:none;stroke-opacity:1"
       id="path1"
       cx="256.00003"
       cy="256.00006"
       r="241.31339" /><g
       id="g36"
       transform="matrix(1.3125,0,0,1.3125,88,88)"><polygon
         fill="url(#linearGradient-1)"
         points="2.8,150.8 33.6,93.6 122,128 64.8,199.6 "
         id="polygon33"
         style="fill:url(#linearGradient-1)" /><polygon
         fill="url(#linearGradient-2)"
         points="142.4,44.8 176.4,4 256,68.4 251.2,216.4 152.8,256 93.6,217.6 180,128 "
         id="polygon34"
         style="fill:url(#linearGradient-2)" /><polygon
         fill="url(#linearGradient-3)"
         points="178,160.4 142.4,44.8 176.4,4 256,68.4 "
         id="polygon35"
         style="fill:url(#linearGradient-3)" /><polygon
         fill="url(#linearGradient-4)"
         points="37.2,0 117.2,9.6 196.4,100 123.2,212.4 20.8,249.6 37.2,192 58.4,120.8 0,101.2 "
         id="polygon36"
         style="fill:url(#linearGradient-4)" /><rect
         fill="#000000"
         x="48"
         y="48"
         width="160"
         height="160"
         id="rect36" /><path
         d="m 63.2,178 h 60 v 10 h -60 z M 106,80.8 v -12 H 73.2 v 12 h 9.2 v 42 h -9.2 v 12.4 H 106 v -12.4 h -9.2 v -42 z m 32,55.2 c -4.56665,0.20598 -9.11024,-0.75781 -13.2,-2.8 -3.34603,-1.84598 -6.328,-4.28576 -8.8,-7.2 l 9.2,-10.4 c 1.66127,1.82513 3.54226,3.43741 5.6,4.8 1.93613,1.13512 4.15747,1.69046 6.4,1.6 2.46613,0.18848 4.86469,-0.86089 6.4,-2.8 1.85267,-2.38606 2.71246,-5.39533 2.4,-8.4 V 68 h 14.8 v 43.2 c 0.15179,3.53793 -0.39181,7.07129 -1.6,10.4 -1.05542,3.37703 -2.98781,6.41364 -5.6,8.8 -4.53325,3.36557 -9.96124,5.31407 -15.6,5.6 z"
         fill="#ffffff"
         id="path36" /></g></g></svg>
