<?xml version="1.0" encoding="UTF-8" standalone="no"?>
<!-- Created with Inkscape (http://www.inkscape.org/) -->

<svg
   width="512"
   height="512"
   viewBox="0 0 512 512"
   version="1.1"
   id="svg1"
   xml:space="preserve"
   xmlns="http://www.w3.org/2000/svg"
   xmlns:svg="http://www.w3.org/2000/svg"><defs
     id="defs1" /><g
     id="layer1"><circle
       style="fill:#f2f2f2;fill-opacity:1;stroke:#afafaf;stroke-width:8;stroke-dasharray:none;stroke-opacity:1"
       id="path1"
       cx="256.00003"
       cy="256.00006"
       r="241.31339" /><g
       style="fill:#000000"
       id="g1"
       transform="matrix(1.2378574,0,0,1.2378574,67.227407,67.226432)"><g
         id="XMLID_7_">
	<path
   id="XMLID_8_"
   d="m 150.99,56.513 c -14.093,9.912 -30.066,21.147 -38.624,39.734 -14.865,32.426 30.418,67.798 32.353,69.288 0.45,0.347 0.988,0.519 1.525,0.519 0.57,0 1.141,-0.195 1.605,-0.583 0.899,-0.752 1.154,-2.029 0.614,-3.069 -0.164,-0.316 -16.418,-31.888 -15.814,-54.539 0.214,-7.888 11.254,-16.837 22.942,-26.312 10.705,-8.678 22.839,-18.514 29.939,-30.02 15.586,-25.327 -1.737,-50.231 -1.914,-50.479 -0.688,-0.966 -1.958,-1.317 -3.044,-0.84 -1.085,0.478 -1.686,1.652 -1.438,2.811 0.035,0.164 3.404,16.633 -5.97,33.6 -3.863,7.011 -12.348,12.98 -22.174,19.89 z"
   style="fill:#eb1f24;fill-opacity:1" />
	<path
   id="XMLID_9_"
   d="m 210.365,67.682 c 0.994,-0.749 1.286,-2.115 0.684,-3.205 -0.602,-1.09 -1.913,-1.571 -3.077,-1.129 -2.394,0.91 -58.627,22.585 -58.627,48.776 0,18.053 7.712,27.591 13.343,34.556 2.209,2.731 4.116,5.09 4.744,7.104 1.769,5.804 -2.422,16.294 -4.184,19.846 -0.508,1.022 -0.259,2.259 0.605,3.005 0.467,0.403 1.05,0.607 1.634,0.607 0.497,0 0.996,-0.148 1.427,-0.448 0.967,-0.673 23.63,-16.696 19.565,-36.001 -1.514,-7.337 -5.12,-12.699 -8.302,-17.43 -4.929,-7.329 -8.489,-12.624 -3.088,-22.403 6.33,-11.404 34.987,-33.061 35.276,-33.278 z"
   style="fill:#eb1f24;fill-opacity:1" />
	<path
   id="XMLID_10_"
   d="m 63.99,177.659 c -0.964,2.885 -0.509,5.75 1.315,8.283 6.096,8.462 27.688,13.123 60.802,13.123 0.002,0 0.003,0 0.004,0 4.487,0 9.224,-0.088 14.076,-0.262 52.943,-1.896 72.58,-18.389 73.39,-19.09 0.883,-0.764 1.119,-2.037 0.57,-3.067 -0.549,-1.029 -1.733,-1.546 -2.864,-1.235 -18.645,5.091 -53.463,6.898 -77.613,6.898 -27.023,0 -40.785,-1.946 -44.154,-3.383 1.729,-2.374 12.392,-6.613 25.605,-9.212 1.263,-0.248 2.131,-1.414 2.006,-2.695 -0.125,-1.281 -1.201,-2.258 -2.488,-2.258 -7.746,0.001 -46.589,0.623 -50.649,12.898 z"
   style="fill:#0c89c6;fill-opacity:1" />
	<path
   id="XMLID_11_"
   d="m 241.148,160.673 c -10.92,0 -21.275,5.472 -21.711,5.705 -1.01,0.541 -1.522,1.699 -1.245,2.811 0.278,1.111 1.277,1.892 2.423,1.893 0.232,0.001 23.293,0.189 25.382,13.365 1.85,11.367 -21.82,29.785 -31.097,35.923 -1.002,0.663 -1.391,1.945 -0.926,3.052 0.395,0.943 1.314,1.533 2.304,1.533 0.173,0 0.348,-0.018 0.522,-0.056 2.202,-0.47 53.855,-11.852 48.394,-41.927 -3.332,-18.431 -14.916,-22.299 -24.046,-22.299 z"
   style="fill:#0c89c6;fill-opacity:1" />
	<path
   id="XMLID_12_"
   d="m 205.725,216.69 c 0.18,-0.964 -0.221,-1.944 -1.023,-2.506 l -12.385,-8.675 c -0.604,-0.423 -1.367,-0.556 -2.076,-0.368 -0.129,0.034 -13.081,3.438 -31.885,5.526 -7.463,0.837 -15.822,1.279 -24.175,1.279 -18.799,0 -31.091,-2.209 -32.881,-3.829 -0.237,-0.455 -0.162,-0.662 -0.12,-0.777 0.325,-0.905 2.068,-1.98 3.192,-2.405 1.241,-0.459 1.91,-1.807 1.524,-3.073 -0.385,-1.266 -1.69,-2.012 -2.978,-1.702 -12.424,2.998 -18.499,7.191 -18.057,12.461 0.785,9.343 22.428,14.139 40.725,15.408 2.631,0.18 5.477,0.272 8.456,0.272 0.002,0 0.003,0 0.005,0 30.425,0 69.429,-9.546 69.819,-9.643 0.952,-0.235 1.678,-1.004 1.859,-1.968 z"
   style="fill:#0c89c6;fill-opacity:1" />
	<path
   id="XMLID_13_"
   d="m 112.351,236.745 c 0.938,-0.611 1.354,-1.77 1.021,-2.838 -0.332,-1.068 -1.331,-1.769 -2.453,-1.755 -1.665,0.044 -16.292,0.704 -17.316,10.017 -0.31,2.783 0.487,5.325 2.37,7.556 5.252,6.224 19.428,9.923 43.332,11.31 2.828,0.169 5.7,0.254 8.539,0.254 30.39,0 50.857,-9.515 51.714,-9.92 0.831,-0.393 1.379,-1.209 1.428,-2.127 0.049,-0.917 -0.409,-1.788 -1.193,-2.267 l -15.652,-9.555 c -0.543,-0.331 -1.193,-0.441 -1.813,-0.314 -0.099,0.021 -10.037,2.082 -25.035,4.119 -2.838,0.385 -6.392,0.581 -10.562,0.581 -14.982,0 -31.646,-2.448 -34.842,-4.05 -0.046,-0.301 0.013,-0.681 0.462,-1.011 z"
   style="fill:#0c89c6;fill-opacity:1" />
	<path
   id="XMLID_14_"
   d="m 133.681,290.018 c 69.61,-0.059 106.971,-12.438 114.168,-20.228 2.548,-2.757 2.823,-5.366 2.606,-7.07 -0.535,-4.194 -4.354,-6.761 -4.788,-7.04 -1.045,-0.672 -2.447,-0.496 -3.262,0.444 -0.813,0.941 -0.832,2.314 -0.016,3.253 0.439,0.565 0.693,1.51 -0.591,2.795 -2.877,2.687 -31.897,10.844 -80.215,13.294 -6.619,0.345 -13.561,0.519 -20.633,0.52 -43.262,0 -74.923,-5.925 -79.079,-9.379 1.603,-2.301 12.801,-5.979 24.711,-8.058 1.342,-0.234 2.249,-1.499 2.041,-2.845 -0.208,-1.346 -1.449,-2.273 -2.805,-2.096 -0.336,0.045 -1.475,0.115 -2.796,0.195 -19.651,1.2 -42.36,3.875 -43.545,13.999 -0.36,3.086 0.557,5.886 2.726,8.324 5.307,5.963 20.562,13.891 91.475,13.891 0.002,10e-4 0.002,10e-4 0.003,10e-4 z"
   style="fill:#0c89c6;fill-opacity:1" />
	<path
   id="XMLID_15_"
   d="m 261.522,271.985 c -0.984,-0.455 -2.146,-0.225 -2.881,0.567 -0.103,0.11 -10.568,11.054 -42.035,17.48 -12.047,2.414 -34.66,3.638 -67.211,3.638 -32.612,0 -63.643,-1.283 -63.953,-1.296 -1.296,-0.063 -2.405,0.879 -2.581,2.155 -0.177,1.276 0.645,2.477 1.897,2.775 0.323,0.077 32.844,7.696 77.31,7.696 21.327,0 42.08,-1.733 61.684,-5.151 36.553,-6.408 39.112,-24.533 39.203,-25.301 0.127,-1.074 -0.451,-2.108 -1.433,-2.563 z"
   style="fill:#0c89c6;fill-opacity:1" />
</g></g></g></svg>
