<?xml version="1.0" encoding="UTF-8" standalone="no"?>
<!-- Created with Inkscape (http://www.inkscape.org/) -->

<svg
   width="512"
   height="512"
   viewBox="0 0 512 512"
   version="1.1"
   id="svg1"
   xml:space="preserve"
   xmlns="http://www.w3.org/2000/svg"
   xmlns:svg="http://www.w3.org/2000/svg"><defs
     id="defs1" /><g
     id="layer1"><circle
       style="fill:#f2f2f2;fill-opacity:1;stroke:#afafaf;stroke-width:8;stroke-dasharray:none;stroke-opacity:1"
       id="path1"
       cx="256.00003"
       cy="256.00006"
       r="241.31339" /><g
       id="g1"
       transform="matrix(15.834116,0,0,15.834116,70.365015,65.990577)"><path
         fill="#99415b"
         d="m 20.97,11.819 -10e-4,10e-4 c 0,0.965 -0.791,1.75 -1.764,1.75 a 1.76,1.76 0 0 1 -1.762,-1.753 c 0,-0.555 0.26,-1.049 0.665,-1.37 l 0.004,-0.003 0.007,-0.007 c 0.056,-0.042 0.119,-0.084 0.182,-0.125 0,0 0.008,0 0.008,-0.007 0.028,-0.014 0.056,-0.035 0.084,-0.05 0.007,0 0.014,-0.006 0.021,-0.006 0.028,-0.014 0.063,-0.028 0.098,-0.042 0.034,-0.014 0.071,-0.027 0.099,-0.041 0.007,0 0.013,-0.007 0.02,-0.007 0.028,-0.007 0.056,-0.021 0.085,-0.028 0.007,0 0.02,-0.007 0.028,-0.007 0.034,-0.007 0.063,-0.014 0.098,-0.02 h 0.007 l 0.105,-0.022 c 0.007,0 0.02,0 0.028,-0.007 0.028,0 0.056,-0.007 0.084,-0.007 H 19.1 c 0.035,0 0.071,-0.007 0.112,-0.007 h 0.091 c 0.028,0 0.05,0 0.078,0.007 h 0.014 c 0.056,0.007 0.112,0.014 0.168,0.028 0.808,0.176 1.405,0.88 1.407,1.723 z M 10.028,1.39 h 11.019 l -2.529,7.4 c -0.105,0.02 -0.21,0.055 -0.315,0.09 l -2.661,-5.385 -2.67,5.35 C 12.767,8.811 12.654,8.79 12.542,8.769 Z m 0.168,10.423 v -0.005 c 0,-0.812 0.56,-1.495 1.318,-1.687 l 0.012,-0.003 v -10e-4 c 0.034,-0.007 0.063,-0.014 0.098,-0.02 h 0.02 c 0.029,-0.008 0.056,-0.008 0.085,-0.015 h 0.028 c 0.028,0 0.049,-0.007 0.077,-0.007 h 0.273 c 0.028,0 0.049,0.007 0.071,0.007 0.014,0 0.02,0 0.035,0.007 0.027,0.007 0.048,0.007 0.077,0.014 0.007,0 0.014,0 0.028,0.007 l 0.098,0.02 h 0.007 c 0.028,0.008 0.056,0.015 0.084,0.029 0.007,0 0.014,0.007 0.028,0.007 0.021,0.007 0.049,0.014 0.071,0.027 0.007,0 0.014,0.007 0.02,0.007 0.028,0.014 0.056,0.021 0.085,0.035 h 0.007 c 0.034,0.013 0.064,0.03 0.092,0.05 l -0.001,-10e-4 h 0.007 c 0.028,0.014 0.056,0.034 0.085,0.048 0.007,0 0.007,0.007 0.013,0.007 0.028,0.014 0.05,0.035 0.078,0.049 l 0.007,0.007 c 0.084,0.062 0.161,0.132 0.238,0.201 l 0.007,0.007 c 0.299,0.313 0.484,0.736 0.484,1.203 v 0.007 c -0.033,0.942 -0.81,1.693 -1.765,1.693 -0.955,0 -1.732,-0.751 -1.765,-1.69 v -0.003 z"
         id="path1-0" /><ellipse
         cx="4.6329999"
         cy="11.819"
         fill="#99415b"
         rx="1.765"
         ry="1.751"
         id="ellipse1" /><path
         fill="#99415b"
         d="m 2.496,17.802 c 0.168,-1.015 0.637,-1.966 1.086,-2.877 0.028,-0.055 0.049,-0.104 0.078,-0.16 0.153,0.056 0.315,0.098 0.483,0.126 -0.266,1.473 0.49,2.994 1.962,3.745 l 0.266,0.139 0.286,-0.104 C 7.883,18.24 9.018,17.538 10.02,16.6 a 9.456,9.456 0 0 0 1.435,-1.681 l 0.022,-0.035 c 0.161,0.027 0.323,0.034 0.484,0.034 a 3.138,3.138 0 0 0 3.027,-2.305 l 0.005,-0.022 h 1.176 a 3.136,3.136 0 0 0 3.033,2.327 h 10e-4 c 0.581,0 1.119,-0.16 1.583,-0.43 0.182,0.52 0.238,1.063 0.14,1.605 h 0.001 a 3.082,3.082 0 0 1 -1.505,2.125 l -0.015,0.008 c -0.764,0.438 -1.703,0.577 -2.691,0.716 -0.658,0.084 -1.22,0.186 -1.771,0.314 l 0.118,-0.023 c -1.457,0.355 -2.857,1.05 -4.216,1.717 C 9.109,21.804 7.47,22.61 5.95,22.61 H 5.927 A 3.683,3.683 0 0 1 3.774,21.919 C 2.237,20.863 2.313,18.885 2.496,17.802 Z"
         id="path2" /></g></g></svg>
