<?xml version="1.0" encoding="UTF-8" standalone="no"?>
<!-- Created with Inkscape (http://www.inkscape.org/) -->

<svg
   width="512"
   height="512"
   viewBox="0 0 512 512"
   version="1.1"
   id="svg1"
   xml:space="preserve"
   xmlns="http://www.w3.org/2000/svg"
   xmlns:svg="http://www.w3.org/2000/svg"><defs
     id="defs1"><linearGradient
       id="jira-original-a"
       gradientUnits="userSpaceOnUse"
       x1="22.034"
       y1="9.773"
       x2="17.118"
       y2="14.842"
       gradientTransform="scale(4)"><stop
         offset=".176"
         stop-color="#0052cc"
         id="stop1" /><stop
         offset="1"
         stop-color="#2684ff"
         id="stop2" /></linearGradient><linearGradient
       id="jira-original-b"
       gradientUnits="userSpaceOnUse"
       x1="16.641"
       y1="15.564"
       x2="10.957"
       y2="21.094"
       gradientTransform="scale(4)"><stop
         offset=".176"
         stop-color="#0052cc"
         id="stop3" /><stop
         offset="1"
         stop-color="#2684ff"
         id="stop4" /></linearGradient></defs><g
     id="layer1"><circle
       style="fill:#f2f2f2;fill-opacity:1;stroke:#afafaf;stroke-width:8;stroke-dasharray:none;stroke-opacity:1"
       id="path1"
       cx="256.00003"
       cy="256.00006"
       r="241.31339" /><g
       id="g1"
       transform="matrix(3.5,0,0,3.5,26,40)"><path
         d="M 108.023,16 H 61.805 c 0,11.52 9.324,20.848 20.847,20.848 h 8.5 v 8.226 c 0,11.52 9.328,20.848 20.848,20.848 V 19.977 A 3.98,3.98 0 0 0 108.023,16 Z m 0,0"
         fill="#2684ff"
         id="path4" /><path
         d="M 85.121,39.04 H 38.902 c 0,11.519 9.325,20.847 20.844,20.847 h 8.504 v 8.226 c 0,11.52 9.328,20.848 20.848,20.848 V 43.016 a 3.983,3.983 0 0 0 -3.977,-3.977 z m 0,0"
         fill="url(#jira-original-a)"
         id="path5"
         style="fill:url(#jira-original-a)" /><path
         d="M 62.219,62.078 H 16 c 0,11.524 9.324,20.848 20.848,20.848 h 8.5 v 8.23 c 0,11.52 9.328,20.844 20.847,20.844 V 66.059 a 3.984,3.984 0 0 0 -3.976,-3.98 z m 0,0"
         fill="url(#jira-original-b)"
         id="path6"
         style="fill:url(#jira-original-b)" /></g></g></svg>
