<?xml version="1.0" encoding="UTF-8" standalone="no"?>
<!-- Created with Inkscape (http://www.inkscape.org/) -->

<svg
   width="512"
   height="512"
   viewBox="0 0 512 512"
   version="1.1"
   id="svg1"
   xml:space="preserve"
   xmlns="http://www.w3.org/2000/svg"
   xmlns:svg="http://www.w3.org/2000/svg"><defs
     id="defs1" /><g
     id="layer1"><circle
       style="fill:#f7df1e;fill-opacity:1;stroke:#858585;stroke-width:8;stroke-dasharray:none;stroke-opacity:1"
       id="path1"
       cx="256.00003"
       cy="256.00006"
       r="241.31339" /><g
       id="g1"
       transform="matrix(0.53333333,0,0,0.53333333,88.000001,88.000001)"><rect
         width="630"
         height="630"
         fill="#f7df1e"
         id="rect1"
         x="0"
         y="0"
         style="fill:none" /><path
         d="m 423.2,492.19 c 12.69,20.72 29.2,35.95 58.4,35.95 24.53,0 40.2,-12.26 40.2,-29.2 0,-20.3 -16.1,-27.49 -43.1,-39.3 l -14.8,-6.35 c -42.72,-18.2 -71.1,-41 -71.1,-89.2 0,-44.4 33.83,-78.2 86.7,-78.2 37.64,0 64.7,13.1 84.2,47.4 l -46.1,29.6 c -10.15,-18.2 -21.1,-25.37 -38.1,-25.37 -17.34,0 -28.33,11 -28.33,25.37 0,17.76 11,24.95 36.4,35.95 l 14.8,6.34 c 50.3,21.57 78.7,43.56 78.7,93 0,53.3 -41.87,82.5 -98.1,82.5 -54.98,0 -90.5,-26.2 -107.88,-60.54 z m -209.13,5.13 c 9.3,16.5 17.76,30.45 38.1,30.45 19.45,0 31.72,-7.61 31.72,-37.2 v -201.3 h 59.2 v 202.1 c 0,61.3 -35.94,89.2 -88.4,89.2 -47.4,0 -74.85,-24.53 -88.81,-54.075 z"
         id="path1-8" /></g></g></svg>
