<?xml version="1.0" encoding="UTF-8" standalone="no"?>
<!-- Created with Inkscape (http://www.inkscape.org/) -->

<svg
   width="512"
   height="512"
   viewBox="0 0 512 512"
   version="1.1"
   id="svg1"
   xml:space="preserve"
   inkscape:version="1.4.2 (f4327f4, 2025-05-13)"
   sodipodi:docname="keras.svg"
   xmlns:inkscape="http://www.inkscape.org/namespaces/inkscape"
   xmlns:sodipodi="http://sodipodi.sourceforge.net/DTD/sodipodi-0.dtd"
   xmlns="http://www.w3.org/2000/svg"
   xmlns:svg="http://www.w3.org/2000/svg"><sodipodi:namedview
     id="namedview1"
     pagecolor="#ffffff"
     bordercolor="#999999"
     borderopacity="1"
     inkscape:showpageshadow="2"
     inkscape:pageopacity="0"
     inkscape:pagecheckerboard="0"
     inkscape:deskcolor="#d1d1d1"
     inkscape:document-units="px"
     showgrid="false"
     inkscape:zoom="1"
     inkscape:cx="161"
     inkscape:cy="323.5"
     inkscape:window-width="1920"
     inkscape:window-height="1001"
     inkscape:window-x="-9"
     inkscape:window-y="-9"
     inkscape:window-maximized="1"
     inkscape:current-layer="layer1"><inkscape:grid
       id="grid1"
       units="mm"
       originx="0"
       originy="0"
       spacingx="1"
       spacingy="1"
       empcolor="#0099e5"
       empopacity="0.30196078"
       color="#0099e5"
       opacity="0.14901961"
       empspacing="5"
       enabled="true"
       visible="false" /></sodipodi:namedview><defs
     id="defs1"><inkscape:path-effect
       effect="fillet_chamfer"
       id="path-effect1"
       is_visible="true"
       lpeversion="1"
       nodesatellites_param="F,0,0,1,0,2.2572315,0,1 @ F,0,0,1,0,2.608162,0,1 @ F,0,0,1,0,2.5997618,0,1 @ F,0,0,1,0,3.0078049,0,1 @ F,0,0,1,0,2.2522004,0,1 @ F,0,0,1,0,2.8010871,0,1"
       radius="0"
       unit="px"
       method="auto"
       mode="F"
       chamfer_steps="1"
       flexible="false"
       use_knot_distance="true"
       apply_no_radius="true"
       apply_with_radius="true"
       only_selected="false"
       hide_knots="false" /></defs><g
     inkscape:label="Layer 1"
     inkscape:groupmode="layer"
     id="layer1"><circle
       style="fill:#d00000;fill-opacity:1;stroke:#858585;stroke-width:8;stroke-dasharray:none;stroke-opacity:1"
       id="path1"
       inkscape:label="background"
       cx="256.00003"
       cy="256.00006"
       r="241.31339" /><path
       d="m 116,421.56114 c 0,0.46902 0.46901,0.93801 0.46901,1.40703 l 10.31826,10.31826 c 0.46901,0.46901 0.93802,0.46901 1.40703,0.46901 h 35.17589 c 0.469,0 0.93802,-0.46901 1.40703,-0.46901 l 10.31826,-10.31826 c 0.46901,-0.46902 0.46901,-0.93801 0.46901,-1.40703 v -111.6248 c 0,-0.46901 0.46901,-0.93801 0.46901,-1.40703 l 44.55611,-42.68007 c 0.46901,-0.46901 0.93803,-0.46901 0.93803,0 l 113.03182,166.96817 c 0.46902,0.46902 0.93803,0.46902 1.40704,0.46902 h 49.71524 c 0.46902,0 0.93803,-0.46902 1.40703,-0.93803 L 396,414.99497 v -1.40703 L 264.20771,222.70016 c -0.46902,-0.46901 0,-0.93802 0,-1.40704 L 385.68174,100.28811 c 0.46902,-0.469011 0.46902,-0.938029 0.46902,-1.407037 v -2.345058 c 0,-0.469018 0,-0.938026 -0.46902,-1.407033 L 378.64657,79.18258 c 0,-0.469017 -0.46901,-0.938025 -0.93803,-0.938025 h -49.24623 c -0.46901,0 -0.93802,0.469008 -1.40703,0.469008 L 176.50251,230.20435 c -0.46901,0.46901 -0.46901,0 -0.46901,-0.46902 V 91.37688 c 0,-0.469007 -0.46901,-0.938025 -0.46901,-1.407033 L 165.24623,79.18258 c -0.46901,-0.469017 -0.93802,-0.469017 -1.40704,-0.469017 H 128.1943 c -0.46901,0 -0.93802,0.469017 -1.40703,0.469017 L 116.46901,90.438855 C 116,90.907873 116,91.37688 116,91.845898 Z"
       style="fill:#ffffff;stroke-width:4.69012"
       id="path2" /></g></svg>
