<?xml version="1.0" encoding="UTF-8" standalone="no"?>
<!-- Created with Inkscape (http://www.inkscape.org/) -->

<svg
   width="512"
   height="512"
   viewBox="0 0 512 512"
   version="1.1"
   id="svg1"
   xml:space="preserve"
   xmlns="http://www.w3.org/2000/svg"
   xmlns:svg="http://www.w3.org/2000/svg"><defs
     id="defs1" /><g
     id="layer1"><circle
       style="fill:#f2f2f2;fill-opacity:1;stroke:#afafaf;stroke-width:8;stroke-dasharray:none;stroke-opacity:1"
       id="path1"
       cx="256.00003"
       cy="256.00006"
       r="241.31339" /><g
       id="g1"
       transform="matrix(14.000412,0,0,14.000412,88.573324,87.990117)"><path
         fill="#b3b1b0"
         d="m 22,14.355 c 0,-0.742 -0.564,-1.346 -1.26,-1.346 H 10.676 c -0.696,0 -1.26,0.604 -1.26,1.346 0,0.742 0.563,1.346 1.26,1.346 H 20.74 C 21.436,15.702 22,15.098 22,14.355 Z"
         id="path1-0" /><path
         fill="#e7a41f"
         d="m 3.482,18.187 4.313,4.361 C 8.768,23.527 10.113,24 11.598,24 c 1.485,0 2.83,-0.512 3.805,-1.494 l 2.588,-2.637 c 0.51,-0.514 0.492,-1.365 -0.039,-1.9 -0.531,-0.535 -1.375,-0.553 -1.884,-0.039 l -2.676,2.607 c -0.462,0.467 -1.102,0.662 -1.809,0.662 -0.707,0 -1.346,-0.195 -1.81,-0.662 L 5.475,16.174 c -0.463,-0.467 -0.696,-1.15 -0.696,-1.863 0,-0.713 0.233,-1.357 0.696,-1.824 L 9.76,8.107 c 0.463,-0.467 1.116,-0.645 1.822,-0.645 0.706,0 1.346,0.195 1.809,0.662 l 2.676,2.606 c 0.51,0.515 1.354,0.497 1.885,-0.038 0.531,-0.536 0.549,-1.387 0.039,-1.901 L 15.403,6.155 A 4.994,4.994 0 0 0 13.011,4.825 L 12.977,4.818 15.424,2.315 C 15.936,1.801 15.918,0.949 15.387,0.414 14.856,-0.121 14.011,-0.138 13.5,0.376 L 3.482,10.476 C 2.509,11.458 2,12.813 2,14.311 c 0,1.498 0.509,2.896 1.482,3.876 z"
         id="path2" /><path
         fill="#070706"
         d="M 8.115,22.814 A 2.109,2.109 0 0 1 7.641,22.453 C 6.314,21.12 4.981,19.793 3.657,18.456 1.668,16.448 1.355,13.519 2.871,11.136 A 6,6 0 0 1 3.71,10.132 l 9.623,-9.643 c 0.625,-0.626 1.498,-0.652 2.079,-0.067 0.56,0.563 0.527,1.455 -0.078,2.066 -0.769,0.776 -1.539,1.55 -2.309,2.325 -0.041,0.122 -0.14,0.2 -0.225,0.287 -0.863,0.876 -1.75,1.729 -2.601,2.618 -0.111,0.116 -0.262,0.186 -0.372,0.305 -1.423,1.423 -2.863,2.83 -4.266,4.272 -1.135,1.167 -1.097,2.938 0.068,4.127 1.308,1.336 2.639,2.65 3.961,3.974 0.067,0.067 0.136,0.132 0.204,0.198 0.468,0.303 0.474,1.25 0.183,1.671 -0.321,0.465 -0.74,0.75 -1.333,0.728 C 8.445,22.987 8.281,22.907 8.115,22.814 Z"
         id="path3" /></g></g></svg>
