<?xml version="1.0" encoding="UTF-8" standalone="no"?>
<!-- Created with Inkscape (http://www.inkscape.org/) -->

<svg
   width="512"
   height="512"
   viewBox="0 0 512 512"
   version="1.1"
   id="svg1"
   xml:space="preserve"
   inkscape:version="1.4.2 (f4327f4, 2025-05-13)"
   sodipodi:docname="linode.svg"
   xmlns:inkscape="http://www.inkscape.org/namespaces/inkscape"
   xmlns:sodipodi="http://sodipodi.sourceforge.net/DTD/sodipodi-0.dtd"
   xmlns="http://www.w3.org/2000/svg"
   xmlns:svg="http://www.w3.org/2000/svg"><sodipodi:namedview
     id="namedview1"
     pagecolor="#ffffff"
     bordercolor="#999999"
     borderopacity="1"
     inkscape:showpageshadow="2"
     inkscape:pageopacity="0"
     inkscape:pagecheckerboard="0"
     inkscape:deskcolor="#d1d1d1"
     inkscape:document-units="px"
     showgrid="false"
     inkscape:zoom="1"
     inkscape:cx="313"
     inkscape:cy="277.5"
     inkscape:window-width="1920"
     inkscape:window-height="1001"
     inkscape:window-x="-9"
     inkscape:window-y="-9"
     inkscape:window-maximized="1"
     inkscape:current-layer="layer1"><inkscape:grid
       id="grid1"
       units="mm"
       originx="0"
       originy="0"
       spacingx="1"
       spacingy="1"
       empcolor="#0099e5"
       empopacity="0.30196078"
       color="#0099e5"
       opacity="0.14901961"
       empspacing="5"
       enabled="true"
       visible="false" /></sodipodi:namedview><defs
     id="defs1"><inkscape:path-effect
       effect="fillet_chamfer"
       id="path-effect1"
       is_visible="true"
       lpeversion="1"
       nodesatellites_param="F,0,0,1,0,2.2572315,0,1 @ F,0,0,1,0,2.608162,0,1 @ F,0,0,1,0,2.5997618,0,1 @ F,0,0,1,0,3.0078049,0,1 @ F,0,0,1,0,2.2522004,0,1 @ F,0,0,1,0,2.8010871,0,1"
       radius="0"
       unit="px"
       method="auto"
       mode="F"
       chamfer_steps="1"
       flexible="false"
       use_knot_distance="true"
       apply_no_radius="true"
       apply_with_radius="true"
       only_selected="false"
       hide_knots="false" /></defs><g
     inkscape:label="Layer 1"
     inkscape:groupmode="layer"
     id="layer1"><circle
       style="fill:#f2f2f2;fill-opacity:1;stroke:#afafaf;stroke-width:8;stroke-dasharray:none;stroke-opacity:1"
       id="path1"
       inkscape:label="background"
       cx="256.00003"
       cy="256.00006"
       r="241.31339" /><g
       style="fill:none"
       id="g1"
       transform="matrix(25.714286,0,0,25.714286,50.285712,50.285712)"><path
         fill="#231f20"
         d="M 14,7.197 12.007,6.125 10.325,7.123 10.305,8.145 9.486,7.621 8.374,8.281 8.325,7.164 7.18,6.419 8.274,5.869 c -0.008,0 0,0.106 -0.162,-3.656 L 5.524,1 2,2.066 2.787,5.752 3.97,6.646 3.07,7.058 3.658,9.836 4.484,10.591 3.894,10.941 4.352,13.089 6.206,15 c 0.009,-0.01 0.195,-0.15 2.381,-1.845 l -0.064,-1.459 0.94,0.776 c 0.013,-0.014 0.2,-0.149 1.921,-1.48 l 0.067,-1.079 0.709,0.479 c 0.012,-0.013 0.173,-0.133 1.562,-1.206 z"
         id="path1-0" /><path
         fill="#000000"
         d="M 12.347,8.346 14,7.197 12.007,6.125 10.325,7.123 Z"
         id="path2" /><path
         fill="#004b16"
         d="m 12.163,10.39 0.183,-2.044 -2.02,-1.223 -0.042,1.997 1.88,1.27 z m -2.697,2.08 v -2.118 l -2.042,-1.507 0.16,2.08 1.882,1.544 z"
         id="path3" /><path
         fill="#000000"
         d="M 9.466,10.352 11.516,8.922 9.486,7.621 7.424,8.845 Z"
         id="path4" /><path
         fill="#004b16"
         d="M 6.206,14.998 5.88,12.834 3.893,10.94 l 0.46,2.148 z"
         id="path5" /><path
         fill="#000000"
         d="M 5.88,12.834 8.496,11.018 6.47,9.412 3.893,10.94 Z"
         id="path6" /><path
         fill="#004b16"
         d="M 5.71,11.71 5.28,8.848 3.066,7.06 3.658,9.835 Z"
         id="path7" /><path
         fill="#000000"
         d="M 5.279,8.848 8.327,7.164 6.05,5.68 3.066,7.059 5.279,8.849 Z"
         id="path8" /><path
         fill="#004b16"
         d="M 5.072,7.482 4.481,3.562 2,2.067 2.787,5.753 5.072,7.483 Z"
         id="path9" /><path
         fill="#000000"
         d="M 4.481,3.563 8.108,2.21 5.524,1 2,2.066 Z"
         id="path10" /><path
         fill="#1cb35c"
         d="m 13.725,9.184 c -1.535,1.185 -1.57,1.206 -1.563,1.206 0.19,-2.14 0.174,-2.044 0.183,-2.044 1.75,-1.219 1.641,-1.149 1.653,-1.149 z m -2.337,1.806 c -1.9,1.47 -1.93,1.479 -1.922,1.479 -0.019,-2.217 -0.008,-2.118 0,-2.118 2.188,-1.52 2.043,-1.43 2.05,-1.43 z M 8.59,13.153 C 6.22,14.987 6.198,14.998 6.21,14.998 5.873,12.768 5.881,12.834 5.881,12.834 8.669,10.901 8.493,11.018 8.5,11.018 Z M 8.108,2.21 C 8.274,5.975 8.261,5.867 8.27,5.867 5.133,7.451 5.064,7.482 5.07,7.482 4.466,3.475 4.475,3.562 4.48,3.562 L 8.107,2.21 Z M 8.325,7.164 C 8.451,10.018 8.435,9.919 8.447,9.919 5.733,11.694 5.702,11.713 5.713,11.713 5.274,8.773 5.274,8.848 5.281,8.848 Z"
         id="path11" /></g></g></svg>
