<?xml version="1.0" encoding="UTF-8" standalone="no"?>
<!-- Created with Inkscape (http://www.inkscape.org/) -->

<svg
   width="512"
   height="512"
   viewBox="0 0 512 512"
   version="1.1"
   id="svg1"
   xml:space="preserve"
   xmlns="http://www.w3.org/2000/svg"
   xmlns:svg="http://www.w3.org/2000/svg"><defs
     id="defs1" /><g
     id="layer1"><circle
       style="fill:#00007e;fill-opacity:1;stroke:#858585;stroke-width:8;stroke-dasharray:none;stroke-opacity:1"
       id="path1"
       cx="256.00003"
       cy="256.00006"
       r="241.31339" /><g
       style="fill:#ffffff"
       id="g1"
       transform="matrix(14,0,0,14,87.993,88)"><path
         d="M 0.38,10.377 0.108,10.34 C 0.06,10.684 0.026,11.035 0.007,11.381 l 0.275,0.016 C 0.3,11.057 0.333,10.715 0.38,10.377 Z M 4.136,3.289 3.952,3.084 C 3.694,3.316 3.443,3.564 3.206,3.818 L 3.408,4.006 C 3.639,3.758 3.884,3.516 4.136,3.289 Z M 5.769,2.059 5.623,1.824 C 5.327,2.01 5.037,2.209 4.76,2.418 L 4.926,2.637 C 5.196,2.434 5.48,2.238 5.769,2.059 Z m -3.945,16.31 c 0.185,0.297 0.384,0.586 0.593,0.863 l 0.22,-0.164 A 11.668,11.668 0 0 1 2.057,18.224 Z M 1.127,16.402 0.872,16.506 c 0.129,0.318 0.274,0.635 0.431,0.943 l 0.005,0.01 0.245,-0.125 -0.005,-0.01 A 11.931,11.931 0 0 1 1.127,16.402 Z M 0.298,9.309 0.567,9.372 C 0.643,9.04 0.735,8.708 0.839,8.386 L 0.578,8.299 C 0.47,8.631 0.376,8.971 0.298,9.309 Z m -0.024,3.111 -0.275,0.01 c 0.012,0.348 0.04,0.699 0.083,1.043 L 0.355,13.44 C 0.313,13.104 0.286,12.76 0.274,12.42 Z m -0.018,2.086 c 0.073,0.34 0.162,0.682 0.264,1.014 L 0.783,15.44 C 0.683,15.114 0.596,14.782 0.525,14.45 Z M 11.573,0.275 11.563,0 c -0.348,0.012 -0.699,0.039 -1.044,0.082 l 0.034,0.273 c 0.338,-0.041 0.68,-0.068 1.02,-0.08 z m 11.648,8.291 c 0.1,0.326 0.186,0.66 0.256,0.992 l 0.27,-0.059 C 23.675,9.159 23.587,8.817 23.485,8.485 Z m -5.6,-7.177 A 11.849,11.849 0 0 0 16.674,0.94 l -0.107,0.252 c 0.314,0.133 0.625,0.281 0.926,0.439 z M 15.693,0.572 C 15.361,0.467 15.023,0.373 14.683,0.295 L 14.62,0.563 c 0.332,0.076 0.664,0.168 0.988,0.273 z M 6.674,1.545 C 6.972,1.395 7.28,1.254 7.59,1.127 L 7.486,0.873 C 7.169,1 6.854,1.145 6.549,1.301 L 6.534,1.309 6.659,1.553 Z m 17.053,10.043 0.275,-0.01 A 11.797,11.797 0 0 0 23.92,10.533 l -0.273,0.033 c 0.041,0.338 0.068,0.682 0.08,1.022 z M 13.654,0.105 C 13.308,0.058 12.958,0.025 12.611,0.007 L 12.597,0.28 c 0.339,0.018 0.683,0.051 1.019,0.098 z M 9.544,0.527 9.486,0.257 C 9.146,0.329 8.805,0.417 8.472,0.521 L 8.553,0.783 C 8.878,0.684 9.212,0.598 9.544,0.527 Z M 1.921,5.469 2.152,5.619 C 2.337,5.334 2.536,5.053 2.744,4.785 L 2.527,4.615 C 2.314,4.891 2.11,5.178 1.921,5.469 Z M 0.943,7.318 1.196,7.425 C 1.328,7.112 1.476,6.8 1.635,6.501 L 1.392,6.373 C 1.229,6.68 1.078,6.998 0.943,7.318 Z m 17.28,14.625 0.145,0.234 c 0.295,-0.186 0.586,-0.385 0.863,-0.594 l -0.164,-0.219 c -0.272,0.204 -0.557,0.4 -0.844,0.579 z m 3.025,-2.724 0.217,0.17 c 0.215,-0.273 0.418,-0.561 0.607,-0.854 l -0.23,-0.148 c -0.186,0.285 -0.385,0.564 -0.594,0.832 z m -1.393,1.496 0.184,0.203 c 0.258,-0.23 0.51,-0.479 0.746,-0.732 l -0.201,-0.188 c -0.23,0.248 -0.477,0.488 -0.729,0.717 z m 2.504,-3.211 0.244,0.129 c 0.162,-0.307 0.314,-0.625 0.449,-0.945 l -0.254,-0.107 a 11.27,11.27 0 0 1 -0.439,0.923 z m 1.258,-3.875 0.273,0.039 c 0.049,-0.346 0.082,-0.695 0.102,-1.043 l -0.275,-0.014 a 11.24,11.24 0 0 1 -0.1,1.018 z m -0.461,1.992 0.264,0.086 c 0.107,-0.332 0.201,-0.67 0.279,-1.01 l -0.268,-0.063 c -0.077,0.333 -0.169,0.665 -0.275,0.987 z M 22.453,6.672 c 0.154,0.303 0.297,0.617 0.424,0.932 L 23.133,7.5 A 12.027,12.027 0 0 0 22.697,6.547 Z M 8.296,23.418 c 0.331,0.107 0.67,0.201 1.009,0.279 L 9.367,23.429 A 11.604,11.604 0 0 1 8.381,23.156 Z m 2.039,0.471 c 0.345,0.049 0.696,0.082 1.043,0.102 l 0.014,-0.275 a 12.027,12.027 0 0 1 -1.019,-0.098 z m 6.991,-1.44 c -0.303,0.154 -0.613,0.297 -0.926,0.424 l 0.104,0.256 c 0.318,-0.131 0.639,-0.275 0.947,-0.434 l 0.004,-0.002 -0.123,-0.246 z M 4.613,21.467 c 0.274,0.213 0.562,0.418 0.854,0.605 l 0.149,-0.23 A 12.18,12.18 0 0 1 4.783,21.25 Z m 7.804,2.258 0.009,0.275 a 12.61,12.61 0 0 0 1.045,-0.084 l -0.035,-0.271 c -0.336,0.041 -0.68,0.068 -1.019,0.08 z M 6.37,22.604 c 0.307,0.162 0.625,0.314 0.946,0.449 L 7.423,22.799 A 11.646,11.646 0 0 1 6.499,22.36 Z M 3.083,20.041 c 0.233,0.258 0.48,0.51 0.734,0.746 L 4.005,20.586 C 3.756,20.356 3.515,20.109 3.288,19.857 Z m 11.362,3.434 0.059,0.27 a 12,12 0 0 0 1.014,-0.266 l -0.082,-0.262 c -0.325,0.099 -0.659,0.185 -0.991,0.258 z M 21.18,0.129 a 2.689,2.689 0 1 0 0,5.378 2.689,2.689 0 1 0 0,-5.378 z m -5.856,15.318 c 0,0.471 0.314,0.66 0.852,0.66 0.67,0 1.297,-0.396 1.297,-1.016 v -0.645 c -0.23,0.107 -0.379,0.141 -1.107,0.24 -0.735,0.109 -1.042,0.306 -1.042,0.761 z M 12,2.818 A 9.18,9.18 0 0 0 2.82,11.998 9.18,9.18 0 1 0 12,2.818 Z M 9.513,16.588 H 5.771 V 10.565 H 6.54 v 5.346 h 2.974 v 0.677 z m 4.13,0 h -0.619 v -0.67 c -0.405,0.57 -0.811,0.793 -1.446,0.793 -0.843,0 -1.38,-0.463 -1.38,-1.182 v -3.271 h 0.686 v 3 c 0,0.52 0.347,0.85 0.893,0.85 0.719,0 1.181,-0.578 1.181,-1.461 v -2.389 h 0.686 v 4.33 z m -0.53,-8.393 a 2.69,2.69 0 1 1 5.375,10e-4 2.69,2.69 0 0 1 -5.375,-10e-4 z m 5.567,7.856 v 0.52 c -0.223,0.059 -0.33,0.074 -0.471,0.074 a 0.73,0.73 0 0 1 -0.711,-0.57 2.025,2.025 0 0 1 -1.471,0.637 c -0.877,0 -1.422,-0.463 -1.422,-1.248 0,-0.527 0.256,-0.916 0.76,-1.123 0.266,-0.107 0.414,-0.141 1.389,-0.264 0.545,-0.066 0.719,-0.191 0.719,-0.48 v -0.182 c 0,-0.412 -0.348,-0.645 -0.967,-0.645 -0.645,0 -0.957,0.24 -1.016,0.77 h -0.693 c 0.041,-1 0.686,-1.404 1.734,-1.404 1.066,0 1.627,0.412 1.627,1.182 v 2.412 c 0,0.215 0.133,0.338 0.373,0.338 0.041,-0.002 0.074,-0.002 0.149,-0.017 z"
         id="path1-4"
         style="fill:#ffffff" /></g></g></svg>
