<?xml version="1.0" encoding="UTF-8" standalone="no"?>
<!-- Created with Inkscape (http://www.inkscape.org/) -->

<svg
   width="512"
   height="512"
   viewBox="0 0 512 512"
   version="1.1"
   id="svg1"
   xml:space="preserve"
   inkscape:version="1.4.2 (f4327f4, 2025-05-13)"
   sodipodi:docname="meta.svg"
   xmlns:inkscape="http://www.inkscape.org/namespaces/inkscape"
   xmlns:sodipodi="http://sodipodi.sourceforge.net/DTD/sodipodi-0.dtd"
   xmlns="http://www.w3.org/2000/svg"
   xmlns:svg="http://www.w3.org/2000/svg"><sodipodi:namedview
     id="namedview1"
     pagecolor="#ffffff"
     bordercolor="#999999"
     borderopacity="1"
     inkscape:showpageshadow="2"
     inkscape:pageopacity="0"
     inkscape:pagecheckerboard="0"
     inkscape:deskcolor="#d1d1d1"
     inkscape:document-units="px"
     showgrid="false"
     inkscape:zoom="1"
     inkscape:cx="313"
     inkscape:cy="277.5"
     inkscape:window-width="1920"
     inkscape:window-height="1001"
     inkscape:window-x="-9"
     inkscape:window-y="-9"
     inkscape:window-maximized="1"
     inkscape:current-layer="layer1"><inkscape:grid
       id="grid1"
       units="mm"
       originx="0"
       originy="0"
       spacingx="1"
       spacingy="1"
       empcolor="#0099e5"
       empopacity="0.30196078"
       color="#0099e5"
       opacity="0.14902"
       empspacing="5"
       enabled="true"
       visible="false" /></sodipodi:namedview><defs
     id="defs1"><inkscape:path-effect
       effect="fillet_chamfer"
       id="path-effect1"
       is_visible="true"
       lpeversion="1"
       nodesatellites_param="F,0,0,1,0,2.2572315,0,1 @ F,0,0,1,0,2.608162,0,1 @ F,0,0,1,0,2.5997618,0,1 @ F,0,0,1,0,3.0078049,0,1 @ F,0,0,1,0,2.2522004,0,1 @ F,0,0,1,0,2.8010871,0,1"
       radius="0"
       unit="px"
       method="auto"
       mode="F"
       chamfer_steps="1"
       flexible="false"
       use_knot_distance="true"
       apply_no_radius="true"
       apply_with_radius="true"
       only_selected="false"
       hide_knots="false" /><style
       id="style1">.cls-1{fill:#0081fb;}.cls-2{fill:url(#linear-gradient);}.cls-3{fill:url(#linear-gradient-2);}</style><linearGradient
       id="linear-gradient"
       x1="62.34"
       y1="101.45"
       x2="260.34"
       y2="91.45"
       gradientTransform="matrix(1,0,0,-1,0,192)"
       gradientUnits="userSpaceOnUse"><stop
         offset="0"
         stop-color="#0064e1"
         id="stop1" /><stop
         offset="0.4"
         stop-color="#0064e1"
         id="stop2" /><stop
         offset="0.83"
         stop-color="#0073ee"
         id="stop3" /><stop
         offset="1"
         stop-color="#0082fb"
         id="stop4" /></linearGradient><linearGradient
       id="linear-gradient-2"
       x1="41.42"
       y1="53"
       x2="41.42"
       y2="126"
       gradientTransform="matrix(1,0,0,-1,0,192)"
       gradientUnits="userSpaceOnUse"><stop
         offset="0"
         stop-color="#0082fb"
         id="stop5" /><stop
         offset="1"
         stop-color="#0064e0"
         id="stop6" /></linearGradient></defs><g
     inkscape:label="Layer 1"
     inkscape:groupmode="layer"
     id="layer1"><circle
       style="fill:#f2f2f2;fill-opacity:1;stroke:#afafaf;stroke-width:8;stroke-dasharray:none;stroke-opacity:1"
       id="path1"
       inkscape:label="background"
       cx="256.00003"
       cy="256.00006"
       r="241.31339" /><g
       id="g1"
       transform="matrix(1.2517821,0,0,1.2517821,75.999993,136.45481)"><path
         class="cls-1"
         d="m 31.06,126 c 0,11 2.41,19.41 5.56,24.51 A 19,19 0 0 0 53.19,160 c 8.1,0 15.51,-2 29.79,-21.76 11.44,-15.83 24.92,-38 34,-52 l 15.36,-23.6 c 10.67,-16.39 23,-34.61 37.18,-47 C 181.07,5.6 193.54,0 206.09,0 c 21.07,0 41.14,12.21 56.5,35.11 16.81,25.08 25,56.67 25,89.27 0,19.38 -3.82,33.62 -10.32,44.87 C 271,180.13 258.72,191 238.13,191 v -31 c 17.63,0 22,-16.2 22,-34.74 0,-26.42 -6.16,-55.74 -19.73,-76.69 -9.63,-14.86 -22.11,-23.94 -35.84,-23.94 -14.85,0 -26.8,11.2 -40.23,31.17 -7.14,10.61 -14.47,23.54 -22.7,38.13 l -9.06,16 c -18.2,32.27 -22.81,39.62 -31.91,51.75 C 84.74,183 71.12,191 53.19,191 31.92,191 18.47,181.79 10.19,167.91 3.34,156.6 0,141.76 0,124.85 Z"
         id="path6" /><path
         class="cls-2"
         d="M 24.49,37.3 C 38.73,15.35 59.28,0 82.85,0 c 13.65,0 27.22,4 41.39,15.61 15.5,12.65 32,33.48 52.63,67.81 l 7.39,12.32 c 17.84,29.72 28,45 33.93,52.22 7.64,9.26 13,12 19.94,12 17.63,0 22,-16.2 22,-34.74 l 27.4,-0.86 c 0,19.38 -3.82,33.62 -10.32,44.87 -6.21,10.9 -18.49,21.77 -39.08,21.77 -12.8,0 -24.14,-2.78 -36.68,-14.61 -9.64,-9.08 -20.91,-25.21 -29.58,-39.71 L 146.08,93.6 C 133.14,71.98 121.27,55.86 114.4,48.6 107,40.71 97.51,31.23 82.35,31.23 c -12.27,0 -22.69,8.61 -31.41,21.78 z"
         id="path7"
         style="fill:url(#linear-gradient)" /><path
         class="cls-3"
         d="M 82.35,31.23 C 70.08,31.23 59.66,39.84 50.94,53.01 38.61,71.62 31.06,99.34 31.06,126 c 0,11 2.41,19.41 5.56,24.51 l -26.48,17.4 C 3.34,156.6 0,141.76 0,124.85 0,94.1 8.44,62.05 24.49,37.3 38.73,15.35 59.28,0 82.85,0 Z"
         id="path8"
         style="fill:url(#linear-gradient-2)" /></g></g></svg>
