<?xml version="1.0" encoding="UTF-8" standalone="no"?>
<!-- Created with Inkscape (http://www.inkscape.org/) -->

<svg
   width="512"
   height="512"
   viewBox="0 0 512 512"
   version="1.1"
   id="svg1"
   xml:space="preserve"
   xmlns="http://www.w3.org/2000/svg"
   xmlns:svg="http://www.w3.org/2000/svg"><defs
     id="defs1" /><g
     id="layer1"><circle
       style="fill:#252729;fill-opacity:1;stroke:#858585;stroke-width:8;stroke-dasharray:none;stroke-opacity:1"
       id="path1"
       cx="256.00003"
       cy="256.00006"
       r="241.31339" /><path
       fill="currentColor"
       d="m 376.00001,292 a 12,12 0 1 1 0,23.99999 12,12 0 0 1 0,-23.99999 z m -168.00002,0 H 280 a 12,12 0 1 1 0,23.99999 h -72.00001 a 12,12 0 1 1 0,-23.99999 z M 184,220 a 12,12 0 0 1 12,12.00001 V 256 a 12.000006,12.000006 0 1 1 -24,0 V 232.00001 A 12,12 0 0 1 184,220 Z m -59.985,11.385 A 36,36 0 0 1 184,205.18001 a 36,36 0 0 1 59.99999,26.82 V 256 A 12,12 0 1 1 220,256 v -23.99999 a 12,12 0 1 0 -24,0 V 256 a 12.000006,12.000006 0 1 1 -24,0 v -23.99999 a 12,12 0 1 0 -24,0 V 256 a 12,12 0 1 1 -24,0 V 232.00001 Z M 340,268 v 36 a 12.000007,12.000007 0 1 1 -24.00001,0 V 268 H 281.41 c -7.39501,0 -13.40999,-5.37 -13.40999,-12 0,-6.63 6.01498,-12 13.40999,-12 h 93.17999 c 7.39501,0 13.41,5.37 13.41,12 0,6.63 -6.01499,12 -13.41,12 z m -12,-71.99999 h 48.00001 a 12,12 0 1 1 0,23.99999 H 328 a 12,12 0 1 1 0,-23.99999 z M 136,292 h 24.00001 a 12,12 0 1 1 0,23.99999 H 136 A 12,12 0 1 1 136,292 Z m 138,-95.99999 h 6 A 12,12 0 1 1 280,220 h -6 a 12,12 0 1 1 0,-23.99999 z M 99.999999,292 H 76 V 207.99999 C 76,174.88 102.88,148 136,148 H 376.00001 C 409.12,148 436,174.88 436,207.99999 V 304 c 0,33.12 -26.88,60 -59.99999,60 H 136 C 102.88,364 76,337.12 76,304 V 279.99999 H 99.999999 V 304 A 36,36 0 0 0 136,340.00001 H 376.00001 A 36,36 0 0 0 412,304 v -96.00001 a 36,36 0 0 0 -35.99999,-36 H 136 a 36,36 0 0 0 -36.000001,36 z"
       id="path1-4"
       style="stroke-width:15;fill:#e1b613;fill-opacity:1" /></g></svg>
