<?xml version="1.0" encoding="UTF-8" standalone="no"?>
<!-- Created with Inkscape (http://www.inkscape.org/) -->

<svg
   width="512"
   height="512"
   viewBox="0 0 512 512"
   version="1.1"
   id="svg1"
   xml:space="preserve"
   xmlns="http://www.w3.org/2000/svg"
   xmlns:svg="http://www.w3.org/2000/svg"><defs
     id="defs1" /><g
     id="layer1"><circle
       style="fill:#f2f2f2;fill-opacity:1;stroke:#afafaf;stroke-width:8;stroke-dasharray:none;stroke-opacity:1"
       id="path1"
       cx="256.00003"
       cy="256.00006"
       r="241.31339" /><path
       d="m 371.1999,326.32779 c 2.88916,-1.65917 4.67486,-4.73256 4.68547,-8.06423 l 0.168,-54.01348 c 0.0105,-3.33168 1.79629,-6.40507 4.68546,-8.06424 l 29.27947,-16.81912 c 2.88808,-1.65856 6.44109,-1.65257 9.32353,0.0157 2.88246,1.66828 4.65821,4.74607 4.65821,8.0765 v 98.19871 c 0,3.34168 -1.78765,6.42807 -4.68549,8.09223 L 308.81418,417.2183 c -2.87191,1.64871 -6.40239,1.65227 -9.27759,0.009 L 212.8182,367.62863 c -2.90791,-1.66103 -4.70306,-4.75267 -4.70413,-8.10155 v -49.5147 c 0,-0.056 0.0653,-0.0933 0.12127,-0.0654 0.0467,0.0279 0.11196,0 0.11196,-0.0654 v -0.056 c 0,-0.0372 0.0187,-0.0747 0.056,-0.0933 l 71.42063,-41.03047 c 0.0653,-0.0373 0.0373,-0.14001 -0.0373,-0.14001 -0.0412,0 -0.0747,-0.0335 -0.0747,-0.0747 l 0.14,-48.54401 c 0.0132,-3.34119 -1.76043,-6.43464 -4.65068,-8.11099 -2.89028,-1.67635 -6.45614,-1.67987 -9.3497,-0.009 l -53.08019,30.58637 c -2.88307,1.66012 -6.43186,1.66012 -9.31491,0 L 150.2083,211.74864 c -2.88722,-1.66249 -6.44166,-1.65996 -9.32649,0.007 -2.88483,1.66661 -4.66256,4.74457 -4.66457,8.07622 v 87.73535 c 0.003,3.32799 -1.7677,6.40544 -4.64542,8.07706 -2.87773,1.67163 -6.42784,1.68452 -9.31762,0.0339 L 92.704115,298.7844 c -2.913693,-1.66435 -4.709748,-4.76467 -4.704138,-8.12023 l 0.261421,-153.35093 c 0.0078,-3.32709 1.784999,-6.39878 4.666257,-8.06252 2.881251,-1.66374 6.430293,-1.66793 9.315465,-0.0105 l 101.2228,58.13895 c 2.87831,1.65295 6.41793,1.65295 9.29626,0 l 101.19479,-58.13895 c 2.8895,-1.65937 6.4445,-1.6525 9.32757,0.0182 2.88306,1.67056 4.65689,4.7514 4.65415,8.08349 v 153.38825 c 0.002,3.33975 -1.7819,6.42568 -4.67613,8.09222 l -52.99614,30.52085 c -2.89746,1.67033 -4.67979,4.76325 -4.67207,8.1077 0.008,3.34443 1.80427,6.42912 4.70941,8.08608 l 29.23282,16.64179 c 2.87447,1.63647 6.40037,1.62938 9.26825,-0.0187 z m 6.13217,-137.59581 c 0.003,3.36035 1.81144,6.45988 4.7358,8.1152 2.92435,1.65534 6.51278,1.61091 9.39525,-0.11629 l 28.00077,-16.80045 c 2.8117,-1.68482 4.53355,-4.72105 4.53613,-7.99889 v -34.23562 c -0.007,-3.35869 -1.81612,-6.45513 -4.73986,-8.10817 -2.92372,-1.65306 -6.51015,-1.60775 -9.39119,0.11864 l -28.00079,16.80046 c -2.81168,1.68482 -4.53353,4.72105 -4.53611,7.9989 v 34.2356 z"
       fill="#007fff"
       id="path1-8"
       style="stroke-width:1.3125" /></g></svg>
