<?xml version="1.0" encoding="UTF-8" standalone="no"?>
<!-- Created with Inkscape (http://www.inkscape.org/) -->

<svg
   width="512"
   height="512"
   viewBox="0 0 512 512"
   version="1.1"
   id="svg1"
   xml:space="preserve"
   xmlns="http://www.w3.org/2000/svg"
   xmlns:svg="http://www.w3.org/2000/svg"><defs
     id="defs1" /><g
     id="layer1"><circle
       style="fill:#f2f2f2;fill-opacity:1;stroke:#afafaf;stroke-width:8;stroke-dasharray:none;stroke-opacity:1"
       id="path1"
       cx="256.00003"
       cy="256.00006"
       r="241.31339" /><g
       id="g1"
       transform="matrix(0.7,0,0,0.7,76.8,76.8)"><path
         d="m 216.398,16 h -91.87 v 480 c 30.128,-7.135 61.601,-10.708 91.87,-12.052 z"
         fill="#c20000"
         id="path2" /><path
         d="m 216.398,16 h -91.87 v 367.267 c 30.128,-7.135 61.601,-10.707 91.87,-12.051 z"
         fill="url(#a)"
         id="path3" /><path
         d="M 387.472,496 V 16 h -91.87 v 468.904 c 53.636,3.416 91.87,11.096 91.87,11.096 z"
         fill="#c20000"
         id="path4" /><path
         d="M 387.472,496 V 177.445 h -91.87 v 307.459 c 53.636,3.416 91.87,11.096 91.87,11.096 z"
         fill="url(#b)"
         id="path5" /><path
         d="M 387.472,496 216.398,16 h -91.87 l 167.03,468.655 c 55.75,3.276 95.914,11.345 95.914,11.345 z"
         fill="#fa0000"
         id="path6" /></g></g></svg>
