<?xml version="1.0" encoding="UTF-8" standalone="no"?>
<!-- Created with Inkscape (http://www.inkscape.org/) -->

<svg
   width="512"
   height="512"
   viewBox="0 0 512 512"
   version="1.1"
   id="svg1"
   xml:space="preserve"
   inkscape:version="1.4.2 (f4327f4, 2025-05-13)"
   sodipodi:docname="notion.svg"
   xmlns:inkscape="http://www.inkscape.org/namespaces/inkscape"
   xmlns:sodipodi="http://sodipodi.sourceforge.net/DTD/sodipodi-0.dtd"
   xmlns="http://www.w3.org/2000/svg"
   xmlns:svg="http://www.w3.org/2000/svg"><sodipodi:namedview
     id="namedview1"
     pagecolor="#ffffff"
     bordercolor="#999999"
     borderopacity="1"
     inkscape:showpageshadow="2"
     inkscape:pageopacity="0"
     inkscape:pagecheckerboard="0"
     inkscape:deskcolor="#d1d1d1"
     inkscape:document-units="px"
     showgrid="false"
     inkscape:zoom="1"
     inkscape:cx="313"
     inkscape:cy="277.5"
     inkscape:window-width="1920"
     inkscape:window-height="1001"
     inkscape:window-x="-9"
     inkscape:window-y="-9"
     inkscape:window-maximized="1"
     inkscape:current-layer="layer1"><inkscape:grid
       id="grid1"
       units="mm"
       originx="0"
       originy="0"
       spacingx="1"
       spacingy="1"
       empcolor="#0099e5"
       empopacity="0.30196078"
       color="#0099e5"
       opacity="0.14901961"
       empspacing="5"
       enabled="true"
       visible="false" /></sodipodi:namedview><defs
     id="defs1"><inkscape:path-effect
       effect="fillet_chamfer"
       id="path-effect1"
       is_visible="true"
       lpeversion="1"
       nodesatellites_param="F,0,0,1,0,2.2572315,0,1 @ F,0,0,1,0,2.608162,0,1 @ F,0,0,1,0,2.5997618,0,1 @ F,0,0,1,0,3.0078049,0,1 @ F,0,0,1,0,2.2522004,0,1 @ F,0,0,1,0,2.8010871,0,1"
       radius="0"
       unit="px"
       method="auto"
       mode="F"
       chamfer_steps="1"
       flexible="false"
       use_knot_distance="true"
       apply_no_radius="true"
       apply_with_radius="true"
       only_selected="false"
       hide_knots="false" /></defs><g
     inkscape:label="Layer 1"
     inkscape:groupmode="layer"
     id="layer1"><circle
       style="fill:#f2f2f2;fill-opacity:1;stroke:#afafaf;stroke-width:8;stroke-dasharray:none;stroke-opacity:1"
       id="path1"
       inkscape:label="background"
       cx="256.00003"
       cy="256.00006"
       r="241.31339" /><g
       style="fill:none"
       id="g1"
       transform="matrix(2.9999422,0,0,2.9999422,112.43177,106.00358)"><path
         d="M 6.017,4.313 61.35,0.226 c 6.797,-0.583 8.543,-0.19 12.817,2.917 L 91.83,15.586 c 2.913,2.14 3.883,2.723 3.883,5.053 v 68.243 c 0,4.277 -1.553,6.807 -6.99,7.193 l -64.256,3.892 c -4.08,0.193 -6.023,-0.39 -8.16,-3.113 L 3.3,79.94 C 0.967,76.827 0,74.497 0,71.773 V 11.113 C 0,7.616 1.553,4.7 6.017,4.313 Z"
         fill="#ffffff"
         id="path1-0" /><path
         fill-rule="evenodd"
         clip-rule="evenodd"
         d="M 61.35,0.227 6.017,4.314 C 1.553,4.7 0,7.617 0,11.113 v 60.66 c 0,2.723 0.967,5.053 3.3,8.167 l 13.007,16.913 c 2.137,2.723 4.08,3.307 8.16,3.113 l 64.257,-3.89 c 5.433,-0.387 6.99,-2.917 6.99,-7.193 V 20.64 c 0,-2.21 -0.873,-2.847 -3.443,-4.733 L 74.167,3.143 C 69.894,0.036 68.147,-0.357 61.35,0.226 Z M 25.92,19.523 c -5.247,0.353 -6.437,0.433 -9.417,-1.99 L 8.927,11.507 C 8.157,10.727 8.544,9.754 10.484,9.56 L 63.677,5.673 c 4.467,-0.39 6.793,1.167 8.54,2.527 l 9.123,6.61 c 0.39,0.197 1.36,1.36 0.193,1.36 L 26.6,19.477 25.92,19.524 Z M 19.803,88.3 V 30.367 c 0,-2.53 0.777,-3.697 3.103,-3.893 L 86,22.78 c 2.14,-0.193 3.107,1.167 3.107,3.693 V 84.02 c 0,2.53 -0.39,4.67 -3.883,4.863 l -60.377,3.5 c -3.493,0.193 -5.043,-0.97 -5.043,-4.083 z m 59.6,-54.827 c 0.387,1.75 0,3.5 -1.75,3.7 l -2.91,0.577 v 42.773 c -2.527,1.36 -4.853,2.137 -6.797,2.137 -3.107,0 -3.883,-0.973 -6.21,-3.887 L 42.706,48.833 V 77.8 l 6.02,1.363 c 0,0 0,3.5 -4.857,3.5 l -13.39,0.777 c -0.39,-0.78 0,-2.723 1.357,-3.11 l 3.497,-0.97 V 41.06 L 30.48,40.667 c -0.39,-1.75 0.58,-4.277 3.3,-4.473 l 14.367,-0.967 19.8,30.327 V 38.724 L 62.9,38.144 c -0.39,-2.143 1.163,-3.7 3.103,-3.89 l 13.4,-0.78 z"
         fill="#000000"
         id="path2" /></g></g></svg>
