<?xml version="1.0" encoding="UTF-8" standalone="no"?>
<!-- Created with Inkscape (http://www.inkscape.org/) -->

<svg
   width="512"
   height="512"
   viewBox="0 0 512 512"
   version="1.1"
   id="svg1"
   xml:space="preserve"
   inkscape:version="1.4.2 (f4327f4, 2025-05-13)"
   sodipodi:docname="numpy.svg"
   xmlns:inkscape="http://www.inkscape.org/namespaces/inkscape"
   xmlns:sodipodi="http://sodipodi.sourceforge.net/DTD/sodipodi-0.dtd"
   xmlns="http://www.w3.org/2000/svg"
   xmlns:svg="http://www.w3.org/2000/svg"><sodipodi:namedview
     id="namedview1"
     pagecolor="#ffffff"
     bordercolor="#999999"
     borderopacity="1"
     inkscape:showpageshadow="2"
     inkscape:pageopacity="0"
     inkscape:pagecheckerboard="0"
     inkscape:deskcolor="#d1d1d1"
     inkscape:document-units="px"
     showgrid="false"
     inkscape:zoom="1"
     inkscape:cx="313"
     inkscape:cy="277.5"
     inkscape:window-width="1920"
     inkscape:window-height="1001"
     inkscape:window-x="-9"
     inkscape:window-y="-9"
     inkscape:window-maximized="1"
     inkscape:current-layer="layer1"><inkscape:grid
       id="grid1"
       units="mm"
       originx="0"
       originy="0"
       spacingx="1"
       spacingy="1"
       empcolor="#0099e5"
       empopacity="0.30196078"
       color="#0099e5"
       opacity="0.14901961"
       empspacing="5"
       enabled="true"
       visible="false" /></sodipodi:namedview><defs
     id="defs1"><inkscape:path-effect
       effect="fillet_chamfer"
       id="path-effect1"
       is_visible="true"
       lpeversion="1"
       nodesatellites_param="F,0,0,1,0,2.2572315,0,1 @ F,0,0,1,0,2.608162,0,1 @ F,0,0,1,0,2.5997618,0,1 @ F,0,0,1,0,3.0078049,0,1 @ F,0,0,1,0,2.2522004,0,1 @ F,0,0,1,0,2.8010871,0,1"
       radius="0"
       unit="px"
       method="auto"
       mode="F"
       chamfer_steps="1"
       flexible="false"
       use_knot_distance="true"
       apply_no_radius="true"
       apply_with_radius="true"
       only_selected="false"
       hide_knots="false" /></defs><g
     inkscape:label="Layer 1"
     inkscape:groupmode="layer"
     id="layer1"><circle
       style="fill:#f2f2f2;fill-opacity:1;stroke:#afafaf;stroke-width:8;stroke-dasharray:none;stroke-opacity:1"
       id="path1"
       inkscape:label="background"
       cx="256.00003"
       cy="256.00006"
       r="241.31339" /><g
       id="g2"
       transform="matrix(1.2280191,0,0,1.2280191,98.813052,88.000006)"><path
         d="m 191.54779,186.29239 0.0595,60.51974 -53.70424,26.79924 v -60.4933 z m 64.45303,-32.34551 v 60.73128 l -45.80462,22.85934 -0.0331,-60.45363 z m -64.53236,-48.66038 0.0595,59.88513 -53.62492,26.64719 v -59.90496 z m 64.53236,-32.081081 v 59.508321 l -45.8509,23.30886 -0.0397,-60.004114 z M 129.73899,66.165165 177.67221,90.359841 127.94091,115.33456 80.91334,91.715007 Z M 63.064809,32.510769 108.78349,55.588258 59.845463,81.131489 12.890606,57.551596 Z m 130.690911,0.35036 49.24211,24.690467 -44.0396,22.118958 -48.03237,-24.227729 z M 128.23178,0 172.56224,22.224726 130.05629,44.918803 84.377277,21.880977 Z"
         fill="#4dabcf"
         id="path1-0" /><path
         d="M 118.94393,131.91386 82.77091,113.7282 v 78.60625 c 0,0 -44.237915,-94.127867 -48.336466,-102.582782 -0.528846,-1.090743 -2.703722,-2.287256 -3.25901,-2.578121 C 23.242754,83.00889 0,71.23547 0,71.23547 v 138.87479 l 32.153798,17.18748 V 154.7071 c 0,0 43.768564,84.10624 44.211472,85.02511 0.442908,0.91887 4.838935,9.78364 9.532438,12.89722 6.253596,4.13821 33.052832,20.25478 33.052832,20.25478 z"
         fill="#4d77cf"
         id="path2" /></g></g></svg>
