<?xml version="1.0" encoding="UTF-8" standalone="no"?>
<!-- Created with Inkscape (http://www.inkscape.org/) -->

<svg
   width="512"
   height="512"
   viewBox="0 0 512 512"
   version="1.1"
   id="svg1"
   xml:space="preserve"
   inkscape:version="1.4.2 (f4327f4, 2025-05-13)"
   sodipodi:docname="nuxt.svg"
   xmlns:inkscape="http://www.inkscape.org/namespaces/inkscape"
   xmlns:sodipodi="http://sodipodi.sourceforge.net/DTD/sodipodi-0.dtd"
   xmlns="http://www.w3.org/2000/svg"
   xmlns:svg="http://www.w3.org/2000/svg"><sodipodi:namedview
     id="namedview1"
     pagecolor="#ffffff"
     bordercolor="#999999"
     borderopacity="1"
     inkscape:showpageshadow="2"
     inkscape:pageopacity="0"
     inkscape:pagecheckerboard="0"
     inkscape:deskcolor="#d1d1d1"
     inkscape:document-units="px"
     showgrid="false"
     inkscape:zoom="1"
     inkscape:cx="313"
     inkscape:cy="277.5"
     inkscape:window-width="1920"
     inkscape:window-height="1001"
     inkscape:window-x="-9"
     inkscape:window-y="-9"
     inkscape:window-maximized="1"
     inkscape:current-layer="layer1"><inkscape:grid
       id="grid1"
       units="mm"
       originx="0"
       originy="0"
       spacingx="1"
       spacingy="1"
       empcolor="#0099e5"
       empopacity="0.30196078"
       color="#0099e5"
       opacity="0.14901961"
       empspacing="5"
       enabled="true"
       visible="false" /></sodipodi:namedview><defs
     id="defs1"><inkscape:path-effect
       effect="fillet_chamfer"
       id="path-effect1"
       is_visible="true"
       lpeversion="1"
       nodesatellites_param="F,0,0,1,0,2.2572315,0,1 @ F,0,0,1,0,2.608162,0,1 @ F,0,0,1,0,2.5997618,0,1 @ F,0,0,1,0,3.0078049,0,1 @ F,0,0,1,0,2.2522004,0,1 @ F,0,0,1,0,2.8010871,0,1"
       radius="0"
       unit="px"
       method="auto"
       mode="F"
       chamfer_steps="1"
       flexible="false"
       use_knot_distance="true"
       apply_no_radius="true"
       apply_with_radius="true"
       only_selected="false"
       hide_knots="false" /></defs><g
     inkscape:label="Layer 1"
     inkscape:groupmode="layer"
     id="layer1"><circle
       style="fill:#f2f2f2;fill-opacity:1;stroke:#afafaf;stroke-width:8;stroke-dasharray:none;stroke-opacity:1"
       id="path1"
       inkscape:label="background"
       cx="256.00003"
       cy="256.00006"
       r="241.31339" /><g
       style="fill:none"
       id="g1"
       transform="matrix(0.84905658,0,0,0.84905658,38.641519,18.358355)"><path
         d="m 281.44,397.667 h 156.88 c 5.006,0 9.798,-1.759 14.133,-4.24 4.336,-2.481 8.805,-5.596 11.307,-9.894 2.502,-4.297 4.242,-9.173 4.24,-14.134 -0.002,-4.962 -1.734,-9.836 -4.24,-14.131 l -106,-182.321 c -2.502,-4.297 -5.559,-7.413 -9.893,-9.894 -4.335,-2.48 -10.542,-4.24 -15.547,-4.24 -5.005,0 -9.799,1.76 -14.133,4.24 -4.335,2.481 -7.392,5.597 -9.894,9.894 l -26.853,46.64 -53.707,-90.457 c -2.504,-4.296 -5.557,-8.823 -9.893,-11.303 -4.336,-2.481 -9.127,-2.827 -14.133,-2.827 -5.006,0 -9.798,0.346 -14.134,2.827 -4.335,2.48 -8.802,7.007 -11.306,11.303 L 46.8267,355.268 c -2.5059,4.295 -2.8245,9.169 -2.8267,14.131 -0.0022,4.961 0.3246,9.836 2.8267,14.134 2.5021,4.297 6.9712,7.413 11.3066,9.894 4.3355,2.481 9.127,4.24 14.1334,4.24 H 171.2 c 39.201,0 67.734,-17.585 87.627,-50.88 L 306.88,263.4 332.32,219.587 410.053,352.44 H 306.88 Z M 169.787,352.44 H 100.533 L 203.707,174.36 256,263.4 221.361,323.784 c -13.21,21.603 -28.272,28.656 -51.574,28.656 z"
         fill="#00dc82"
         id="path1-8" /></g></g></svg>
