<?xml version="1.0" encoding="UTF-8" standalone="no"?>
<!-- Created with Inkscape (http://www.inkscape.org/) -->

<svg
   width="512"
   height="512"
   viewBox="0 0 512 512"
   version="1.1"
   id="svg1"
   xml:space="preserve"
   xmlns="http://www.w3.org/2000/svg"
   xmlns:svg="http://www.w3.org/2000/svg"><defs
     id="defs1"><linearGradient
       x1="2.2803413"
       y1="242.80092"
       x2="127.3268"
       y2="41.492555"
       id="linearGradient-1"
       gradientTransform="scale(0.85952051,1.1634394)"
       gradientUnits="userSpaceOnUse"><stop
         stop-color="#765AF8"
         offset="2%"
         id="stop1" /><stop
         stop-color="#B345F1"
         offset="38%"
         id="stop2" /><stop
         stop-color="#FA3293"
         offset="76%"
         id="stop3" /><stop
         stop-color="#FF318C"
         offset="94%"
         id="stop4" /></linearGradient><linearGradient
       x1="175.92417"
       y1="179.35962"
       x2="118.55677"
       y2="27.208372"
       id="linearGradient-2"
       gradientTransform="scale(1.0570463,0.94603233)"
       gradientUnits="userSpaceOnUse"><stop
         stop-color="#765AF8"
         offset="18%"
         id="stop5" /><stop
         stop-color="#8655F6"
         offset="24%"
         id="stop6" /><stop
         stop-color="#9F4CF3"
         offset="34%"
         id="stop7" /><stop
         stop-color="#AE47F2"
         offset="44%"
         id="stop8" /><stop
         stop-color="#B345F1"
         offset="52%"
         id="stop9" /></linearGradient><linearGradient
       x1="252.53885"
       y1="192.1189"
       x2="98.52618"
       y2="92.212688"
       id="linearGradient-3"
       gradientTransform="scale(0.9158987,1.0918238)"
       gradientUnits="userSpaceOnUse"><stop
         stop-color="#765AF8"
         offset="2%"
         id="stop10" /><stop
         stop-color="#B345F1"
         offset="38%"
         id="stop11" /></linearGradient></defs><g
     id="layer1"><circle
       style="fill:#f2f2f2;fill-opacity:1;stroke:#afafaf;stroke-width:8;stroke-dasharray:none;stroke-opacity:1"
       id="path1"
       cx="256.00003"
       cy="256.00006"
       r="241.31339" /><g
       id="g12"
       transform="matrix(1.3125,0,0,1.3125,88,88)"><path
         d="M 0,49.2 43.6,0 132.8,19.2 144.8,55.6 136,118.8 100.53769,100.65164 102.4,151.2 v 44 l -78,0.8 z"
         fill="url(#linearGradient-1)"
         id="path11"
         style="fill:url(#linearGradient-1)" /><polygon
         fill="url(#linearGradient-2)"
         points="221.2,144.4 164.8,135.2 129.2,172 80.8,150 85.6,89.6 158,15.2 222.8,27.2 256,110 "
         id="polygon11"
         style="fill:url(#linearGradient-2)" /><polygon
         fill="url(#linearGradient-3)"
         points="158,15.2 54,107.6 74,226 160.4,256 256,198.8 "
         id="polygon12"
         style="fill:url(#linearGradient-3)" /><rect
         fill="#000000"
         x="48"
         y="48"
         width="160"
         height="160"
         id="rect12" /><path
         d="m 63.2,178 h 60 v 10 h -60 z M 62.4,68.8 h 27.2 c 16,0 25.6,9.2 25.6,22.8 0,15.2 -12,23.2 -26.8,23.2 H 77.2 v 20 H 62.4 Z m 26.4,34 c 6.98,0 11.6,-4.8 11.6,-10.4 0,-6.4 -4.4,-10 -12,-10 H 77.2 v 20.4 z m 30,22.8 8.8,-10.4 c 6,4.8 12.4,8 20,8 6,0 9.6,-2.4 9.6,-6.4 0,-3.6 -2.4,-5.6 -13.6,-8.4 -13.6,-3.6 -22,-7.2 -22,-20.4 v -0.4 c 0,-12 9.6,-20 23.2,-20 8.9712,-0.03845 17.69874,2.917656 24.8,8.4 L 162,87.2 c -6,-4 -11.6,-6.4 -17.2,-6.4 -5.6,0 -8.4,2.4 -8.4,6 0,4.4 2.8,6 14.4,8.8 13.6,3.6 21.2,8.4 21.2,20 0,13.2 -10,20.8 -24.4,20.8 -10.61546,0.14349 -20.8964,-3.71186 -28.8,-10.8 z"
         fill="#ffffff"
         id="path12" /></g></g></svg>
