<?xml version="1.0" encoding="UTF-8" standalone="no"?>
<!-- Created with Inkscape (http://www.inkscape.org/) -->

<svg
   width="512"
   height="512"
   viewBox="0 0 512 512"
   version="1.1"
   id="svg1"
   xml:space="preserve"
   xmlns="http://www.w3.org/2000/svg"
   xmlns:svg="http://www.w3.org/2000/svg"><defs
     id="defs1" /><g
     id="layer1"><circle
       style="fill:#2e3548;fill-opacity:1;stroke:#858585;stroke-width:8;stroke-dasharray:none;stroke-opacity:1"
       id="path1"
       cx="256.00003"
       cy="256.00006"
       r="241.31339" /><g
       id="g1"
       transform="matrix(0.93319756,0,0,0.93319756,16.256271,17.999999)"><g
         stroke-width="2"
         fill="none"
         stroke-linecap="butt"
         id="g42"><path
           stroke="#337184"
           vector-effect="non-scaling-stroke"
           d="M 284.31,71.73 C 217.21,83.88 180.08,139.53 173,203.75 q -1.29,11.73 -1.86,23.52"
           id="path1-0" /><path
           stroke="#376d83"
           vector-effect="non-scaling-stroke"
           d="m 171.14,227.27 -0.3,31.52"
           id="path2" /><path
           stroke="#3b6882"
           vector-effect="non-scaling-stroke"
           d="m 170.84,258.79 q 0.07,0.26 0.02,0.48 -0.05,0.24 -0.29,0.35 -0.34,0.17 -0.8,0.14"
           id="path3" /><path
           stroke="#376d83"
           vector-effect="non-scaling-stroke"
           d="m 169.77,259.76 c -15.08,-0.17 -30.4,-3 -45.11,-5.74"
           id="path4" /><path
           stroke="#337184"
           vector-effect="non-scaling-stroke"
           d="M 124.66,254.02 Q 96.5,248.21 70.07,237.79 a 0.22,0.22 0 0 0 -0.3,0.2 l 0.01,42.82"
           id="path5" /><path
           stroke="#376d83"
           vector-effect="non-scaling-stroke"
           d="m 69.78,280.81 0.01,21.65 q 0,0.54 0.51,0.7 l 10.16,3.12"
           id="path6" /><path
           stroke="#3b6882"
           vector-effect="non-scaling-stroke"
           d="m 80.46,306.28 q 21.43,6.43 43.47,10.03"
           id="path7" /><path
           stroke="#3f6381"
           vector-effect="non-scaling-stroke"
           d="m 123.93,316.31 q 22.26,3.78 44.8,4.98"
           id="path8" /><path
           stroke="#445d81"
           vector-effect="non-scaling-stroke"
           d="m 168.73,321.29 6.6,0.3 q 0.56,0.02 0.64,0.58 l 2.79,20.61"
           id="path9" /><path
           stroke="#475980"
           vector-effect="non-scaling-stroke"
           d="m 178.76,342.78 3.64,25.39"
           id="path10" /><path
           stroke="#4d527f"
           vector-effect="non-scaling-stroke"
           d="m 182.4,368.17 9.48,53.82"
           id="path11" /><path
           stroke="#58447d"
           vector-effect="non-scaling-stroke"
           d="m 191.88,421.99 10.91,49.13 q 0.12,0.55 0.68,0.55 l 63.51,-0.01 q 0.49,0 0.37,-0.47 -10.76,-40.78 -18.45,-82.18"
           id="path12" /><path
           stroke="#4d527f"
           vector-effect="non-scaling-stroke"
           d="m 248.9,389.01 q -5.22,-28.68 -8.84,-57.81"
           id="path13" /><path
           stroke="#475980"
           vector-effect="non-scaling-stroke"
           d="m 240.06,331.2 -1.3,-11.44 q -0.06,-0.57 0.5,-0.67 l 26.06,-4.83"
           id="path14" /><path
           stroke="#4d527f"
           vector-effect="non-scaling-stroke"
           d="m 265.32,314.26 c 29.51,-6.55 57.86,-18.33 81.66,-37 43.47,-34.11 64.19,-88.48 46.17,-141.97"
           id="path15" /><path
           stroke="#475980"
           vector-effect="non-scaling-stroke"
           d="m 393.15,135.29 c -3.42,-9.92 -8.12,-20.45 -14.84,-28.77"
           id="path16" /><path
           stroke="#445d81"
           vector-effect="non-scaling-stroke"
           d="M 378.31,106.52 Q 369.73,95.46 358.3,87.43"
           id="path17" /><path
           stroke="#3f6381"
           vector-effect="non-scaling-stroke"
           d="M 358.3,87.43 Q 347.87,79.99 335.74,75.8"
           id="path18" /><path
           stroke="#3b6882"
           vector-effect="non-scaling-stroke"
           d="m 335.74,75.8 q -12.6,-4.41 -25.97,-5.28"
           id="path19" /><path
           stroke="#376d83"
           vector-effect="non-scaling-stroke"
           d="m 309.77,70.52 q -12.81,-0.85 -25.46,1.21"
           id="path20" /><path
           stroke="#4aacdd"
           vector-effect="non-scaling-stroke"
           d="m 309.77,70.52 q 0.25,0.26 0.76,0.29 0.27,0.02 0.04,0.16 c -0.4,0.26 -0.65,0.57 -0.7,1.08 q -0.04,0.49 -0.39,0.83 -0.83,0.82 -0.6,2.02 0.1,0.55 -0.34,0.9 -0.98,0.79 -0.66,2.08 0.14,0.56 -0.31,0.9 -1,0.78 -0.7,2.06 0.13,0.54 -0.3,0.88 -1.03,0.84 -0.65,2.18 0.17,0.58 -0.32,0.92 -1.19,0.85 -0.65,2.44 a 0.48,0.47 74 0 1 -0.33,0.61 q -0.82,0.21 -0.76,1.02 0.04,0.53 -0.34,0.9 -1.04,1.01 -0.58,2.49 a 0.46,0.46 0 0 1 -0.33,0.59 q -0.81,0.21 -0.75,1.02 0.04,0.53 -0.34,0.9 -1.04,1.01 -0.58,2.49 a 0.46,0.46 0 0 1 -0.33,0.59 q -0.81,0.21 -0.75,1.02 0.04,0.53 -0.34,0.9 -1.04,1.01 -0.58,2.48 a 0.48,0.48 0 0 1 -0.32,0.6 q -0.97,0.28 -0.72,1.37 0.1,0.46 -0.35,0.62 -0.7,0.26 -0.68,0.96 0.02,0.6 -0.4,1.03 -0.98,0.99 -0.53,2.42 a 0.48,0.48 0 0 1 -0.32,0.6 q -0.96,0.28 -0.73,1.35 0.1,0.44 -0.31,0.62 -0.92,0.42 -0.7,1.34 0.11,0.47 -0.32,0.67 -0.9,0.42 -0.68,1.33 0.11,0.47 -0.32,0.68 -0.9,0.41 -0.68,1.32 0.11,0.47 -0.32,0.67 -0.9,0.42 -0.68,1.33 0.11,0.47 -0.32,0.68 -0.9,0.41 -0.68,1.32 0.11,0.47 -0.32,0.67 -0.9,0.42 -0.68,1.33 0.11,0.47 -0.32,0.68 -0.9,0.41 -0.68,1.32 0.11,0.47 -0.32,0.67 -0.9,0.42 -0.68,1.33 0.12,0.47 -0.32,0.68 -0.91,0.42 -0.67,1.35 0.13,0.5 -0.35,0.67 -0.74,0.26 -0.68,1.02 0.04,0.56 -0.35,0.96 l -1.28,1.31 q -0.31,0.32 -0.31,0.78 0.01,0.93 -0.52,2.04"
           id="path21" /><path
           stroke="#376d83"
           vector-effect="non-scaling-stroke"
           d="m 282.4,135.99 c -23.21,11.09 -40.18,33.61 -46.19,58.45 q -1.38,5.69 -2.44,9.92"
           id="path22" /><path
           stroke="#4aacdd"
           vector-effect="non-scaling-stroke"
           d="m 233.77,204.36 -23.08,23.34 q -0.18,0.18 -0.44,0.18 h -0.32 q -0.43,0 -0.73,0.31 l -7.51,7.51 q -0.19,0.18 -0.45,0.18 h -0.31 q -0.43,0 -0.73,0.31 l -4.51,4.51 q -0.18,0.18 -0.44,0.18 h -0.32 q -0.43,0 -0.73,0.31 l -4.51,4.51 q -0.18,0.18 -0.44,0.18 h -0.32 q -0.43,0 -0.74,0.31 l -2.49,2.51 q -0.19,0.18 -0.45,0.18 h -0.32 q -0.43,0 -0.74,0.31 l -2.49,2.51 q -0.19,0.18 -0.45,0.18 h -0.32 q -0.43,0 -0.74,0.31 l -2.49,2.51 q -0.19,0.18 -0.45,0.18 h -0.28 q -0.42,0 -0.72,0.3 l -2.23,2.14 q -0.4,0.38 -0.93,0.48 -1.27,0.24 -1.69,1.5 -0.07,0.19 -0.15,0 -0.12,-0.3 -0.41,-0.51"
           id="path23" /><path
           stroke="#42b6de"
           vector-effect="non-scaling-stroke"
           d="m 171.14,227.27 0.2,1.44 q 0.05,0.37 0.17,0.01 0.45,-1.26 1.59,-2.4 0.42,-0.42 0.99,-0.47 0.45,-0.05 0.77,-0.36 l 4.46,-4.34 q 0.24,-0.23 0.56,-0.25 l 0.29,-0.01 q 0.33,-0.02 0.57,-0.26 l 4.62,-4.54 q 0.17,-0.17 0.4,-0.18 l 0.34,-0.02 q 0.42,-0.02 0.71,-0.32 l 11.55,-11.48 q 0.17,-0.17 0.41,-0.18 l 0.32,-0.02 q 0.41,-0.02 0.71,-0.32 l 6.88,-6.86 q 0.19,-0.18 0.2,-0.44 l 0.03,-0.5 a 0.63,0.62 -22.6 0 1 0.17,-0.4 l 11.67,-11.73 q 0.13,-0.13 0.13,-0.32 0,-0.18 0.02,-0.36 0.04,-0.44 0.35,-0.75 l 4.44,-4.51 q 0.18,-0.18 0.19,-0.44 l 0.03,-0.49 a 0.62,0.62 0 0 1 0.18,-0.41 l 4.61,-4.66 q 0.18,-0.19 0.18,-0.44 0.01,-0.2 0.03,-0.39 0.04,-0.39 0.31,-0.66 l 2.49,-2.5 q 0.17,-0.17 0.17,-0.42 0,-0.17 0.02,-0.33 0.04,-0.43 0.34,-0.74 l 2.47,-2.52 q 0.17,-0.18 0.17,-0.42 0.01,-0.16 0.02,-0.32 0.05,-0.5 0.42,-0.85 c 0.8,-0.76 1.51,-1.69 2.35,-2.38 q 0.3,-0.25 0.22,-0.68 -0.08,-0.5 0.29,-0.84 1.07,-0.96 1.99,-1.97 c 0.9,-0.98 0.86,-2.2 2.15,-3.19 q 0.31,-0.24 0.41,-0.61 0.41,-1.46 1.6,-2.4 0.3,-0.24 0.4,-0.6 0.41,-1.46 1.6,-2.4 0.3,-0.24 0.4,-0.6 0.41,-1.46 1.6,-2.4 0.3,-0.24 0.4,-0.6 0.45,-1.61 1.85,-2.58 0.35,-0.25 0.3,-0.68 -0.09,-0.75 0.48,-1.25 0.39,-0.34 0.54,-0.83 0.37,-1.25 1.43,-2.06 0.3,-0.23 0.4,-0.59 0.45,-1.62 1.86,-2.6 0.35,-0.25 0.29,-0.68 -0.13,-0.93 0.65,-1.3 0.42,-0.2 0.35,-0.66 -0.09,-0.73 0.43,-1.23 0.38,-0.35 0.53,-0.83 0.44,-1.42 1.75,-2.28 0.36,-0.24 0.3,-0.67 -0.15,-0.96 0.65,-1.33 0.42,-0.2 0.35,-0.66 -0.15,-0.97 0.64,-1.34 0.43,-0.2 0.36,-0.66 -0.15,-0.97 0.67,-1.3 0.49,-0.2 0.38,-0.72 -0.21,-0.95 0.61,-1.27 0.51,-0.2 0.4,-0.73 -0.17,-0.77 0.43,-1.27 0.32,-0.26 0.43,-0.66 0.42,-1.5 1.77,-2.4 0.37,-0.24 0.31,-0.67 -0.14,-0.96 0.65,-1.32 0.42,-0.2 0.35,-0.66 -0.16,-0.99 0.68,-1.36 0.45,-0.19 0.35,-0.66 -0.31,-1.45 0.63,-2.39 0.4,-0.4 0.36,-0.97 -0.04,-0.67 0.64,-0.9 0.52,-0.18 0.39,-0.72 -0.22,-0.97 0.62,-1.29 0.5,-0.2 0.38,-0.73 -0.21,-0.96 0.59,-1.32 0.43,-0.19 0.36,-0.66 -0.16,-0.98 0.67,-1.35 0.44,-0.2 0.34,-0.66 -0.23,-1.07 0.65,-1.35 0.47,-0.16 0.37,-0.65 -0.32,-1.49 0.64,-2.49 0.38,-0.4 0.36,-0.94 -0.02,-0.64 0.61,-0.9 0.44,-0.18 0.36,-0.65 -0.16,-1 0.68,-1.37 0.45,-0.19 0.35,-0.66 -0.3,-1.44 0.6,-2.42 0.36,-0.38 0.35,-0.89 0,-0.74 0.69,-1.01 0.46,-0.18 0.36,-0.67 -0.31,-1.45 0.6,-2.43 0.36,-0.38 0.35,-0.89 0,-0.74 0.69,-1.02 0.46,-0.18 0.36,-0.66 -0.31,-1.49 0.61,-2.52 0.34,-0.37 0.34,-0.87 0,-1.67 1.44,-3.08"
           id="path24" /><path
           stroke="#445d81"
           vector-effect="non-scaling-stroke"
           d="m 322.47,213.97 c -16.2,18.65 -41.03,29.97 -64,36.93"
           id="path25" /><path
           stroke="#3f6381"
           vector-effect="non-scaling-stroke"
           d="m 258.47,250.9 q -13.31,3.98 -27.24,6.26 a 0.37,0.37 0 0 1 -0.43,-0.36 l -0.15,-12.59"
           id="path26" /><path
           stroke="#3b6882"
           vector-effect="non-scaling-stroke"
           d="m 230.65,244.21 q -0.08,-19.24 3.12,-39.85"
           id="path27" /><path
           stroke="#52a2db"
           vector-effect="non-scaling-stroke"
           d="m 230.65,244.21 -0.15,-1.49 q -0.09,-0.89 -0.37,-0.05 -0.35,1.05 -0.63,1.32 -2.97,2.76 -5.78,5.69 -0.19,0.2 -0.47,0.2 h -0.32 q -0.43,0 -0.73,0.31 l -6.51,6.51 q -0.19,0.18 -0.45,0.18 h -0.31 q -0.43,0 -0.73,0.31 l -4.51,4.51 q -0.18,0.18 -0.44,0.18 h -0.32 q -0.43,0 -0.73,0.31 l -3.51,3.51 q -0.18,0.18 -0.44,0.18 h -0.32 q -0.43,0 -0.74,0.31 l -2.49,2.51 q -0.19,0.18 -0.45,0.18 h -0.32 q -0.43,0 -0.74,0.31 l -2.49,2.51 q -0.19,0.18 -0.45,0.18 h -0.32 q -0.43,0 -0.74,0.31 l -2.49,2.51 q -0.19,0.18 -0.45,0.18 h -0.34 q -0.43,0 -0.73,0.31 l -1.46,1.51 q -0.19,0.18 -0.45,0.18 h -0.34 q -0.43,0 -0.74,0.31 l -2.49,2.51 q -0.19,0.18 -0.45,0.18 h -0.34 q -0.43,0 -0.73,0.31 l -1.46,1.51 q -0.19,0.18 -0.45,0.18 h -0.36 q -0.43,0 -0.73,0.31 l -1.46,1.51 q -0.19,0.18 -0.45,0.18 h -0.33 q -0.42,0 -0.73,0.3 l -1.48,1.46 q -0.24,0.24 -0.59,0.24 h -0.36 a 0.68,0.67 -67.2 0 0 -0.48,0.2 l -1.48,1.44 q -0.38,0.38 -0.92,0.34 -0.68,-0.04 -1.01,0.57 -0.19,0.36 -0.59,0.42 -1.54,0.24 -2.35,1.64 -0.23,0.39 -0.68,0.39 h -0.49 a 0.68,0.67 -67.2 0 0 -0.48,0.2 l -1.48,1.44 q -0.38,0.38 -0.92,0.34 -0.66,-0.04 -0.99,0.54 -0.2,0.34 -0.59,0.41 -1.58,0.27 -2.42,1.77 -0.23,0.41 -0.68,0.31 -1,-0.21 -1.35,0.65 -0.18,0.47 -0.67,0.36 -0.81,-0.19 -1.25,0.41 -0.27,0.37 -0.7,0.49 -1.51,0.42 -2.39,1.78 -0.25,0.38 -0.7,0.3 -0.95,-0.18 -1.28,0.65 -0.19,0.46 -0.66,0.36 -1,-0.21 -1.35,0.64 -0.18,0.46 -0.66,0.36 -1,-0.21 -1.35,0.66 -0.18,0.45 -0.66,0.35 -0.99,-0.21 -1.34,0.64 -0.18,0.44 -0.65,0.35 -0.99,-0.21 -1.33,0.64 -0.19,0.46 -0.67,0.36 -0.99,-0.21 -1.34,0.64 -0.18,0.46 -0.66,0.36 -0.99,-0.21 -1.33,0.64 -0.19,0.46 -0.67,0.36 -0.99,-0.21 -1.34,0.64 -0.18,0.46 -0.66,0.36 -0.99,-0.21 -1.33,0.64 -0.19,0.46 -0.67,0.36 -0.99,-0.21 -1.34,0.64 -0.18,0.46 -0.66,0.36 -0.99,-0.21 -1.33,0.64 -0.19,0.46 -0.67,0.36 -0.99,-0.21 -1.34,0.64 -0.18,0.46 -0.66,0.36 -0.99,-0.21 -1.34,0.64 -0.18,0.46 -0.66,0.36 -0.99,-0.21 -1.35,0.64 -0.17,0.43 -0.62,0.36 -1.18,-0.19 -1.47,0.88 a 0.42,0.42 0 0 1 -0.43,0.31 q -0.27,-0.02 -0.42,0.13 -0.3,0.29 0.11,0.31 1.5,0.07 0.9,0.79"
           id="path28" /><path
           stroke="#4aacdd"
           vector-effect="non-scaling-stroke"
           d="m 80.46,306.28 q -0.21,-0.6 0.07,-0.97 0.29,-0.39 0.78,-0.38 0.43,0.01 0.6,-0.46 0.22,-0.59 0.84,-0.59 h 1.22 q 0.54,0 0.89,-0.4 0.78,-0.9 2.01,-0.6 0.61,0.15 1,-0.34 0.86,-1.1 2.4,-0.59 a 0.47,0.46 16.1 0 0 0.6,-0.33 q 0.21,-0.82 1.02,-0.76 0.53,0.04 0.9,-0.34 1.01,-1.04 2.49,-0.58 a 0.46,0.46 0 0 0 0.59,-0.33 q 0.21,-0.81 1.02,-0.75 0.53,0.04 0.9,-0.34 1.01,-1.04 2.49,-0.58 a 0.46,0.46 0 0 0 0.59,-0.33 q 0.21,-0.81 1.02,-0.75 0.53,0.04 0.9,-0.34 1.01,-1.04 2.48,-0.58 a 0.48,0.48 0 0 0 0.6,-0.32 q 0.28,-0.97 1.35,-0.73 0.44,0.1 0.62,-0.31 0.42,-0.93 1.37,-0.69 0.49,0.13 0.67,-0.35 0.25,-0.71 0.98,-0.68 0.57,0.02 0.98,-0.38 0.99,-0.99 2.43,-0.54 a 0.48,0.48 0 0 0 0.6,-0.32 q 0.28,-0.97 1.35,-0.73 0.44,0.1 0.62,-0.31 0.42,-0.92 1.34,-0.7 0.47,0.11 0.68,-0.32 0.41,-0.9 1.32,-0.68 0.47,0.11 0.67,-0.32 0.42,-0.9 1.33,-0.68 0.47,0.11 0.68,-0.32 0.41,-0.9 1.32,-0.68 0.47,0.11 0.67,-0.32 0.42,-0.9 1.33,-0.68 0.47,0.11 0.68,-0.32 0.41,-0.9 1.32,-0.68 0.47,0.11 0.67,-0.32 0.42,-0.9 1.33,-0.68 0.47,0.11 0.68,-0.32 0.41,-0.9 1.32,-0.68 0.47,0.11 0.67,-0.32 0.41,-0.88 1.3,-0.68 0.5,0.1 0.72,-0.36 0.43,-0.88 1.38,-0.62 a 0.54,0.54 0 0 0 0.61,-0.25 q 0.8,-1.42 2.29,-1.82 0.46,-0.13 0.77,-0.5 0.5,-0.6 1.27,-0.45 0.47,0.09 0.67,-0.34 0.41,-0.87 1.32,-0.66 0.47,0.12 0.68,-0.32 0.4,-0.89 1.31,-0.68 0.45,0.1 0.69,-0.29 0.83,-1.36 2.28,-1.76 0.49,-0.13 0.8,-0.53 0.36,-0.45 0.88,-0.44 0.51,0 0.92,-0.3 0.81,-0.59 1.35,-1.35 0.24,-0.33 0.64,-0.33 h 0.52 q 0.42,0 0.65,-0.35 0.83,-1.31 2.25,-1.7 0.48,-0.14 0.8,-0.53 0.37,-0.47 0.91,-0.43 0.56,0.04 0.97,-0.36 l 1.47,-1.43 a 0.68,0.67 -67.2 0 1 0.48,-0.2 h 0.47 q 0.41,0 0.64,-0.34 0.95,-1.45 2.59,-1.72 0.42,-0.07 0.64,-0.44 0.75,-1.27 2.15,-1.68 0.45,-0.13 0.8,-0.44 l 1.7,-1.5"
           id="path29" /><path
           stroke="#52a2db"
           vector-effect="non-scaling-stroke"
           d="m 335.74,75.8 -0.7,0.37 q -0.44,0.24 -0.51,0.73 c -0.27,1.87 -1.79,2.73 -1.62,5.06 q 0.04,0.52 -0.37,0.84 -0.97,0.79 -0.66,2.07 0.15,0.61 -0.34,1 -1.1,0.86 -0.59,2.4 a 0.47,0.46 73.9 0 1 -0.33,0.6 q -0.86,0.22 -0.75,1.1 0.06,0.52 -0.34,0.85 -0.97,0.78 -0.65,2.06 0.14,0.56 -0.31,0.9 -1.01,0.79 -0.69,2.09 0.15,0.61 -0.34,1 -1.1,0.86 -0.59,2.4 a 0.47,0.46 73.9 0 1 -0.33,0.6 q -0.82,0.21 -0.76,1.02 0.04,0.53 -0.34,0.9 -1.04,1.01 -0.58,2.49 a 0.46,0.46 0 0 1 -0.33,0.59 q -0.81,0.21 -0.75,1.02 0.04,0.53 -0.34,0.9 -1.04,1.01 -0.58,2.48 a 0.48,0.48 0 0 1 -0.32,0.6 q -0.97,0.28 -0.72,1.37 0.1,0.46 -0.35,0.62 -0.7,0.26 -0.68,0.96 0.02,0.6 -0.4,1.03 -0.98,0.99 -0.53,2.42 a 0.48,0.48 0 0 1 -0.32,0.6 q -0.96,0.28 -0.73,1.35 0.1,0.44 -0.31,0.62 -0.93,0.42 -0.69,1.37 0.13,0.49 -0.35,0.67 -0.71,0.25 -0.68,0.98 0.02,0.57 -0.38,0.98 -0.99,0.99 -0.54,2.43 a 0.48,0.48 0 0 1 -0.32,0.6 q -0.97,0.28 -0.73,1.35 0.1,0.44 -0.31,0.62 -0.92,0.42 -0.7,1.34 0.12,0.47 -0.32,0.68 -0.9,0.41 -0.67,1.34 0.08,0.34 -0.17,0.59 l -0.33,0.33 q -0.37,0.37 0.1,0.6 0.71,0.35 0.26,0.78"
           id="path30" /><path
           stroke="#3b6882"
           vector-effect="non-scaling-stroke"
           d="m 312.75,133.5 q -15,-4.89 -30.35,2.49"
           id="path31" /><path
           stroke="#6c82d6"
           vector-effect="non-scaling-stroke"
           d="m 393.15,135.29 q -0.06,0.59 -0.7,0.87 -0.42,0.19 -0.33,0.65 0.2,0.95 -0.62,1.3 a 0.74,0.73 70.6 0 0 -0.42,0.89 q 0.43,1.46 -0.6,2.11 -0.47,0.29 -0.37,0.82 0.17,0.87 -0.61,1.17 a 0.72,0.72 0 0 0 -0.43,0.88 q 0.45,1.49 -0.61,2.14 -0.41,0.26 -0.33,0.74 0.16,0.93 -0.66,1.27 -0.45,0.18 -0.36,0.66 0.21,1 -0.66,1.34 -0.44,0.18 -0.34,0.64 0.22,0.99 -0.61,1.34 a 0.73,0.72 70.3 0 0 -0.42,0.89 q 0.49,1.66 -0.92,2.3 -0.11,0.05 -0.16,-0.06 -0.06,-0.12 -0.12,-0.24 -0.01,-0.02 -0.13,0 -0.43,0.09 -0.59,0.43 -0.12,0.24 -0.03,0.65 0.32,1.46 -0.74,2.21 -0.44,0.31 -0.3,0.83 0.36,1.35 -0.69,2.19 -0.32,0.25 -0.26,0.65 0.1,0.85 -0.67,1.17 -0.45,0.18 -0.35,0.66 0.19,0.88 -0.62,1.41 -0.44,0.3 -0.37,0.82 0.11,0.8 -0.63,1.08 a 0.72,0.72 0 0 0 -0.43,0.88 q 0.45,1.49 -0.6,2.14 -0.43,0.26 -0.35,0.75 0.12,0.78 -0.44,1.2 -0.36,0.27 -0.48,0.7 -0.43,1.49 -1.77,2.37 -0.39,0.25 -0.3,0.7 0.17,0.96 -0.67,1.29 -0.47,0.18 -0.35,0.67 0.18,0.81 -0.43,1.26 -0.36,0.26 -0.48,0.69 -0.41,1.53 -1.82,2.42 -0.4,0.24 -0.28,0.69 0.38,1.46 -0.66,2.37 -0.37,0.34 -0.32,0.84 0.08,0.63 -0.43,0.95 -0.36,0.24 -0.47,0.67 -0.38,1.6 -1.85,2.45 a 0.57,0.56 -21.6 0 0 -0.27,0.61 q 0.24,1.02 -0.62,1.37 -0.48,0.2 -0.37,0.7 0.17,0.8 -0.43,1.23 -0.36,0.27 -0.48,0.7 -0.42,1.52 -1.78,2.39 -0.4,0.25 -0.3,0.71 0.15,0.78 -0.43,1.19 -0.37,0.27 -0.48,0.7 -0.42,1.52 -1.79,2.4 -0.4,0.25 -0.3,0.71 0.15,0.77 -0.43,1.19 -0.36,0.26 -0.48,0.7 -0.43,1.52 -1.76,2.4 -0.33,0.22 -0.33,0.61 v 0.47 a 0.68,0.67 -22.8 0 1 -0.2,0.48 l -1.44,1.48 q -0.38,0.38 -0.34,0.92 0.04,0.68 -0.57,1.01 -0.35,0.19 -0.42,0.59 -0.25,1.55 -1.66,2.36 -0.37,0.22 -0.37,0.64 v 0.39 q 0,0.43 -0.31,0.73 l -1.5,1.46 q -0.19,0.19 -0.19,0.45 v 0.36 q 0,0.43 -0.31,0.73 l -1.5,1.46 q -0.19,0.19 -0.19,0.45 v 0.36 q 0,0.43 -0.31,0.73 l -1.5,1.46 q -0.19,0.19 -0.19,0.45 v 0.34 q 0,0.43 -0.31,0.74 l -2.51,2.49 q -0.18,0.19 -0.18,0.45 v 0.34 q 0,0.43 -0.31,0.73 l -1.5,1.46 q -0.19,0.19 -0.19,0.45 v 0.35 q 0,0.42 -0.31,0.73 l -2.51,2.49 q -0.18,0.19 -0.18,0.45 v 0.33 q 0,0.42 -0.31,0.73 l -2.51,2.49 q -0.18,0.19 -0.18,0.45 v 0.32 q 0,0.43 -0.31,0.74 l -2.51,2.49 q -0.18,0.19 -0.18,0.45 v 0.33 q 0,0.42 -0.31,0.73 l -2.51,2.49 q -0.18,0.19 -0.18,0.45 v 0.32 q 0,0.43 -0.31,0.73 l -3.51,3.51 q -0.18,0.18 -0.18,0.44 v 0.47 a 0.75,0.72 -22.6 0 1 -0.23,0.53 l -2.12,2.07 q -0.3,0.3 -0.73,0.3 h -0.56 q -0.47,0 -0.36,0.46 0.26,1.08 -0.68,1.59 -0.32,0.17 -0.32,0.53 v 0.37 q 0,0.43 -0.31,0.73 l -8.51,8.51 q -0.18,0.19 -0.18,0.45 v 0.3 q 0,0.44 -0.31,0.74 l -16.32,16.33 q -0.4,0.4 -0.35,0.96 0.04,0.56 -0.35,0.87 -0.21,0.17 -0.48,0.16 -0.24,-0.01 -0.49,0.04 -0.44,0.09 -0.76,0.41 l -19.38,19.37 q -0.18,0.18 -0.43,0.18 h -0.32 q -0.45,0 -0.79,0.29 -3.02,2.54 -4.82,5.85"
           id="path32" /><path
           stroke="#6c82d6"
           vector-effect="non-scaling-stroke"
           d="m 240.06,331.2 q -0.42,2.24 -1.14,2.48 -0.77,1.28 -2.1,1.55 -0.51,0.1 -0.88,0.47 l -2.27,2.27 q -0.16,0.15 -0.37,0.15 -0.27,-0.01 -0.54,0.06 -0.44,0.1 -0.75,0.43 l -1.32,1.34 q -0.16,0.17 -0.39,0.17 -0.27,-0.01 -0.54,0.06 -0.44,0.1 -0.75,0.43 l -1.32,1.34 q -0.16,0.17 -0.39,0.17 -0.15,-0.01 -0.31,0.01 -0.39,0.05 -0.7,0.29 -0.91,0.67 -1.52,1.55 -0.13,0.18 -0.34,0.17 -0.21,-0.01 -0.38,-0.11 -0.33,-0.21 -0.6,0.07 l -1.71,1.84 q -0.17,0.19 -0.43,0.18 -0.28,-0.01 -0.55,0.06 -0.44,0.11 -0.76,0.43 l -1.22,1.26 q -0.24,0.25 -0.59,0.25 h -0.27 q -0.33,0 -0.57,0.22 l -1.68,1.6 a 0.66,0.65 -66.5 0 1 -0.45,0.18 h -0.47 q -0.42,0 -0.65,0.35 -0.82,1.29 -2.21,1.69 -0.48,0.14 -0.81,0.52 -0.5,0.59 -1.26,0.44 -0.45,-0.08 -0.68,0.3 -0.83,1.33 -2.25,1.74 -0.48,0.14 -0.81,0.52 -0.5,0.59 -1.26,0.44 -0.45,-0.08 -0.68,0.3 -0.83,1.33 -2.25,1.74 -0.48,0.14 -0.81,0.52 -0.5,0.59 -1.26,0.44 -0.45,-0.08 -0.68,0.3 -0.83,1.33 -2.25,1.74 -0.48,0.14 -0.8,0.52 -0.51,0.59 -1.28,0.44 -0.47,-0.09 -0.67,0.34 -0.42,0.89 -1.35,0.65 -0.49,-0.12 -0.66,0.35 -0.25,0.69 -0.94,0.68 -0.51,0 -0.92,0.29 -0.82,0.59 -1.37,1.38 -0.31,0.44 -0.84,0.32 -0.73,-0.16 -0.97,0.32 -0.19,0.38 -0.6,0.5 l -4.09,1.22"
           id="path33" /><path
           stroke="#638ed8"
           vector-effect="non-scaling-stroke"
           d="m 178.76,342.78 q 0.68,-0.89 1.49,-0.92 0.42,-0.02 0.68,-0.36 0.86,-1.16 2.14,-1.54 0.52,-0.15 0.87,-0.55 0.49,-0.55 1.21,-0.52 0.47,0.02 0.72,-0.38 0.46,-0.73 1.36,-0.61 a 0.62,0.61 22 0 0 0.6,-0.25 q 1,-1.36 2.59,-1.93 0.34,-0.12 0.6,-0.38 0.3,-0.33 0.73,-0.42 0.3,-0.07 0.59,-0.19 1.16,-0.51 1.78,-1.42 0.22,-0.31 0.6,-0.31 h 0.52 q 0.48,0 0.73,-0.41 0.78,-1.28 2.09,-1.62 0.52,-0.14 0.87,-0.55 0.51,-0.58 1.28,-0.52 0.44,0.03 0.69,-0.33 0.7,-1.04 1.81,-1.49 c 1.29,-0.52 1.71,-0.96 2.56,-1.88 q 0.18,-0.2 0.46,-0.2 0.18,0 0.37,-0.02 0.1,-0.01 0.87,-0.52 0.76,-0.52 1.23,-1.27 a 0.41,0.4 -73.5 0 1 0.34,-0.19 h 0.7 q 0.45,0 0.7,-0.38 0.92,-1.41 2.46,-1.85 0.37,-0.11 0.63,-0.4 0.99,-1.17 2.41,-1.63 0.38,-0.13 0.63,-0.43 0.57,-0.69 1.32,-1.07 1.6,-0.81 1.98,-1.15 1,-0.9 1.9,-1.89 0.17,-0.19 0.43,-0.24 0.51,-0.1 1.03,-0.43 0.42,-0.26 0.78,-0.6 l 1.86,-1.77 a 0.59,0.58 -66.2 0 1 0.4,-0.16 h 0.47 q 0.45,0 0.68,-0.38 0.87,-1.43 2.51,-1.92 0.44,-0.13 0.77,-0.45 l 3.2,-3.13 q 0.14,-0.13 0.33,-0.17 0.13,-0.02 0.27,-0.07 0.77,-0.25 0.9,-0.37 l 2.52,-2.4 q 0.14,-0.13 0.32,-0.16 0.13,-0.03 0.26,-0.07 0.74,-0.24 0.89,-0.39 l 4.48,-4.33 q 0.18,-0.17 0.43,-0.22 0.56,-0.13 1.15,-0.51 0.36,-0.23 0.66,-0.53 l 3.74,-3.76 q 0.15,-0.15 0.35,-0.18 0.15,-0.03 0.3,-0.08 0.77,-0.25 0.9,-0.37 l 6.49,-6.35 q 0.22,-0.22 0.53,-0.24 l 0.28,-0.02 q 0.4,-0.02 0.68,-0.3 l 30.82,-30.81 q 0.19,-0.19 0.19,-0.46 0,-0.22 0.03,-0.42 a 0.97,0.96 -20.3 0 1 0.28,-0.6 l 6.52,-6.56 q 0.18,-0.18 0.17,-0.43 0,-0.18 0.02,-0.36 0.05,-0.39 0.33,-0.67 l 5.48,-5.6 q 0.17,-0.17 0.17,-0.41 0.01,-0.17 0.03,-0.35 0.03,-0.34 0.27,-0.58 l 3.4,-3.51 q 0.03,-0.03 0.29,-0.84 0.05,-0.16 0.08,-0.32 0.07,-0.45 0.46,-0.67 1.82,-1.05 2.9,-3.25 1.01,-2.05 3.28,-3.62 0.43,-0.3 0.5,-0.81 0.14,-1.09 1.22,-1.44 0.5,-0.16 0.57,-0.69 0.09,-0.71 0.71,-1.09 0.46,-0.29 0.53,-0.83 0.1,-0.84 0.84,-1.08 0.31,-0.1 0.42,-0.41 0.41,-1.07 1.43,-1.62 0.36,-0.2 0.57,-0.55 0.33,-0.52 0.84,-0.48 0.14,0.01 0.16,-0.13 0.04,-0.28 0.15,-0.6 0.06,-0.17 0.24,-0.22 0.13,-0.03 0.25,-0.06 0.15,-0.03 0.11,-0.17 -0.16,-0.6 0.41,-0.84 0.41,-0.18 0.21,-0.57 l -0.29,-0.58"
           id="path34" /><path
           stroke="#475980"
           vector-effect="non-scaling-stroke"
           d="m 322.47,213.97 q 5.79,-7.15 9.44,-15.51"
           id="path35" /><path
           stroke="#5b98da"
           vector-effect="non-scaling-stroke"
           d="m 358.3,87.43 -1.61,2.1 q -0.29,0.38 -0.34,0.85 -0.13,1.15 -1.06,1.77 -0.48,0.33 -0.32,0.88 0.44,1.46 -0.62,2.07 a 0.81,0.81 0 0 0 -0.37,0.94 q 0.43,1.45 -0.64,2.06 a 0.81,0.81 0 0 0 -0.37,0.93 q 0.44,1.44 -0.6,2.05 a 0.92,0.92 0 0 0 -0.43,0.96 q 0.48,2.51 -1.44,3.96 -0.49,0.36 -0.49,0.97 v 1.26 q 0,0.51 -0.46,0.73 -0.7,0.35 -0.57,1.09 0.1,0.59 -0.36,0.96 -0.9,0.72 -0.57,2.03 a 0.81,0.8 -26.4 0 1 -0.29,0.85 q -0.16,0.12 -0.36,0.16 -0.69,0.14 -0.47,0.81 0.49,1.49 -0.61,2.4 -0.38,0.31 -0.3,0.79 0.12,0.74 -0.58,0.99 a 0.66,0.66 0 0 0 -0.43,0.78 q 0.21,0.9 -0.48,1.28 -0.39,0.22 -0.43,0.67 l -0.12,1.5 q -0.04,0.49 -0.47,0.72 -0.7,0.36 -0.51,1.14 0.13,0.57 -0.39,0.81 -0.75,0.34 -0.64,1.07 0.07,0.48 -0.3,0.78 -0.83,0.7 -0.61,2.22 0.11,0.76 -0.71,1.09 -0.47,0.18 -0.35,0.68 0.23,0.95 -0.57,1.27 a 0.68,0.67 -16.9 0 0 -0.42,0.78 q 0.21,0.92 -0.58,1.21 a 0.69,0.68 -17.4 0 0 -0.42,0.79 q 0.22,0.98 -0.67,1.24 a 0.54,0.54 0 0 0 -0.37,0.67 q 0.29,0.99 -0.48,1.38 -0.45,0.22 -0.39,0.71 0.1,0.95 -0.69,1.33 -0.43,0.2 -0.34,0.67 0.29,1.46 -0.7,2.31 -0.42,0.36 -0.35,0.9 0.1,0.77 -0.65,1.1 -0.35,0.16 -0.36,0.55 v 0.53 q -0.01,0.44 -0.36,0.71 -0.75,0.55 -1.02,1.53"
           id="path36" /><path
           stroke="#3f6381"
           vector-effect="non-scaling-stroke"
           d="m 331.63,149.46 q -6.2,-11.21 -18.88,-15.96"
           id="path37" /><path
           stroke="#638ed8"
           vector-effect="non-scaling-stroke"
           d="m 378.31,106.52 q -0.02,0.24 -0.18,0.38 a 0.18,0.17 65.8 0 1 -0.28,-0.11 q -0.02,-0.13 -0.06,-0.27 -0.03,-0.13 -0.17,-0.12 -1.01,0.09 -0.77,0.68 0.25,0.57 -0.33,0.81 -0.69,0.29 -0.52,1.09 0.12,0.58 -0.36,0.92 -0.97,0.67 -0.66,1.89 a 0.78,0.65 -58.3 0 1 0.03,0.21 q 0,0.86 -0.42,0.98 -0.75,0.21 -0.61,0.98 0.22,1.29 -0.59,2.19 -0.32,0.35 -0.37,0.81 l -0.1,1.07 q -0.06,0.53 -0.5,0.84 -0.54,0.37 -0.41,1.13 0.09,0.54 -0.35,0.86 -1,0.75 -0.71,2.12 0.12,0.6 -0.41,0.9 -0.76,0.42 -0.55,1.26 0.14,0.55 -0.38,0.79 -0.72,0.32 -0.66,1 0.04,0.5 -0.3,0.87 -0.81,0.89 -0.64,2.15 0.07,0.55 -0.36,0.9 -1,0.85 -0.72,2.29 0.09,0.47 -0.32,0.68 -0.86,0.45 -0.61,1.37 0.17,0.6 -0.42,0.78 -0.72,0.22 -0.59,0.97 0.09,0.55 -0.34,0.91 -0.99,0.85 -0.72,2.29 0.09,0.46 -0.32,0.68 -0.82,0.45 -0.71,1.36 0.05,0.45 -0.34,0.67 -0.81,0.45 -0.55,1.36 0.16,0.56 -0.4,0.74 -0.87,0.28 -0.59,1.3 a 0.77,0.26 -52 0 1 -0.2,0.56 q -0.14,0.2 -0.4,0.19 a 0.48,0.48 0 0 0 -0.48,0.62 q 0.36,1.09 -0.51,1.42 a 0.69,0.68 -16.6 0 0 -0.43,0.79 q 0.2,0.85 -0.47,1.17 -0.47,0.22 -0.51,0.73 l -0.09,1.26 q -0.04,0.51 -0.45,0.81 -0.64,0.48 -0.57,1.37 0.03,0.45 -0.36,0.68 -0.74,0.44 -0.65,1.3 0.04,0.44 -0.33,0.66 -0.77,0.47 -0.66,1.35 0.05,0.45 -0.35,0.67 -0.8,0.44 -0.66,1.38 0.08,0.46 -0.35,0.66 -0.55,0.25 -0.64,0.83 -0.07,0.49 -0.31,0.93 -0.51,0.94 -1.26,1.5 -0.45,0.34 -0.34,0.89 0.16,0.77 -0.56,1 a 0.68,0.68 0 0 0 -0.44,0.8 q 0.22,0.92 -0.57,1.22 a 0.69,0.68 -16.6 0 0 -0.43,0.79 q 0.2,0.88 -0.51,1.18 -0.49,0.22 -0.49,0.75 v 0.52 q 0,0.29 -0.25,0.43 -0.92,0.54 -0.85,1.47 0.02,0.44 -0.36,0.67 -0.75,0.45 -0.64,1.33 0.05,0.44 -0.31,0.69 -1.32,0.93 -1.72,2.37 -0.11,0.41 -0.43,0.69 -0.59,0.5 -0.54,1.25 0.02,0.45 -0.36,0.67 -0.75,0.45 -0.64,1.33 0.05,0.44 -0.31,0.69 -1.32,0.93 -1.72,2.38 -0.11,0.41 -0.44,0.68 -0.58,0.5 -0.53,1.26 0.02,0.43 -0.33,0.68 -1.22,0.87 -1.61,2.2 -0.15,0.51 -0.55,0.87 -0.51,0.46 -0.52,1.12 0,0.41 -0.31,0.69 c -0.79,0.7 -1.4,1.34 -1.67,2.47 q -0.39,1.64 -2,2.24"
           id="path38" /><path
           stroke="#445d81"
           vector-effect="non-scaling-stroke"
           d="m 331.91,198.46 c 6.65,-15.92 7.87,-33.5 -0.28,-49"
           id="path39" /><path
           stroke="#5b98da"
           vector-effect="non-scaling-stroke"
           d="m 168.73,321.29 -1.25,-0.71 a 0.29,0.29 0 0 1 0.06,-0.53 q 0.23,-0.06 0.5,-0.05 0.57,0.04 0.92,-0.41 0.56,-0.71 1.38,-1.18 0.44,-0.26 0.94,-0.33 0.58,-0.08 0.75,-0.63 a 0.64,0.64 0 0 1 0.77,-0.44 q 0.84,0.2 1.18,-0.43 0.2,-0.39 0.64,-0.47 1.58,-0.29 2.44,-1.72 0.27,-0.47 0.8,-0.37 0.75,0.14 1.23,-0.46 0.27,-0.33 0.68,-0.44 1.23,-0.3 2.02,-1.37 0.33,-0.44 0.86,-0.58 1.53,-0.4 2.48,-1.74 0.24,-0.35 0.67,-0.32 0.77,0.05 1.27,-0.53 0.36,-0.4 0.88,-0.54 1.18,-0.32 1.96,-1.39 0.32,-0.45 0.87,-0.57 1.49,-0.34 2.27,-1.72 0.21,-0.36 0.63,-0.35 0.22,0 0.43,-0.02 0.08,-0.01 0.87,-0.54 0.76,-0.5 1.22,-1.25 a 0.41,0.38 -72.6 0 1 0.33,-0.19 H 197 q 0.16,0 0.98,-0.55 0.76,-0.52 1.22,-1.26 a 0.41,0.38 -72.6 0 1 0.33,-0.19 h 0.56 q 0.44,0 0.74,-0.31 l 2.46,-2.51 a 0.62,0.57 -65.8 0 1 0.42,-0.18 q 0.15,0 0.29,-0.01 0.19,-0.01 0.98,-0.54 0.76,-0.52 1.22,-1.26 a 0.41,0.38 -72.6 0 1 0.33,-0.19 h 0.56 q 0.44,0 0.74,-0.31 l 2.46,-2.51 a 0.62,0.57 -65.8 0 1 0.42,-0.18 q 0.25,0 0.5,-0.03 0.41,-0.06 0.69,-0.35 l 2.39,-2.44 a 0.62,0.57 -65.8 0 1 0.42,-0.18 q 0.16,0 0.32,-0.01 0.46,-0.04 0.79,-0.36 l 3.43,-3.31 q 0.18,-0.18 0.44,-0.21 l 0.54,-0.05 a 0.78,0.76 18.9 0 0 0.46,-0.22 l 2.57,-2.62 a 0.74,0.7 19.8 0 1 0.5,-0.22 q 0.16,0 0.33,-0.02 0.47,-0.05 0.8,-0.38 l 4.41,-4.4 q 0.19,-0.19 0.47,-0.2 0.16,0 0.33,-0.02 0.43,-0.05 0.74,-0.35 l 5.42,-5.35 q 0.19,-0.18 0.45,-0.18 0.19,0 0.38,-0.03 0.4,-0.05 0.68,-0.34 l 8.56,-8.57 q 0.22,-0.22 0.53,-0.24 l 0.32,-0.02 q 0.4,-0.02 0.68,-0.31 l 10.22,-10.1 q 0.01,-0.02 0.13,0.06 0.1,0.07 0.21,0.14 0.02,0.02 0.02,-0.01 l 0.03,-0.79"
           id="path40" /><path
           stroke="#7d6ed3"
           vector-effect="non-scaling-stroke"
           d="m 248.9,389.01 -0.38,0.21 q -0.39,0.21 -0.39,-0.24 l 0.01,-0.51 a 0.45,0.44 -23.3 0 0 -0.77,-0.3 l -1.64,1.79 q -0.15,0.17 -0.38,0.16 -0.27,-0.02 -0.52,0.04 -0.37,0.08 -0.64,0.34 l -1.52,1.44 a 0.68,0.66 23.5 0 1 -0.45,0.17 h -0.47 q -0.42,0.01 -0.65,0.36 -0.83,1.31 -2.25,1.7 -0.48,0.13 -0.8,0.53 -0.35,0.44 -0.85,0.43 -0.51,-0.01 -0.92,0.29 -0.82,0.6 -1.38,1.37 -0.23,0.32 -0.63,0.32 h -0.52 q -0.42,0.01 -0.65,0.36 -0.82,1.29 -2.21,1.69 -0.48,0.14 -0.81,0.52 -0.49,0.58 -1.24,0.44 -0.5,-0.09 -0.72,0.36 -0.42,0.88 -1.37,0.62 a 0.54,0.54 0 0 0 -0.61,0.25 q -0.8,1.42 -2.29,1.82 -0.46,0.13 -0.77,0.5 -0.49,0.59 -1.24,0.45 -0.5,-0.09 -0.72,0.36 -0.42,0.88 -1.37,0.62 a 0.54,0.54 0 0 0 -0.61,0.25 q -0.8,1.42 -2.29,1.82 -0.46,0.13 -0.77,0.5 -0.5,0.6 -1.27,0.45 -0.47,-0.1 -0.67,0.34 -0.42,0.87 -1.32,0.66 -0.47,-0.12 -0.68,0.32 -0.41,0.89 -1.32,0.68 -0.47,-0.12 -0.68,0.32 -0.41,0.89 -1.32,0.68 -0.47,-0.12 -0.68,0.32 -0.4,0.88 -1.29,0.68 -0.5,-0.11 -0.72,0.36 -0.43,0.88 -1.38,0.62 a 0.54,0.54 0 0 0 -0.61,0.25 q -0.8,1.42 -2.29,1.82 -0.46,0.13 -0.77,0.5 -0.51,0.61 -1.3,0.44 -0.49,-0.11 -0.66,0.36 -0.26,0.69 -0.95,0.67 -0.6,-0.02 -1.03,0.4 -0.98,0.96 -2.39,0.5 a 0.49,0.48 -72.8 0 0 -0.62,0.33 q -0.27,0.98 -1.38,0.73 a 0.46,0.45 -79.3 0 0 -0.56,0.39 l -0.31,2.5"
           id="path41" /><path
           stroke="#42b6de"
           vector-effect="non-scaling-stroke"
           d="m 124.66,254.02 q -3.32,-0.04 -5.36,1 -0.28,0.15 -0.59,0.08 -0.48,-0.1 -0.45,0.57 0.01,0.2 0.21,0.19 0.24,-0.01 0.4,0.08 0.88,0.5 -0.13,0.43 -0.53,-0.03 -0.83,0.47 a 0.71,0.7 -64.7 0 1 -0.84,0.31 q -0.75,-0.26 -0.97,0.37 -0.22,0.6 -0.85,0.6 h -0.5 q -0.31,0 -0.47,0.27 -0.54,0.92 -1.47,0.73 -0.46,-0.09 -0.67,0.34 -0.41,0.87 -1.31,0.66 -0.46,-0.1 -0.67,0.32 -0.42,0.9 -1.34,0.67 -0.47,-0.11 -0.67,0.33 -0.41,0.9 -1.33,0.68 -0.47,-0.11 -0.67,0.33 -0.42,0.89 -1.33,0.67 -0.47,-0.11 -0.67,0.33 -0.42,0.9 -1.36,0.66 -0.49,-0.12 -0.66,0.35 -0.26,0.72 -0.99,0.68 -0.57,-0.02 -0.97,0.38 -1,0.99 -2.44,0.55 a 0.47,0.47 0 0 0 -0.6,0.31 q -0.28,0.98 -1.37,0.73 -0.46,-0.11 -0.62,0.34 -0.26,0.71 -0.97,0.68 -0.6,-0.02 -1.02,0.4 -0.99,0.98 -2.42,0.54 a 0.48,0.47 -72.7 0 0 -0.6,0.32 q -0.28,0.97 -1.37,0.72 -0.47,-0.11 -0.63,0.34 -0.27,0.77 -1.08,0.69 -0.54,-0.06 -0.88,0.36 -0.79,0.93 -2.05,0.62 -0.6,-0.14 -0.98,0.35 -0.87,1.1 -2.41,0.59 a 0.47,0.47 0 0 0 -0.6,0.32 q -0.22,0.86 -1.1,0.75 -0.52,-0.06 -0.84,0.34 -0.81,0.99 -2.12,0.64 -0.58,-0.15 -0.93,0.34 -0.76,1.09 -2.17,0.62 a 0.7,0.69 18.4 0 0 -0.87,0.43 q -0.23,0.67 -0.91,0.62 -0.66,-0.05 -0.58,0.6 0.22,1.83 -0.83,3.09"
           id="path42" /></g><path
         fill="#282828"
         d="m 249.61,0 h 14.88 C 336.98,2.45 405.3,35.01 451.9,90.69 q 56.42,67.41 60.1,156.92 v 14.88 C 508.5,364.42 446.17,453.69 351.71,491.93 288.19,517.64 214.65,515.87 152.12,487.62 30.92,432.86 -28.4,293.42 17.09,168.07 52.82,69.58 145.13,3.5 249.61,0 Z m 34.7,71.73 C 217.21,83.88 180.08,139.53 173,203.75 q -1.29,11.73 -1.86,23.52 l -0.3,31.52 q 0.07,0.26 0.02,0.48 -0.05,0.24 -0.29,0.35 -0.34,0.17 -0.8,0.14 c -15.08,-0.17 -30.4,-3 -45.11,-5.74 Q 96.5,248.21 70.07,237.79 a 0.22,0.22 0 0 0 -0.3,0.2 l 0.01,42.82 0.01,21.65 q 0,0.54 0.51,0.7 l 10.16,3.12 q 21.43,6.43 43.47,10.03 22.26,3.78 44.8,4.98 l 6.6,0.3 q 0.56,0.02 0.64,0.58 l 2.79,20.61 3.64,25.39 9.48,53.82 10.91,49.13 q 0.12,0.55 0.68,0.55 l 63.51,-0.01 q 0.49,0 0.37,-0.47 -10.76,-40.78 -18.45,-82.18 -5.22,-28.68 -8.84,-57.81 l -1.3,-11.44 q -0.06,-0.57 0.5,-0.67 l 26.06,-4.83 c 29.51,-6.55 57.86,-18.33 81.66,-37 43.47,-34.11 64.19,-88.48 46.17,-141.97 -3.42,-9.92 -8.12,-20.45 -14.84,-28.77 Q 369.73,95.46 358.3,87.43 347.87,79.99 335.74,75.8 q -12.6,-4.41 -25.97,-5.28 -12.81,-0.85 -25.46,1.21 z"
         id="path43" /><path
         fill="#46b1dd"
         d="m 309.77,70.52 q 0.25,0.26 0.76,0.29 0.27,0.02 0.04,0.16 c -0.4,0.26 -0.65,0.57 -0.7,1.08 q -0.04,0.49 -0.39,0.83 -0.83,0.82 -0.6,2.02 0.1,0.55 -0.34,0.9 -0.98,0.79 -0.66,2.08 0.14,0.56 -0.31,0.9 -1,0.78 -0.7,2.06 0.13,0.54 -0.3,0.88 -1.03,0.84 -0.65,2.18 0.17,0.58 -0.32,0.92 -1.19,0.85 -0.65,2.44 a 0.48,0.47 74 0 1 -0.33,0.61 q -0.82,0.21 -0.76,1.02 0.04,0.53 -0.34,0.9 -1.04,1.01 -0.58,2.49 a 0.46,0.46 0 0 1 -0.33,0.59 q -0.81,0.21 -0.75,1.02 0.04,0.53 -0.34,0.9 -1.04,1.01 -0.58,2.49 a 0.46,0.46 0 0 1 -0.33,0.59 q -0.81,0.21 -0.75,1.02 0.04,0.53 -0.34,0.9 -1.04,1.01 -0.58,2.48 a 0.48,0.48 0 0 1 -0.32,0.6 q -0.97,0.28 -0.72,1.37 0.1,0.46 -0.35,0.62 -0.7,0.26 -0.68,0.96 0.02,0.6 -0.4,1.03 -0.98,0.99 -0.53,2.42 a 0.48,0.48 0 0 1 -0.32,0.6 q -0.96,0.28 -0.73,1.35 0.1,0.44 -0.31,0.62 -0.92,0.42 -0.7,1.34 0.11,0.47 -0.32,0.67 -0.9,0.42 -0.68,1.33 0.11,0.47 -0.32,0.68 -0.9,0.41 -0.68,1.32 0.11,0.47 -0.32,0.67 -0.9,0.42 -0.68,1.33 0.11,0.47 -0.32,0.68 -0.9,0.41 -0.68,1.32 0.11,0.47 -0.32,0.67 -0.9,0.42 -0.68,1.33 0.11,0.47 -0.32,0.68 -0.9,0.41 -0.68,1.32 0.11,0.47 -0.32,0.67 -0.9,0.42 -0.68,1.33 0.12,0.47 -0.32,0.68 -0.91,0.42 -0.67,1.35 0.13,0.5 -0.35,0.67 -0.74,0.26 -0.68,1.02 0.04,0.56 -0.35,0.96 l -1.28,1.31 q -0.31,0.32 -0.31,0.78 0.01,0.93 -0.52,2.04 c -23.21,11.09 -40.18,33.61 -46.19,58.45 q -1.38,5.69 -2.44,9.92 l -23.08,23.34 q -0.18,0.18 -0.44,0.18 h -0.32 q -0.43,0 -0.73,0.31 l -7.51,7.51 q -0.19,0.18 -0.45,0.18 h -0.31 q -0.43,0 -0.73,0.31 l -4.51,4.51 q -0.18,0.18 -0.44,0.18 h -0.32 q -0.43,0 -0.73,0.31 l -4.51,4.51 q -0.18,0.18 -0.44,0.18 h -0.32 q -0.43,0 -0.74,0.31 l -2.49,2.51 q -0.19,0.18 -0.45,0.18 h -0.32 q -0.43,0 -0.74,0.31 l -2.49,2.51 q -0.19,0.18 -0.45,0.18 h -0.32 q -0.43,0 -0.74,0.31 l -2.49,2.51 q -0.19,0.18 -0.45,0.18 h -0.28 q -0.42,0 -0.72,0.3 l -2.23,2.14 q -0.4,0.38 -0.93,0.48 -1.27,0.24 -1.69,1.5 -0.07,0.19 -0.15,0 -0.12,-0.3 -0.41,-0.51 l 0.3,-31.52 0.2,1.44 q 0.05,0.37 0.17,0.01 0.45,-1.26 1.59,-2.4 0.42,-0.42 0.99,-0.47 0.45,-0.05 0.77,-0.36 l 4.46,-4.34 q 0.24,-0.23 0.56,-0.25 l 0.29,-0.01 q 0.33,-0.02 0.57,-0.26 l 4.62,-4.54 q 0.17,-0.17 0.4,-0.18 l 0.34,-0.02 q 0.42,-0.02 0.71,-0.32 l 11.55,-11.48 q 0.17,-0.17 0.41,-0.18 l 0.32,-0.02 q 0.41,-0.02 0.71,-0.32 l 6.88,-6.86 q 0.19,-0.18 0.2,-0.44 l 0.03,-0.5 a 0.63,0.62 -22.6 0 1 0.17,-0.4 l 11.67,-11.73 q 0.13,-0.13 0.13,-0.32 0,-0.18 0.02,-0.36 0.04,-0.44 0.35,-0.75 l 4.44,-4.51 q 0.18,-0.18 0.19,-0.44 l 0.03,-0.49 a 0.62,0.62 0 0 1 0.18,-0.41 l 4.61,-4.66 q 0.18,-0.19 0.18,-0.44 0.01,-0.2 0.03,-0.39 0.04,-0.39 0.31,-0.66 l 2.49,-2.5 q 0.17,-0.17 0.17,-0.42 0,-0.17 0.02,-0.33 0.04,-0.43 0.34,-0.74 l 2.47,-2.52 q 0.17,-0.18 0.17,-0.42 0.01,-0.16 0.02,-0.32 0.05,-0.5 0.42,-0.85 c 0.8,-0.76 1.51,-1.69 2.35,-2.38 q 0.3,-0.25 0.22,-0.68 -0.08,-0.5 0.29,-0.84 1.07,-0.96 1.99,-1.97 c 0.9,-0.98 0.86,-2.2 2.15,-3.19 q 0.31,-0.24 0.41,-0.61 0.41,-1.46 1.6,-2.4 0.3,-0.24 0.4,-0.6 0.41,-1.46 1.6,-2.4 0.3,-0.24 0.4,-0.6 0.41,-1.46 1.6,-2.4 0.3,-0.24 0.4,-0.6 0.45,-1.61 1.85,-2.58 0.35,-0.25 0.3,-0.68 -0.09,-0.75 0.48,-1.25 0.39,-0.34 0.54,-0.83 0.37,-1.25 1.43,-2.06 0.3,-0.23 0.4,-0.59 0.45,-1.62 1.86,-2.6 0.35,-0.25 0.29,-0.68 -0.13,-0.93 0.65,-1.3 0.42,-0.2 0.35,-0.66 -0.09,-0.73 0.43,-1.23 0.38,-0.35 0.53,-0.83 0.44,-1.42 1.75,-2.28 0.36,-0.24 0.3,-0.67 -0.15,-0.96 0.65,-1.33 0.42,-0.2 0.35,-0.66 -0.15,-0.97 0.64,-1.34 0.43,-0.2 0.36,-0.66 -0.15,-0.97 0.67,-1.3 0.49,-0.2 0.38,-0.72 -0.21,-0.95 0.61,-1.27 0.51,-0.2 0.4,-0.73 -0.17,-0.77 0.43,-1.27 0.32,-0.26 0.43,-0.66 0.42,-1.5 1.77,-2.4 0.37,-0.24 0.31,-0.67 -0.14,-0.96 0.65,-1.32 0.42,-0.2 0.35,-0.66 -0.16,-0.99 0.68,-1.36 0.45,-0.19 0.35,-0.66 -0.31,-1.45 0.63,-2.39 0.4,-0.4 0.36,-0.97 -0.04,-0.67 0.64,-0.9 0.52,-0.18 0.39,-0.72 -0.22,-0.97 0.62,-1.29 0.5,-0.2 0.38,-0.73 -0.21,-0.96 0.59,-1.32 0.43,-0.19 0.36,-0.66 -0.16,-0.98 0.67,-1.35 0.44,-0.2 0.34,-0.66 -0.23,-1.07 0.65,-1.35 0.47,-0.16 0.37,-0.65 -0.32,-1.49 0.64,-2.49 0.38,-0.4 0.36,-0.94 -0.02,-0.64 0.61,-0.9 0.44,-0.18 0.36,-0.65 -0.16,-1 0.68,-1.37 0.45,-0.19 0.35,-0.66 -0.3,-1.44 0.6,-2.42 0.36,-0.38 0.35,-0.89 0,-0.74 0.69,-1.01 0.46,-0.18 0.36,-0.67 -0.31,-1.45 0.6,-2.43 0.36,-0.38 0.35,-0.89 0,-0.74 0.69,-1.02 0.46,-0.18 0.36,-0.66 -0.31,-1.49 0.61,-2.52 0.34,-0.37 0.34,-0.87 0,-1.67 1.44,-3.08 12.65,-2.06 25.46,-1.21 z"
         id="path44" /><path
         fill="#4ea7dc"
         d="m 309.77,70.52 q 13.37,0.87 25.97,5.28 l -0.7,0.37 q -0.44,0.24 -0.51,0.73 c -0.27,1.87 -1.79,2.73 -1.62,5.06 q 0.04,0.52 -0.37,0.84 -0.97,0.79 -0.66,2.07 0.15,0.61 -0.34,1 -1.1,0.86 -0.59,2.4 a 0.47,0.46 73.9 0 1 -0.33,0.6 q -0.86,0.22 -0.75,1.1 0.06,0.52 -0.34,0.85 -0.97,0.78 -0.65,2.06 0.14,0.56 -0.31,0.9 -1.01,0.79 -0.69,2.09 0.15,0.61 -0.34,1 -1.1,0.86 -0.59,2.4 a 0.47,0.46 73.9 0 1 -0.33,0.6 q -0.82,0.21 -0.76,1.02 0.04,0.53 -0.34,0.9 -1.04,1.01 -0.58,2.49 a 0.46,0.46 0 0 1 -0.33,0.59 q -0.81,0.21 -0.75,1.02 0.04,0.53 -0.34,0.9 -1.04,1.01 -0.58,2.48 a 0.48,0.48 0 0 1 -0.32,0.6 q -0.97,0.28 -0.72,1.37 0.1,0.46 -0.35,0.62 -0.7,0.26 -0.68,0.96 0.02,0.6 -0.4,1.03 -0.98,0.99 -0.53,2.42 a 0.48,0.48 0 0 1 -0.32,0.6 q -0.96,0.28 -0.73,1.35 0.1,0.44 -0.31,0.62 -0.93,0.42 -0.69,1.37 0.13,0.49 -0.35,0.67 -0.71,0.25 -0.68,0.98 0.02,0.57 -0.38,0.98 -0.99,0.99 -0.54,2.43 a 0.48,0.48 0 0 1 -0.32,0.6 q -0.97,0.28 -0.73,1.35 0.1,0.44 -0.31,0.62 -0.92,0.42 -0.7,1.34 0.12,0.47 -0.32,0.68 -0.9,0.41 -0.67,1.34 0.08,0.34 -0.17,0.59 l -0.33,0.33 q -0.37,0.37 0.1,0.6 0.71,0.35 0.26,0.78 -15,-4.89 -30.35,2.49 0.53,-1.11 0.52,-2.04 0,-0.46 0.31,-0.78 l 1.28,-1.31 q 0.39,-0.4 0.35,-0.96 -0.06,-0.76 0.68,-1.02 0.48,-0.17 0.35,-0.67 -0.24,-0.93 0.67,-1.35 0.44,-0.21 0.32,-0.68 -0.22,-0.91 0.68,-1.33 0.43,-0.2 0.32,-0.67 -0.22,-0.91 0.68,-1.32 0.43,-0.21 0.32,-0.68 -0.22,-0.91 0.68,-1.33 0.43,-0.2 0.32,-0.67 -0.22,-0.91 0.68,-1.32 0.43,-0.21 0.32,-0.68 -0.22,-0.91 0.68,-1.33 0.43,-0.2 0.32,-0.67 -0.22,-0.91 0.68,-1.32 0.43,-0.21 0.32,-0.68 -0.22,-0.91 0.68,-1.33 0.43,-0.2 0.32,-0.67 -0.22,-0.92 0.7,-1.34 0.41,-0.18 0.31,-0.62 -0.23,-1.07 0.73,-1.35 a 0.48,0.48 0 0 0 0.32,-0.6 q -0.45,-1.43 0.53,-2.42 0.42,-0.43 0.4,-1.03 -0.02,-0.7 0.68,-0.96 0.45,-0.16 0.35,-0.62 -0.25,-1.09 0.72,-1.37 a 0.48,0.48 0 0 0 0.32,-0.6 q -0.46,-1.47 0.58,-2.48 0.38,-0.37 0.34,-0.9 -0.06,-0.81 0.75,-1.02 a 0.46,0.46 0 0 0 0.33,-0.59 q -0.46,-1.48 0.58,-2.49 0.38,-0.37 0.34,-0.9 -0.06,-0.81 0.75,-1.02 a 0.46,0.46 0 0 0 0.33,-0.59 q -0.46,-1.48 0.58,-2.49 0.38,-0.37 0.34,-0.9 -0.06,-0.81 0.76,-1.02 a 0.48,0.47 74 0 0 0.33,-0.61 q -0.54,-1.59 0.65,-2.44 0.49,-0.34 0.32,-0.92 -0.38,-1.34 0.65,-2.18 0.43,-0.34 0.3,-0.88 -0.3,-1.28 0.7,-2.06 0.45,-0.34 0.31,-0.9 -0.32,-1.29 0.66,-2.08 0.44,-0.35 0.34,-0.9 -0.23,-1.2 0.6,-2.02 0.35,-0.34 0.39,-0.83 c 0.05,-0.51 0.3,-0.82 0.7,-1.08 q 0.23,-0.14 -0.04,-0.16 -0.51,-0.03 -0.76,-0.29 z"
         id="path45" /><path
         fill="#3ebadf"
         d="m 284.31,71.73 q -1.44,1.41 -1.44,3.08 0,0.5 -0.34,0.87 -0.92,1.03 -0.61,2.52 0.1,0.48 -0.36,0.66 -0.69,0.28 -0.69,1.02 0.01,0.51 -0.35,0.89 -0.91,0.98 -0.6,2.43 0.1,0.49 -0.36,0.67 -0.69,0.27 -0.69,1.01 0.01,0.51 -0.35,0.89 -0.9,0.98 -0.6,2.42 0.1,0.47 -0.35,0.66 -0.84,0.37 -0.68,1.37 0.08,0.47 -0.36,0.65 -0.63,0.26 -0.61,0.9 0.02,0.54 -0.36,0.94 -0.96,1 -0.64,2.49 0.1,0.49 -0.37,0.65 -0.88,0.28 -0.65,1.35 0.1,0.46 -0.34,0.66 -0.83,0.37 -0.67,1.35 0.07,0.47 -0.36,0.66 -0.8,0.36 -0.59,1.32 0.12,0.53 -0.38,0.73 -0.84,0.32 -0.62,1.29 0.13,0.54 -0.39,0.72 -0.68,0.23 -0.64,0.9 0.04,0.57 -0.36,0.97 -0.94,0.94 -0.63,2.39 0.1,0.47 -0.35,0.66 -0.84,0.37 -0.68,1.36 0.07,0.46 -0.35,0.66 -0.79,0.36 -0.65,1.32 0.06,0.43 -0.31,0.67 -1.35,0.9 -1.77,2.4 -0.11,0.4 -0.43,0.66 -0.6,0.5 -0.43,1.27 0.11,0.53 -0.4,0.73 -0.82,0.32 -0.61,1.27 0.11,0.52 -0.38,0.72 -0.82,0.33 -0.67,1.3 0.07,0.46 -0.36,0.66 -0.79,0.37 -0.64,1.34 0.07,0.46 -0.35,0.66 -0.8,0.37 -0.65,1.33 0.06,0.43 -0.3,0.67 -1.31,0.86 -1.75,2.28 -0.15,0.48 -0.53,0.83 -0.52,0.5 -0.43,1.23 0.07,0.46 -0.35,0.66 -0.78,0.37 -0.65,1.3 0.06,0.43 -0.29,0.68 -1.41,0.98 -1.86,2.6 -0.1,0.36 -0.4,0.59 -1.06,0.81 -1.43,2.06 -0.15,0.49 -0.54,0.83 -0.57,0.5 -0.48,1.25 0.05,0.43 -0.3,0.68 -1.4,0.97 -1.85,2.58 -0.1,0.36 -0.4,0.6 -1.19,0.94 -1.6,2.4 -0.1,0.36 -0.4,0.6 -1.19,0.94 -1.6,2.4 -0.1,0.36 -0.4,0.6 -1.19,0.94 -1.6,2.4 -0.1,0.37 -0.41,0.61 c -1.29,0.99 -1.25,2.21 -2.15,3.19 q -0.92,1.01 -1.99,1.97 -0.37,0.34 -0.29,0.84 0.08,0.43 -0.22,0.68 c -0.84,0.69 -1.55,1.62 -2.35,2.38 q -0.37,0.35 -0.42,0.85 -0.01,0.16 -0.02,0.32 0,0.24 -0.17,0.42 l -2.47,2.52 q -0.3,0.31 -0.34,0.74 -0.02,0.16 -0.02,0.33 0,0.25 -0.17,0.42 l -2.49,2.5 q -0.27,0.27 -0.31,0.66 -0.02,0.19 -0.03,0.39 0,0.25 -0.18,0.44 l -4.61,4.66 a 0.62,0.62 0 0 0 -0.18,0.41 l -0.03,0.49 q -0.01,0.26 -0.19,0.44 l -4.44,4.51 q -0.31,0.31 -0.35,0.75 -0.02,0.18 -0.02,0.36 0,0.19 -0.13,0.32 l -11.67,11.73 a 0.63,0.62 -22.6 0 0 -0.17,0.4 l -0.03,0.5 q -0.01,0.26 -0.2,0.44 l -6.88,6.86 q -0.3,0.3 -0.71,0.32 l -0.32,0.02 q -0.24,0.01 -0.41,0.18 l -11.55,11.48 q -0.29,0.3 -0.71,0.32 l -0.34,0.02 q -0.23,0.01 -0.4,0.18 l -4.62,4.54 q -0.24,0.24 -0.57,0.26 l -0.29,0.01 q -0.32,0.02 -0.56,0.25 l -4.46,4.34 q -0.32,0.31 -0.77,0.36 -0.57,0.05 -0.99,0.47 -1.14,1.14 -1.59,2.4 -0.12,0.36 -0.17,-0.01 l -0.2,-1.44 q 0.57,-11.79 1.86,-23.52 C 180.08,139.53 217.21,83.88 284.31,71.73 Z"
         id="path46" /><path
         fill="#569dda"
         d="m 335.74,75.8 q 12.13,4.19 22.56,11.63 l -1.61,2.1 q -0.29,0.38 -0.34,0.85 -0.13,1.15 -1.06,1.77 -0.48,0.33 -0.32,0.88 0.44,1.46 -0.62,2.07 a 0.81,0.81 0 0 0 -0.37,0.94 q 0.43,1.45 -0.64,2.06 a 0.81,0.81 0 0 0 -0.37,0.93 q 0.44,1.44 -0.6,2.05 a 0.92,0.92 0 0 0 -0.43,0.96 q 0.48,2.51 -1.44,3.96 -0.49,0.36 -0.49,0.97 v 1.26 q 0,0.51 -0.46,0.73 -0.7,0.35 -0.57,1.09 0.1,0.59 -0.36,0.96 -0.9,0.72 -0.57,2.03 a 0.81,0.8 -26.4 0 1 -0.29,0.85 q -0.16,0.12 -0.36,0.16 -0.69,0.14 -0.47,0.81 0.49,1.49 -0.61,2.4 -0.38,0.31 -0.3,0.79 0.12,0.74 -0.58,0.99 a 0.66,0.66 0 0 0 -0.43,0.78 q 0.21,0.9 -0.48,1.28 -0.39,0.22 -0.43,0.67 l -0.12,1.5 q -0.04,0.49 -0.47,0.72 -0.7,0.36 -0.51,1.14 0.13,0.57 -0.39,0.81 -0.75,0.34 -0.64,1.07 0.07,0.48 -0.3,0.78 -0.83,0.7 -0.61,2.22 0.11,0.76 -0.71,1.09 -0.47,0.18 -0.35,0.68 0.23,0.95 -0.57,1.27 a 0.68,0.67 -16.9 0 0 -0.42,0.78 q 0.21,0.92 -0.58,1.21 a 0.69,0.68 -17.4 0 0 -0.42,0.79 q 0.22,0.98 -0.67,1.24 a 0.54,0.54 0 0 0 -0.37,0.67 q 0.29,0.99 -0.48,1.38 -0.45,0.22 -0.39,0.71 0.1,0.95 -0.69,1.33 -0.43,0.2 -0.34,0.67 0.29,1.46 -0.7,2.31 -0.42,0.36 -0.35,0.9 0.1,0.77 -0.65,1.1 -0.35,0.16 -0.36,0.55 v 0.53 q -0.01,0.44 -0.36,0.71 -0.75,0.55 -1.02,1.53 -6.2,-11.21 -18.88,-15.96 0.45,-0.43 -0.26,-0.78 -0.47,-0.23 -0.1,-0.6 l 0.33,-0.33 q 0.25,-0.25 0.17,-0.59 -0.23,-0.93 0.67,-1.34 0.44,-0.21 0.32,-0.68 -0.22,-0.92 0.7,-1.34 0.41,-0.18 0.31,-0.62 -0.24,-1.07 0.73,-1.35 a 0.48,0.48 0 0 0 0.32,-0.6 q -0.45,-1.44 0.54,-2.43 0.4,-0.41 0.38,-0.98 -0.03,-0.73 0.68,-0.98 0.48,-0.18 0.35,-0.67 -0.24,-0.95 0.69,-1.37 0.41,-0.18 0.31,-0.62 -0.23,-1.07 0.73,-1.35 a 0.48,0.48 0 0 0 0.32,-0.6 q -0.45,-1.43 0.53,-2.42 0.42,-0.43 0.4,-1.03 -0.02,-0.7 0.68,-0.96 0.45,-0.16 0.35,-0.62 -0.25,-1.09 0.72,-1.37 a 0.48,0.48 0 0 0 0.32,-0.6 q -0.46,-1.47 0.58,-2.48 0.38,-0.37 0.34,-0.9 -0.06,-0.81 0.75,-1.02 a 0.46,0.46 0 0 0 0.33,-0.59 q -0.46,-1.48 0.58,-2.49 0.38,-0.37 0.34,-0.9 -0.06,-0.81 0.76,-1.02 a 0.47,0.46 73.9 0 0 0.33,-0.6 q -0.51,-1.54 0.59,-2.4 0.49,-0.39 0.34,-1 -0.32,-1.3 0.69,-2.09 0.45,-0.34 0.31,-0.9 -0.32,-1.28 0.65,-2.06 0.4,-0.33 0.34,-0.85 -0.11,-0.88 0.75,-1.1 a 0.47,0.46 73.9 0 0 0.33,-0.6 q -0.51,-1.54 0.59,-2.4 0.49,-0.39 0.34,-1 -0.31,-1.28 0.66,-2.07 0.41,-0.32 0.37,-0.84 c -0.17,-2.33 1.35,-3.19 1.62,-5.06 q 0.07,-0.49 0.51,-0.73 z"
         id="path47" /><path
         fill="#5f92d9"
         d="m 358.3,87.43 q 11.43,8.03 20.01,19.09 -0.02,0.24 -0.18,0.38 a 0.18,0.17 65.8 0 1 -0.28,-0.11 q -0.02,-0.13 -0.06,-0.27 -0.03,-0.13 -0.17,-0.12 -1.01,0.09 -0.77,0.68 0.25,0.57 -0.33,0.81 -0.69,0.29 -0.52,1.09 0.12,0.58 -0.36,0.92 -0.97,0.67 -0.66,1.89 a 0.78,0.65 -58.3 0 1 0.03,0.21 q 0,0.86 -0.42,0.98 -0.75,0.21 -0.61,0.98 0.22,1.29 -0.59,2.19 -0.32,0.35 -0.37,0.81 l -0.1,1.07 q -0.06,0.53 -0.5,0.84 -0.54,0.37 -0.41,1.13 0.09,0.54 -0.35,0.86 -1,0.75 -0.71,2.12 0.12,0.6 -0.41,0.9 -0.76,0.42 -0.55,1.26 0.14,0.55 -0.38,0.79 -0.72,0.32 -0.66,1 0.04,0.5 -0.3,0.87 -0.81,0.89 -0.64,2.15 0.07,0.55 -0.36,0.9 -1,0.85 -0.72,2.29 0.09,0.47 -0.32,0.68 -0.86,0.45 -0.61,1.37 0.17,0.6 -0.42,0.78 -0.72,0.22 -0.59,0.97 0.09,0.55 -0.34,0.91 -0.99,0.85 -0.72,2.29 0.09,0.46 -0.32,0.68 -0.82,0.45 -0.71,1.36 0.05,0.45 -0.34,0.67 -0.81,0.45 -0.55,1.36 0.16,0.56 -0.4,0.74 -0.87,0.28 -0.59,1.3 a 0.77,0.26 -52 0 1 -0.2,0.56 q -0.14,0.2 -0.4,0.19 a 0.48,0.48 0 0 0 -0.48,0.62 q 0.36,1.09 -0.51,1.42 a 0.69,0.68 -16.6 0 0 -0.43,0.79 q 0.2,0.85 -0.47,1.17 -0.47,0.22 -0.51,0.73 l -0.09,1.26 q -0.04,0.51 -0.45,0.81 -0.64,0.48 -0.57,1.37 0.03,0.45 -0.36,0.68 -0.74,0.44 -0.65,1.3 0.04,0.44 -0.33,0.66 -0.77,0.47 -0.66,1.35 0.05,0.45 -0.35,0.67 -0.8,0.44 -0.66,1.38 0.08,0.46 -0.35,0.66 -0.55,0.25 -0.64,0.83 -0.07,0.49 -0.31,0.93 -0.51,0.94 -1.26,1.5 -0.45,0.34 -0.34,0.89 0.16,0.77 -0.56,1 a 0.68,0.68 0 0 0 -0.44,0.8 q 0.22,0.92 -0.57,1.22 a 0.69,0.68 -16.6 0 0 -0.43,0.79 q 0.2,0.88 -0.51,1.18 -0.49,0.22 -0.49,0.75 v 0.52 q 0,0.29 -0.25,0.43 -0.92,0.54 -0.85,1.47 0.02,0.44 -0.36,0.67 -0.75,0.45 -0.64,1.33 0.05,0.44 -0.31,0.69 -1.32,0.93 -1.72,2.37 -0.11,0.41 -0.43,0.69 -0.59,0.5 -0.54,1.25 0.02,0.45 -0.36,0.67 -0.75,0.45 -0.64,1.33 0.05,0.44 -0.31,0.69 -1.32,0.93 -1.72,2.38 -0.11,0.41 -0.44,0.68 -0.58,0.5 -0.53,1.26 0.02,0.43 -0.33,0.68 -1.22,0.87 -1.61,2.2 -0.15,0.51 -0.55,0.87 -0.51,0.46 -0.52,1.12 0,0.41 -0.31,0.69 c -0.79,0.7 -1.4,1.34 -1.67,2.47 q -0.39,1.64 -2,2.24 c 6.65,-15.92 7.87,-33.5 -0.28,-49 q 0.27,-0.98 1.02,-1.53 0.35,-0.27 0.36,-0.71 v -0.53 q 0.01,-0.39 0.36,-0.55 0.75,-0.33 0.65,-1.1 -0.07,-0.54 0.35,-0.9 0.99,-0.85 0.7,-2.31 -0.09,-0.47 0.34,-0.67 0.79,-0.38 0.69,-1.33 -0.06,-0.49 0.39,-0.71 0.77,-0.39 0.48,-1.38 a 0.54,0.54 0 0 1 0.37,-0.67 q 0.89,-0.26 0.67,-1.24 a 0.69,0.68 -17.4 0 1 0.42,-0.79 q 0.79,-0.29 0.58,-1.21 a 0.68,0.67 -16.9 0 1 0.42,-0.78 q 0.8,-0.32 0.57,-1.27 -0.12,-0.5 0.35,-0.68 0.82,-0.33 0.71,-1.09 -0.22,-1.52 0.61,-2.22 0.37,-0.3 0.3,-0.78 -0.11,-0.73 0.64,-1.07 0.52,-0.24 0.39,-0.81 -0.19,-0.78 0.51,-1.14 0.43,-0.23 0.47,-0.72 l 0.12,-1.5 q 0.04,-0.45 0.43,-0.67 0.69,-0.38 0.48,-1.28 a 0.66,0.66 0 0 1 0.43,-0.78 q 0.7,-0.25 0.58,-0.99 -0.08,-0.48 0.3,-0.79 1.1,-0.91 0.61,-2.4 -0.22,-0.67 0.47,-0.81 0.2,-0.04 0.36,-0.16 a 0.81,0.8 -26.4 0 0 0.29,-0.85 q -0.33,-1.31 0.57,-2.03 0.46,-0.37 0.36,-0.96 -0.13,-0.74 0.57,-1.09 0.46,-0.22 0.46,-0.73 v -1.26 q 0,-0.61 0.49,-0.97 1.92,-1.45 1.44,-3.96 a 0.92,0.92 0 0 1 0.43,-0.96 q 1.04,-0.61 0.6,-2.05 a 0.81,0.81 0 0 1 0.37,-0.93 q 1.07,-0.61 0.64,-2.06 a 0.81,0.81 0 0 1 0.37,-0.94 q 1.06,-0.61 0.62,-2.07 -0.16,-0.55 0.32,-0.88 0.93,-0.62 1.06,-1.77 0.05,-0.47 0.34,-0.85 z"
         id="path48" /><path
         fill="#6689d7"
         d="m 378.31,106.52 c 6.72,8.32 11.42,18.85 14.84,28.77 q -0.06,0.59 -0.7,0.87 -0.42,0.19 -0.33,0.65 0.2,0.95 -0.62,1.3 a 0.74,0.73 70.6 0 0 -0.42,0.89 q 0.43,1.46 -0.6,2.11 -0.47,0.29 -0.37,0.82 0.17,0.87 -0.61,1.17 a 0.72,0.72 0 0 0 -0.43,0.88 q 0.45,1.49 -0.61,2.14 -0.41,0.26 -0.33,0.74 0.16,0.93 -0.66,1.27 -0.45,0.18 -0.36,0.66 0.21,1 -0.66,1.34 -0.44,0.18 -0.34,0.64 0.22,0.99 -0.61,1.34 a 0.73,0.72 70.3 0 0 -0.42,0.89 q 0.49,1.66 -0.92,2.3 -0.11,0.05 -0.16,-0.06 -0.06,-0.12 -0.12,-0.24 -0.01,-0.02 -0.13,0 -0.43,0.09 -0.59,0.43 -0.12,0.24 -0.03,0.65 0.32,1.46 -0.74,2.21 -0.44,0.31 -0.3,0.83 0.36,1.35 -0.69,2.19 -0.32,0.25 -0.26,0.65 0.1,0.85 -0.67,1.17 -0.45,0.18 -0.35,0.66 0.19,0.88 -0.62,1.41 -0.44,0.3 -0.37,0.82 0.11,0.8 -0.63,1.08 a 0.72,0.72 0 0 0 -0.43,0.88 q 0.45,1.49 -0.6,2.14 -0.43,0.26 -0.35,0.75 0.12,0.78 -0.44,1.2 -0.36,0.27 -0.48,0.7 -0.43,1.49 -1.77,2.37 -0.39,0.25 -0.3,0.7 0.17,0.96 -0.67,1.29 -0.47,0.18 -0.35,0.67 0.18,0.81 -0.43,1.26 -0.36,0.26 -0.48,0.69 -0.41,1.53 -1.82,2.42 -0.4,0.24 -0.28,0.69 0.38,1.46 -0.66,2.37 -0.37,0.34 -0.32,0.84 0.08,0.63 -0.43,0.95 -0.36,0.24 -0.47,0.67 -0.38,1.6 -1.85,2.45 a 0.57,0.56 -21.6 0 0 -0.27,0.61 q 0.24,1.02 -0.62,1.37 -0.48,0.2 -0.37,0.7 0.17,0.8 -0.43,1.23 -0.36,0.27 -0.48,0.7 -0.42,1.52 -1.78,2.39 -0.4,0.25 -0.3,0.71 0.15,0.78 -0.43,1.19 -0.37,0.27 -0.48,0.7 -0.42,1.52 -1.79,2.4 -0.4,0.25 -0.3,0.71 0.15,0.77 -0.43,1.19 -0.36,0.26 -0.48,0.7 -0.43,1.52 -1.76,2.4 -0.33,0.22 -0.33,0.61 v 0.47 a 0.68,0.67 -22.8 0 1 -0.2,0.48 l -1.44,1.48 q -0.38,0.38 -0.34,0.92 0.04,0.68 -0.57,1.01 -0.35,0.19 -0.42,0.59 -0.25,1.55 -1.66,2.36 -0.37,0.22 -0.37,0.64 v 0.39 q 0,0.43 -0.31,0.73 l -1.5,1.46 q -0.19,0.19 -0.19,0.45 v 0.36 q 0,0.43 -0.31,0.73 l -1.5,1.46 q -0.19,0.19 -0.19,0.45 v 0.36 q 0,0.43 -0.31,0.73 l -1.5,1.46 q -0.19,0.19 -0.19,0.45 v 0.34 q 0,0.43 -0.31,0.74 l -2.51,2.49 q -0.18,0.19 -0.18,0.45 v 0.34 q 0,0.43 -0.31,0.73 l -1.5,1.46 q -0.19,0.19 -0.19,0.45 v 0.35 q 0,0.42 -0.31,0.73 l -2.51,2.49 q -0.18,0.19 -0.18,0.45 v 0.33 q 0,0.42 -0.31,0.73 l -2.51,2.49 q -0.18,0.19 -0.18,0.45 v 0.32 q 0,0.43 -0.31,0.74 l -2.51,2.49 q -0.18,0.19 -0.18,0.45 v 0.33 q 0,0.42 -0.31,0.73 l -2.51,2.49 q -0.18,0.19 -0.18,0.45 v 0.32 q 0,0.43 -0.31,0.73 l -3.51,3.51 q -0.18,0.18 -0.18,0.44 v 0.47 a 0.75,0.72 -22.6 0 1 -0.23,0.53 l -2.12,2.07 q -0.3,0.3 -0.73,0.3 h -0.56 q -0.47,0 -0.36,0.46 0.26,1.08 -0.68,1.59 -0.32,0.17 -0.32,0.53 v 0.37 q 0,0.43 -0.31,0.73 l -8.51,8.51 q -0.18,0.19 -0.18,0.45 v 0.3 q 0,0.44 -0.31,0.74 l -16.32,16.33 q -0.4,0.4 -0.35,0.96 0.04,0.56 -0.35,0.87 -0.21,0.17 -0.48,0.16 -0.24,-0.01 -0.49,0.04 -0.44,0.09 -0.76,0.41 l -19.38,19.37 q -0.18,0.18 -0.43,0.18 h -0.32 q -0.45,0 -0.79,0.29 -3.02,2.54 -4.82,5.85 l -26.06,4.83 q -0.56,0.1 -0.5,0.67 l 1.3,11.44 q -0.42,2.24 -1.14,2.48 -0.77,1.28 -2.1,1.55 -0.51,0.1 -0.88,0.47 l -2.27,2.27 q -0.16,0.15 -0.37,0.15 -0.27,-0.01 -0.54,0.06 -0.44,0.1 -0.75,0.43 l -1.32,1.34 q -0.16,0.17 -0.39,0.17 -0.27,-0.01 -0.54,0.06 -0.44,0.1 -0.75,0.43 l -1.32,1.34 q -0.16,0.17 -0.39,0.17 -0.15,-0.01 -0.31,0.01 -0.39,0.05 -0.7,0.29 -0.91,0.67 -1.52,1.55 -0.13,0.18 -0.34,0.17 -0.21,-0.01 -0.38,-0.11 -0.33,-0.21 -0.6,0.07 l -1.71,1.84 q -0.17,0.19 -0.43,0.18 -0.28,-0.01 -0.55,0.06 -0.44,0.11 -0.76,0.43 l -1.22,1.26 q -0.24,0.25 -0.59,0.25 h -0.27 q -0.33,0 -0.57,0.22 l -1.68,1.6 a 0.66,0.65 -66.5 0 1 -0.45,0.18 h -0.47 q -0.42,0 -0.65,0.35 -0.82,1.29 -2.21,1.69 -0.48,0.14 -0.81,0.52 -0.5,0.59 -1.26,0.44 -0.45,-0.08 -0.68,0.3 -0.83,1.33 -2.25,1.74 -0.48,0.14 -0.81,0.52 -0.5,0.59 -1.26,0.44 -0.45,-0.08 -0.68,0.3 -0.83,1.33 -2.25,1.74 -0.48,0.14 -0.81,0.52 -0.5,0.59 -1.26,0.44 -0.45,-0.08 -0.68,0.3 -0.83,1.33 -2.25,1.74 -0.48,0.14 -0.8,0.52 -0.51,0.59 -1.28,0.44 -0.47,-0.09 -0.67,0.34 -0.42,0.89 -1.35,0.65 -0.49,-0.12 -0.66,0.35 -0.25,0.69 -0.94,0.68 -0.51,0 -0.92,0.29 -0.82,0.59 -1.37,1.38 -0.31,0.44 -0.84,0.32 -0.73,-0.16 -0.97,0.32 -0.19,0.38 -0.6,0.5 l -4.09,1.22 -3.64,-25.39 q 0.68,-0.89 1.49,-0.92 0.42,-0.02 0.68,-0.36 0.86,-1.16 2.14,-1.54 0.52,-0.15 0.87,-0.55 0.49,-0.55 1.21,-0.52 0.47,0.02 0.72,-0.38 0.46,-0.73 1.36,-0.61 a 0.62,0.61 22 0 0 0.6,-0.25 q 1,-1.36 2.59,-1.93 0.34,-0.12 0.6,-0.38 0.3,-0.33 0.73,-0.42 0.3,-0.07 0.59,-0.19 1.16,-0.51 1.78,-1.42 0.22,-0.31 0.6,-0.31 h 0.52 q 0.48,0 0.73,-0.41 0.78,-1.28 2.09,-1.62 0.52,-0.14 0.87,-0.55 0.51,-0.58 1.28,-0.52 0.44,0.03 0.69,-0.33 0.7,-1.04 1.81,-1.49 c 1.29,-0.52 1.71,-0.96 2.56,-1.88 q 0.18,-0.2 0.46,-0.2 0.18,0 0.37,-0.02 0.1,-0.01 0.87,-0.52 0.76,-0.52 1.23,-1.27 a 0.41,0.4 -73.5 0 1 0.34,-0.19 h 0.7 q 0.45,0 0.7,-0.38 0.92,-1.41 2.46,-1.85 0.37,-0.11 0.63,-0.4 0.99,-1.17 2.41,-1.63 0.38,-0.13 0.63,-0.43 0.57,-0.69 1.32,-1.07 1.6,-0.81 1.98,-1.15 1,-0.9 1.9,-1.89 0.17,-0.19 0.43,-0.24 0.51,-0.1 1.03,-0.43 0.42,-0.26 0.78,-0.6 l 1.86,-1.77 a 0.59,0.58 -66.2 0 1 0.4,-0.16 h 0.47 q 0.45,0 0.68,-0.38 0.87,-1.43 2.51,-1.92 0.44,-0.13 0.77,-0.45 l 3.2,-3.13 q 0.14,-0.13 0.33,-0.17 0.13,-0.02 0.27,-0.07 0.77,-0.25 0.9,-0.37 l 2.52,-2.4 q 0.14,-0.13 0.32,-0.16 0.13,-0.03 0.26,-0.07 0.74,-0.24 0.89,-0.39 l 4.48,-4.33 q 0.18,-0.17 0.43,-0.22 0.56,-0.13 1.15,-0.51 0.36,-0.23 0.66,-0.53 l 3.74,-3.76 q 0.15,-0.15 0.35,-0.18 0.15,-0.03 0.3,-0.08 0.77,-0.25 0.9,-0.37 l 6.49,-6.35 q 0.22,-0.22 0.53,-0.24 l 0.28,-0.02 q 0.4,-0.02 0.68,-0.3 l 30.82,-30.81 q 0.19,-0.19 0.19,-0.46 0,-0.22 0.03,-0.42 a 0.97,0.96 -20.3 0 1 0.28,-0.6 l 6.52,-6.56 q 0.18,-0.18 0.17,-0.43 0,-0.18 0.02,-0.36 0.05,-0.39 0.33,-0.67 l 5.48,-5.6 q 0.17,-0.17 0.17,-0.41 0.01,-0.17 0.03,-0.35 0.03,-0.34 0.27,-0.58 l 3.4,-3.51 q 0.03,-0.03 0.29,-0.84 0.05,-0.16 0.08,-0.32 0.07,-0.45 0.46,-0.67 1.82,-1.05 2.9,-3.25 1.01,-2.05 3.28,-3.62 0.43,-0.3 0.5,-0.81 0.14,-1.09 1.22,-1.44 0.5,-0.16 0.57,-0.69 0.09,-0.71 0.71,-1.09 0.46,-0.29 0.53,-0.83 0.1,-0.84 0.84,-1.08 0.31,-0.1 0.42,-0.41 0.41,-1.07 1.43,-1.62 0.36,-0.2 0.57,-0.55 0.33,-0.52 0.84,-0.48 0.14,0.01 0.16,-0.13 0.04,-0.28 0.15,-0.6 0.06,-0.17 0.24,-0.22 0.13,-0.03 0.25,-0.06 0.15,-0.03 0.11,-0.17 -0.16,-0.6 0.41,-0.84 0.41,-0.18 0.21,-0.57 l -0.29,-0.58 q 5.79,-7.15 9.44,-15.51 1.61,-0.6 2,-2.24 c 0.27,-1.13 0.88,-1.77 1.67,-2.47 q 0.31,-0.28 0.31,-0.69 0.01,-0.66 0.52,-1.12 0.4,-0.36 0.55,-0.87 0.39,-1.33 1.61,-2.2 0.35,-0.25 0.33,-0.68 -0.05,-0.76 0.53,-1.26 0.33,-0.27 0.44,-0.68 0.4,-1.45 1.72,-2.38 0.36,-0.25 0.31,-0.69 -0.11,-0.88 0.64,-1.33 0.38,-0.22 0.36,-0.67 -0.05,-0.75 0.54,-1.25 0.32,-0.28 0.43,-0.69 0.4,-1.44 1.72,-2.37 0.36,-0.25 0.31,-0.69 -0.11,-0.88 0.64,-1.33 0.38,-0.23 0.36,-0.67 -0.07,-0.93 0.85,-1.47 0.25,-0.14 0.25,-0.43 v -0.52 q 0,-0.53 0.49,-0.75 0.71,-0.3 0.51,-1.18 a 0.69,0.68 -16.6 0 1 0.43,-0.79 q 0.79,-0.3 0.57,-1.22 a 0.68,0.68 0 0 1 0.44,-0.8 q 0.72,-0.23 0.56,-1 -0.11,-0.55 0.34,-0.89 0.75,-0.56 1.26,-1.5 0.24,-0.44 0.31,-0.93 0.09,-0.58 0.64,-0.83 0.43,-0.2 0.35,-0.66 -0.14,-0.94 0.66,-1.38 0.4,-0.22 0.35,-0.67 -0.11,-0.88 0.66,-1.35 0.37,-0.22 0.33,-0.66 -0.09,-0.86 0.65,-1.3 0.39,-0.23 0.36,-0.68 -0.07,-0.89 0.57,-1.37 0.41,-0.3 0.45,-0.81 l 0.09,-1.26 q 0.04,-0.51 0.51,-0.73 0.67,-0.32 0.47,-1.17 a 0.69,0.68 -16.6 0 1 0.43,-0.79 q 0.87,-0.33 0.51,-1.42 a 0.48,0.48 0 0 1 0.48,-0.62 q 0.26,0.01 0.4,-0.19 a 0.77,0.26 -52 0 0 0.2,-0.56 q -0.28,-1.02 0.59,-1.3 0.56,-0.18 0.4,-0.74 -0.26,-0.91 0.55,-1.36 0.39,-0.22 0.34,-0.67 -0.11,-0.91 0.71,-1.36 0.41,-0.22 0.32,-0.68 -0.27,-1.44 0.72,-2.29 0.43,-0.36 0.34,-0.91 -0.13,-0.75 0.59,-0.97 0.59,-0.18 0.42,-0.78 -0.25,-0.92 0.61,-1.37 0.41,-0.21 0.32,-0.68 -0.28,-1.44 0.72,-2.29 0.43,-0.35 0.36,-0.9 -0.17,-1.26 0.64,-2.15 0.34,-0.37 0.3,-0.87 -0.06,-0.68 0.66,-1 0.52,-0.24 0.38,-0.79 -0.21,-0.84 0.55,-1.26 0.53,-0.3 0.41,-0.9 -0.29,-1.37 0.71,-2.12 0.44,-0.32 0.35,-0.86 -0.13,-0.76 0.41,-1.13 0.44,-0.31 0.5,-0.84 l 0.1,-1.07 q 0.05,-0.46 0.37,-0.81 0.81,-0.9 0.59,-2.19 -0.14,-0.77 0.61,-0.98 0.42,-0.12 0.42,-0.98 a 0.78,0.65 -58.3 0 0 -0.03,-0.21 q -0.31,-1.22 0.66,-1.89 0.48,-0.34 0.36,-0.92 -0.17,-0.8 0.52,-1.09 0.58,-0.24 0.33,-0.81 -0.24,-0.59 0.77,-0.68 0.14,-0.01 0.17,0.12 0.04,0.14 0.06,0.27 a 0.18,0.17 65.8 0 0 0.28,0.11 q 0.16,-0.14 0.18,-0.38 z"
         id="path49" /><path
         fill="#282828"
         d="m 312.75,133.5 q 12.68,4.75 18.88,15.96 c 8.15,15.5 6.93,33.08 0.28,49 q -3.65,8.36 -9.44,15.51 c -16.2,18.65 -41.03,29.97 -64,36.93 q -13.31,3.98 -27.24,6.26 a 0.37,0.37 0 0 1 -0.43,-0.36 l -0.15,-12.59 q -0.08,-19.24 3.12,-39.85 1.06,-4.23 2.44,-9.92 c 6.01,-24.84 22.98,-47.36 46.19,-58.45 q 15.35,-7.38 30.35,-2.49 z"
         id="path50" /><path
         fill="#727bd5"
         d="m 393.15,135.29 c 18.02,53.49 -2.7,107.86 -46.17,141.97 -23.8,18.67 -52.15,30.45 -81.66,37 q 1.8,-3.31 4.82,-5.85 0.34,-0.29 0.79,-0.29 h 0.32 q 0.25,0 0.43,-0.18 l 19.38,-19.37 q 0.32,-0.32 0.76,-0.41 0.25,-0.05 0.49,-0.04 0.27,0.01 0.48,-0.16 0.39,-0.31 0.35,-0.87 -0.05,-0.56 0.35,-0.96 l 16.32,-16.33 q 0.31,-0.3 0.31,-0.74 v -0.3 q 0,-0.26 0.18,-0.45 l 8.51,-8.51 q 0.31,-0.3 0.31,-0.73 v -0.37 q 0,-0.36 0.32,-0.53 0.94,-0.51 0.68,-1.59 -0.11,-0.46 0.36,-0.46 h 0.56 q 0.43,0 0.73,-0.3 l 2.12,-2.07 a 0.75,0.72 -22.6 0 0 0.23,-0.53 v -0.47 q 0,-0.26 0.18,-0.44 l 3.51,-3.51 q 0.31,-0.3 0.31,-0.73 v -0.32 q 0,-0.26 0.18,-0.45 l 2.51,-2.49 q 0.31,-0.31 0.31,-0.73 v -0.33 q 0,-0.26 0.18,-0.45 l 2.51,-2.49 q 0.31,-0.31 0.31,-0.74 v -0.32 q 0,-0.26 0.18,-0.45 l 2.51,-2.49 q 0.31,-0.31 0.31,-0.73 v -0.33 q 0,-0.26 0.18,-0.45 l 2.51,-2.49 q 0.31,-0.31 0.31,-0.73 v -0.35 q 0,-0.26 0.19,-0.45 l 1.5,-1.46 q 0.31,-0.3 0.31,-0.73 v -0.34 q 0,-0.26 0.18,-0.45 l 2.51,-2.49 q 0.31,-0.31 0.31,-0.74 v -0.34 q 0,-0.26 0.19,-0.45 l 1.5,-1.46 q 0.31,-0.3 0.31,-0.73 v -0.36 q 0,-0.26 0.19,-0.45 l 1.5,-1.46 q 0.31,-0.3 0.31,-0.73 v -0.36 q 0,-0.26 0.19,-0.45 l 1.5,-1.46 q 0.31,-0.3 0.31,-0.73 v -0.39 q 0,-0.42 0.37,-0.64 1.41,-0.81 1.66,-2.36 0.07,-0.4 0.42,-0.59 0.61,-0.33 0.57,-1.01 -0.04,-0.54 0.34,-0.92 l 1.44,-1.48 a 0.68,0.67 -22.8 0 0 0.2,-0.48 v -0.47 q 0,-0.39 0.33,-0.61 1.33,-0.88 1.76,-2.4 0.12,-0.44 0.48,-0.7 0.58,-0.42 0.43,-1.19 -0.1,-0.46 0.3,-0.71 1.37,-0.88 1.79,-2.4 0.11,-0.43 0.48,-0.7 0.58,-0.41 0.43,-1.19 -0.1,-0.46 0.3,-0.71 1.36,-0.87 1.78,-2.39 0.12,-0.43 0.48,-0.7 0.6,-0.43 0.43,-1.23 -0.11,-0.5 0.37,-0.7 0.86,-0.35 0.62,-1.37 a 0.57,0.56 -21.6 0 1 0.27,-0.61 q 1.47,-0.85 1.85,-2.45 0.11,-0.43 0.47,-0.67 0.51,-0.32 0.43,-0.95 -0.05,-0.5 0.32,-0.84 1.04,-0.91 0.66,-2.37 -0.12,-0.45 0.28,-0.69 1.41,-0.89 1.82,-2.42 0.12,-0.43 0.48,-0.69 0.61,-0.45 0.43,-1.26 -0.12,-0.49 0.35,-0.67 0.84,-0.33 0.67,-1.29 -0.09,-0.45 0.3,-0.7 1.34,-0.88 1.77,-2.37 0.12,-0.43 0.48,-0.7 0.56,-0.42 0.44,-1.2 -0.08,-0.49 0.35,-0.75 1.05,-0.65 0.6,-2.14 a 0.72,0.72 0 0 1 0.43,-0.88 q 0.74,-0.28 0.63,-1.08 -0.07,-0.52 0.37,-0.82 0.81,-0.53 0.62,-1.41 -0.1,-0.48 0.35,-0.66 0.77,-0.32 0.67,-1.17 -0.06,-0.4 0.26,-0.65 1.05,-0.84 0.69,-2.19 -0.14,-0.52 0.3,-0.83 1.06,-0.75 0.74,-2.21 -0.09,-0.41 0.03,-0.65 0.16,-0.34 0.59,-0.43 0.12,-0.02 0.13,0 0.06,0.12 0.12,0.24 0.05,0.11 0.16,0.06 1.41,-0.64 0.92,-2.3 a 0.73,0.72 70.3 0 1 0.42,-0.89 q 0.83,-0.35 0.61,-1.34 -0.1,-0.46 0.34,-0.64 0.87,-0.34 0.66,-1.34 -0.09,-0.48 0.36,-0.66 0.82,-0.34 0.66,-1.27 -0.08,-0.48 0.33,-0.74 1.06,-0.65 0.61,-2.14 a 0.72,0.72 0 0 1 0.43,-0.88 q 0.78,-0.3 0.61,-1.17 -0.1,-0.53 0.37,-0.82 1.03,-0.65 0.6,-2.11 a 0.74,0.73 70.6 0 1 0.42,-0.89 q 0.82,-0.35 0.62,-1.3 -0.09,-0.46 0.33,-0.65 0.64,-0.28 0.7,-0.87 z"
         id="path51" /><path
         fill="#4ea7dc"
         d="m 233.77,204.36 q -3.2,20.61 -3.12,39.85 l -0.15,-1.49 q -0.09,-0.89 -0.37,-0.05 -0.35,1.05 -0.63,1.32 -2.97,2.76 -5.78,5.69 -0.19,0.2 -0.47,0.2 h -0.32 q -0.43,0 -0.73,0.31 l -6.51,6.51 q -0.19,0.18 -0.45,0.18 h -0.31 q -0.43,0 -0.73,0.31 l -4.51,4.51 q -0.18,0.18 -0.44,0.18 h -0.32 q -0.43,0 -0.73,0.31 l -3.51,3.51 q -0.18,0.18 -0.44,0.18 h -0.32 q -0.43,0 -0.74,0.31 l -2.49,2.51 q -0.19,0.18 -0.45,0.18 h -0.32 q -0.43,0 -0.74,0.31 l -2.49,2.51 q -0.19,0.18 -0.45,0.18 h -0.32 q -0.43,0 -0.74,0.31 l -2.49,2.51 q -0.19,0.18 -0.45,0.18 h -0.34 q -0.43,0 -0.73,0.31 l -1.46,1.51 q -0.19,0.18 -0.45,0.18 h -0.34 q -0.43,0 -0.74,0.31 l -2.49,2.51 q -0.19,0.18 -0.45,0.18 h -0.34 q -0.43,0 -0.73,0.31 l -1.46,1.51 q -0.19,0.18 -0.45,0.18 h -0.36 q -0.43,0 -0.73,0.31 l -1.46,1.51 q -0.19,0.18 -0.45,0.18 h -0.33 q -0.42,0 -0.73,0.3 l -1.48,1.46 q -0.24,0.24 -0.59,0.24 h -0.36 a 0.68,0.67 -67.2 0 0 -0.48,0.2 l -1.48,1.44 q -0.38,0.38 -0.92,0.34 -0.68,-0.04 -1.01,0.57 -0.19,0.36 -0.59,0.42 -1.54,0.24 -2.35,1.64 -0.23,0.39 -0.68,0.39 h -0.49 a 0.68,0.67 -67.2 0 0 -0.48,0.2 l -1.48,1.44 q -0.38,0.38 -0.92,0.34 -0.66,-0.04 -0.99,0.54 -0.2,0.34 -0.59,0.41 -1.58,0.27 -2.42,1.77 -0.23,0.41 -0.68,0.31 -1,-0.21 -1.35,0.65 -0.18,0.47 -0.67,0.36 -0.81,-0.19 -1.25,0.41 -0.27,0.37 -0.7,0.49 -1.51,0.42 -2.39,1.78 -0.25,0.38 -0.7,0.3 -0.95,-0.18 -1.28,0.65 -0.19,0.46 -0.66,0.36 -1,-0.21 -1.35,0.64 -0.18,0.46 -0.66,0.36 -1,-0.21 -1.35,0.66 -0.18,0.45 -0.66,0.35 -0.99,-0.21 -1.34,0.64 -0.18,0.44 -0.65,0.35 -0.99,-0.21 -1.33,0.64 -0.19,0.46 -0.67,0.36 -0.99,-0.21 -1.34,0.64 -0.18,0.46 -0.66,0.36 -0.99,-0.21 -1.33,0.64 -0.19,0.46 -0.67,0.36 -0.99,-0.21 -1.34,0.64 -0.18,0.46 -0.66,0.36 -0.99,-0.21 -1.33,0.64 -0.19,0.46 -0.67,0.36 -0.99,-0.21 -1.34,0.64 -0.18,0.46 -0.66,0.36 -0.99,-0.21 -1.33,0.64 -0.19,0.46 -0.67,0.36 -0.99,-0.21 -1.34,0.64 -0.18,0.46 -0.66,0.36 -0.99,-0.21 -1.34,0.64 -0.18,0.46 -0.66,0.36 -0.99,-0.21 -1.35,0.64 -0.17,0.43 -0.62,0.36 -1.18,-0.19 -1.47,0.88 a 0.42,0.42 0 0 1 -0.43,0.31 q -0.27,-0.02 -0.42,0.13 -0.3,0.29 0.11,0.31 1.5,0.07 0.9,0.79 -22.04,-3.6 -43.47,-10.03 -0.21,-0.6 0.07,-0.97 0.29,-0.39 0.78,-0.38 0.43,0.01 0.6,-0.46 0.22,-0.59 0.84,-0.59 h 1.22 q 0.54,0 0.89,-0.4 0.78,-0.9 2.01,-0.6 0.61,0.15 1,-0.34 0.86,-1.1 2.4,-0.59 a 0.47,0.46 16.1 0 0 0.6,-0.33 q 0.21,-0.82 1.02,-0.76 0.53,0.04 0.9,-0.34 1.01,-1.04 2.49,-0.58 a 0.46,0.46 0 0 0 0.59,-0.33 q 0.21,-0.81 1.02,-0.75 0.53,0.04 0.9,-0.34 1.01,-1.04 2.49,-0.58 a 0.46,0.46 0 0 0 0.59,-0.33 q 0.21,-0.81 1.02,-0.75 0.53,0.04 0.9,-0.34 1.01,-1.04 2.48,-0.58 a 0.48,0.48 0 0 0 0.6,-0.32 q 0.28,-0.97 1.35,-0.73 0.44,0.1 0.62,-0.31 0.42,-0.93 1.37,-0.69 0.49,0.13 0.67,-0.35 0.25,-0.71 0.98,-0.68 0.57,0.02 0.98,-0.38 0.99,-0.99 2.43,-0.54 a 0.48,0.48 0 0 0 0.6,-0.32 q 0.28,-0.97 1.35,-0.73 0.44,0.1 0.62,-0.31 0.42,-0.92 1.34,-0.7 0.47,0.11 0.68,-0.32 0.41,-0.9 1.32,-0.68 0.47,0.11 0.67,-0.32 0.42,-0.9 1.33,-0.68 0.47,0.11 0.68,-0.32 0.41,-0.9 1.32,-0.68 0.47,0.11 0.67,-0.32 0.42,-0.9 1.33,-0.68 0.47,0.11 0.68,-0.32 0.41,-0.9 1.32,-0.68 0.47,0.11 0.67,-0.32 0.42,-0.9 1.33,-0.68 0.47,0.11 0.68,-0.32 0.41,-0.9 1.32,-0.68 0.47,0.11 0.67,-0.32 0.41,-0.88 1.3,-0.68 0.5,0.1 0.72,-0.36 0.43,-0.88 1.38,-0.62 a 0.54,0.54 0 0 0 0.61,-0.25 q 0.8,-1.42 2.29,-1.82 0.46,-0.13 0.77,-0.5 0.5,-0.6 1.27,-0.45 0.47,0.09 0.67,-0.34 0.41,-0.87 1.32,-0.66 0.47,0.12 0.68,-0.32 0.4,-0.89 1.31,-0.68 0.45,0.1 0.69,-0.29 0.83,-1.36 2.28,-1.76 0.49,-0.13 0.8,-0.53 0.36,-0.45 0.88,-0.44 0.51,0 0.92,-0.3 0.81,-0.59 1.35,-1.35 0.24,-0.33 0.64,-0.33 h 0.52 q 0.42,0 0.65,-0.35 0.83,-1.31 2.25,-1.7 0.48,-0.14 0.8,-0.53 0.37,-0.47 0.91,-0.43 0.56,0.04 0.97,-0.36 l 1.47,-1.43 a 0.68,0.67 -67.2 0 1 0.48,-0.2 h 0.47 q 0.41,0 0.64,-0.34 0.95,-1.45 2.59,-1.72 0.42,-0.07 0.64,-0.44 0.75,-1.27 2.15,-1.68 0.45,-0.13 0.8,-0.44 l 1.7,-1.5 q 0.46,0.03 0.8,-0.14 0.24,-0.11 0.29,-0.35 0.05,-0.22 -0.02,-0.48 0.29,0.21 0.41,0.51 0.08,0.19 0.15,0 0.42,-1.26 1.69,-1.5 0.53,-0.1 0.93,-0.48 l 2.23,-2.14 q 0.3,-0.3 0.72,-0.3 h 0.28 q 0.26,0 0.45,-0.18 l 2.49,-2.51 q 0.31,-0.31 0.74,-0.31 h 0.32 q 0.26,0 0.45,-0.18 l 2.49,-2.51 q 0.31,-0.31 0.74,-0.31 h 0.32 q 0.26,0 0.45,-0.18 l 2.49,-2.51 q 0.31,-0.31 0.74,-0.31 h 0.32 q 0.26,0 0.44,-0.18 l 4.51,-4.51 q 0.3,-0.31 0.73,-0.31 h 0.32 q 0.26,0 0.44,-0.18 l 4.51,-4.51 q 0.3,-0.31 0.73,-0.31 h 0.31 q 0.26,0 0.45,-0.18 l 7.51,-7.51 q 0.3,-0.31 0.73,-0.31 h 0.32 q 0.26,0 0.44,-0.18 z"
         id="path52" /><path
         fill="#5f92d9"
         d="m 322.47,213.97 0.29,0.58 q 0.2,0.39 -0.21,0.57 -0.57,0.24 -0.41,0.84 0.04,0.14 -0.11,0.17 -0.12,0.03 -0.25,0.06 -0.18,0.05 -0.24,0.22 -0.11,0.32 -0.15,0.6 -0.02,0.14 -0.16,0.13 -0.51,-0.04 -0.84,0.48 -0.21,0.35 -0.57,0.55 -1.02,0.55 -1.43,1.62 -0.11,0.31 -0.42,0.41 -0.74,0.24 -0.84,1.08 -0.07,0.54 -0.53,0.83 -0.62,0.38 -0.71,1.09 -0.07,0.53 -0.57,0.69 -1.08,0.35 -1.22,1.44 -0.07,0.51 -0.5,0.81 -2.27,1.57 -3.28,3.62 -1.08,2.2 -2.9,3.25 -0.39,0.22 -0.46,0.67 -0.03,0.16 -0.08,0.32 -0.26,0.81 -0.29,0.84 l -3.4,3.51 q -0.24,0.24 -0.27,0.58 -0.02,0.18 -0.03,0.35 0,0.24 -0.17,0.41 l -5.48,5.6 q -0.28,0.28 -0.33,0.67 -0.02,0.18 -0.02,0.36 0.01,0.25 -0.17,0.43 l -6.52,6.56 a 0.97,0.96 -20.3 0 0 -0.28,0.6 q -0.03,0.2 -0.03,0.42 0,0.27 -0.19,0.46 l -30.82,30.81 q -0.28,0.28 -0.68,0.3 l -0.28,0.02 q -0.31,0.02 -0.53,0.24 l -6.49,6.35 q -0.13,0.12 -0.9,0.37 -0.15,0.05 -0.3,0.08 -0.2,0.03 -0.35,0.18 l -3.74,3.76 q -0.3,0.3 -0.66,0.53 -0.59,0.38 -1.15,0.51 -0.25,0.05 -0.43,0.22 l -4.48,4.33 q -0.15,0.15 -0.89,0.39 -0.13,0.04 -0.26,0.07 -0.18,0.03 -0.32,0.16 l -2.52,2.4 q -0.13,0.12 -0.9,0.37 -0.14,0.05 -0.27,0.07 -0.19,0.04 -0.33,0.17 l -3.2,3.13 q -0.33,0.32 -0.77,0.45 -1.64,0.49 -2.51,1.92 -0.23,0.38 -0.68,0.38 h -0.47 a 0.59,0.58 -66.2 0 0 -0.4,0.16 l -1.86,1.77 q -0.36,0.34 -0.78,0.6 -0.52,0.33 -1.03,0.43 -0.26,0.05 -0.43,0.24 -0.9,0.99 -1.9,1.89 -0.38,0.34 -1.98,1.15 -0.75,0.38 -1.32,1.07 -0.25,0.3 -0.63,0.43 -1.42,0.46 -2.41,1.63 -0.26,0.29 -0.63,0.4 -1.54,0.44 -2.46,1.85 -0.25,0.38 -0.7,0.38 h -0.7 a 0.41,0.4 -73.5 0 0 -0.34,0.19 q -0.47,0.75 -1.23,1.27 -0.77,0.51 -0.87,0.52 -0.19,0.02 -0.37,0.02 -0.28,0 -0.46,0.2 c -0.85,0.92 -1.27,1.36 -2.56,1.88 q -1.11,0.45 -1.81,1.49 -0.25,0.36 -0.69,0.33 -0.77,-0.06 -1.28,0.52 -0.35,0.41 -0.87,0.55 -1.31,0.34 -2.09,1.62 -0.25,0.41 -0.73,0.41 h -0.52 q -0.38,0 -0.6,0.31 -0.62,0.91 -1.78,1.42 -0.29,0.12 -0.59,0.19 -0.43,0.09 -0.73,0.42 -0.26,0.26 -0.6,0.38 -1.59,0.57 -2.59,1.93 a 0.62,0.61 22 0 1 -0.6,0.25 q -0.9,-0.12 -1.36,0.61 -0.25,0.4 -0.72,0.38 -0.72,-0.03 -1.21,0.52 -0.35,0.4 -0.87,0.55 -1.28,0.38 -2.14,1.54 -0.26,0.34 -0.68,0.36 -0.81,0.03 -1.49,0.92 l -2.79,-20.61 q -0.08,-0.56 -0.64,-0.58 l -6.6,-0.3 -1.25,-0.71 a 0.29,0.29 0 0 1 0.06,-0.53 q 0.23,-0.06 0.5,-0.05 0.57,0.04 0.92,-0.41 0.56,-0.71 1.38,-1.18 0.44,-0.26 0.94,-0.33 0.58,-0.08 0.75,-0.63 a 0.64,0.64 0 0 1 0.77,-0.44 q 0.84,0.2 1.18,-0.43 0.2,-0.39 0.64,-0.47 1.58,-0.29 2.44,-1.72 0.27,-0.47 0.8,-0.37 0.75,0.14 1.23,-0.46 0.27,-0.33 0.68,-0.44 1.23,-0.3 2.02,-1.37 0.33,-0.44 0.86,-0.58 1.53,-0.4 2.48,-1.74 0.24,-0.35 0.67,-0.32 0.77,0.05 1.27,-0.53 0.36,-0.4 0.88,-0.54 1.18,-0.32 1.96,-1.39 0.32,-0.45 0.87,-0.57 1.49,-0.34 2.27,-1.72 0.21,-0.36 0.63,-0.35 0.22,0 0.43,-0.02 0.08,-0.01 0.87,-0.54 0.76,-0.5 1.22,-1.25 a 0.41,0.38 -72.6 0 1 0.33,-0.19 H 197 q 0.16,0 0.98,-0.55 0.76,-0.52 1.22,-1.26 a 0.41,0.38 -72.6 0 1 0.33,-0.19 h 0.56 q 0.44,0 0.74,-0.31 l 2.46,-2.51 a 0.62,0.57 -65.8 0 1 0.42,-0.18 q 0.15,0 0.29,-0.01 0.19,-0.01 0.98,-0.54 0.76,-0.52 1.22,-1.26 a 0.41,0.38 -72.6 0 1 0.33,-0.19 h 0.56 q 0.44,0 0.74,-0.31 l 2.46,-2.51 a 0.62,0.57 -65.8 0 1 0.42,-0.18 q 0.25,0 0.5,-0.03 0.41,-0.06 0.69,-0.35 l 2.39,-2.44 a 0.62,0.57 -65.8 0 1 0.42,-0.18 q 0.16,0 0.32,-0.01 0.46,-0.04 0.79,-0.36 l 3.43,-3.31 q 0.18,-0.18 0.44,-0.21 l 0.54,-0.05 a 0.78,0.76 18.9 0 0 0.46,-0.22 l 2.57,-2.62 a 0.74,0.7 19.8 0 1 0.5,-0.22 q 0.16,0 0.33,-0.02 0.47,-0.05 0.8,-0.38 l 4.41,-4.4 q 0.19,-0.19 0.47,-0.2 0.16,0 0.33,-0.02 0.43,-0.05 0.74,-0.35 l 5.42,-5.35 q 0.19,-0.18 0.45,-0.18 0.19,0 0.38,-0.03 0.4,-0.05 0.68,-0.34 l 8.56,-8.57 q 0.22,-0.22 0.53,-0.24 l 0.32,-0.02 q 0.4,-0.02 0.68,-0.31 l 10.22,-10.1 q 0.01,-0.02 0.13,0.06 0.1,0.07 0.21,0.14 0.02,0.02 0.02,-0.01 l 0.03,-0.79 c 22.97,-6.96 47.8,-18.28 64,-36.93 z"
         id="path53" /><path
         fill="#3ebadf"
         d="m 124.66,254.02 q -3.32,-0.04 -5.36,1 -0.28,0.15 -0.59,0.08 -0.48,-0.1 -0.45,0.57 0.01,0.2 0.21,0.19 0.24,-0.01 0.4,0.08 0.88,0.5 -0.13,0.43 -0.53,-0.03 -0.83,0.47 a 0.71,0.7 -64.7 0 1 -0.84,0.31 q -0.75,-0.26 -0.97,0.37 -0.22,0.6 -0.85,0.6 h -0.5 q -0.31,0 -0.47,0.27 -0.54,0.92 -1.47,0.73 -0.46,-0.09 -0.67,0.34 -0.41,0.87 -1.31,0.66 -0.46,-0.1 -0.67,0.32 -0.42,0.9 -1.34,0.67 -0.47,-0.11 -0.67,0.33 -0.41,0.9 -1.33,0.68 -0.47,-0.11 -0.67,0.33 -0.42,0.89 -1.33,0.67 -0.47,-0.11 -0.67,0.33 -0.42,0.9 -1.36,0.66 -0.49,-0.12 -0.66,0.35 -0.26,0.72 -0.99,0.68 -0.57,-0.02 -0.97,0.38 -1,0.99 -2.44,0.55 a 0.47,0.47 0 0 0 -0.6,0.31 q -0.28,0.98 -1.37,0.73 -0.46,-0.11 -0.62,0.34 -0.26,0.71 -0.97,0.68 -0.6,-0.02 -1.02,0.4 -0.99,0.98 -2.42,0.54 a 0.48,0.47 -72.7 0 0 -0.6,0.32 q -0.28,0.97 -1.37,0.72 -0.47,-0.11 -0.63,0.34 -0.27,0.77 -1.08,0.69 -0.54,-0.06 -0.88,0.36 -0.79,0.93 -2.05,0.62 -0.6,-0.14 -0.98,0.35 -0.87,1.1 -2.41,0.59 a 0.47,0.47 0 0 0 -0.6,0.32 q -0.22,0.86 -1.1,0.75 -0.52,-0.06 -0.84,0.34 -0.81,0.99 -2.12,0.64 -0.58,-0.15 -0.93,0.34 -0.76,1.09 -2.17,0.62 a 0.7,0.69 18.4 0 0 -0.87,0.43 q -0.23,0.67 -0.91,0.62 -0.66,-0.05 -0.58,0.6 0.22,1.83 -0.83,3.09 l -0.01,-42.82 a 0.22,0.22 0 0 1 0.3,-0.2 q 26.43,10.42 54.59,16.23 z"
         id="path54" /><path
         fill="#569dda"
         d="m 230.65,244.21 0.15,12.59 a 0.37,0.37 0 0 0 0.43,0.36 q 13.93,-2.28 27.24,-6.26 l -0.03,0.79 q 0,0.03 -0.02,0.01 -0.11,-0.07 -0.21,-0.14 -0.12,-0.08 -0.13,-0.06 l -10.22,10.1 q -0.28,0.29 -0.68,0.31 l -0.32,0.02 q -0.31,0.02 -0.53,0.24 l -8.56,8.57 q -0.28,0.29 -0.68,0.34 -0.19,0.03 -0.38,0.03 -0.26,0 -0.45,0.18 l -5.42,5.35 q -0.31,0.3 -0.74,0.35 -0.17,0.02 -0.33,0.02 -0.28,0.01 -0.47,0.2 l -4.41,4.4 q -0.33,0.33 -0.8,0.38 -0.17,0.02 -0.33,0.02 a 0.74,0.7 19.8 0 0 -0.5,0.22 l -2.57,2.62 a 0.78,0.76 18.9 0 1 -0.46,0.22 l -0.54,0.05 q -0.26,0.03 -0.44,0.21 l -3.43,3.31 q -0.33,0.32 -0.79,0.36 -0.16,0.01 -0.32,0.01 a 0.62,0.57 -65.8 0 0 -0.42,0.18 l -2.39,2.44 q -0.28,0.29 -0.69,0.35 -0.25,0.03 -0.5,0.03 a 0.62,0.57 -65.8 0 0 -0.42,0.18 l -2.46,2.51 q -0.3,0.31 -0.74,0.31 h -0.56 a 0.41,0.38 -72.6 0 0 -0.33,0.19 q -0.46,0.74 -1.22,1.26 -0.79,0.53 -0.98,0.54 -0.14,0.01 -0.29,0.01 a 0.62,0.57 -65.8 0 0 -0.42,0.18 l -2.46,2.51 q -0.3,0.31 -0.74,0.31 h -0.56 a 0.41,0.38 -72.6 0 0 -0.33,0.19 q -0.46,0.74 -1.22,1.26 -0.82,0.55 -0.98,0.55 h -0.47 a 0.41,0.38 -72.6 0 0 -0.33,0.19 q -0.46,0.75 -1.22,1.25 -0.79,0.53 -0.87,0.54 -0.21,0.02 -0.43,0.02 -0.42,-0.01 -0.63,0.35 -0.78,1.38 -2.27,1.72 -0.55,0.12 -0.87,0.57 -0.78,1.07 -1.96,1.39 -0.52,0.14 -0.88,0.54 -0.5,0.58 -1.27,0.53 -0.43,-0.03 -0.67,0.32 -0.95,1.34 -2.48,1.74 -0.53,0.14 -0.86,0.58 -0.79,1.07 -2.02,1.37 -0.41,0.11 -0.68,0.44 -0.48,0.6 -1.23,0.46 -0.53,-0.1 -0.8,0.37 -0.86,1.43 -2.44,1.72 -0.44,0.08 -0.64,0.47 -0.34,0.63 -1.18,0.43 a 0.64,0.64 0 0 0 -0.77,0.44 q -0.17,0.55 -0.75,0.63 -0.5,0.07 -0.94,0.33 -0.82,0.47 -1.38,1.18 -0.35,0.45 -0.92,0.41 -0.27,-0.01 -0.5,0.05 a 0.29,0.29 0 0 0 -0.06,0.53 l 1.25,0.71 q -22.54,-1.2 -44.8,-4.98 0.6,-0.72 -0.9,-0.79 -0.41,-0.02 -0.11,-0.31 0.15,-0.15 0.42,-0.13 a 0.42,0.42 0 0 0 0.43,-0.31 q 0.29,-1.07 1.47,-0.88 0.45,0.07 0.62,-0.36 0.36,-0.85 1.35,-0.64 0.48,0.1 0.66,-0.36 0.35,-0.85 1.34,-0.64 0.48,0.1 0.66,-0.36 0.35,-0.85 1.34,-0.64 0.48,0.1 0.67,-0.36 0.34,-0.85 1.33,-0.64 0.48,0.1 0.66,-0.36 0.35,-0.85 1.34,-0.64 0.48,0.1 0.67,-0.36 0.34,-0.85 1.33,-0.64 0.48,0.1 0.66,-0.36 0.35,-0.85 1.34,-0.64 0.48,0.1 0.67,-0.36 0.34,-0.85 1.33,-0.64 0.48,0.1 0.66,-0.36 0.35,-0.85 1.34,-0.64 0.48,0.1 0.67,-0.36 0.34,-0.85 1.33,-0.64 0.47,0.09 0.65,-0.35 0.35,-0.85 1.34,-0.64 0.48,0.1 0.66,-0.35 0.35,-0.87 1.35,-0.66 0.48,0.1 0.66,-0.36 0.35,-0.85 1.35,-0.64 0.47,0.1 0.66,-0.36 0.33,-0.83 1.28,-0.65 0.45,0.08 0.7,-0.3 0.88,-1.36 2.39,-1.78 0.43,-0.12 0.7,-0.49 0.44,-0.6 1.25,-0.41 0.49,0.11 0.67,-0.36 0.35,-0.86 1.35,-0.65 0.45,0.1 0.68,-0.31 0.84,-1.5 2.42,-1.77 0.39,-0.07 0.59,-0.41 0.33,-0.58 0.99,-0.54 0.54,0.04 0.92,-0.34 l 1.48,-1.44 a 0.68,0.67 -67.2 0 1 0.48,-0.2 h 0.49 q 0.45,0 0.68,-0.39 0.81,-1.4 2.35,-1.64 0.4,-0.06 0.59,-0.42 0.33,-0.61 1.01,-0.57 0.54,0.04 0.92,-0.34 l 1.48,-1.44 a 0.68,0.67 -67.2 0 1 0.48,-0.2 h 0.36 q 0.35,0 0.59,-0.24 l 1.48,-1.46 q 0.31,-0.3 0.73,-0.3 h 0.33 q 0.26,0 0.45,-0.18 l 1.46,-1.51 q 0.3,-0.31 0.73,-0.31 h 0.36 q 0.26,0 0.45,-0.18 l 1.46,-1.51 q 0.3,-0.31 0.73,-0.31 h 0.34 q 0.26,0 0.45,-0.18 l 2.49,-2.51 q 0.31,-0.31 0.74,-0.31 h 0.34 q 0.26,0 0.45,-0.18 l 1.46,-1.51 q 0.3,-0.31 0.73,-0.31 h 0.34 q 0.26,0 0.45,-0.18 l 2.49,-2.51 q 0.31,-0.31 0.74,-0.31 h 0.32 q 0.26,0 0.45,-0.18 l 2.49,-2.51 q 0.31,-0.31 0.74,-0.31 h 0.32 q 0.26,0 0.45,-0.18 l 2.49,-2.51 q 0.31,-0.31 0.74,-0.31 h 0.32 q 0.26,0 0.44,-0.18 l 3.51,-3.51 q 0.3,-0.31 0.73,-0.31 h 0.32 q 0.26,0 0.44,-0.18 l 4.51,-4.51 q 0.3,-0.31 0.73,-0.31 h 0.31 q 0.26,0 0.45,-0.18 l 6.51,-6.51 q 0.3,-0.31 0.73,-0.31 h 0.32 q 0.28,0 0.47,-0.2 2.81,-2.93 5.78,-5.69 0.28,-0.27 0.63,-1.32 0.28,-0.84 0.37,0.05 z"
         id="path55" /><path
         fill="#46b1dd"
         d="m 124.66,254.02 c 14.71,2.74 30.03,5.57 45.11,5.74 l -1.7,1.5 q -0.35,0.31 -0.8,0.44 -1.4,0.41 -2.15,1.68 -0.22,0.37 -0.64,0.44 -1.64,0.27 -2.59,1.72 -0.23,0.34 -0.64,0.34 h -0.47 a 0.68,0.67 -67.2 0 0 -0.48,0.2 l -1.47,1.43 q -0.41,0.4 -0.97,0.36 -0.54,-0.04 -0.91,0.43 -0.32,0.39 -0.8,0.53 -1.42,0.39 -2.25,1.7 -0.23,0.35 -0.65,0.35 h -0.52 q -0.4,0 -0.64,0.33 -0.54,0.76 -1.35,1.35 -0.41,0.3 -0.92,0.3 -0.52,-0.01 -0.88,0.44 -0.31,0.4 -0.8,0.53 -1.45,0.4 -2.28,1.76 -0.24,0.39 -0.69,0.29 -0.91,-0.21 -1.31,0.68 -0.21,0.44 -0.68,0.32 -0.91,-0.21 -1.32,0.66 -0.2,0.43 -0.67,0.34 -0.77,-0.15 -1.27,0.45 -0.31,0.37 -0.77,0.5 -1.49,0.4 -2.29,1.82 a 0.54,0.54 0 0 1 -0.61,0.25 q -0.95,-0.26 -1.38,0.62 -0.22,0.46 -0.72,0.36 -0.89,-0.2 -1.3,0.68 -0.2,0.43 -0.67,0.32 -0.91,-0.22 -1.32,0.68 -0.21,0.43 -0.68,0.32 -0.91,-0.22 -1.33,0.68 -0.2,0.43 -0.67,0.32 -0.91,-0.22 -1.32,0.68 -0.21,0.43 -0.68,0.32 -0.91,-0.22 -1.33,0.68 -0.2,0.43 -0.67,0.32 -0.91,-0.22 -1.32,0.68 -0.21,0.43 -0.68,0.32 -0.91,-0.22 -1.33,0.68 -0.2,0.43 -0.67,0.32 -0.91,-0.22 -1.32,0.68 -0.21,0.43 -0.68,0.32 -0.92,-0.22 -1.34,0.7 -0.18,0.41 -0.62,0.31 -1.07,-0.24 -1.35,0.73 a 0.48,0.48 0 0 1 -0.6,0.32 q -1.44,-0.45 -2.43,0.54 -0.41,0.4 -0.98,0.38 -0.73,-0.03 -0.98,0.68 -0.18,0.48 -0.67,0.35 -0.95,-0.24 -1.37,0.69 -0.18,0.41 -0.62,0.31 -1.07,-0.24 -1.35,0.73 a 0.48,0.48 0 0 1 -0.6,0.32 q -1.47,-0.46 -2.48,0.58 -0.37,0.38 -0.9,0.34 -0.81,-0.06 -1.02,0.75 a 0.46,0.46 0 0 1 -0.59,0.33 q -1.48,-0.46 -2.49,0.58 -0.37,0.38 -0.9,0.34 -0.81,-0.06 -1.02,0.75 a 0.46,0.46 0 0 1 -0.59,0.33 q -1.48,-0.46 -2.49,0.58 -0.37,0.38 -0.9,0.34 -0.81,-0.06 -1.02,0.76 a 0.47,0.46 16.1 0 1 -0.6,0.33 q -1.54,-0.51 -2.4,0.59 -0.39,0.49 -1,0.34 -1.23,-0.3 -2.01,0.6 -0.35,0.4 -0.89,0.4 h -1.22 q -0.62,0 -0.84,0.59 -0.17,0.47 -0.6,0.46 -0.49,-0.01 -0.78,0.38 -0.28,0.37 -0.07,0.97 L 70.3,303.16 q -0.51,-0.16 -0.51,-0.7 l -0.01,-21.65 q 1.05,-1.26 0.83,-3.09 -0.08,-0.65 0.58,-0.6 0.68,0.05 0.91,-0.62 a 0.7,0.69 18.4 0 1 0.87,-0.43 q 1.41,0.47 2.17,-0.62 0.35,-0.49 0.93,-0.34 1.31,0.35 2.12,-0.64 0.32,-0.4 0.84,-0.34 0.88,0.11 1.1,-0.75 a 0.47,0.47 0 0 1 0.6,-0.32 q 1.54,0.51 2.41,-0.59 0.38,-0.49 0.98,-0.35 1.26,0.31 2.05,-0.62 0.34,-0.42 0.88,-0.36 0.81,0.08 1.08,-0.69 0.16,-0.45 0.63,-0.34 1.09,0.25 1.37,-0.72 a 0.48,0.47 -72.7 0 1 0.6,-0.32 q 1.43,0.44 2.42,-0.54 0.42,-0.42 1.02,-0.4 0.71,0.03 0.97,-0.68 0.16,-0.45 0.62,-0.34 1.09,0.25 1.37,-0.73 a 0.47,0.47 0 0 1 0.6,-0.31 q 1.44,0.44 2.44,-0.55 0.4,-0.4 0.97,-0.38 0.73,0.04 0.99,-0.68 0.17,-0.47 0.66,-0.35 0.94,0.24 1.36,-0.66 0.2,-0.44 0.67,-0.33 0.91,0.22 1.33,-0.67 0.2,-0.44 0.67,-0.33 0.92,0.22 1.33,-0.68 0.2,-0.44 0.67,-0.33 0.92,0.23 1.34,-0.67 0.21,-0.42 0.67,-0.32 0.9,0.21 1.31,-0.66 0.21,-0.43 0.67,-0.34 0.93,0.19 1.47,-0.73 0.16,-0.27 0.47,-0.27 h 0.5 q 0.63,0 0.85,-0.6 0.22,-0.63 0.97,-0.37 a 0.71,0.7 -64.7 0 0 0.84,-0.31 q 0.3,-0.5 0.83,-0.47 1.01,0.07 0.13,-0.43 -0.16,-0.09 -0.4,-0.08 -0.2,0.01 -0.21,-0.19 -0.03,-0.67 0.45,-0.57 0.31,0.07 0.59,-0.08 2.04,-1.04 5.36,-1 z"
         id="path56" /><path
         fill="#727bd5"
         d="m 240.06,331.2 q 3.62,29.13 8.84,57.81 l -0.38,0.21 q -0.39,0.21 -0.39,-0.24 l 0.01,-0.51 a 0.45,0.44 -23.3 0 0 -0.77,-0.3 l -1.64,1.79 q -0.15,0.17 -0.38,0.16 -0.27,-0.02 -0.52,0.04 -0.37,0.08 -0.64,0.34 l -1.52,1.44 a 0.68,0.66 23.5 0 1 -0.45,0.17 h -0.47 q -0.42,0.01 -0.65,0.36 -0.83,1.31 -2.25,1.7 -0.48,0.13 -0.8,0.53 -0.35,0.44 -0.85,0.43 -0.51,-0.01 -0.92,0.29 -0.82,0.6 -1.38,1.37 -0.23,0.32 -0.63,0.32 h -0.52 q -0.42,0.01 -0.65,0.36 -0.82,1.29 -2.21,1.69 -0.48,0.14 -0.81,0.52 -0.49,0.58 -1.24,0.44 -0.5,-0.09 -0.72,0.36 -0.42,0.88 -1.37,0.62 a 0.54,0.54 0 0 0 -0.61,0.25 q -0.8,1.42 -2.29,1.82 -0.46,0.13 -0.77,0.5 -0.49,0.59 -1.24,0.45 -0.5,-0.09 -0.72,0.36 -0.42,0.88 -1.37,0.62 a 0.54,0.54 0 0 0 -0.61,0.25 q -0.8,1.42 -2.29,1.82 -0.46,0.13 -0.77,0.5 -0.5,0.6 -1.27,0.45 -0.47,-0.1 -0.67,0.34 -0.42,0.87 -1.32,0.66 -0.47,-0.12 -0.68,0.32 -0.41,0.89 -1.32,0.68 -0.47,-0.12 -0.68,0.32 -0.41,0.89 -1.32,0.68 -0.47,-0.12 -0.68,0.32 -0.4,0.88 -1.29,0.68 -0.5,-0.11 -0.72,0.36 -0.43,0.88 -1.38,0.62 a 0.54,0.54 0 0 0 -0.61,0.25 q -0.8,1.42 -2.29,1.82 -0.46,0.13 -0.77,0.5 -0.51,0.61 -1.3,0.44 -0.49,-0.11 -0.66,0.36 -0.26,0.69 -0.95,0.67 -0.6,-0.02 -1.03,0.4 -0.98,0.96 -2.39,0.5 a 0.49,0.48 -72.8 0 0 -0.62,0.33 q -0.27,0.98 -1.38,0.73 a 0.46,0.45 -79.3 0 0 -0.56,0.39 l -0.31,2.5 -9.48,-53.82 4.09,-1.22 q 0.41,-0.12 0.6,-0.5 0.24,-0.48 0.97,-0.32 0.53,0.12 0.84,-0.32 0.55,-0.79 1.37,-1.38 0.41,-0.29 0.92,-0.29 0.69,0.01 0.94,-0.68 0.17,-0.47 0.66,-0.35 0.93,0.24 1.35,-0.65 0.2,-0.43 0.67,-0.34 0.77,0.15 1.28,-0.44 0.32,-0.38 0.8,-0.52 1.42,-0.41 2.25,-1.74 0.23,-0.38 0.68,-0.3 0.76,0.15 1.26,-0.44 0.33,-0.38 0.81,-0.52 1.42,-0.41 2.25,-1.74 0.23,-0.38 0.68,-0.3 0.76,0.15 1.26,-0.44 0.33,-0.38 0.81,-0.52 1.42,-0.41 2.25,-1.74 0.23,-0.38 0.68,-0.3 0.76,0.15 1.26,-0.44 0.33,-0.38 0.81,-0.52 1.39,-0.4 2.21,-1.69 0.23,-0.35 0.65,-0.35 h 0.47 a 0.66,0.65 -66.5 0 0 0.45,-0.18 l 1.68,-1.6 q 0.24,-0.22 0.57,-0.22 h 0.27 q 0.35,0 0.59,-0.25 l 1.22,-1.26 q 0.32,-0.32 0.76,-0.43 0.27,-0.07 0.55,-0.06 0.26,0.01 0.43,-0.18 l 1.71,-1.84 q 0.27,-0.28 0.6,-0.07 0.17,0.1 0.38,0.11 0.21,0.01 0.34,-0.17 0.61,-0.88 1.52,-1.55 0.31,-0.24 0.7,-0.29 0.16,-0.02 0.31,-0.01 0.23,0 0.39,-0.17 l 1.32,-1.34 q 0.31,-0.33 0.75,-0.43 0.27,-0.07 0.54,-0.06 0.23,0 0.39,-0.17 l 1.32,-1.34 q 0.31,-0.33 0.75,-0.43 0.27,-0.07 0.54,-0.06 0.21,0 0.37,-0.15 l 2.27,-2.27 q 0.37,-0.37 0.88,-0.47 1.33,-0.27 2.1,-1.55 0.72,-0.24 1.14,-2.48 z"
         id="path57" /><path
         fill="#8760d1"
         d="m 248.9,389.01 q 7.69,41.4 18.45,82.18 0.12,0.47 -0.37,0.47 l -63.51,0.01 q -0.56,0 -0.68,-0.55 l -10.91,-49.13 0.31,-2.5 a 0.46,0.45 -79.3 0 1 0.56,-0.39 q 1.11,0.25 1.38,-0.73 a 0.49,0.48 -72.8 0 1 0.62,-0.33 q 1.41,0.46 2.39,-0.5 0.43,-0.42 1.03,-0.4 0.69,0.02 0.95,-0.67 0.17,-0.47 0.66,-0.36 0.79,0.17 1.3,-0.44 0.31,-0.37 0.77,-0.5 1.49,-0.4 2.29,-1.82 a 0.54,0.54 0 0 1 0.61,-0.25 q 0.95,0.26 1.38,-0.62 0.22,-0.47 0.72,-0.36 0.89,0.2 1.29,-0.68 0.21,-0.44 0.68,-0.32 0.91,0.21 1.32,-0.68 0.21,-0.44 0.68,-0.32 0.91,0.21 1.32,-0.68 0.21,-0.44 0.68,-0.32 0.9,0.21 1.32,-0.66 0.2,-0.44 0.67,-0.34 0.77,0.15 1.27,-0.45 0.31,-0.37 0.77,-0.5 1.49,-0.4 2.29,-1.82 a 0.54,0.54 0 0 1 0.61,-0.25 q 0.95,0.26 1.37,-0.62 0.22,-0.45 0.72,-0.36 0.75,0.14 1.24,-0.45 0.31,-0.37 0.77,-0.5 1.49,-0.4 2.29,-1.82 a 0.54,0.54 0 0 1 0.61,-0.25 q 0.95,0.26 1.37,-0.62 0.22,-0.45 0.72,-0.36 0.75,0.14 1.24,-0.44 0.33,-0.38 0.81,-0.52 1.39,-0.4 2.21,-1.69 0.23,-0.35 0.65,-0.36 h 0.52 q 0.4,0 0.63,-0.32 0.56,-0.77 1.38,-1.37 0.41,-0.3 0.92,-0.29 0.5,0.01 0.85,-0.43 0.32,-0.4 0.8,-0.53 1.42,-0.39 2.25,-1.7 0.23,-0.35 0.65,-0.36 h 0.47 a 0.68,0.66 23.5 0 0 0.45,-0.17 l 1.52,-1.44 q 0.27,-0.26 0.64,-0.34 0.25,-0.06 0.52,-0.04 0.23,0.01 0.38,-0.16 l 1.64,-1.79 a 0.45,0.44 -23.3 0 1 0.77,0.3 l -0.01,0.51 q 0,0.45 0.39,0.24 z"
         id="path58" /></g></g></svg>
