<?xml version="1.0" encoding="UTF-8" standalone="no"?>
<!-- Created with Inkscape (http://www.inkscape.org/) -->

<svg
   width="512"
   height="512"
   viewBox="0 0 512 512"
   version="1.1"
   id="svg1"
   xml:space="preserve"
   xmlns="http://www.w3.org/2000/svg"
   xmlns:svg="http://www.w3.org/2000/svg"><defs
     id="defs1" /><g
     id="layer1"><circle
       style="fill:#f2f2f2;fill-opacity:1;stroke:#afafaf;stroke-width:8;stroke-dasharray:none;stroke-opacity:1"
       id="path1"
       cx="256.00003"
       cy="256.00006"
       r="241.31339" /><g
       id="g34"
       transform="matrix(0.37127072,0,0,0.37127072,65.927939,65.909391)">
	<g
   id="g1"
   style="fill:none">
		<path
   class="st0"
   d="M 764.4,964.5 H 259.6 C 149.1,964.5 59.5,874.9 59.5,764.4 V 259.6 C 59.5,149.1 149.1,59.5 259.6,59.5 h 504.7 c 110.5,0 200.1,89.6 200.1,200.1 v 504.7 c 0.1,110.6 -89.5,200.2 -200,200.2 z"
   id="path1-0"
   style="fill:none" />
	</g>
	<g
   id="g33"
   transform="matrix(1.1148396,0,0,1.1148396,-58.871646,-58.797874)">
		
			<linearGradient
   id="SVGID_1_"
   gradientUnits="userSpaceOnUse"
   x1="507.1033"
   y1="398.62399"
   x2="490.07791"
   y2="145.6835"
   gradientTransform="matrix(1,0,0,-1,0,1024)">
			<stop
   offset="0"
   style="stop-color:#FD5200"
   id="stop1" />
			<stop
   offset="0.2722"
   style="stop-color:#FFDC38"
   id="stop2" />
			<stop
   offset="0.9626"
   style="stop-color:#F3FEAB"
   id="stop3" />
		</linearGradient>
		<path
   class="st1"
   d="M 478.9,446.3 C 364.6,480.3 162.7,558.2 153,874.3 189.5,704.1 279.5,679.7 444.9,640.8 610.3,602 700.2,558.2 800,439 c 99.7,-119.2 65.7,-289.4 65.7,-289.4 0,92.4 -65.7,153.2 -128.9,197 -63.2,43.8 -143.6,65.7 -257.9,99.7 z"
   id="path3"
   style="fill:url(#SVGID_1_)" />
		<g
   id="g11">
			
				<linearGradient
   id="SVGID_00000098913494185415404010000009068722797264981641_"
   gradientUnits="userSpaceOnUse"
   x1="348.9975"
   y1="915.58698"
   x2="178.6537"
   y2="258.23679"
   gradientTransform="matrix(1,0,0,-1,0,1024)">
				<stop
   offset="0.4072"
   style="stop-color:#9E010A"
   id="stop4" />
				<stop
   offset="0.6244"
   style="stop-color:#FC56A4"
   id="stop5" />
				<stop
   offset="0.689"
   style="stop-color:#F2A780"
   id="stop6" />
				<stop
   offset="0.7431"
   style="stop-color:#FFC78A"
   id="stop7" />
			</linearGradient>
			<path
   style="fill:url(#SVGID_00000098913494185415404010000009068722797264981641_)"
   d="m 153,874.4 c 0,0 0,-0.1 0,0 0.3,-8.2 0.7,-16.1 1.2,-23.9 -0.9,8.4 -1.4,16.4 -1.2,23.9 z"
   id="path7" />
			
				<linearGradient
   id="SVGID_00000142134694063842823750000015690154584732935048_"
   gradientUnits="userSpaceOnUse"
   x1="541.52557"
   y1="308.186"
   x2="478.48541"
   y2="761.34442">
				<stop
   offset="0.4072"
   style="stop-color:#9E010A"
   id="stop8" />
				<stop
   offset="0.6244"
   style="stop-color:#FC56A4"
   id="stop9" />
				<stop
   offset="0.689"
   style="stop-color:#F2A780"
   id="stop10" />
				<stop
   offset="0.7431"
   style="stop-color:#FFC78A"
   id="stop11" />
			</linearGradient>
			<path
   style="fill:url(#SVGID_00000142134694063842823750000015690154584732935048_)"
   d="M 578.4,601.8 C 492.5,618 405,616.1 347.6,631.2 245.5,657.9 160.4,779.5 153,874.3 c 0.3,-8.1 0.7,-16 1.2,-23.9 11.3,-103.2 106.4,-272.5 315,-365.2 66.4,-29.5 126.2,-60.8 178.2,-92.8 33.6,-13.1 63,-27.6 89.3,-45.8 63.2,-43.8 128.9,-104.6 128.9,-197 0,0 5.4,138.8 -39.6,257.6 -6.2,11.3 -13.2,22.2 -21.2,32.5 -60.6,78.7 -132.1,126.9 -226.4,162.1 z"
   id="path11" />
		</g>
		
			<linearGradient
   id="SVGID_00000065792804984399405540000015819867796994209195_"
   gradientUnits="userSpaceOnUse"
   x1="670.51453"
   y1="618.90637"
   x2="191.3858"
   y2="273.548"
   gradientTransform="matrix(1,0,0,-1,0,1024)">
			<stop
   offset="7.537688e-02"
   style="stop-color:#0C64CC"
   id="stop12" />
			<stop
   offset="0.3348"
   style="stop-color:#1F9FE3"
   id="stop13" />
			<stop
   offset="0.4851"
   style="stop-color:#1B9DEB"
   id="stop14" />
			<stop
   offset="0.7569"
   style="stop-color:#72F07F"
   id="stop15" />
			<stop
   offset="0.8584"
   style="stop-color:#DBFEC8"
   id="stop16" />
			<stop
   offset="0.9913"
   style="stop-color:#F6F9B1"
   id="stop17" />
		</linearGradient>
		<path
   style="fill:url(#SVGID_00000065792804984399405540000015819867796994209195_)"
   d="m 154.4,846.4 c -0.6,9.1 -1.1,18.4 -1.4,27.9 -0.6,-8.6 -0.1,-18 1.4,-27.9 20.4,-292.9 213.6,-367.1 324.5,-400.1 114.3,-34 194.6,-55.9 257.8,-99.7 63.2,-43.8 128.9,-104.6 128.9,-197 0,0 34.1,170.2 -65.7,289.4 C 700.2,558.2 617.5,509.5 452.1,548.4 301.2,584 170.5,743.1 154.4,846.4 Z"
   id="path17" />
		<g
   id="g27">
			
				<linearGradient
   id="SVGID_00000041253275251378398240000011308771035243690668_"
   gradientUnits="userSpaceOnUse"
   x1="656.43347"
   y1="424.47711"
   x2="450.17789"
   y2="547.24799"
   gradientTransform="matrix(1,0,0,-1,0,1024)">
				<stop
   offset="2.512563e-02"
   style="stop-color:#4226A2"
   id="stop18" />
				<stop
   offset="0.2769"
   style="stop-color:#7357CB"
   id="stop19" />
				<stop
   offset="0.4721"
   style="stop-color:#4783DF"
   id="stop20" />
				<stop
   offset="0.5228"
   style="stop-color:#3B8FE4"
   id="stop21" />
				<stop
   offset="0.5797"
   style="stop-color:#3B9DE4"
   id="stop22" />
				<stop
   offset="0.6561"
   style="stop-color:#3BA7E4"
   id="stop23" />
				<stop
   offset="0.7412"
   style="stop-color:#3BABE4"
   id="stop24" />
			</linearGradient>
			<path
   style="fill:url(#SVGID_00000041253275251378398240000011308771035243690668_)"
   d="m 410.8,565.5 c 155.7,-29.2 252.9,-26.8 360,-141.1 107,-114.3 94.8,-274.8 94.8,-274.8 0,92.4 -65.7,153.2 -128.9,197 -26.4,18.3 -55.8,32.7 -89.3,45.8 -52,32 -123.9,64.7 -190.3,94.2 -208.6,92.7 -291.6,260.6 -302.9,363.8 -0.5,7.8 -0.9,15.7 -1.2,23.9 7.4,-94.9 102.2,-279.6 257.8,-308.8 z"
   id="path24" />
			
				<linearGradient
   id="SVGID_00000023270620489343436690000002416728643667752380_"
   gradientUnits="userSpaceOnUse"
   x1="409.47079"
   y1="9.2812996"
   x2="205.174"
   y2="130.8862"
   gradientTransform="matrix(1,0,0,-1,0,1024)">
				<stop
   offset="0"
   style="stop-color:#4226A2"
   id="stop25" />
				<stop
   offset="0.3221"
   style="stop-color:#7357CB"
   id="stop26" />
				<stop
   offset="0.6283"
   style="stop-color:#3B8FE4"
   id="stop27" />
			</linearGradient>
			<path
   style="fill:url(#SVGID_00000023270620489343436690000002416728643667752380_)"
   d="m 153,874.4 c 0,0 0,-0.1 0,0 0.3,-8.2 0.7,-16.1 1.2,-23.9 -0.9,8.4 -1.4,16.4 -1.2,23.9 z"
   id="path27" />
		</g>
		
			<linearGradient
   id="SVGID_00000000197811578662552730000012159417478309793203_"
   gradientUnits="userSpaceOnUse"
   x1="882.34857"
   y1="770.59082"
   x2="169.7424"
   y2="213.6404"
   gradientTransform="matrix(1,0,0,-1,0,1024)">
			<stop
   offset="0"
   style="stop-color:#7C4ADF"
   id="stop28" />
			<stop
   offset="0.3459"
   style="stop-color:#E251D8"
   id="stop29" />
			<stop
   offset="0.7297"
   style="stop-color:#FCDFBC"
   id="stop30" />
			<stop
   offset="0.8312"
   style="stop-color:#F6F8B0"
   id="stop31" />
			<stop
   offset="0.9186"
   style="stop-color:#FFFFF2"
   id="stop32" />
			<stop
   offset="0.9894"
   style="stop-color:#F6F8B0"
   id="stop33" />
		</linearGradient>
		<path
   style="fill:url(#SVGID_00000000197811578662552730000012159417478309793203_)"
   d="M 520.3,470.7 C 235.7,524.2 150.6,775.5 153,874.4 160.3,779.6 243,670.1 350,611.7 508.1,531.4 673.5,575.2 787.8,458.5 902.1,341.8 865.6,149.6 865.6,149.6 c 0,92.4 -34.1,180 -94.9,231.1 -60.7,51 -182.3,77 -250.4,90 z"
   id="path33" />
	</g>
</g></g><style
     type="text/css"
     id="style1">
	.st0{fill:#FFFFFF;}
	.st1{fill:url(#SVGID_1_);}
	.st2{fill:url(#SVGID_00000132081014980044968910000002382089019253442990_);}
	.st3{fill:url(#SVGID_00000053506142390537908800000016047930464634743453_);}
	.st4{fill:url(#SVGID_00000041991718591662470660000005309495135480297396_);}
	.st5{fill:url(#SVGID_00000052788904236060843000000006641305570188818600_);}
	.st6{fill:url(#SVGID_00000176736082899947236370000003995186251975955118_);}
	.st7{fill:url(#SVGID_00000073679343596103756070000014778297344204342949_);}
</style></svg>
