<?xml version="1.0" encoding="UTF-8" standalone="no"?>
<!-- Created with Inkscape (http://www.inkscape.org/) -->

<svg
   width="512"
   height="512"
   viewBox="0 0 512 512"
   version="1.1"
   id="svg1"
   xml:space="preserve"
   inkscape:version="1.4.2 (f4327f4, 2025-05-13)"
   sodipodi:docname="photoshop.svg"
   xmlns:inkscape="http://www.inkscape.org/namespaces/inkscape"
   xmlns:sodipodi="http://sodipodi.sourceforge.net/DTD/sodipodi-0.dtd"
   xmlns="http://www.w3.org/2000/svg"
   xmlns:svg="http://www.w3.org/2000/svg"><sodipodi:namedview
     id="namedview1"
     pagecolor="#ffffff"
     bordercolor="#999999"
     borderopacity="1"
     inkscape:showpageshadow="2"
     inkscape:pageopacity="0"
     inkscape:pagecheckerboard="0"
     inkscape:deskcolor="#d1d1d1"
     inkscape:document-units="px"
     showgrid="false"
     inkscape:zoom="1"
     inkscape:cx="161"
     inkscape:cy="323.5"
     inkscape:window-width="1920"
     inkscape:window-height="1001"
     inkscape:window-x="-9"
     inkscape:window-y="-9"
     inkscape:window-maximized="1"
     inkscape:current-layer="Layer_2_1_"><inkscape:grid
       id="grid1"
       units="mm"
       originx="0"
       originy="0"
       spacingx="1"
       spacingy="1"
       empcolor="#0099e5"
       empopacity="0.30196078"
       color="#0099e5"
       opacity="0.14902"
       empspacing="5"
       enabled="true"
       visible="false" /></sodipodi:namedview><defs
     id="defs1"><inkscape:path-effect
       effect="fillet_chamfer"
       id="path-effect1"
       is_visible="true"
       lpeversion="1"
       nodesatellites_param="F,0,0,1,0,2.2572315,0,1 @ F,0,0,1,0,2.608162,0,1 @ F,0,0,1,0,2.5997618,0,1 @ F,0,0,1,0,3.0078049,0,1 @ F,0,0,1,0,2.2522004,0,1 @ F,0,0,1,0,2.8010871,0,1"
       radius="0"
       unit="px"
       method="auto"
       mode="F"
       chamfer_steps="1"
       flexible="false"
       use_knot_distance="true"
       apply_no_radius="true"
       apply_with_radius="true"
       only_selected="false"
       hide_knots="false" /></defs><g
     inkscape:label="Layer 1"
     inkscape:groupmode="layer"
     id="layer1"><circle
       style="fill:#001e36;fill-opacity:1;stroke:#858585;stroke-width:8;stroke-dasharray:none;stroke-opacity:1"
       id="path1"
       inkscape:label="background"
       cx="256.00003"
       cy="256.00006"
       r="241.31339" /><g
       id="Layer_2_1_"
       transform="matrix(1.6666667,0,0,1.6666667,55.999996,60.999996)">
	
	<g
   id="Outlined_Mnemonics_Logos">
		<g
   id="Ps">
			<path
   class="st1"
   d="M 54,164.1 V 61.2 c 0,-0.7 0.3,-1.1 1,-1.1 1.7,0 3.3,0 5.6,-0.1 2.4,-0.1 4.9,-0.1 7.6,-0.2 2.7,-0.1 5.6,-0.1 8.7,-0.2 3.1,-0.1 6.1,-0.1 9.1,-0.1 8.2,0 15,1 20.6,3.1 5,1.7 9.6,4.5 13.4,8.2 3.2,3.2 5.7,7.1 7.3,11.4 1.5,4.2 2.3,8.5 2.3,13 0,8.6 -2,15.7 -6,21.3 -4,5.6 -9.6,9.8 -16.1,12.2 -6.8,2.5 -14.3,3.4 -22.5,3.4 -2.4,0 -4,0 -5,-0.1 -1,-0.1 -2.4,-0.1 -4.3,-0.1 V 164 c 0.1,0.7 -0.4,1.3 -1.1,1.4 -0.1,0 -0.2,0 -0.4,0 h -19 C 54.4,165.4 54,165 54,164.1 Z M 75.8,79.4 V 113 c 1.4,0.1 2.7,0.2 3.9,0.2 H 85 c 3.9,0 7.8,-0.6 11.5,-1.8 3.2,-0.9 6,-2.8 8.2,-5.3 2.1,-2.5 3.1,-5.9 3.1,-10.3 0.1,-3.1 -0.7,-6.2 -2.3,-8.9 -1.7,-2.6 -4.1,-4.6 -7,-5.7 -3.7,-1.5 -7.7,-2.1 -11.8,-2 -2.6,0 -4.9,0 -6.8,0.1 -2,-0.1 -3.4,0 -4.1,0.1 z"
   id="path2" />
			<path
   class="st1"
   d="m 192,106.9 c -3,-1.6 -6.2,-2.7 -9.6,-3.4 -3.7,-0.8 -7.4,-1.3 -11.2,-1.3 -2,-0.1 -4.1,0.2 -6,0.7 -1.3,0.3 -2.4,1 -3.1,2 -0.5,0.8 -0.8,1.8 -0.8,2.7 0,0.9 0.4,1.8 1,2.6 0.9,1.1 2.1,2 3.4,2.7 2.3,1.2 4.7,2.3 7.1,3.3 5.4,1.8 10.6,4.3 15.4,7.3 3.3,2.1 6,4.9 7.9,8.3 1.6,3.2 2.4,6.7 2.3,10.3 0.1,4.7 -1.3,9.4 -3.9,13.3 -2.8,4 -6.7,7.1 -11.2,8.9 -4.9,2.1 -10.9,3.2 -18.1,3.2 -4.6,0 -9.1,-0.4 -13.6,-1.3 -3.5,-0.6 -7,-1.7 -10.2,-3.2 -0.7,-0.4 -1.2,-1.1 -1.1,-1.9 v -17.4 c 0,-0.3 0.1,-0.7 0.4,-0.9 0.3,-0.2 0.6,-0.1 0.9,0.1 3.9,2.3 8,3.9 12.4,4.9 3.8,1 7.8,1.5 11.8,1.5 3.8,0 6.5,-0.5 8.3,-1.4 1.6,-0.7 2.7,-2.4 2.7,-4.2 0,-1.4 -0.8,-2.7 -2.4,-4 -1.6,-1.3 -4.9,-2.8 -9.8,-4.7 -5.1,-1.8 -9.8,-4.2 -14.2,-7.2 -3.1,-2.2 -5.7,-5.1 -7.6,-8.5 -1.6,-3.2 -2.4,-6.7 -2.3,-10.2 0,-4.3 1.2,-8.4 3.4,-12.1 2.5,-4 6.2,-7.2 10.5,-9.2 4.7,-2.4 10.6,-3.5 17.7,-3.5 4.1,0 8.3,0.3 12.4,0.9 3,0.4 5.9,1.2 8.6,2.3 0.4,0.1 0.8,0.5 1,0.9 0.1,0.4 0.2,0.8 0.2,1.2 v 16.3 c 0,0.4 -0.2,0.8 -0.5,1 -0.9,0.2 -1.4,0.2 -1.8,0 z"
   id="path3" />
		</g>
	</g>
</g></g><style
     type="text/css"
     id="style1">
	.st0{fill:#001E36;}
	.st1{fill:#31A8FF;}
</style></svg>
