<?xml version="1.0" encoding="UTF-8" standalone="no"?>
<!-- Created with Inkscape (http://www.inkscape.org/) -->

<svg
   width="512"
   height="512"
   viewBox="0 0 512 512"
   version="1.1"
   id="svg1"
   xml:space="preserve"
   inkscape:version="1.4.2 (f4327f4, 2025-05-13)"
   sodipodi:docname="qwik.svg"
   xmlns:inkscape="http://www.inkscape.org/namespaces/inkscape"
   xmlns:sodipodi="http://sodipodi.sourceforge.net/DTD/sodipodi-0.dtd"
   xmlns="http://www.w3.org/2000/svg"
   xmlns:svg="http://www.w3.org/2000/svg"><sodipodi:namedview
     id="namedview1"
     pagecolor="#ffffff"
     bordercolor="#999999"
     borderopacity="1"
     inkscape:showpageshadow="2"
     inkscape:pageopacity="0"
     inkscape:pagecheckerboard="0"
     inkscape:deskcolor="#d1d1d1"
     inkscape:document-units="px"
     showgrid="false"
     inkscape:zoom="1"
     inkscape:cx="313"
     inkscape:cy="277.5"
     inkscape:window-width="1920"
     inkscape:window-height="1001"
     inkscape:window-x="-9"
     inkscape:window-y="-9"
     inkscape:window-maximized="1"
     inkscape:current-layer="layer1"><inkscape:grid
       id="grid1"
       units="mm"
       originx="0"
       originy="0"
       spacingx="1"
       spacingy="1"
       empcolor="#0099e5"
       empopacity="0.30196078"
       color="#0099e5"
       opacity="0.14901961"
       empspacing="5"
       enabled="true"
       visible="false" /></sodipodi:namedview><defs
     id="defs1"><inkscape:path-effect
       effect="fillet_chamfer"
       id="path-effect1"
       is_visible="true"
       lpeversion="1"
       nodesatellites_param="F,0,0,1,0,2.2572315,0,1 @ F,0,0,1,0,2.608162,0,1 @ F,0,0,1,0,2.5997618,0,1 @ F,0,0,1,0,3.0078049,0,1 @ F,0,0,1,0,2.2522004,0,1 @ F,0,0,1,0,2.8010871,0,1"
       radius="0"
       unit="px"
       method="auto"
       mode="F"
       chamfer_steps="1"
       flexible="false"
       use_knot_distance="true"
       apply_no_radius="true"
       apply_with_radius="true"
       only_selected="false"
       hide_knots="false" /></defs><g
     inkscape:label="Layer 1"
     inkscape:groupmode="layer"
     id="layer1"><circle
       style="fill:#f2f2f2;fill-opacity:1;stroke:#afafaf;stroke-width:8;stroke-dasharray:none;stroke-opacity:1"
       id="path1"
       inkscape:label="background"
       cx="256.00003"
       cy="256.00006"
       r="241.31339" /><g
       id="g1"
       transform="matrix(3.4553993,0,0,3.4553993,45.218969,35.065161)"><path
         style="fill:#17b5f5;fill-opacity:1;fill-rule:nonzero;stroke:none"
         d="M 95.671875,112.55469 78.242188,95.214844 77.996094,95.257812 V 95.074219 L 40.929688,58.417969 50.082031,49.597656 44.699219,18.757812 19.230469,50.355469 c -4.324219,4.367187 -5.15625,11.507812 -2.023438,16.75 L 33.125,93.527344 c 2.433594,4.050781 6.257812,6.656246 11.597656,6.464844 11.304688,-0.402344 16.273438,-0.402344 16.273438,-0.402344 l 34.667968,12.957036 0.0078,0.0117 z m 0,0"
         id="path1-0" /><path
         style="fill:#ab7df3;fill-opacity:1;fill-rule:nonzero;stroke:none"
         d="m 104.28516,63.960938 c 2.50781,-5.175782 3.40625,-9.703126 0.92968,-14.253907 l -3.52343,-6.484375 -1.828129,-3.328125 -0.710937,-1.296875 -0.06641,0.07422 L 89.5,22.042969 C 87.082031,17.835938 82.582031,15.265625 77.734375,15.320312 l -8.40625,0.238282 -25.09375,0.06641 C 39.496094,15.65625 35.125,18.175781 32.722656,22.257812 l -15.246094,30.28125 27.285157,-33.945312 35.792969,39.359375 -6.40625,6.492187 3.824218,30.792969 0.05469,-0.07031 v 0.08984 h -0.05469 l 0.07422,0.07422 2.984375,2.90625 14.4375,14.101559 c 0.605469,0.58594 1.589844,-0.11718 1.1875,-0.83984 L 87.730469,93.9375"
         id="path2" /><path
         style="fill:#ffffff;fill-opacity:1;fill-rule:nonzero;stroke:none"
         d="M 80.640625,57.855469 44.753906,18.695312 49.851562,49.359375 40.71875,58.222656 77.90625,95.179688 74.554688,64.5 80.640625,57.867188 Z m 0,0"
         id="path3" /></g></g></svg>
