<?xml version="1.0" encoding="UTF-8" standalone="no"?>
<!-- Created with Inkscape (http://www.inkscape.org/) -->

<svg
   width="512"
   height="512"
   viewBox="0 0 512 512"
   version="1.1"
   id="svg1"
   xml:space="preserve"
   inkscape:version="1.4.2 (f4327f4, 2025-05-13)"
   sodipodi:docname="redux.svg"
   xmlns:inkscape="http://www.inkscape.org/namespaces/inkscape"
   xmlns:sodipodi="http://sodipodi.sourceforge.net/DTD/sodipodi-0.dtd"
   xmlns="http://www.w3.org/2000/svg"
   xmlns:svg="http://www.w3.org/2000/svg"><sodipodi:namedview
     id="namedview1"
     pagecolor="#ffffff"
     bordercolor="#999999"
     borderopacity="1"
     inkscape:showpageshadow="2"
     inkscape:pageopacity="0"
     inkscape:pagecheckerboard="0"
     inkscape:deskcolor="#d1d1d1"
     inkscape:document-units="px"
     showgrid="false"
     inkscape:zoom="1.4142136"
     inkscape:cx="252.43712"
     inkscape:cy="250.66935"
     inkscape:window-width="1920"
     inkscape:window-height="1001"
     inkscape:window-x="-9"
     inkscape:window-y="-9"
     inkscape:window-maximized="1"
     inkscape:current-layer="layer1"><inkscape:grid
       id="grid1"
       units="mm"
       originx="0"
       originy="0"
       spacingx="1"
       spacingy="1"
       empcolor="#0099e5"
       empopacity="0.30196078"
       color="#0099e5"
       opacity="0.14901961"
       empspacing="5"
       enabled="true"
       visible="false" /></sodipodi:namedview><defs
     id="defs1"><inkscape:path-effect
       effect="fillet_chamfer"
       id="path-effect1"
       is_visible="true"
       lpeversion="1"
       nodesatellites_param="F,0,0,1,0,2.2572315,0,1 @ F,0,0,1,0,2.608162,0,1 @ F,0,0,1,0,2.5997618,0,1 @ F,0,0,1,0,3.0078049,0,1 @ F,0,0,1,0,2.2522004,0,1 @ F,0,0,1,0,2.8010871,0,1"
       radius="0"
       unit="px"
       method="auto"
       mode="F"
       chamfer_steps="1"
       flexible="false"
       use_knot_distance="true"
       apply_no_radius="true"
       apply_with_radius="true"
       only_selected="false"
       hide_knots="false" /></defs><g
     inkscape:label="Layer 1"
     inkscape:groupmode="layer"
     id="layer1"><circle
       style="fill:#f2f2f2;fill-opacity:1;stroke:#afafaf;stroke-width:8;stroke-dasharray:none;stroke-opacity:1"
       id="path1"
       inkscape:label="background"
       cx="256.00003"
       cy="256.00006"
       r="241.31339" /><g
       style="clip-rule:evenodd;fill-rule:evenodd;image-rendering:optimizeQuality;shape-rendering:geometricPrecision;text-rendering:geometricPrecision"
       id="g1"
       transform="translate(-166325.08,-157871)"><path
         d="m 230965,221006 c 12301,-1273 21633,-11878 21209,-24604 -423,-12725 -11029,-22906 -23754,-22906 h -848 c -13151,424 -23331,11453 -22906,24603 424,6363 2969,11878 6786,15695 -14422,28422 -36479,49207 -69565,66599 -22482,11878 -45811,16120 -69141,13151 -19089,-2546 -33935,-11029 -43269,-25029 -13573,-20785 -14845,-43268 -3392,-65750 8060,-16120 20784,-27997 28844,-33936 -1696,-5515 -4242,-14846 -5514,-21633 -61507,44541 -55143,104776 -36480,133197 13998,21211 42418,34361 73807,34361 8483,0 16966,-849 25450,-2969 54296,-10606 95442,-42845 118771,-90779 z m 74656,-52600 C 273383,130652 225875,109867 171579,109867 h -6786 c -3818,-7635 -11878,-12727 -20785,-12727 h -849 c -13148,424 -23328,11453 -22905,24604 424,12725 11028,22906 23754,22906 h 848 c 9332,-425 17392,-6363 20785,-14423 h 7635 c 32238,0 62779,9332 90352,27573 21208,13999 36479,32239 44962,54297 7211,17817 6787,35208 -849,50056 -11876,22482 -31813,34784 -58112,34784 -16967,0 -33086,-5091 -41570,-8909 -4665,4242 -13150,11028 -19088,15272 18241,8483 36905,13150 54720,13150 40722,0 70839,-22483 82292,-44965 12301,-24604 11452,-67023 -20361,-103079 z M 90137,228216 c 424,12726 11029,22906 23754,22906 h 849 c 13150,-423 23330,-11453 22905,-24603 -423,-12726 -11029,-22906 -23754,-22906 h -848 c -849,0 -2122,0 -2969,423 -17392,-28845 -24603,-60234 -22057,-94170 1695,-25452 10180,-47510 25026,-65751 12301,-15695 36055,-23331 52174,-23754 44962,-849 64050,55144 65323,77628 5515,1272 14846,4242 21210,6363 C 246659,35633 204241,0 163521,0 125344,0 90137,27573 76138,68296 c -19512,54297 -6786,106472 16968,147620 -2120,2969 -3393,7635 -2969,12302 v -1 z"
         fill="#764abc"
         id="path1-5" /></g><path
       d="m 324.27032,322.65971 c 13.06069,-1.35211 22.96923,-12.61138 22.51853,-26.12415 -0.44932,-13.51139 -11.70996,-24.32134 -25.22136,-24.32134 h -0.90002 c -13.96348,0.4507 -24.77204,12.16067 -24.32134,26.12277 0.4507,6.75639 3.15215,12.61137 7.20571,16.66493 -15.31282,30.1777 -38.73276,52.24691 -73.86266,70.71326 -23.87064,12.61138 -48.64129,17.11563 -73.41195,13.96348 -20.26778,-2.70282 -36.0313,-11.70996 -45.94122,-26.57484 -14.41142,-22.06921 -15.76215,-45.94123 -3.60148,-69.81187 8.55782,-17.11563 22.06783,-29.727 30.62564,-36.03269 -1.80143,-5.85498 -4.50426,-15.76352 -5.85498,-22.96923 -65.30622,47.29196 -58.54983,111.24883 -38.73275,141.42515 14.86212,22.5213 45.03843,36.48339 78.36691,36.48339 9.00713,0 18.01426,-0.9014 27.02278,-3.15215 57.64981,-11.26064 101.33753,-45.4919 126.10819,-96.38671 z m 79.26831,-55.84976 C 369.30876,226.7237 318.86604,204.65449 261.21622,204.65449 h -7.2057 c -4.05356,-8.10711 -12.61138,-13.51277 -22.06921,-13.51277 h -0.90141 c -13.96071,0.4507 -24.76927,12.16067 -24.31995,26.12415 0.4507,13.51139 11.70996,24.32133 25.22136,24.32133 h 0.90002 c 9.90854,-0.4507 18.46636,-6.75639 22.06921,-15.3142 h 8.10711 c 34.22988,0 66.65695,9.90854 95.93325,29.2763 22.51853,14.8635 38.73275,34.23126 47.73989,57.6512 7.65641,18.91705 7.20571,37.38341 -0.90141,53.14831 -12.60999,23.87064 -33.77778,36.93271 -61.70198,36.93271 -18.01565,0 -35.1299,-5.40567 -44.13841,-9.45922 -4.95358,4.50425 -13.9621,11.70997 -20.26779,16.2156 19.36776,9.00714 39.18484,13.9621 58.10052,13.9621 43.237,0 75.21475,-23.87202 87.37542,-47.74266 13.0607,-26.12414 12.15929,-71.16396 -21.61851,-109.44739 z M 174.7422,330.31474 c 0.4507,13.51278 11.70997,24.32133 25.22136,24.32133 h 0.90141 c 13.96209,-0.44931 24.77065,-12.16066 24.31995,-26.12275 -0.44932,-13.51278 -11.70997,-24.32135 -25.22136,-24.32135 h -0.90002 c -0.90141,0 -2.25352,0 -3.15216,0.44933 -18.46635,-30.62703 -26.12276,-63.9555 -23.41993,-99.98819 1.80005,-27.02417 10.80856,-50.44549 26.57209,-69.81324 13.06069,-16.66493 38.28205,-24.77204 55.39768,-25.22136 47.73989,-0.90141 68.0063,58.55121 69.3584,82.42323 5.85498,1.35072 15.76353,4.50426 22.51991,6.75639 C 340.93387,125.83412 295.89543,88 252.65979,88 c -40.53556,0 -77.91759,29.2763 -92.78109,72.51469 -20.7171,57.65119 -7.20571,113.05026 18.01566,156.73936 -2.25075,3.15215 -3.60286,8.10711 -3.15216,13.06207 z"
       fill="#764abc"
       id="path1-1"
       style="stroke-width:1.38252" /></g></svg>
