<?xml version="1.0" encoding="UTF-8" standalone="no"?>
<!-- Created with Inkscape (http://www.inkscape.org/) -->

<svg
   width="512"
   height="512"
   viewBox="0 0 512 512"
   version="1.1"
   id="svg1"
   xml:space="preserve"
   xmlns="http://www.w3.org/2000/svg"
   xmlns:svg="http://www.w3.org/2000/svg"><defs
     id="defs1" /><g
     id="layer1"><circle
       style="fill:#f2f2f2;fill-opacity:1;stroke:#afafaf;stroke-width:8;stroke-dasharray:none;stroke-opacity:1"
       id="path1"
       cx="256.00003"
       cy="256.00006"
       r="241.31339" /><path
       fill="#d91404"
       fill-rule="evenodd"
       d="m 185.30723,375.37324 c 69.27404,9.45816 137.31726,18.74732 206.71236,28.21807 -23.64286,-39.36103 -46.67788,-77.71575 -69.89703,-116.38318 z M 411.57148,157.50028 c -6.10619,9.17062 -12.22497,18.33367 -18.3236,27.50934 -20.94414,31.50952 -41.88573,63.01905 -62.80971,94.54369 -1.16523,1.75545 -2.676,3.14769 -1.03408,5.85398 20.21775,33.38601 40.2766,66.8704 60.38589,100.32453 3.17289,5.28394 6.3811,10.54773 10.48468,15.61728 4.06575,-81.19633 8.12897,-162.39522 12.1922,-243.59157 z m -275.999,104.09769 c 0.94583,0.89536 3.30659,1.41745 4.40624,0.87519 19.393,-9.5313 38.90958,-18.85073 57.87886,-29.16642 6.18689,-3.36205 10.94372,-9.39006 16.27307,-14.27802 17.64765,-16.18481 35.26755,-32.40238 52.87989,-48.62248 1.07698,-0.99626 2.3532,-1.95972 2.99635,-3.21578 6.32562,-12.36369 12.54278,-24.79044 18.97937,-37.57534 -7.67498,-2.88537 -14.95146,-5.70768 -22.31871,-8.27525 -0.99879,-0.34807 -2.57264,0.34301 -3.65465,0.94581 -17.05242,9.52625 -34.42515,18.54555 -50.9353,28.93439 -8.26013,5.19819 -14.98929,12.85804 -22.30358,19.52919 -11.78865,10.75959 -23.56216,21.54441 -35.17929,32.49064 -3.08209,2.90555 -5.89179,6.22473 -8.2929,9.72045 -7.94485,11.56922 -15.65262,23.3049 -23.71348,35.3735 4.50459,4.65846 8.60061,9.11262 12.98413,13.26412 z m 70.87814,-15.81655 c -9.64731,40.7558 -19.23662,81.2821 -29.14623,123.1401 46.46601,-29.94074 91.8601,-59.19038 136.95405,-88.24331 -35.88549,-11.6146 -71.65496,-23.1939 -107.80782,-34.89679 z m 193.27672,-87.88769 c -39.26016,6.56018 -77.58207,12.96145 -116.39832,19.44597 13.22123,32.16024 26.17764,63.6748 39.50228,96.08474 25.77915,-38.73807 51.04881,-76.69931 76.89604,-115.53071 z m -191.65749,79.5519 c 35.35332,11.47588 70.00295,22.72478 105.65892,34.30157 -13.24141,-32.25862 -26.02882,-63.38981 -39.08109,-95.17929 -22.23295,20.3262 -44.133,40.35226 -66.57783,60.87772 z m -71.03703,47.91878 c -12.53772,29.971 -24.6492,58.92304 -36.98011,88.39716 23.69835,-0.70116 46.67031,-1.37963 70.4317,-2.08079 -11.15556,-28.78305 -22.09171,-57.00114 -33.45159,-86.31637 z m 34.28391,65.81866 0.87267,-0.19168 c 8.45685,-35.16164 17.03478,-70.08114 25.66818,-106.61735 -19.25932,10.0105 -37.63084,19.55694 -56.50426,29.36819 9.63217,25.0351 19.90246,51.44479 29.96341,77.44084 z M 385.51742,152.1911 c -11.24638,-2.97869 -22.49275,-5.96746 -33.74418,-8.92597 -16.17217,-4.25239 -32.35696,-8.45181 -48.51906,-12.74203 -2.02026,-0.53723 -3.4806,-0.88781 -4.66854,1.54609 -5.71272,11.7029 -11.602,23.3175 -17.40552,34.97751 -0.17908,0.36067 -0.1413,0.82728 -0.27996,1.73274 35.0229,-5.30666 69.81126,-10.58052 104.59457,-15.85187 z m -65.24611,-26.61902 91.66336,25.35793 c -5.25621,-14.9792 -10.13157,-28.8688 -15.14565,-43.1544 l -76.38405,16.9364 z M 179.08756,382.1251 c -11.35232,-1.30901 -23.00727,-0.1059 -34.521,0.0933 -9.45815,0.15891 -18.9163,0.51957 -28.37445,0.81467 -0.97357,0.0303 -1.9446,0.22699 -2.91564,1.27623 78.19497,7.22855 156.3874,14.4571 234.57985,21.6907 l 0.1589,-1.04418 c -25.06538,-3.42259 -50.13327,-6.84518 -75.19863,-10.26525 -31.23461,-4.265 -62.41625,-8.95625 -93.72903,-12.56547 z M 101.5988,346.78188 c 10.07609,-23.38057 20.10931,-46.77624 30.22574,-70.13915 1.01139,-2.34309 0.93319,-3.93459 -1.0467,-5.82117 -4.23222,-4.02792 -8.16428,-8.36858 -12.78995,-13.18087 -6.25247,30.87141 -12.35109,60.97858 -18.454748,91.08325 l 0.683508,0.32032 c 0.4666,-0.74908 1.03662,-1.45781 1.38215,-2.26238 z m 198.596,-227.38157 c 16.99188,-4.38353 34.23094,-7.81118 51.3691,-11.63479 1.10976,-0.24969 2.19431,-0.61541 3.2864,-0.92815 L 354.68132,106 c -24.13974,3.24604 -48.27694,6.4946 -73.63234,9.9071 6.91327,3.01904 12.2401,5.27386 19.14582,3.49321 z"
       clip-rule="evenodd"
       id="path1-4"
       style="stroke-width:2.52218" /></g></svg>
