<?xml version="1.0" encoding="UTF-8" standalone="no"?>
<!-- Created with Inkscape (http://www.inkscape.org/) -->

<svg
   width="512"
   height="512"
   viewBox="0 0 512 512"
   version="1.1"
   id="svg1"
   xml:space="preserve"
   xmlns="http://www.w3.org/2000/svg"
   xmlns:svg="http://www.w3.org/2000/svg"><defs
     id="defs1"><linearGradient
       x1="124.48043"
       y1="253.81658"
       x2="124.48043"
       y2="-4.7814743"
       id="a"
       gradientTransform="scale(0.99614048,1.0038745)"
       gradientUnits="userSpaceOnUse"><stop
         stop-color="#DBDBDA"
         offset="25%"
         id="stop1" /><stop
         stop-color="#FFF"
         offset="100%"
         id="stop2" /></linearGradient><linearGradient
       x1="112.8117"
       y1="82.386682"
       x2="59.27662"
       y2="178.43416"
       id="d"
       gradientUnits="userSpaceOnUse"><stop
         stop-opacity="0"
         offset="0%"
         id="stop3" /><stop
         offset="100%"
         id="stop4" /></linearGradient><filter
       x="-0.019354839"
       y="-0.019354839"
       width="1.0387097"
       height="1.0467742"
       filterUnits="objectBoundingBox"
       id="b"><feOffset
         dy="2"
         in="SourceAlpha"
         result="shadowOffsetOuter1"
         id="feOffset4" /><feGaussianBlur
         stdDeviation="2"
         in="shadowOffsetOuter1"
         result="shadowBlurOuter1"
         id="feGaussianBlur4" /><feColorMatrix
         values="0 0 0 0 0 0 0 0 0 0 0 0 0 0 0 0 0 0 0.266007133 0"
         in="shadowBlurOuter1"
         result="shadowMatrixOuter1"
         id="feColorMatrix4" /><feMerge
         id="feMerge5"><feMergeNode
           in="shadowMatrixOuter1"
           id="feMergeNode4" /><feMergeNode
           in="SourceGraphic"
           id="feMergeNode5" /></feMerge></filter><filter
       x="-0.031904923"
       y="-0.03102579"
       width="1.0638098"
       height="1.0685153"
       filterUnits="objectBoundingBox"
       id="e"><feOffset
         dy="1"
         in="SourceAlpha"
         result="shadowOffsetOuter1"
         id="feOffset5" /><feGaussianBlur
         stdDeviation="2"
         in="shadowOffsetOuter1"
         result="shadowBlurOuter1"
         id="feGaussianBlur5" /><feColorMatrix
         values="0 0 0 0 0 0 0 0 0 0 0 0 0 0 0 0 0 0 13 0"
         in="shadowBlurOuter1"
         result="shadowMatrixOuter1"
         id="feColorMatrix5" /><feMerge
         id="feMerge7"><feMergeNode
           in="shadowMatrixOuter1"
           id="feMergeNode6" /><feMergeNode
           in="SourceGraphic"
           id="feMergeNode7" /></feMerge></filter><radialGradient
       cx="140.11536"
       cy="98.804994"
       fx="140.11536"
       fy="98.804994"
       r="140.00741"
       id="c"
       gradientUnits="userSpaceOnUse"><stop
         stop-color="#2ABCE1"
         offset="0%"
         id="stop7" /><stop
         stop-color="#2ABBE1"
         offset="11.363%"
         id="stop8" /><stop
         stop-color="#3375F8"
         offset="100%"
         id="stop9" /></radialGradient></defs><g
     id="layer1"><circle
       style="fill:#f2f2f2;fill-opacity:1;stroke:#afafaf;stroke-width:8;stroke-dasharray:none;stroke-opacity:1"
       id="path1"
       cx="256.00003"
       cy="256.00006"
       r="241.31339" /><g
       transform="matrix(1.3867489,0,0,1.3867489,84.043143,82.656395)"
       id="g142"><circle
         fill="url(#a)"
         filter="url(#b)"
         cx="124"
         cy="124"
         r="124"
         id="circle9"
         style="fill:url(#a)" /><circle
         fill="url(#c)"
         cx="124"
         cy="124"
         r="114.7"
         id="circle10"
         style="fill:url(#c)" /><g
         transform="translate(9.688,8.719)"
         id="g137"><path
           d="m 114.506,28.481 c -0.775,0 -1.453,-0.581 -1.453,-1.356 V 6.878 c 0,-0.775 0.678,-1.356 1.453,-1.356 0.775,0 1.453,0.581 1.453,1.356 v 20.247 c -0.097,0.775 -0.678,1.356 -1.453,1.356 z"
           fill="#f3f3f3"
           id="path10" /><path
           d="m 114.506,28.578 c -0.872,0 -1.55,-0.678 -1.55,-1.453 V 6.878 c 0,-0.775 0.678,-1.453 1.55,-1.453 0.872,0 1.55,0.678 1.55,1.453 v 20.247 c 0,0.775 -0.775,1.453 -1.55,1.453 z m 0,-22.96 c -0.678,0 -1.356,0.582 -1.356,1.26 v 20.247 c 0,0.678 0.581,1.26 1.356,1.26 0.678,0 1.356,-0.582 1.356,-1.26 V 6.878 c -0.096,-0.678 -0.678,-1.26 -1.356,-1.26 z"
           fill="#ffffff"
           id="path11" /><path
           d="m 124.194,17.631 c -0.775,-0.097 -1.356,-0.678 -1.356,-1.453 l 0.678,-9.01 c 0.096,-0.774 0.775,-1.356 1.55,-1.259 0.775,0.097 1.356,0.679 1.356,1.454 l -0.678,9.009 c -0.097,0.775 -0.775,1.356 -1.55,1.26 z"
           fill="#f3f3f3"
           id="path12" /><path
           d="m 124.194,17.728 c -0.872,-0.097 -1.453,-0.775 -1.453,-1.55 l 0.678,-9.01 c 0.097,-0.774 0.775,-1.452 1.647,-1.356 0.871,0.097 1.453,0.776 1.453,1.55 l -0.678,9.01 c -0.097,0.872 -0.775,1.453 -1.647,1.356 z m 0.872,-11.722 c -0.678,0 -1.357,0.485 -1.357,1.163 l -0.678,9.01 c 0,0.677 0.485,1.259 1.26,1.355 0.678,0 1.356,-0.484 1.356,-1.162 l 0.678,-9.01 c 0,-0.678 -0.581,-1.259 -1.26,-1.356 z"
           fill="#ffffff"
           id="path13" /><path
           d="m 131.46,30.225 c -0.776,-0.194 -1.26,-0.872 -1.163,-1.647 l 3.972,-19.86 c 0.194,-0.774 0.872,-1.259 1.647,-1.065 0.775,0.194 1.259,0.872 1.162,1.647 l -3.972,19.86 c -0.097,0.677 -0.872,1.162 -1.647,1.065 z"
           fill="#f3f3f3"
           id="path14" /><path
           d="m 131.46,30.322 c -0.873,-0.194 -1.357,-0.969 -1.26,-1.744 l 3.972,-19.86 c 0.194,-0.774 0.969,-1.356 1.84,-1.162 0.872,0.194 1.357,0.969 1.26,1.744 L 133.3,29.16 c -0.194,0.774 -0.969,1.259 -1.84,1.162 z M 136.012,7.75 c -0.678,-0.097 -1.356,0.29 -1.55,0.969 l -3.971,19.86 c -0.097,0.677 0.29,1.355 1.065,1.55 0.678,0.096 1.356,-0.292 1.55,-0.97 L 137.078,9.3 c 0.097,-0.775 -0.387,-1.356 -1.066,-1.55 z"
           fill="#ffffff"
           id="path15" /><path
           d="m 143.084,21.506 a 1.444,1.444 0 0 1 -1.065,-1.744 l 2.422,-8.718 c 0.193,-0.775 0.968,-1.163 1.743,-0.969 0.775,0.194 1.26,0.969 1.066,1.744 l -2.422,8.719 c -0.194,0.774 -0.969,1.162 -1.744,0.968 z"
           fill="#f3f3f3"
           id="path16" /><path
           d="m 143.084,21.603 c -0.775,-0.194 -1.356,-1.066 -1.065,-1.84 l 2.422,-8.72 c 0.193,-0.774 1.065,-1.259 1.84,-1.065 0.775,0.194 1.356,1.066 1.066,1.84 l -2.422,8.72 c -0.194,0.774 -0.969,1.259 -1.84,1.065 z m 3.197,-11.334 c -0.678,-0.194 -1.453,0.194 -1.647,0.872 l -2.421,8.718 c -0.194,0.678 0.193,1.357 0.968,1.55 0.678,0.194 1.453,-0.193 1.647,-0.871 l 2.422,-8.72 c 0.097,-0.677 -0.29,-1.355 -0.969,-1.55 z"
           fill="#ffffff"
           id="path17" /><path
           d="m 147.831,35.166 c -0.775,-0.291 -1.065,-1.163 -0.775,-1.841 l 7.75,-18.697 c 0.29,-0.678 1.163,-1.066 1.84,-0.678 0.776,0.29 1.067,1.163 0.776,1.84 l -7.75,18.697 c -0.29,0.679 -1.163,1.066 -1.84,0.679 z"
           fill="#f3f3f3"
           id="path18" /><path
           d="m 147.831,35.263 a 1.505,1.505 0 0 1 -0.872,-1.938 l 7.75,-18.697 c 0.291,-0.775 1.163,-1.066 2.035,-0.775 a 1.505,1.505 0 0 1 0.872,1.938 l -7.75,18.697 c -0.388,0.775 -1.26,1.162 -2.035,0.775 z m 8.816,-21.216 c -0.678,-0.29 -1.453,0 -1.744,0.678 l -7.75,18.697 c -0.29,0.678 0.097,1.356 0.775,1.647 0.678,0.29 1.453,0 1.744,-0.678 l 7.75,-18.697 c 0.194,-0.582 -0.097,-1.357 -0.775,-1.647 z"
           fill="#ffffff"
           id="path19" /><path
           d="m 160.91,28.966 c -0.679,-0.388 -0.97,-1.163 -0.679,-1.841 l 4.069,-8.04 c 0.387,-0.679 1.162,-0.97 1.938,-0.582 0.678,0.388 0.968,1.163 0.678,1.84 l -4.07,8.041 c -0.387,0.678 -1.162,0.97 -1.937,0.582 z"
           fill="#f3f3f3"
           id="path20" /><path
           d="m 160.91,29.063 c -0.776,-0.388 -1.066,-1.26 -0.679,-2.035 l 4.069,-8.04 c 0.387,-0.776 1.26,-1.066 2.034,-0.679 0.775,0.388 1.066,1.26 0.678,2.035 l -4.068,8.04 c -0.388,0.775 -1.26,1.066 -2.035,0.678 z m 5.328,-10.56 c -0.679,-0.29 -1.454,-0.097 -1.744,0.581 l -4.069,8.041 c -0.29,0.581 0,1.356 0.581,1.744 0.678,0.29 1.453,0.097 1.744,-0.581 l 4.069,-8.041 c 0.29,-0.581 0,-1.356 -0.581,-1.744 z"
           fill="#ffffff"
           id="path21" /><path
           d="m 162.847,43.303 c -0.678,-0.484 -0.872,-1.356 -0.388,-1.937 l 11.238,-16.76 c 0.387,-0.678 1.26,-0.775 1.937,-0.387 0.679,0.484 0.872,1.356 0.388,1.937 l -11.238,16.76 c -0.387,0.678 -1.259,0.872 -1.937,0.387 z"
           fill="#f3f3f3"
           id="path22" /><path
           d="m 162.847,43.4 c -0.678,-0.484 -0.872,-1.453 -0.484,-2.131 L 173.6,24.509 c 0.484,-0.678 1.356,-0.872 2.131,-0.387 0.678,0.484 0.872,1.453 0.485,2.131 l -11.238,16.76 c -0.484,0.678 -1.453,0.871 -2.131,0.387 z m 12.787,-19.084 c -0.58,-0.388 -1.453,-0.291 -1.84,0.29 l -11.238,16.76 c -0.387,0.58 -0.194,1.356 0.388,1.743 0.581,0.388 1.453,0.291 1.84,-0.29 l 11.238,-16.663 c 0.387,-0.581 0.194,-1.453 -0.388,-1.84 z"
           fill="#ffffff"
           id="path23" /><path
           d="m 176.99,39.719 c -0.58,-0.485 -0.774,-1.357 -0.29,-1.938 l 5.619,-7.072 c 0.484,-0.58 1.356,-0.678 1.937,-0.193 0.582,0.484 0.775,1.356 0.29,1.937 l -5.618,7.072 c -0.484,0.581 -1.356,0.678 -1.937,0.194 z"
           fill="#f3f3f3"
           id="path24" /><path
           d="m 176.894,39.816 c -0.678,-0.485 -0.775,-1.454 -0.29,-2.132 l 5.618,-7.071 c 0.484,-0.679 1.453,-0.776 2.131,-0.194 0.678,0.484 0.775,1.453 0.29,2.131 l -5.618,7.072 c -0.484,0.678 -1.453,0.775 -2.131,0.194 z m 7.265,-9.204 c -0.58,-0.484 -1.356,-0.387 -1.84,0.194 l -5.619,7.072 c -0.387,0.581 -0.29,1.356 0.29,1.84 0.582,0.485 1.357,0.388 1.841,-0.193 l 5.619,-7.072 c 0.388,-0.581 0.29,-1.453 -0.29,-1.84 z"
           fill="#ffffff"
           id="path25" /><path
           d="m 176.022,54.25 c -0.581,-0.581 -0.581,-1.453 0,-1.938 l 14.337,-14.24 c 0.582,-0.581 1.453,-0.485 1.938,0 0.484,0.484 0.581,1.453 0,1.937 l -14.24,14.241 c -0.582,0.581 -1.454,0.581 -2.035,0 z"
           fill="#f3f3f3"
           id="path26" /><path
           d="m 175.925,54.347 a 1.52,1.52 0 0 1 0,-2.131 l 14.337,-14.241 a 1.52,1.52 0 0 1 2.132,0 1.52,1.52 0 0 1 0,2.131 l -14.338,14.24 a 1.52,1.52 0 0 1 -2.131,0 z m 16.372,-16.275 c -0.484,-0.485 -1.356,-0.485 -1.84,0 l -14.338,14.24 c -0.485,0.485 -0.485,1.357 0,1.841 0.484,0.485 1.356,0.485 1.84,0 l 14.338,-14.24 c 0.484,-0.485 0.484,-1.26 0,-1.841 z"
           fill="#ffffff"
           id="path27" /><path
           d="m 190.553,53.475 c -0.484,-0.581 -0.484,-1.453 0.097,-1.938 l 6.878,-5.812 c 0.581,-0.484 1.453,-0.388 1.938,0.194 0.484,0.581 0.484,1.453 -0.097,1.937 l -6.878,5.813 c -0.582,0.484 -1.454,0.387 -1.938,-0.194 z"
           fill="#f3f3f3"
           id="path28" /><path
           d="m 190.456,53.572 c -0.581,-0.678 -0.484,-1.647 0.097,-2.131 l 6.878,-5.813 c 0.581,-0.581 1.55,-0.484 2.131,0.194 0.582,0.678 0.485,1.647 -0.096,2.131 l -6.879,5.813 c -0.58,0.58 -1.55,0.484 -2.13,-0.194 z m 8.913,-7.653 c -0.485,-0.581 -1.26,-0.581 -1.84,-0.194 l -6.879,5.813 c -0.484,0.484 -0.581,1.259 -0.097,1.84 0.484,0.581 1.26,0.581 1.84,0.194 l 6.879,-5.813 c 0.581,-0.484 0.581,-1.259 0.097,-1.84 z"
           fill="#ffffff"
           id="path29" /><path
           d="m 186.678,67.425 c -0.484,-0.678 -0.29,-1.55 0.388,-1.938 L 203.922,54.25 c 0.678,-0.388 1.55,-0.194 1.937,0.388 0.485,0.678 0.291,1.55 -0.387,1.937 l -16.856,11.237 c -0.582,0.388 -1.454,0.194 -1.938,-0.387 z"
           fill="#f3f3f3"
           id="path30" /><path
           d="m 186.581,67.425 c -0.484,-0.678 -0.29,-1.647 0.388,-2.131 l 16.856,-11.238 c 0.678,-0.484 1.647,-0.29 2.131,0.485 0.485,0.678 0.29,1.647 -0.387,2.13 L 188.713,67.91 c -0.679,0.485 -1.647,0.291 -2.132,-0.484 z m 19.181,-12.69 c -0.387,-0.582 -1.162,-0.776 -1.743,-0.388 l -16.857,11.237 c -0.58,0.388 -0.775,1.163 -0.29,1.841 0.387,0.581 1.162,0.775 1.744,0.388 l 16.856,-11.238 c 0.581,-0.484 0.678,-1.26 0.29,-1.84 z"
           fill="#ffffff"
           id="path31" /><path
           d="m 201.113,69.46 c -0.388,-0.679 -0.194,-1.55 0.484,-1.938 l 7.847,-4.456 c 0.678,-0.388 1.55,-0.097 1.937,0.58 0.388,0.679 0.194,1.55 -0.484,1.938 l -7.847,4.457 c -0.678,0.387 -1.55,0.097 -1.938,-0.582 z"
           fill="#f3f3f3"
           id="path32" /><path
           d="m 201.016,69.556 c -0.388,-0.775 -0.194,-1.647 0.484,-2.034 l 7.847,-4.456 c 0.678,-0.388 1.647,-0.097 2.034,0.58 0.388,0.776 0.194,1.648 -0.484,2.035 l -7.847,4.457 c -0.678,0.387 -1.647,0.096 -2.034,-0.582 z m 10.268,-5.812 c -0.387,-0.678 -1.162,-0.872 -1.743,-0.485 l -7.847,4.457 c -0.581,0.387 -0.775,1.162 -0.485,1.743 0.388,0.678 1.163,0.872 1.744,0.485 l 7.847,-4.457 c 0.581,-0.29 0.775,-1.065 0.484,-1.743 z"
           fill="#ffffff"
           id="path33" /><path
           d="m 194.622,82.344 c -0.29,-0.775 0,-1.55 0.775,-1.84 l 18.697,-7.75 c 0.678,-0.291 1.55,0.096 1.84,0.774 0.291,0.775 0,1.55 -0.775,1.84 l -18.696,7.75 c -0.679,0.291 -1.55,0 -1.841,-0.774 z"
           fill="#f3f3f3"
           id="path34" /><path
           d="m 194.525,82.44 c -0.29,-0.774 0,-1.646 0.775,-2.034 l 18.697,-7.75 a 1.505,1.505 0 0 1 1.937,0.872 c 0.291,0.775 0,1.647 -0.775,2.034 l -18.696,7.75 a 1.505,1.505 0 0 1 -1.938,-0.871 z m 21.216,-8.815 c -0.291,-0.678 -1.066,-0.969 -1.647,-0.775 l -18.697,7.75 c -0.678,0.29 -0.969,1.066 -0.678,1.744 0.29,0.678 1.065,0.969 1.647,0.775 l 18.696,-7.75 c 0.679,-0.29 0.97,-1.066 0.679,-1.744 z"
           fill="#ffffff"
           id="path35" /><path
           d="m 208.281,87.188 c -0.29,-0.776 0.097,-1.55 0.872,-1.841 l 8.525,-2.81 c 0.678,-0.29 1.55,0.194 1.744,0.872 0.29,0.775 -0.097,1.55 -0.872,1.841 l -8.525,2.81 c -0.678,0.29 -1.453,-0.097 -1.744,-0.873 z"
           fill="#f3f3f3"
           id="path36" /><path
           d="m 208.184,87.284 c -0.29,-0.775 0.097,-1.647 0.97,-1.937 l 8.524,-2.81 c 0.775,-0.29 1.647,0.194 1.938,0.97 0.29,0.774 -0.097,1.646 -0.97,1.937 l -8.524,2.81 c -0.775,0.193 -1.647,-0.195 -1.938,-0.97 z m 11.238,-3.68 c -0.194,-0.679 -0.969,-1.067 -1.647,-0.873 l -8.525,2.81 c -0.678,0.193 -0.969,0.968 -0.775,1.647 0.194,0.678 0.969,1.065 1.647,0.871 l 8.525,-2.809 c 0.678,-0.29 0.969,-0.969 0.775,-1.647 z"
           fill="#ffffff"
           id="path37" /><path
           d="m 199.563,98.716 c -0.194,-0.775 0.29,-1.55 1.065,-1.647 l 19.86,-3.875 c 0.774,-0.194 1.453,0.387 1.646,1.162 0.194,0.775 -0.29,1.55 -1.065,1.647 l -19.86,3.875 c -0.775,0.097 -1.55,-0.387 -1.647,-1.162 z"
           fill="#f3f3f3"
           id="path38" /><path
           d="m 199.369,98.716 c -0.194,-0.872 0.387,-1.647 1.162,-1.841 L 220.391,93 c 0.775,-0.194 1.55,0.388 1.743,1.26 0.194,0.871 -0.387,1.646 -1.162,1.84 l -19.86,3.875 c -0.774,0.194 -1.55,-0.387 -1.743,-1.26 z m 22.572,-4.36 c -0.097,-0.678 -0.775,-1.162 -1.453,-1.065 l -19.86,3.875 c -0.678,0.097 -1.162,0.871 -0.969,1.55 0.097,0.678 0.775,1.162 1.454,1.065 l 19.859,-3.875 c 0.678,-0.194 1.162,-0.872 0.969,-1.55 z"
           fill="#ffffff"
           id="path39" /><path
           d="m 211.963,106.175 c -0.097,-0.775 0.387,-1.453 1.162,-1.55 l 8.912,-1.066 c 0.775,-0.096 1.454,0.485 1.55,1.26 0.097,0.775 -0.387,1.453 -1.162,1.55 l -8.913,1.065 c -0.678,0.097 -1.453,-0.484 -1.55,-1.259 z"
           fill="#f3f3f3"
           id="path40" /><path
           d="m 211.866,106.175 c -0.097,-0.872 0.484,-1.647 1.259,-1.744 l 8.912,-1.065 c 0.775,-0.097 1.55,0.484 1.647,1.356 0.097,0.872 -0.484,1.647 -1.259,1.744 l -8.913,1.065 c -0.774,0.097 -1.55,-0.484 -1.646,-1.356 z m 11.721,-1.356 c -0.096,-0.678 -0.774,-1.26 -1.453,-1.163 l -8.912,1.066 c -0.678,0.097 -1.163,0.775 -1.066,1.453 0.097,0.678 0.775,1.26 1.453,1.163 l 8.913,-1.066 c 0.678,-0.097 1.162,-0.775 1.066,-1.453 z"
           fill="#ffffff"
           id="path41" /><path
           d="m 201.113,115.572 c 0,-0.775 0.58,-1.453 1.356,-1.453 h 20.247 c 0.775,0 1.356,0.678 1.356,1.453 0,0.775 -0.581,1.453 -1.356,1.453 h -20.247 c -0.775,0 -1.356,-0.678 -1.356,-1.453 z"
           fill="#f3f3f3"
           id="path42" /><path
           d="m 201.016,115.572 c 0,-0.872 0.678,-1.55 1.453,-1.55 h 20.247 c 0.775,0 1.453,0.678 1.453,1.55 0,0.872 -0.678,1.55 -1.453,1.55 h -20.247 c -0.775,0 -1.453,-0.678 -1.453,-1.55 z m 22.959,0.097 c 0,-0.678 -0.581,-1.356 -1.26,-1.356 H 202.47 c -0.678,0 -1.26,0.58 -1.26,1.356 0,0.678 0.582,1.356 1.26,1.356 h 20.247 c 0.678,-0.097 1.259,-0.678 1.259,-1.356 z"
           fill="#ffffff"
           id="path43" /><path
           d="m 211.866,125.356 c 0.096,-0.775 0.678,-1.356 1.453,-1.356 l 9.01,0.678 c 0.774,0.097 1.355,0.775 1.258,1.55 -0.096,0.775 -0.678,1.356 -1.453,1.356 l -9.009,-0.678 c -0.678,-0.097 -1.26,-0.775 -1.26,-1.55 z"
           fill="#f3f3f3"
           id="path44" /><path
           d="m 211.769,125.356 c 0.097,-0.872 0.775,-1.453 1.55,-1.453 l 9.01,0.678 c 0.774,0.097 1.452,0.775 1.355,1.647 -0.096,0.872 -0.775,1.453 -1.55,1.453 l -9.009,-0.678 c -0.775,-0.097 -1.356,-0.872 -1.356,-1.647 z m 11.819,0.872 c 0.096,-0.678 -0.485,-1.356 -1.163,-1.356 l -9.01,-0.678 c -0.677,0 -1.259,0.484 -1.356,1.26 -0.096,0.677 0.485,1.355 1.163,1.355 l 9.01,0.678 c 0.677,0 1.259,-0.58 1.356,-1.259 z"
           fill="#ffffff"
           id="path45" /><path
           d="m 199.369,132.428 c 0.194,-0.775 0.872,-1.26 1.647,-1.162 l 19.859,3.972 c 0.775,0.193 1.26,0.871 1.066,1.646 -0.194,0.775 -0.872,1.26 -1.647,1.163 l -19.86,-3.972 c -0.678,-0.097 -1.162,-0.872 -1.065,-1.647 z"
           fill="#f3f3f3"
           id="path46" /><path
           d="m 199.272,132.428 c 0.194,-0.872 0.969,-1.356 1.744,-1.26 l 19.859,3.973 c 0.775,0.193 1.356,0.968 1.162,1.84 -0.193,0.872 -0.968,1.357 -1.743,1.26 l -19.86,-3.972 c -0.775,-0.194 -1.259,-0.969 -1.162,-1.84 z m 22.572,4.553 c 0.097,-0.678 -0.29,-1.356 -0.969,-1.55 l -19.86,-3.972 c -0.677,-0.096 -1.356,0.291 -1.55,1.066 -0.096,0.678 0.291,1.356 0.97,1.55 l 19.859,3.972 c 0.775,0.097 1.356,-0.388 1.55,-1.066 z"
           fill="#ffffff"
           id="path47" /><path
           d="m 208.088,144.053 a 1.444,1.444 0 0 1 1.743,-1.065 l 8.719,2.421 c 0.775,0.194 1.162,0.97 0.969,1.744 a 1.444,1.444 0 0 1 -1.744,1.066 l -8.719,-2.422 c -0.775,-0.194 -1.162,-0.969 -0.969,-1.744 z"
           fill="#f3f3f3"
           id="path48" /><path
           d="m 207.99,144.053 c 0.194,-0.775 1.066,-1.356 1.841,-1.065 l 8.719,2.421 c 0.775,0.194 1.26,1.066 1.066,1.841 -0.194,0.775 -1.066,1.356 -1.841,1.066 l -8.719,-2.422 c -0.775,-0.194 -1.26,-0.969 -1.065,-1.84 z m 11.335,3.197 c 0.194,-0.678 -0.194,-1.453 -0.872,-1.647 l -8.719,-2.422 c -0.678,-0.194 -1.356,0.194 -1.55,0.969 -0.193,0.678 0.194,1.453 0.872,1.647 l 8.719,2.422 c 0.678,0.097 1.356,-0.29 1.55,-0.969 z"
           fill="#ffffff"
           id="path49" /><path
           d="m 194.428,148.703 c 0.29,-0.775 1.163,-1.066 1.84,-0.775 l 18.698,7.75 c 0.678,0.29 1.065,1.163 0.775,1.84 -0.291,0.776 -1.163,1.066 -1.841,0.776 l -18.697,-7.75 c -0.775,-0.29 -1.066,-1.163 -0.775,-1.84 z"
           fill="#f3f3f3"
           id="path50" /><path
           d="m 194.331,148.606 a 1.505,1.505 0 0 1 1.938,-0.872 l 18.697,7.75 c 0.775,0.291 1.065,1.163 0.775,2.035 a 1.505,1.505 0 0 1 -1.938,0.872 l -18.697,-7.75 c -0.775,-0.388 -1.065,-1.26 -0.775,-2.035 z m 21.216,8.816 c 0.29,-0.678 0,-1.453 -0.678,-1.744 l -18.697,-7.75 c -0.678,-0.29 -1.356,0.097 -1.647,0.775 -0.29,0.678 0,1.453 0.678,1.744 l 18.697,7.75 c 0.678,0.194 1.453,-0.097 1.647,-0.775 z"
           fill="#ffffff"
           id="path51" /><path
           d="m 200.725,161.781 c 0.388,-0.678 1.162,-0.969 1.84,-0.678 l 8.041,4.069 c 0.678,0.29 0.969,1.162 0.582,1.937 -0.388,0.678 -1.163,0.97 -1.841,0.678 l -8.04,-4.068 c -0.679,-0.388 -0.97,-1.26 -0.582,-1.938 z"
           fill="#f3f3f3"
           id="path52" /><path
           d="m 200.628,161.684 c 0.388,-0.775 1.26,-1.065 2.035,-0.678 l 8.04,4.069 c 0.775,0.388 1.066,1.26 0.678,2.034 -0.387,0.775 -1.26,1.066 -2.034,0.678 l -8.04,-4.068 c -0.776,-0.29 -1.066,-1.26 -0.679,-2.035 z m 10.463,5.328 c 0.29,-0.678 0.096,-1.453 -0.582,-1.743 l -8.04,-4.069 c -0.582,-0.29 -1.356,0 -1.744,0.581 -0.29,0.678 -0.097,1.453 0.581,1.744 l 8.04,4.069 c 0.679,0.29 1.454,0.097 1.745,-0.582 z"
           fill="#ffffff"
           id="path53" /><path
           d="m 186.484,163.622 c 0.485,-0.678 1.26,-0.872 1.938,-0.388 l 16.856,11.238 c 0.678,0.387 0.775,1.26 0.388,1.937 -0.485,0.679 -1.26,0.872 -1.938,0.388 l -16.856,-11.238 c -0.678,-0.484 -0.872,-1.356 -0.388,-1.937 z"
           fill="#f3f3f3"
           id="path54" /><path
           d="m 186.387,163.525 c 0.485,-0.678 1.454,-0.872 2.132,-0.484 l 16.856,11.237 c 0.678,0.484 0.872,1.356 0.387,2.131 -0.484,0.679 -1.453,0.872 -2.13,0.485 l -16.857,-11.238 c -0.775,-0.484 -0.872,-1.453 -0.388,-2.131 z m 19.085,12.787 c 0.387,-0.58 0.29,-1.453 -0.29,-1.84 l -16.857,-11.238 c -0.581,-0.387 -1.356,-0.193 -1.744,0.388 -0.387,0.581 -0.29,1.453 0.29,1.84 l 16.857,11.238 c 0.581,0.388 1.356,0.194 1.744,-0.387 z"
           fill="#ffffff"
           id="path55" /><path
           d="m 190.069,177.669 c 0.484,-0.582 1.356,-0.775 1.937,-0.29 l 7.072,5.521 c 0.581,0.484 0.678,1.356 0.194,1.938 -0.484,0.58 -1.356,0.775 -1.938,0.29 l -7.072,-5.522 c -0.58,-0.484 -0.678,-1.356 -0.193,-1.937 z"
           fill="#f3f3f3"
           id="path56" /><path
           d="m 189.972,177.572 c 0.484,-0.678 1.453,-0.775 2.131,-0.29 l 7.072,5.521 c 0.678,0.484 0.775,1.453 0.29,2.131 -0.484,0.679 -1.453,0.775 -2.13,0.291 l -7.073,-5.522 c -0.678,-0.484 -0.774,-1.453 -0.29,-2.131 z m 9.3,7.266 c 0.484,-0.582 0.387,-1.357 -0.194,-1.841 l -7.072,-5.522 c -0.581,-0.387 -1.356,-0.29 -1.84,0.29 -0.485,0.582 -0.388,1.357 0.193,1.841 l 7.072,5.522 c 0.581,0.388 1.356,0.29 1.84,-0.29 z"
           fill="#ffffff"
           id="path57" /><path
           d="m 175.634,176.7 c 0.582,-0.581 1.454,-0.581 1.938,0 l 14.337,14.24 c 0.582,0.582 0.485,1.454 0,1.938 -0.58,0.581 -1.453,0.581 -1.937,0 l -14.338,-14.24 c -0.484,-0.485 -0.484,-1.454 0,-1.938 z"
           fill="#f3f3f3"
           id="path58" /><path
           d="m 175.634,176.603 a 1.52,1.52 0 0 1 2.132,0 l 14.337,14.24 a 1.52,1.52 0 0 1 0,2.132 1.52,1.52 0 0 1 -2.131,0 l -14.338,-14.24 c -0.678,-0.582 -0.678,-1.55 0,-2.132 z m 16.275,16.178 c 0.485,-0.484 0.485,-1.356 0,-1.84 L 177.572,176.7 c -0.484,-0.484 -1.356,-0.484 -1.84,0 -0.485,0.484 -0.485,1.356 0,1.84 l 14.337,14.241 c 0.484,0.582 1.26,0.582 1.84,0 z"
           fill="#ffffff"
           id="path59" /><path
           d="m 176.506,191.134 c 0.582,-0.484 1.453,-0.484 1.938,0.097 l 5.91,6.781 c 0.483,0.582 0.387,1.454 -0.195,1.938 -0.58,0.484 -1.453,0.484 -1.937,-0.097 l -5.91,-6.781 c -0.484,-0.484 -0.387,-1.356 0.194,-1.938 z"
           fill="#f3f3f3"
           id="path60" /><path
           d="m 176.41,191.134 c 0.678,-0.58 1.55,-0.484 2.13,0.097 l 5.91,6.781 c 0.581,0.582 0.484,1.55 -0.194,2.132 -0.678,0.581 -1.55,0.484 -2.131,-0.097 l -5.91,-6.781 c -0.484,-0.678 -0.484,-1.647 0.194,-2.132 z m 7.75,8.816 c 0.58,-0.484 0.58,-1.26 0.193,-1.84 l -5.91,-6.782 c -0.484,-0.484 -1.259,-0.581 -1.84,-0.097 -0.581,0.485 -0.581,1.26 -0.194,1.84 l 5.91,6.782 c 0.484,0.581 1.26,0.581 1.84,0.097 z"
           fill="#ffffff"
           id="path61" /><path
           d="m 162.556,187.453 c 0.678,-0.484 1.55,-0.29 1.938,0.388 L 175.73,204.6 c 0.388,0.678 0.194,1.55 -0.387,1.938 -0.678,0.484 -1.55,0.29 -1.938,-0.388 l -11.237,-16.76 c -0.388,-0.677 -0.194,-1.55 0.387,-1.937 z"
           fill="#f3f3f3"
           id="path62" /><path
           d="m 162.556,187.356 c 0.678,-0.484 1.647,-0.29 2.131,0.388 l 11.238,16.76 c 0.484,0.677 0.29,1.646 -0.484,2.13 -0.679,0.485 -1.647,0.291 -2.132,-0.387 l -11.237,-16.76 c -0.484,-0.774 -0.29,-1.646 0.484,-2.13 z m 12.788,19.085 c 0.581,-0.388 0.775,-1.163 0.387,-1.744 l -11.237,-16.76 c -0.388,-0.58 -1.163,-0.678 -1.84,-0.29 -0.582,0.387 -0.776,1.162 -0.388,1.744 l 11.237,16.759 c 0.388,0.484 1.26,0.678 1.84,0.29 z"
           fill="#ffffff"
           id="path63" /><path
           d="m 160.522,201.79 c 0.678,-0.387 1.55,-0.193 1.937,0.485 l 4.457,7.847 c 0.387,0.678 0.096,1.55 -0.582,1.937 -0.678,0.388 -1.55,0.194 -1.937,-0.484 l -4.456,-7.847 c -0.291,-0.678 -0.097,-1.55 0.58,-1.937 z"
           fill="#f3f3f3"
           id="path64" /><path
           d="m 160.522,201.694 c 0.775,-0.388 1.647,-0.194 2.034,0.484 l 4.456,7.847 c 0.388,0.678 0.194,1.647 -0.58,2.034 -0.776,0.388 -1.648,0.194 -2.035,-0.484 l -4.456,-7.847 c -0.388,-0.678 -0.194,-1.55 0.58,-2.034 z m 5.812,10.269 c 0.582,-0.388 0.872,-1.163 0.485,-1.744 l -4.456,-7.847 c -0.388,-0.581 -1.163,-0.775 -1.744,-0.485 -0.582,0.388 -0.872,1.163 -0.485,1.744 l 4.457,7.847 c 0.29,0.581 1.162,0.872 1.743,0.484 z"
           fill="#ffffff"
           id="path65" /><path
           d="m 147.637,195.397 c 0.775,-0.29 1.55,0 1.841,0.678 l 7.847,18.697 c 0.29,0.678 -0.097,1.55 -0.775,1.84 -0.678,0.291 -1.55,0 -1.84,-0.678 l -7.847,-18.696 c -0.291,-0.679 0.096,-1.55 0.774,-1.841 z"
           fill="#f3f3f3"
           id="path66" /><path
           d="m 147.637,195.3 c 0.775,-0.29 1.647,0 2.035,0.775 l 7.847,18.697 a 1.505,1.505 0 0 1 -0.872,1.937 c -0.775,0.291 -1.647,0 -2.034,-0.775 l -7.847,-18.696 c -0.291,-0.679 0.097,-1.55 0.871,-1.938 z m 8.816,21.216 c 0.678,-0.291 0.969,-1.066 0.678,-1.647 l -7.847,-18.697 c -0.29,-0.678 -1.065,-0.969 -1.743,-0.678 -0.678,0.29 -0.97,1.065 -0.678,1.647 l 7.846,18.697 c 0.388,0.678 1.066,0.968 1.744,0.678 z"
           fill="#ffffff"
           id="path67" /><path
           d="m 142.89,209.153 c 0.776,-0.29 1.55,0.097 1.841,0.872 l 2.81,8.525 c 0.29,0.678 -0.194,1.55 -0.872,1.744 -0.775,0.29 -1.55,-0.097 -1.84,-0.872 l -2.81,-8.525 c -0.29,-0.678 0.097,-1.453 0.872,-1.744 z"
           fill="#f3f3f3"
           id="path68" /><path
           d="m 142.794,209.056 a 1.505,1.505 0 0 1 1.937,0.872 l 2.81,8.525 c 0.29,0.775 -0.194,1.647 -0.97,1.938 a 1.505,1.505 0 0 1 -1.937,-0.872 l -2.809,-8.525 c -0.194,-0.775 0.194,-1.647 0.969,-1.938 z m 3.778,11.14 c 0.678,-0.193 1.065,-0.968 0.872,-1.646 l -2.81,-8.525 c -0.193,-0.678 -0.968,-0.969 -1.646,-0.775 -0.679,0.194 -1.066,0.969 -0.872,1.647 l 2.809,8.525 a 1.223,1.223 0 0 0 1.647,0.775 z"
           fill="#ffffff"
           id="path69" /><path
           d="m 131.46,200.338 c 0.774,-0.194 1.55,0.29 1.646,1.065 l 4.069,19.86 c 0.194,0.774 -0.388,1.453 -1.163,1.646 -0.774,0.194 -1.55,-0.29 -1.646,-1.065 l -4.07,-19.86 c -0.096,-0.678 0.388,-1.453 1.163,-1.647 z"
           fill="#f3f3f3"
           id="path70" /><path
           d="m 131.46,200.24 c 0.871,-0.193 1.646,0.388 1.84,1.163 l 4.069,19.86 c 0.194,0.774 -0.388,1.646 -1.163,1.743 -0.872,0.194 -1.647,-0.387 -1.84,-1.162 l -4.07,-19.86 c -0.193,-0.775 0.292,-1.55 1.163,-1.743 z m 4.552,22.572 c 0.679,-0.096 1.163,-0.775 1.066,-1.55 l -4.069,-19.859 c -0.096,-0.678 -0.871,-1.162 -1.55,-0.969 -0.678,0.097 -1.162,0.775 -1.065,1.55 l 4.069,19.86 c 0.193,0.678 0.871,1.065 1.55,0.969 z"
           fill="#ffffff"
           id="path71" /><path
           d="m 124.097,212.931 c 0.775,-0.097 1.453,0.388 1.647,1.163 l 1.162,8.912 c 0.097,0.775 -0.484,1.453 -1.26,1.55 -0.774,0.097 -1.452,-0.387 -1.646,-1.162 l -1.162,-8.913 c -0.097,-0.775 0.484,-1.453 1.259,-1.55 z"
           fill="#f3f3f3"
           id="path72" /><path
           d="m 124.097,212.834 c 0.872,-0.096 1.647,0.485 1.744,1.26 l 1.162,8.912 c 0.097,0.775 -0.484,1.55 -1.356,1.647 -0.872,0.097 -1.647,-0.484 -1.744,-1.26 l -1.162,-8.912 c -0.097,-0.775 0.484,-1.55 1.356,-1.647 z m 1.453,11.625 c 0.678,-0.096 1.26,-0.775 1.163,-1.453 l -1.163,-8.912 c -0.097,-0.678 -0.775,-1.163 -1.453,-1.066 -0.678,0.097 -1.26,0.775 -1.163,1.453 l 1.163,8.913 c 0.097,0.678 0.775,1.162 1.453,1.065 z"
           fill="#ffffff"
           id="path73" /><path
           d="m 114.119,202.081 c 0.775,0 1.453,0.582 1.453,1.357 v 20.246 c 0,0.775 -0.678,1.357 -1.453,1.357 -0.775,0 -1.453,-0.582 -1.453,-1.357 v -20.246 c 0.097,-0.775 0.678,-1.357 1.453,-1.357 z"
           fill="#f3f3f3"
           id="path74" /><path
           d="m 114.119,201.984 c 0.872,0 1.55,0.678 1.55,1.453 v 20.247 c 0,0.775 -0.678,1.453 -1.55,1.453 -0.872,0 -1.55,-0.678 -1.55,-1.453 v -20.246 c 0,-0.775 0.775,-1.454 1.55,-1.454 z m 0,22.96 c 0.678,0 1.356,-0.581 1.356,-1.26 v -20.246 c 0,-0.679 -0.581,-1.26 -1.356,-1.26 -0.678,0 -1.356,0.581 -1.356,1.26 v 20.246 c 0.096,0.679 0.678,1.26 1.356,1.26 z"
           fill="#ffffff"
           id="path75" /><path
           d="m 104.431,212.931 c 0.775,0.097 1.356,0.678 1.356,1.453 l -0.678,9.01 c -0.096,0.775 -0.775,1.356 -1.55,1.26 -0.775,-0.098 -1.356,-0.679 -1.356,-1.454 l 0.678,-9.01 c 0.097,-0.774 0.775,-1.356 1.55,-1.259 z"
           fill="#f3f3f3"
           id="path76" /><path
           d="m 104.431,212.834 c 0.872,0.097 1.453,0.775 1.453,1.55 l -0.678,9.01 c -0.097,0.775 -0.775,1.453 -1.647,1.356 -0.871,-0.097 -1.453,-0.775 -1.453,-1.55 l 0.678,-9.01 c 0.097,-0.871 0.775,-1.452 1.647,-1.356 z m -0.872,11.722 c 0.678,0 1.357,-0.484 1.357,-1.162 l 0.678,-9.01 c 0,-0.678 -0.485,-1.259 -1.26,-1.356 -0.678,0 -1.356,0.484 -1.356,1.163 L 102.3,223.2 c 0,0.678 0.581,1.26 1.26,1.356 z"
           fill="#ffffff"
           id="path77" /><path
           d="m 97.166,200.338 c 0.775,0.193 1.259,0.871 1.162,1.646 l -3.972,19.86 c -0.194,0.775 -0.872,1.26 -1.647,1.065 -0.775,-0.193 -1.259,-0.871 -1.162,-1.647 l 3.972,-19.859 c 0.097,-0.678 0.872,-1.162 1.647,-1.065 z"
           fill="#f3f3f3"
           id="path78" /><path
           d="m 97.166,200.24 c 0.871,0.194 1.356,0.97 1.259,1.744 l -3.972,19.86 c -0.194,0.775 -0.969,1.356 -1.84,1.162 -0.872,-0.194 -1.357,-0.969 -1.26,-1.744 l 3.972,-19.859 c 0.194,-0.775 0.969,-1.26 1.84,-1.162 z m -4.553,22.572 c 0.678,0.097 1.356,-0.29 1.55,-0.968 l 3.971,-19.86 c 0.097,-0.678 -0.29,-1.356 -1.065,-1.55 -0.678,-0.096 -1.356,0.291 -1.55,0.97 l -3.972,19.858 c -0.097,0.775 0.387,1.357 1.066,1.55 z"
           fill="#ffffff"
           id="path79" /><path
           d="m 85.54,209.056 c 0.776,0.194 1.26,0.969 1.066,1.744 l -2.422,8.719 c -0.193,0.775 -0.968,1.162 -1.743,0.969 a 1.444,1.444 0 0 1 -1.066,-1.744 l 2.422,-8.719 c 0.194,-0.775 0.969,-1.162 1.744,-0.969 z"
           fill="#f3f3f3"
           id="path80" /><path
           d="m 85.54,208.96 c 0.776,0.193 1.357,1.065 1.066,1.84 l -2.422,8.719 c -0.193,0.775 -1.065,1.26 -1.84,1.065 -0.775,-0.193 -1.356,-1.065 -1.066,-1.84 l 2.422,-8.719 c 0.194,-0.775 0.969,-1.26 1.84,-1.066 z m -3.196,11.334 c 0.678,0.194 1.453,-0.194 1.647,-0.872 l 2.421,-8.719 c 0.194,-0.678 -0.193,-1.356 -0.968,-1.55 -0.678,-0.194 -1.453,0.194 -1.647,0.872 l -2.422,8.719 c -0.097,0.678 0.29,1.356 0.969,1.55 z"
           fill="#ffffff"
           id="path81" /><path
           d="m 80.794,195.397 c 0.775,0.29 1.065,1.162 0.775,1.84 l -7.75,18.697 c -0.29,0.679 -1.163,1.066 -1.84,0.679 -0.679,-0.388 -1.067,-1.163 -0.776,-1.841 l 7.75,-18.697 c 0.29,-0.678 1.163,-1.066 1.84,-0.678 z"
           fill="#f3f3f3"
           id="path82" /><path
           d="m 80.794,195.3 a 1.505,1.505 0 0 1 0.872,1.938 l -7.75,18.696 c -0.291,0.775 -1.163,1.066 -2.035,0.775 a 1.505,1.505 0 0 1 -0.872,-1.937 l 7.75,-18.697 c 0.388,-0.775 1.26,-1.162 2.035,-0.775 z m -8.816,21.216 c 0.678,0.29 1.453,0 1.744,-0.678 l 7.75,-18.697 c 0.29,-0.678 -0.097,-1.357 -0.775,-1.647 -0.678,-0.29 -1.453,0 -1.744,0.678 l -7.75,18.697 c -0.194,0.581 0.097,1.356 0.775,1.647 z"
           fill="#ffffff"
           id="path83" /><path
           d="m 67.716,201.597 c 0.678,0.387 0.968,1.162 0.678,1.84 l -4.069,8.041 c -0.388,0.678 -1.163,0.969 -1.938,0.581 -0.678,-0.387 -0.968,-1.162 -0.678,-1.84 l 4.07,-8.04 c 0.387,-0.679 1.162,-0.97 1.937,-0.582 z"
           fill="#f3f3f3"
           id="path84" /><path
           d="m 67.716,201.5 c 0.775,0.387 1.065,1.26 0.678,2.034 l -4.069,8.041 c -0.388,0.775 -1.26,1.066 -2.034,0.678 -0.775,-0.387 -1.066,-1.26 -0.678,-2.034 l 4.068,-8.04 c 0.388,-0.776 1.26,-1.066 2.035,-0.679 z m -5.328,10.56 c 0.678,0.29 1.453,0.096 1.743,-0.582 l 4.069,-8.04 c 0.29,-0.582 0,-1.357 -0.581,-1.744 -0.678,-0.29 -1.453,-0.097 -1.744,0.581 l -4.069,8.04 c -0.29,0.582 0,1.357 0.582,1.744 z"
           fill="#ffffff"
           id="path85" /><path
           d="m 65.778,187.26 c 0.678,0.484 0.872,1.356 0.388,1.937 l -11.238,16.76 c -0.387,0.677 -1.26,0.774 -1.937,0.387 -0.678,-0.485 -0.872,-1.356 -0.388,-1.938 l 11.238,-16.76 c 0.387,-0.677 1.259,-0.871 1.937,-0.387 z"
           fill="#f3f3f3"
           id="path86" /><path
           d="m 65.778,187.162 c 0.678,0.485 0.872,1.454 0.484,2.132 l -11.237,16.76 c -0.484,0.677 -1.356,0.871 -2.131,0.387 -0.678,-0.485 -0.872,-1.453 -0.485,-2.132 L 63.647,187.55 c 0.484,-0.678 1.453,-0.872 2.131,-0.388 z m -12.787,19.085 c 0.58,0.387 1.453,0.29 1.84,-0.29 l 11.238,-16.76 c 0.387,-0.581 0.194,-1.356 -0.388,-1.744 -0.581,-0.387 -1.453,-0.29 -1.84,0.29 l -11.238,16.663 c -0.387,0.582 -0.194,1.453 0.388,1.84 z"
           fill="#ffffff"
           id="path87" /><path
           d="m 51.634,190.844 c 0.582,0.484 0.775,1.356 0.291,1.937 l -5.619,7.072 c -0.484,0.581 -1.356,0.678 -1.937,0.194 -0.581,-0.484 -0.775,-1.356 -0.29,-1.938 l 5.618,-7.072 c 0.484,-0.58 1.356,-0.678 1.937,-0.193 z"
           fill="#f3f3f3"
           id="path88" /><path
           d="m 51.731,190.747 c 0.678,0.484 0.775,1.453 0.29,2.131 l -5.618,7.072 c -0.484,0.678 -1.453,0.775 -2.131,0.194 -0.678,-0.485 -0.775,-1.453 -0.29,-2.132 l 5.618,-7.071 c 0.484,-0.679 1.453,-0.775 2.131,-0.194 z m -7.265,9.203 c 0.58,0.484 1.356,0.388 1.84,-0.194 l 5.619,-7.072 c 0.388,-0.58 0.29,-1.356 -0.29,-1.84 -0.582,-0.485 -1.357,-0.388 -1.841,0.194 l -5.619,7.071 c -0.387,0.582 -0.29,1.453 0.29,1.841 z"
           fill="#ffffff"
           id="path89" /><path
           d="m 52.603,176.313 c 0.581,0.58 0.581,1.453 0,1.937 l -14.337,14.24 c -0.582,0.582 -1.453,0.485 -1.938,0 -0.484,-0.484 -0.581,-1.453 0,-1.937 l 14.24,-14.24 c 0.582,-0.582 1.454,-0.582 2.035,0 z"
           fill="#f3f3f3"
           id="path90" /><path
           d="m 52.7,176.216 a 1.52,1.52 0 0 1 0,2.13 l -14.338,14.242 a 1.52,1.52 0 0 1 -2.13,0 1.52,1.52 0 0 1 0,-2.132 l 14.337,-14.24 a 1.52,1.52 0 0 1 2.131,0 z M 36.328,192.49 c 0.484,0.484 1.356,0.484 1.84,0 l 14.338,-14.241 c 0.485,-0.484 0.485,-1.356 0,-1.84 -0.484,-0.485 -1.356,-0.485 -1.84,0 l -14.338,14.24 c -0.484,0.484 -0.484,1.26 0,1.84 z"
           fill="#ffffff"
           id="path91" /><path
           d="m 38.072,177.088 c 0.484,0.58 0.484,1.453 -0.097,1.937 l -6.878,5.813 c -0.581,0.484 -1.453,0.387 -1.938,-0.194 -0.484,-0.582 -0.484,-1.453 0.097,-1.938 l 6.878,-5.812 c 0.582,-0.485 1.453,-0.388 1.938,0.194 z"
           fill="#f3f3f3"
           id="path92" /><path
           d="m 38.169,176.99 c 0.581,0.679 0.484,1.647 -0.097,2.132 l -6.878,5.812 c -0.581,0.582 -1.55,0.485 -2.131,-0.193 -0.582,-0.679 -0.485,-1.647 0.096,-2.132 l 6.879,-5.812 c 0.58,-0.581 1.55,-0.484 2.13,0.194 z m -8.913,7.654 c 0.485,0.581 1.26,0.581 1.84,0.194 l 6.879,-5.813 c 0.484,-0.484 0.581,-1.26 0.097,-1.84 -0.485,-0.582 -1.26,-0.582 -1.84,-0.194 l -6.879,5.812 c -0.581,0.484 -0.581,1.26 -0.097,1.84 z"
           fill="#ffffff"
           id="path93" /><path
           d="m 41.947,163.137 c 0.484,0.679 0.29,1.55 -0.388,1.938 l -16.856,11.238 c -0.678,0.387 -1.55,0.193 -1.937,-0.388 -0.485,-0.678 -0.291,-1.55 0.387,-1.938 L 40.01,162.75 c 0.582,-0.387 1.453,-0.194 1.938,0.387 z"
           fill="#f3f3f3"
           id="path94" /><path
           d="m 42.044,163.137 c 0.484,0.679 0.29,1.647 -0.388,2.132 L 24.8,176.506 c -0.678,0.485 -1.647,0.29 -2.131,-0.484 -0.485,-0.678 -0.29,-1.647 0.387,-2.131 l 16.857,-11.238 c 0.678,-0.484 1.646,-0.29 2.13,0.484 z m -19.181,12.691 c 0.387,0.581 1.162,0.775 1.743,0.388 l 16.856,-11.238 c 0.582,-0.387 0.775,-1.162 0.291,-1.84 -0.387,-0.582 -1.162,-0.775 -1.744,-0.388 l -16.856,11.238 c -0.581,0.484 -0.678,1.259 -0.29,1.84 z"
           fill="#ffffff"
           id="path95" /><path
           d="m 27.512,161.103 c 0.388,0.678 0.194,1.55 -0.484,1.938 l -7.847,4.456 c -0.678,0.387 -1.55,0.097 -1.937,-0.581 -0.388,-0.678 -0.194,-1.55 0.484,-1.938 l 7.847,-4.456 c 0.678,-0.388 1.55,-0.097 1.938,0.581 z"
           fill="#f3f3f3"
           id="path96" /><path
           d="m 27.61,161.006 c 0.387,0.775 0.193,1.647 -0.485,2.035 l -7.847,4.456 c -0.678,0.387 -1.647,0.097 -2.034,-0.581 -0.388,-0.775 -0.194,-1.647 0.484,-2.035 l 7.847,-4.456 c 0.678,-0.388 1.647,-0.097 2.034,0.581 z m -10.27,5.813 c 0.388,0.678 1.163,0.872 1.744,0.484 l 7.847,-4.456 c 0.581,-0.388 0.775,-1.163 0.485,-1.744 -0.388,-0.678 -1.163,-0.872 -1.744,-0.484 l -7.847,4.456 c -0.581,0.29 -0.775,1.066 -0.484,1.744 z"
           fill="#ffffff"
           id="path97" /><path
           d="m 34.003,148.219 c 0.29,0.775 0,1.55 -0.775,1.84 l -18.697,7.75 c -0.678,0.291 -1.55,-0.096 -1.84,-0.775 -0.291,-0.775 0,-1.55 0.775,-1.84 l 18.697,-7.75 c 0.678,-0.29 1.55,0 1.84,0.775 z"
           fill="#f3f3f3"
           id="path98" /><path
           d="m 34.1,148.122 c 0.29,0.775 0,1.647 -0.775,2.034 l -18.697,7.75 a 1.505,1.505 0 0 1 -1.937,-0.872 c -0.291,-0.775 0,-1.647 0.775,-2.034 l 18.697,-7.75 a 1.505,1.505 0 0 1 1.937,0.872 z m -21.216,8.815 c 0.291,0.679 1.066,0.97 1.647,0.775 l 18.697,-7.75 c 0.678,-0.29 0.969,-1.065 0.678,-1.743 -0.29,-0.678 -1.065,-0.969 -1.647,-0.775 l -18.697,7.75 c -0.678,0.29 -0.968,1.065 -0.678,1.744 z"
           fill="#ffffff"
           id="path99" /><path
           d="m 20.344,143.375 c 0.29,0.775 -0.097,1.55 -0.872,1.84 l -8.525,2.81 c -0.678,0.29 -1.55,-0.194 -1.744,-0.872 -0.29,-0.775 0.097,-1.55 0.872,-1.84 l 8.525,-2.81 c 0.678,-0.29 1.453,0.097 1.744,0.872 z"
           fill="#f3f3f3"
           id="path100" /><path
           d="m 20.44,143.278 c 0.291,0.775 -0.096,1.647 -0.968,1.938 l -8.525,2.809 c -0.775,0.29 -1.647,-0.194 -1.938,-0.969 -0.29,-0.775 0.097,-1.647 0.97,-1.937 l 8.524,-2.81 c 0.775,-0.193 1.647,0.194 1.938,0.97 z M 9.204,146.96 c 0.194,0.678 0.969,1.066 1.647,0.872 l 8.525,-2.81 c 0.678,-0.193 0.969,-0.968 0.775,-1.646 -0.194,-0.678 -0.969,-1.066 -1.647,-0.872 l -8.525,2.81 c -0.678,0.29 -0.969,0.968 -0.775,1.646 z"
           fill="#ffffff"
           id="path101" /><path
           d="m 29.063,131.847 c 0.193,0.775 -0.291,1.55 -1.066,1.647 l -19.86,3.875 c -0.775,0.194 -1.453,-0.388 -1.646,-1.163 -0.194,-0.775 0.29,-1.55 1.065,-1.647 l 19.86,-3.875 c 0.775,-0.096 1.55,0.388 1.646,1.163 z"
           fill="#f3f3f3"
           id="path102" /><path
           d="m 29.256,131.847 c 0.194,0.872 -0.387,1.647 -1.162,1.84 l -19.86,3.875 c -0.775,0.194 -1.55,-0.387 -1.743,-1.259 -0.194,-0.872 0.387,-1.647 1.162,-1.84 l 19.86,-3.875 c 0.774,-0.194 1.55,0.387 1.743,1.259 z m -22.572,4.36 c 0.097,0.677 0.775,1.162 1.453,1.065 l 19.86,-3.875 c 0.678,-0.097 1.162,-0.872 0.969,-1.55 -0.097,-0.678 -0.775,-1.163 -1.454,-1.066 l -19.859,3.875 c -0.678,0.194 -1.162,0.872 -0.969,1.55 z"
           fill="#ffffff"
           id="path103" /><path
           d="m 16.663,124.388 c 0.096,0.774 -0.388,1.453 -1.163,1.55 l -8.912,1.065 c -0.776,0.097 -1.454,-0.484 -1.55,-1.26 -0.097,-0.774 0.387,-1.452 1.162,-1.55 l 8.913,-1.065 c 0.678,-0.097 1.453,0.484 1.55,1.26 z"
           fill="#f3f3f3"
           id="path104" /><path
           d="m 16.76,124.388 c 0.096,0.871 -0.485,1.646 -1.26,1.743 l -8.912,1.066 c -0.776,0.097 -1.55,-0.484 -1.647,-1.356 -0.097,-0.872 0.484,-1.647 1.259,-1.744 l 8.913,-1.066 c 0.774,-0.097 1.55,0.485 1.646,1.356 z m -11.723,1.356 c 0.097,0.678 0.776,1.26 1.454,1.162 l 8.912,-1.065 c 0.678,-0.097 1.163,-0.775 1.066,-1.453 -0.097,-0.679 -0.775,-1.26 -1.453,-1.163 l -8.913,1.066 c -0.678,0.097 -1.162,0.775 -1.066,1.453 z"
           fill="#ffffff"
           id="path105" /><path
           d="m 27.512,114.99 c 0,0.776 -0.58,1.454 -1.356,1.454 H 5.91 c -0.775,0 -1.356,-0.678 -1.356,-1.453 0,-0.775 0.581,-1.454 1.356,-1.454 h 20.247 c 0.775,0 1.357,0.679 1.357,1.454 z"
           fill="#f3f3f3"
           id="path106" /><path
           d="m 27.61,114.99 c 0,0.873 -0.679,1.55 -1.454,1.55 H 5.91 c -0.775,0 -1.453,-0.678 -1.453,-1.55 0,-0.871 0.678,-1.55 1.453,-1.55 h 20.247 c 0.775,0 1.453,0.679 1.453,1.55 z M 4.65,114.894 c 0,0.678 0.581,1.356 1.26,1.356 h 20.246 c 0.678,0 1.26,-0.581 1.26,-1.356 0,-0.678 -0.582,-1.357 -1.26,-1.357 H 5.91 c -0.678,0.097 -1.259,0.679 -1.259,1.357 z"
           fill="#ffffff"
           id="path107" /><path
           d="m 16.76,105.206 c -0.098,0.775 -0.679,1.356 -1.454,1.356 l -9.01,-0.678 c -0.774,-0.097 -1.355,-0.775 -1.259,-1.55 0.097,-0.775 0.679,-1.356 1.454,-1.356 l 9.009,0.678 c 0.678,0.097 1.26,0.775 1.26,1.55 z"
           fill="#e2e2e2"
           id="path108" /><path
           d="m 16.856,105.206 c -0.097,0.872 -0.775,1.453 -1.55,1.453 l -9.01,-0.678 c -0.774,-0.097 -1.452,-0.775 -1.355,-1.647 0.096,-0.871 0.775,-1.453 1.55,-1.453 l 9.009,0.678 c 0.775,0.097 1.356,0.872 1.356,1.647 z M 5.037,104.334 c -0.096,0.678 0.485,1.357 1.163,1.357 l 9.01,0.678 c 0.677,0 1.259,-0.485 1.356,-1.26 0.097,-0.678 -0.485,-1.356 -1.163,-1.356 l -9.01,-0.678 c -0.677,0 -1.259,0.581 -1.356,1.26 z"
           fill="#ffffff"
           id="path109" /><path
           d="m 29.256,98.134 c -0.194,0.775 -0.872,1.26 -1.647,1.163 L 7.75,95.228 C 6.975,95.034 6.49,94.356 6.684,93.581 6.878,92.806 7.556,92.321 8.331,92.419 l 19.86,3.972 c 0.678,0.193 1.162,0.968 1.065,1.743 z"
           fill="#f3f3f3"
           id="path110" /><path
           d="m 29.353,98.134 c -0.194,0.872 -0.969,1.357 -1.744,1.26 L 7.75,95.422 C 6.975,95.228 6.394,94.453 6.588,93.582 6.781,92.709 7.556,92.225 8.331,92.322 l 19.86,3.972 c 0.775,0.194 1.259,0.969 1.162,1.84 z M 6.781,93.581 c -0.097,0.678 0.29,1.356 0.969,1.55 l 19.86,3.972 c 0.678,0.097 1.356,-0.29 1.55,-1.066 0.096,-0.678 -0.291,-1.356 -0.97,-1.55 L 8.332,92.516 c -0.775,-0.097 -1.356,0.387 -1.55,1.065 z"
           fill="#ffffff"
           id="path111" /><path
           d="m 20.538,86.51 a 1.444,1.444 0 0 1 -1.744,1.065 L 10.075,85.153 C 9.3,84.959 8.913,84.184 9.106,83.409 a 1.444,1.444 0 0 1 1.744,-1.065 l 8.719,2.422 c 0.775,0.193 1.162,0.968 0.969,1.743 z"
           fill="#f3f3f3"
           id="path112" /><path
           d="m 20.634,86.51 c -0.193,0.774 -1.065,1.356 -1.84,1.065 L 10.075,85.153 C 9.3,84.959 8.815,84.087 9.009,83.313 9.203,82.537 10.075,81.956 10.85,82.247 l 8.719,2.422 c 0.775,0.194 1.26,0.969 1.065,1.84 z M 9.3,83.311 c -0.194,0.679 0.194,1.454 0.872,1.647 l 8.719,2.422 c 0.678,0.194 1.356,-0.194 1.55,-0.969 0.193,-0.678 -0.194,-1.453 -0.872,-1.646 L 10.85,82.343 c -0.678,-0.097 -1.356,0.29 -1.55,0.969 z"
           fill="#ffffff"
           id="path113" /><path
           d="m 34.197,81.86 c -0.29,0.774 -1.163,1.065 -1.84,0.774 l -18.698,-7.75 c -0.678,-0.29 -1.065,-1.162 -0.775,-1.84 0.291,-0.775 1.163,-1.066 1.841,-0.775 l 18.697,7.75 c 0.775,0.29 1.066,1.162 0.775,1.84 z"
           fill="#f3f3f3"
           id="path114" /><path
           d="m 34.294,81.956 a 1.505,1.505 0 0 1 -1.938,0.872 l -18.697,-7.75 c -0.775,-0.29 -1.065,-1.162 -0.775,-2.034 a 1.505,1.505 0 0 1 1.938,-0.872 l 18.697,7.75 c 0.775,0.387 1.065,1.26 0.775,2.034 z M 13.078,73.141 c -0.29,0.678 0,1.453 0.678,1.743 l 18.697,7.75 c 0.678,0.291 1.356,-0.097 1.647,-0.775 0.29,-0.678 0,-1.453 -0.678,-1.743 l -18.697,-7.75 c -0.678,-0.194 -1.453,0.097 -1.647,0.775 z"
           fill="#ffffff"
           id="path115" /><path
           d="m 27.9,68.781 c -0.387,0.678 -1.162,0.969 -1.84,0.678 L 18.019,65.391 C 17.341,65.1 17.05,64.228 17.438,63.453 c 0.387,-0.678 1.162,-0.969 1.84,-0.678 l 8.04,4.069 c 0.679,0.387 0.97,1.26 0.582,1.937 z"
           fill="#f3f3f3"
           id="path116" /><path
           d="m 27.997,68.878 c -0.388,0.775 -1.26,1.066 -2.035,0.678 l -8.04,-4.069 c -0.775,-0.387 -1.066,-1.259 -0.678,-2.034 0.387,-0.775 1.26,-1.066 2.034,-0.678 l 8.04,4.069 c 0.776,0.29 1.066,1.26 0.679,2.034 z M 17.534,63.55 c -0.29,0.678 -0.096,1.453 0.582,1.744 l 8.04,4.069 c 0.582,0.29 1.357,0 1.744,-0.582 0.29,-0.678 0.097,-1.453 -0.581,-1.744 L 19.18,62.97 c -0.581,-0.29 -1.356,-0.097 -1.647,0.581 z"
           fill="#ffffff"
           id="path117" /><path
           d="m 42.14,66.94 c -0.484,0.679 -1.259,0.873 -1.937,0.388 l -16.76,-11.14 c -0.677,-0.388 -0.774,-1.26 -0.387,-1.938 0.388,-0.678 1.26,-0.872 1.938,-0.388 L 41.85,65.1 c 0.581,0.388 0.775,1.26 0.29,1.84 z"
           fill="#f3f3f3"
           id="path118" /><path
           d="m 42.237,67.037 c -0.484,0.679 -1.453,0.872 -2.13,0.485 L 23.347,56.284 c -0.678,-0.484 -0.872,-1.356 -0.388,-2.13 0.485,-0.679 1.454,-0.873 2.132,-0.485 L 41.85,64.906 c 0.775,0.485 0.872,1.453 0.387,2.131 z M 23.153,54.25 c -0.387,0.581 -0.29,1.453 0.29,1.84 L 40.3,67.329 c 0.581,0.388 1.356,0.194 1.744,-0.387 0.387,-0.582 0.29,-1.454 -0.29,-1.841 L 24.896,53.863 C 24.315,53.475 23.54,53.669 23.152,54.25 Z"
           fill="#ffffff"
           id="path119" /><path
           d="m 38.556,52.894 c -0.484,0.581 -1.356,0.775 -1.937,0.29 l -7.072,-5.521 c -0.581,-0.485 -0.678,-1.357 -0.194,-1.938 0.484,-0.581 1.356,-0.775 1.938,-0.29 l 7.071,5.521 c 0.582,0.485 0.679,1.356 0.194,1.938 z"
           fill="#f3f3f3"
           id="path120" /><path
           d="m 38.653,52.99 c -0.484,0.679 -1.453,0.776 -2.131,0.291 L 29.45,47.76 c -0.678,-0.484 -0.775,-1.453 -0.29,-2.13 0.484,-0.679 1.453,-0.776 2.13,-0.291 l 7.072,5.521 c 0.679,0.485 0.776,1.453 0.291,2.132 z m -9.3,-7.265 c -0.484,0.581 -0.387,1.356 0.194,1.84 l 7.072,5.523 c 0.581,0.387 1.356,0.29 1.84,-0.291 0.485,-0.581 0.388,-1.356 -0.193,-1.84 l -7.072,-5.523 c -0.581,-0.387 -1.357,-0.29 -1.84,0.291 z"
           fill="#ffffff"
           id="path121" /><path
           d="m 52.99,53.862 c -0.58,0.582 -1.453,0.582 -1.937,0 L 36.62,39.622 c -0.581,-0.581 -0.485,-1.453 0,-1.938 0.581,-0.58 1.453,-0.58 1.937,0 l 14.338,14.241 c 0.581,0.484 0.581,1.453 0.097,1.938 z"
           fill="#f3f3f3"
           id="path122" /><path
           d="m 52.99,53.96 a 1.52,1.52 0 0 1 -2.13,0 L 36.521,39.718 a 1.52,1.52 0 0 1 0,-2.132 1.52,1.52 0 0 1 2.131,0 L 52.99,51.827 c 0.678,0.581 0.678,1.55 0,2.131 z M 36.717,37.78 c -0.485,0.485 -0.485,1.357 0,1.84 l 14.337,14.241 c 0.485,0.485 1.356,0.485 1.84,0 0.485,-0.484 0.485,-1.356 0,-1.84 L 38.557,37.684 C 38.073,37.2 37.297,37.2 36.717,37.781 Z"
           fill="#ffffff"
           id="path123" /><path
           d="m 52.119,39.428 c -0.581,0.485 -1.453,0.485 -1.938,-0.097 l -5.91,-6.781 c -0.483,-0.581 -0.387,-1.453 0.195,-1.937 0.58,-0.485 1.453,-0.485 1.937,0.096 l 5.91,6.782 c 0.484,0.484 0.387,1.356 -0.194,1.937 z"
           fill="#f3f3f3"
           id="path124" /><path
           d="m 52.216,39.428 c -0.678,0.581 -1.55,0.485 -2.132,-0.097 L 44.175,32.55 c -0.581,-0.581 -0.484,-1.55 0.194,-2.131 0.678,-0.582 1.55,-0.485 2.131,0.097 l 5.91,6.78 c 0.484,0.679 0.484,1.648 -0.194,2.132 z m -7.75,-8.815 c -0.582,0.484 -0.582,1.259 -0.194,1.84 l 5.91,6.781 c 0.484,0.485 1.259,0.582 1.84,0.097 0.581,-0.484 0.581,-1.26 0.194,-1.84 l -5.91,-6.782 c -0.484,-0.58 -1.26,-0.58 -1.84,-0.096 z"
           fill="#ffffff"
           id="path125" /><path
           d="m 66.069,43.11 c -0.678,0.484 -1.55,0.29 -1.938,-0.388 L 52.797,25.962 c -0.388,-0.678 -0.194,-1.55 0.387,-1.937 0.678,-0.484 1.55,-0.29 1.938,0.388 l 11.237,16.759 c 0.485,0.678 0.291,1.55 -0.29,1.937 z"
           fill="#f3f3f3"
           id="path126" /><path
           d="m 66.069,43.206 c -0.678,0.485 -1.647,0.29 -2.132,-0.387 L 52.7,26.059 c -0.484,-0.678 -0.29,-1.646 0.484,-2.13 0.678,-0.485 1.647,-0.291 2.132,0.387 l 11.237,16.759 c 0.484,0.775 0.29,1.647 -0.484,2.131 z M 53.28,24.122 c -0.581,0.387 -0.775,1.162 -0.387,1.744 L 64.13,42.625 c 0.388,0.581 1.163,0.678 1.84,0.29 0.582,-0.387 0.776,-1.162 0.388,-1.743 L 55.122,24.509 c -0.388,-0.58 -1.26,-0.775 -1.84,-0.387 z"
           fill="#ffffff"
           id="path127" /><path
           d="m 68.103,28.772 c -0.678,0.387 -1.55,0.194 -1.937,-0.484 l -4.457,-7.847 c -0.387,-0.678 -0.097,-1.55 0.582,-1.938 0.678,-0.387 1.55,-0.194 1.937,0.485 l 4.456,7.846 c 0.291,0.678 0.097,1.55 -0.58,1.938 z"
           fill="#f3f3f3"
           id="path128" /><path
           d="m 68.103,28.869 c -0.775,0.387 -1.647,0.194 -2.034,-0.485 l -4.457,-7.846 c -0.387,-0.679 -0.193,-1.647 0.582,-2.035 0.775,-0.387 1.647,-0.194 2.034,0.485 l 4.456,7.846 c 0.388,0.678 0.194,1.55 -0.58,2.035 z M 62.291,18.6 c -0.582,0.387 -0.872,1.162 -0.485,1.744 l 4.457,7.847 c 0.387,0.58 1.162,0.775 1.743,0.484 0.582,-0.387 0.872,-1.163 0.485,-1.744 l -4.457,-7.847 c -0.29,-0.58 -1.162,-0.872 -1.743,-0.484 z"
           fill="#ffffff"
           id="path129" /><path
           d="m 80.987,35.166 c -0.774,0.29 -1.55,0 -1.84,-0.678 L 71.3,15.79 c -0.29,-0.678 0.097,-1.55 0.775,-1.841 0.775,-0.29 1.55,0 1.84,0.678 l 7.847,18.697 c 0.291,0.678 -0.096,1.55 -0.775,1.84 z"
           fill="#f3f3f3"
           id="path130" /><path
           d="m 80.987,35.263 c -0.774,0.29 -1.646,0 -2.034,-0.776 L 71.106,15.791 a 1.505,1.505 0 0 1 0.872,-1.938 c 0.775,-0.29 1.647,0 2.035,0.775 l 7.846,18.697 c 0.291,0.678 -0.096,1.55 -0.871,1.938 z M 72.172,14.047 c -0.678,0.29 -0.969,1.066 -0.678,1.647 L 79.34,34.39 c 0.29,0.678 1.065,0.968 1.743,0.678 0.678,-0.29 0.97,-1.066 0.678,-1.647 L 73.915,14.724 c -0.388,-0.678 -1.066,-0.969 -1.744,-0.678 z"
           fill="#ffffff"
           id="path131" /><path
           d="m 85.734,21.41 c -0.775,0.29 -1.55,-0.098 -1.84,-0.872 l -2.81,-8.526 c -0.29,-0.678 0.194,-1.55 0.872,-1.743 0.678,-0.194 1.55,0.097 1.84,0.872 l 2.81,8.525 c 0.29,0.678 -0.097,1.453 -0.872,1.743 z"
           fill="#f3f3f3"
           id="path132" /><path
           d="m 85.831,21.506 a 1.505,1.505 0 0 1 -1.937,-0.872 l -2.81,-8.525 c -0.29,-0.775 0.194,-1.646 0.97,-1.937 a 1.505,1.505 0 0 1 1.937,0.872 l 2.809,8.525 c 0.194,0.775 -0.194,1.647 -0.969,1.937 z m -3.778,-11.14 c -0.678,0.193 -1.066,0.968 -0.872,1.646 l 2.81,8.526 c 0.193,0.678 0.968,0.968 1.647,0.774 0.678,-0.193 1.065,-0.968 0.871,-1.646 L 83.7,11.14 a 1.223,1.223 0 0 0 -1.647,-0.775 z"
           fill="#ffffff"
           id="path133" /><path
           d="m 97.166,30.225 c -0.775,0.194 -1.55,-0.29 -1.647,-1.066 L 91.45,9.3 c -0.194,-0.775 0.388,-1.453 1.162,-1.647 0.776,-0.194 1.55,0.29 1.647,1.066 l 4.07,19.86 c 0.096,0.677 -0.388,1.452 -1.163,1.646 z"
           fill="#f3f3f3"
           id="path134" /><path
           d="m 97.166,30.322 c -0.872,0.194 -1.647,-0.388 -1.841,-1.163 L 91.256,9.3 c -0.194,-0.775 0.388,-1.647 1.163,-1.744 0.872,-0.194 1.647,0.388 1.84,1.163 l 4.07,19.86 c 0.193,0.774 -0.291,1.55 -1.163,1.743 z M 92.613,7.75 C 91.934,7.847 91.45,8.525 91.547,9.3 l 4.069,19.86 c 0.097,0.677 0.871,1.162 1.55,0.968 0.678,-0.097 1.162,-0.775 1.065,-1.55 L 94.162,8.718 C 93.969,8.041 93.291,7.653 92.612,7.75 Z"
           fill="#ffffff"
           id="path135" /><path
           d="m 104.528,17.631 c -0.775,0.097 -1.453,-0.387 -1.647,-1.162 l -1.162,-8.913 c -0.097,-0.775 0.484,-1.453 1.26,-1.55 0.774,-0.097 1.452,0.388 1.646,1.163 l 1.162,8.912 c 0.097,0.775 -0.484,1.453 -1.259,1.55 z"
           fill="#f3f3f3"
           id="path136" /><path
           d="m 104.528,17.728 c -0.872,0.097 -1.647,-0.484 -1.744,-1.26 l -1.162,-8.912 c -0.097,-0.775 0.484,-1.55 1.356,-1.647 0.872,-0.096 1.647,0.485 1.744,1.26 l 1.162,8.912 c 0.097,0.775 -0.484,1.55 -1.356,1.647 z M 103.075,6.103 c -0.678,0.097 -1.26,0.775 -1.163,1.453 l 1.163,8.913 c 0.097,0.678 0.775,1.162 1.453,1.065 0.678,-0.096 1.26,-0.775 1.163,-1.453 l -1.163,-8.912 c -0.097,-0.678 -0.775,-1.163 -1.453,-1.066 z"
           fill="#ffffff"
           id="path137" /><circle
           fill-opacity="0.2"
           fill="url(#d)"
           cx="114.991"
           cy="115.184"
           r="114.7"
           id="circle137"
           style="fill:url(#d)" /></g><path
         d="M 204.116,51.15 111.6,110.438 h -0.097 v 0.096 l -0.097,0.097 -57.736,95.229 84.862,-68.297 0.097,-0.096 v -0.097 l 65.488,-86.219 z"
         fill-opacity="0.05"
         filter="url(#e)"
         id="path138" /><path
         d="m 202.372,45.628 -91.45,65.003 27.125,26.931 64.325,-91.934"
         fill="#cd151e"
         id="path139" /><path
         d="m 111.019,110.438 13.66,13.465 77.693,-78.275 z"
         fill="#fa5153"
         id="path140" /><path
         d="m 111.019,110.438 27.125,26.93 -91.45,65.004 64.325,-91.935 z"
         fill="#acacac"
         id="path141" /><path
         d="m 46.694,202.372 77.984,-78.469 -13.66,-13.466 z"
         fill="#eeeeee"
         id="path142" /></g></g></svg>
