<?xml version="1.0" encoding="UTF-8" standalone="no"?>
<!-- Created with Inkscape (http://www.inkscape.org/) -->

<svg
   width="512"
   height="512"
   viewBox="0 0 512 512"
   version="1.1"
   id="svg1"
   xml:space="preserve"
   inkscape:version="1.4.2 (f4327f4, 2025-05-13)"
   sodipodi:docname="sass.svg"
   xmlns:inkscape="http://www.inkscape.org/namespaces/inkscape"
   xmlns:sodipodi="http://sodipodi.sourceforge.net/DTD/sodipodi-0.dtd"
   xmlns="http://www.w3.org/2000/svg"
   xmlns:svg="http://www.w3.org/2000/svg"><sodipodi:namedview
     id="namedview1"
     pagecolor="#ffffff"
     bordercolor="#999999"
     borderopacity="1"
     inkscape:showpageshadow="2"
     inkscape:pageopacity="0"
     inkscape:pagecheckerboard="0"
     inkscape:deskcolor="#d1d1d1"
     inkscape:document-units="px"
     showgrid="false"
     inkscape:zoom="1"
     inkscape:cx="313"
     inkscape:cy="277.5"
     inkscape:window-width="1920"
     inkscape:window-height="1001"
     inkscape:window-x="-9"
     inkscape:window-y="-9"
     inkscape:window-maximized="1"
     inkscape:current-layer="layer1"><inkscape:grid
       id="grid1"
       units="mm"
       originx="0"
       originy="0"
       spacingx="1"
       spacingy="1"
       empcolor="#0099e5"
       empopacity="0.30196078"
       color="#0099e5"
       opacity="0.14901961"
       empspacing="5"
       enabled="true"
       visible="false" /></sodipodi:namedview><defs
     id="defs1"><inkscape:path-effect
       effect="fillet_chamfer"
       id="path-effect1"
       is_visible="true"
       lpeversion="1"
       nodesatellites_param="F,0,0,1,0,2.2572315,0,1 @ F,0,0,1,0,2.608162,0,1 @ F,0,0,1,0,2.5997618,0,1 @ F,0,0,1,0,3.0078049,0,1 @ F,0,0,1,0,2.2522004,0,1 @ F,0,0,1,0,2.8010871,0,1"
       radius="0"
       unit="px"
       method="auto"
       mode="F"
       chamfer_steps="1"
       flexible="false"
       use_knot_distance="true"
       apply_no_radius="true"
       apply_with_radius="true"
       only_selected="false"
       hide_knots="false" /></defs><g
     inkscape:label="Layer 1"
     inkscape:groupmode="layer"
     id="layer1"><circle
       style="fill:#f2f2f2;fill-opacity:1;stroke:#afafaf;stroke-width:8;stroke-dasharray:none;stroke-opacity:1"
       id="path1"
       inkscape:label="background"
       cx="256.00003"
       cy="256.00006"
       r="241.31339" /><path
       d="m 258.05843,288.63396 c -5.77767,2.65461 -12.10788,6.114 -24.7803,13.06882 -4.80472,2.70265 -9.82564,5.4053 -14.49822,7.9518 -0.32432,-0.32432 -0.66065,-0.73272 -0.98497,-1.06905 -25.06858,-26.78627 -71.43405,-45.70482 -69.46412,-81.68011 0.73272,-13.10485 5.23714,-47.50659 89.04332,-89.28356 68.97164,-33.99334 123.85347,-24.57611 133.33076,-3.68762 13.62136,29.7772 -29.41685,85.18755 -100.6467,93.22343 A 53.680646,53.680646 0 0 1 225.00201,215.7705 c -3.7717,-4.09602 -4.33625,-4.33625 -5.72962,-3.51945 -2.29425,1.20118 -0.8168,4.91282 0,7.0389 a 42.041231,42.041231 0 0 0 25.71722,20.22784 136.93429,136.93429 0 0 0 83.55394,-8.27612 c 43.17034,-16.70838 76.8754,-63.15794 67.00171,-102.10013 C 385.63555,89.658818 320.09927,76.638048 258.09446,98.667653 A 312.30629,312.30629 0 0 0 152.51092,159.29111 c -34.1615,31.95133 -39.5668,59.72257 -37.35664,71.34997 7.9518,41.2845 64.86362,68.15485 87.68599,88.05837 -1.20117,0.66065 -2.21016,1.20118 -3.11105,1.71768 -11.38716,5.65755 -54.79773,28.3478 -65.62035,52.34734 -12.28805,27.19467 1.96993,46.68979 11.38717,49.30836 a 70.052702,70.052702 0 0 0 75.44599,-30.55797 75.674215,75.674215 0 0 0 6.71458,-69.66832 60.419254,60.419254 0 0 1 8.60044,-5.72962 c 5.8137,-3.43537 11.35113,-6.82269 16.26395,-9.44126 v 0 a 125.8234,125.8234 0 0 1 53.75271,-11.87965 c 38.99024,4.5885 46.68979,28.91235 45.21234,39.1584 a 25.90941,25.90941 0 0 1 -12.37213,17.52519 c -2.70265,1.71768 -3.60353,2.29425 -3.3633,3.51945 0.32432,1.80177 1.6336,1.71768 3.92785,1.39337 a 30.449863,30.449863 0 0 0 21.21281,-27.11059 c 1.20118,-24.02356 -21.70529,-50.37741 -62.25706,-50.13717 a 93.127332,93.127332 0 0 0 -35.3867,7.05091 q -2.70265,1.1171 -5.24915,2.40236 z m -57.95684,94.16035 c -12.9487,14.08982 -30.96637,19.41103 -38.75,14.90662 -8.40825,-4.80471 -5.08098,-25.64515 10.8106,-40.55177 a 206.36238,206.36238 0 0 1 30.3898,-22.69026 c 1.88585,-1.20117 4.67258,-2.78673 8.02387,-4.80471 0.57657,-0.32432 0.90088,-0.49248 0.90088,-0.49248 l 1.96994,-1.20118 a 55.950872,55.950872 0 0 1 -13.34509,54.83378 z"
       style="fill:#cd6799;stroke-width:12.0118"
       id="path1-8" /></g></svg>
