<?xml version="1.0" encoding="UTF-8" standalone="no"?>
<!-- Created with Inkscape (http://www.inkscape.org/) -->

<svg
   width="512"
   height="512"
   viewBox="0 0 512 512"
   version="1.1"
   id="svg1"
   xml:space="preserve"
   inkscape:version="1.4.2 (f4327f4, 2025-05-13)"
   sodipodi:docname="scala.svg"
   xmlns:inkscape="http://www.inkscape.org/namespaces/inkscape"
   xmlns:sodipodi="http://sodipodi.sourceforge.net/DTD/sodipodi-0.dtd"
   xmlns:xlink="http://www.w3.org/1999/xlink"
   xmlns="http://www.w3.org/2000/svg"
   xmlns:svg="http://www.w3.org/2000/svg"><sodipodi:namedview
     id="namedview1"
     pagecolor="#ffffff"
     bordercolor="#999999"
     borderopacity="1"
     inkscape:showpageshadow="2"
     inkscape:pageopacity="0"
     inkscape:pagecheckerboard="0"
     inkscape:deskcolor="#d1d1d1"
     inkscape:document-units="px"
     showgrid="false"
     inkscape:zoom="1"
     inkscape:cx="313"
     inkscape:cy="277.5"
     inkscape:window-width="1920"
     inkscape:window-height="1001"
     inkscape:window-x="-9"
     inkscape:window-y="-9"
     inkscape:window-maximized="1"
     inkscape:current-layer="layer1"><inkscape:grid
       id="grid1"
       units="mm"
       originx="0"
       originy="0"
       spacingx="1"
       spacingy="1"
       empcolor="#0099e5"
       empopacity="0.30196078"
       color="#0099e5"
       opacity="0.14901961"
       empspacing="5"
       enabled="true"
       visible="false" /></sodipodi:namedview><defs
     id="defs1"><inkscape:path-effect
       effect="fillet_chamfer"
       id="path-effect1"
       is_visible="true"
       lpeversion="1"
       nodesatellites_param="F,0,0,1,0,2.2572315,0,1 @ F,0,0,1,0,2.608162,0,1 @ F,0,0,1,0,2.5997618,0,1 @ F,0,0,1,0,3.0078049,0,1 @ F,0,0,1,0,2.2522004,0,1 @ F,0,0,1,0,2.8010871,0,1"
       radius="0"
       unit="px"
       method="auto"
       mode="F"
       chamfer_steps="1"
       flexible="false"
       use_knot_distance="true"
       apply_no_radius="true"
       apply_with_radius="true"
       only_selected="false"
       hide_knots="false" /><linearGradient
       x1="0%"
       y1="50%"
       x2="100%"
       y2="50%"
       id="linearGradient-1"><stop
         stop-color="#4F4F4F"
         offset="0%"
         id="stop1" /><stop
         stop-color="#000000"
         offset="100%"
         id="stop2" /></linearGradient><linearGradient
       x1="0%"
       y1="50%"
       x2="100%"
       y2="50%"
       id="linearGradient-2"><stop
         stop-color="#C40000"
         offset="0%"
         id="stop3" /><stop
         stop-color="#FF0000"
         offset="100%"
         id="stop4" /></linearGradient><linearGradient
       inkscape:collect="always"
       xlink:href="#linearGradient-1"
       id="linearGradient1"
       x1="0"
       y1="444.17414"
       x2="156.76734"
       y2="444.17414"
       gradientTransform="scale(1.6329932,0.61237244)"
       gradientUnits="userSpaceOnUse" /><linearGradient
       inkscape:collect="always"
       xlink:href="#linearGradient-1"
       id="linearGradient2"
       x1="0"
       y1="235.15102"
       x2="156.76734"
       y2="235.15102"
       gradientTransform="scale(1.6329932,0.61237244)"
       gradientUnits="userSpaceOnUse" /><linearGradient
       inkscape:collect="always"
       xlink:href="#linearGradient-2"
       id="linearGradient3"
       x1="0"
       y1="263.1015"
       x2="202.38577"
       y2="263.1015"
       gradientTransform="scale(1.2649111,0.79056942)"
       gradientUnits="userSpaceOnUse" /><linearGradient
       inkscape:collect="always"
       xlink:href="#linearGradient-2"
       id="linearGradient4"
       x1="0"
       y1="101.19289"
       x2="202.38577"
       y2="101.19289"
       gradientTransform="scale(1.2649111,0.79056942)"
       gradientUnits="userSpaceOnUse" /><linearGradient
       inkscape:collect="always"
       xlink:href="#linearGradient-2"
       id="linearGradient5"
       x1="0"
       y1="425.01012"
       x2="202.38577"
       y2="425.01012"
       gradientTransform="scale(1.2649111,0.79056942)"
       gradientUnits="userSpaceOnUse" /></defs><g
     inkscape:label="Layer 1"
     inkscape:groupmode="layer"
     id="layer1"><circle
       style="fill:#f2f2f2;fill-opacity:1;stroke:#afafaf;stroke-width:8;stroke-dasharray:none;stroke-opacity:1"
       id="path1"
       inkscape:label="background"
       cx="256.00003"
       cy="256.00006"
       r="241.31339" /><g
       id="g8"
       transform="matrix(0.76923077,0,0,0.76923077,157.53846,96)"><path
         d="m 0,288 v -32 c 0,-5.39378 116.37689,-14.42844 192.19911,-32 v 0 C 228.82844,232.49067 256,242.96889 256,256 v 0 32 c 0,13.024 -27.17156,23.50933 -63.80089,32 v 0 C 116.37689,302.42489 0,293.39022 0,288"
         fill="url(#linearGradient-1)"
         transform="matrix(1,0,0,-1,0,544)"
         id="path4"
         style="fill:url(#linearGradient1)" /><path
         d="m 0,160 v -32 c 0,-5.39378 116.37689,-14.42844 192.19911,-32 v 0 C 228.82844,104.49067 256,114.96889 256,128 v 0 32 c 0,13.024 -27.17156,23.50933 -63.80089,32 v 0 C 116.37689,174.42489 0,165.39022 0,160"
         fill="url(#linearGradient-1)"
         transform="matrix(1,0,0,-1,0,288)"
         id="path5"
         style="fill:url(#linearGradient2)" /><path
         d="m 0,224 v -96 c 0,8 256,24 256,64 v 0 96 C 256,248 0,232 0,224"
         fill="url(#linearGradient-2)"
         transform="matrix(1,0,0,-1,0,416)"
         id="path6"
         style="fill:url(#linearGradient3)" /><path
         d="M 0,96 V 0 c 0,8 256,24 256,64 v 0 96 C 256,120 0,104 0,96"
         fill="url(#linearGradient-2)"
         transform="matrix(1,0,0,-1,0,160)"
         id="path7"
         style="fill:url(#linearGradient4)" /><path
         d="m 0,352 v -96 c 0,8 256,24 256,64 v 0 96 C 256,376 0,360 0,352"
         fill="url(#linearGradient-2)"
         transform="matrix(1,0,0,-1,0,672)"
         id="path8"
         style="fill:url(#linearGradient5)" /></g></g></svg>
