<?xml version="1.0" encoding="UTF-8" standalone="no"?>
<!-- Created with Inkscape (http://www.inkscape.org/) -->

<svg
   width="512"
   height="512"
   viewBox="0 0 512 512"
   version="1.1"
   id="svg1"
   xml:space="preserve"
   xmlns="http://www.w3.org/2000/svg"
   xmlns:svg="http://www.w3.org/2000/svg"><defs
     id="defs1" /><g
     id="layer1"><circle
       style="fill:#f2f2f2;fill-opacity:1;stroke:#afafaf;stroke-width:8;stroke-dasharray:none;stroke-opacity:1"
       id="path1"
       cx="256.00003"
       cy="256.00006"
       r="241.31339" /><g
       id="g1"
       transform="matrix(2.6510758,0,0,2.6510758,86.329823,86.329823)"><path
         d="m 27.255,80.719 c 0,7.33 -5.978,13.317 -13.309,13.317 -7.33,0 -13.316,-5.987 -13.316,-13.317 0,-7.33 5.987,-13.317 13.317,-13.317 h 13.309 z m 6.709,0 c 0,-7.33 5.987,-13.317 13.317,-13.317 7.33,0 13.317,5.986 13.317,13.317 v 33.335 c 0,7.33 -5.986,13.317 -13.317,13.317 -7.33,0 -13.317,-5.987 -13.317,-13.317 z m 0,0"
         fill="#de1c59"
         id="path1-0" /><path
         d="m 47.281,27.255 c -7.33,0 -13.317,-5.978 -13.317,-13.309 0,-7.33 5.987,-13.316 13.317,-13.316 7.33,0 13.317,5.987 13.317,13.317 v 13.309 z m 0,6.709 c 7.33,0 13.317,5.987 13.317,13.317 0,7.33 -5.986,13.317 -13.317,13.317 H 13.946 c -7.33,0 -13.316,-5.986 -13.316,-13.317 0,-7.33 5.987,-13.317 13.317,-13.317 z m 0,0"
         fill="#35c5f0"
         id="path2" /><path
         d="m 100.745,47.281 c 0,-7.33 5.978,-13.317 13.309,-13.317 7.33,0 13.317,5.987 13.317,13.317 0,7.33 -5.987,13.317 -13.317,13.317 h -13.309 z m -6.709,0 c 0,7.33 -5.987,13.317 -13.317,13.317 -7.33,0 -13.317,-5.986 -13.317,-13.317 V 13.946 c 0,-7.33 5.986,-13.316 13.317,-13.316 7.33,0 13.317,5.987 13.317,13.317 z m 0,0"
         fill="#2eb57d"
         id="path3" /><path
         d="m 80.719,100.745 c 7.33,0 13.317,5.978 13.317,13.309 0,7.33 -5.987,13.317 -13.317,13.317 -7.33,0 -13.317,-5.987 -13.317,-13.317 v -13.309 z m 0,-6.709 c -7.33,0 -13.317,-5.987 -13.317,-13.317 0,-7.33 5.986,-13.317 13.317,-13.317 h 33.335 c 7.33,0 13.317,5.986 13.317,13.317 0,7.33 -5.987,13.317 -13.317,13.317 z m 0,0"
         fill="#ebb02e"
         id="path4" /></g></g></svg>
