<?xml version="1.0" encoding="UTF-8" standalone="no"?>
<!-- Created with Inkscape (http://www.inkscape.org/) -->

<svg
   width="512"
   height="512"
   viewBox="0 0 512 512"
   version="1.1"
   id="svg1"
   xml:space="preserve"
   xmlns="http://www.w3.org/2000/svg"
   xmlns:svg="http://www.w3.org/2000/svg"><defs
     id="defs1"><style
       id="style52">.a{fill:#303030;}.b{fill:#8c0000;}</style></defs><g
     id="layer1"><circle
       style="fill:#f2f2f2;fill-opacity:1;stroke:#afafaf;stroke-width:8;stroke-dasharray:none;stroke-opacity:1"
       id="path1"
       cx="256.00003"
       cy="256.00006"
       r="241.31339" /><g
       id="g1"
       transform="matrix(1.6283803,0,0,1.6283803,52.436567,53.535334)"><path
         class="a"
         d="m 206.45,111.84 a 2.65,2.65 0 0 1 2.51,2.87 v 7.71 a 2.38,2.38 0 0 1 -2.69,2.69 h -33.35 c -8.25,0 -13.09,2.86 -13.09,9.32 v 2.33 c 0,5 2.33,9.32 11.11,12.55 l 23.85,9.51 c 16.5,6.27 17.93,15.42 17.93,25.28 v 2 c 0,20.08 -12,24 -36.22,24 -15.6,0 -29.76,-1.26 -32.81,-1.62 -2.15,-0.17 -2.69,-1.25 -2.69,-2.68 v -7.89 a 2.37,2.37 0 0 1 2.69,-2.69 h 33.17 c 14.34,0 18.83,-1.62 18.83,-9.33 v -2.15 c 0,-5.2 -2.15,-8.61 -10.4,-12 L 159.83,162 c -13.81,-5.38 -17.22,-15.78 -17.22,-25.64 v -3.76 c 0,-19.73 17.22,-22.42 36.4,-22.42 a 226,226 0 0 1 27.44,1.66 z"
         id="path56" /><path
         class="b"
         d="M 198.33,45 A 29.49,29.49 0 0 0 179.68,38.36 H 66.94 a 29.62,29.62 0 0 0 -13.81,3.41 30,30 0 0 0 -12,11.6 c -0.54,1 -1,1.94 -1.46,2.93 -0.26,0.68 -0.55,1.35 -0.78,2 A 26,26 0 0 0 37.82,62.45 28.13,28.13 0 0 0 37.3,68 v 112.7 a 29.2,29.2 0 0 0 2.93,12.84 29.63,29.63 0 0 0 26.71,16.77 h 60.18 a 1.6,1.6 0 0 0 1.6,-1.6 v -7.19 a 1.6,1.6 0 0 0 -1.6,-1.6 h -7.81 L 96,152.71 149.18,82.23 a 6,6 0 0 0 1,-2.07 l 48.73,7.46 v 11 a 1.6,1.6 0 0 0 1.6,1.59 h 7.23 a 1.61,1.61 0 0 0 1.6,-1.59 V 68 A 29.49,29.49 0 0 0 198.33,45 Z m -61.33,3.74 2.52,20.08 -39.4,-6 -1.78,-14 z m -70,0 h 21.65 l 1.55,12.55 -28.78,-4.4 -9.08,-1.4 a 19.11,19.11 0 0 1 14.6,-6.75 z M 88.87,70.8 68.78,97.5 52.88,65.28 Z m -41.16,5.7 12.88,26.08 -12.88,1.58 z m 0,37.35 17.35,-2.19 18,36.39 -35.35,4.45 z m 60.89,86.07 H 68.54 A 20.88,20.88 0 0 1 47.71,179.1 v -16.93 l 39.79,-5 z m -17.34,-56.83 -17.75,-36 26.1,-34.59 c 0,0 0,0 0,-0.06 l 40.26,6.16 z M 198.9,77.9 149.33,70.32 146.63,48.74 h 31.45 a 20.87,20.87 0 0 1 20.82,20.81 z"
         id="path58" /></g></g></svg>
