<?xml version="1.0" encoding="UTF-8" standalone="no"?>
<!-- Created with Inkscape (http://www.inkscape.org/) -->

<svg
   width="512"
   height="512"
   viewBox="0 0 512 512"
   version="1.1"
   id="svg1"
   xml:space="preserve"
   inkscape:version="1.4.2 (f4327f4, 2025-05-13)"
   sodipodi:docname="sublime-text.svg"
   xmlns:inkscape="http://www.inkscape.org/namespaces/inkscape"
   xmlns:sodipodi="http://sodipodi.sourceforge.net/DTD/sodipodi-0.dtd"
   xmlns="http://www.w3.org/2000/svg"
   xmlns:svg="http://www.w3.org/2000/svg"><sodipodi:namedview
     id="namedview1"
     pagecolor="#ffffff"
     bordercolor="#999999"
     borderopacity="1"
     inkscape:showpageshadow="2"
     inkscape:pageopacity="0"
     inkscape:pagecheckerboard="0"
     inkscape:deskcolor="#d1d1d1"
     inkscape:document-units="px"
     showgrid="false"
     inkscape:zoom="1"
     inkscape:cx="161"
     inkscape:cy="323.5"
     inkscape:window-width="1920"
     inkscape:window-height="1001"
     inkscape:window-x="-9"
     inkscape:window-y="-9"
     inkscape:window-maximized="1"
     inkscape:current-layer="layer1"><inkscape:grid
       id="grid1"
       units="mm"
       originx="0"
       originy="0"
       spacingx="1"
       spacingy="1"
       empcolor="#0099e5"
       empopacity="0.30196078"
       color="#0099e5"
       opacity="0.14901961"
       empspacing="5"
       enabled="true"
       visible="false" /></sodipodi:namedview><defs
     id="defs1"><inkscape:path-effect
       effect="fillet_chamfer"
       id="path-effect1"
       is_visible="true"
       lpeversion="1"
       nodesatellites_param="F,0,0,1,0,2.2572315,0,1 @ F,0,0,1,0,2.608162,0,1 @ F,0,0,1,0,2.5997618,0,1 @ F,0,0,1,0,3.0078049,0,1 @ F,0,0,1,0,2.2522004,0,1 @ F,0,0,1,0,2.8010871,0,1"
       radius="0"
       unit="px"
       method="auto"
       mode="F"
       chamfer_steps="1"
       flexible="false"
       use_knot_distance="true"
       apply_no_radius="true"
       apply_with_radius="true"
       only_selected="false"
       hide_knots="false" /><linearGradient
       x1="114.86857"
       y1="320.11503"
       x2="132.71473"
       y2="280.34578"
       id="linearGradient-1"
       gradientTransform="scale(1.2249436,0.81636411)"
       gradientUnits="userSpaceOnUse"><stop
         stop-color="#FF9700"
         offset="0%"
         id="stop1" /><stop
         stop-color="#F48E00"
         offset="53%"
         id="stop2" /><stop
         stop-color="#D06F00"
         offset="100%"
         id="stop3" /></linearGradient></defs><g
     inkscape:label="Layer 1"
     inkscape:groupmode="layer"
     id="layer1"><circle
       style="fill:#494949;fill-opacity:1;stroke:#858585;stroke-width:8;stroke-dasharray:none;stroke-opacity:1"
       id="path1"
       inkscape:label="background"
       cx="256.00003"
       cy="256.00006"
       r="241.31339" /><g
       id="g5"
       transform="matrix(1.0855412,0,0,1.0855412,117.41775,76.000001)"><path
         d="m 255.28832,166.79465 c 0,-3.8866 -2.87239,-6.12777 -6.39727,-5.01428 L 6.3972793,238.67539 C 2.8653003,239.79597 0,243.85988 0,247.73938 v 78.59008 c 0,3.8866 2.8653003,6.13486 6.3972793,5.01428 L 248.89105,254.45581 c 3.52488,-1.12058 6.39727,-5.18449 6.39727,-9.07108 z"
         fill="url(#linearGradient-1)"
         id="path3"
         style="fill:url(#linearGradient-1)" /><path
         d="m 0,164.29106 c 0,3.88659 2.8653003,7.95049 6.3972793,9.07108 L 248.92651,250.26425 c 3.53198,1.12059 6.39728,-1.12768 6.39728,-5.00718 v -78.59718 c 0,-3.8795 -2.8653,-7.9434 -6.39728,-9.06399 L 6.3972793,80.693793 C 2.8653003,79.573205 0,81.814381 0,85.700976 Z"
         fill="#ff9800"
         id="path4" /><path
         d="m 255.28832,5.3023524 c 0,-3.8865954 -2.87239,-6.13486319 -6.39727,-5.01427546 L 6.3972793,77.175999 C 2.8653003,78.296586 0,82.36049 0,86.247085 v 78.590075 c 0,3.8866 2.8653003,6.12778 6.3972793,5.01428 L 248.89105,92.956427 c 3.52488,-1.120588 6.39727,-5.184491 6.39727,-9.063994 z"
         fill="#ff9800"
         id="path5" /></g></g></svg>
