<?xml version="1.0" encoding="UTF-8" standalone="no"?>
<!-- Created with Inkscape (http://www.inkscape.org/) -->

<svg
   width="512"
   height="512"
   viewBox="0 0 512 512"
   version="1.1"
   id="svg1"
   xml:space="preserve"
   inkscape:version="1.4.2 (f4327f4, 2025-05-13)"
   sodipodi:docname="swift.svg"
   xmlns:inkscape="http://www.inkscape.org/namespaces/inkscape"
   xmlns:sodipodi="http://sodipodi.sourceforge.net/DTD/sodipodi-0.dtd"
   xmlns:xlink="http://www.w3.org/1999/xlink"
   xmlns="http://www.w3.org/2000/svg"
   xmlns:svg="http://www.w3.org/2000/svg"><sodipodi:namedview
     id="namedview1"
     pagecolor="#ffffff"
     bordercolor="#999999"
     borderopacity="1"
     inkscape:showpageshadow="2"
     inkscape:pageopacity="0"
     inkscape:pagecheckerboard="0"
     inkscape:deskcolor="#d1d1d1"
     inkscape:document-units="px"
     showgrid="false"
     inkscape:zoom="1"
     inkscape:cx="161"
     inkscape:cy="243.5"
     inkscape:window-width="1920"
     inkscape:window-height="1001"
     inkscape:window-x="-9"
     inkscape:window-y="-9"
     inkscape:window-maximized="1"
     inkscape:current-layer="layer1"><inkscape:grid
       id="grid1"
       units="mm"
       originx="0"
       originy="0"
       spacingx="1"
       spacingy="1"
       empcolor="#0099e5"
       empopacity="0.30196078"
       color="#0099e5"
       opacity="0.14901961"
       empspacing="5"
       enabled="true"
       visible="false" /></sodipodi:namedview><defs
     id="defs1"><linearGradient
       id="linearGradient4"
       inkscape:collect="always"><stop
         style="stop-color:#fe3c28;stop-opacity:1;"
         offset="0"
         id="stop4" /><stop
         style="stop-color:#faac3e;stop-opacity:1;"
         offset="1"
         id="stop5" /></linearGradient><inkscape:path-effect
       effect="fillet_chamfer"
       id="path-effect1"
       is_visible="true"
       lpeversion="1"
       nodesatellites_param="F,0,0,1,0,2.2572315,0,1 @ F,0,0,1,0,2.608162,0,1 @ F,0,0,1,0,2.5997618,0,1 @ F,0,0,1,0,3.0078049,0,1 @ F,0,0,1,0,2.2522004,0,1 @ F,0,0,1,0,2.8010871,0,1"
       radius="0"
       unit="px"
       method="auto"
       mode="F"
       chamfer_steps="1"
       flexible="false"
       use_knot_distance="true"
       apply_no_radius="true"
       apply_with_radius="true"
       only_selected="false"
       hide_knots="false" /><linearGradient
       inkscape:collect="always"
       xlink:href="#linearGradient4"
       id="linearGradient5"
       x1="10.686646"
       y1="256.00006"
       x2="501.31342"
       y2="256.00006"
       gradientUnits="userSpaceOnUse" /></defs><g
     inkscape:label="Layer 1"
     inkscape:groupmode="layer"
     id="layer1"><circle
       style="fill:url(#linearGradient5);fill-opacity:1;stroke:#858585;stroke-width:8;stroke-dasharray:none;stroke-opacity:1"
       id="path1"
       inkscape:label="background"
       cx="256.00003"
       cy="256.00006"
       r="241.31339" /><g
       style="fill:#ffffff;fill-opacity:1"
       id="g1"
       transform="matrix(9.8307982,0,0,9.8307982,98.713615,98.697795)"><path
         d="M 29.312,21.797 C 29.385,21.645 29.385,21.5 29.464,21.349 31.255,14.317 26.995,6.093 19.667,1.76 c 3.213,4.333 4.484,9.495 3.364,14.131 -0.072,0.375 -0.224,0.823 -0.375,1.197 -0.203,-0.115 -0.405,-0.239 -0.599,-0.375 0,0 -7.251,-4.484 -15.027,-12.339 C 6.806,4.15 11.218,10.655 16.15,15.817 13.833,14.469 7.254,9.76 3.139,5.948 c 0.448,0.817 1.125,1.64 1.797,2.464 3.437,4.411 7.927,9.796 13.308,13.905 -3.813,2.323 -9.12,2.469 -14.505,0 -1.344,-0.593 -2.469,-1.344 -3.74,-2.239 2.245,3.515 5.76,6.728 9.948,8.448 5.011,2.171 10.093,2.02 13.755,0 h 0.079 c 0.145,-0.073 0.297,-0.152 0.448,-0.297 1.792,-0.901 5.307,-1.869 7.249,1.869 0.527,1.047 1.495,-3.812 -2.167,-8.301 z"
         id="path1-4"
         style="fill:#ffffff;fill-opacity:1" /></g></g></svg>
