<?xml version="1.0" encoding="UTF-8" standalone="no"?>
<!-- Created with Inkscape (http://www.inkscape.org/) -->

<svg
   width="512"
   height="512"
   viewBox="0 0 512 512"
   version="1.1"
   id="svg1"
   xml:space="preserve"
   xmlns:xlink="http://www.w3.org/1999/xlink"
   xmlns="http://www.w3.org/2000/svg"
   xmlns:svg="http://www.w3.org/2000/svg"><defs
     id="defs1"><linearGradient
       id="linearGradient4"><stop
         style="stop-color:#fe3c28;stop-opacity:1;"
         offset="0"
         id="stop4" /><stop
         style="stop-color:#faac3e;stop-opacity:1;"
         offset="1"
         id="stop5" /></linearGradient><linearGradient
       xlink:href="#linearGradient4"
       id="linearGradient5"
       x1="10.686646"
       y1="256.00006"
       x2="501.31342"
       y2="256.00006"
       gradientUnits="userSpaceOnUse" /></defs><g
     id="layer1"><circle
       style="fill:url(#linearGradient5);fill-opacity:1;stroke:#858585;stroke-width:8;stroke-dasharray:none;stroke-opacity:1"
       id="path1"
       cx="256.00003"
       cy="256.00006"
       r="241.31339" /><g
       style="fill:#ffffff;fill-opacity:1"
       id="g1"
       transform="matrix(9.8307982,0,0,9.8307982,98.713615,98.697795)"><path
         d="M 29.312,21.797 C 29.385,21.645 29.385,21.5 29.464,21.349 31.255,14.317 26.995,6.093 19.667,1.76 c 3.213,4.333 4.484,9.495 3.364,14.131 -0.072,0.375 -0.224,0.823 -0.375,1.197 -0.203,-0.115 -0.405,-0.239 -0.599,-0.375 0,0 -7.251,-4.484 -15.027,-12.339 C 6.806,4.15 11.218,10.655 16.15,15.817 13.833,14.469 7.254,9.76 3.139,5.948 c 0.448,0.817 1.125,1.64 1.797,2.464 3.437,4.411 7.927,9.796 13.308,13.905 -3.813,2.323 -9.12,2.469 -14.505,0 -1.344,-0.593 -2.469,-1.344 -3.74,-2.239 2.245,3.515 5.76,6.728 9.948,8.448 5.011,2.171 10.093,2.02 13.755,0 h 0.079 c 0.145,-0.073 0.297,-0.152 0.448,-0.297 1.792,-0.901 5.307,-1.869 7.249,1.869 0.527,1.047 1.495,-3.812 -2.167,-8.301 z"
         id="path1-4"
         style="fill:#ffffff;fill-opacity:1" /></g></g></svg>
