<?xml version="1.0" encoding="UTF-8" standalone="no"?>
<!-- Created with Inkscape (http://www.inkscape.org/) -->

<svg
   width="512"
   height="512"
   viewBox="0 0 512 512"
   version="1.1"
   id="svg1"
   xml:space="preserve"
   xmlns="http://www.w3.org/2000/svg"
   xmlns:svg="http://www.w3.org/2000/svg"><defs
     id="defs1" /><g
     id="layer1"><circle
       style="fill:#f2f2f2;fill-opacity:1;stroke:#afafaf;stroke-width:8;stroke-dasharray:none;stroke-opacity:1"
       id="path1"
       cx="256.00003"
       cy="256.00006"
       r="241.31339" /><g
       id="g44"
       transform="matrix(1.3269968,0,0,1.3269968,86.6272,87.36011)"><path
         d="m 254.64607,89.416828 c -0.11917,-0.930207 -0.26262,-1.859311 -0.45462,-2.770759 -0.17876,-0.941241 -0.36414,-1.816276 -0.66097,-2.835862 l -0.71062,-1.127724 c -2.92855,-2.299586 -6.08883,-4.038621 -9.29655,-5.574621 -2.64828,-1.250207 -5.33848,-2.33931 -8.05959,-3.343448 C 227.87752,52.712828 214.83917,34.046897 197.6949,21.040552 179.97462,7.5983448 159.13269,0.4822069 137.42676,0.4822069 c -21.70704,0 -42.548967,7.1161379 -60.270346,20.5594481 C 60.013241,34.046897 46.97269,52.713931 39.38869,73.769931 c -2.714483,0.999724 -5.409104,2.093241 -8.054069,3.337931 -3.213242,1.536 -6.371311,3.273931 -9.300966,5.574621 l -0.712827,1.127724 c -0.283587,1.019586 -0.468966,1.894621 -0.660966,2.835862 -0.184276,0.911448 -0.322207,1.840552 -0.453517,2.770759 -0.262621,1.836138 -0.436966,3.693241 -0.534069,5.551448 -0.186483,3.720827 -0.08166,7.448274 0.326621,11.148134 0.393931,3.69435 1.082482,7.35559 2.064551,10.98594 0.515311,1.80193 1.100138,3.5851 1.794207,5.35393 0.344276,0.88606 0.720552,1.76551 1.137655,2.64496 0.205242,0.43697 0.430345,0.864 0.659862,1.3109 0.50869,0.89158 0.60138,1.06593 0.815449,1.38262 l 0.962207,0.88607 c 0.626758,0.3222 1.146482,0.56717 1.713655,0.83641 l 1.656276,0.74262 c 0.306758,0.1258 0.594758,0.25048 0.908138,0.37628 -7.524414,6.95724 -15.696552,15.99448 -22.7740694,27.16469 L 0,171.90069 12.54731,160.88828 c 0.212966,-0.18649 10.733242,-9.29435 28.279173,-19.61269 l 0.246069,2.0171 c -1.147587,0.59696 -6.664828,3.49241 -8.304552,4.864 -2.717793,2.25765 -2.849103,5.76 -2.121931,12.29572 0.372965,3.34897 1.62869,9.85159 3.322483,15.81352 2.91862,10.25876 5.057103,12.07283 6.935172,12.49766 0.847448,0.20303 1.940966,0.29682 3.170207,0.29682 3.361103,0 7.665655,-0.65434 10.475035,-1.50289 3.294896,10.24662 7.962482,19.49682 13.651862,27.61489 -0.274759,0.0739 -0.546207,0.16221 -0.820966,0.24056 -3.421793,-1.58676 -15.387586,-7.13049 -19.410759,-8.93794 l -8.403862,-3.78372 4.971035,7.76166 c 0.361931,0.56055 8.942345,13.93986 15.948138,22.95834 6.552276,8.40938 15.524414,17.01848 32.454621,17.01848 2.038068,0 4.16993,-0.13131 6.366896,-0.37407 5.048279,-0.57931 8.841929,-1.03503 11.726349,-1.40469 17.77213,6.53021 37.36827,6.93187 55.96579,-0.11475 5.0891,-1.93325 9.7269,-4.27807 13.9851,-6.90759 7.17021,-1.72138 15.01242,-3.59062 18.88662,-4.67862 0.62124,-0.16773 1.39918,-0.3531 2.208,-0.544 5.39807,-1.24138 14.41986,-3.33462 19.2309,-12.95779 4.84745,-9.70925 12.75255,-24.58594 12.83531,-24.73821 l 3.69655,-6.94069 -7.20221,3.13159 c -0.3851,0.17544 -9.51172,4.14896 -14.25213,6.63393 3.29379,-7.584 5.23476,-13.86152 5.91117,-16.27256 2.6549,0.6389 6.5909,0.55725 9.48524,0.55725 1.42345,0 2.88772,-0.24718 3.83779,-0.48994 1.88138,-0.47779 3.33462,-1.728 6.06676,-12.31337 1.59117,-6.15283 2.73214,-12.85297 3.04442,-16.29683 0.60579,-6.70235 0.40938,-10.29407 -2.32607,-12.56166 -1.36276,-1.12551 -5.36276,-3.27945 -7.39642,-4.33986 1.13766,-0.48662 1.696,-0.34428 1.73904,-0.33214 l 1.84717,-7.00248 c 0.64993,-0.27807 1.33738,-0.55724 2.11972,-0.85738 1.11449,-0.44359 2.23007,-0.88496 3.34566,-1.36607 l 1.64745,-0.74262 c 0.57379,-0.26924 1.0891,-0.5131 1.71807,-0.83641 l 0.9622,-0.88607 c 0.20745,-0.31669 0.3189,-0.49104 0.4469,-0.73269 0.6091,-1.09683 0.82428,-1.52386 1.02731,-1.96083 0.4171,-0.87945 0.78786,-1.76 1.13766,-2.64496 0.69406,-1.76883 1.27779,-3.552 1.792,-5.35393 0.97875,-3.63035 1.67724,-7.29049 2.06675,-10.98594 0.4149,-3.69986 0.50759,-7.427307 0.32221,-11.148134 -0.0883,-1.858207 -0.27145,-3.71531 -0.53517,-5.551448 z"
         fill="#0e0f0d"
         id="path1-0" /><g
         transform="translate(22,5)"
         id="g43"><path
           d="m 127.06593,228.62979 c -1.35945,0.20414 -2.72,0.37076 -4.064,0.4778 -0.87503,0.043 -1.7931,0.1302 -2.62952,0.1302 l -0.31227,0.008 c 1.04938,-2.34042 1.84827,-4.16 2.44855,-5.53711 1.23034,1.37711 2.79393,3.08083 4.55724,4.92138"
           fill="#e1c5a2"
           id="path2" /><path
           d="m 125.41628,124.00414 c -2.12635,1.72579 -4.36635,3.33241 -6.69904,4.74262 l -7.78152,4.69407 c -4.88055,0.59586 -9.11558,1.80193 -9.35724,1.87586 -0.14234,0.0309 -0.27696,0.0971 -0.40276,0.17324 -0.37848,0.21848 -0.66648,0.58483 -0.80441,1.01848 l -7.924965,26.10869 -42.356966,9.42014 -13.345103,-9.344 -3.880828,-31.43945 c 7.579587,-1.39255 17.711449,-2.99917 29.880276,-4.36524 -1.300965,1.55807 -2.566621,3.19559 -3.770483,4.91807 l -7.244138,10.3989 10.551173,-7.03228 c 0.158896,-0.11034 6.873379,-4.53076 17.863724,-9.90786 10.952828,-0.81986 23.04441,-1.34952 35.97903,-1.34952 3.16028,0 6.25435,0.0375 9.29325,0.0883 v 0 z m -65.931039,35.41958 c 3.011311,-1.62648 6.409931,-1.38813 11.734069,-1.376 0.567173,0.011 1.157518,0.004 1.768828,-0.0121 0.526345,0 1.050483,-0.009 1.607724,-0.0254 5.486345,-0.0552 10.043586,0.46344 9.960828,-8.14235 -0.08165,-8.60689 -3.907311,-15.56745 -9.389242,-15.51338 -5.480827,0.0486 -10.786207,7.1029 -10.458482,15.70538 0.08717,2.24 0.41931,3.85876 0.945655,5.02179 -4.776828,1.20166 -6.098759,4.15669 -6.16938,4.34207 v 0 z"
           fill="#a89983"
           id="path3" /><path
           d="m 198.8309,131.15007 -3.81462,26.73324 -13.45325,9.42124 -42.30179,-4.80772 -7.89296,-25.99062 c -0.17987,-0.57931 -0.62787,-1.0229 -1.20828,-1.19062 -0.26041,-0.0783 -5.49738,-1.57573 -11.04883,-2.05573 l 1.01628,-0.0673 c 0.87503,-0.0651 15.46262,-1.85158 32.88717,-7.85545 19.29048,1.47973 35.04883,3.84662 45.81628,5.81297 v 0 z m -27.02787,24.74483 c -0.0552,-0.20745 -1.216,-3.66566 -6.30841,-3.05876 0.58483,-1.28 0.84855,-3.0069 0.66317,-5.37711 -0.672,-8.59034 -5.67393,-15.41738 -11.15034,-15.22427 -5.48193,0.18979 -8.98759,7.31145 -8.68414,15.92938 0.30124,8.59917 4.896,8.53958 10.37793,8.34427 7.36221,-0.14013 11.40414,-2.4011 15.10179,-0.61351 z"
           fill="#a89983"
           id="path4" /><path
           d="m 157.33021,140.43007 c 0.0265,1.54703 -1.20055,2.81931 -2.74869,2.85131 -1.54483,0.0276 -2.82593,-1.20717 -2.8469,-2.74979 -0.032,-1.54594 1.19835,-2.82373 2.74428,-2.85131 1.55144,-0.0331 2.82924,1.20275 2.85131,2.74979"
           fill="#ffffff"
           id="path5" /><path
           d="m 78.813241,142.49021 c 0.03862,1.54041 -1.180689,2.82924 -2.722206,2.86896 -1.552552,0.0441 -2.84138,-1.17296 -2.884414,-2.72662 -0.03862,-1.54152 1.178482,-2.83696 2.732138,-2.87007 1.53931,-0.043 2.831448,1.17517 2.874482,2.72773"
           fill="#ffffff"
           id="path6" /><path
           d="m 217.2949,142.91062 c -0.66097,-0.54621 -2.87007,-1.80855 -5.0229,-2.97269 l -3.54538,24.84966 c -0.0717,0.47338 -0.34096,0.91696 -0.74372,1.20055 l -5.07256,3.54758 c -0.12027,0.60028 -0.21406,1.10125 -0.30455,1.57021 4.98428,1.22704 9.82511,-2.3669 12.5429,-4.96 1.25683,-4.896 2.35255,-10.70786 2.73103,-14.86786 0.57821,-6.44855 0.0662,-7.83228 -0.58482,-8.36745"
           fill="#e1c5a2"
           id="path7" /><path
           d="m 138.95228,237.31724 c -3.29159,-1.17076 -6.30842,-3.07972 -8.93463,-5.67614 -0.21848,-0.22289 -0.42703,-0.43807 -0.64662,-0.65655 -2.03255,0.416 -4.10813,0.71504 -6.22344,0.8949 -0.89159,0.0397 -1.74235,0.11586 -2.67256,0.11586 l -1.376,0.0121 -0.52965,-0.0121 c -3.14593,4.672 -8.43476,7.23972 -12.57821,8.6069 12.31007,2.112 25.8549,-1.12 32.96111,-3.28497"
           fill="#e1c5a2"
           id="path8" /><path
           d="m 30.584828,176.45876 c -0.110345,-0.37517 -0.226207,-0.74593 -0.333242,-1.12221 l -6.589793,-4.61241 c -0.413793,-0.29352 -0.676414,-0.736 -0.742621,-1.23917 l -3.213241,-26.09435 c -2.377931,1.26897 -5.126621,2.83586 -5.858207,3.44828 -0.635586,0.52524 -1.121103,1.86262 -0.433655,8.08055 0.521931,4.6742 2.163862,11.85545 3.841103,17.23696 3.336828,2.55228 8.251587,5.24249 13.329656,4.30235"
           fill="#e1c5a2"
           id="path9" /><path
           d="m 129.10179,175.26814 c -0.70069,-0.0784 -1.29103,-0.57049 -1.49738,-1.25352 L 119.472,147.21628 c -1.36386,-0.17876 -2.57434,-0.27807 -3.59614,-0.27807 -1.0262,0 -2.22896,0.0993 -3.59172,0.27807 l -7.90511,26.02813 c -0.18648,0.6058 -0.68855,1.07476 -1.3131,1.21159 l -3.779309,0.84193 c -0.32,1.33517 -1.409104,3.29379 -4.913655,4.36855 -5.656276,1.72469 -41.460966,12.39724 -45.543725,11.81683 -2.384551,-0.33434 -6.919724,-2.83697 -10.27531,-4.86069 -1.342897,-3.16138 -2.085517,-5.3109 -2.255448,-5.82069 v -0.01 l -0.0099,0.01 c 0.474483,1.38814 5.146482,14.83697 14.639448,27.99228 10.177103,-2.99918 18.967172,-5.79531 21.777655,-6.68469 5.72469,-8.82759 13.880276,-17.58676 19.672276,-17.8858 1.005241,-0.0496 2.039172,-0.0805 3.064276,-0.0805 2.838069,0 5.547032,0.20193 8.061792,0.49986 -2.13628,-1.93875 -2.57435,-4.20634 -2.88441,-5.21269 0,0 7.39751,5.78538 16.80662,4.56828 9.42345,-1.20607 15.26951,-6.63283 15.26951,-6.63283 l 0.18538,-1.66841 -3.77931,-0.42924"
           fill="#e1c5a2"
           id="path10" /><path
           d="m 136.74979,178.66014 c -1.952,-0.50538 -3.18124,-1.3109 -3.95917,-2.15062 l -0.0971,0.85627 c 0,0 -0.032,3.95476 -4.13021,7.01904 7.89186,-2.39007 11.15476,-3.1989 13.38924,-3.1989 2.45959,0 3.67669,1.02621 4.74373,1.92772 0.20193,0.16883 0.40386,0.34538 0.64551,0.53407 6.07007,4.77683 13.36607,10.57545 15.49683,12.28028 2.47062,0.28469 10.31172,1.18179 15.24635,1.632 2.84137,0.26483 5.41462,0.4789 7.93489,0.4789 0.80773,0 1.57242,-0.0276 2.29517,-0.0773 2.60194,-4.98317 4.99752,-10.496 7.12938,-16.57379 -2.91751,2.0469 -9.56689,6.5269 -12.68193,7.104 -4.05296,0.75917 -40.29793,-8.34979 -46.01269,-9.83172"
           fill="#e1c5a2"
           id="path11" /><path
           d="m 227.95421,84.940966 c -0.0684,-0.858483 -0.16221,-1.715863 -0.26704,-2.563311 -0.0706,-0.606896 -0.16662,-1.235862 -0.27145,-1.818483 -2.28855,-1.925517 -4.89158,-3.640275 -7.59944,-5.191724 -2.93297,-1.722483 -6.00387,-3.252965 -9.13987,-4.67862 -3.10841,-1.469793 -6.30841,-2.798345 -9.51944,-4.093794 -1.60552,-0.654344 -3.22428,-1.284413 -4.85076,-1.884689 -1.61876,-0.63338 -3.25187,-1.223724 -4.89269,-1.819586 3.43724,0.570482 6.84689,1.356138 10.23007,2.225655 2.20138,0.561655 4.38841,1.200551 6.5611,1.884689 C 192.73876,26.593931 155.78207,0.28331035 115.42566,0.28331035 c -40.360832,0 -77.315315,26.31172365 -92.769108,66.71779265 2.169379,-0.684138 4.361931,-1.323034 6.552276,-1.884689 3.380965,-0.869517 6.791724,-1.655173 10.235586,-2.225655 -1.650759,0.595862 -3.280552,1.186206 -4.908138,1.819586 -1.617655,0.601379 -3.235311,1.230345 -4.841931,1.884689 -3.213242,1.295449 -6.406621,2.624001 -9.524966,4.093794 -3.124965,1.425655 -6.195862,2.956137 -9.132138,4.67862 -2.7089651,1.551449 -5.3064824,3.266207 -7.6005513,5.191724 -0.093793,0.583725 -0.1931035,1.21269 -0.2692414,1.818483 C 3.065931,83.225103 2.9721379,84.082483 2.896,84.940966 c -0.1489655,1.722482 -0.2074483,3.448275 -0.2195862,5.181793 -0.037517,3.463724 0.1975172,6.927448 0.6333793,10.350341 0.4766897,3.43725 1.1056552,6.85131 2.0358621,10.15393 0.4568276,1.64856 0.9809655,3.27725 1.5845517,4.85628 0.3045517,0.78676 0.6333793,1.568 0.9776552,2.31834 0.1688276,0.37628 0.3442758,0.74814 0.5263448,1.10345 L 8.656,119.32552 c 0.2526897,0.12689 0.5208276,0.26151 0.7702069,0.38289 l 1.5360001,0.73269 c 0.857379,0.39393 2.045793,0.95669 3.026759,1.39476 0.05517,-0.0496 0.110344,-0.0993 0.154482,-0.14786 l -2.852413,-10.86455 c 0.605793,-0.16331 6.021517,-1.56359 15.355586,-3.34455 -0.749242,-0.14125 -1.508414,-0.29904 -2.256552,-0.48 -2.125241,-0.53187 -4.222897,-1.17628 -6.257655,-1.99614 -1.006345,-0.42704 -1.999449,-0.89048 -2.945104,-1.42566 -0.945655,-0.5462 -1.874758,-1.15862 -2.597517,-1.97848 10.253242,3.35007 31.446069,1.83614 50.286345,-0.11365 17.224827,-1.776556 34.501517,-2.924142 51.860962,-2.962763 17.35504,0.03862 34.63835,1.186207 51.85435,2.962763 18.848,1.94979 40.03972,3.46372 50.29186,0.11365 -0.71503,0.81986 -1.65076,1.43228 -2.58759,1.97848 -0.95338,0.53518 -1.94869,0.99973 -2.95503,1.42566 -2.03255,0.81986 -4.12248,1.46427 -6.25104,1.99614 -0.31558,0.075 -0.63448,0.14124 -0.95006,0.21186 10.24,1.89793 16.19862,3.44276 16.82979,3.61159 l -2.72552,10.34924 c 0.55393,-0.23945 1.11007,-0.4789 1.64414,-0.73159 l 1.54041,-0.73269 c 0.25269,-0.12138 0.51531,-0.256 0.77683,-0.3829 l 0.20635,-0.42041 c 0.18648,-0.35531 0.36744,-0.72717 0.53406,-1.10345 0.34538,-0.75034 0.67421,-1.53158 0.97435,-2.31834 0.60028,-1.57904 1.12662,-3.20773 1.58565,-4.85628 0.93352,-3.30262 1.56249,-6.71779 2.03145,-10.15393 0.44469,-3.422897 0.68083,-6.886621 0.64773,-10.350345 -0.0144,-1.732414 -0.0739,-3.45931 -0.23062,-5.180689"
           fill="#e0d896"
           id="path12" /><path
           d="m 157.88745,64.841655 c 0.15779,4.622345 0.0441,13.010759 -2.1098,20.858483 -0.0872,0.300138 -0.0761,0.612414 0,0.902621 -2.74206,-0.290207 -5.48634,-0.536276 -8.22841,-0.759173 3.07531,-6.450758 3.74731,-13.318621 3.89738,-15.739586 2.36469,-1.677241 4.71503,-3.694345 6.44083,-5.262345"
           fill="#d7c184"
           id="path13" /><path
           d="m 79.413517,70.104 c 0.143449,2.419862 0.815448,9.272276 3.890759,15.723034 -2.743173,0.21738 -5.486345,0.468966 -8.222897,0.760276 0.07393,-0.278069 0.07945,-0.585931 0,-0.886069 -2.149517,-7.836689 -2.264276,-16.224 -2.116413,-20.858482 1.733517,1.566896 4.078344,3.584 6.448551,5.261241"
           fill="#d7c184"
           id="path14" /><path
           d="m 191.57352,93.006069 c -0.0121,0.07614 -0.0331,0.154483 -0.0563,0.229517 0.30124,0.08717 0.59586,0.175448 0.8971,0.273655 2.53573,0.830897 5.07476,1.699311 7.49904,2.819311 -4.04745,-2.629518 -6.61407,-10.216828 -8.04524,-16.016552 0.39393,7.591724 -0.25711,12.407172 -0.29462,12.694069"
           fill="#d7c184"
           id="path15" /><path
           d="m 69.589517,63.382897 -26.183724,7.447172 c -1.568,10.184828 -1.090207,17.963034 -0.837517,20.662069 l 0.132414,-0.07945 c 0,0 0.852965,-11.095173 2.592,-15.352276 0.896,-2.185931 6.376827,-3.58069 10.555586,-4.579311 4.187586,-0.994206 10.864552,-2.988138 12.161103,2.891035 0.8,3.632552 1.901242,6.653793 2.957242,8.881655 C 69.284965,75.176552 69.392,67.279172 69.589517,63.382897"
           fill="#d7c184"
           id="path16" /><path
           d="m 161.25959,63.382897 c 0.21406,4.048551 0.31338,12.414896 -1.58456,20.815448 1.18952,-2.281931 2.51145,-5.648552 3.43173,-9.826207 1.29434,-5.879173 7.97131,-3.885241 12.15779,-2.891035 4.18759,0.999725 9.66179,2.39338 10.5578,4.579311 1.4753,3.603862 2.30951,12.100414 2.5302,14.62731 0.24828,-3.248552 0.52414,-10.551172 -0.90262,-19.858759 l -26.19034,-7.446068"
           fill="#d7c184"
           id="path17" /><path
           d="m 79.206069,65.650483 c 0.930207,0.743724 1.903448,1.469793 2.849103,2.109793 0.457931,0.317793 0.738207,0.83531 0.748138,1.393655 0.0055,0.08717 0.201931,8.713931 4.015449,16.059586 0.05517,0.110345 0.09379,0.230621 0.13131,0.344276 9.481931,-0.644414 18.991451,-0.905931 28.477791,-0.911448 9.49186,0.0055 18.99586,0.284689 28.47338,0.933517 0.0375,-0.12469 0.0728,-0.246069 0.14014,-0.366345 3.808,-7.345655 4.01214,-15.972414 4.01214,-16.059586 0.01,-0.558345 0.29572,-1.076966 0.75365,-1.393655 0.91476,-0.617931 1.83835,-1.318621 2.74207,-2.036966 l 0.11917,-0.336551 c 1.9829,-19.297104 -1.65296,-37.079173 -3.96469,-45.865931 -0.12138,6.008275 -1.54593,57.486344 -14.32055,57.486344 h -16.27365 -2.70897 -16.273653 c -13.56469,0 -14.656,-58.040275 -14.656,-58.040275 l -0.698483,2.061241 c -2.313931,9.254621 -5.491862,26.265379 -3.566345,44.622345"
           fill="#d7c184"
           id="path18" /><path
           d="m 39.337379,93.231172 c -0.01214,-0.07503 -0.0331,-0.147862 -0.05076,-0.225103 -0.04193,-0.286897 -0.695173,-5.107862 -0.301242,-12.70731 -1.432276,5.804138 -4.00662,13.404689 -8.059586,16.033103 2.424276,-1.124414 4.974345,-1.996138 7.514483,-2.828138 0.295724,-0.09269 0.600276,-0.180965 0.897103,-0.272552"
           fill="#d7c184"
           id="path19" /><path
           d="m 202.6069,171.10593 c -0.21628,1.11228 -0.39614,2.00607 -0.74925,3.40635 2.90759,0.67751 7.66125,1.20386 9.93435,0.76027 0.97324,-1.0571 2.23007,-4.72386 3.35779,-9.12772 -2.71779,2.5942 -7.55972,6.18814 -12.54289,4.9611"
           fill="#9f8f78"
           id="path20" /><path
           d="m 98.403862,242.28055 c 6.945108,1.90124 14.039168,2.72662 21.028418,2.26317 7.01131,-0.47669 16.11475,-1.98951 25.77765,-5.91227 -2.16938,-0.16111 -4.26372,-0.60359 -6.25765,-1.31311 -7.10621,2.16607 -20.65104,5.39807 -32.96111,3.28607 -3.25848,1.07256 -5.81296,1.4058 -6.062342,1.43669 -0.514207,0.0585 -0.939035,0.13021 -1.524966,0.23945"
           fill="#9f8f78"
           id="path21" /><path
           d="m 31.043862,178.01572 c -0.16,-0.51641 -0.306759,-1.03724 -0.459034,-1.55696 -5.079173,0.94014 -9.993931,-1.75007 -13.327449,-4.30124 1.079173,3.45489 2.168276,6.16938 2.983724,6.99476 2.514759,0.43917 8.078345,-0.33214 10.802759,-1.13656"
           fill="#9f8f78"
           id="path22" /><path
           d="m 38.552828,186.62262 c 3.354482,2.02372 7.889655,4.52745 10.27531,4.86069 4.082759,0.58041 39.887448,-10.09214 45.543724,-11.81683 3.504552,-1.07476 4.593655,-3.03338 4.913655,-4.36855 l -51.65462,11.50345 c -0.131311,0.0221 -0.262621,0.0386 -0.387311,0.0386 h -0.0033 -0.0022 c -0.356414,0 -0.712828,-0.10924 -1.017379,-0.3211 l -2.011587,-1.40359 -6.033655,-4.22621 v -0.009 l -2.43531,-1.70042 c 0.04193,0.13793 0.09159,0.27476 0.136827,0.41159 0.137932,0.40055 0.273656,0.80662 0.419311,1.20055 v 0.01 c 0.171034,0.50979 0.913655,2.65931 2.256552,5.82069"
           fill="#9f8f78"
           id="path23" /><path
           d="m 197.0069,176.69931 c 0.33103,-1.21931 0.65434,-2.45407 0.94896,-3.70097 l -1.7931,1.25904 -4.82648,3.37986 -5.22152,3.66124 c -0.26814,0.18428 -0.57931,0.29573 -0.89931,0.32 -0.10814,0.007 -0.21297,0.004 -0.3189,-0.008 l -52.01545,-5.91338 -0.0883,0.81103 c 0.77793,0.84083 2.00717,1.64524 3.95807,2.15062 5.71475,1.48194 41.95862,10.5909 46.01158,9.83062 3.11504,-0.5771 9.76662,-5.0571 12.68193,-7.10399 0.0243,-0.0706 0.0497,-0.13904 0.0728,-0.20966 0.22621,-0.64993 0.4491,-1.30207 0.66979,-1.95972 0.27807,-0.8309 0.54952,-1.66731 0.81987,-2.51697"
           fill="#9f8f78"
           id="path24" /><path
           d="m 141.97021,106.61931 c -0.40938,0.53076 -0.85849,1.11007 -1.33959,1.71586 -2.47062,3.12166 -5.89241,7.104 -9.94538,11.01131 -4.72165,-0.14786 -9.5691,-0.22951 -14.55889,-0.22951 -8.24718,0 -16.154488,0.21738 -23.66235,0.5782 10.61297,-4.39834 23.35669,-8.69848 37.16083,-11.27834 4.02869,-0.76469 8.15227,-1.376 12.34538,-1.79752"
           fill="#6e6a67"
           id="path25" /><path
           d="m 79.883586,111.36855 c -3.792551,2.66262 -8.065103,6.05462 -12.212965,10.1749 -10.61738,1.06593 -19.885242,2.34924 -27.524414,3.584 11.74731,-5.39697 25.157517,-10.37131 39.737379,-13.7589"
           fill="#6e6a67"
           id="path26" /><path
           d="m 209.64028,133.29407 -4.32442,30.21683 -20.69407,14.50041 -53.96965,-6.13738 -8.12028,-26.75641 c -0.1931,-0.64773 -0.74262,-1.12552 -1.41462,-1.23918 -1.99834,-0.32331 -3.76496,-0.4811 -5.24138,-0.4811 -1.47972,0 -3.24634,0.15779 -5.25683,0.4811 -0.66317,0.11476 -1.20937,0.59145 -1.41131,1.23918 l -7.92165,26.10538 -53.665105,11.94041 -21.267862,-14.89766 -4.197517,-33.91227 c 0.918069,-0.512 1.848276,-1.02731 2.78069,-1.54152 1.318621,-0.28358 2.799448,-0.58372 4.438069,-0.89489 l 3.950345,32.0011 c 0.05407,0.49655 0.334344,0.93903 0.744827,1.22593 l 14.635035,10.25324 c 0.29462,0.20304 0.655448,0.31779 1.008551,0.31779 0.131311,0 0.257104,-0.0177 0.395035,-0.0441 l 44.121379,-9.81628 c 0.15338,-0.0375 0.299035,-0.0916 0.44138,-0.1611 0.404965,-0.21959 0.731586,-0.59255 0.864,-1.056 l 7.951453,-26.15945 c 2.13075,-0.5451 7.59172,-1.8251 12.38841,-1.8251 4.78786,0 10.24772,1.28 12.384,1.8251 l 7.94593,26.15945 c 0.20303,0.67641 0.79779,1.16965 1.49628,1.25131 l 44.1291,5.01296 c 0.42372,0.0497 0.85958,-0.0673 1.21048,-0.31338 l 14.64055,-10.23448 c 0.39393,-0.28469 0.66538,-0.72717 0.73269,-1.20828 l 3.90842,-27.34455 c 2.93407,0.56166 5.38703,1.07697 7.31807,1.49297"
           fill="#6e6a67"
           id="path27" /><path
           d="m 215.088,114.34124 -3.79917,14.41104 c -7.76938,-1.71476 -24.8309,-5.07697 -48.05628,-7.34014 7.5851,-3.23531 15.31255,-7.28828 22.37352,-12.36635 13.81958,1.952 23.9669,4.04856 29.48193,5.29545"
           fill="#6e6a67"
           id="path28" /><path
           d="m 17.175724,114.34124 1.056,3.98897 c 2.956138,-2.35476 5.661793,-4.30455 7.944828,-5.86152 -3.720828,0.71393 -6.755311,1.36386 -9.000828,1.87255"
           fill="#6e6a67"
           id="path29" /><path
           d="m 166.18428,106.30372 c -5.81628,-0.32882 -11.62925,-0.608 -17.44883,-0.84855 -0.33435,0.49766 -1.0218,1.49738 -2.00497,2.84249 -3.11834,4.21848 -9.26455,11.90841 -17.14317,18.50593 5.92772,-1.87807 29.44331,-9.76662 41.35503,-20.20635 -1.58675,-0.10262 -3.17131,-0.20193 -4.75806,-0.29352"
           fill="#93232c"
           id="path30" /><path
           d="m 123.56579,104.76772 c 0.009,-0.002 0.0188,-0.003 0.0243,-0.006 -2.94952,-0.0386 -5.90235,-0.0695 -8.84745,-0.0817 h -0.006 c -4.33875,0.0121 -8.66758,0.0673 -13.00634,0.14235 l -8.000001,3.79255 c -0.01214,0 -0.06069,0.0276 -0.118069,0.0662 -1.203862,0.58482 -11.70538,5.88468 -21.59338,15.33903 0.865104,-0.45572 1.782069,-0.928 2.726621,-1.4069 5.408,-3.63365 19.831172,-12.23834 42.258759,-17.91007 2.18703,0.0132 4.37517,0.0265 6.5611,0.064"
           fill="#93232c"
           id="path31" /><path
           d="m 74.404966,105.73435 c -3.704276,0.17103 -7.409656,0.36082 -11.110621,0.57048 -4.291311,0.23945 -8.569379,0.52855 -12.844138,0.85076 -2.131862,0.16441 -4.267035,0.34648 -6.381242,0.56827 -0.613517,0.0596 -1.213793,0.1258 -1.815172,0.20304 -5.585655,3.33903 -26.963862,16.75917 -41.65186197,34.32386 0.25268966,-0.30455 0.51420687,-0.60579 0.77351727,-0.90704 C 28.567724,118.14483 58.38069,109.11421 74.404966,105.73435"
           fill="#93232c"
           id="path32" /><path
           d="m 197.42841,201.13959 c -0.1622,0.0839 -0.33544,0.17213 -0.48993,0.25269 -2.72772,1.43337 -6.30069,2.13517 -10.91862,2.13517 -2.74869,0 -5.44441,-0.23062 -8.43255,-0.50097 -5.96634,-0.5451 -16.06621,-1.73351 -16.16883,-1.75227 l -0.77241,-0.0817 -0.61131,-0.49214 c -0.0927,-0.0618 -8.93573,-7.11503 -16.08607,-12.736 -0.29131,-0.23613 -0.55393,-0.46124 -0.79338,-0.65103 -0.75476,-0.64441 -0.75476,-0.64441 -1.20386,-0.64441 -2.29517,0 -8.96221,2.07006 -23.56304,6.5931 l -0.896,0.2869 -0.88717,-0.33656 c -0.0993,-0.0254 -9.67834,-3.57738 -21.159723,-3.57738 -0.941241,0 -1.878069,0.0232 -2.79062,0.0684 -1.14869,0.0585 -7.601656,3.12496 -15.859863,16.17876 l -0.528551,0.84303 -0.951173,0.30345 c -0.136827,0.0452 -14.343724,4.62896 -29.41131,8.93793 l -0.972138,0.27586 -0.929103,-0.42924 c -0.09821,-0.0331 -5.981793,-2.76965 -11.589518,-5.34069 0.41269,0.192 0.82869,0.38069 1.242483,0.57269 5.536,4.77793 16.136828,13.96745 17.314207,15.24083 0.16331,0.18317 0.390621,0.40717 0.660966,0.66096 -0.273656,-0.30896 -0.538483,-0.62786 -0.798897,-0.94896 -0.0033,-0.002 -0.0066,-0.007 -0.0099,-0.01 l 0.0011,0.001 -0.0011,-0.001 c 2.443034,2.31614 5.168552,4.31669 8.146759,5.72469 1.486344,0.69848 3.044413,1.23917 4.627862,1.50179 0.798896,0.13131 1.57462,0.19641 2.383448,0.19641 0.818759,0 1.656276,-0.0243 2.491586,-0.0651 3.312552,-0.16993 6.654897,-0.42372 9.990621,-0.74703 3.329103,-0.30014 6.662621,-0.63338 9.989517,-1.03725 3.323586,-0.35751 6.646069,-0.77572 9.939862,-1.28662 1.650755,-0.24055 3.290485,-0.5131 4.892685,-0.86841 0.78676,-0.18538 1.60662,-0.39062 2.23007,-0.6709 0.56828,-0.27144 1.25793,-0.81875 1.86373,-1.33958 1.23917,-1.06704 2.43641,-2.25104 3.62151,-3.43062 1.18731,-1.17959 2.34483,-2.39228 3.50456,-3.62373 1.95089,-2.04248 3.62262,-4.21296 5.51172,-6.31614 0.24166,-0.26151 0.48883,-0.53958 0.73931,-0.80882 0,0.004 0,0.004 0.004,0.004 l 0.0221,0.0243 c 0.39393,0.28358 0.78676,0.57048 1.17186,0.87282 2.27311,1.6949 4.62125,3.52883 6.88442,5.11338 2.91862,2.05131 5.87365,4.10593 8.93131,5.81628 0.76248,0.42483 1.55145,0.82207 2.3051,1.07145 0.0971,0.0353 0.17876,0.053 0.2549,0.064 0.0552,0.0331 0.2571,0.0651 0.28027,0.0651 0.14787,0.0221 0.34759,0.032 0.53959,0.0452 0.41159,0.006 0.83752,-0.0132 1.26455,-0.0331 1.72469,-0.11917 3.47366,-0.37076 5.22373,-0.64441 3.49572,-0.54511 7.00027,-1.17407 10.48496,-1.87256 3.49131,-0.66758 6.97931,-1.38372 10.44524,-2.15503 3.48359,-0.7371 6.95173,-1.55145 10.39228,-2.41766 1.71145,-0.46124 3.424,-0.88606 4.95117,-1.61875 1.55917,-0.72607 3.0069,-1.72249 4.33986,-2.86456 2.68911,-2.29075 4.95118,-5.13103 6.82925,-8.224 -0.002,0.004 -0.002,0.007 -0.004,0.011 1.15311,-2.1429 1.90897,-4.05628 2.35255,-5.33517"
           fill="#93232c"
           id="path33" /><path
           d="m 132.24221,36.817379 h 6.14841 V 24.327448 H 93.431724 v 12.489931 h 6.148414 v -6.343724 h 12.713932 v 38.575448 h -5.23366 v 7.159173 h 17.69931 v -7.159173 h -5.23475 V 30.473655 h 12.71724 v 6.343724"
           fill="#93232c"
           id="path34" /><path
           d="m 178.76248,107.15007 c -0.01,-0.006 -0.021,-0.011 -0.0364,-0.011 -2.54676,-0.1931 -5.09242,-0.36744 -7.64028,-0.53296 -0.0474,-0.003 -0.0971,-0.006 -0.14565,-0.009 -11.91173,10.43973 -35.42621,18.32828 -41.35504,20.20635 -0.11476,0.0982 -0.22841,0.19641 -0.34317,0.29241 7.63255,-1.37379 19.03228,-4.09821 30.86455,-9.33738 5.81849,-2.57545 11.7418,-5.75669 17.376,-9.69048 0.43476,-0.30124 0.85628,-0.61683 1.28,-0.91807"
           fill="#731b2a"
           id="path35" /><path
           d="m 117.00469,104.70262 c -22.427587,5.67062 -36.850759,14.27531 -42.258759,17.90897 4.335448,-2.2069 9.473104,-4.64111 15.247448,-7.05876 0.02759,-0.011 0.05848,-0.0243 0.08717,-0.0364 0.587034,-0.24386 1.185103,-0.49103 1.785379,-0.736 0.196414,-0.0806 0.389517,-0.1611 0.587035,-0.23944 0.51862,-0.21076 1.043862,-0.41711 1.57131,-0.62787 0.293517,-0.11365 0.583724,-0.22951 0.879448,-0.34427 0.474483,-0.18538 0.953379,-0.37076 1.435586,-0.55504 0.360828,-0.13682 0.721655,-0.27476 1.086897,-0.41048 0.441379,-0.16883 0.887172,-0.33545 1.336276,-0.49986 0.418207,-0.15448 0.843034,-0.30786 1.26455,-0.46014 0.416,-0.15117 0.82869,-0.30014 1.248,-0.4491 0.47669,-0.16773 0.9578,-0.33435 1.44221,-0.50318 0.38179,-0.13131 0.76138,-0.26372 1.14538,-0.39503 0.56607,-0.1909 1.13655,-0.37959 1.70924,-0.56828 0.31559,-0.10372 0.62676,-0.20744 0.94345,-0.31117 0.896,-0.2902 1.80193,-0.5771 2.71338,-0.85627 1.98952,-0.61131 4.02317,-1.19394 6.08993,-1.75559 2.69462,-0.73159 5.4411,-1.41903 8.24717,-2.03807 -2.18593,-0.0364 -4.37407,-0.0496 -6.5611,-0.064"
           fill="#731b2a"
           id="path36" /><path
           d="M 74.404966,105.73435 C 58.38069,109.11421 28.567724,118.14483 1.3754483,141.34372 1.1161379,141.64497 0.85462069,141.9451 0.60193103,142.25076 14.424828,132.64193 38.185379,118.35669 67.559172,109.66703 c 0.946759,-0.27917 1.902345,-0.55282 2.861242,-0.82317 4.873931,-1.36827 9.902345,-2.5622 15.047724,-3.56193 -3.685517,0.13131 -7.374345,0.28359 -11.063172,0.45242"
           fill="#731b2a"
           id="path37" /><path
           d="m 202.72165,198.57848 c -0.0927,0.0419 -0.18537,0.085 -0.27806,0.128 -0.1898,0.0883 -0.37849,0.17655 -0.56387,0.26483 -0.15227,0.0695 -0.30013,0.14014 -0.45351,0.20966 -0.12028,0.0574 -0.24056,0.11475 -0.36414,0.17324 -0.18538,0.0883 -0.37186,0.17655 -0.55614,0.26482 -0.0761,0.0386 -0.15669,0.075 -0.23614,0.11587 -0.21076,0.10041 -0.41931,0.19751 -0.62234,0.29793 -0.0452,0.0232 -0.0916,0.0452 -0.13793,0.0684 -0.2229,0.10924 -0.44469,0.21628 -0.65986,0.32331 -0.0232,0.0121 -0.0453,0.0221 -0.0684,0.0331 -0.47779,0.23614 -0.93021,0.46456 -1.35283,0.68083 -0.44358,1.27559 -1.20165,3.19228 -2.35476,5.33076 -0.002,0.002 -0.004,0.007 -0.004,0.009 0.004,-0.007 0.009,-0.0132 0.009,-0.0132 -0.004,0.007 -0.009,0.011 -0.0121,0.0188 -1.87586,3.07972 -4.13462,5.91227 -6.81821,8.19972 -1.33296,1.14317 -2.78179,2.13848 -4.33875,2.86455 -1.53049,0.73269 -3.24194,1.15752 -4.95228,1.61876 -3.44055,0.86621 -6.90759,1.68055 -10.39228,2.41766 -3.46482,0.77131 -6.95282,1.48744 -10.44413,2.15503 -3.4858,0.70069 -6.98925,1.32855 -10.48718,1.87255 -1.74896,0.27366 -3.49682,0.52524 -5.22262,0.64442 -0.42814,0.0221 -0.85186,0.0375 -1.26345,0.0331 -0.1931,-0.011 -0.39282,-0.0232 -0.54179,-0.0452 -0.0221,0 -0.224,-0.0309 -0.27807,-0.0651 -0.0772,-0.01 -0.16,-0.0276 -0.256,-0.0651 -0.75476,-0.24607 -1.54152,-0.64662 -2.3051,-1.07034 -3.05655,-1.71145 -6.01269,-3.76497 -8.93242,-5.81518 -2.25986,-1.58565 -4.6113,-3.41958 -6.8833,-5.11558 l -0.19863,0.28138 0.0143,0.0143 c 0.14124,0.128 0.28359,0.24607 0.42483,0.37076 -0.003,-0.002 -0.006,-0.004 -0.01,-0.007 -0.10373,-0.0772 -0.20304,-0.15338 -0.29904,-0.224 l 1.90455,2.272 c 0.006,0.008 0.0772,0.0949 0.21738,0.25821 0.97214,1.14207 5.03945,5.86151 9.87035,10.65269 3.67669,3.64579 8.11255,5.48634 13.20165,5.48634 1.73683,0 3.56304,-0.22841 5.408,-0.66648 1.70593,-0.41931 3.56304,-0.8618 5.46538,-1.32193 5.64083,-1.3418 11.88966,-2.83807 16.03752,-3.91504 0.27586,-0.0739 0.5451,-0.14234 0.80331,-0.21186 0.58703,-0.15448 1.1189,-0.29683 1.59448,-0.42814 0.74814,-0.21407 1.57352,-0.40827 2.45076,-0.60579 5.03062,-1.16635 11.90952,-2.76304 15.5531,-10.06566 1.00856,-2.01379 2.1429,-4.24275 3.31035,-6.51586 1.62427,-3.15917 3.31255,-6.40552 4.81324,-9.27227 0.23834,-0.45462 0.47559,-0.90704 0.704,-1.34069 0,-0.002 0.002,-0.002 0.002,-0.002 0.12138,-0.23283 0.24496,-0.46786 0.36193,-0.69186 -0.28249,0.1302 -0.57159,0.26483 -0.85849,0.39834"
           fill="#731b2a"
           id="path38" /><path
           d="m 120.34262,214.33241 -0.32662,-0.31007 c -1.8891,2.10318 -3.56303,4.27366 -5.51172,6.31725 -1.15973,1.23144 -2.31725,2.44413 -3.50456,3.62372 -1.1851,1.17959 -2.38234,2.3669 -3.62151,3.43062 -0.6069,0.52083 -1.29656,1.06814 -1.86373,1.33848 -0.62234,0.28138 -1.44331,0.48662 -2.23007,0.672 -1.6011,0.35531 -3.24193,0.62787 -4.892686,0.86842 -3.292689,0.51089 -6.616276,0.93131 -9.939862,1.28662 -3.326896,0.40386 -6.660414,0.7371 -9.989517,1.03614 -3.334621,0.32331 -6.678069,0.5771 -9.990621,0.74924 -0.83531,0.0386 -1.672827,0.064 -2.491586,0.064 -0.808828,0 -1.585655,-0.064 -2.383448,-0.19642 -1.584552,-0.26262 -3.142621,-0.80441 -4.627862,-1.50179 -2.977104,-1.408 -5.702621,-3.40965 -8.145656,-5.72359 0.0022,0.001 0.0055,0.006 0.0088,0.008 0.329931,0.40607 0.692965,0.78676 1.039448,1.17407 -0.08386,-0.0772 -0.16331,-0.15338 -0.241655,-0.22621 -0.269241,-0.25269 -0.496552,-0.47669 -0.660965,-0.65986 -1.17738,-1.27448 -11.779311,-10.4629 -17.314207,-15.24083 -0.413793,-0.1931 -0.829793,-0.38069 -1.242483,-0.57269 0.980965,1.45214 2.054621,3.02566 3.170207,4.63117 1.620965,2.3349 3.328,4.7349 4.99862,6.99145 0.755863,1.01959 1.506207,2.01269 2.232276,2.94621 6.017104,7.7429 13.591173,14.89765 28.125794,14.89765 1.819586,0 3.757241,-0.11144 5.744551,-0.33655 0.463449,-0.0508 0.913655,-0.10262 1.356138,-0.15558 0.425931,-0.0474 0.845242,-0.0949 1.25131,-0.14235 12.638897,-1.45324 16.105931,-2.07338 18.030345,-2.40552 0.497655,-0.0861 0.922483,-0.1611 1.382621,-0.22841 0.178759,-0.0254 0.361931,-0.0541 0.556138,-0.0794 0.07062,-0.007 4.34427,-0.55614 8.52193,-2.58869 2.88,-1.39807 5.71145,-3.50014 7.09738,-6.60745 3.49793,-7.82455 4.20855,-9.69489 4.23614,-9.76441 l 1.22703,-3.2949"
           fill="#731b2a"
           id="path39" /><path
           d="m 154.58152,143.28248 c 1.54593,-0.0331 2.77517,-1.30538 2.74869,-2.85131 -0.0232,-1.54703 -1.30097,-2.78289 -2.85352,-2.74869 -1.54483,0.0276 -2.77628,1.30538 -2.74428,2.85131 0.0232,1.54152 1.30318,2.77628 2.84911,2.74869 z m 17.22151,12.61242 c -3.69765,-1.78649 -7.73958,0.47558 -15.10179,0.61351 -5.48193,0.19531 -10.07669,0.2549 -10.37793,-8.34427 -0.30345,-8.61793 3.20221,-15.73959 8.68414,-15.92938 5.47641,-0.19311 10.47724,6.63393 11.15034,15.22427 0.18538,2.37021 -0.0772,4.09711 -0.66317,5.37711 5.09241,-0.608 6.25324,2.8502 6.30841,3.05876 z"
           fill="#0e0f0d"
           id="path40" /><path
           d="m 76.092138,145.35917 c 1.540414,-0.0386 2.760827,-1.32855 2.722207,-2.86896 -0.04304,-1.55256 -1.335173,-2.77076 -2.874483,-2.72773 -1.552552,0.0331 -2.770759,1.32855 -2.732138,2.87007 0.04193,1.55145 1.330759,2.77076 2.884414,2.72662 z m 8.463448,4.50759 c 0.08165,8.60579 -4.475586,8.08827 -9.960827,8.14234 -0.557242,0.0177 -1.08138,0.0254 -1.607725,0.0254 -0.61131,0.0165 -1.201655,0.0232 -1.768827,0.0121 -5.324138,-0.0121 -8.722759,-0.25048 -11.734069,1.376 0.07062,-0.18538 1.393655,-3.14041 6.170483,-4.34427 -0.527449,-1.16304 -0.858483,-2.7818 -0.945655,-5.0207 -0.328828,-8.60137 4.977655,-15.65572 10.458482,-15.70537 5.480828,-0.0541 9.306483,6.90758 9.388138,15.51448 v 0 z"
           fill="#0e0f0d"
           id="path41" /><path
           d="m 188.35365,90.687724 c -0.0585,0.756966 -0.11475,1.295448 -0.14896,1.586759 -2.16276,-0.588138 -4.34648,-1.125517 -6.54566,-1.639724 -7.24082,-1.590069 -14.56882,-2.769656 -21.93434,-3.611587 -0.25379,-0.032 -0.5131,-0.04966 -0.77241,-0.08165 0.0496,-0.109241 0.0949,-0.218483 0.128,-0.327724 0.21958,-0.80331 0.41158,-1.608828 0.59475,-2.414345 1.89794,-8.400551 1.79862,-16.766896 1.58456,-20.815448 l 26.19034,7.447172 c 1.42676,9.306483 1.1509,16.608 0.90372,19.856552 v 0 z m -32.576,-4.987586 c -0.0872,0.300138 -0.0761,0.612414 0,0.902621 -2.74206,-0.290207 -5.48634,-0.536276 -8.22841,-0.759173 3.07531,-6.450758 3.74731,-13.318621 3.89738,-15.739586 2.36469,-1.677241 4.71393,-3.694345 6.44083,-5.262345 0.15779,4.622345 0.0441,13.010759 -2.1098,20.858483 z m -80.696271,0.886069 c 0.07393,-0.278069 0.07945,-0.585931 0,-0.886069 -2.149517,-7.83669 -2.264276,-16.224 -2.116413,-20.858483 1.732413,1.568 4.077241,3.585104 6.448551,5.262345 0.143449,2.419862 0.815448,9.272276 3.890759,15.723034 -2.743173,0.216276 -5.485242,0.468966 -8.222897,0.759173 z m -3.955862,0.431448 c -3.673379,0.448 -7.351172,0.911448 -11.01131,1.518345 -3.650207,0.624552 -7.301517,1.288828 -10.919724,2.093241 -2.195862,0.509793 -4.370759,1.050483 -6.547862,1.638621 -0.01986,-0.172138 -0.04635,-0.436965 -0.07724,-0.777931 C 42.31669,88.790897 41.838897,81.013793 43.406897,70.827862 L 69.590621,63.38069 c -0.197518,3.897379 -0.304552,11.794758 1.378207,19.870896 0.233931,1.121104 0.499862,2.243311 0.80662,3.36 0.0331,0.109242 0.07724,0.218483 0.125793,0.317793 -0.263724,0.0331 -0.51531,0.05517 -0.775724,0.08828 v 0 z M 202.39062,97.592 c -0.2229,-0.107034 -0.44248,-0.216276 -0.65324,-0.32 -0.32441,-0.155586 -0.68304,-0.334345 -1.09462,-0.534069 -0.0254,-0.01214 -0.0419,-0.02097 -0.0419,-0.02097 -0.23283,-0.113655 -0.46235,-0.244965 -0.68745,-0.389517 -2.42317,-1.12 -4.96331,-1.98731 -7.49904,-2.81931 -0.30013,-0.09821 -0.59586,-0.186483 -0.896,-0.273655 0.0221,-0.07503 0.0441,-0.15338 0.0563,-0.229518 0.0375,-0.286896 0.68855,-5.103448 0.29572,-12.694068 -0.16662,-3.241931 -0.52524,-6.989242 -1.20386,-11.108414 -0.10924,-0.657655 -0.58924,-1.190621 -1.22262,-1.37269 l -3.73296,-1.056 c -0.80331,-28.886069 -12.69628,-42.46069 -13.06814,-42.881103 10.624,17.100138 10.53131,37.37931 10.34593,42.105379 L 159.84497,59.41931 c -0.0166,0 -0.032,0 -0.0541,-0.0099 -0.0938,-0.02317 -0.19862,-0.03421 -0.29683,-0.04414 -0.0221,0 -0.0474,-0.0044 -0.085,-0.0044 -0.12027,-0.0066 -0.25269,0.0044 -0.37848,0.032 -0.0177,0 -0.0375,0.01765 -0.0618,0.01765 -0.10262,0.02097 -0.19642,0.05407 -0.29904,0.10262 -0.0364,0.01655 -0.0695,0.03972 -0.10262,0.04966 -0.0783,0.05297 -0.15448,0.0971 -0.23062,0.152276 -0.0165,0.01214 -0.0386,0.02207 -0.0552,0.03752 -0.0232,0.01655 -0.0309,0.0331 -0.0441,0.04414 -0.0221,0.02317 -0.0486,0.03862 -0.0662,0.05517 -0.0221,0.02317 -0.64551,0.633379 -1.61324,1.547035 0.0684,-2.164966 0.085,-5.477518 -0.1611,-9.522759 -0.0243,-0.384 -0.0486,-0.773517 -0.075,-1.167448 -0.72717,-10.162759 -3.12937,-24.438069 -10.30841,-36.934621 0.0618,0.179862 0.77131,2.253241 1.68938,5.745655 2.31062,8.786759 5.94869,26.568828 3.96579,45.865931 -0.01,0.08828 -0.0165,0.175448 -0.0254,0.264828 -0.0298,0.02428 -0.0629,0.04745 -0.0938,0.07172 -0.90483,0.718345 -1.82841,1.419034 -2.74317,2.036965 -0.45793,0.317793 -0.74373,0.835311 -0.75476,1.393656 0,0.08717 -0.20303,8.713931 -4.00993,16.059586 -0.0684,0.120276 -0.10373,0.241655 -0.14235,0.366345 -9.47641,-0.648828 -18.97931,-0.926897 -28.47227,-0.933518 -9.48635,0.0055 -18.995863,0.267035 -28.477795,0.911449 -0.03752,-0.114759 -0.07614,-0.235035 -0.13131,-0.344276 C 83.004138,77.866759 82.807724,69.24 82.802207,69.152828 82.792276,68.594483 82.512,68.075862 82.054069,67.759172 81.108414,67.119172 80.135172,66.394207 79.204965,65.649379 77.279448,47.292414 80.457379,30.281655 82.770207,21.025931 83.868138,16.632 84.774069,13.976 84.845793,13.772966 74.429241,31.89931 74.068414,53.769655 74.299035,61.397793 c -0.98538,-0.913655 -1.595587,-1.522759 -1.612138,-1.547034 -0.01766,-0.01655 -0.04966,-0.032 -0.07173,-0.05517 -0.01103,-0.01103 -0.02207,-0.02759 -0.03752,-0.04414 -0.01765,-0.01545 -0.03862,-0.02538 -0.06069,-0.03752 -0.07614,-0.05517 -0.154482,-0.09931 -0.23062,-0.141241 -0.03752,-0.02097 -0.0651,-0.04414 -0.109242,-0.06069 -0.09931,-0.04855 -0.184275,-0.08165 -0.283586,-0.09269 -0.02759,-0.0099 -0.04855,-0.02759 -0.06621,-0.02759 -0.13131,-0.02648 -0.26262,-0.03862 -0.384,-0.032 -0.032,0 -0.06621,0.0044 -0.09821,0.0044 -0.09379,0.0099 -0.185379,0.02097 -0.283586,0.04414 -0.02207,0.0099 -0.0331,0.0099 -0.05517,0.0099 L 47.869241,65.996966 C 47.682759,61.269793 47.583448,40.990621 58.207448,23.891586 57.838897,24.31531 45.948138,37.889931 45.13931,66.776 L 41.424,67.830897 c -0.649931,0.182069 -1.126621,0.715034 -1.233655,1.373793 -0.678621,4.113655 -1.035035,7.856551 -1.204966,11.095172 -0.392827,7.599448 0.259311,12.420414 0.301242,12.70731 0.01766,0.07614 0.03862,0.148966 0.05076,0.225104 -0.296827,0.09159 -0.601379,0.179862 -0.897103,0.272552 -2.540138,0.832 -5.089104,1.703724 -7.514483,2.828137 -0.222896,0.142345 -0.45131,0.273656 -0.684138,0.386207 0,0 -0.01545,0.0077 -0.03752,0.02097 -0.41269,0.199724 -0.772414,0.377379 -1.095724,0.534069 -0.184276,0.09048 -0.378483,0.184276 -0.56938,0.278069 -0.120275,0.06952 -0.243862,0.130207 -0.361931,0.200827 1.716966,-0.674206 3.492414,-1.166344 5.266759,-1.602206 1.782069,-0.443587 3.575172,-0.836414 5.366069,-1.176276 3.602759,-0.669793 7.214345,-1.251311 10.848,-1.693793 3.623724,-0.475587 7.262897,-0.868414 10.907586,-1.174069 3.646897,-0.311173 7.286069,-0.617931 10.94069,-0.82869 14.612965,-0.865104 29.263454,-1.137655 43.920554,-1.143172 14.66041,0.01103 29.30979,0.239448 43.92055,1.137655 3.65572,0.211862 7.2949,0.516414 10.94621,0.825379 3.65131,0.310069 7.27724,0.708414 10.90096,1.184 3.63476,0.436966 7.25297,1.016276 10.84911,1.689379 1.79641,0.34538 3.5862,0.726069 5.35944,1.179587 1.78759,0.436965 3.55421,0.929103 5.27449,1.60331 -0.096,-0.05848 -0.19311,-0.108138 -0.2869,-0.162207 v 0 z"
           fill="#0e0f0d"
           id="path42" /><path
           d="m 119.52497,30.473655 v 38.575448 h 5.23475 v 7.159173 h -17.69931 v -7.159173 h 5.23366 V 30.473655 H 99.580138 v 6.344828 h -6.14731 V 24.327448 h 44.957792 v 12.489931 h -6.14731 v -6.344827 h -12.71834 v 0.0011 z m 23.49462,10.962759 V 19.702897 H 88.814897 V 41.436414 H 104.208 v -6.344828 h 3.45821 v 29.329655 h -5.22262 V 80.82069 h 26.93958 V 64.421241 H 124.144 V 35.091586 h 3.47145 v 6.344828 z"
           fill="#0e0f0d"
           id="path43" /></g></g></g></svg>
