<?xml version="1.0" encoding="UTF-8" standalone="no"?>
<!-- Created with Inkscape (http://www.inkscape.org/) -->

<svg
   width="512"
   height="512"
   viewBox="0 0 512 512"
   version="1.1"
   id="svg1"
   xml:space="preserve"
   inkscape:version="1.4.2 (f4327f4, 2025-05-13)"
   sodipodi:docname="vivaldi.svg"
   xmlns:inkscape="http://www.inkscape.org/namespaces/inkscape"
   xmlns:sodipodi="http://sodipodi.sourceforge.net/DTD/sodipodi-0.dtd"
   xmlns="http://www.w3.org/2000/svg"
   xmlns:svg="http://www.w3.org/2000/svg"><sodipodi:namedview
     id="namedview1"
     pagecolor="#ffffff"
     bordercolor="#999999"
     borderopacity="1"
     inkscape:showpageshadow="2"
     inkscape:pageopacity="0"
     inkscape:pagecheckerboard="0"
     inkscape:deskcolor="#d1d1d1"
     inkscape:document-units="px"
     showgrid="false"
     inkscape:zoom="1"
     inkscape:cx="313"
     inkscape:cy="277.5"
     inkscape:window-width="1920"
     inkscape:window-height="1001"
     inkscape:window-x="-9"
     inkscape:window-y="-9"
     inkscape:window-maximized="1"
     inkscape:current-layer="layer1"><inkscape:grid
       id="grid1"
       units="mm"
       originx="0"
       originy="0"
       spacingx="1"
       spacingy="1"
       empcolor="#0099e5"
       empopacity="0.30196078"
       color="#0099e5"
       opacity="0.14902"
       empspacing="5"
       enabled="true"
       visible="false" /></sodipodi:namedview><defs
     id="defs1"><inkscape:path-effect
       effect="fillet_chamfer"
       id="path-effect1"
       is_visible="true"
       lpeversion="1"
       nodesatellites_param="F,0,0,1,0,2.2572315,0,1 @ F,0,0,1,0,2.608162,0,1 @ F,0,0,1,0,2.5997618,0,1 @ F,0,0,1,0,3.0078049,0,1 @ F,0,0,1,0,2.2522004,0,1 @ F,0,0,1,0,2.8010871,0,1"
       radius="0"
       unit="px"
       method="auto"
       mode="F"
       chamfer_steps="1"
       flexible="false"
       use_knot_distance="true"
       apply_no_radius="true"
       apply_with_radius="true"
       only_selected="false"
       hide_knots="false" /><style
       id="style1">.cls-1{fill:#ef3939;}.cls-2{fill:url(#linear-gradient);}.cls-3{fill:#fff;}</style><linearGradient
       id="linear-gradient"
       x1="-27.12"
       y1="483.07"
       x2="-26.57"
       y2="482.13"
       gradientTransform="matrix(397.77,0,0,-396.34,10928.3,191538.55)"
       gradientUnits="userSpaceOnUse"><stop
         offset="0"
         stop-opacity="0.2"
         id="stop1" /><stop
         offset="0.79"
         stop-opacity="0.05"
         id="stop2" /></linearGradient></defs><g
     inkscape:label="Layer 1"
     inkscape:groupmode="layer"
     id="layer1"><circle
       style="fill:#f2f2f2;fill-opacity:1;stroke:#afafaf;stroke-width:8;stroke-dasharray:none;stroke-opacity:1"
       id="path1"
       inkscape:label="background"
       cx="256.00003"
       cy="256.00006"
       r="241.31339" /><g
       id="g1"
       transform="matrix(0.74090407,0,0,0.74090407,87.370234,88.000002)"><path
         class="cls-1"
         d="m 227.6,453.5 c 99.7,0 155.1,0 191.4,-36.1 36.3,-36.1 36.2,-91.3 36.2,-190.7 C 455.2,127.3 455.2,72.1 419,36 382.8,-0.1 327.3,0 227.6,0 127.9,0 72.5,0 36.2,36.1 -0.1,72.2 0,127.4 0,226.8 c 0,99.4 0,154.6 36.2,190.7 36.2,36.1 91.7,36 191.4,36 z"
         id="path2" /><path
         class="cls-2"
         d="M 375.6,142.9 A 170.38,170.38 0 0 0 271.4,62.8 C 180.3,38.5 86.7,92.3 62.3,183 a 168.61,168.61 0 0 0 17.5,129.7 14,14 0 0 0 1,1.6 L 161,452.8 c 13.3,0.4 27.7,0.5 43.2,0.5 h 22.6 c 44.3,0 79.9,0 109,-3.2 36.3,-4 62.3,-12.9 82.4,-32.9 29.3,-29.2 34.9,-71 36,-138.7 C 407.4,197.7 375.7,143 375.6,142.9 Z"
         id="path3"
         style="fill:url(#linear-gradient)" /><path
         class="cls-3"
         d="m 347.4,106.8 c -66.5,-66.4 -174.4,-66.4 -241,0 -66.6,66.4 -66.5,174 0,240.3 66.5,66.3 174.4,66.4 241,0 a 169.48,169.48 0 0 0 0,-240.3 z m -10.2,78.1 q -42.15,73 -84.3,146.2 c -5.2,9.1 -12.8,14.5 -23.2,15.3 -11.6,0.8 -20.8,-4.1 -26.7,-14.1 -17.8,-30.5 -35.4,-61.2 -53,-91.8 -10.7,-18.6 -21.5,-37.2 -32.2,-55.9 -10.7,-18.7 1.4,-41.7 23,-42.8 11.4,-0.6 20.2,4.7 26,14.6 7.9,13.5 15.7,27.2 23.6,40.8 5.7,9.8 11.2,19.7 17,29.3 8.4,14.1 20.8,22 37.3,23 a 45.42,45.42 0 0 0 47.8,-40.2 c 0.2,-1.8 0.3,-3.7 0.4,-4.6 a 46.5,46.5 0 0 0 -4.8,-21.1 c -8.7,-17.4 0.6,-36.9 19.5,-41.1 15.4,-3.4 31.4,7.9 33.4,23.5 a 28.54,28.54 0 0 1 -3.8,18.9 z"
         id="path4" /></g></g></svg>
