<?xml version="1.0" encoding="UTF-8" standalone="no"?>
<!-- Created with Inkscape (http://www.inkscape.org/) -->

<svg
   width="512"
   height="512"
   viewBox="0 0 512 512"
   version="1.1"
   id="svg1"
   xml:space="preserve"
   xmlns="http://www.w3.org/2000/svg"
   xmlns:svg="http://www.w3.org/2000/svg"><defs
     id="defs1"><linearGradient
       x1="98.801815"
       y1="4.9311405"
       x2="170.28694"
       y2="225.99824"
       id="linearGradient-1"
       gradientTransform="scale(0.92690611,1.0788579)"
       gradientUnits="userSpaceOnUse"><stop
         stop-color="#00CDD7"
         offset="28%"
         id="stop1" /><stop
         stop-color="#2086D7"
         offset="94%"
         id="stop2" /></linearGradient><linearGradient
       x1="126.45254"
       y1="31.659294"
       x2="252.83742"
       y2="177.39845"
       id="linearGradient-2"
       gradientTransform="scale(0.88681491,1.127631)"
       gradientUnits="userSpaceOnUse"><stop
         stop-color="#FFF045"
         offset="14%"
         id="stop3" /><stop
         stop-color="#00CDD7"
         offset="37%"
         id="stop4" /></linearGradient><linearGradient
       x1="7405.4399"
       y1="-17693.952"
       x2="7876.48"
       y2="-18377.36"
       id="linearGradient-3"
       gradientTransform="scale(0.8,1.25)"
       gradientUnits="userSpaceOnUse"><stop
         stop-color="#00CDD7"
         offset="28%"
         id="stop5" /><stop
         stop-color="#2086D7"
         offset="94%"
         id="stop6" /></linearGradient></defs><g
     id="layer1"><circle
       style="fill:#f2f2f2;fill-opacity:1;stroke:#afafaf;stroke-width:8;stroke-dasharray:none;stroke-opacity:1"
       id="path1"
       cx="256.00003"
       cy="256.00006"
       r="241.31339" /><g
       id="g8"
       transform="matrix(1.3125,0,0,1.3125,88,88)"><polygon
         fill="url(#linearGradient-1)"
         points="219.6,34.4 176,256 34.4,231.2 0,26.8 64,0.4 104.4,24.4 142,4.4 "
         id="polygon6"
         style="fill:url(#linearGradient-1)" /><polygon
         fill="url(#linearGradient-2)"
         points="142,236 256,168.4 228,116 256,86.8 222.8,5.2 163.2,0 70.4,88.8 95.2,203.6 "
         id="polygon7"
         style="fill:url(#linearGradient-2)" /><polygon
         fill="url(#linearGradient-3)"
         points="228,116 256,86.8 235.6,36 204.8,74.4 "
         id="polygon8"
         style="fill:url(#linearGradient-3)" /><rect
         fill="#000000"
         x="48"
         y="48"
         width="160"
         height="160"
         id="rect8" /><path
         d="m 63.2,178 h 60 v 10 h -60 z m 78.4,-52.4 8.4,-10.4 c 6,4.8 12,8 19.6,8 6,0 9.6,-2.4 9.6,-6.4 0,-3.6 -2.4,-5.6 -13.2,-8.4 -13.2,-3.6 -21.6,-7.2 -21.6,-20.4 v -0.4 c 0,-12 9.6,-20 22.8,-20 8.84879,-0.03722 17.44933,2.923624 24.4,8.4 L 184,87.2 c -4.82919,-3.773876 -10.68391,-6.004247 -16.8,-6.4 -5.2,0 -8.4,2.4 -8.4,6 0,4.4 2.8,6 14,8.8 13.2,3.6 20.8,8.4 20.8,20 0,13.2 -10,20.8 -24,20.8 -10.27636,-0.37777 -20.1317,-4.17912 -28,-10.8 z m -12.8,-56.8 -10,38.4 -11.2,-38.4 H 96.4 L 85.2,107.2 75.2,68.8 H 59.6 l 19.2,66.4 h 12.4 l 10.8,-38.4 10.8,38.4 h 12.4 l 19.2,-66.4 z"
         fill="#ffffff"
         id="path8" /></g></g></svg>
