<?xml version="1.0" encoding="UTF-8" standalone="no"?>
<!-- Created with Inkscape (http://www.inkscape.org/) -->

<svg
   width="512"
   height="512"
   viewBox="0 0 512 512"
   version="1.1"
   id="svg1"
   xml:space="preserve"
   inkscape:version="1.4.2 (f4327f4, 2025-05-13)"
   sodipodi:docname="windows.svg"
   xmlns:inkscape="http://www.inkscape.org/namespaces/inkscape"
   xmlns:sodipodi="http://sodipodi.sourceforge.net/DTD/sodipodi-0.dtd"
   xmlns="http://www.w3.org/2000/svg"
   xmlns:svg="http://www.w3.org/2000/svg"><sodipodi:namedview
     id="namedview1"
     pagecolor="#ffffff"
     bordercolor="#999999"
     borderopacity="1"
     inkscape:showpageshadow="2"
     inkscape:pageopacity="0"
     inkscape:pagecheckerboard="0"
     inkscape:deskcolor="#d1d1d1"
     inkscape:document-units="px"
     showgrid="false"
     inkscape:zoom="1"
     inkscape:cx="237"
     inkscape:cy="274.5"
     inkscape:window-width="1920"
     inkscape:window-height="1001"
     inkscape:window-x="-9"
     inkscape:window-y="-9"
     inkscape:window-maximized="1"
     inkscape:current-layer="layer1"><inkscape:grid
       id="grid1"
       units="mm"
       originx="0"
       originy="0"
       spacingx="1"
       spacingy="1"
       empcolor="#0099e5"
       empopacity="0.30196078"
       color="#0099e5"
       opacity="0.14901961"
       empspacing="5"
       enabled="true"
       visible="false" /></sodipodi:namedview><defs
     id="defs1"><inkscape:path-effect
       effect="fillet_chamfer"
       id="path-effect1"
       is_visible="true"
       lpeversion="1"
       nodesatellites_param="F,0,0,1,0,2.2572315,0,1 @ F,0,0,1,0,2.608162,0,1 @ F,0,0,1,0,2.5997618,0,1 @ F,0,0,1,0,3.0078049,0,1 @ F,0,0,1,0,2.2522004,0,1 @ F,0,0,1,0,2.8010871,0,1"
       radius="0"
       unit="px"
       method="auto"
       mode="F"
       chamfer_steps="1"
       flexible="false"
       use_knot_distance="true"
       apply_no_radius="true"
       apply_with_radius="true"
       only_selected="false"
       hide_knots="false" /></defs><g
     inkscape:label="Layer 1"
     inkscape:groupmode="layer"
     id="layer1"><circle
       style="fill:#f2f2f2;fill-opacity:1;stroke:#afafaf;stroke-width:8;stroke-dasharray:none;stroke-opacity:1"
       id="path1"
       inkscape:label="background"
       cx="256.00003"
       cy="256.00006"
       r="241.31339" /><g
       id="g1"
       transform="matrix(7.7777778,0,0,7.7777778,69.333333,69.333333)"><path
         fill="#0077d4"
         d="m 7,6 h 15 c 0.552,0 1,0.448 1,1 v 15 c 0,0.552 -0.448,1 -1,1 H 7 C 6.448,23 6,22.552 6,22 V 7 C 6,6.448 6.448,6 7,6 Z"
         id="path1-0" /><path
         fill="#0077d4"
         d="M 25.042,21.958 V 7 c 0,-0.552 0.448,-1 1,-1 H 41 c 0.552,0 1,0.448 1,1 v 14.958 c 0,0.552 -0.448,1 -1,1 H 26.042 c -0.553,0 -1,-0.447 -1,-1 z"
         id="path2" /><path
         fill="#0077d4"
         d="m 7,25 h 15 c 0.552,0 1,0.448 1,1 v 15 c 0,0.552 -0.448,1 -1,1 H 7 C 6.448,42 6,41.552 6,41 V 26 c 0,-0.552 0.448,-1 1,-1 z"
         id="path3" /><path
         fill="#0077d4"
         d="M 25,41 V 26 c 0,-0.552 0.448,-1 1,-1 h 15 c 0.552,0 1,0.448 1,1 v 15 c 0,0.552 -0.448,1 -1,1 H 26 c -0.552,0 -1,-0.448 -1,-1 z"
         id="path4"
         style="fill:#0085ee;fill-opacity:1" /></g></g></svg>
