<?xml version="1.0" encoding="UTF-8" standalone="no"?>
<!-- Created with Inkscape (http://www.inkscape.org/) -->

<svg
   width="512"
   height="512"
   viewBox="0 0 512 512"
   version="1.1"
   id="svg1"
   xml:space="preserve"
   xmlns:xlink="http://www.w3.org/1999/xlink"
   xmlns="http://www.w3.org/2000/svg"
   xmlns:svg="http://www.w3.org/2000/svg"><defs
     id="defs1"><linearGradient
       id="linearGradient1"><stop
         style="stop-color:#1bb4ee;stop-opacity:1;"
         offset="0.14154653"
         id="stop1" /><stop
         style="stop-color:#1664e2;stop-opacity:1;"
         offset="1"
         id="stop2" /></linearGradient><linearGradient
       xlink:href="#linearGradient1"
       id="linearGradient2"
       x1="41.444118"
       y1="137.06975"
       x2="470.55591"
       y2="374.9303"
       gradientUnits="userSpaceOnUse" /></defs><g
     id="layer1"><circle
       style="fill:url(#linearGradient2);fill-opacity:1;stroke:#afafaf;stroke-width:8;stroke-dasharray:none;stroke-opacity:1"
       id="path1"
       cx="256.00003"
       cy="256.00006"
       r="241.31339" /><g
       style="fill:#ffffff"
       id="g1"
       transform="matrix(11.209557,0,0,11.209557,80.736764,76.555048)"><path
         d="m 6.759,23.232 c 0,-0.081 0.968,-1.774 0.968,-1.774 0.207,-0.073 0.446,-0.115 0.694,-0.115 0.657,0 1.246,0.294 1.642,0.757 l 0.002,0.003 C 9.598,22.95 9.144,23.662 8.651,24.343 L 8.694,24.28 c -0.217,0.219 -0.518,0.355 -0.851,0.355 -0.099,0 -0.194,-0.012 -0.286,-0.034 l 0.008,0.002 C 7.071,24.511 6.703,24.083 6.703,23.57 c 0,-0.121 0.02,-0.237 0.058,-0.345 z M 3.291,9.765 v 13.548 c 0.022,2.441 1.995,4.413 4.433,4.435 h 0.728 c 0,-0.081 0.968,-1.774 3.064,-5.322 0.242,-0.484 0.564,-0.968 0.887,-1.532 H 6.516 c -0.02,0.001 -0.044,0.002 -0.068,0.002 -0.548,0 -1.008,-0.374 -1.14,-0.881 L 5.306,20.007 C 5.28,19.916 5.265,19.812 5.265,19.704 c 0,-0.635 0.514,-1.149 1.149,-1.149 0.007,0 0.014,0 0.022,0 H 6.435 9.419 l 3.79,-6.613 c 0,0 -0.887,-1.613 -1.129,-2.016 -0.111,-0.177 -0.177,-0.392 -0.177,-0.623 0,-0.323 0.129,-0.615 0.339,-0.829 v 0 c 0.484,-0.484 1.29,-0.726 2.097,0.564 l 0.323,0.484 0.323,-0.484 c 0.726,-1.048 1.21,-0.968 1.613,-0.887 0.645,0.161 1.048,0.887 0.484,2.016 l -5,8.387 h 1.694 c 0.564,-0.968 1.129,-1.935 1.694,-2.984 -0.068,-0.258 -0.107,-0.554 -0.107,-0.859 0,-0.152 0.01,-0.302 0.029,-0.449 l -0.002,0.017 c 0.107,-0.658 0.395,-1.236 0.809,-1.697 l -0.003,0.003 0.484,0.806 c 0.984,-1.606 1.982,-3.512 2.856,-5.484 L 19.663,7.585 C 19.822,7.167 19.915,6.683 19.915,6.178 19.915,5.877 19.882,5.583 19.82,5.3 l 0.005,0.027 H 7.729 c -0.004,0 -0.008,0 -0.013,0 -2.443,0 -4.423,1.98 -4.423,4.423 0,0.005 0,0.009 0,0.014 V 9.763 Z M 26.516,9.684 v 13.628 c 0,0.003 0,0.007 0,0.01 0,2.889 -2.342,5.231 -5.231,5.231 -0.004,0 -0.007,0 -0.011,0 h -5.403 c 0,0 -0.484,1.29 1.048,1.29 h 4.838 c 0.004,0 0.009,0 0.013,0 3.288,0 5.954,-2.666 5.954,-5.954 0,-0.005 0,-0.009 0,-0.014 V 23.876 12.022 C 27.805,10.893 26.837,10.167 26.515,9.683 Z M 8.049,28.554 H 7.646 c -0.003,0 -0.007,0 -0.01,0 -2.889,0 -5.231,-2.342 -5.231,-5.231 0,-0.004 0,-0.007 0,-0.011 V 23.313 9.765 c 0,-0.003 0,-0.007 0,-0.01 0,-2.889 2.342,-5.231 5.231,-5.231 0.004,0 0.007,0 0.011,0 H 19.339 C 18.811,4.163 18.158,3.947 17.455,3.947 c -0.103,0 -0.205,0.005 -0.306,0.014 L 17.162,3.96 c -0.169,0.032 -0.363,0.051 -0.561,0.051 -0.407,0 -0.796,-0.078 -1.153,-0.22 l 0.021,0.007 C 14.985,3.395 15.066,3.153 14.34,3.153 H 7.163 c -0.004,0 -0.009,0 -0.014,0 -3.288,0 -5.954,2.666 -5.954,5.954 0,0.005 0,0.009 0,0.014 V 9.12 23.797 c -0.001,0.04 -0.002,0.087 -0.002,0.135 0,3.112 2.47,5.647 5.556,5.752 h 0.01 c 0.806,0 1.048,-0.645 1.29,-1.129 z m 12.258,-9.999 h 1.935 c 1.29,0 1.532,0.645 1.532,0.887 0.081,0.645 -0.242,1.452 -1.532,1.452 h -1.21 L 22,22.507 c 0.564,0.968 0.323,1.452 0,1.774 -0.228,0.189 -0.524,0.303 -0.847,0.303 -0.569,0 -1.055,-0.357 -1.247,-0.859 l -0.003,-0.009 -1.129,-1.935 c -0.806,1.774 -1.613,3.709 -2.581,5.967 h 5 c 2.441,-0.022 4.413,-1.995 4.435,-4.433 V 9.201 c -0.081,-0.161 -0.242,-0.081 -0.323,0 -1.887,2.697 -3.566,5.777 -4.887,9.04 l -0.112,0.314 z M 24.823,7.668 c 0.307,-0.166 0.671,-0.264 1.059,-0.264 0.11,0 0.218,0.008 0.324,0.023 L 26.194,7.426 c 0.497,0.171 0.91,0.48 1.205,0.88 l 0.005,0.007 c 0.372,0.505 0.9,0.876 1.513,1.044 l 0.02,0.005 c 0.323,0.081 0.887,-0.806 1.29,-1.613 0.337,-0.553 0.544,-1.218 0.564,-1.93 V 5.813 C 30.395,5.459 29.903,5.203 29.359,5.091 l -0.02,-0.003 c -0.227,0.06 -0.487,0.095 -0.756,0.095 -0.103,0 -0.205,-0.005 -0.305,-0.015 l 0.013,10e-4 C 27.666,4.951 27.16,4.523 26.846,3.972 L 26.839,3.959 C 26.282,3.248 25.581,2.676 24.777,2.281 L 24.742,2.266 C 23.995,1.901 23.128,1.62 22.218,1.467 L 22.162,1.459 C 21.26,1.181 20.223,1.021 19.149,1.021 c -0.302,0 -0.601,0.013 -0.897,0.037 l 0.039,-0.003 c -0.825,0.054 -1.595,0.198 -2.33,0.422 l 0.072,-0.019 c -0.081,0 -0.242,0.242 -0.081,0.242 0.161,0 0.726,0.081 0.726,0.081 0,0 -0.726,0.161 -0.726,0.323 0,0.162 0.081,0.161 0.161,0.161 0.08,0 1.855,-0.081 2.581,0 0.965,0.16 1.772,0.728 2.25,1.518 l 0.008,0.014 c 0.388,0.682 0.616,1.499 0.616,2.369 0,0.597 -0.108,1.169 -0.304,1.697 l 0.011,-0.034 c -1.21,2.661 -10.806,19.031 -11.29,20.16 -0.484,1.129 -0.645,1.855 0.726,2.581 1.371,0.726 2.097,0.403 2.5,-0.081 0.484,-0.645 8.79,-21.451 11.612,-22.821 z"
         id="path1-4"
         style="fill:#ffffff" /></g><path
       style="fill:#333333;stroke:#858585;stroke-width:0"
       d=""
       id="path28" /></g></svg>
