<?xml version="1.0" encoding="UTF-8" standalone="no"?>
<!-- Created with Inkscape (http://www.inkscape.org/) -->

<svg
   width="512"
   height="512"
   viewBox="0 0 512 512"
   version="1.1"
   id="svg1"
   xml:space="preserve"
   xmlns="http://www.w3.org/2000/svg"
   xmlns:svg="http://www.w3.org/2000/svg"><defs
     id="defs1" /><g
     id="layer1"><circle
       style="fill:#f2f2f2;fill-opacity:1;stroke:#afafaf;stroke-width:8;stroke-dasharray:none;stroke-opacity:1"
       id="path1"
       cx="256.00003"
       cy="256.00006"
       r="241.31339" /><g
       id="g1"
       transform="matrix(1.5833333,0,0,1.5833333,18.500005,18.500005)"><rect
         width="300"
         height="300"
         fill="#ffffff"
         ry="150"
         id="rect2"
         x="0"
         y="0"
         style="fill:none" /><path
         fill="red"
         d="m 149.93751,79.222674 c 0,0 -63.218854,5.9e-5 -79.085943,4.123047 -8.495788,2.373802 -15.491409,9.3695 -17.865235,17.990239 -4.122953,15.8671 -4.123047,48.72656 -4.123047,48.72656 0,0 9.4e-5,32.9842 4.123047,48.60156 2.373826,8.62062 9.244506,15.49138 17.865235,17.86524 15.99203,4.24788 79.085943,4.24804 79.085943,4.24804 0,0 63.34418,-5e-5 79.21094,-4.12304 8.62079,-2.37381 15.49133,-9.11966 17.74023,-17.86524 4.24793,-15.74232 4.24805,-48.60156 4.24805,-48.60156 0,0 0.12484,-32.98446 -4.24805,-48.85156 -2.2489,-8.620739 -9.11944,-15.491336 -17.74023,-17.740239 -15.86676,-4.372847 -79.21094,-4.373047 -79.21094,-4.373047 z m -20.11523,40.480466 52.59961,30.35938 -52.59961,30.23438 z"
         id="path4"
         style="fill:#ff0033;fill-opacity:1" /></g><path
       style="fill:#ffffff;stroke:#000000;stroke-width:0;stroke-opacity:0;stroke-dasharray:none"
       d="m 224.15285,255.95593 v -47.47477 l 2.2981,1.39133 c 1.26395,0.76524 19.32169,11.18081 40.12831,23.14571 20.80661,11.9649 38.21926,22.10661 38.69477,22.53712 0.76512,0.69271 -26.03623,16.54061 -77.00926,45.53634 l -4.11192,2.33905 z"
       id="path3" /></g></svg>
